<svg
    version="1.0"
    xmlns="http://www.w3.org/2000/svg"
    width="70pt"
    height="70pt"
    viewBox="0 0 155.000000 155.000000"
    preserveAspectRatio="xMidYMid meet">
    <g transform="translate(0.000000,155.000000) scale(0.100000,-0.100000)" stroke="none">
        <path fill="#19837f" d="M625 1101 c-22 -51 -46 -57 -81 -20 -27 28 -28 28 -56 11 -24 -14 -28 -23 -28 -58 0 -61 -25 -75 -92 -49 -8 3 -23 -7 -36 -24 l-22 -30 24 -28 c31 -36 18 -68 -30 -78 -60 -11 -75 -76 -22 -91 44 -13 47 -39 9 -78 -28 -29 -30 -36 -22 -59 12 -30 13 -31 58 -18 47 14 61 -7 40 -59 -15 -40 -15 -41 9 -56 23 -15 26 -15 59 11 47 35 69 30 73 -18 3 -36 5 -37 41 -37 35 0 40 4 56 40 21 47 44 51 78 14 24 -25 25 -25 56 -10 28 15 31 21 31 61 0 54 17 67 67 52 32 -10 36 -9 58 19 13 16 21 32 18 36 -2 5 -39 8 -82 8 -64 0 -81 -3 -95 -19 -10 -11 -40 -29 -69 -41 -174 -75 -333 80 -256 250 25 55 81 115 134 143 58 30 148 29 200 -2 22 -12 44 -29 48 -37 9 -16 177 -21 177 -4 0 5 -5 20 -11 33 -10 22 -15 24 -48 16 -20 -5 -39 -9 -42 -9 -15 0 -19 35 -8 68 11 32 9 37 -12 53 -23 17 -24 17 -60 -12 -45 -36 -65 -30 -73 22 -6 36 -8 39 -40 39 -29 0 -35 -5 -51 -39z"/>
        <path fill="#9d3b74" d="M530 887 c-14 -12 -34 -33 -45 -47 -11 -14 3 -5 30 20 27 25 52 46 54 48 2 1 0 2 -5 2 -5 -1 -20 -11 -34 -23z"/>
        <path fill="#9d3b74" d="M630 895 c-87 -28 -160 -113 -160 -187 0 -58 17 -64 22 -9 6 61 42 119 94 151 42 27 122 37 153 21 23 -13 29 0 8 18 -23 19 -70 21 -117 6z"/>
        <path fill="#19837f" d="M846 873 c-11 -37 -34 -188 -30 -195 3 -4 39 -8 80 -8 67 0 74 2 74 20 0 18 -7 20 -56 20 -54 0 -55 0 -52 28 3 25 7 27 58 32 57 5 72 23 23 28 -60 6 -71 11 -66 31 4 17 15 21 61 23 45 2 58 7 60 21 3 15 -6 17 -72 17 -62 0 -76 -3 -80 -17z"/>
        <path fill="#9d3b74" d="M1040 837 c-18 -88 -27 -156 -22 -162 3 -3 41 -5 84 -5 71 0 78 2 78 20 0 18 -7 20 -61 20 -52 0 -60 2 -55 16 3 9 6 22 6 30 0 10 14 14 55 14 48 0 55 2 55 20 0 17 -7 20 -51 20 -43 0 -50 3 -47 18 2 13 15 18 58 20 49 3 69 13 70 35 0 4 -36 7 -79 7 l-80 0 -11 -53z"/>
        <path fill="#19837f" d="M1250 875 c0 -9 12 -18 30 -21 l30 -6 -7 -57 c-11 -89 -10 -116 7 -116 10 0 19 25 30 90 l15 90 33 -3 c27 -3 32 0 32 17 0 20 -6 21 -85 21 -70 0 -85 -3 -85 -15z"/>
        <path fill="#19837f" d="M600 817 c-47 -31 -73 -80 -73 -135 0 -32 5 -49 18 -58 28 -21 38 -17 21 8 -9 12 -16 42 -16 66 0 38 6 50 39 83 33 34 45 39 83 39 30 0 54 -7 71 -20 14 -11 28 -16 31 -11 4 5 -6 19 -20 30 -37 29 -110 28 -154 -2z"/>
        <path fill="#9d3b74" d="M628 774 c-18 -9 -32 -28 -39 -54 -11 -36 -10 -44 8 -68 11 -15 31 -29 44 -30 l24 -4 -27 29 c-32 34 -36 73 -10 96 29 27 65 21 91 -13 12 -17 26 -28 32 -25 14 10 11 18 -20 53 -33 35 -60 40 -103 16z"/>
        <path fill="#9d3b74" d="M645 721 c-3 -6 8 -25 25 -42 23 -24 34 -29 42 -21 7 7 10 13 7 14 -2 2 -18 16 -35 31 -21 18 -34 25 -39 18z"/>
    </g>
</svg>