<?xml version="1.0" standalone="no"?>
<!DOCTYPE svg PUBLIC "-//W3C//DTD SVG 1.1//EN" "http://www.w3.org/Graphics/SVG/1.1/DTD/svg11.dtd" >
<svg xmlns="http://www.w3.org/2000/svg" xmlns:xlink="http://www.w3.org/1999/xlink" version="1.1">
<metadata>
Created by FontForge 20170731 at Mon Nov 19 19:14:07 2018
 By Aleksey,,,
Copyright 2004 - 2010 by Robert Bosch GmbH
</metadata>
<defs>
<font id="BoschSans-BoldItalic" horiz-adv-x="1436" >
  <font-face 
    font-family="Bosch Sans Bold"
    font-weight="700"
    font-style="italic"
    font-stretch="normal"
    units-per-em="2048"
    panose-1="2 11 7 4 2 2 2 9 2 4"
    ascent="1638"
    descent="-410"
    x-height="1071"
    cap-height="1464"
    bbox="-514 -557 2757 2111"
    underline-thickness="244"
    underline-position="-676"
    slope="-11"
    unicode-range="U+0020-FB02"
  />
<missing-glyph horiz-adv-x="748" 
d="M68 0v1365h544v-1365h-544zM136 68h408v1229h-408v-1229z" />
    <glyph glyph-name="fi" unicode="fi" horiz-adv-x="1360" 
d="M171 1071h141l20 106q24 120 48 176.5t71 106.5q106 109 287 109q139 0 239 -74l-106 -211q-57 37 -107 37q-99 0 -122 -121l-27 -129h207l-45 -231h-207l-164 -840h-301l162 840h-142zM1229 1556q67 0 110.5 -41.5t43.5 -105.5q0 -82 -61 -138q-53 -48 -121 -48
q-66 0 -108 43t-42 110q0 77 61 133q52 47 117 47zM1008 1071h301l-209 -1071h-301z" />
    <glyph glyph-name="fl" unicode="fl" horiz-adv-x="1410" 
d="M171 1071h141l20 106q24 120 48 176.5t71 106.5q106 109 287 109q139 0 239 -74l-106 -211q-57 37 -107 37q-99 0 -122 -121l-27 -129h207l-45 -231h-207l-164 -840h-301l162 840h-142zM1330 20q-79 -49 -218 -49q-154 0 -215 63q-53 55 -53 171q0 57 29 203l223 1134
h305l-233 -1182q-10 -49 -10 -79q0 -41 18 -57.5t62 -16.5q41 0 100 37z" />
    <glyph glyph-name=".notdef" horiz-adv-x="748" 
d="M68 0v1365h544v-1365h-544zM136 68h408v1229h-408v-1229z" />
    <glyph glyph-name="glyph1" horiz-adv-x="0" 
 />
    <glyph glyph-name="glyph2" horiz-adv-x="659" 
 />
    <glyph glyph-name="space" unicode=" " horiz-adv-x="659" 
 />
    <glyph glyph-name="exclam" unicode="!" horiz-adv-x="771" 
d="M366 1038l84 426h340l-88 -447l-180 -528h-195zM385 354q77 0 127 -55q43 -47 43 -113q0 -91 -68 -152q-59 -52 -139 -52q-77 0 -126 54q-42 47 -42 114q0 90 68 151q58 53 137 53z" />
    <glyph glyph-name="quotedbl" unicode="&#x22;" horiz-adv-x="1031" 
d="M322 1464h323l-145 -571h-252zM758 1464h319l-143 -571h-248z" />
    <glyph glyph-name="numbersign" unicode="#" horiz-adv-x="1156" 
d="M248 1186h191l68 278h188l-70 -278h193l69 278h187l-70 -278h180l-45 -225h-190l-51 -209h182l-45 -225h-193l-67 -281h-187l68 281h-193l-67 -281h-186l67 281h-176l41 225h190l52 209h-177zM519 752h192l52 209h-193z" />
    <glyph glyph-name="dollar" unicode="$" horiz-adv-x="1234" 
d="M441 -10q-189 30 -294 118q-96 80 -134 218l295 104q25 -99 76 -150q46 -45 104 -44l76 383q-224 85 -305 185q-72 89 -72 232q0 222 166 343q144 105 377 104l37 182h143l-39 -199q154 -31 242 -104q80 -66 123 -180l-275 -109q-25 63 -54.5 95.5t-82.5 54.5l-70 -355
q233 -84 316 -185q73 -89 73 -240q0 -232 -168 -356q-147 -108 -393 -109l-49 -254h-143zM685 1243q-103 -7 -150 -46.5t-47 -117.5q0 -58 28.5 -92.5t104.5 -68.5zM629 222q201 9 201 180q0 56 -29.5 93t-103.5 75z" />
    <glyph glyph-name="percent" unicode="%" horiz-adv-x="2046" 
d="M625 1480q166 0 260 -112q82 -97 82 -250q0 -229 -136 -371q-119 -123 -290 -123t-266 111q-82 97 -82 251q0 224 141 369q121 125 291 125zM1455 1464h221l-1006 -1464h-221zM607 1280q-81 0 -127 -90q-41 -78 -41 -199q0 -164 116 -164q79 0 128 93q42 81 42 198
q0 162 -118 162zM1584 836q166 0 260 -112q82 -98 82 -251q0 -228 -136 -370q-119 -123 -290 -123q-169 0 -264 111q-82 97 -82 251q0 226 139 370q121 124 291 124zM1566 635q-81 0 -127 -89q-41 -78 -41 -199q0 -164 117 -164q78 0 127 93q42 80 42 197q0 162 -118 162z
" />
    <glyph glyph-name="ampersand" unicode="&#x26;" horiz-adv-x="1432" 
d="M1257 -6q-48 -6 -90 -6q-144 0 -256 86q-166 -97 -352 -97q-251 0 -388 127q-118 110 -118 291q0 209 147 338q85 74 256 139q-10 67 -10 133q0 229 135 360q118 115 299 115q156 0 244 -87q76 -75 76 -195q0 -157 -112 -254q-98 -85 -310 -152q67 -173 205 -352
q75 122 125 295h243q-82 -268 -223 -459q58 -45 137 -45q25 0 50 2zM731 950q120 41 172.5 95t52.5 136q0 100 -84 100q-68 0 -109 -65t-41 -172q0 -48 9 -94zM506 688q-140 -104 -140 -273q0 -223 219 -223q96 0 181 41q-182 227 -260 455z" />
    <glyph glyph-name="quotesingle" unicode="'" horiz-adv-x="586" 
d="M322 1464h323l-145 -571h-252z" />
    <glyph glyph-name="parenleft" unicode="(" horiz-adv-x="888" 
d="M375 -303q-101 163 -147 326t-46 358q0 462 248 856q106 171 293 352h268q-273 -317 -395 -646q-107 -287 -107 -607q0 -338 127 -639h-241z" />
    <glyph glyph-name="parenright" unicode=")" horiz-adv-x="882" 
d="M551 1589q101 -163 147 -326t46 -358q0 -462 -248 -856q-113 -178 -293 -352h-268q273 317 395 646q107 287 107 607q0 338 -127 639h241z" />
    <glyph glyph-name="asterisk" unicode="*" horiz-adv-x="934" 
d="M247 924l228 204l-238 39l111 232l196 -125l4 268h240l-90 -272l229 125l47 -234l-260 -37l148 -211l-211 -125l-74 246l-160 -246z" />
    <glyph glyph-name="plus" unicode="+" horiz-adv-x="1159" 
d="M178 823h326l74 381h266l-74 -381h330l-51 -252h-328l-74 -381h-266l74 381h-328z" />
    <glyph glyph-name="comma" unicode="," horiz-adv-x="632" 
d="M-5 -199q171 31 209 201q-70 9 -109 53t-39 113q0 87 64 142q56 48 135 48q87 0 136 -62q42 -54 42 -141q0 -89 -33 -180.5t-90 -158.5q-64 -77 -143 -114t-201 -48z" />
    <glyph glyph-name="hyphen" unicode="-" horiz-adv-x="623" 
d="M125 803h475l-53 -276h-475z" />
    <glyph glyph-name="period" unicode="." horiz-adv-x="633" 
d="M260 358q79 0 129 -55q43 -48 43 -115q0 -93 -68 -154q-59 -52 -139 -52t-130 54q-42 47 -42 116q0 92 68 153q59 53 139 53z" />
    <glyph glyph-name="slash" unicode="/" horiz-adv-x="915" 
d="M782 1589h291l-940 -1892h-289z" />
    <glyph glyph-name="zero" unicode="0" horiz-adv-x="1240" 
d="M747 1487q234 0 364 -181q113 -158 113 -411q0 -229 -77 -440q-68 -184 -175 -302q-161 -176 -391 -176q-239 0 -371 182q-114 158 -114 414q0 198 59 384q52 163 137 280q182 250 455 250zM730 1229q-120 0 -196 -168q-106 -232 -106 -525q0 -301 168 -301
q114 0 190 164q106 239 106 527q0 154 -48 234q-42 69 -114 69z" />
    <glyph glyph-name="one" unicode="1" horiz-adv-x="1261" 
d="M817 1481h266l-286 -1481h-318l207 1059q-181 -84 -432 -84l4 184q208 34 337 108q133 77 222 214z" />
    <glyph glyph-name="two" unicode="2" horiz-adv-x="1235" 
d="M49 250q246 146 373.5 235t224.5 183q217 204 217 403q0 71 -42.5 114.5t-113.5 43.5q-80 0 -133.5 -53t-97.5 -177l-274 88q140 400 532 400q228 0 353 -123q108 -107 108 -280q0 -288 -285 -541q-85 -78 -180.5 -141.5t-259.5 -151.5h600l-51 -250h-1018z" />
    <glyph glyph-name="three" unicode="3" horiz-adv-x="1236" 
d="M194 1116q143 371 543 371q231 0 363 -120q114 -104 114 -267q0 -266 -291 -357q211 -87 211 -319q0 -217 -170 -340q-147 -107 -379 -107q-274 0 -426 146q-60 57 -91 122.5t-46 168.5l297 47q27 -238 254 -238q117 0 178 67q53 59 53 159q0 96 -62 145q-54 43 -147 43
h-100l47 227h113q126 0 189 59q55 52 55 144q0 85 -59 134q-52 42 -134 42q-91 0 -149 -48t-105 -163z" />
    <glyph glyph-name="four" unicode="4" horiz-adv-x="1235" 
d="M672 281h-678l53 277l828 923h327l-188 -956h178l-43 -244h-182l-53 -281h-295zM324 525h403l119 614z" />
    <glyph glyph-name="five" unicode="5" horiz-adv-x="1237" 
d="M488 860q116 112 291 112q183 0 280 -123q85 -107 85 -285q0 -285 -176 -447q-153 -140 -393 -140q-243 0 -386 127q-56 48 -88 103.5t-55 144.5l307 63q25 -94 77.5 -138t141.5 -44q122 0 190 94q60 82 60 211q0 196 -170 196q-126 0 -215 -118h-270l229 848h826
l-50 -258h-589z" />
    <glyph glyph-name="six" unicode="6" horiz-adv-x="1241" 
d="M1010 1063q-32 92 -77 129.5t-123 37.5q-270 0 -373 -456q130 178 340 178q187 0 297 -131q96 -114 96 -287q0 -262 -176 -420q-152 -137 -379 -137q-266 0 -399 170q-117 148 -117 407q0 204 62 387q55 161 149 281q206 262 524 262q172 0 278 -78q93 -68 154 -210z
M662 719q-114 0 -183 -87q-61 -76 -61 -186q0 -111 60 -171q53 -52 139 -52q109 0 178 92q60 81 60 195q0 102 -59 159q-52 50 -134 50z" />
    <glyph glyph-name="seven" unicode="7" horiz-adv-x="1253" 
d="M232 0q163 735 719 1208h-688l49 256h1007l-43 -229q-291 -255 -475 -601q-161 -302 -217 -634h-352z" />
    <glyph glyph-name="eight" unicode="8" horiz-adv-x="1235" 
d="M956 749q207 -109 207 -317q0 -217 -179 -344q-155 -111 -391 -111q-271 0 -428 135q-137 117 -137 297t137 289q77 61 215 99q-155 98 -155 268q0 194 166 313q145 104 356 104q228 0 365 -121q118 -105 118 -262q0 -251 -274 -350zM737 1249q-97 0 -156 -64
q-51 -55 -51 -137q0 -85 59 -133q52 -41 133 -41q94 0 148 61q47 52 47 134q0 87 -56 137q-48 43 -124 43zM616 663q-118 0 -189 -74q-61 -64 -61 -159q0 -102 70 -159q61 -50 159 -50q115 0 183 74q59 64 59 161q0 99 -69 157q-61 50 -152 50z" />
    <glyph glyph-name="nine" unicode="9" horiz-adv-x="1237" 
d="M317 397q31 -89 81.5 -128.5t133.5 -39.5q150 0 239 131q78 114 122 344q-128 -163 -334 -163q-190 0 -302 129q-98 112 -98 280q0 251 175 403q152 131 378 131q265 0 398 -173q116 -152 116 -417q0 -443 -220 -697q-192 -220 -490 -220q-180 0 -293 79q-99 69 -164 208
zM710 1236q-113 0 -179 -82q-57 -71 -57 -180q0 -100 59 -153q52 -47 138 -47q112 0 180 79q58 68 58 168q0 105 -61 164q-53 51 -138 51z" />
    <glyph glyph-name="colon" unicode=":" horiz-adv-x="625" 
d="M379 950q79 0 129 -55q43 -48 43 -115q0 -94 -68 -156q-60 -53 -141 -53q-79 0 -129 54q-43 48 -43 116q0 92 69 155q60 54 140 54zM262 358q79 0 129 -54q43 -47 43 -116q0 -93 -67 -154q-59 -52 -140 -52q-79 0 -129 54q-43 47 -43 116q0 90 69 152q59 54 138 54z" />
    <glyph glyph-name="semicolon" unicode=";" horiz-adv-x="624" 
d="M380 950q79 0 129 -55q43 -48 43 -115q0 -94 -68 -156q-60 -53 -141 -53q-79 0 -129 54q-43 48 -43 116q0 92 69 155q60 54 140 54zM-3 -199q169 32 209 201q-71 9 -110.5 53t-39.5 113q0 87 64 142q56 48 135 48q89 0 137 -62q43 -54 43 -141q0 -90 -33.5 -181.5
t-91.5 -157.5q-64 -77 -143 -114t-201 -48z" />
    <glyph glyph-name="less" unicode="&#x3c;" horiz-adv-x="1163" 
d="M177 539l51 252l862 399l-67 -334l-510 -201l428 -223l-57 -301z" />
    <glyph glyph-name="equal" unicode="=" horiz-adv-x="1159" 
d="M260 1022h834l-51 -252h-832zM174 580h834l-49 -252h-834z" />
    <glyph glyph-name="greater" unicode="&#x3e;" horiz-adv-x="1163" 
d="M188 463l515 203l-431 221l60 303l704 -408l-49 -254l-862 -397z" />
    <glyph glyph-name="question" unicode="?" horiz-adv-x="1149" 
d="M427 571q26 125 83 195t193 143q156 85 156 195q0 62 -39.5 98.5t-105.5 36.5q-77 0 -131 -45t-97 -146l-252 98q79 186 215 269q120 72 295 72q213 0 327 -108q99 -95 99 -251q0 -136 -75 -227q-66 -81 -220 -164q-93 -50 -129.5 -91.5t-50.5 -113.5l-6 -43h-279z
M502 354q76 0 125 -55q43 -47 43 -113q0 -91 -68 -152q-59 -52 -139 -52q-77 0 -126 54q-42 47 -42 114q0 90 68 151q59 53 139 53z" />
    <glyph glyph-name="at" unicode="@" horiz-adv-x="1803" 
d="M1357 -168q-127 -86 -241.5 -120t-276.5 -34q-362 0 -572 241q-182 209 -182 533q0 255 121 470q118 208 322 328q210 124 460 124q363 0 574 -228q182 -198 182 -503q0 -276 -137 -434q-119 -137 -303 -137q-208 0 -250 180q-62 -100 -133 -145.5t-166 -45.5
q-142 0 -219 108q-68 94 -68 246q0 247 138 405q119 136 286 136q158 0 211 -131l22 115h250l-106 -516q-10 -54 -10 -84q0 -94 86 -94q111 0 175 126q56 108 56 277q0 284 -180 437q-157 134 -416 134q-207 0 -373 -99q-161 -97 -251 -269q-93 -176 -93 -398
q0 -313 180 -478q156 -144 418 -144q123 0 211.5 26.5t202.5 98.5zM923 751q-94 0 -149 -101q-48 -87 -48 -218q0 -158 113 -158q95 0 155 102q52 88 52 215q0 160 -123 160z" />
    <glyph glyph-name="A" unicode="A" 
d="M385 279l-142 -279h-317l791 1464h368l213 -1464h-328l-32 279h-553zM831 1161l-330 -649h408z" />
    <glyph glyph-name="B" unicode="B" horiz-adv-x="1392" 
d="M351 1464h506q121 0 190 -13t131 -49q168 -91 168 -295q0 -143 -75 -231q-65 -77 -201 -129q124 -40 178 -123q47 -72 47 -186q0 -221 -161 -337q-141 -101 -380 -101h-688zM801 866q125 0 186 59q54 52 54 144q0 79 -46 115t-147 36h-229l-70 -354h252zM736 244
q128 0 193 65q57 57 57 154q0 86 -50 132t-143 46h-287l-78 -397h308z" />
    <glyph glyph-name="C" unicode="C" horiz-adv-x="1432" 
d="M1344 383q-104 -223 -267 -320q-143 -86 -347 -86q-299 0 -455 190q-137 167 -137 447q0 253 96 454q95 197 264 307q172 112 390 112q235 0 380 -122q124 -104 164 -284l-293 -96q-28 134 -96 193q-62 53 -166 53q-193 0 -301 -193q-106 -188 -106 -442q0 -359 280 -359
q222 0 326 267z" />
    <glyph glyph-name="D" unicode="D" horiz-adv-x="1495" 
d="M351 1464h510q298 0 448 -176q131 -153 131 -424t-104 -472q-91 -176 -250 -275q-100 -63 -214.5 -90t-281.5 -27h-524zM611 258q134 0 214.5 29.5t143.5 101.5q141 164 141 473q0 187 -82 271q-72 73 -212 73h-195l-186 -948h176z" />
    <glyph glyph-name="E" unicode="E" horiz-adv-x="1262" 
d="M351 1464h964l-47 -250h-651l-68 -350h488l-47 -238h-488l-71 -376h682l-48 -250h-999z" />
    <glyph glyph-name="F" unicode="F" horiz-adv-x="1211" 
d="M351 1464h948l-47 -250h-631l-78 -403h477l-47 -244h-479l-109 -567h-319z" />
    <glyph glyph-name="G" unicode="G" horiz-adv-x="1570" 
d="M1131 226q-153 -249 -454 -249q-266 0 -411 192q-126 167 -126 440q0 255 100 457q98 197 273 308q178 113 403 113q237 0 373 -99q115 -83 176 -249l-297 -109q-33 111 -94.5 159t-171.5 48q-205 0 -327 -199q-105 -173 -105 -434q0 -381 291 -381q149 0 248 98
q86 86 108 222l4 27h-285l45 227h594l-153 -797h-170z" />
    <glyph glyph-name="H" unicode="H" horiz-adv-x="1486" 
d="M351 1464h321l-117 -598h508l117 598h322l-285 -1464h-322l121 606h-510l-118 -606h-322z" />
    <glyph glyph-name="I" unicode="I" horiz-adv-x="675" 
d="M362 1464h319l-285 -1464h-319z" />
    <glyph glyph-name="J" unicode="J" horiz-adv-x="1245" 
d="M1077 432q-46 -235 -202 -352q-136 -103 -341 -103q-224 0 -343 121q-103 105 -103 281q0 64 12 125l11 43h307l-8 -45q-11 -54 -11 -99q0 -172 154 -172q90 0 138.5 54.5t74.5 185.5l194 993h318z" />
    <glyph glyph-name="K" unicode="K" horiz-adv-x="1411" 
d="M351 1464h319l-125 -637l594 637h359l-611 -629l363 -835h-340l-269 606l-172 -170l-84 -436h-319z" />
    <glyph glyph-name="L" unicode="L" horiz-adv-x="1200" 
d="M351 1464h319l-235 -1208h616l-51 -256h-934z" />
    <glyph glyph-name="M" unicode="M" horiz-adv-x="1836" 
d="M351 1464h428l110 -1005l510 1005h447l-285 -1464h-311l200 1048l-538 -1048h-236l-125 1048l-204 -1048h-281z" />
    <glyph glyph-name="N" unicode="N" horiz-adv-x="1500" 
d="M351 1464h348l332 -1005l196 1005h289l-285 -1464h-336l-340 1024l-200 -1024h-289z" />
    <glyph glyph-name="O" unicode="O" horiz-adv-x="1567" 
d="M887 1487q309 0 479 -198q148 -173 148 -452q0 -203 -76 -386q-66 -159 -178 -269q-205 -205 -514 -205q-299 0 -465 197q-145 172 -145 448q0 186 58 354q51 147 139 253q214 258 554 258zM891 1235q-198 0 -319 -200q-104 -174 -104 -431q0 -195 88 -291
q77 -84 215 -84q192 0 309 201q102 174 102 430q0 195 -85 291q-74 84 -206 84z" />
    <glyph glyph-name="P" unicode="P" horiz-adv-x="1341" 
d="M351 1464h518q196 0 309 -70q178 -112 178 -354q0 -265 -190 -395q-88 -60 -185 -83.5t-258 -23.5h-233l-105 -538h-319zM775 776q141 0 211 75q61 65 61 181q0 186 -193 186h-233l-86 -442h240z" />
    <glyph glyph-name="Q" unicode="Q" horiz-adv-x="1567" 
d="M1013 23q-124 -46 -261 -46q-305 0 -471 197q-145 171 -145 448q0 187 59 353q51 146 140 252q211 260 552 260q309 0 479 -198q148 -172 148 -451q0 -218 -84 -404q-72 -162 -198 -278l112 -160l-213 -139zM748 397l209 144l115 -162q110 171 110 475q0 381 -292 381
q-201 0 -320 -202q-104 -175 -104 -437q0 -198 88 -296q77 -85 213 -85q43 0 100 14z" />
    <glyph glyph-name="R" unicode="R" horiz-adv-x="1423" 
d="M351 1464h520q230 0 340 -70q162 -106 162 -313q0 -165 -92 -270q-48 -52 -107 -82.5t-160 -54.5q106 -37 147 -107t44 -218q18 -292 61 -341v-8h-317q-43 95 -52 361q-4 112 -52.5 159.5t-157.5 47.5h-191l-111 -568h-319zM789 801q138 0 207 71q60 62 60 170
q0 174 -208 174h-227l-80 -415h248z" />
    <glyph glyph-name="S" unicode="S" horiz-adv-x="1251" 
d="M964 1077q-39 87 -97.5 123.5t-156.5 36.5q-107 0 -160 -47q-47 -42 -47 -115t58 -113q51 -36 204 -90q232 -81 318 -185q76 -91 76 -241q0 -230 -175 -358q-153 -111 -399 -111q-476 0 -563 344l295 103q21 -115 98 -160q64 -37 187 -37q118 0 180 53q55 46 55 123
q0 75 -57 117q-51 38 -195 90q-230 83 -316 187q-75 91 -75 239q0 221 163 344q142 107 367 107q383 0 515 -293z" />
    <glyph glyph-name="T" unicode="T" horiz-adv-x="1288" 
d="M621 1214h-393l49 250h1104l-49 -250h-393l-234 -1214h-319z" />
    <glyph glyph-name="U" unicode="U" horiz-adv-x="1494" 
d="M1342 549q-64 -330 -225 -459q-142 -113 -406 -113q-281 0 -422 140q-123 122 -123 335q0 79 18 175l164 837h322l-166 -848q-16 -85 -16 -153q0 -230 235 -230q141 0 211 85q63 75 94 241l176 905h316z" />
    <glyph glyph-name="V" unicode="V" horiz-adv-x="1358" 
d="M210 1464h328l114 -1077l537 1077h321l-770 -1464h-337z" />
    <glyph glyph-name="W" unicode="W" horiz-adv-x="2051" 
d="M250 1464h324l34 -1034l467 1034h265l75 -1044l443 1044h313l-645 -1464h-328l-74 997l-460 -997h-332z" />
    <glyph glyph-name="X" unicode="X" 
d="M572 770l-295 694h361l174 -477l338 477h354l-555 -719l322 -745h-357l-200 536l-400 -536h-356z" />
    <glyph glyph-name="Y" unicode="Y" horiz-adv-x="1350" 
d="M541 612l-309 852h336l192 -575l394 575h331l-628 -868l-115 -596h-320z" />
    <glyph glyph-name="Z" unicode="Z" horiz-adv-x="1269" 
d="M60 270l848 944h-631l49 250h1002l-51 -272l-838 -936h666l-52 -256h-1044z" />
    <glyph glyph-name="bracketleft" unicode="[" horiz-adv-x="876" 
d="M397 1589h557l-45 -236h-252l-275 -1420h248l-45 -236h-557z" />
    <glyph glyph-name="backslash" unicode="\" horiz-adv-x="919" 
d="M265 1589h258l231 -1892h-258z" />
    <glyph glyph-name="bracketright" unicode="]" horiz-adv-x="872" 
d="M519 -303h-557l45 236h252l274 1420h-247l45 236h557z" />
    <glyph glyph-name="asciicircum" unicode="^" horiz-adv-x="1086" 
d="M596 1464h219l193 -651h-234l-120 352l-250 -352h-248z" />
    <glyph glyph-name="underscore" unicode="_" horiz-adv-x="924" 
d="M-166 -188h983l-47 -244h-983z" />
    <glyph glyph-name="grave" unicode="`" horiz-adv-x="1068" 
d="M456 1563h332l59 -360h-209z" />
    <glyph glyph-name="a" unicode="a" horiz-adv-x="1119" 
d="M616 0q-10 58 -10 96q0 17 2 33q-59 -80 -125.5 -116t-157.5 -36q-143 0 -227 90q-72 79 -72 199q0 288 373 352q113 19 297 25l4 23q4 25 4 55q0 129 -145 129t-293 -90l-107 209q108 70 211 99.5t240 29.5q401 0 401 -324q0 -60 -16 -141l-84 -432q-12 -68 -12 -105
q0 -47 12 -84v-12h-295zM661 465q-128 -5 -195 -21q-133 -33 -133 -147q0 -103 111 -103q76 0 130.5 47.5t67.5 125.5z" />
    <glyph glyph-name="b" unicode="b" horiz-adv-x="1261" 
d="M525 921q132 177 326 177q171 0 259 -130q77 -112 77 -304q0 -317 -164 -515q-142 -172 -346 -172q-218 0 -293 224l-39 -201h-303l299 1542h303zM706 867q-127 0 -207 -140q-70 -121 -70 -291q0 -224 182 -224q124 0 197 132q64 115 64 287q0 236 -166 236z" />
    <glyph glyph-name="c" unicode="c" horiz-adv-x="1109" 
d="M1005 258q-87 -155 -208 -222q-106 -59 -251 -59q-232 0 -355 143q-108 123 -108 328q0 308 181 491q157 159 394 159q308 0 416 -263l-252 -116q-34 81 -71 111t-103 30q-127 0 -199 -130q-63 -112 -63 -288q0 -238 176 -238q71 0 120 39t97 132z" />
    <glyph glyph-name="d" unicode="d" horiz-adv-x="1273" 
d="M754 168q-71 -101 -146.5 -146t-175.5 -45q-172 0 -264 132q-80 115 -80 307q0 314 162 511q140 171 342 171q218 0 303 -199l125 643h303l-299 -1542h-303zM670 869q-127 0 -201 -132q-64 -114 -64 -289q0 -236 170 -236q122 0 202 142q69 123 69 293q0 222 -176 222z
" />
    <glyph glyph-name="e" unicode="e" horiz-adv-x="1140" 
d="M543 -23q-233 0 -352 134q-103 117 -103 319q0 309 198 502q171 166 418 166q186 0 290 -97q91 -84 91 -219q0 -255 -358 -321q-121 -24 -338 -29v-20q0 -115 52 -164q46 -44 143 -44q147 0 276 115l137 -190q-171 -152 -454 -152zM412 614q220 0 309 40q79 35 79 108
q0 52 -33 81.5t-92 29.5q-191 0 -263 -259z" />
    <glyph glyph-name="f" unicode="f" horiz-adv-x="797" 
d="M171 1071h141l20 106q24 120 48 176.5t71 106.5q106 109 287 109q139 0 239 -74l-106 -211q-57 37 -107 37q-99 0 -122 -121l-27 -129h207l-45 -231h-207l-164 -840h-301l162 840h-142z" />
    <glyph glyph-name="g" unicode="g" horiz-adv-x="1152" 
d="M1012 868q20 -52 20 -115q0 -177 -139 -278q-120 -88 -307 -88q-116 0 -209 33q-45 -40 -45 -82q0 -72 96 -72h152q137 0 216 -23t130 -77q70 -70 70 -184q0 -199 -168 -301q-147 -90 -398 -90q-243 0 -371 79q-112 69 -112 185q0 157 225 227q-92 59 -92 155
q0 142 193 238q-121 94 -121 240q0 176 148 287q129 96 313 96q154 0 276 -76l313 69l-45 -223h-145zM613 913q-87 0 -138 -64q-44 -56 -44 -141q0 -70 39.5 -109.5t109.5 -39.5q86 0 135 65q43 57 43 146q0 68 -38 105.5t-107 37.5zM328 35q-100 -47 -100 -129
q0 -116 215 -116q134 0 201 42q59 37 59 101q0 102 -144 102h-231z" />
    <glyph glyph-name="h" unicode="h" horiz-adv-x="1217" 
d="M341 1542h303l-123 -637q67 101 147 147t187 46q134 0 205 -88q61 -77 61 -207q0 -54 -18 -160l-123 -643h-305l121 631q12 63 12 92q0 125 -119 125q-86 0 -144 -63t-81 -181l-119 -604h-303z" />
    <glyph glyph-name="i" unicode="i" horiz-adv-x="606" 
d="M482 1556q67 0 110.5 -41.5t43.5 -105.5q0 -82 -61 -138q-53 -48 -121 -48q-66 0 -108 43t-42 110q0 77 60 133q53 47 118 47zM259 1071h303l-209 -1071h-303z" />
    <glyph glyph-name="j" unicode="j" horiz-adv-x="618" 
d="M495 1556q67 0 110.5 -41.5t43.5 -105.5q0 -82 -61 -138q-53 -48 -121 -48q-66 0 -108 43t-42 110q0 77 61 133q52 47 117 47zM356 -72q-61 -319 -364 -319q-126 0 -203 55l86 217q42 -22 80 -22q83 0 106 108l215 1104h304z" />
    <glyph glyph-name="k" unicode="k" horiz-adv-x="1170" 
d="M534 430l-130 -127l-59 -303h-303l299 1542h303l-170 -878l391 407h336l-436 -430l262 -641h-319z" />
    <glyph glyph-name="l" unicode="l" horiz-adv-x="667" 
d="M586 20q-79 -49 -217 -49q-154 0 -215 63q-53 55 -53 171q0 70 29 203l223 1134h305l-233 -1182q-9 -49 -9 -78q0 -42 17.5 -58.5t60.5 -16.5q42 0 101 37z" />
    <glyph glyph-name="m" unicode="m" horiz-adv-x="1782" 
d="M523 911q70 98 146 142.5t174 44.5q191 0 237 -199q79 104 163 151.5t188 47.5q129 0 199 -87q61 -75 61 -198q0 -65 -15 -131l-133 -682h-303l127 657q9 42 9 72q0 119 -109 119q-153 0 -201 -234l-121 -614h-303l127 657q8 41 8 72q0 119 -106 119q-76 0 -130 -61.5
t-75 -172.5l-121 -614h-303l209 1071h303z" />
    <glyph glyph-name="n" unicode="n" horiz-adv-x="1217" 
d="M251 1071h303l-33 -166q68 101 148.5 147t187.5 46q133 0 203 -88q61 -76 61 -205q0 -64 -12 -125l-129 -680h-305l125 651q8 44 8 72q0 125 -119 125q-86 0 -144 -63t-81 -181l-119 -604h-303z" />
    <glyph glyph-name="o" unicode="o" horiz-adv-x="1207" 
d="M652 1098q232 0 361 -151q112 -131 112 -343q0 -293 -182 -472q-158 -155 -391 -155q-230 0 -358 153q-111 133 -111 347q0 290 181 467q157 154 388 154zM648 873q-137 0 -207 -170q-49 -125 -49 -269q0 -232 170 -232q118 0 191 141q63 122 63 300q0 230 -168 230z" />
    <glyph glyph-name="p" unicode="p" horiz-adv-x="1259" 
d="M249 1071h303l-29 -150q131 177 326 177q171 0 259 -130q77 -112 77 -304q0 -317 -164 -515q-142 -172 -346 -172q-218 0 -293 224l-111 -574h-303zM704 867q-127 0 -207 -140q-70 -120 -70 -291q0 -223 183 -223q123 0 196 132q64 114 64 286q0 236 -166 236z" />
    <glyph glyph-name="q" unicode="q" horiz-adv-x="1263" 
d="M743 168q-71 -101 -146.5 -146t-175.5 -45q-172 0 -264 132q-80 115 -80 307q0 314 162 511q140 171 342 171q218 0 303 -199l35 172h303l-281 -1444h-303zM659 869q-127 0 -201 -131q-64 -115 -64 -289q0 -236 170 -236q122 0 202 142q69 123 69 293q0 221 -176 221z
" />
    <glyph glyph-name="r" unicode="r" horiz-adv-x="896" 
d="M251 1071h303l-41 -207q66 121 136 175.5t161 54.5q84 0 141 -44l-100 -276q-61 39 -125 39q-113 0 -186 -81q-64 -70 -88 -193l-107 -539h-303z" />
    <glyph glyph-name="s" unicode="s" horiz-adv-x="1036" 
d="M821 754q-114 127 -266 127q-121 0 -121 -92q0 -43 30 -66t138 -61q178 -64 248 -147q61 -72 61 -181q0 -178 -134 -274q-117 -83 -311 -83q-318 0 -479 195l166 184q121 -158 305 -158q150 0 150 98q0 46 -45 76q-29 17 -143 58q-275 99 -275 319q0 175 129 268
q113 81 299 81q133 0 231.5 -39.5t188.5 -128.5z" />
    <glyph glyph-name="t" unicode="t" horiz-adv-x="827" 
d="M170 1071h141l43 217l324 107l-64 -324h216l-46 -231h-215l-90 -477q-6 -34 -6 -54q0 -80 74 -80q42 0 102 29l62 -211q-111 -70 -266 -70q-146 0 -220 79q-65 68 -65 186q0 47 8 86l98 512h-141z" />
    <glyph glyph-name="u" unicode="u" horiz-adv-x="1207" 
d="M691 156q-71 -97 -147.5 -140t-178.5 -43q-133 0 -203 88q-61 76 -61 205q0 62 14 140l131 665h304l-125 -633q-13 -68 -13 -100q0 -123 115 -123q174 0 221 246l121 610h303l-209 -1071h-303z" />
    <glyph glyph-name="v" unicode="v" horiz-adv-x="1092" 
d="M134 1071h315l66 -741l350 741h305l-557 -1071h-334z" />
    <glyph glyph-name="w" unicode="w" horiz-adv-x="1655" 
d="M160 1071h307l31 -700l305 700h262l41 -700l303 700h301l-516 -1071h-299l-49 668l-289 -668h-303z" />
    <glyph glyph-name="x" unicode="x" horiz-adv-x="1161" 
d="M406 563l-230 508h336l121 -317l234 317h327l-428 -516l252 -555h-336l-141 356l-268 -356h-326z" />
    <glyph glyph-name="y" unicode="y" horiz-adv-x="1125" 
d="M550 -107q-88 -160 -192 -225q-92 -57 -220 -57q-138 0 -233 71l115 209q53 -40 118 -40q56 0 92.5 29.5t71.5 102.5l21 43l-187 1045h316l96 -678l344 678h307z" />
    <glyph glyph-name="z" unicode="z" horiz-adv-x="1008" 
d="M20 220l598 613h-455l48 238h831l-45 -224l-596 -607h487l-47 -240h-866z" />
    <glyph glyph-name="braceleft" unicode="{" horiz-adv-x="881" 
d="M615 -305q-139 4 -219 30t-133 85q-74 79 -74 208q0 50 10 101l47 233q6 31 6 60q0 58 -41.5 84.5t-136.5 29.5l51 250q111 0 164.5 40.5t73.5 139.5l53 271q42 218 183 296q123 68 384 68l-43 -233q-118 -8 -164 -45t-67 -142l-53 -268q-25 -119 -84 -180t-170 -84
q82 -26 119.5 -73t37.5 -126q0 -32 -10 -86l-45 -237l-2 -11q-6 -42 -6 -53q0 -63 36 -90t130 -35z" />
    <glyph glyph-name="bar" unicode="|" horiz-adv-x="676" 
d="M256 1589h238v-1892h-238v1892z" />
    <glyph glyph-name="braceright" unicode="}" horiz-adv-x="875" 
d="M306 1591q139 -4 219 -30t133 -84q74 -80 74 -209q0 -46 -11 -101l-47 -233q-6 -31 -6 -60q0 -58 41.5 -84.5t136.5 -29.5l-51 -250q-111 0 -164 -40.5t-73 -139.5l-54 -271q-44 -218 -183 -296q-123 -68 -384 -68l43 233q118 8 164 45t67 142l54 268q24 119 83 180
t171 84q-83 26 -120.5 73t-37.5 126q0 32 10 86l45 237q9 50 9 64q0 63 -36 90t-130 35z" />
    <glyph glyph-name="asciitilde" unicode="~" horiz-adv-x="1161" 
d="M145 512q38 158 92 242q91 135 227 135q80 0 193 -72q71 -47 109 -47q41 0 65 27.5t41 95.5l211 -16q-37 -155 -92 -240q-91 -135 -225 -135q-83 0 -193 72q-71 47 -109 47q-41 0 -64.5 -27t-41.5 -96z" />
    <glyph glyph-name="nonbreakingspace" unicode="&#xa0;" horiz-adv-x="659" 
 />
    <glyph glyph-name="exclamdown" unicode="&#xa1;" horiz-adv-x="768" 
d="M517 1110q81 0 130 -53q42 -46 42 -115q0 -92 -68 -153q-59 -52 -138 -52q-76 0 -125 55q-43 47 -43 113q0 92 67 153q57 52 135 52zM165 74l180 528h197l-41 -549l-84 -426h-338z" />
    <glyph glyph-name="cent" unicode="&#xa2;" horiz-adv-x="1248" 
d="M490 -10q-89 22 -146.5 55.5t-105.5 91.5q-100 122 -100 316q0 136 46.5 259.5t131.5 211.5q79 80 165.5 118t221.5 51l39 195h144l-41 -207q236 -46 317 -286l-254 -97q-33 117 -108 152l-125 -653q111 26 184 180l221 -119q-74 -138 -200 -209q-110 -63 -248 -69
l-50 -256h-143zM658 860q-108 -34 -164 -131q-67 -119 -67 -291q0 -168 106 -227z" />
    <glyph glyph-name="sterling" unicode="&#xa3;" horiz-adv-x="1239" 
d="M157 803h143q-23 99 -23 192q0 244 160 376q139 116 367 116q216 0 342 -117q86 -76 135 -211l-289 -78q-11 70 -62.5 109t-132.5 39q-102 0 -155 -71q-46 -62 -46 -167q0 -86 21 -188h355l-33 -182h-293q8 -90 8 -135q0 -98 -33 -199q81 -43 146 -43q66 0 102.5 34.5
t61.5 119.5l264 -43q-67 -215 -169 -300q-89 -75 -233 -75q-150 0 -290 114q-124 -114 -279 -114q-128 0 -200 70q-62 61 -62 157q0 116 87 182q75 58 194 58q63 0 137 -27q-6 72 -35 201h-221zM351 230q-61 47 -115 47q-38 0 -61 -18t-23 -48q0 -65 78 -65q76 0 121 84z
" />
    <glyph glyph-name="currency" unicode="&#xa4;" horiz-adv-x="1240" 
d="M232 948q83 276 263 416q157 123 365 123q205 0 320 -115q90 -90 129 -250l-295 -68q-18 98 -58 138.5t-118 40.5q-181 0 -277 -285h307l-28 -150h-316q-12 -72 -16 -147h303l-29 -150h-274q22 -262 207 -262q150 0 211 166l274 -88q-47 -111 -147 -207
q-143 -133 -354 -133q-242 0 -378 157q-118 137 -132 367h-152l29 150h123q5 97 12 147h-127l29 150h129z" />
    <glyph glyph-name="yen" unicode="&#xa5;" horiz-adv-x="1251" 
d="M178 801h250l-234 663h351l157 -567l383 567h328l-483 -663h252l-29 -150h-332l-12 -16l-29 -138h344l-28 -147h-344l-68 -350h-322l68 350h-342l31 147h340l28 138l-6 16h-332z" />
    <glyph glyph-name="brokenbar" unicode="&#xa6;" horiz-adv-x="597" 
d="M359 1464h243l-114 -587h-244zM189 588h243l-114 -588h-244z" />
    <glyph glyph-name="section" unicode="&#xa7;" horiz-adv-x="1174" 
d="M959 1102q-81 156 -240 156q-66 0 -104.5 -31.5t-38.5 -85.5q0 -51 38 -87t136 -77q211 -88 292 -178q72 -80 72 -191q0 -210 -276 -285q92 -100 92 -227q0 -184 -140 -289q-122 -92 -311 -92q-329 0 -481 262l215 137q53 -88 117.5 -128t155.5 -40q147 0 147 115
q0 50 -43.5 86.5t-165.5 89.5q-185 80 -263 173q-69 81 -69 188q0 111 66.5 180t210.5 106q-84 99 -84 224q0 181 139 287q122 92 307 92q164 0 275 -69q97 -61 166 -181zM676 436q139 21 139 125q0 88 -155 151l-140 58q-135 -19 -135 -123q0 -89 156 -154z" />
    <glyph glyph-name="dieresis" unicode="&#xa8;" horiz-adv-x="1047" 
d="M489 1556q67 0 109.5 -41.5t42.5 -105.5q0 -82 -60 -138q-52 -48 -122 -48q-65 0 -107.5 43.5t-42.5 109.5q0 78 60 133q52 47 120 47zM940 1556q64 0 106.5 -42t42.5 -105q0 -82 -60 -138q-52 -48 -122 -48q-64 0 -104.5 42.5t-40.5 110.5q0 78 60 133q51 47 118 47z
" />
    <glyph glyph-name="copyright" unicode="&#xa9;" horiz-adv-x="1636" 
d="M932 1480q310 0 501 -216q165 -187 165 -459q0 -224 -109 -416q-105 -186 -285 -295q-186 -112 -403 -112q-185 0 -338 90q-149 87 -234 239q-87 157 -87 346q0 222 109 415q105 186 284 295q185 113 397 113zM928 1374q-182 0 -336 -96q-150 -93 -237 -253
q-90 -165 -90 -359q0 -273 175 -435q151 -140 380 -140q178 0 331 97q148 94 235 254q89 166 89 359q0 271 -173 433q-149 140 -374 140zM1225 532q-73 -133 -171 -190q-86 -49 -207 -49q-182 0 -289 123q-92 107 -92 270q0 227 146 368q126 122 308 122q253 0 338 -234
l-201 -98q-21 64 -55 91.5t-90 27.5q-95 0 -150 -83q-48 -71 -48 -181q0 -191 153 -191q58 0 96.5 30t69.5 99z" />
    <glyph glyph-name="ordfeminine" unicode="&#xaa;" horiz-adv-x="979" 
d="M651 551q-12 34 -12 113q-90 -131 -240 -131q-122 0 -191 75q-61 66 -61 168q0 115 71 192q62 66 171 95q98 25 323 35q9 30 9 57q0 113 -121 113q-130 0 -254 -76l-93 184q181 111 394 111q179 0 268 -79q78 -70 78 -192q0 -33 -10 -94l-76 -397q-10 -55 -10 -88
q0 -42 12 -76v-10h-258zM686 948q-154 0 -220 -38q-57 -34 -57 -103q0 -84 92 -84q64 0 110 38.5t58 102.5z" />
    <glyph glyph-name="guillemotleft" unicode="&#xab;" horiz-adv-x="1080" 
d="M96 508l297 401h258l-307 -422l137 -411h-242zM504 496l309 413h258l-322 -432l142 -401h-242z" />
    <glyph glyph-name="logicalnot" unicode="&#xac;" horiz-adv-x="1173" 
d="M686 598h-469l51 262h723l-104 -541h-256z" />
    <glyph glyph-name="uni00AD" unicode="&#xad;" horiz-adv-x="623" 
d="M125 803h475l-53 -276h-475z" />
    <glyph glyph-name="registered" unicode="&#xae;" horiz-adv-x="1170" 
d="M726 1480q210 0 340 -145q113 -126 113 -307q0 -249 -179 -413q-154 -142 -366 -142q-205 0 -334 146q-112 127 -112 308q0 148 75 277q72 126 194 200q126 76 269 76zM720 1386q-197 0 -320 -144q-106 -124 -106 -304q0 -181 111 -283q96 -88 247 -88q191 0 313 148
q105 128 105 311q0 177 -107 275q-93 85 -243 85zM532 1225h223q164 0 164 -133q0 -109 -123 -135q43 -14 53.5 -38t16.5 -126q2 -30 10 -43v-4h-133q-14 32 -14 100q0 66 -56 66h-57l-33 -166h-143zM704 1010q76 0 76 62q0 51 -55 51h-70l-21 -113h70z" />
    <glyph glyph-name="macron" unicode="&#xaf;" horiz-adv-x="1057" 
d="M468 1497h516l-39 -207h-518z" />
    <glyph glyph-name="degree" unicode="&#xb0;" horiz-adv-x="936" 
d="M627 1484q158 0 251 -101q81 -88 81 -222q0 -191 -129 -308q-111 -102 -272 -102q-158 0 -251 102q-81 88 -81 222q0 186 130 305q113 104 271 104zM615 1312q-84 0 -133 -71q-43 -61 -43 -152q0 -78 36.5 -122t100.5 -44q79 0 127 72q41 62 41 155q0 77 -34 119.5
t-95 42.5z" />
    <glyph glyph-name="plusminus" unicode="&#xb1;" horiz-adv-x="1149" 
d="M199 981h330l68 338h264l-66 -338h328l-51 -252h-326l-67 -344h-267l68 344h-330zM58 252h922l-47 -252h-922z" />
    <glyph glyph-name="twosuperior" unicode="&#xb2;" horiz-adv-x="936" 
d="M168 1088q288 136 407 241q105 93 105 185q0 68 -66 68q-78 0 -123 -111l-243 61q103 273 407 273q165 0 253 -79q77 -69 77 -183q0 -275 -420 -443h338l-41 -217h-733z" />
    <glyph glyph-name="threesuperior" unicode="&#xb3;" horiz-adv-x="938" 
d="M253 1550q54 131 172 197q102 57 241 57q166 0 257 -71q79 -62 79 -163q0 -156 -192 -215q133 -49 133 -184q0 -143 -133 -230q-116 -75 -289 -75q-215 0 -311 96q-35 34 -50 71t-18 99l254 58q9 -115 121 -115q57 0 92 30.5t35 80.5q0 63 -92 63h-74l35 178h73
q60 0 95.5 28.5t35.5 75.5q0 64 -86 64q-104 0 -159 -104z" />
    <glyph glyph-name="acute" unicode="&#xb4;" horiz-adv-x="1061" 
d="M669 1563h355l-275 -360h-219z" />
    <glyph glyph-name="mu" unicode="&#xb5;" horiz-adv-x="1220" 
d="M-32 -373l281 1444h303l-119 -622q-8 -43 -8 -79q0 -153 133 -153q69 0 121 63t73 173l121 618h305l-209 -1071h-272l23 174q-69 -120 -111 -159.5t-102 -39.5q-110 0 -150 82l-86 -430h-303z" />
    <glyph glyph-name="paragraph" unicode="&#xb6;" horiz-adv-x="1264" 
d="M560 674h-7q-175 0 -273 105q-85 91 -85 237q0 217 149 340q129 108 330 108h615l-285 -1464h-209l250 1280h-160l-250 -1280h-207z" />
    <glyph glyph-name="glyph121" unicode="&#xb7;" horiz-adv-x="633" 
d="M362 858q77 0 128 -56q44 -49 44 -116q0 -93 -69 -154q-60 -53 -142 -53q-79 0 -128 54q-42 47 -42 116q0 92 69 155q60 54 140 54z" />
    <glyph glyph-name="cedilla" unicode="&#xb8;" horiz-adv-x="1065" 
d="M424 -109q28 5 37 5q63 0 103 -43.5t40 -112.5q0 -97 -69 -152q-61 -47 -158 -47q-152 0 -217 115l125 59q32 -51 88 -51q35 0 56 19.5t21 52.5q0 61 -63 61q-34 0 -63 -33l-78 60l143 176h131z" />
    <glyph glyph-name="onesuperior" unicode="&#xb9;" horiz-adv-x="949" 
d="M732 1790h252l-176 -907h-281l115 592q-137 -54 -287 -54l12 170q128 22 211 67q84 46 154 132z" />
    <glyph glyph-name="ordmasculine" unicode="&#xba;" horiz-adv-x="1050" 
d="M671 1487q195 0 307 -128q98 -111 98 -284q0 -252 -160 -408q-138 -135 -340 -135q-192 0 -305 130q-98 112 -98 284q0 247 161 405q140 136 337 136zM658 1280q-103 0 -162 -110q-51 -95 -51 -244q0 -195 146 -195q100 0 158 112q51 97 51 244q0 193 -142 193z" />
    <glyph glyph-name="guillemotright" unicode="&#xbb;" horiz-adv-x="1080" 
d="M322 508l-140 401h242l145 -422l-311 -411h-258zM729 496l-137 413h237l146 -432l-295 -401h-260z" />
    <glyph glyph-name="onequarter" unicode="&#xbc;" horiz-adv-x="1909" 
d="M408 641l104 536q-129 -49 -262 -49l12 156q115 19 191.5 60.5t140.5 119.5h225l-159 -823h-252zM1389 1464h221l-1006 -1464h-221zM1673 319h107l-35 -180h-106l-27 -139h-264l26 139h-391l39 196l477 488h273zM1421 311l56 285l-269 -285h213z" />
    <glyph glyph-name="onehalf" unicode="&#xbd;" horiz-adv-x="1906" 
d="M408 641l104 536q-129 -49 -262 -49l12 156q115 19 191.5 60.5t140.5 119.5h225l-159 -823h-252zM1389 1464h221l-1006 -1464h-221zM1823 598q0 -251 -381 -401h307l-37 -197h-665l34 187q261 122 369 219q94 84 94 168q0 61 -59 61q-66 0 -111 -100l-219 55
q92 248 369 248q149 0 229 -72q70 -63 70 -168z" />
    <glyph glyph-name="threequarters" unicode="&#xbe;" horiz-adv-x="1903" 
d="M229 1249q98 229 377 229q149 0 232 -65q71 -56 71 -146q0 -144 -174 -196q121 -44 121 -166q0 -132 -121 -211q-105 -68 -262 -68q-197 0 -283 86q-32 32 -45 65.5t-16 90.5l231 53q9 -105 109 -105q52 0 84.5 28t32.5 73q0 58 -84 58h-68l31 161h67q54 0 85.5 25.5
t31.5 69.5q0 57 -78 57q-90 0 -143 -94zM1389 1464h221l-1006 -1464h-221zM1339 139h-391l37 196l477 488h273l-97 -504h107l-35 -180h-106l-29 -139h-264zM1173 311h213l56 285z" />
    <glyph glyph-name="questiondown" unicode="&#xbf;" horiz-adv-x="1146" 
d="M742 1110q80 0 129 -54q43 -47 43 -116q0 -92 -68 -154q-59 -53 -139 -53q-76 0 -125 56q-43 49 -43 116q0 91 67 152q58 53 136 53zM973 -59q-77 -183 -213 -265q-120 -71 -295 -71q-215 0 -329 107q-99 93 -99 249q0 135 74 224q65 79 221 165q97 53 131 91.5t49 115.5
l8 41h277l-15 -80q-26 -126 -82 -194t-196 -144q-85 -47 -120.5 -91.5t-35.5 -102.5q0 -63 40.5 -100t109.5 -37q74 0 127 45t96 145z" />
    <glyph glyph-name="Agrave" unicode="&#xc0;" 
d="M385 279l-142 -279h-317l791 1464h368l213 -1464h-328l-32 279h-553zM831 1161l-330 -649h408zM641 1935h332l55 -356h-209z" />
    <glyph glyph-name="Aacute" unicode="&#xc1;" 
d="M385 279l-142 -279h-317l791 1464h368l213 -1464h-328l-32 279h-553zM831 1161l-330 -649h408zM942 1935h355l-275 -356h-219z" />
    <glyph glyph-name="Acircumflex" unicode="&#xc2;" 
d="M385 279l-142 -279h-317l791 1464h368l213 -1464h-328l-32 279h-553zM831 1161l-330 -649h408zM877 1935h227l152 -348h-205l-95 145l-151 -145h-211z" />
    <glyph glyph-name="Atilde" unicode="&#xc3;" horiz-adv-x="1434" 
d="M385 279l-142 -279h-317l791 1464h368l213 -1464h-328l-32 279h-553zM831 1161l-330 -649h408zM1318 1872q-60 -291 -256 -291q-70 0 -155 55q-51 33 -80 33q-52 0 -78 -84l-168 12q36 160 103 229q58 62 147 62q66 0 151 -53q59 -35 84 -35q47 0 76 84z" />
    <glyph glyph-name="Adieresis" unicode="&#xc4;" horiz-adv-x="1434" 
d="M385 279l-142 -279h-317l791 1464h368l213 -1464h-328l-32 279h-553zM831 1161l-330 -649h408zM747 1903q65 0 106.5 -40.5t41.5 -102.5q0 -81 -59 -136q-51 -47 -119 -47q-62 0 -103 42.5t-41 107.5q0 76 57 129q51 47 117 47zM1185 1903q62 0 103 -41t41 -102
q0 -82 -58 -136q-50 -47 -118 -47q-63 0 -102.5 41.5t-39.5 108.5q0 76 58 129q51 47 116 47z" />
    <glyph glyph-name="Aring" unicode="&#xc5;" 
d="M385 279l-142 -279h-317l791 1464h368l213 -1464h-328l-32 279h-553zM831 1161l-330 -649h408zM977 2005q99 0 158 -64q51 -56 51 -141q0 -108 -79 -178q-69 -61 -165 -61q-99 0 -159 65q-52 57 -52 140q0 108 81 178q69 61 165 61zM969 1888q-42 0 -69.5 -33.5
t-27.5 -84.5q0 -41 21.5 -65.5t56.5 -24.5q41 0 69 34t28 82q0 42 -21.5 67t-56.5 25z" />
    <glyph glyph-name="AE" unicode="&#xc6;" horiz-adv-x="2050" 
d="M991 1464h1110l-47 -250h-635l-67 -350h471l-47 -238h-471l-72 -376h666l-47 -250h-983l57 299h-447l-204 -299h-326zM641 535h330l129 665z" />
    <glyph glyph-name="Ccedilla" unicode="&#xc7;" horiz-adv-x="1432" 
d="M750 237q222 0 326 267l268 -121q-103 -219 -264 -317q-140 -86 -340 -89l-76 -86q29 4 37 4q64 0 104 -43.5t40 -112.5q0 -97 -70 -151q-60 -47 -157 -47q-153 0 -218 115l125 59q32 -51 88 -51q35 0 56.5 19.5t21.5 52.5q0 61 -64 61q-33 0 -63 -33l-78 60l131 161
q-243 35 -369 218q-110 161 -110 411q0 253 96 454q95 197 264 307q172 112 390 112q235 0 380 -122q124 -104 164 -284l-293 -96q-28 134 -96 193q-62 53 -166 53q-193 0 -301 -193q-106 -188 -106 -442q0 -359 280 -359z" />
    <glyph glyph-name="Egrave" unicode="&#xc8;" horiz-adv-x="1262" 
d="M351 1464h964l-47 -250h-651l-68 -350h488l-47 -238h-488l-71 -376h682l-48 -250h-999zM555 1935h332l55 -356h-209z" />
    <glyph glyph-name="Eacute" unicode="&#xc9;" horiz-adv-x="1262" 
d="M351 1464h964l-47 -250h-651l-68 -350h488l-47 -238h-488l-71 -376h682l-48 -250h-999zM856 1935h355l-275 -356h-219z" />
    <glyph glyph-name="Ecircumflex" unicode="&#xca;" horiz-adv-x="1262" 
d="M351 1464h964l-47 -250h-651l-68 -350h488l-47 -238h-488l-71 -376h682l-48 -250h-999zM791 1935h227l152 -348h-205l-95 145l-151 -145h-211z" />
    <glyph glyph-name="Edieresis" unicode="&#xcb;" horiz-adv-x="1262" 
d="M351 1464h964l-47 -250h-651l-68 -350h488l-47 -238h-488l-71 -376h682l-48 -250h-999zM662 1903q65 0 106.5 -40.5t41.5 -102.5q0 -81 -59 -136q-51 -47 -119 -47q-62 0 -103 42.5t-41 107.5q0 76 57 129q51 47 117 47zM1100 1903q62 0 103 -41t41 -102q0 -82 -58 -136
q-50 -47 -118 -47q-63 0 -102.5 41.5t-39.5 108.5q0 76 58 129q51 47 116 47z" />
    <glyph glyph-name="Igrave" unicode="&#xcc;" horiz-adv-x="675" 
d="M362 1464h319l-285 -1464h-319zM265 1935h332l55 -356h-209z" />
    <glyph glyph-name="Iacute" unicode="&#xcd;" horiz-adv-x="692" 
d="M362 1464h319l-285 -1464h-319zM566 1935h355l-275 -356h-219z" />
    <glyph glyph-name="Icircumflex" unicode="&#xce;" horiz-adv-x="689" 
d="M362 1464h319l-285 -1464h-319zM501 1935h227l152 -348h-205l-95 145l-151 -145h-211z" />
    <glyph glyph-name="Idieresis" unicode="&#xcf;" horiz-adv-x="694" 
d="M362 1464h319l-285 -1464h-319zM372 1903q65 0 106.5 -40.5t41.5 -102.5q0 -81 -59 -136q-51 -47 -119 -47q-62 0 -103 42.5t-41 107.5q0 76 57 129q51 47 117 47zM810 1903q62 0 103 -41t41 -102q0 -82 -58 -136q-50 -47 -118 -47q-63 0 -102.5 41.5t-39.5 108.5
q0 76 58 129q51 47 116 47z" />
    <glyph glyph-name="Eth" unicode="&#xd0;" horiz-adv-x="1502" 
d="M73 0l117 608h-131l43 217h131l125 639h510q300 0 450 -176q130 -153 130 -424q0 -431 -246 -663q-213 -201 -565 -201h-564zM442 258h215q233 0 355 180q106 157 106 424q0 188 -82 271q-72 73 -213 73h-195l-75 -381h247l-43 -217h-247z" />
    <glyph glyph-name="Ntilde" unicode="&#xd1;" horiz-adv-x="1500" 
d="M351 1464h348l332 -1005l196 1005h289l-285 -1464h-336l-340 1024l-200 -1024h-289zM1354 1872q-60 -291 -256 -291q-70 0 -155 55q-51 33 -80 33q-52 0 -78 -84l-168 12q36 160 103 229q58 62 147 62q66 0 151 -53q59 -35 84 -35q47 0 76 84z" />
    <glyph glyph-name="Ograve" unicode="&#xd2;" horiz-adv-x="1567" 
d="M887 1487q309 0 479 -198q148 -173 148 -452q0 -203 -76 -386q-66 -159 -178 -269q-205 -205 -514 -205q-299 0 -465 197q-145 172 -145 448q0 186 58 354q51 147 139 253q214 258 554 258zM891 1235q-198 0 -319 -200q-104 -174 -104 -431q0 -195 88 -291
q77 -84 215 -84q192 0 309 201q102 174 102 430q0 195 -85 291q-74 84 -206 84zM711 1935h332l55 -356h-209z" />
    <glyph glyph-name="Oacute" unicode="&#xd3;" horiz-adv-x="1567" 
d="M887 1487q309 0 479 -198q148 -173 148 -452q0 -203 -76 -386q-66 -159 -178 -269q-205 -205 -514 -205q-299 0 -465 197q-145 172 -145 448q0 186 58 354q51 147 139 253q214 258 554 258zM891 1235q-198 0 -319 -200q-104 -174 -104 -431q0 -195 88 -291
q77 -84 215 -84q192 0 309 201q102 174 102 430q0 195 -85 291q-74 84 -206 84zM1012 1935h355l-275 -356h-219z" />
    <glyph glyph-name="Ocircumflex" unicode="&#xd4;" horiz-adv-x="1567" 
d="M887 1487q309 0 479 -198q148 -173 148 -452q0 -203 -76 -386q-66 -159 -178 -269q-205 -205 -514 -205q-299 0 -465 197q-145 172 -145 448q0 186 58 354q51 147 139 253q214 258 554 258zM891 1235q-198 0 -319 -200q-104 -174 -104 -431q0 -195 88 -291
q77 -84 215 -84q192 0 309 201q102 174 102 430q0 195 -85 291q-74 84 -206 84zM947 1935h227l152 -348h-205l-95 145l-151 -145h-211z" />
    <glyph glyph-name="Otilde" unicode="&#xd5;" horiz-adv-x="1567" 
d="M887 1487q309 0 479 -198q148 -173 148 -452q0 -203 -76 -386q-66 -159 -178 -269q-205 -205 -514 -205q-299 0 -465 197q-145 172 -145 448q0 186 58 354q51 147 139 253q214 258 554 258zM891 1235q-198 0 -319 -200q-104 -174 -104 -431q0 -195 88 -291
q77 -84 215 -84q192 0 309 201q102 174 102 430q0 195 -85 291q-74 84 -206 84zM1389 1872q-60 -291 -256 -291q-70 0 -155 55q-51 33 -80 33q-52 0 -78 -84l-168 12q36 160 103 229q58 62 147 62q66 0 151 -53q59 -35 84 -35q47 0 76 84z" />
    <glyph glyph-name="Odieresis" unicode="&#xd6;" horiz-adv-x="1567" 
d="M887 1487q309 0 479 -198q148 -173 148 -452q0 -203 -76 -386q-66 -159 -178 -269q-205 -205 -514 -205q-299 0 -465 197q-145 172 -145 448q0 186 58 354q51 147 139 253q214 258 554 258zM891 1235q-198 0 -319 -200q-104 -174 -104 -431q0 -195 88 -291
q77 -84 215 -84q192 0 309 201q102 174 102 430q0 195 -85 291q-74 84 -206 84zM818 1903q65 0 106.5 -40.5t41.5 -102.5q0 -81 -59 -136q-51 -47 -119 -47q-62 0 -103 42.5t-41 107.5q0 76 57 129q51 47 117 47zM1256 1903q62 0 103 -41t41 -102q0 -82 -58 -136
q-50 -47 -118 -47q-63 0 -102.5 41.5t-39.5 108.5q0 76 58 129q51 47 116 47z" />
    <glyph glyph-name="multiply" unicode="&#xd7;" horiz-adv-x="1159" 
d="M120 381l319 330l-319 327l172 170l317 -327l316 327l172 -170l-318 -327l318 -330l-172 -170l-316 326l-317 -326z" />
    <glyph glyph-name="Oslash" unicode="&#xd8;" horiz-adv-x="1563" 
d="M1413 1214q94 -157 94 -379q0 -202 -76 -384q-66 -159 -178 -269q-208 -205 -510 -205q-247 0 -414 140l-116 -117h-238l244 248q-92 157 -92 375q0 248 97 448q96 194 265 304q173 112 389 112q256 0 422 -142l117 119h241zM1097 1140q-82 95 -214 95q-183 0 -295 -162
q-59 -84 -94 -209.5t-35 -255.5q0 -56 8 -108zM536 328q80 -99 221 -99q204 0 316 201q102 185 102 428q0 53 -8 108z" />
    <glyph glyph-name="Ugrave" unicode="&#xd9;" horiz-adv-x="1494" 
d="M1342 549q-64 -330 -225 -459q-142 -113 -406 -113q-281 0 -422 140q-123 122 -123 335q0 79 18 175l164 837h322l-166 -848q-16 -85 -16 -153q0 -230 235 -230q141 0 211 85q63 75 94 241l176 905h316zM676 1935h332l55 -356h-209z" />
    <glyph glyph-name="Uacute" unicode="&#xda;" horiz-adv-x="1494" 
d="M1342 549q-64 -330 -225 -459q-142 -113 -406 -113q-281 0 -422 140q-123 122 -123 335q0 79 18 175l164 837h322l-166 -848q-16 -85 -16 -153q0 -230 235 -230q141 0 211 85q63 75 94 241l176 905h316zM977 1935h355l-275 -356h-219z" />
    <glyph glyph-name="Ucircumflex" unicode="&#xdb;" horiz-adv-x="1494" 
d="M1342 549q-64 -330 -225 -459q-142 -113 -406 -113q-281 0 -422 140q-123 122 -123 335q0 79 18 175l164 837h322l-166 -848q-16 -85 -16 -153q0 -230 235 -230q141 0 211 85q63 75 94 241l176 905h316zM912 1935h227l152 -348h-205l-95 145l-151 -145h-211z" />
    <glyph glyph-name="Udieresis" unicode="&#xdc;" horiz-adv-x="1494" 
d="M782 1903q65 0 106.5 -40.5t41.5 -102.5q0 -81 -59 -136q-51 -47 -119 -47q-62 0 -103 42.5t-41 107.5q0 76 57 129q51 47 117 47zM1221 1903q61 0 102 -41t41 -102q0 -82 -58 -136q-50 -47 -118 -47q-63 0 -102 41.5t-39 108.5q0 76 58 129q51 47 116 47zM1342 549
q-64 -330 -225 -459q-142 -113 -406 -113q-281 0 -422 140q-123 122 -123 335q0 79 18 175l164 837h322l-166 -848q-16 -85 -16 -153q0 -230 235 -230q141 0 211 85q63 75 94 241l176 905h316z" />
    <glyph glyph-name="Yacute" unicode="&#xdd;" horiz-adv-x="1350" 
d="M541 612l-309 852h336l192 -575l394 575h331l-628 -868l-115 -596h-320zM903 1935h355l-275 -356h-219z" />
    <glyph glyph-name="Thorn" unicode="&#xde;" horiz-adv-x="1342" 
d="M351 1464h319l-47 -243h225q233 0 355 -121q106 -106 106 -285q0 -258 -178 -398q-155 -122 -408 -122h-282l-56 -295h-319zM725 533q143 0 214 74q61 64 61 180q0 188 -193 188h-233l-86 -442h237z" />
    <glyph glyph-name="germandbls" unicode="&#xdf;" horiz-adv-x="1227" 
d="M255 1092q31 157 67.5 233.5t108.5 136.5q128 107 332 107q198 0 307 -106q94 -91 94 -240q0 -125 -70 -213q-65 -82 -206 -119q138 -43 196 -141q52 -87 52 -232q0 -259 -141 -407q-122 -129 -314 -129q-127 0 -217 51l45 219h6q40 -30 109 -30q105 0 161 96
q48 83 48 223q0 123 -46.5 177.5t-162.5 67.5l41 209q214 3 214 207q0 156 -131 156q-76 0 -116.5 -52t-65.5 -182l-217 -1124h-307z" />
    <glyph glyph-name="agrave" unicode="&#xe0;" horiz-adv-x="1119" 
d="M616 0q-10 58 -10 96q0 17 2 33q-59 -80 -125.5 -116t-157.5 -36q-143 0 -227 90q-72 79 -72 199q0 288 373 352q113 19 297 25l4 23q4 25 4 55q0 129 -145 129t-293 -90l-107 209q108 70 211 99.5t240 29.5q401 0 401 -324q0 -60 -16 -141l-84 -432q-12 -68 -12 -105
q0 -47 12 -84v-12h-295zM661 465q-128 -5 -195 -21q-133 -33 -133 -147q0 -103 111 -103q76 0 130.5 47.5t67.5 125.5zM423 1563h332l59 -360h-209z" />
    <glyph glyph-name="aacute" unicode="&#xe1;" horiz-adv-x="1115" 
d="M616 0q-10 58 -10 96q0 17 2 33q-59 -80 -125.5 -116t-157.5 -36q-143 0 -227 90q-72 79 -72 199q0 288 373 352q113 19 297 25l4 23q4 25 4 55q0 129 -145 129t-293 -90l-107 209q108 70 211 99.5t240 29.5q401 0 401 -324q0 -60 -16 -141l-84 -432q-12 -68 -12 -105
q0 -47 12 -84v-12h-295zM661 465q-128 -5 -195 -21q-133 -33 -133 -147q0 -103 111 -103q76 0 130.5 47.5t67.5 125.5zM716 1567h355l-275 -360h-219z" />
    <glyph glyph-name="acircumflex" unicode="&#xe2;" horiz-adv-x="1116" 
d="M616 0q-10 58 -10 96q0 17 2 33q-59 -80 -125.5 -116t-157.5 -36q-143 0 -227 90q-72 79 -72 199q0 288 373 352q113 19 297 25l4 23q4 25 4 55q0 129 -145 129t-293 -90l-107 209q108 70 211 99.5t240 29.5q401 0 401 -324q0 -60 -16 -141l-84 -432q-12 -68 -12 -105
q0 -47 12 -84v-12h-295zM661 465q-128 -5 -195 -21q-133 -33 -133 -147q0 -103 111 -103q76 0 130.5 47.5t67.5 125.5zM663 1567h227l154 -360h-205l-95 166l-151 -166h-211z" />
    <glyph glyph-name="atilde" unicode="&#xe3;" horiz-adv-x="1113" 
d="M616 0q-10 58 -10 96q0 17 2 33q-59 -80 -125.5 -116t-157.5 -36q-143 0 -227 90q-72 79 -72 199q0 288 373 352q113 19 297 25l4 23q4 25 4 55q0 129 -145 129t-293 -90l-107 209q108 70 211 99.5t240 29.5q401 0 401 -324q0 -60 -16 -141l-84 -432q-12 -68 -12 -105
q0 -47 12 -84v-12h-295zM661 465q-128 -5 -195 -21q-133 -33 -133 -147q0 -103 111 -103q76 0 130.5 47.5t67.5 125.5zM1091 1523q-60 -290 -256 -290q-70 0 -155 55q-51 33 -80 33q-52 0 -78 -84l-168 12q36 160 103 230q58 61 147 61q66 0 151 -53q59 -35 86 -35
q45 0 74 84z" />
    <glyph glyph-name="adieresis" unicode="&#xe4;" horiz-adv-x="1112" 
d="M616 0q-10 58 -10 96q0 17 2 33q-59 -80 -125.5 -116t-157.5 -36q-143 0 -227 90q-72 79 -72 199q0 288 373 352q113 19 297 25l4 23q4 25 4 55q0 129 -145 129t-293 -90l-107 209q108 70 211 99.5t240 29.5q401 0 401 -324q0 -60 -16 -141l-84 -432q-12 -68 -12 -105
q0 -47 12 -84v-12h-295zM661 465q-128 -5 -195 -21q-133 -33 -133 -147q0 -103 111 -103q76 0 130.5 47.5t67.5 125.5zM511 1556q67 0 109.5 -41.5t42.5 -105.5q0 -82 -60 -138q-52 -48 -122 -48q-65 0 -107.5 43.5t-42.5 109.5q0 78 60 133q52 47 120 47zM962 1556
q64 0 106.5 -42t42.5 -105q0 -82 -60 -138q-52 -48 -122 -48q-64 0 -104.5 42.5t-40.5 110.5q0 78 60 133q51 47 118 47z" />
    <glyph glyph-name="aring" unicode="&#xe5;" horiz-adv-x="1119" 
d="M616 0q-10 58 -10 96q0 17 2 33q-59 -80 -125.5 -116t-157.5 -36q-143 0 -227 90q-72 79 -72 199q0 288 373 352q113 19 297 25l4 23q4 25 4 55q0 129 -145 129t-293 -90l-107 209q108 70 211 99.5t240 29.5q401 0 401 -324q0 -60 -16 -141l-84 -432q-12 -68 -12 -105
q0 -47 12 -84v-12h-295zM661 465q-128 -5 -195 -21q-133 -33 -133 -147q0 -103 111 -103q76 0 130.5 47.5t67.5 125.5zM745 1632q99 0 158 -64q51 -56 51 -141q0 -108 -79 -178q-69 -61 -165 -61q-99 0 -159 65q-52 57 -52 140q0 108 81 178q69 61 165 61zM737 1515
q-42 0 -69.5 -34t-27.5 -84q0 -41 21.5 -65.5t56.5 -24.5q41 0 69 34t28 82q0 42 -21.5 67t-56.5 25z" />
    <glyph glyph-name="ae" unicode="&#xe6;" horiz-adv-x="1733" 
d="M351 -23q-147 0 -232 89q-73 77 -73 196q0 369 612 369h52l8 41q6 30 6 61q0 115 -145 115q-156 0 -300 -88l-106 209q107 69 214.5 99t246.5 30q121 0 195.5 -33.5t123.5 -110.5q149 144 350 144q185 0 286 -96q89 -83 89 -217q0 -137 -89 -214q-78 -68 -234 -100
q-126 -25 -369 -31v-28q0 -108 41.5 -158t130.5 -50q147 0 277 115l137 -190q-172 -152 -432 -152q-162 0 -264 60q-90 52 -146 156q-77 -113 -167.5 -164.5t-211.5 -51.5zM1011 623q229 0 313 36q73 31 73 105q0 51 -34.5 80t-94.5 29q-188 0 -257 -250zM462 194
q75 0 129 47t69 126l17 86h-43q-283 0 -283 -156q0 -103 111 -103z" />
    <glyph glyph-name="ccedilla" unicode="&#xe7;" horiz-adv-x="1109" 
d="M562 205q71 0 120 38.5t97 131.5l226 -117q-84 -148 -198 -216q-99 -59 -235 -65l-75 -86q27 4 37 4q63 0 103 -43.5t40 -112.5q0 -97 -70 -151q-60 -47 -157 -47q-153 0 -217 115l124 59q32 -51 88 -51q35 0 56.5 19.5t21.5 52.5q0 61 -63 61q-34 0 -64 -33l-77 60
l131 162q-186 27 -283 164q-84 118 -84 299q0 307 181 490q157 159 394 159q308 0 416 -263l-252 -116q-34 81 -71 111t-103 30q-126 0 -199 -129q-63 -113 -63 -288q0 -238 176 -238z" />
    <glyph glyph-name="egrave" unicode="&#xe8;" horiz-adv-x="1140" 
d="M543 -23q-233 0 -352 134q-103 117 -103 319q0 309 198 502q171 166 418 166q186 0 290 -97q91 -84 91 -219q0 -255 -358 -321q-121 -24 -338 -29v-20q0 -115 52 -164q46 -44 143 -44q147 0 276 115l137 -190q-171 -152 -454 -152zM412 614q220 0 309 40q79 35 79 108
q0 52 -33 81.5t-92 29.5q-191 0 -263 -259zM438 1563h332l59 -360h-209z" />
    <glyph glyph-name="eacute" unicode="&#xe9;" horiz-adv-x="1140" 
d="M543 -23q-233 0 -352 134q-103 117 -103 319q0 309 198 502q171 166 418 166q186 0 290 -97q91 -84 91 -219q0 -255 -358 -321q-121 -24 -338 -29v-20q0 -115 52 -164q46 -44 143 -44q147 0 276 115l137 -190q-171 -152 -454 -152zM412 614q220 0 309 40q79 35 79 108
q0 52 -33 81.5t-92 29.5q-191 0 -263 -259zM731 1567h355l-275 -360h-219z" />
    <glyph glyph-name="ecircumflex" unicode="&#xea;" horiz-adv-x="1140" 
d="M543 -23q-233 0 -352 134q-103 117 -103 319q0 309 198 502q171 166 418 166q186 0 290 -97q91 -84 91 -219q0 -255 -358 -321q-121 -24 -338 -29v-20q0 -115 52 -164q46 -44 143 -44q147 0 276 115l137 -190q-171 -152 -454 -152zM412 614q220 0 309 40q79 35 79 108
q0 52 -33 81.5t-92 29.5q-191 0 -263 -259zM678 1567h227l154 -360h-205l-95 166l-151 -166h-211z" />
    <glyph glyph-name="edieresis" unicode="&#xeb;" horiz-adv-x="1137" 
d="M543 -23q-233 0 -352 134q-103 117 -103 319q0 309 198 502q171 166 418 166q186 0 290 -97q91 -84 91 -219q0 -255 -358 -321q-121 -24 -338 -29v-20q0 -115 52 -164q46 -44 143 -44q147 0 276 115l137 -190q-171 -152 -454 -152zM412 614q220 0 309 40q79 35 79 108
q0 52 -33 81.5t-92 29.5q-191 0 -263 -259zM526 1556q67 0 109.5 -41.5t42.5 -105.5q0 -82 -60 -138q-52 -48 -122 -48q-65 0 -107.5 43.5t-42.5 109.5q0 78 60 133q52 47 120 47zM977 1556q64 0 106.5 -42t42.5 -105q0 -82 -60 -138q-52 -48 -122 -48q-64 0 -104.5 42.5
t-40.5 110.5q0 78 60 133q51 47 118 47z" />
    <glyph glyph-name="igrave" unicode="&#xec;" horiz-adv-x="606" 
d="M259 1071h303l-209 -1071h-303zM171 1563h332l59 -360h-209z" />
    <glyph glyph-name="iacute" unicode="&#xed;" horiz-adv-x="618" 
d="M259 1071h303l-209 -1071h-303zM463 1567h355l-275 -360h-219z" />
    <glyph glyph-name="icircumflex" unicode="&#xee;" horiz-adv-x="616" 
d="M259 1071h303l-209 -1071h-303zM411 1567h227l154 -360h-205l-95 166l-151 -166h-211z" />
    <glyph glyph-name="idieresis" unicode="&#xef;" horiz-adv-x="621" 
d="M259 1071h303l-209 -1071h-303zM259 1556q67 0 109.5 -41.5t42.5 -105.5q0 -82 -60 -138q-52 -48 -122 -48q-65 0 -107.5 43.5t-42.5 109.5q0 78 60 133q52 47 120 47zM710 1556q64 0 106.5 -42t42.5 -105q0 -82 -60 -138q-52 -48 -122 -48q-64 0 -104.5 42.5
t-40.5 110.5q0 78 60 133q51 47 118 47z" />
    <glyph glyph-name="eth" unicode="&#xf0;" horiz-adv-x="1201" 
d="M406 1233l145 102q-22 19 -64 55q-28 25 -44 37l145 181q89 -54 176 -119l162 114l76 -122l-127 -91q150 -160 211 -324q53 -143 53 -329q0 -376 -179 -581q-156 -179 -409 -179q-238 0 -367 145q-112 125 -112 330q0 274 167 451q145 154 345 154q144 0 236 -101
q-48 143 -164 277l-172 -123zM641 842q-123 0 -198 -129q-64 -111 -64 -277q0 -228 182 -228q120 0 192 128q62 112 62 280q0 226 -174 226z" />
    <glyph glyph-name="ntilde" unicode="&#xf1;" horiz-adv-x="1216" 
d="M251 1071h303l-33 -166q68 101 148.5 147t187.5 46q133 0 203 -88q61 -76 61 -205q0 -64 -12 -125l-129 -680h-305l125 651q8 44 8 72q0 125 -119 125q-86 0 -144 -63t-81 -181l-119 -604h-303zM1141 1523q-60 -290 -256 -290q-70 0 -155 55q-51 33 -80 33q-52 0 -78 -84
l-168 12q36 160 103 230q58 61 147 61q66 0 151 -53q59 -35 86 -35q45 0 74 84z" />
    <glyph glyph-name="ograve" unicode="&#xf2;" horiz-adv-x="1207" 
d="M652 1098q232 0 361 -151q112 -131 112 -343q0 -293 -182 -472q-158 -155 -391 -155q-230 0 -358 153q-111 133 -111 347q0 290 181 467q157 154 388 154zM648 873q-137 0 -207 -170q-49 -125 -49 -269q0 -232 170 -232q118 0 191 141q63 122 63 300q0 230 -168 230z
M470 1563h332l59 -360h-209z" />
    <glyph glyph-name="oacute" unicode="&#xf3;" horiz-adv-x="1207" 
d="M652 1098q232 0 361 -151q112 -131 112 -343q0 -293 -182 -472q-158 -155 -391 -155q-230 0 -358 153q-111 133 -111 347q0 290 181 467q157 154 388 154zM648 873q-137 0 -207 -170q-49 -125 -49 -269q0 -232 170 -232q118 0 191 141q63 122 63 300q0 230 -168 230z
M763 1567h355l-275 -360h-219z" />
    <glyph glyph-name="ocircumflex" unicode="&#xf4;" horiz-adv-x="1207" 
d="M652 1098q232 0 361 -151q112 -131 112 -343q0 -293 -182 -472q-158 -155 -391 -155q-230 0 -358 153q-111 133 -111 347q0 290 181 467q157 154 388 154zM648 873q-137 0 -207 -170q-49 -125 -49 -269q0 -232 170 -232q118 0 191 141q63 122 63 300q0 230 -168 230z
M710 1567h227l154 -360h-205l-95 166l-151 -166h-211z" />
    <glyph glyph-name="otilde" unicode="&#xf5;" horiz-adv-x="1206" 
d="M652 1098q232 0 361 -151q112 -131 112 -343q0 -293 -182 -472q-158 -155 -391 -155q-230 0 -358 153q-111 133 -111 347q0 290 181 467q157 154 388 154zM648 873q-137 0 -207 -170q-49 -125 -49 -269q0 -232 170 -232q118 0 191 141q63 122 63 300q0 230 -168 230z
M1137 1523q-60 -290 -256 -290q-70 0 -155 55q-51 33 -80 33q-52 0 -78 -84l-168 12q36 160 103 230q58 61 147 61q66 0 151 -53q59 -35 86 -35q45 0 74 84z" />
    <glyph glyph-name="odieresis" unicode="&#xf6;" horiz-adv-x="1204" 
d="M652 1098q232 0 361 -151q112 -131 112 -343q0 -293 -182 -472q-158 -155 -391 -155q-230 0 -358 153q-111 133 -111 347q0 290 181 467q157 154 388 154zM648 873q-137 0 -207 -170q-49 -125 -49 -269q0 -232 170 -232q118 0 191 141q63 122 63 300q0 230 -168 230z
M558 1556q67 0 109.5 -41.5t42.5 -105.5q0 -82 -60 -138q-52 -48 -122 -48q-65 0 -107.5 43.5t-42.5 109.5q0 78 60 133q52 47 120 47zM1009 1556q64 0 106.5 -42t42.5 -105q0 -82 -60 -138q-52 -48 -122 -48q-64 0 -104.5 42.5t-40.5 110.5q0 78 60 133q51 47 118 47z" />
    <glyph glyph-name="divide" unicode="&#xf7;" horiz-adv-x="1159" 
d="M715 1300q70 0 116 -51q39 -44 39 -107q0 -85 -62 -142q-54 -50 -128 -50q-73 0 -120 52q-40 45 -40 108q0 84 65 141q55 49 130 49zM178 823h922l-51 -252h-922zM547 446q74 0 120 -51q40 -44 40 -107q0 -85 -64 -142q-55 -50 -129 -50q-73 0 -118 51q-40 44 -40 107
q0 84 63 142q55 50 128 50z" />
    <glyph glyph-name="oslash" unicode="&#xf8;" horiz-adv-x="1203" 
d="M165 0h-209l199 195q-68 110 -68 276q0 295 180 473q156 154 387 154q187 0 316 -105l80 78h209l-195 -190q66 -129 66 -275q0 -295 -182 -474q-159 -155 -392 -155q-188 0 -309 103zM783 811q-49 62 -131 62q-128 0 -201 -140q-63 -121 -63 -309zM433 262
q47 -60 135 -60q141 0 213 176q47 122 47 255v16z" />
    <glyph glyph-name="ugrave" unicode="&#xf9;" horiz-adv-x="1207" 
d="M691 156q-71 -97 -147.5 -140t-178.5 -43q-133 0 -203 88q-61 76 -61 205q0 62 14 140l131 665h304l-125 -633q-13 -68 -13 -100q0 -123 115 -123q174 0 221 246l121 610h303l-209 -1071h-303zM474 1563h332l59 -360h-209z" />
    <glyph glyph-name="uacute" unicode="&#xfa;" horiz-adv-x="1207" 
d="M691 156q-71 -97 -147.5 -140t-178.5 -43q-133 0 -203 88q-61 76 -61 205q0 62 14 140l131 665h304l-125 -633q-13 -68 -13 -100q0 -123 115 -123q174 0 221 246l121 610h303l-209 -1071h-303zM766 1567h355l-275 -360h-219z" />
    <glyph glyph-name="ucircumflex" unicode="&#xfb;" horiz-adv-x="1207" 
d="M691 156q-71 -97 -147.5 -140t-178.5 -43q-133 0 -203 88q-61 76 -61 205q0 62 14 140l131 665h304l-125 -633q-13 -68 -13 -100q0 -123 115 -123q174 0 221 246l121 610h303l-209 -1071h-303zM714 1567h227l154 -360h-205l-95 166l-151 -166h-211z" />
    <glyph glyph-name="udieresis" unicode="&#xfc;" horiz-adv-x="1207" 
d="M691 156q-71 -97 -147.5 -140t-178.5 -43q-133 0 -203 88q-61 76 -61 205q0 62 14 140l131 665h304l-125 -633q-13 -68 -13 -100q0 -123 115 -123q174 0 221 246l121 610h303l-209 -1071h-303zM562 1556q67 0 109.5 -41.5t42.5 -105.5q0 -82 -60 -138q-52 -48 -122 -48
q-65 0 -107.5 43.5t-42.5 109.5q0 78 60 133q52 47 120 47zM1013 1556q64 0 106.5 -42t42.5 -105q0 -82 -60 -138q-52 -48 -122 -48q-64 0 -104.5 42.5t-40.5 110.5q0 78 60 133q51 47 118 47z" />
    <glyph glyph-name="yacute" unicode="&#xfd;" horiz-adv-x="1125" 
d="M550 -107q-88 -160 -192 -225q-92 -57 -220 -57q-138 0 -233 71l115 209q53 -40 118 -40q56 0 92.5 29.5t71.5 102.5l21 43l-187 1045h316l96 -678l344 678h307zM724 1567h355l-275 -360h-219z" />
    <glyph glyph-name="thorn" unicode="&#xfe;" horiz-adv-x="1260" 
d="M342 1542h303l-123 -645q135 201 332 201q169 0 257 -130q77 -114 77 -304q0 -319 -164 -516q-143 -171 -350 -171q-215 0 -293 199l-107 -549h-303zM707 867q-127 0 -207 -140q-70 -122 -70 -295q0 -219 183 -219q123 0 196 133q64 116 64 289q0 232 -166 232z" />
    <glyph glyph-name="ydieresis" unicode="&#xff;" horiz-adv-x="1125" 
d="M550 -107q-88 -160 -192 -225q-92 -57 -220 -57q-138 0 -233 71l115 209q53 -40 118 -40q56 0 92.5 29.5t71.5 102.5l21 43l-187 1045h316l96 -678l344 678h307zM519 1556q67 0 109.5 -41.5t42.5 -105.5q0 -82 -60 -138q-52 -48 -122 -48q-65 0 -107.5 43.5t-42.5 109.5
q0 78 60 133q52 47 120 47zM970 1556q64 0 106.5 -42t42.5 -105q0 -82 -60 -138q-52 -48 -122 -48q-64 0 -104.5 42.5t-40.5 110.5q0 78 60 133q51 47 118 47z" />
    <glyph glyph-name="Amacron" unicode="&#x100;" 
d="M385 279l-142 -279h-317l791 1464h368l213 -1464h-328l-32 279h-553zM831 1161l-330 -649h408zM710 1833h516l-39 -207h-518z" />
    <glyph glyph-name="amacron" unicode="&#x101;" horiz-adv-x="1119" 
d="M616 0q-10 58 -10 96q0 17 2 33q-59 -80 -125.5 -116t-157.5 -36q-143 0 -227 90q-72 79 -72 199q0 288 373 352q113 19 297 25l4 23q4 25 4 55q0 129 -145 129t-293 -90l-107 209q108 70 211 99.5t240 29.5q401 0 401 -324q0 -60 -16 -141l-84 -432q-12 -68 -12 -105
q0 -47 12 -84v-12h-295zM661 465q-128 -5 -195 -21q-133 -33 -133 -147q0 -103 111 -103q76 0 130.5 47.5t67.5 125.5zM485 1497h516l-39 -207h-518z" />
    <glyph glyph-name="Abreve" unicode="&#x102;" 
d="M385 279l-142 -279h-317l791 1464h368l213 -1464h-328l-32 279h-553zM831 1161l-330 -649h408zM1292 1907q-16 -95 -43 -150t-80 -100q-96 -78 -233 -78q-149 0 -229 90q-40 43 -54 93t-14 145h207q1 -70 26 -101.5t80 -31.5q106 0 133 133h207z" />
    <glyph glyph-name="abreve" unicode="&#x103;" horiz-adv-x="1117" 
d="M616 0q-10 58 -10 96q0 17 2 33q-59 -80 -125.5 -116t-157.5 -36q-143 0 -227 90q-72 79 -72 199q0 288 373 352q113 19 297 25l4 23q4 25 4 55q0 129 -145 129t-293 -90l-107 209q108 70 211 99.5t240 29.5q401 0 401 -324q0 -60 -16 -141l-84 -432q-12 -68 -12 -105
q0 -47 12 -84v-12h-295zM661 465q-128 -5 -195 -21q-133 -33 -133 -147q0 -103 111 -103q76 0 130.5 47.5t67.5 125.5zM1030 1554q-16 -105 -42 -162t-77 -102q-90 -78 -221 -78q-142 0 -219 90q-39 43 -52.5 95.5t-13.5 156.5h199q1 -79 24 -113t76 -34q55 0 84.5 34.5
t42.5 112.5h199z" />
    <glyph glyph-name="Aogonek" unicode="&#x104;" horiz-adv-x="1433" 
d="M1298 0q-176 -120 -176 -228q0 -57 66 -57q44 0 84 37l63 -104q-78 -70 -186 -70q-102 0 -156 49q-47 43 -47 115q0 160 197 258h-173l-32 279h-553l-142 -279h-317l791 1464h368zM831 1161l-330 -649h408z" />
    <glyph glyph-name="aogonek" unicode="&#x105;" horiz-adv-x="1119" 
d="M911 0q-177 -120 -177 -228q0 -57 66 -57q42 0 84 37l64 -104q-79 -70 -189 -70q-100 0 -154 49q-47 43 -47 115q0 160 197 258h-139q-10 58 -10 96q0 17 2 33q-59 -80 -125.5 -116t-157.5 -36q-143 0 -227 90q-72 79 -72 199q0 288 373 352q113 19 297 25l4 23
q4 25 4 55q0 129 -145 129t-293 -90l-107 209q108 70 211 99.5t240 29.5q401 0 401 -324q0 -60 -16 -141l-84 -432q-12 -68 -12 -105q0 -47 12 -84v-12zM661 465q-128 -5 -195 -21q-133 -33 -133 -147q0 -103 111 -103q76 0 130.5 47.5t67.5 125.5z" />
    <glyph glyph-name="Cacute" unicode="&#x106;" horiz-adv-x="1432" 
d="M1344 383q-104 -223 -267 -320q-143 -86 -347 -86q-299 0 -455 190q-137 167 -137 447q0 253 96 454q95 197 264 307q172 112 390 112q235 0 380 -122q124 -104 164 -284l-293 -96q-28 134 -96 193q-62 53 -166 53q-193 0 -301 -193q-106 -188 -106 -442q0 -359 280 -359
q222 0 326 267zM947 1935h355l-275 -356h-219z" />
    <glyph glyph-name="cacute" unicode="&#x107;" horiz-adv-x="1109" 
d="M1005 258q-87 -155 -208 -222q-106 -59 -251 -59q-232 0 -355 143q-108 123 -108 328q0 308 181 491q157 159 394 159q308 0 416 -263l-252 -116q-34 81 -71 111t-103 30q-127 0 -199 -130q-63 -112 -63 -288q0 -238 176 -238q71 0 120 39t97 132zM718 1567h355
l-275 -360h-219z" />
    <glyph glyph-name="Ccircumflex" unicode="&#x108;" horiz-adv-x="1432" 
d="M1344 383q-104 -223 -267 -320q-143 -86 -347 -86q-299 0 -455 190q-137 167 -137 447q0 253 96 454q95 197 264 307q172 112 390 112q235 0 380 -122q124 -104 164 -284l-293 -96q-28 134 -96 193q-62 53 -166 53q-193 0 -301 -193q-106 -188 -106 -442q0 -359 280 -359
q222 0 326 267zM882 1935h227l152 -348h-205l-95 145l-151 -145h-211z" />
    <glyph glyph-name="ccircumflex" unicode="&#x109;" horiz-adv-x="1109" 
d="M1005 258q-87 -155 -208 -222q-106 -59 -251 -59q-232 0 -355 143q-108 123 -108 328q0 308 181 491q157 159 394 159q308 0 416 -263l-252 -116q-34 81 -71 111t-103 30q-127 0 -199 -130q-63 -112 -63 -288q0 -238 176 -238q71 0 120 39t97 132zM665 1567h227l154 -360
h-205l-95 166l-151 -166h-211z" />
    <glyph glyph-name="Cdotaccent" unicode="&#x10a;" horiz-adv-x="1432" 
d="M1344 383q-104 -223 -267 -320q-143 -86 -347 -86q-299 0 -455 190q-137 167 -137 447q0 253 96 454q95 197 264 307q172 112 390 112q235 0 380 -122q124 -104 164 -284l-293 -96q-28 134 -96 193q-62 53 -166 53q-193 0 -301 -193q-106 -188 -106 -442q0 -359 280 -359
q222 0 326 267zM969 1907q64 0 105.5 -40.5t41.5 -103.5q0 -79 -58 -132q-51 -46 -118 -46q-62 0 -102.5 42t-40.5 106q0 75 58 128q50 46 114 46z" />
    <glyph glyph-name="cdotaccent" unicode="&#x10b;" horiz-adv-x="1109" 
d="M1005 258q-87 -155 -208 -222q-106 -59 -251 -59q-232 0 -355 143q-108 123 -108 328q0 308 181 491q157 159 394 159q308 0 416 -263l-252 -116q-34 81 -71 111t-103 30q-127 0 -199 -130q-63 -112 -63 -288q0 -238 176 -238q71 0 120 39t97 132zM736 1556
q67 0 110.5 -41.5t43.5 -105.5q0 -82 -61 -138q-53 -48 -121 -48q-66 0 -108 43t-42 110q0 77 60 133q53 47 118 47z" />
    <glyph glyph-name="Ccaron" unicode="&#x10c;" horiz-adv-x="1432" 
d="M1344 383q-104 -223 -267 -320q-143 -86 -347 -86q-299 0 -455 190q-137 167 -137 447q0 253 96 454q95 197 264 307q172 112 390 112q235 0 380 -122q124 -104 164 -284l-293 -96q-28 134 -96 193q-62 53 -166 53q-193 0 -301 -193q-106 -188 -106 -442q0 -359 280 -359
q222 0 326 267zM668 1935h205l94 -145l152 145h211l-283 -348h-227z" />
    <glyph glyph-name="ccaron" unicode="&#x10d;" horiz-adv-x="1108" 
d="M1005 258q-87 -155 -208 -222q-106 -59 -251 -59q-232 0 -355 143q-108 123 -108 328q0 308 181 491q157 159 394 159q308 0 416 -263l-252 -116q-34 81 -71 111t-103 30q-127 0 -199 -130q-63 -112 -63 -288q0 -238 176 -238q71 0 120 39t97 132zM433 1567h205l94 -166
l152 166h211l-281 -360h-227z" />
    <glyph glyph-name="Dcaron" unicode="&#x10e;" horiz-adv-x="1495" 
d="M351 1464h510q298 0 448 -176q131 -153 131 -424t-104 -472q-91 -176 -250 -275q-100 -63 -214.5 -90t-281.5 -27h-524zM611 258q134 0 214.5 29.5t143.5 101.5q141 164 141 473q0 187 -82 271q-72 73 -212 73h-195l-186 -948h176zM572 1935h205l94 -145l152 145h211
l-283 -348h-227z" />
    <glyph glyph-name="dcaron" unicode="&#x10f;" horiz-adv-x="1475" 
d="M754 168q-71 -101 -146.5 -146t-175.5 -45q-172 0 -264 132q-80 115 -80 307q0 314 162 511q140 171 342 171q218 0 303 -199l125 643h303l-299 -1542h-303zM670 869q-127 0 -201 -132q-64 -114 -64 -289q0 -236 170 -236q122 0 202 142q69 123 69 293q0 222 -176 222z
M1356 1192q133 24 153 104q-53 7 -85 40.5t-32 85.5q0 59 41 98t104 39q65 0 105.5 -45t40.5 -117q0 -140 -94 -225q-49 -44 -107 -64t-151 -24z" />
    <glyph glyph-name="Dcroat" unicode="&#x110;" horiz-adv-x="1502" 
d="M73 0l117 608h-131l43 217h131l125 639h510q300 0 450 -176q130 -153 130 -424q0 -431 -246 -663q-213 -201 -565 -201h-564zM442 258h215q233 0 355 180q106 157 106 424q0 188 -82 271q-72 73 -213 73h-195l-75 -381h247l-43 -217h-247z" />
    <glyph glyph-name="dcroat" unicode="&#x111;" horiz-adv-x="1280" 
d="M1020 1542h303l-31 -160h135l-36 -197h-138l-229 -1185h-303l33 168q-71 -101 -146.5 -146t-175.5 -45q-172 0 -264 132q-80 115 -80 306q0 314 162 511q140 171 342 171q218 0 303 -198l55 286h-221l37 197h223zM670 868q-127 0 -201 -132q-64 -114 -64 -288
q0 -236 170 -236q122 0 202 142q69 123 69 293q0 221 -176 221z" />
    <glyph glyph-name="Emacron" unicode="&#x112;" horiz-adv-x="1262" 
d="M351 1464h964l-47 -250h-651l-68 -350h488l-47 -238h-488l-71 -376h682l-48 -250h-999zM625 1833h516l-39 -207h-518z" />
    <glyph glyph-name="emacron" unicode="&#x113;" horiz-adv-x="1140" 
d="M543 -23q-233 0 -352 134q-103 117 -103 319q0 309 198 502q171 166 418 166q186 0 290 -97q91 -84 91 -219q0 -255 -358 -321q-121 -24 -338 -29v-20q0 -115 52 -164q46 -44 143 -44q147 0 276 115l137 -190q-171 -152 -454 -152zM412 614q220 0 309 40q79 35 79 108
q0 52 -33 81.5t-92 29.5q-191 0 -263 -259zM500 1497h516l-39 -207h-518z" />
    <glyph glyph-name="Ebreve" unicode="&#x114;" horiz-adv-x="1262" 
d="M351 1464h964l-47 -250h-651l-68 -350h488l-47 -238h-488l-71 -376h682l-48 -250h-999zM1206 1907q-16 -95 -43 -150t-80 -100q-96 -78 -233 -78q-149 0 -229 90q-40 43 -54 93t-14 145h207q1 -70 26 -101.5t80 -31.5q106 0 133 133h207z" />
    <glyph glyph-name="ebreve" unicode="&#x115;" horiz-adv-x="1140" 
d="M543 -23q-233 0 -352 134q-103 117 -103 319q0 309 198 502q171 166 418 166q186 0 290 -97q91 -84 91 -219q0 -255 -358 -321q-121 -24 -338 -29v-20q0 -115 52 -164q46 -44 143 -44q147 0 276 115l137 -190q-171 -152 -454 -152zM412 614q220 0 309 40q79 35 79 108
q0 52 -33 81.5t-92 29.5q-191 0 -263 -259zM1045 1554q-16 -105 -42 -162t-77 -102q-90 -78 -221 -78q-142 0 -219 90q-39 43 -52.5 95.5t-13.5 156.5h199q1 -79 24 -113t76 -34q55 0 84.5 34.5t42.5 112.5h199z" />
    <glyph glyph-name="Edotaccent" unicode="&#x116;" horiz-adv-x="1262" 
d="M351 1464h964l-47 -250h-651l-68 -350h488l-47 -238h-488l-71 -376h682l-48 -250h-999zM879 1907q64 0 105.5 -40.5t41.5 -103.5q0 -79 -58 -132q-51 -46 -118 -46q-62 0 -102.5 42t-40.5 106q0 75 58 128q50 46 114 46z" />
    <glyph glyph-name="edotaccent" unicode="&#x117;" horiz-adv-x="1140" 
d="M543 -23q-233 0 -352 134q-103 117 -103 319q0 309 198 502q171 166 418 166q186 0 290 -97q91 -84 91 -219q0 -255 -358 -321q-121 -24 -338 -29v-20q0 -115 52 -164q46 -44 143 -44q147 0 276 115l137 -190q-171 -152 -454 -152zM412 614q220 0 309 40q79 35 79 108
q0 52 -33 81.5t-92 29.5q-191 0 -263 -259zM749 1556q67 0 110.5 -41.5t43.5 -105.5q0 -82 -61 -138q-53 -48 -121 -48q-66 0 -108 43t-42 110q0 77 60 133q53 47 118 47z" />
    <glyph glyph-name="Eogonek" unicode="&#x118;" horiz-adv-x="1262" 
d="M1065 0q-176 -120 -176 -228q0 -57 66 -57q42 0 84 37l63 -104q-78 -70 -188 -70q-101 0 -154 49q-47 43 -47 115q0 160 197 258h-844l285 1464h964l-47 -250h-651l-68 -350h488l-47 -238h-488l-71 -376h682z" />
    <glyph glyph-name="eogonek" unicode="&#x119;" horiz-adv-x="1140" 
d="M504 -422q-101 0 -154 49q-47 43 -47 115q0 131 162 239q-121 20 -184 58q-193 113 -193 391q0 309 198 502q171 166 418 166q186 0 290 -97q91 -84 91 -219q0 -255 -358 -321q-121 -24 -338 -29v-20q0 -109 46.5 -158t148.5 -49q147 0 276 114l137 -190
q-146 -132 -370 -148q-69 -48 -108.5 -104t-39.5 -105q0 -57 64 -57q44 0 86 37l63 -104q-78 -70 -188 -70zM412 614q220 0 309 40q79 35 79 108q0 52 -33 81.5t-92 29.5q-191 0 -263 -259z" />
    <glyph glyph-name="Ecaron" unicode="&#x11a;" horiz-adv-x="1262" 
d="M351 1464h964l-47 -250h-651l-68 -350h488l-47 -238h-488l-71 -376h682l-48 -250h-999zM578 1935h205l94 -145l152 145h211l-283 -348h-227z" />
    <glyph glyph-name="ecaron" unicode="&#x11b;" horiz-adv-x="1138" 
d="M543 -23q-233 0 -352 134q-103 117 -103 319q0 309 198 502q171 166 418 166q186 0 290 -97q91 -84 91 -219q0 -255 -358 -321q-121 -24 -338 -29v-20q0 -115 52 -164q46 -44 143 -44q147 0 276 115l137 -190q-171 -152 -454 -152zM412 614q220 0 309 40q79 35 79 108
q0 52 -33 81.5t-92 29.5q-191 0 -263 -259zM446 1567h205l94 -166l152 166h211l-281 -360h-227z" />
    <glyph glyph-name="Gcircumflex" unicode="&#x11c;" horiz-adv-x="1570" 
d="M1131 226q-153 -249 -454 -249q-266 0 -411 192q-126 167 -126 440q0 255 100 457q98 197 273 308q178 113 403 113q237 0 373 -99q115 -83 176 -249l-297 -109q-33 111 -94.5 159t-171.5 48q-205 0 -327 -199q-105 -173 -105 -434q0 -381 291 -381q149 0 248 98
q86 86 108 222l4 27h-285l45 227h594l-153 -797h-170zM947 1935h227l152 -348h-205l-95 145l-151 -145h-211z" />
    <glyph glyph-name="gcircumflex" unicode="&#x11d;" horiz-adv-x="1152" 
d="M1012 868q20 -52 20 -115q0 -177 -139 -278q-120 -88 -307 -88q-116 0 -209 33q-45 -40 -45 -82q0 -72 96 -72h152q137 0 216 -23t130 -77q70 -70 70 -184q0 -199 -168 -301q-147 -90 -398 -90q-243 0 -371 79q-112 69 -112 185q0 157 225 227q-92 59 -92 155
q0 142 193 238q-121 94 -121 240q0 176 148 287q129 96 313 96q154 0 276 -76l313 69l-45 -223h-145zM613 913q-87 0 -138 -64q-44 -56 -44 -141q0 -70 39.5 -109.5t109.5 -39.5q86 0 135 65q43 57 43 146q0 68 -38 105.5t-107 37.5zM328 35q-100 -47 -100 -129
q0 -116 215 -116q134 0 201 42q59 37 59 101q0 102 -144 102h-231zM648 1567h227l154 -360h-205l-95 166l-151 -166h-211z" />
    <glyph glyph-name="Gbreve" unicode="&#x11e;" horiz-adv-x="1570" 
d="M1131 226q-153 -249 -454 -249q-266 0 -411 192q-126 167 -126 440q0 255 100 457q98 197 273 308q178 113 403 113q237 0 373 -99q115 -83 176 -249l-297 -109q-33 111 -94.5 159t-171.5 48q-205 0 -327 -199q-105 -173 -105 -434q0 -381 291 -381q149 0 248 98
q86 86 108 222l4 27h-285l45 227h594l-153 -797h-170zM1362 1907q-16 -95 -43 -150t-80 -100q-96 -78 -233 -78q-149 0 -229 90q-40 43 -54 93t-14 145h207q1 -70 26 -101.5t80 -31.5q106 0 133 133h207z" />
    <glyph glyph-name="gbreve" unicode="&#x11f;" horiz-adv-x="1152" 
d="M1012 868q20 -52 20 -115q0 -177 -139 -278q-120 -88 -307 -88q-116 0 -209 33q-45 -40 -45 -82q0 -72 96 -72h152q137 0 216 -23t130 -77q70 -70 70 -184q0 -199 -168 -301q-147 -90 -398 -90q-243 0 -371 79q-112 69 -112 185q0 157 225 227q-92 59 -92 155
q0 142 193 238q-121 94 -121 240q0 176 148 287q129 96 313 96q154 0 276 -76l313 69l-45 -223h-145zM613 913q-87 0 -138 -64q-44 -56 -44 -141q0 -70 39.5 -109.5t109.5 -39.5q86 0 135 65q43 57 43 146q0 68 -38 105.5t-107 37.5zM328 35q-100 -47 -100 -129
q0 -116 215 -116q134 0 201 42q59 37 59 101q0 102 -144 102h-231zM1014 1554q-16 -105 -42 -162t-77 -102q-90 -78 -221 -78q-142 0 -219 90q-39 43 -52.5 95.5t-13.5 156.5h199q1 -79 24 -113t76 -34q55 0 84.5 34.5t42.5 112.5h199z" />
    <glyph glyph-name="Gdotaccent" unicode="&#x120;" horiz-adv-x="1570" 
d="M1131 226q-153 -249 -454 -249q-266 0 -411 192q-126 167 -126 440q0 255 100 457q98 197 273 308q178 113 403 113q237 0 373 -99q115 -83 176 -249l-297 -109q-33 111 -94.5 159t-171.5 48q-205 0 -327 -199q-105 -173 -105 -434q0 -381 291 -381q149 0 248 98
q86 86 108 222l4 27h-285l45 227h594l-153 -797h-170zM1035 1907q64 0 105.5 -40.5t41.5 -103.5q0 -79 -58 -132q-51 -46 -118 -46q-62 0 -102.5 42t-40.5 106q0 75 58 128q50 46 114 46z" />
    <glyph glyph-name="gdotaccent" unicode="&#x121;" horiz-adv-x="1152" 
d="M1012 868q20 -52 20 -115q0 -177 -139 -278q-120 -88 -307 -88q-116 0 -209 33q-45 -40 -45 -82q0 -72 96 -72h152q137 0 216 -23t130 -77q70 -70 70 -184q0 -199 -168 -301q-147 -90 -398 -90q-243 0 -371 79q-112 69 -112 185q0 157 225 227q-92 59 -92 155
q0 142 193 238q-121 94 -121 240q0 176 148 287q129 96 313 96q154 0 276 -76l313 69l-45 -223h-145zM613 913q-87 0 -138 -64q-44 -56 -44 -141q0 -70 39.5 -109.5t109.5 -39.5q86 0 135 65q43 57 43 146q0 68 -38 105.5t-107 37.5zM328 35q-100 -47 -100 -129
q0 -116 215 -116q134 0 201 42q59 37 59 101q0 102 -144 102h-231zM719 1556q67 0 110.5 -41.5t43.5 -105.5q0 -82 -61 -138q-53 -48 -121 -48q-66 0 -108 43t-42 110q0 77 60 133q53 47 118 47z" />
    <glyph glyph-name="Gcommaaccent" unicode="&#x122;" horiz-adv-x="1570" 
d="M1131 226q-153 -249 -454 -249q-266 0 -411 192q-126 167 -126 440q0 255 100 457q98 197 273 308q178 113 403 113q237 0 373 -99q115 -83 176 -249l-297 -109q-33 111 -94.5 159t-171.5 48q-205 0 -327 -199q-105 -173 -105 -434q0 -381 291 -381q149 0 248 98
q86 86 108 222l4 27h-285l45 227h594l-153 -797h-170zM470 -449q133 24 153 105q-53 6 -85 40t-32 85q0 60 41 98.5t104 38.5q65 0 105.5 -45t40.5 -117q0 -141 -94 -223q-47 -44 -104 -64t-154 -26z" />
    <glyph glyph-name="gcommaaccent" unicode="&#x123;" horiz-adv-x="1152" 
d="M865 1550q-133 -20 -154 -104q54 -6 86.5 -40t32.5 -85q0 -58 -42 -96.5t-105 -38.5q-65 0 -105.5 44.5t-40.5 115.5q0 138 94 223q50 45 107 65.5t151 26.5zM1012 868q20 -52 20 -115q0 -177 -139 -278q-120 -88 -307 -88q-116 0 -209 33q-45 -40 -45 -82q0 -72 96 -72
h152q137 0 216 -23t130 -77q70 -70 70 -184q0 -199 -168 -301q-147 -90 -398 -90q-243 0 -371 79q-112 69 -112 185q0 157 225 227q-92 59 -92 155q0 142 193 238q-121 94 -121 240q0 176 148 287q129 96 313 96q154 0 276 -76l313 69l-45 -223h-145zM613 913
q-87 0 -138 -64q-44 -56 -44 -141q0 -70 39.5 -109.5t109.5 -39.5q86 0 135 65q43 57 43 146q0 68 -38 105.5t-107 37.5zM328 35q-100 -47 -100 -129q0 -116 215 -116q134 0 201 42q59 37 59 101q0 102 -144 102h-231z" />
    <glyph glyph-name="Hcircumflex" unicode="&#x124;" horiz-adv-x="1486" 
d="M351 1464h321l-117 -598h508l117 598h322l-285 -1464h-322l121 606h-510l-118 -606h-322zM906 1935h227l152 -348h-205l-95 145l-151 -145h-211z" />
    <glyph glyph-name="hcircumflex" unicode="&#x125;" horiz-adv-x="1217" 
d="M341 1542h303l-123 -637q67 101 147 147t187 46q134 0 205 -88q61 -77 61 -207q0 -54 -18 -160l-123 -643h-305l121 631q12 63 12 92q0 125 -119 125q-86 0 -144 -63t-81 -181l-119 -604h-303zM472 2013h227l152 -348h-205l-95 145l-151 -145h-211z" />
    <glyph glyph-name="Hbar" unicode="&#x126;" horiz-adv-x="1490" 
d="M146 1239h160l45 225h321l-45 -225h508l45 225h322l-45 -225h178l-37 -178h-176l-205 -1061h-322l121 606h-510l-118 -606h-322l205 1061h-162zM1063 866l37 195h-508l-37 -195h508z" />
    <glyph glyph-name="hbar" unicode="&#x127;" horiz-adv-x="1215" 
d="M192 1382h118l31 160h303l-31 -160h240l-37 -195h-239l-60 -306q69 112 150.5 164t189.5 52q133 0 203 -88q61 -77 61 -204q0 -64 -12 -125l-129 -680h-305l125 651q8 44 8 74q0 122 -119 122q-178 0 -225 -243l-119 -604h-303l229 1187h-116z" />
    <glyph glyph-name="Itilde" unicode="&#x128;" horiz-adv-x="693" 
d="M362 1464h319l-285 -1464h-319zM943 1872q-60 -291 -256 -291q-70 0 -155 55q-51 33 -80 33q-52 0 -78 -84l-168 12q36 160 103 229q58 62 147 62q66 0 151 -53q59 -35 84 -35q47 0 76 84z" />
    <glyph glyph-name="itilde" unicode="&#x129;" horiz-adv-x="620" 
d="M259 1071h303l-209 -1071h-303zM838 1523q-60 -290 -256 -290q-70 0 -155 55q-51 33 -80 33q-52 0 -78 -84l-168 12q36 160 103 230q58 61 147 61q66 0 151 -53q59 -35 86 -35q45 0 74 84z" />
    <glyph glyph-name="Imacron" unicode="&#x12a;" horiz-adv-x="687" 
d="M362 1464h319l-285 -1464h-319zM335 1833h516l-39 -207h-518z" />
    <glyph glyph-name="imacron" unicode="&#x12b;" horiz-adv-x="613" 
d="M259 1071h303l-209 -1071h-303zM232 1497h516l-39 -207h-518z" />
    <glyph glyph-name="Ibreve" unicode="&#x12c;" horiz-adv-x="692" 
d="M362 1464h319l-285 -1464h-319zM916 1907q-16 -95 -43 -150t-80 -100q-96 -78 -233 -78q-149 0 -229 90q-40 43 -54 93t-14 145h207q1 -70 26 -101.5t80 -31.5q106 0 133 133h207z" />
    <glyph glyph-name="ibreve" unicode="&#x12d;" horiz-adv-x="615" 
d="M259 1071h303l-209 -1071h-303zM777 1554q-16 -105 -42 -162t-77 -102q-90 -78 -221 -78q-142 0 -219 90q-39 43 -52.5 95.5t-13.5 156.5h199q1 -79 24 -113t76 -34q55 0 84.5 34.5t42.5 112.5h199z" />
    <glyph glyph-name="Iogonek" unicode="&#x12e;" horiz-adv-x="673" 
d="M376 -12q-158 -110 -158 -216q0 -57 66 -57q42 0 84 37l63 -104q-78 -70 -188 -70q-101 0 -154 49q-47 43 -47 115q0 75 51.5 142.5t145.5 115.5h-164l284 1464h320z" />
    <glyph glyph-name="iogonek" unicode="&#x12f;" horiz-adv-x="603" 
d="M483 1556q69 0 112.5 -42.5t43.5 -108.5q0 -83 -61 -137q-53 -47 -127 -47q-68 0 -112 42.5t-44 106.5q0 84 62 139q53 47 126 47zM350 0q-176 -118 -176 -226q0 -59 66 -59q42 0 84 37l63 -104q-78 -70 -188 -70q-101 0 -154 49q-47 43 -47 115q0 160 197 258h-148
l209 1071h303z" />
    <glyph glyph-name="Idotaccent" unicode="&#x130;" horiz-adv-x="679" 
d="M362 1464h319l-285 -1464h-319zM589 1907q64 0 105.5 -40.5t41.5 -103.5q0 -79 -58 -132q-51 -46 -118 -46q-62 0 -102.5 42t-40.5 106q0 75 58 128q50 46 114 46z" />
    <glyph glyph-name="dotlessi" unicode="&#x131;" horiz-adv-x="606" 
d="M259 1071h303l-209 -1071h-303z" />
    <glyph glyph-name="IJ" unicode="&#x132;" horiz-adv-x="1920" 
d="M362 1464h319l-285 -1464h-319zM1752 432q-46 -235 -202 -352q-136 -103 -341 -103q-224 0 -343 121q-103 105 -103 281q0 64 12 125l11 43h307l-8 -45q-11 -54 -11 -99q0 -172 154 -172q90 0 138.5 54.5t74.5 185.5l194 993h318z" />
    <glyph glyph-name="ij" unicode="&#x133;" horiz-adv-x="1224" 
d="M482 1556q67 0 110.5 -41.5t43.5 -105.5q0 -82 -61 -138q-53 -48 -121 -48q-66 0 -108 43t-42 110q0 77 60 133q53 47 118 47zM259 1071h303l-209 -1071h-303zM1100 1556q67 0 110.5 -41.5t43.5 -105.5q0 -82 -61 -138q-53 -48 -121 -48q-66 0 -108 43t-42 110
q0 77 61 133q52 47 117 47zM961 -72q-61 -319 -364 -319q-126 0 -203 55l86 217q42 -22 80 -22q83 0 106 108l215 1104h304z" />
    <glyph glyph-name="Jcircumflex" unicode="&#x134;" horiz-adv-x="1259" 
d="M1077 432q-46 -235 -202 -352q-136 -103 -341 -103q-224 0 -343 121q-103 105 -103 281q0 64 12 125l11 43h307l-8 -45q-11 -54 -11 -99q0 -172 154 -172q90 0 138.5 54.5t74.5 185.5l194 993h318zM1100 1935h227l152 -348h-205l-95 145l-151 -145h-211z" />
    <glyph glyph-name="jcircumflex" unicode="&#x135;" horiz-adv-x="629" 
d="M356 -72q-61 -319 -364 -319q-126 0 -203 55l86 217q42 -22 80 -22q83 0 106 108l215 1104h304zM424 1567h227l154 -360h-205l-95 166l-151 -166h-211z" />
    <glyph glyph-name="Kcommaaccent" unicode="&#x136;" horiz-adv-x="1411" 
d="M351 1464h319l-125 -637l594 637h359l-611 -629l363 -835h-340l-269 606l-172 -170l-84 -436h-319zM429 -449q133 24 153 105q-53 6 -85 40t-32 85q0 60 41 98.5t104 38.5q65 0 105.5 -45t40.5 -117q0 -141 -94 -223q-47 -44 -104 -64t-154 -26z" />
    <glyph glyph-name="kcommaaccent" unicode="&#x137;" horiz-adv-x="1170" 
d="M534 430l-130 -127l-59 -303h-303l299 1542h303l-170 -878l391 407h336l-436 -430l262 -641h-319zM290 -449q133 24 153 105q-53 6 -85 40t-32 85q0 60 41 98.5t104 38.5q65 0 105.5 -45t40.5 -117q0 -141 -94 -223q-47 -44 -104 -64t-154 -26z" />
    <glyph glyph-name="kgreenlandic" unicode="&#x138;" horiz-adv-x="1257" 
d="M294 1071h301l-102 -426l479 426h348l-541 -465l316 -606h-322l-225 420l-129 -111l-74 -309h-301z" />
    <glyph glyph-name="Lacute" unicode="&#x139;" horiz-adv-x="1200" 
d="M351 1464h319l-235 -1208h616l-51 -256h-934zM555 1935h355l-275 -356h-219z" />
    <glyph glyph-name="lacute" unicode="&#x13a;" horiz-adv-x="683" 
d="M586 20q-79 -49 -217 -49q-154 0 -215 63q-53 55 -53 171q0 70 29 203l223 1134h305l-233 -1182q-9 -49 -9 -78q0 -42 17.5 -58.5t60.5 -16.5q42 0 101 37zM551 2017h355l-275 -360h-219z" />
    <glyph glyph-name="Lcommaaccent" unicode="&#x13b;" horiz-adv-x="1200" 
d="M351 1464h319l-235 -1208h616l-51 -256h-934zM302 -449q133 24 153 105q-53 6 -85 40t-32 85q0 60 41 98.5t104 38.5q65 0 105.5 -45t40.5 -117q0 -141 -94 -223q-47 -44 -104 -64t-154 -26z" />
    <glyph glyph-name="lcommaaccent" unicode="&#x13c;" horiz-adv-x="663" 
d="M583 20q-79 -49 -217 -49q-154 0 -215 63q-53 55 -53 171q0 70 29 203l223 1134h305l-233 -1182q-9 -49 -9 -78q0 -42 17.5 -58.5t60.5 -16.5q42 0 101 37zM78 -449q133 24 153 105q-53 6 -85 40t-32 85q0 60 41 98.5t104 38.5q65 0 105.5 -45t40.5 -117q0 -141 -94 -223
q-47 -44 -104 -64t-154 -26z" />
    <glyph glyph-name="Lcaron" unicode="&#x13d;" horiz-adv-x="1197" 
d="M351 1464h319l-235 -1208h616l-51 -256h-934zM761 1192q133 24 153 104q-53 6 -85 40t-32 85q0 60 41 98.5t104 38.5q65 0 105.5 -45t40.5 -117q0 -140 -94 -225q-47 -42 -104.5 -62t-153.5 -26z" />
    <glyph glyph-name="lcaron" unicode="&#x13e;" horiz-adv-x="685" 
d="M277 2034h205l94 -166l152 166h211l-281 -360h-227zM586 20q-79 -49 -217 -49q-154 0 -215 63q-53 55 -53 171q0 70 29 203l223 1134h305l-233 -1182q-9 -49 -9 -78q0 -42 17.5 -58.5t60.5 -16.5q42 0 101 37z" />
    <glyph glyph-name="Ldot" unicode="&#x13f;" horiz-adv-x="1199" 
d="M351 1464h319l-235 -1208h616l-51 -256h-934zM889 858q77 0 128 -56q44 -49 44 -116q0 -93 -69 -154q-60 -53 -142 -53q-79 0 -128 54q-42 47 -42 116q0 92 69 155q60 54 140 54z" />
    <glyph glyph-name="ldot" unicode="&#x140;" horiz-adv-x="971" 
d="M586 20q-79 -49 -217 -49q-154 0 -215 63q-53 55 -53 171q0 70 29 203l223 1134h305l-233 -1182q-9 -49 -9 -78q0 -42 17.5 -58.5t60.5 -16.5q42 0 101 37zM855 858q77 0 128 -56q44 -49 44 -116q0 -93 -69 -154q-60 -53 -142 -53q-79 0 -128 54q-42 47 -42 116
q0 92 69 155q60 54 140 54z" />
    <glyph glyph-name="Lslash" unicode="&#x141;" horiz-adv-x="1223" 
d="M91 721l152 47l135 696h321l-114 -586l348 111l-45 -240l-348 -110l-74 -383h614l-49 -256h-938l103 530l-152 -47z" />
    <glyph glyph-name="lslash" unicode="&#x142;" horiz-adv-x="714" 
d="M538 713l-69 -353q-10 -48 -10 -79q0 -41 18 -57.5t61 -16.5q42 0 101 37l-9 -224q-79 -49 -217 -49q-154 0 -215 63q-53 55 -53 171q0 56 29 203l35 178l-150 -64l51 256l150 64l137 700h305l-113 -573l177 79l-50 -258z" />
    <glyph glyph-name="Nacute" unicode="&#x143;" horiz-adv-x="1500" 
d="M351 1464h348l332 -1005l196 1005h289l-285 -1464h-336l-340 1024l-200 -1024h-289zM977 1935h355l-275 -356h-219z" />
    <glyph glyph-name="nacute" unicode="&#x144;" horiz-adv-x="1217" 
d="M251 1071h303l-33 -166q68 101 148.5 147t187.5 46q133 0 203 -88q61 -76 61 -205q0 -64 -12 -125l-129 -680h-305l125 651q8 44 8 72q0 125 -119 125q-86 0 -144 -63t-81 -181l-119 -604h-303zM767 1567h355l-275 -360h-219z" />
    <glyph glyph-name="Ncommaaccent" unicode="&#x145;" horiz-adv-x="1500" 
d="M351 1464h348l332 -1005l196 1005h289l-285 -1464h-336l-340 1024l-200 -1024h-289zM456 -449q133 24 153 105q-53 6 -85 40t-32 85q0 60 41 98.5t104 38.5q65 0 105.5 -45t40.5 -117q0 -141 -94 -223q-47 -44 -104 -64t-154 -26z" />
    <glyph glyph-name="ncommaaccent" unicode="&#x146;" horiz-adv-x="1217" 
d="M251 1071h303l-33 -166q68 101 148.5 147t187.5 46q133 0 203 -88q61 -76 61 -205q0 -64 -12 -125l-129 -680h-305l125 651q8 44 8 72q0 125 -119 125q-86 0 -144 -63t-81 -181l-119 -604h-303zM290 -449q133 24 153 105q-53 6 -85 40t-32 85q0 60 41 98.5t104 38.5
q65 0 105.5 -45t40.5 -117q0 -141 -94 -223q-47 -44 -104 -64t-154 -26z" />
    <glyph glyph-name="Ncaron" unicode="&#x147;" horiz-adv-x="1500" 
d="M351 1464h348l332 -1005l196 1005h289l-285 -1464h-336l-340 1024l-200 -1024h-289zM699 1935h205l94 -145l152 145h211l-283 -348h-227z" />
    <glyph glyph-name="ncaron" unicode="&#x148;" horiz-adv-x="1216" 
d="M251 1071h303l-33 -166q68 101 148.5 147t187.5 46q133 0 203 -88q61 -76 61 -205q0 -64 -12 -125l-129 -680h-305l125 651q8 44 8 72q0 125 -119 125q-86 0 -144 -63t-81 -181l-119 -604h-303zM482 1567h205l94 -166l152 166h211l-281 -360h-227z" />
    <glyph glyph-name="napostrophe" unicode="&#x149;" horiz-adv-x="1225" 
d="M256 1071h303l-33 -166q68 101 148.5 147t187.5 46q133 0 203 -88q61 -76 61 -205q0 -64 -12 -125l-129 -680h-305l125 651q8 44 8 72q0 125 -119 125q-86 0 -144 -63t-81 -181l-119 -604h-303zM-114 1132q133 24 153 104q-53 7 -85 40.5t-32 85.5q0 59 41 98t104 39
q65 0 105.5 -45t40.5 -117q0 -140 -94 -225q-49 -44 -107 -64t-151 -24z" />
    <glyph glyph-name="Eng" unicode="&#x14a;" horiz-adv-x="1217" 
d="M564 -141q87 0 109 108l127 684q8 47 8 72q0 125 -119 125q-86 0 -144 -63t-81 -181l-119 -604h-303l209 1071h303l-33 -166q68 101 148.5 147t187.5 46q133 0 203 -88q61 -76 61 -205q0 -64 -12 -125l-143 -752q-62 -319 -363 -319q-80 0 -123 16l70 234h14z" />
    <glyph glyph-name="eng" unicode="&#x14b;" horiz-adv-x="1210" 
d="M576 1300q69 103 149.5 147t198.5 44q143 0 214 -85q61 -74 61 -206q0 -60 -13 -125l-223 -1147q-62 -319 -362 -319q-80 0 -123 16l69 234h15q83 0 106 108l207 1077l2 8q9 19 9 64q0 127 -146 127q-83 0 -140.5 -63.5t-80.5 -180.5l-199 -999h-303l289 1464h303z" />
    <glyph glyph-name="Omacron" unicode="&#x14c;" horiz-adv-x="1567" 
d="M887 1487q309 0 479 -198q148 -173 148 -452q0 -203 -76 -386q-66 -159 -178 -269q-205 -205 -514 -205q-299 0 -465 197q-145 172 -145 448q0 186 58 354q51 147 139 253q214 258 554 258zM891 1235q-198 0 -319 -200q-104 -174 -104 -431q0 -195 88 -291
q77 -84 215 -84q192 0 309 201q102 174 102 430q0 195 -85 291q-74 84 -206 84zM781 1833h516l-39 -207h-518z" />
    <glyph glyph-name="omacron" unicode="&#x14d;" horiz-adv-x="1207" 
d="M652 1098q232 0 361 -151q112 -131 112 -343q0 -293 -182 -472q-158 -155 -391 -155q-230 0 -358 153q-111 133 -111 347q0 290 181 467q157 154 388 154zM648 873q-137 0 -207 -170q-49 -125 -49 -269q0 -232 170 -232q118 0 191 141q63 122 63 300q0 230 -168 230z
M532 1497h516l-39 -207h-518z" />
    <glyph glyph-name="Obreve" unicode="&#x14e;" horiz-adv-x="1567" 
d="M887 1487q309 0 479 -198q148 -173 148 -452q0 -203 -76 -386q-66 -159 -178 -269q-205 -205 -514 -205q-299 0 -465 197q-145 172 -145 448q0 186 58 354q51 147 139 253q214 258 554 258zM891 1235q-198 0 -319 -200q-104 -174 -104 -431q0 -195 88 -291
q77 -84 215 -84q192 0 309 201q102 174 102 430q0 195 -85 291q-74 84 -206 84zM1362 1907q-16 -95 -43 -150t-80 -100q-96 -78 -233 -78q-149 0 -229 90q-40 43 -54 93t-14 145h207q1 -70 26 -101.5t80 -31.5q106 0 133 133h207z" />
    <glyph glyph-name="obreve" unicode="&#x14f;" horiz-adv-x="1207" 
d="M652 1098q232 0 361 -151q112 -131 112 -343q0 -293 -182 -472q-158 -155 -391 -155q-230 0 -358 153q-111 133 -111 347q0 290 181 467q157 154 388 154zM648 873q-137 0 -207 -170q-49 -125 -49 -269q0 -232 170 -232q118 0 191 141q63 122 63 300q0 230 -168 230z
M1077 1554q-16 -105 -42 -162t-77 -102q-90 -78 -221 -78q-142 0 -219 90q-39 43 -52.5 95.5t-13.5 156.5h199q1 -79 24 -113t76 -34q55 0 84.5 34.5t42.5 112.5h199z" />
    <glyph glyph-name="Ohungarumlaut" unicode="&#x150;" horiz-adv-x="1567" 
d="M887 1487q309 0 479 -198q148 -173 148 -452q0 -203 -76 -386q-66 -159 -178 -269q-205 -205 -514 -205q-299 0 -465 197q-145 172 -145 448q0 186 58 354q51 147 139 253q214 258 554 258zM891 1235q-198 0 -319 -200q-104 -174 -104 -431q0 -195 88 -291
q77 -84 215 -84q192 0 309 201q102 174 102 430q0 195 -85 291q-74 84 -206 84zM796 1935h295l-211 -356h-207zM1177 1935h295l-209 -356h-207z" />
    <glyph glyph-name="ohungarumlaut" unicode="&#x151;" horiz-adv-x="1205" 
d="M652 1098q232 0 361 -151q112 -131 112 -343q0 -293 -182 -472q-158 -155 -391 -155q-230 0 -358 153q-111 133 -111 347q0 290 181 467q157 154 388 154zM648 873q-137 0 -207 -170q-49 -125 -49 -269q0 -232 170 -232q118 0 191 141q63 122 63 300q0 230 -168 230z
M583 1565h295l-211 -356h-207zM964 1565h295l-209 -356h-207z" />
    <glyph glyph-name="OE" unicode="&#x152;" horiz-adv-x="2193" 
d="M1043 86q-147 -109 -323 -109q-281 0 -440 198q-138 172 -138 443q0 245 101 447q99 196 272 307q178 115 395 115q135 0 223 -41t150 -132l28 150h945l-48 -250h-651l-67 -350h487l-47 -238h-488l-71 -376h682l-47 -250h-979zM1168 782q14 71 14 129q0 160 -87 246
q-75 76 -199 76q-201 0 -320 -199q-104 -173 -104 -431q0 -194 85 -290q74 -84 206 -84q154 0 254 119q88 104 122 284z" />
    <glyph glyph-name="oe" unicode="&#x153;" horiz-adv-x="1858" 
d="M1244 -23q-213 0 -321 156q-150 -156 -367 -156q-230 0 -360 148q-113 128 -113 330q0 294 187 481q163 162 393 162q231 0 352 -187q171 187 413 187q184 0 287 -97q90 -84 90 -219q0 -258 -375 -327q-107 -20 -319 -25v-18q0 -108 42 -158t132 -50q147 0 277 115
l137 -190q-172 -152 -455 -152zM1134 612q216 0 308 41q80 35 80 107q0 54 -33.5 83.5t-93.5 29.5q-191 0 -261 -261zM650 865q-125 0 -199 -137q-65 -119 -65 -296q0 -230 180 -230q120 0 193 141q63 121 63 300q0 222 -172 222z" />
    <glyph glyph-name="Racute" unicode="&#x154;" horiz-adv-x="1423" 
d="M351 1464h520q230 0 340 -70q162 -106 162 -313q0 -165 -92 -270q-48 -52 -107 -82.5t-160 -54.5q106 -37 147 -107t44 -218q18 -292 61 -341v-8h-317q-43 95 -52 361q-4 112 -52.5 159.5t-157.5 47.5h-191l-111 -568h-319zM789 801q138 0 207 71q60 62 60 170
q0 174 -208 174h-227l-80 -415h248zM856 1935h355l-275 -356h-219z" />
    <glyph glyph-name="racute" unicode="&#x155;" horiz-adv-x="898" 
d="M251 1071h303l-41 -207q66 121 136 175.5t161 54.5q84 0 141 -44l-100 -276q-61 39 -125 39q-113 0 -186 -81q-64 -70 -88 -193l-107 -539h-303zM627 1567h355l-275 -360h-219z" />
    <glyph glyph-name="Rcommaaccent" unicode="&#x156;" horiz-adv-x="1423" 
d="M351 1464h520q230 0 340 -70q162 -106 162 -313q0 -165 -92 -270q-48 -52 -107 -82.5t-160 -54.5q106 -37 147 -107t44 -218q18 -292 61 -341v-8h-317q-43 95 -52 361q-4 112 -52.5 159.5t-157.5 47.5h-191l-111 -568h-319zM789 801q138 0 207 71q60 62 60 170
q0 174 -208 174h-227l-80 -415h248zM458 -449q133 24 153 105q-53 6 -85 40t-32 85q0 60 41 98.5t104 38.5q65 0 105.5 -45t40.5 -117q0 -141 -94 -223q-47 -44 -104 -64t-154 -26z" />
    <glyph glyph-name="rcommaaccent" unicode="&#x157;" horiz-adv-x="896" 
d="M251 1071h303l-41 -207q66 121 136 175.5t161 54.5q84 0 141 -44l-100 -276q-61 39 -125 39q-113 0 -186 -81q-64 -70 -88 -193l-107 -539h-303zM-19 -449q133 24 153 105q-53 6 -85 40t-32 85q0 60 41 98.5t104 38.5q65 0 105.5 -45t40.5 -117q0 -141 -94 -223
q-47 -44 -104 -64t-154 -26z" />
    <glyph glyph-name="Rcaron" unicode="&#x158;" horiz-adv-x="1423" 
d="M351 1464h520q230 0 340 -70q162 -106 162 -313q0 -165 -92 -270q-48 -52 -107 -82.5t-160 -54.5q106 -37 147 -107t44 -218q18 -292 61 -341v-8h-317q-43 95 -52 361q-4 112 -52.5 159.5t-157.5 47.5h-191l-111 -568h-319zM789 801q138 0 207 71q60 62 60 170
q0 174 -208 174h-227l-80 -415h248zM578 1935h205l94 -145l152 145h211l-283 -348h-227z" />
    <glyph glyph-name="rcaron" unicode="&#x159;" horiz-adv-x="899" 
d="M251 1071h303l-41 -207q66 121 136 175.5t161 54.5q84 0 141 -44l-100 -276q-61 39 -125 39q-113 0 -186 -81q-64 -70 -88 -193l-107 -539h-303zM343 1567h205l94 -166l152 166h211l-281 -360h-227z" />
    <glyph glyph-name="Sacute" unicode="&#x15a;" horiz-adv-x="1251" 
d="M964 1077q-39 87 -97.5 123.5t-156.5 36.5q-107 0 -160 -47q-47 -42 -47 -115t58 -113q51 -36 204 -90q232 -81 318 -185q76 -91 76 -241q0 -230 -175 -358q-153 -111 -399 -111q-476 0 -563 344l295 103q21 -115 98 -160q64 -37 187 -37q118 0 180 53q55 46 55 123
q0 75 -57 117q-51 38 -195 90q-230 83 -316 187q-75 91 -75 239q0 221 163 344q142 107 367 107q383 0 515 -293zM810 1935h355l-275 -356h-219z" />
    <glyph glyph-name="sacute" unicode="&#x15b;" horiz-adv-x="1033" 
d="M821 754q-114 127 -266 127q-121 0 -121 -92q0 -43 30 -66t138 -61q178 -64 248 -147q61 -72 61 -181q0 -178 -134 -274q-117 -83 -311 -83q-318 0 -479 195l166 184q121 -158 305 -158q150 0 150 98q0 46 -45 76q-29 17 -143 58q-275 99 -275 319q0 175 129 268
q113 81 299 81q133 0 231.5 -39.5t188.5 -128.5zM677 1567h355l-275 -360h-219z" />
    <glyph glyph-name="Scircumflex" unicode="&#x15c;" horiz-adv-x="1251" 
d="M964 1077q-39 87 -97.5 123.5t-156.5 36.5q-107 0 -160 -47q-47 -42 -47 -115t58 -113q51 -36 204 -90q232 -81 318 -185q76 -91 76 -241q0 -230 -175 -358q-153 -111 -399 -111q-476 0 -563 344l295 103q21 -115 98 -160q64 -37 187 -37q118 0 180 53q55 46 55 123
q0 75 -57 117q-51 38 -195 90q-230 83 -316 187q-75 91 -75 239q0 221 163 344q142 107 367 107q383 0 515 -293zM745 1935h227l152 -348h-205l-95 145l-151 -145h-211z" />
    <glyph glyph-name="scircumflex" unicode="&#x15d;" horiz-adv-x="1035" 
d="M821 754q-114 127 -266 127q-121 0 -121 -92q0 -43 30 -66t138 -61q178 -64 248 -147q61 -72 61 -181q0 -178 -134 -274q-117 -83 -311 -83q-318 0 -479 195l166 184q121 -158 305 -158q150 0 150 98q0 46 -45 76q-29 17 -143 58q-275 99 -275 319q0 175 129 268
q113 81 299 81q133 0 231.5 -39.5t188.5 -128.5zM624 1567h227l154 -360h-205l-95 166l-151 -166h-211z" />
    <glyph glyph-name="Scedilla" unicode="&#x15e;" horiz-adv-x="1251" 
d="M765 872q232 -81 318 -185q76 -91 76 -241q0 -225 -169 -353q-148 -112 -386 -116l-76 -86q29 4 37 4q63 0 103 -43.5t40 -112.5q0 -97 -70 -151q-60 -47 -157 -47q-153 0 -217 115l125 59q32 -51 87 -51q35 0 56.5 19.5t21.5 52.5q0 61 -63 61q-34 0 -63 -33l-78 60
l129 157q-382 38 -457 340l295 103q21 -115 98 -160q64 -37 187 -37q118 0 180 53q55 46 55 123q0 75 -57 117q-51 38 -195 90q-230 83 -316 187q-75 91 -75 239q0 221 163 344q142 107 367 107q383 0 515 -293l-275 -117q-39 87 -97.5 123.5t-156.5 36.5q-107 0 -160 -47
q-47 -42 -47 -115t58 -114q51 -35 204 -89z" />
    <glyph glyph-name="scedilla" unicode="&#x15f;" horiz-adv-x="1036" 
d="M601 661q178 -63 249 -146q61 -72 61 -181q0 -175 -130 -270q-113 -84 -300 -87l-76 -86q27 4 37 4q63 0 103 -43.5t40 -112.5q0 -97 -70 -151q-60 -47 -157 -47q-153 0 -217 115l125 59q32 -51 87 -51q36 0 57 20t21 52q0 62 -63 62q-34 0 -64 -34l-77 60l131 159
q-238 28 -371 189l166 184q121 -157 305 -157q150 0 150 98q0 46 -45 76q-29 16 -143 57q-275 100 -275 320q0 174 129 267q113 81 299 81q133 0 231.5 -39.5t188.5 -128.5l-172 -176q-114 127 -266 127q-121 0 -121 -93q0 -43 30 -65.5t137 -61.5z" />
    <glyph glyph-name="Scaron" unicode="&#x160;" horiz-adv-x="1251" 
d="M964 1077q-39 87 -97.5 123.5t-156.5 36.5q-107 0 -160 -47q-47 -42 -47 -115t58 -113q51 -36 204 -90q232 -81 318 -185q76 -91 76 -241q0 -230 -175 -358q-153 -111 -399 -111q-476 0 -563 344l295 103q21 -115 98 -160q64 -37 187 -37q118 0 180 53q55 46 55 123
q0 75 -57 117q-51 38 -195 90q-230 83 -316 187q-75 91 -75 239q0 221 163 344q142 107 367 107q383 0 515 -293zM532 1935h205l94 -145l152 145h211l-283 -348h-227z" />
    <glyph glyph-name="scaron" unicode="&#x161;" horiz-adv-x="1035" 
d="M821 754q-114 127 -266 127q-121 0 -121 -92q0 -43 30 -66t138 -61q178 -64 248 -147q61 -72 61 -181q0 -178 -134 -274q-117 -83 -311 -83q-318 0 -479 195l166 184q121 -158 305 -158q150 0 150 98q0 46 -45 76q-29 17 -143 58q-275 99 -275 319q0 175 129 268
q113 81 299 81q133 0 231.5 -39.5t188.5 -128.5zM393 1567h205l94 -166l152 166h211l-281 -360h-227z" />
    <glyph glyph-name="Tcommaaccent" unicode="&#x162;" horiz-adv-x="1288" 
d="M621 1214h-393l49 250h1104l-49 -250h-393l-234 -1214h-319zM333 -449q133 24 153 105q-53 6 -85 40t-32 85q0 60 41 98.5t104 38.5q65 0 105.5 -45t40.5 -117q0 -141 -94 -223q-47 -44 -104 -64t-154 -26z" />
    <glyph glyph-name="tcommaaccent" unicode="&#x163;" horiz-adv-x="827" 
d="M170 1071h141l43 217l324 107l-64 -324h216l-46 -231h-215l-90 -477q-6 -34 -6 -54q0 -80 74 -80q42 0 102 29l62 -211q-111 -70 -266 -70q-146 0 -220 79q-65 68 -65 186q0 47 8 86l98 512h-141zM158 -449q133 24 153 105q-53 6 -85 40t-32 85q0 60 41 98.5t104 38.5
q65 0 105.5 -45t40.5 -117q0 -141 -94 -223q-47 -44 -104 -64t-154 -26z" />
    <glyph glyph-name="Tcaron" unicode="&#x164;" horiz-adv-x="1288" 
d="M621 1214h-393l49 250h1104l-49 -250h-393l-234 -1214h-319zM595 1935h205l94 -145l152 145h211l-283 -348h-227z" />
    <glyph glyph-name="tcaron" unicode="&#x165;" horiz-adv-x="935" 
d="M170 1071h141l43 217l324 107l-64 -324h216l-46 -231h-215l-90 -477q-6 -34 -6 -54q0 -80 74 -80q42 0 102 29l62 -211q-111 -70 -266 -70q-146 0 -220 79q-65 68 -65 186q0 47 8 86l98 512h-141zM818 1282q133 24 153 104q-53 7 -85 40.5t-32 85.5q0 59 41 98t104 39
q65 0 105.5 -45t40.5 -117q0 -140 -94 -225q-49 -44 -107 -64t-151 -24z" />
    <glyph glyph-name="Tbar" unicode="&#x166;" horiz-adv-x="1288" 
d="M1332 1214h-393l-90 -462h235l-45 -225h-233l-101 -527h-319l102 527h-219l45 225h217l90 462h-393l49 250h1104z" />
    <glyph glyph-name="tbar" unicode="&#x167;" horiz-adv-x="822" 
d="M439 -23q-146 0 -220 78q-65 69 -65 186q0 54 9 87l28 151h-143l37 195h143l33 166h-141l45 231h141l43 217l324 107l-64 -324h215l-45 -231h-215l-33 -166h213l-37 -195h-213l-22 -117q-5 -28 -5 -53q0 -80 74 -80q42 0 103 29l61 -211q-110 -70 -266 -70z" />
    <glyph glyph-name="Utilde" unicode="&#x168;" horiz-adv-x="1494" 
d="M1342 549q-64 -330 -225 -459q-142 -113 -406 -113q-281 0 -422 140q-123 122 -123 335q0 79 18 175l164 837h322l-166 -848q-16 -85 -16 -153q0 -230 235 -230q141 0 211 85q63 75 94 241l176 905h316zM1354 1872q-60 -291 -256 -291q-70 0 -155 55q-51 33 -80 33
q-52 0 -78 -84l-168 12q36 160 103 229q58 62 147 62q66 0 151 -53q59 -35 84 -35q47 0 76 84z" />
    <glyph glyph-name="utilde" unicode="&#x169;" horiz-adv-x="1207" 
d="M691 156q-71 -97 -147.5 -140t-178.5 -43q-133 0 -203 88q-61 76 -61 205q0 62 14 140l131 665h304l-125 -633q-13 -68 -13 -100q0 -123 115 -123q174 0 221 246l121 610h303l-209 -1071h-303zM1141 1523q-60 -290 -256 -290q-70 0 -155 55q-51 33 -80 33q-52 0 -78 -84
l-168 12q36 160 103 230q58 61 147 61q66 0 151 -53q59 -35 86 -35q45 0 74 84z" />
    <glyph glyph-name="Umacron" unicode="&#x16a;" horiz-adv-x="1494" 
d="M1342 549q-64 -330 -225 -459q-142 -113 -406 -113q-281 0 -422 140q-123 122 -123 335q0 79 18 175l164 837h322l-166 -848q-16 -85 -16 -153q0 -230 235 -230q141 0 211 85q63 75 94 241l176 905h316zM746 1833h516l-39 -207h-518z" />
    <glyph glyph-name="umacron" unicode="&#x16b;" horiz-adv-x="1207" 
d="M691 156q-71 -97 -147.5 -140t-178.5 -43q-133 0 -203 88q-61 76 -61 205q0 62 14 140l131 665h304l-125 -633q-13 -68 -13 -100q0 -123 115 -123q174 0 221 246l121 610h303l-209 -1071h-303zM535 1497h516l-39 -207h-518z" />
    <glyph glyph-name="Ubreve" unicode="&#x16c;" horiz-adv-x="1494" 
d="M1342 549q-64 -330 -225 -459q-142 -113 -406 -113q-281 0 -422 140q-123 122 -123 335q0 79 18 175l164 837h322l-166 -848q-16 -85 -16 -153q0 -230 235 -230q141 0 211 85q63 75 94 241l176 905h316zM1327 1907q-16 -95 -43 -150t-80 -100q-96 -78 -233 -78
q-149 0 -229 90q-40 43 -54 93t-14 145h207q1 -70 26 -101.5t80 -31.5q106 0 133 133h207z" />
    <glyph glyph-name="ubreve" unicode="&#x16d;" horiz-adv-x="1207" 
d="M691 156q-71 -97 -147.5 -140t-178.5 -43q-133 0 -203 88q-61 76 -61 205q0 62 14 140l131 665h304l-125 -633q-13 -68 -13 -100q0 -123 115 -123q174 0 221 246l121 610h303l-209 -1071h-303zM1080 1554q-16 -105 -42 -162t-77 -102q-90 -78 -221 -78q-142 0 -219 90
q-39 43 -52.5 95.5t-13.5 156.5h199q1 -79 24 -113t76 -34q55 0 84.5 34.5t42.5 112.5h199z" />
    <glyph glyph-name="Uring" unicode="&#x16e;" horiz-adv-x="1494" 
d="M1342 549q-64 -330 -225 -459q-142 -113 -406 -113q-281 0 -422 140q-123 122 -123 335q0 79 18 175l164 837h322l-166 -848q-16 -85 -16 -153q0 -230 235 -230q141 0 211 85q63 75 94 241l176 905h316zM1012 2005q99 0 158 -64q51 -56 51 -141q0 -108 -79 -178
q-69 -61 -165 -61q-99 0 -159 65q-52 57 -52 140q0 108 81 178q69 61 165 61zM1004 1888q-42 0 -69.5 -33.5t-27.5 -84.5q0 -41 21.5 -65.5t56.5 -24.5q41 0 69 34t28 82q0 42 -21.5 67t-56.5 25z" />
    <glyph glyph-name="uring" unicode="&#x16f;" horiz-adv-x="1207" 
d="M691 156q-71 -97 -147.5 -140t-178.5 -43q-133 0 -203 88q-61 76 -61 205q0 62 14 140l131 665h304l-125 -633q-13 -68 -13 -100q0 -123 115 -123q174 0 221 246l121 610h303l-209 -1071h-303zM796 1632q99 0 158 -64q51 -56 51 -141q0 -108 -79 -178q-69 -61 -165 -61
q-99 0 -159 65q-52 57 -52 140q0 108 81 178q69 61 165 61zM788 1515q-42 0 -69.5 -34t-27.5 -84q0 -41 21.5 -65.5t56.5 -24.5q41 0 69 34t28 82q0 42 -21.5 67t-56.5 25z" />
    <glyph glyph-name="Uhungarumlaut" unicode="&#x170;" horiz-adv-x="1494" 
d="M1342 549q-64 -330 -225 -459q-142 -113 -406 -113q-281 0 -422 140q-123 122 -123 335q0 79 18 175l164 837h322l-166 -848q-16 -85 -16 -153q0 -230 235 -230q141 0 211 85q63 75 94 241l176 905h316zM760 1935h295l-211 -356h-207zM1141 1935h295l-209 -356h-207z" />
    <glyph glyph-name="uhungarumlaut" unicode="&#x171;" horiz-adv-x="1209" 
d="M691 156q-71 -97 -147.5 -140t-178.5 -43q-133 0 -203 88q-61 76 -61 205q0 62 14 140l131 665h304l-125 -633q-13 -68 -13 -100q0 -123 115 -123q174 0 221 246l121 610h303l-209 -1071h-303zM586 1565h295l-211 -356h-207zM967 1565h295l-209 -356h-207z" />
    <glyph glyph-name="Uogonek" unicode="&#x172;" horiz-adv-x="1494" 
d="M1342 549q-55 -299 -196 -432q-124 -117 -345 -136q-150 -106 -150 -209q0 -57 66 -57q44 0 84 37l63 -105q-75 -69 -186 -69q-102 0 -156 49q-47 43 -47 115q0 139 162 237q-248 22 -367 156q-104 118 -104 317q0 79 18 174l164 838h322l-166 -848q-16 -85 -16 -154
q0 -229 235 -229q141 0 211 85q63 75 94 241l176 905h316z" />
    <glyph glyph-name="uogonek" unicode="&#x173;" horiz-adv-x="1207" 
d="M963 0q-176 -117 -176 -226q0 -59 66 -59q42 0 84 37l63 -104q-78 -70 -188 -70q-101 0 -154 49q-47 43 -47 115q0 75 51.5 142.5t145.5 115.5h-148l31 156q-71 -97 -147.5 -140t-178.5 -43q-133 0 -203 88q-61 76 -61 205q0 62 14 140l131 665h304l-125 -633
q-13 -68 -13 -100q0 -123 115 -123q174 0 221 246l121 610h303z" />
    <glyph glyph-name="Wcircumflex" unicode="&#x174;" horiz-adv-x="2051" 
d="M250 1464h324l34 -1034l467 1034h265l75 -1044l443 1044h313l-645 -1464h-328l-74 997l-460 -997h-332zM1190 1935h227l152 -348h-205l-95 145l-151 -145h-211z" />
    <glyph glyph-name="wcircumflex" unicode="&#x175;" horiz-adv-x="1655" 
d="M160 1071h307l31 -700l305 700h262l41 -700l303 700h301l-516 -1071h-299l-49 668l-289 -668h-303zM939 1567h227l154 -360h-205l-95 166l-151 -166h-211z" />
    <glyph glyph-name="Ycircumflex" unicode="&#x176;" horiz-adv-x="1350" 
d="M541 612l-309 852h336l192 -575l394 575h331l-628 -868l-115 -596h-320zM839 1935h227l152 -348h-205l-95 145l-151 -145h-211z" />
    <glyph glyph-name="ycircumflex" unicode="&#x177;" horiz-adv-x="1125" 
d="M550 -107q-88 -160 -192 -225q-92 -57 -220 -57q-138 0 -233 71l115 209q53 -40 118 -40q56 0 92.5 29.5t71.5 102.5l21 43l-187 1045h316l96 -678l344 678h307zM671 1567h227l154 -360h-205l-95 166l-151 -166h-211z" />
    <glyph glyph-name="Ydieresis" unicode="&#x178;" horiz-adv-x="1350" 
d="M541 612l-309 852h336l192 -575l394 575h331l-628 -868l-115 -596h-320zM709 1903q65 0 106.5 -40.5t41.5 -102.5q0 -81 -59 -136q-51 -47 -119 -47q-62 0 -103 42.5t-41 107.5q0 76 57 129q51 47 117 47zM1147 1903q62 0 103 -41t41 -102q0 -82 -58 -136
q-50 -47 -118 -47q-63 0 -102.5 41.5t-39.5 108.5q0 76 58 129q51 47 116 47z" />
    <glyph glyph-name="Zacute" unicode="&#x179;" horiz-adv-x="1269" 
d="M60 270l848 944h-631l49 250h1002l-51 -272l-838 -936h666l-52 -256h-1044zM859 1935h355l-275 -356h-219z" />
    <glyph glyph-name="zacute" unicode="&#x17a;" horiz-adv-x="1008" 
d="M20 220l598 613h-455l48 238h831l-45 -224l-596 -607h487l-47 -240h-866zM663 1567h355l-275 -360h-219z" />
    <glyph glyph-name="Zdotaccent" unicode="&#x17b;" horiz-adv-x="1269" 
d="M60 270l848 944h-631l49 250h1002l-51 -272l-838 -936h666l-52 -256h-1044zM881 1907q64 0 105.5 -40.5t41.5 -103.5q0 -79 -58 -132q-51 -46 -118 -46q-62 0 -102.5 42t-40.5 106q0 75 58 128q50 46 114 46z" />
    <glyph glyph-name="zdotaccent" unicode="&#x17c;" horiz-adv-x="1008" 
d="M20 220l598 613h-455l48 238h831l-45 -224l-596 -607h487l-47 -240h-866zM681 1556q67 0 110.5 -41.5t43.5 -105.5q0 -82 -61 -138q-53 -48 -121 -48q-66 0 -108 43t-42 110q0 77 60 133q53 47 118 47z" />
    <glyph glyph-name="Zcaron" unicode="&#x17d;" horiz-adv-x="1269" 
d="M60 270l848 944h-631l49 250h1002l-51 -272l-838 -936h666l-52 -256h-1044zM580 1935h205l94 -145l152 145h211l-283 -348h-227z" />
    <glyph glyph-name="zcaron" unicode="&#x17e;" horiz-adv-x="1008" 
d="M20 220l598 613h-455l48 238h831l-45 -224l-596 -607h487l-47 -240h-866zM378 1567h205l94 -166l152 166h211l-281 -360h-227z" />
    <glyph glyph-name="uni018F" unicode="&#x18f;" horiz-adv-x="1587" 
d="M259 1157q92 159 283 250q167 80 356 80q314 0 487 -198q150 -173 150 -454q0 -243 -101 -442q-99 -193 -273 -303q-179 -113 -398 -113q-301 0 -476 194q-151 168 -151 428q0 106 23 267h1044q-6 369 -322 369q-221 0 -337 -222zM468 622v-18q0 -192 90 -290
q80 -85 217 -85q156 0 264 117q94 101 137 276h-708z" />
    <glyph glyph-name="florin" unicode="&#x192;" horiz-adv-x="910" 
d="M159 844h165l64 297q41 188 146 270q92 73 243 73q136 0 240 -53l-80 -208q-53 30 -107 30q-56 0 -87.5 -30.5t-47.5 -100.5l-59 -278h233l-45 -223h-233l-140 -664q-37 -181 -132 -257q-84 -66 -230 -66q-125 0 -211 47l70 207q42 -23 84 -23q90 0 116 123l131 633h-161
z" />
    <glyph glyph-name="Ohorn" unicode="&#x1a0;" horiz-adv-x="1569" 
d="M1320 1356q129 30 153 126q-53 7 -84.5 40.5t-31.5 85.5q0 59 41 98t104 39q66 0 105.5 -45t39.5 -119q0 -132 -78 -222q-67 -80 -176 -104q121 -167 121 -418q0 -243 -100 -442q-98 -194 -269 -305q-177 -113 -393 -113q-305 0 -471 197q-145 171 -145 448q0 249 97 449
q96 194 264 304q173 112 389 112q257 0 417 -136zM891 1235q-198 0 -319 -200q-104 -174 -104 -431q0 -195 88 -291q77 -84 215 -84q192 0 309 201q102 174 102 430q0 195 -85 291q-74 84 -206 84z" />
    <glyph glyph-name="ohorn" unicode="&#x1a1;" horiz-adv-x="1208" 
d="M968 991q125 32 149 125q-53 6 -84.5 40.5t-31.5 86.5q0 58 41 96.5t104 38.5q65 0 105 -44.5t40 -117.5q0 -128 -74 -217q-64 -78 -167 -104q75 -120 75 -291q0 -293 -182 -472q-158 -155 -391 -155q-229 0 -357 152q-112 132 -112 342q0 295 180 473q157 154 389 154
q188 0 316 -107zM648 873q-137 0 -207 -170q-49 -125 -49 -269q0 -232 170 -232q118 0 191 141q63 122 63 300q0 230 -168 230z" />
    <glyph glyph-name="Uhorn" unicode="&#x1af;" horiz-adv-x="1513" 
d="M1503 1384q101 27 121 98q-53 7 -85 40.5t-32 85.5q0 59 41 98t104 39q65 0 105.5 -45t40.5 -117q0 -142 -95 -226q-83 -74 -220 -85l-141 -723q-64 -330 -225 -459q-142 -113 -406 -113q-281 0 -422 140q-123 122 -123 335q0 79 18 175l164 837h322l-166 -848
q-16 -85 -16 -153q0 -230 235 -230q141 0 211 85q63 75 94 241l176 905h316z" />
    <glyph glyph-name="uhorn" unicode="&#x1b0;" horiz-adv-x="1222" 
d="M1162 1022q93 27 110 94q-53 6 -84.5 40.5t-31.5 86.5q0 58 41.5 96.5t104.5 38.5q64 0 104.5 -45t40.5 -117q0 -138 -93 -222q-82 -74 -215 -87l-176 -907h-303l31 156q-71 -97 -147.5 -140t-178.5 -43q-133 0 -203 88q-61 76 -61 205q0 62 14 140l131 665h304
l-125 -633q-13 -68 -13 -100q0 -123 115 -123q174 0 221 246l121 610h303z" />
    <glyph glyph-name="uni01CD" unicode="&#x1cd;" horiz-adv-x="1434" 
d="M385 279l-142 -279h-317l791 1464h368l213 -1464h-328l-32 279h-553zM831 1161l-330 -649h408zM663 1935h205l94 -145l152 145h211l-283 -348h-227z" />
    <glyph glyph-name="uni01CE" unicode="&#x1ce;" horiz-adv-x="1113" 
d="M616 0q-10 58 -10 96q0 17 2 33q-59 -80 -125.5 -116t-157.5 -36q-143 0 -227 90q-72 79 -72 199q0 288 373 352q113 19 297 25l4 23q4 25 4 55q0 129 -145 129t-293 -90l-107 209q108 70 211 99.5t240 29.5q401 0 401 -324q0 -60 -16 -141l-84 -432q-12 -68 -12 -105
q0 -47 12 -84v-12h-295zM661 465q-128 -5 -195 -21q-133 -33 -133 -147q0 -103 111 -103q76 0 130.5 47.5t67.5 125.5zM432 1567h205l94 -166l152 166h211l-281 -360h-227z" />
    <glyph glyph-name="uni01CF" unicode="&#x1cf;" horiz-adv-x="694" 
d="M288 1935h205l94 -145l152 145h210l-282 -348h-228zM362 1464h319l-285 -1464h-319z" />
    <glyph glyph-name="uni01D0" unicode="&#x1d0;" horiz-adv-x="620" 
d="M179 1567h205l94 -166l152 166h211l-281 -360h-227zM259 1071h303l-209 -1071h-303z" />
    <glyph glyph-name="uni01D1" unicode="&#x1d1;" horiz-adv-x="1567" 
d="M734 1935h205l94 -145l152 145h211l-283 -348h-227zM887 1487q309 0 479 -198q148 -173 148 -452q0 -203 -76 -386q-66 -159 -178 -269q-205 -205 -514 -205q-299 0 -465 197q-145 172 -145 448q0 186 58 354q51 147 139 253q214 258 554 258zM891 1235q-198 0 -319 -200
q-104 -174 -104 -431q0 -195 88 -291q77 -84 215 -84q192 0 309 201q102 174 102 430q0 195 -85 291q-74 84 -206 84z" />
    <glyph glyph-name="uni01D2" unicode="&#x1d2;" horiz-adv-x="1206" 
d="M652 1098q232 0 361 -151q112 -131 112 -343q0 -293 -182 -472q-158 -155 -391 -155q-230 0 -358 153q-111 133 -111 347q0 290 181 467q157 154 388 154zM648 873q-137 0 -207 -170q-49 -125 -49 -269q0 -232 170 -232q118 0 191 141q63 122 63 300q0 230 -168 230z
M478 1567h205l94 -166l152 166h211l-281 -360h-227z" />
    <glyph glyph-name="uni01D3" unicode="&#x1d3;" horiz-adv-x="1494" 
d="M1342 549q-64 -330 -225 -459q-142 -113 -406 -113q-281 0 -422 140q-123 122 -123 335q0 79 18 175l164 837h322l-166 -848q-16 -85 -16 -153q0 -230 235 -230q141 0 211 85q63 75 94 241l176 905h316zM698 1935h205l94 -145l152 145h211l-283 -348h-227z" />
    <glyph glyph-name="uni01D4" unicode="&#x1d4;" horiz-adv-x="1207" 
d="M691 156q-71 -97 -147.5 -140t-178.5 -43q-133 0 -203 88q-61 76 -61 205q0 62 14 140l131 665h304l-125 -633q-13 -68 -13 -100q0 -123 115 -123q174 0 221 246l121 610h303l-209 -1071h-303zM482 1567h205l94 -166l152 166h211l-281 -360h-227z" />
    <glyph glyph-name="uni01DD" unicode="&#x1dd;" horiz-adv-x="1140" 
d="M469 -23q-186 0 -290 97q-91 84 -91 219q0 255 358 321q122 24 338 29v21q0 207 -174 207q-131 0 -293 -126l-127 197q203 156 455 156q222 0 338 -134q102 -118 102 -319q0 -309 -198 -502q-171 -166 -418 -166zM498 202q191 0 264 259q-220 0 -310 -40
q-79 -35 -79 -108q0 -52 33 -81.5t92 -29.5z" />
    <glyph glyph-name="Gcaron" unicode="&#x1e6;" horiz-adv-x="1570" 
d="M1131 226q-153 -249 -454 -249q-266 0 -411 192q-126 167 -126 440q0 255 100 457q98 197 273 308q178 113 403 113q237 0 373 -99q115 -83 176 -249l-297 -109q-33 111 -94.5 159t-171.5 48q-205 0 -327 -199q-105 -173 -105 -434q0 -381 291 -381q149 0 248 98
q86 86 108 222l4 27h-285l45 227h594l-153 -797h-170zM734 1935h205l94 -145l152 145h211l-283 -348h-227z" />
    <glyph glyph-name="gcaron" unicode="&#x1e7;" horiz-adv-x="1152" 
d="M1012 868q20 -52 20 -115q0 -177 -139 -278q-120 -88 -307 -88q-116 0 -209 33q-45 -40 -45 -82q0 -72 96 -72h152q137 0 216 -23t130 -77q70 -70 70 -184q0 -199 -168 -301q-147 -90 -398 -90q-243 0 -371 79q-112 69 -112 185q0 157 225 227q-92 59 -92 155
q0 142 193 238q-121 94 -121 240q0 176 148 287q129 96 313 96q154 0 276 -76l313 69l-45 -223h-145zM613 913q-87 0 -138 -64q-44 -56 -44 -141q0 -70 39.5 -109.5t109.5 -39.5q86 0 135 65q43 57 43 146q0 68 -38 105.5t-107 37.5zM328 35q-100 -47 -100 -129
q0 -116 215 -116q134 0 201 42q59 37 59 101q0 102 -144 102h-231zM416 1567h205l94 -166l152 166h211l-281 -360h-227z" />
    <glyph glyph-name="uni01F4" unicode="&#x1f4;" horiz-adv-x="1570" 
d="M1131 226q-153 -249 -454 -249q-266 0 -411 192q-126 167 -126 440q0 255 100 457q98 197 273 308q178 113 403 113q237 0 373 -99q115 -83 176 -249l-297 -109q-33 111 -94.5 159t-171.5 48q-205 0 -327 -199q-105 -173 -105 -434q0 -381 291 -381q149 0 248 98
q86 86 108 222l4 27h-285l45 227h594l-153 -797h-170zM1012 1935h355l-275 -356h-219z" />
    <glyph glyph-name="uni01F5" unicode="&#x1f5;" horiz-adv-x="1152" 
d="M1012 868q20 -52 20 -115q0 -177 -139 -278q-120 -88 -307 -88q-116 0 -209 33q-45 -40 -45 -82q0 -72 96 -72h152q137 0 216 -23t130 -77q70 -70 70 -184q0 -199 -168 -301q-147 -90 -398 -90q-243 0 -371 79q-112 69 -112 185q0 157 225 227q-92 59 -92 155
q0 142 193 238q-121 94 -121 240q0 176 148 287q129 96 313 96q154 0 276 -76l313 69l-45 -223h-145zM613 913q-87 0 -138 -64q-44 -56 -44 -141q0 -70 39.5 -109.5t109.5 -39.5q86 0 135 65q43 57 43 146q0 68 -38 105.5t-107 37.5zM328 35q-100 -47 -100 -129
q0 -116 215 -116q134 0 201 42q59 37 59 101q0 102 -144 102h-231zM700 1567h355l-275 -360h-219z" />
    <glyph glyph-name="Aringacute" unicode="&#x1fa;" 
d="M1085 1464l213 -1464h-328l-32 279h-553l-142 -279h-317l791 1464h96q-117 52 -117 186q0 142 125 209l98 252h355l-203 -260q80 -58 80 -166q0 -73 -39.5 -132.5t-108.5 -88.5h82zM915 1564q41 0 69 34t28 83q0 42 -21.5 67t-56.5 25q-42 0 -69.5 -34t-27.5 -85
q0 -41 21 -65.5t57 -24.5zM501 512h408l-78 649z" />
    <glyph glyph-name="aringacute" unicode="&#x1fb;" horiz-adv-x="1115" 
d="M671 1167q-99 0 -159 65q-52 57 -52 140q0 75 41 134.5t111 86.5l100 260h354l-221 -289q70 -56 70 -157q0 -109 -79 -179q-69 -61 -165 -61zM679 1286q41 0 69 34t28 83q0 42 -21.5 67t-56.5 25q-42 0 -69.5 -34t-27.5 -85q0 -41 21 -65.5t57 -24.5zM610 1098
q401 0 401 -324q0 -60 -16 -141l-84 -432q-12 -68 -12 -105q0 -47 12 -84v-12h-295q-10 58 -10 96q0 17 2 33q-59 -80 -125.5 -116t-157.5 -36q-143 0 -227 90q-72 79 -72 199q0 288 373 352q113 19 297 25l4 23q4 25 4 55q0 129 -145 129t-293 -90l-107 209
q108 70 211 99.5t240 29.5zM642 367l19 98q-128 -5 -195 -21q-133 -33 -133 -147q0 -103 111 -103q76 0 130.5 47.5t67.5 125.5z" />
    <glyph glyph-name="AEacute" unicode="&#x1fc;" horiz-adv-x="2050" 
d="M991 1464h1110l-47 -250h-635l-67 -350h471l-47 -238h-471l-72 -376h666l-47 -250h-983l57 299h-447l-204 -299h-326zM641 535h330l129 665zM1251 1935h355l-275 -356h-219z" />
    <glyph glyph-name="aeacute" unicode="&#x1fd;" horiz-adv-x="1733" 
d="M351 -23q-147 0 -232 89q-73 77 -73 196q0 369 612 369h52l8 41q6 30 6 61q0 115 -145 115q-156 0 -300 -88l-106 209q107 69 214.5 99t246.5 30q121 0 195.5 -33.5t123.5 -110.5q149 144 350 144q185 0 286 -96q89 -83 89 -217q0 -137 -89 -214q-78 -68 -234 -100
q-126 -25 -369 -31v-28q0 -108 41.5 -158t130.5 -50q147 0 277 115l137 -190q-172 -152 -432 -152q-162 0 -264 60q-90 52 -146 156q-77 -113 -167.5 -164.5t-211.5 -51.5zM1011 623q229 0 313 36q73 31 73 105q0 51 -34.5 80t-94.5 29q-188 0 -257 -250zM462 194
q75 0 129 47t69 126l17 86h-43q-283 0 -283 -156q0 -103 111 -103zM1027 1567h355l-275 -360h-219z" />
    <glyph glyph-name="Oslashacute" unicode="&#x1fe;" horiz-adv-x="1563" 
d="M1413 1214q94 -157 94 -379q0 -202 -76 -384q-66 -159 -178 -269q-208 -205 -510 -205q-247 0 -414 140l-116 -117h-238l244 248q-92 157 -92 375q0 248 97 448q96 194 265 304q173 112 389 112q256 0 422 -142l117 119h241zM1097 1140q-82 95 -214 95q-183 0 -295 -162
q-59 -84 -94 -209.5t-35 -255.5q0 -56 8 -108zM536 328q80 -99 221 -99q204 0 316 201q102 185 102 428q0 53 -8 108zM1005 1935h355l-275 -356h-219z" />
    <glyph glyph-name="oslashacute" unicode="&#x1ff;" horiz-adv-x="1203" 
d="M165 0h-209l199 195q-68 110 -68 276q0 295 180 473q156 154 387 154q187 0 316 -105l80 78h209l-195 -190q66 -129 66 -275q0 -295 -182 -474q-159 -155 -392 -155q-188 0 -309 103zM783 811q-49 62 -131 62q-128 0 -201 -140q-63 -121 -63 -309zM433 262
q47 -60 135 -60q141 0 213 176q47 122 47 255v16zM761 1567h355l-275 -360h-219z" />
    <glyph glyph-name="Scommaaccent" unicode="&#x218;" horiz-adv-x="1251" 
d="M964 1077q-39 87 -97.5 123.5t-156.5 36.5q-107 0 -160 -47q-47 -42 -47 -115t58 -113q51 -36 204 -90q232 -81 318 -185q76 -91 76 -241q0 -230 -175 -358q-153 -111 -399 -111q-476 0 -563 344l295 103q21 -115 98 -160q64 -37 187 -37q118 0 180 53q55 46 55 123
q0 75 -57 117q-51 38 -195 90q-230 83 -316 187q-75 91 -75 239q0 221 163 344q142 107 367 107q383 0 515 -293zM371 -449q133 24 153 105q-53 6 -85 40t-32 85q0 60 41 98.5t104 38.5q65 0 105.5 -45t40.5 -117q0 -141 -94 -223q-47 -44 -104 -64t-154 -26z" />
    <glyph glyph-name="scommaaccent" unicode="&#x219;" horiz-adv-x="1036" 
d="M821 754q-114 127 -266 127q-121 0 -121 -92q0 -43 30 -66t138 -61q178 -64 248 -147q61 -72 61 -181q0 -178 -134 -274q-117 -83 -311 -83q-318 0 -479 195l166 184q121 -158 305 -158q150 0 150 98q0 46 -45 76q-29 17 -143 58q-275 99 -275 319q0 175 129 268
q113 81 299 81q133 0 231.5 -39.5t188.5 -128.5zM248 -449q133 24 153 105q-53 6 -85 40t-32 85q0 60 41 98.5t104 38.5q65 0 105.5 -45t40.5 -117q0 -141 -94 -223q-47 -44 -104 -64t-154 -26z" />
    <glyph glyph-name="uni021A" unicode="&#x21a;" horiz-adv-x="1288" 
d="M621 1214h-393l49 250h1104l-49 -250h-393l-234 -1214h-319zM333 -449q133 24 153 105q-53 6 -85 40t-32 85q0 60 41 98.5t104 38.5q65 0 105.5 -45t40.5 -117q0 -141 -94 -223q-47 -44 -104 -64t-154 -26z" />
    <glyph glyph-name="uni021B" unicode="&#x21b;" horiz-adv-x="827" 
d="M170 1071h141l43 217l324 107l-64 -324h216l-46 -231h-215l-90 -477q-6 -34 -6 -54q0 -80 74 -80q42 0 102 29l62 -211q-111 -70 -266 -70q-146 0 -220 79q-65 68 -65 186q0 47 8 86l98 512h-141zM158 -449q133 24 153 105q-53 6 -85 40t-32 85q0 60 41 98.5t104 38.5
q65 0 105.5 -45t40.5 -117q0 -141 -94 -223q-47 -44 -104 -64t-154 -26z" />
    <glyph glyph-name="uni0226" unicode="&#x226;" 
d="M385 279l-142 -279h-317l791 1464h368l213 -1464h-328l-32 279h-553zM831 1161l-330 -649h408zM964 1907q64 0 105.5 -40.5t41.5 -103.5q0 -79 -58 -132q-51 -46 -118 -46q-62 0 -102.5 42t-40.5 106q0 75 58 128q50 46 114 46z" />
    <glyph glyph-name="uni0227" unicode="&#x227;" horiz-adv-x="1119" 
d="M616 0q-10 58 -10 96q0 17 2 33q-59 -80 -125.5 -116t-157.5 -36q-143 0 -227 90q-72 79 -72 199q0 288 373 352q113 19 297 25l4 23q4 25 4 55q0 129 -145 129t-293 -90l-107 209q108 70 211 99.5t240 29.5q401 0 401 -324q0 -60 -16 -141l-84 -432q-12 -68 -12 -105
q0 -47 12 -84v-12h-295zM661 465q-128 -5 -195 -21q-133 -33 -133 -147q0 -103 111 -103q76 0 130.5 47.5t67.5 125.5zM734 1556q67 0 110.5 -41.5t43.5 -105.5q0 -82 -61 -138q-53 -48 -121 -48q-66 0 -108 43t-42 110q0 77 60 133q53 47 118 47z" />
    <glyph glyph-name="uni0237" unicode="&#x237;" horiz-adv-x="618" 
d="M356 -72q-61 -319 -364 -319q-126 0 -203 55l86 217q42 -22 80 -22q83 0 106 108l215 1104h304z" />
    <glyph glyph-name="uni0259" unicode="&#x259;" horiz-adv-x="1140" 
d="M469 -23q-186 0 -290 97q-91 84 -91 219q0 255 358 321q122 24 338 29v21q0 207 -174 207q-131 0 -293 -126l-127 197q203 156 455 156q222 0 338 -134q102 -118 102 -319q0 -309 -198 -502q-171 -166 -418 -166zM498 202q191 0 264 259q-220 0 -310 -40
q-79 -35 -79 -108q0 -52 33 -81.5t92 -29.5z" />
    <glyph glyph-name="afii57929" unicode="&#x2bc;" horiz-adv-x="575" 
d="M268 1102q150 22 176 131q-61 9 -96 48t-35 97q0 78 57 126q50 42 121 42q74 0 117 -49t43 -133q0 -162 -107 -268q-56 -59 -124.5 -86t-176.5 -35z" />
    <glyph glyph-name="circumflex" unicode="&#x2c6;" horiz-adv-x="1049" 
d="M614 1563h227l154 -360h-205l-95 166l-151 -166h-211z" />
    <glyph glyph-name="caron" unicode="&#x2c7;" horiz-adv-x="1051" 
d="M403 1563h205l94 -166l152 166h211l-281 -360h-227z" />
    <glyph glyph-name="uni02C9" unicode="&#x2c9;" horiz-adv-x="1057" 
d="M468 1497h516l-39 -207h-518z" />
    <glyph glyph-name="breve" unicode="&#x2d8;" horiz-adv-x="1052" 
d="M1039 1554q-16 -105 -42 -162t-77 -102q-90 -78 -221 -78q-142 0 -219 90q-39 43 -52.5 95.5t-13.5 156.5h199q1 -79 24 -113t76 -34q55 0 84.5 34.5t42.5 112.5h199z" />
    <glyph glyph-name="dotaccent" unicode="&#x2d9;" horiz-adv-x="1072" 
d="M726 1556q67 0 110.5 -41.5t43.5 -105.5q0 -82 -61 -138q-53 -48 -121 -48q-66 0 -108 43t-42 110q0 77 60 133q53 47 118 47z" />
    <glyph glyph-name="ring" unicode="&#x2da;" horiz-adv-x="1064" 
d="M728 1632q99 0 158 -64q51 -56 51 -141q0 -108 -79 -178q-69 -61 -165 -61q-99 0 -159 65q-52 57 -52 140q0 108 81 178q69 61 165 61zM720 1515q-42 0 -69.5 -34t-27.5 -84q0 -41 21.5 -65.5t56.5 -24.5q41 0 69 34t28 82q0 42 -21.5 67t-56.5 25z" />
    <glyph glyph-name="ogonek" unicode="&#x2db;" horiz-adv-x="1068" 
d="M597 -352q-78 -70 -188 -70q-101 0 -154 49q-47 43 -47 115q0 160 197 258h155q-176 -120 -176 -228q0 -57 66 -57q42 0 84 37z" />
    <glyph glyph-name="tilde" unicode="&#x2dc;" horiz-adv-x="1047" 
d="M1068 1523q-60 -290 -256 -290q-70 0 -155 55q-51 33 -80 33q-52 0 -78 -84l-168 12q36 160 103 230q58 61 147 61q66 0 151 -53q59 -35 86 -35q45 0 74 84z" />
    <glyph glyph-name="hungarumlaut" unicode="&#x2dd;" horiz-adv-x="1054" 
d="M476 1561h295l-211 -356h-207zM857 1561h295l-209 -356h-207z" />
    <glyph glyph-name="uni0309" unicode="&#x309;" horiz-adv-x="48" 
d="M-408 1178l31 158q5 0 13 2q9 2 12 2l16 2q50 6 66 18.5t16 45.5q0 16 -23 16q-39 0 -66.5 -10t-96.5 -50l-25 -14l-49 111q96 56 150.5 76t109.5 20q70 0 114 -39.5t44 -101.5q0 -144 -158 -177l-12 -59h-142z" />
    <glyph glyph-name="uni037E" unicode="&#x37e;" horiz-adv-x="624" 
d="M380 950q79 0 129 -55q43 -48 43 -115q0 -94 -68 -156q-60 -53 -141 -53q-79 0 -129 54q-43 48 -43 116q0 92 69 155q60 54 140 54zM-3 -199q169 32 209 201q-71 9 -110.5 53t-39.5 113q0 87 64 142q56 48 135 48q89 0 137 -62q43 -54 43 -141q0 -90 -33.5 -181.5
t-91.5 -157.5q-64 -77 -143 -114t-201 -48z" />
    <glyph glyph-name="tonos" unicode="&#x384;" horiz-adv-x="1041" 
d="M762 1225h-254l109 362h321z" />
    <glyph glyph-name="dieresistonos" unicode="&#x385;" horiz-adv-x="1046" 
d="M545 1222l115 365h242l-191 -365h-166zM369 1567q66 0 108 -40t42 -104q0 -80 -59 -135q-50 -47 -117 -47q-65 0 -106.5 42.5t-41.5 109.5q0 74 58 128q51 46 116 46zM1026 1567q66 0 108 -40t42 -104q0 -80 -59 -135q-50 -47 -117 -47q-65 0 -106.5 42.5t-41.5 109.5
q0 74 58 128q51 46 116 46z" />
    <glyph glyph-name="Alphatonos" unicode="&#x386;" 
d="M385 279l-142 -279h-317l791 1464h368l213 -1464h-328l-32 279h-553zM78 1462h321l-119 -426h-252zM831 1161l-330 -649h408z" />
    <glyph glyph-name="uni0387" unicode="&#x387;" horiz-adv-x="633" 
d="M362 858q77 0 128 -56q44 -49 44 -116q0 -93 -69 -154q-60 -53 -142 -53q-79 0 -128 54q-42 47 -42 116q0 92 69 155q60 54 140 54z" />
    <glyph glyph-name="Epsilontonos" unicode="&#x388;" horiz-adv-x="1628" 
d="M716 1464h965l-47 -250h-651l-68 -350h488l-48 -238h-487l-72 -376h682l-47 -250h-999zM233 1462h322l-119 -426h-252z" />
    <glyph glyph-name="Etatonos" unicode="&#x389;" horiz-adv-x="1852" 
d="M716 1464h322l-117 -598h508l117 598h321l-284 -1464h-322l121 606h-510l-119 -606h-321zM233 1462h322l-119 -426h-252z" />
    <glyph glyph-name="Iotatonos" unicode="&#x38a;" horiz-adv-x="1016" 
d="M702 1464h320l-285 -1464h-320zM233 1462h322l-119 -426h-252z" />
    <glyph glyph-name="Omicrontonos" unicode="&#x38c;" horiz-adv-x="1914" 
d="M1234 1487q309 0 479 -198q148 -173 148 -452q0 -203 -76 -386q-66 -159 -178 -269q-205 -205 -514 -205q-299 0 -465 197q-145 172 -145 448q0 186 58 354q51 147 139 253q214 258 554 258zM233 1462h322l-119 -426h-252zM1239 1235q-199 0 -319 -200
q-105 -174 -105 -431q0 -195 88 -291q78 -84 215 -84q193 0 310 201q102 174 102 430q0 195 -85 291q-74 84 -206 84z" />
    <glyph glyph-name="Upsilontonos" unicode="&#x38e;" horiz-adv-x="1726" 
d="M917 612l-309 852h336l192 -575l394 575h331l-628 -868l-115 -596h-320zM233 1462h322l-119 -426h-252z" />
    <glyph glyph-name="Omegatonos" unicode="&#x38f;" horiz-adv-x="1994" 
d="M1943 868q0 -211 -115 -392q-99 -154 -262 -251h316l-45 -225h-645l45 225q374 236 374 633q0 187 -93 287q-83 90 -224 90q-222 0 -357 -194q-110 -158 -110 -369q0 -137 57 -267q50 -113 127 -180l-45 -225h-616l45 225h315q-104 96 -161 225q-52 117 -52 236
q0 217 109 403q106 182 288 288q189 110 410 110q315 0 488 -188q151 -165 151 -431zM555 1462l-119 -426h-252l49 426h322z" />
    <glyph glyph-name="iotadieresistonos" unicode="&#x390;" horiz-adv-x="661" 
d="M422 397q-11 -58 -11 -86q0 -80 72 -80q21 0 68 7l-45 -238q-82 -10 -146 -10q-262 0 -262 213q0 57 25 188l133 680h303zM346 1222l115 365h242l-191 -365h-166zM170 1567q66 0 108 -40t42 -104q0 -80 -59 -135q-50 -47 -117 -47q-65 0 -106.5 42.5t-41.5 109.5
q0 74 58 128q51 46 116 46zM827 1567q66 0 108 -40t42 -104q0 -80 -59 -135q-50 -47 -117 -47q-65 0 -106.5 42.5t-41.5 109.5q0 74 58 128q51 46 116 46z" />
    <glyph glyph-name="Alpha" unicode="&#x391;" 
d="M385 279l-142 -279h-317l791 1464h368l213 -1464h-328l-32 279h-553zM831 1161l-330 -649h408z" />
    <glyph glyph-name="Beta" unicode="&#x392;" horiz-adv-x="1392" 
d="M351 1464h506q121 0 190 -13t131 -49q168 -91 168 -295q0 -143 -75 -231q-65 -77 -201 -129q124 -40 178 -123q47 -72 47 -186q0 -221 -161 -337q-141 -101 -380 -101h-688zM801 866q125 0 186 59q54 52 54 144q0 79 -46 115t-147 36h-229l-70 -354h252zM736 244
q128 0 193 65q57 57 57 154q0 86 -50 132t-143 46h-287l-78 -397h308z" />
    <glyph glyph-name="Gamma" unicode="&#x393;" horiz-adv-x="1129" 
d="M351 1464h897l-52 -252h-573l-235 -1212h-322z" />
    <glyph glyph-name="uni0394" unicode="&#x394;" horiz-adv-x="1428" 
d="M702 1464h385l203 -1464h-1364zM938 244l-111 933l-477 -933h588z" />
    <glyph glyph-name="Epsilon" unicode="&#x395;" horiz-adv-x="1262" 
d="M351 1464h964l-47 -250h-651l-68 -350h488l-47 -238h-488l-71 -376h682l-48 -250h-999z" />
    <glyph glyph-name="Zeta" unicode="&#x396;" horiz-adv-x="1269" 
d="M60 270l848 944h-631l49 250h1002l-51 -272l-838 -936h666l-52 -256h-1044z" />
    <glyph glyph-name="Eta" unicode="&#x397;" horiz-adv-x="1486" 
d="M351 1464h321l-117 -598h508l117 598h322l-285 -1464h-322l121 606h-510l-118 -606h-322z" />
    <glyph glyph-name="Theta" unicode="&#x398;" horiz-adv-x="1587" 
d="M908 1487q306 0 478 -200q149 -174 149 -452q0 -243 -101 -442q-99 -193 -273 -303q-179 -113 -398 -113q-311 0 -480 197q-147 171 -147 451q0 184 59 352q52 146 140 252q218 258 573 258zM898 1235q-202 0 -324 -199q-106 -172 -106 -428q0 -195 91 -293
q79 -86 216 -86q202 0 323 198q105 171 105 427q0 381 -305 381zM611 866h498l-47 -244h-498z" />
    <glyph glyph-name="Iota" unicode="&#x399;" horiz-adv-x="675" 
d="M362 1464h319l-285 -1464h-319z" />
    <glyph glyph-name="Kappa" unicode="&#x39a;" horiz-adv-x="1411" 
d="M351 1464h319l-125 -637l594 637h359l-611 -629l363 -835h-340l-269 606l-172 -170l-84 -436h-319z" />
    <glyph glyph-name="Lambda" unicode="&#x39b;" horiz-adv-x="1364" 
d="M680 1464h368l178 -1464h-329l-107 1157l-555 -1157h-307z" />
    <glyph glyph-name="Mu" unicode="&#x39c;" horiz-adv-x="1836" 
d="M351 1464h428l110 -1005l510 1005h447l-285 -1464h-311l200 1048l-538 -1048h-236l-125 1048l-204 -1048h-281z" />
    <glyph glyph-name="Nu" unicode="&#x39d;" horiz-adv-x="1500" 
d="M351 1464h348l332 -1005l196 1005h289l-285 -1464h-336l-340 1024l-200 -1024h-289z" />
    <glyph glyph-name="Xi" unicode="&#x39e;" horiz-adv-x="1238" 
d="M292 1464h1011l-49 -252h-1011zM290 868h782l-49 -252h-780zM56 252h1012l-49 -252h-1012z" />
    <glyph glyph-name="Omicron" unicode="&#x39f;" horiz-adv-x="1567" 
d="M887 1487q309 0 479 -198q148 -173 148 -452q0 -203 -76 -386q-66 -159 -178 -269q-205 -205 -514 -205q-299 0 -465 197q-145 172 -145 448q0 186 58 354q51 147 139 253q214 258 554 258zM891 1235q-198 0 -319 -200q-104 -174 -104 -431q0 -195 88 -291
q77 -84 215 -84q192 0 309 201q102 174 102 430q0 195 -85 291q-74 84 -206 84z" />
    <glyph glyph-name="Pi" unicode="&#x3a0;" horiz-adv-x="1451" 
d="M299 1212h-121l49 252h1347l-49 -252h-114l-236 -1212h-321l235 1212h-469l-235 -1212h-322z" />
    <glyph glyph-name="Rho" unicode="&#x3a1;" horiz-adv-x="1341" 
d="M351 1464h518q196 0 309 -70q178 -112 178 -354q0 -265 -190 -395q-88 -60 -185 -83.5t-258 -23.5h-233l-105 -538h-319zM775 776q141 0 211 75q61 65 61 181q0 186 -193 186h-233l-86 -442h240z" />
    <glyph glyph-name="Sigma" unicode="&#x3a3;" horiz-adv-x="1249" 
d="M44 287l475 475l-268 442l51 260h1016l-49 -250h-690l278 -465l-491 -499h758l-50 -250h-1087z" />
    <glyph glyph-name="Tau" unicode="&#x3a4;" horiz-adv-x="1288" 
d="M621 1214h-393l49 250h1104l-49 -250h-393l-234 -1214h-319z" />
    <glyph glyph-name="Upsilon" unicode="&#x3a5;" horiz-adv-x="1350" 
d="M541 612l-309 852h336l192 -575l394 575h331l-628 -868l-115 -596h-320z" />
    <glyph glyph-name="Phi" unicode="&#x3a6;" horiz-adv-x="1800" 
d="M674 97q-191 29 -310 114t-180 218q-53 116 -53 249q0 194 101 352q89 138 239 224q94 54 197 82.5t256 44.5l26 139h287l-29 -152q188 -28 309 -114q120 -84 181 -217q53 -115 53 -250q0 -194 -101 -351q-88 -136 -239 -221q-91 -53 -189.5 -80t-261.5 -45l-28 -145
h-289zM874 1133q-146 -24 -235 -92q-83 -63 -132.5 -169t-49.5 -220q0 -262 262 -316zM1008 332q146 24 235 92q83 63 132.5 169.5t49.5 222.5q0 254 -264 313z" />
    <glyph glyph-name="Chi" unicode="&#x3a7;" 
d="M572 770l-295 694h361l174 -477l338 477h354l-555 -719l322 -745h-357l-200 536l-400 -536h-356z" />
    <glyph glyph-name="Psi" unicode="&#x3a8;" horiz-adv-x="1854" 
d="M729 313h-60q-249 0 -370 127q-113 122 -113 320q0 125 35 296l80 408h321l-98 -502q-19 -92 -19 -198q0 -103 49.5 -151t155.5 -48h66l176 899h317l-176 -899h74q152 0 223 80q63 71 94 235l115 584h322l-127 -647q-27 -133 -63.5 -212t-100.5 -140q-158 -152 -449 -152
h-137l-59 -313h-318z" />
    <glyph glyph-name="uni03A9" unicode="&#x3a9;" horiz-adv-x="1619" 
d="M1568 868q0 -211 -115 -392q-99 -154 -261 -251h315l-45 -225h-645l45 225q374 236 374 633q0 187 -93 287q-83 90 -224 90q-222 0 -357 -194q-110 -158 -110 -369q0 -137 57 -267q50 -113 128 -180l-46 -225h-616l45 225h315q-104 96 -161 225q-52 117 -52 236
q0 217 109 403q106 182 289 288q188 110 409 110q315 0 488 -188q151 -165 151 -431z" />
    <glyph glyph-name="Iotadieresis" unicode="&#x3aa;" horiz-adv-x="694" 
d="M372 1903q64 0 105.5 -40.5t41.5 -102.5q0 -81 -59 -136q-51 -47 -119 -47q-62 0 -102.5 42.5t-40.5 107.5q0 76 57 129q50 47 117 47zM810 1903q62 0 103 -41t41 -102q0 -82 -58 -136q-50 -47 -118 -47q-63 0 -102.5 41.5t-39.5 108.5q0 76 58 129q51 47 116 47z
M362 1464h319l-285 -1464h-319z" />
    <glyph glyph-name="Upsilondieresis" unicode="&#x3ab;" horiz-adv-x="1350" 
d="M541 612l-309 852h336l192 -575l394 575h331l-628 -868l-115 -596h-320zM658 1903q65 0 106.5 -40.5t41.5 -102.5q0 -81 -59 -136q-51 -47 -119 -47q-62 0 -103 42.5t-41 107.5q0 76 57 129q51 47 117 47zM1096 1903q62 0 103 -41t41 -102q0 -82 -58 -136
q-50 -47 -118 -47q-63 0 -102.5 41.5t-39.5 108.5q0 76 58 129q51 47 116 47z" />
    <glyph glyph-name="alphatonos" unicode="&#x3ac;" horiz-adv-x="1214" 
d="M965 0h-303l29 150q-122 -173 -304 -173q-159 0 -243 123q-74 107 -74 285q0 127 35 256.5t96 224.5q144 232 375 232q201 0 266 -168l27 141h303zM643 873q-114 0 -190 -152q-32 -66 -53 -161.5t-21 -177.5t35.5 -127t99.5 -45q122 0 203 146q32 59 53 150.5t21 167.5
q0 101 -44 153q-38 46 -104 46zM856 1225h-254l109 362h321z" />
    <glyph glyph-name="epsilontonos" unicode="&#x3ad;" horiz-adv-x="1102" 
d="M567 205q103 0 165 20t118 72l166 -156q-92 -96 -229 -132q-111 -29 -296 -29q-188 0 -298 82q-101 75 -101 196q0 95 60.5 171t170.5 120q-133 79 -133 215q0 176 153 264q123 70 322 70q320 0 439 -203l-197 -139q-44 67 -95.5 92t-146.5 25q-87 0 -138 -39
q-46 -35 -46 -88q0 -46 43.5 -76.5t110.5 -30.5h178l-35 -182h-141q-115 0 -179 -42q-59 -38 -59 -103q0 -45 49 -76t119 -31zM803 1225h-254l109 362h321z" />
    <glyph glyph-name="etatonos" unicode="&#x3ae;" horiz-adv-x="1228" 
d="M251 1071h303l-33 -172q71 105 151 152t187 47q133 0 204 -88q62 -76 62 -201q0 -58 -16 -137l-203 -1045h-305l195 996q10 48 10 104q0 123 -119 123q-85 0 -142.5 -63.5t-80.5 -182.5l-117 -604h-305zM861 1225h-254l109 362h321z" />
    <glyph glyph-name="iotatonos" unicode="&#x3af;" horiz-adv-x="650" 
d="M429 397q-11 -58 -11 -86q0 -80 72 -80q21 0 68 7l-45 -238q-82 -10 -146 -10q-262 0 -262 213q0 57 25 188l133 680h303zM558 1225h-254l109 362h321z" />
    <glyph glyph-name="upsilondieresistonos" unicode="&#x3b0;" horiz-adv-x="1204" 
d="M557 1071l-119 -608q-12 -59 -12 -132q0 -129 119 -129q143 0 188 230l125 639h303l-137 -709q-42 -217 -173 -307q-114 -78 -321 -78q-219 0 -317 95q-86 84 -86 247q0 105 25 228l102 524h303zM647 1222l115 365h242l-191 -365h-166zM471 1567q66 0 108 -40t42 -104
q0 -80 -59 -135q-50 -47 -117 -47q-65 0 -106.5 42.5t-41.5 109.5q0 74 58 128q51 46 116 46zM1128 1567q66 0 108 -40t42 -104q0 -80 -59 -135q-50 -47 -117 -47q-65 0 -106.5 42.5t-41.5 109.5q0 74 58 128q51 46 116 46z" />
    <glyph glyph-name="alpha" unicode="&#x3b1;" horiz-adv-x="1214" 
d="M965 0h-303l29 150q-122 -173 -304 -173q-159 0 -243 123q-74 107 -74 285q0 127 35 256.5t96 224.5q144 232 375 232q201 0 266 -168l27 141h303zM643 873q-114 0 -190 -152q-32 -66 -53 -161.5t-21 -177.5t35.5 -127t99.5 -45q122 0 203 146q32 59 53 150.5t21 167.5
q0 101 -44 153q-38 46 -104 46z" />
    <glyph glyph-name="beta" unicode="&#x3b2;" horiz-adv-x="1266" 
d="M247 1047q34 169 57 232.5t73 123.5q129 160 401 160q210 0 322 -100q98 -87 98 -232q0 -253 -285 -336q97 -33 151 -82q107 -103 107 -279q0 -110 -41 -225t-109 -193q-120 -139 -323 -139q-129 0 -215 37l43 224q52 -36 109 -36q104 0 166 115q61 116 61 271
q0 194 -203 194h-12l39 201q103 5 152 41q84 64 84 191q0 141 -142 141q-104 0 -160 -88q-36 -58 -61 -185l-285 -1462h-303z" />
    <glyph glyph-name="gamma" unicode="&#x3b3;" horiz-adv-x="1067" 
d="M284 0l-166 1071h309l84 -705l344 705h301l-569 -1071l-74 -379h-303z" />
    <glyph glyph-name="delta" unicode="&#x3b4;" horiz-adv-x="1190" 
d="M849 1059q146 -86 205 -185t59 -260q0 -301 -179 -481q-155 -156 -386 -156q-225 0 -354 152q-111 132 -111 338q0 216 114 372q99 135 267 199q-72 54 -102.5 107.5t-30.5 124.5q0 152 133 232q110 67 285 67q268 0 448 -168l-172 -176q-48 57 -122.5 92t-147.5 35
q-135 0 -135 -90q0 -45 36.5 -78.5t164.5 -108.5q17 -10 28 -16zM759 379q45 122 45 264q0 229 -162 229q-134 0 -201 -170q-49 -120 -49 -271q0 -229 164 -229q135 0 203 177z" />
    <glyph glyph-name="epsilon" unicode="&#x3b5;" horiz-adv-x="1102" 
d="M567 205q103 0 165 20t118 72l166 -156q-92 -96 -229 -132q-111 -29 -296 -29q-188 0 -298 82q-101 75 -101 196q0 95 60.5 171t170.5 120q-133 79 -133 215q0 176 153 264q123 70 322 70q320 0 439 -203l-197 -139q-44 67 -95.5 92t-146.5 25q-87 0 -138 -39
q-46 -35 -46 -88q0 -46 43.5 -76.5t110.5 -30.5h178l-35 -182h-141q-115 0 -179 -42q-59 -38 -59 -103q0 -45 49 -76t119 -31z" />
    <glyph glyph-name="zeta" unicode="&#x3b6;" horiz-adv-x="945" 
d="M452 -377q66 124 66 209q0 44 -36 74.5t-128 64.5q-124 45 -195 135q-78 98 -78 234q0 335 332 655q76 76 144 130.5t255 191.5h-487l45 225h704l-45 -225q-263 -230 -381 -369q-258 -306 -258 -588q0 -67 31 -102.5t135 -85.5q143 -70 186 -120q48 -57 48 -157
q0 -151 -84 -272h-254z" />
    <glyph glyph-name="eta" unicode="&#x3b7;" horiz-adv-x="1228" 
d="M251 1071h303l-33 -172q71 105 151 152t187 47q133 0 204 -88q62 -76 62 -201q0 -58 -16 -137l-203 -1045h-305l195 996q10 48 10 104q0 123 -119 123q-85 0 -142.5 -63.5t-80.5 -182.5l-117 -604h-305z" />
    <glyph glyph-name="theta" unicode="&#x3b8;" horiz-adv-x="1244" 
d="M788 1561q213 0 331 -176q103 -154 103 -400q0 -209 -65 -418q-56 -182 -148 -316q-190 -274 -451 -274q-217 0 -336 175q-104 153 -104 399q0 204 66 417q58 186 149 318q187 275 455 275zM909 895q14 122 14 174q0 137 -47 206q-40 61 -111 61q-180 0 -287 -441h431z
M437 692q-20 -135 -20 -217q0 -138 48 -210q42 -63 112 -63q127 0 221 232q40 100 74 258h-435z" />
    <glyph glyph-name="iota" unicode="&#x3b9;" horiz-adv-x="649" 
d="M429 397q-11 -58 -11 -86q0 -80 72 -80q21 0 68 7l-45 -238q-82 -10 -146 -10q-262 0 -262 213q0 57 25 188l133 680h303z" />
    <glyph glyph-name="kappa" unicode="&#x3ba;" horiz-adv-x="1152" 
d="M345 0h-303l209 1071h303l-86 -438l430 438h338l-434 -412l270 -659h-319l-183 442l-172 -166z" />
    <glyph glyph-name="lambda" unicode="&#x3bb;" horiz-adv-x="1131" 
d="M540 1114l-55 428h307l201 -1542h-313l-84 733l-373 -733h-301z" />
    <glyph glyph-name="uni03BC" unicode="&#x3bc;" horiz-adv-x="1220" 
d="M-32 -373l281 1444h303l-119 -622q-8 -43 -8 -79q0 -153 133 -153q69 0 121 63t73 173l121 618h305l-209 -1071h-272l23 174q-69 -120 -111 -159.5t-102 -39.5q-110 0 -150 82l-86 -430h-303z" />
    <glyph glyph-name="nu" unicode="&#x3bd;" horiz-adv-x="1092" 
d="M134 1071h315l66 -741l350 741h305l-557 -1071h-334z" />
    <glyph glyph-name="xi" unicode="&#x3be;" horiz-adv-x="976" 
d="M461 -377q66 124 66 209q0 46 -38 76q-40 32 -134 63q-289 96 -289 359q0 214 143 348q85 79 250 129q-59 25 -92 47q-40 25 -64 66t-24 83q0 221 338 314h-330l45 225h766l-45 -225h-86q-180 0 -274 -53q-115 -69 -115 -193q0 -95 63 -135q43 -29 146 -29h133l-43 -225
h-182q-87 0 -133 -13t-84 -48q-46 -41 -74.5 -111t-28.5 -139q0 -74 45 -115q35 -31 145 -84q142 -67 186 -120q48 -57 48 -157q0 -151 -84 -272h-254z" />
    <glyph glyph-name="omicron" unicode="&#x3bf;" horiz-adv-x="1207" 
d="M652 1098q232 0 361 -151q112 -131 112 -343q0 -293 -182 -472q-158 -155 -391 -155q-230 0 -358 153q-111 133 -111 347q0 290 181 467q157 154 388 154zM648 873q-137 0 -207 -170q-49 -125 -49 -269q0 -232 170 -232q118 0 191 141q63 122 63 300q0 230 -168 230z" />
    <glyph glyph-name="pi" unicode="&#x3c0;" horiz-adv-x="1249" 
d="M245 846h-113l45 225h1104l-45 -225h-113l-163 -846h-304l164 846h-278l-164 -846h-295z" />
    <glyph glyph-name="rho" unicode="&#x3c1;" horiz-adv-x="1224" 
d="M52 -373q-8 129 -8 293q0 618 150 889q83 148 221 223q121 66 264 66q227 0 355 -145q112 -126 112 -324q0 -297 -181 -487q-156 -165 -376 -165q-153 0 -260 91q-4 -292 14 -441h-291zM663 873q-138 0 -215 -164q-64 -138 -64 -306q0 -100 54 -154q47 -47 124 -47
q130 0 207 152q29 59 48.5 152t19.5 166q0 201 -174 201z" />
    <glyph glyph-name="uni03C2" unicode="&#x3c2;" horiz-adv-x="1003" 
d="M379 416q0 -85 53 -133q41 -37 156 -87q157 -70 205 -124q53 -58 53 -158q0 -150 -84 -291h-264q76 137 76 223q0 82 -127 125q-377 127 -377 416q0 331 181 535q157 176 384 176q159 0 263 -84q90 -73 124 -201l-243 -105q-25 85 -56 116.5t-88 31.5q-120 0 -190 -148
q-26 -56 -46 -144.5t-20 -147.5z" />
    <glyph glyph-name="sigma" unicode="&#x3c3;" horiz-adv-x="1208" 
d="M1226 835l-201 13q74 -98 74 -242q0 -126 -41.5 -247t-114.5 -206q-74 -84 -179 -130t-222 -46q-227 0 -354 148q-111 128 -111 330q0 137 48 263.5t134 215.5q83 86 187 125t249 39q80 0 181 -12l18 -3q96 -12 135 -12h242zM630 873q-112 0 -183 -141q-61 -122 -61 -296
q0 -234 160 -234q127 0 195 168q49 125 49 275q0 228 -160 228z" />
    <glyph glyph-name="tau" unicode="&#x3c4;" horiz-adv-x="924" 
d="M370 846h-287l45 225h862l-45 -225h-272l-164 -846h-303z" />
    <glyph glyph-name="upsilon" unicode="&#x3c5;" horiz-adv-x="1201" 
d="M557 1071l-119 -608q-12 -59 -12 -132q0 -129 119 -129q143 0 188 230l125 639h303l-137 -709q-42 -217 -173 -307q-114 -78 -321 -78q-219 0 -317 95q-86 84 -86 247q0 105 25 228l102 524h303z" />
    <glyph glyph-name="phi" unicode="&#x3c6;" horiz-adv-x="1572" 
d="M381 475q0 -214 193 -270l170 878q74 11 141 11q294 0 462 -157q146 -136 146 -349q0 -270 -207 -434q-181 -144 -475 -167l-69 -360h-281l70 360q-230 31 -354 179q-105 125 -105 305q0 351 330 616l196 -118q-217 -218 -217 -494zM854 203q137 29 213 102
q55 51 86 129.5t31 163.5q0 116 -59 187q-51 63 -142 81z" />
    <glyph glyph-name="chi" unicode="&#x3c7;" horiz-adv-x="1097" 
d="M355 409l-207 662h324l114 -416l285 416h295l-481 -692l235 -752h-324l-143 510l-350 -510h-295z" />
    <glyph glyph-name="psi" unicode="&#x3c8;" horiz-adv-x="1695" 
d="M1549 504q-31 -165 -60.5 -237.5t-93.5 -135.5q-133 -139 -385 -139h-118l-70 -365h-295l70 365h-37q-217 0 -325 117q-95 103 -95 284q0 114 39 320l70 358h303l-95 -487q-18 -104 -18 -185q0 -96 41 -139t133 -43h29l166 854h295l-166 -854h49q122 0 182 77
q52 67 82 224l107 553h303z" />
    <glyph glyph-name="omega" unicode="&#x3c9;" horiz-adv-x="1585" 
d="M604 975q-232 -269 -232 -597q0 -85 35 -134q30 -42 78 -42q57 0 94.5 69t69.5 235l51 260h268l-51 -260q-27 -137 -27 -205q0 -46 25.5 -72.5t69.5 -26.5q97 0 154 127q49 110 49 279q0 171 -72 373l202 104q99 -130 138 -239q41 -114 41 -256q0 -116 -34 -231t-91 -191
q-141 -191 -373 -191q-109 0 -173.5 45t-94.5 144q-59 -99 -131.5 -144t-174.5 -45q-177 0 -276 122q-86 105 -86 276q0 230 87.5 398t297.5 339z" />
    <glyph glyph-name="iotadieresis" unicode="&#x3ca;" horiz-adv-x="658" 
d="M263 1556q67 0 109.5 -41.5t42.5 -105.5q0 -82 -60 -138q-52 -48 -122 -48q-65 0 -107.5 43.5t-42.5 109.5q0 78 60 133q52 47 120 47zM714 1556q64 0 106.5 -42t42.5 -105q0 -82 -60 -138q-52 -48 -122 -48q-64 0 -104.5 42.5t-40.5 110.5q0 78 60 133q51 47 118 47z
M427 397q-10 -58 -10 -86q0 -80 72 -80q21 0 67 7l-45 -238q-81 -10 -146 -10q-262 0 -262 213q0 57 25 188l133 680h303z" />
    <glyph glyph-name="upsilondieresis" unicode="&#x3cb;" horiz-adv-x="1201" 
d="M559 1556q67 0 109.5 -41.5t42.5 -105.5q0 -82 -60 -138q-52 -48 -122 -48q-65 0 -107.5 43.5t-42.5 109.5q0 78 60 133q52 47 120 47zM1010 1556q64 0 106.5 -42t42.5 -105q0 -82 -60 -138q-52 -48 -122 -48q-64 0 -104.5 43t-40.5 110q0 78 60 133q51 47 118 47z
M557 1071l-119 -608q-12 -59 -12 -132q0 -129 119 -129q143 0 188 230l125 639h303l-137 -709q-42 -217 -173 -307q-114 -78 -321 -78q-219 0 -317 95q-86 84 -86 247q0 105 25 228l102 524h303z" />
    <glyph glyph-name="omicrontonos" unicode="&#x3cc;" horiz-adv-x="1207" 
d="M652 1098q232 0 361 -151q112 -131 112 -343q0 -293 -182 -472q-158 -155 -391 -155q-230 0 -358 153q-111 133 -111 347q0 290 181 467q157 154 388 154zM648 873q-137 0 -207 -170q-49 -125 -49 -269q0 -232 170 -232q118 0 191 141q63 122 63 300q0 230 -168 230z
M851 1225h-254l109 362h321z" />
    <glyph glyph-name="upsilontonos" unicode="&#x3cd;" horiz-adv-x="1201" 
d="M557 1071l-119 -608q-12 -59 -12 -132q0 -129 119 -129q143 0 188 230l125 639h303l-137 -709q-42 -217 -173 -307q-114 -78 -321 -78q-219 0 -317 95q-86 84 -86 247q0 105 25 228l102 524h303zM852 1225h-254l109 362h321z" />
    <glyph glyph-name="omegatonos" unicode="&#x3ce;" horiz-adv-x="1585" 
d="M604 975q-232 -269 -232 -597q0 -85 35 -134q30 -42 78 -42q57 0 94.5 69t69.5 235l51 260h268l-51 -260q-27 -137 -27 -205q0 -46 25.5 -72.5t69.5 -26.5q97 0 154 127q49 110 49 279q0 171 -72 373l202 104q99 -130 138 -239q41 -114 41 -256q0 -116 -34 -231t-91 -191
q-141 -191 -373 -191q-109 0 -173.5 45t-94.5 144q-59 -99 -131.5 -144t-174.5 -45q-177 0 -276 122q-86 105 -86 276q0 230 87.5 398t297.5 339zM1040 1225h-254l109 362h321z" />
    <glyph glyph-name="phi1" unicode="&#x3d5;" horiz-adv-x="1572" 
d="M815 1466h281l-74 -383q238 -39 363 -184q108 -127 108 -311q0 -270 -207 -434q-181 -144 -475 -167l-69 -360h-281l70 360q-237 46 -355 185q-104 121 -104 299q0 263 190 433q180 161 480 179zM701 870q-155 -13 -244 -136q-76 -107 -76 -259q0 -218 193 -270zM854 202
q137 30 213 103q55 51 86 129.5t31 163.5q0 116 -59 187q-51 62 -142 81z" />
    <glyph glyph-name="uni0400" unicode="&#x400;" horiz-adv-x="1262" 
d="M351 1464h964l-47 -250h-651l-68 -350h488l-47 -238h-488l-71 -376h682l-48 -250h-999zM555 1935h332l55 -356h-209z" />
    <glyph glyph-name="afii10023" unicode="&#x401;" horiz-adv-x="1262" 
d="M351 1464h964l-47 -250h-651l-68 -350h488l-47 -238h-488l-71 -376h682l-48 -250h-999zM662 1903q65 0 106.5 -40.5t41.5 -102.5q0 -81 -59 -136q-51 -47 -119 -47q-62 0 -103 42.5t-41 107.5q0 76 57 129q51 47 117 47zM1100 1903q62 0 103 -41t41 -102q0 -82 -58 -136
q-50 -47 -118 -47q-63 0 -102.5 41.5t-39.5 108.5q0 76 58 129q51 47 116 47z" />
    <glyph glyph-name="afii10051" unicode="&#x402;" horiz-adv-x="1580" 
d="M231 0l235 1202h-313l51 262h1104l-51 -262h-465l-80 -410q178 158 393 158q168 0 252 -92q74 -81 74 -221q0 -120 -43 -351.5t-90 -367.5q-57 -165 -194 -231q-120 -57 -347 -62l25 215q85 6 121.5 38t72.5 130q35 100 73 297t38 274q0 125 -125 125q-151 0 -299 -172
l-104 -532h-328z" />
    <glyph glyph-name="afii10052" unicode="&#x403;" horiz-adv-x="1127" 
d="M344 1464h899l-51 -262h-572l-233 -1202h-328zM786 1935h355l-275 -356h-219z" />
    <glyph glyph-name="afii10053" unicode="&#x404;" horiz-adv-x="1387" 
d="M1158 1046q-38 98 -97 138.5t-163 40.5q-269 0 -391 -367h555l-47 -238h-555q-1 -11 -2 -30q-2 -31 -2 -44q0 -159 87 -238q76 -69 210 -69q116 0 189.5 34.5t129.5 115.5l248 -150q-112 -149 -278 -212q-134 -50 -320 -50q-305 0 -465 174q-139 151 -139 406
q0 187 63 367q55 158 148 278q223 285 580 285q223 0 360 -98q120 -86 166 -242z" />
    <glyph glyph-name="afii10054" unicode="&#x405;" horiz-adv-x="1250" 
d="M965 1052q-48 103 -103 140.5t-155 37.5q-105 0 -160 -46q-47 -41 -47 -110q0 -65 53 -106q36 -25 66.5 -38.5t181.5 -70.5q201 -76 282 -182q72 -93 72 -233q0 -229 -174 -356q-152 -111 -395 -111q-466 0 -592 381l303 105q35 -125 103.5 -178.5t191.5 -53.5
q117 0 180 51q55 45 55 119q0 73 -56 115q-49 37 -193 92q-116 42 -172 72t-105 73q-114 103 -114 276q0 224 161 347q141 108 365 108q277 0 420 -143q60 -58 114 -178z" />
    <glyph glyph-name="afii10055" unicode="&#x406;" horiz-adv-x="671" 
d="M353 1464h327l-284 -1464h-328z" />
    <glyph glyph-name="afii10056" unicode="&#x407;" horiz-adv-x="694" 
d="M362 1464h327l-284 -1464h-328zM372 1903q65 0 106.5 -40.5t41.5 -102.5q0 -81 -59 -136q-51 -47 -119 -47q-62 0 -103 42.5t-41 107.5q0 76 57 129q51 47 117 47zM810 1903q62 0 103 -41t41 -102q0 -82 -58 -136q-50 -47 -118 -47q-63 0 -102.5 41.5t-39.5 108.5
q0 76 58 129q51 47 116 47z" />
    <glyph glyph-name="afii10057" unicode="&#x408;" horiz-adv-x="1245" 
d="M1077 432q-46 -235 -202 -352q-136 -103 -341 -103q-224 0 -343 121q-103 105 -103 281q0 64 12 125l11 43h307l-8 -45q-11 -54 -11 -99q0 -172 154 -172q90 0 138.5 54.5t74.5 185.5l194 993h318z" />
    <glyph glyph-name="afii10058" unicode="&#x409;" horiz-adv-x="2039" 
d="M1023 1206h-374l-52 -273q-69 -323 -152 -545t-196 -388h-352q158 194 252 456q84 232 170 658l70 350h1011l-106 -551h225q203 0 307 -49q156 -73 156 -285q0 -122 -46.5 -241t-123.5 -195q-81 -78 -188 -110.5t-283 -32.5h-553zM1394 250q137 0 201 78q65 72 65 186
q0 149 -186 149h-229l-80 -413h229z" />
    <glyph glyph-name="afii10059" unicode="&#x40a;" horiz-adv-x="2154" 
d="M563 911h475l106 553h324l-106 -551h186q256 0 373 -82q65 -46 101 -128.5t36 -184.5q0 -114 -44.5 -219.5t-119.5 -171.5q-78 -70 -180 -98.5t-277 -28.5h-577l127 651h-475l-125 -651h-328l285 1464h327zM1458 248q134 0 202 65q74 71 74 182q0 92 -46 134t-146 42
h-228l-84 -423h228z" />
    <glyph glyph-name="afii10060" unicode="&#x40b;" horiz-adv-x="1583" 
d="M234 0l235 1202h-313l51 262h1104l-51 -262h-465l-80 -410q179 158 393 158q166 0 247 -92q71 -80 71 -223q0 -81 -23 -205l-84 -430h-327l84 436q20 105 20 141q0 127 -133 127q-151 0 -297 -172l-104 -532h-328z" />
    <glyph glyph-name="afii10061" unicode="&#x40c;" horiz-adv-x="1338" 
d="M344 1464h327l-118 -606h24q63 0 107 50q38 43 129 196q138 237 248 305q97 61 276 61q27 0 117 -6l-47 -242q-37 4 -84 4q-56 0 -85 -9.5t-56 -34.5q-40 -39 -132 -195q-63 -107 -95.5 -144.5t-96.5 -80.5q69 -31 117.5 -101.5t93.5 -203.5l157 -457h-356l-111 354
q-57 181 -93 233t-105 52h-51l-123 -639h-328zM892 1935h355l-275 -356h-219z" />
    <glyph glyph-name="uni040D" unicode="&#x40d;" horiz-adv-x="1443" 
d="M344 1464h319l-168 -864l627 737l24 127h318l-285 -1464h-317l170 874l-629 -737l-27 -137h-317zM647 1935h332l55 -356h-209z" />
    <glyph glyph-name="afii10062" unicode="&#x40e;" horiz-adv-x="1273" 
d="M189 1464h346l199 -729l381 729h313l-592 -1077q-137 -248 -263 -335q-111 -77 -279 -77q-105 0 -195 25l80 258q61 -21 123 -21q77 0 123 28.5t92 105.5l20 32zM1188 1909q-16 -95 -43 -150t-80 -100q-96 -78 -233 -78q-149 0 -229 90q-40 43 -54 93t-14 145h207
q1 -70 26 -101.5t80 -31.5q106 0 133 133h207z" />
    <glyph glyph-name="afii10145" unicode="&#x40f;" horiz-adv-x="1420" 
d="M344 1464h327l-235 -1206h444l234 1206h327l-284 -1464h-402l-98 -356h-236l39 356h-401z" />
    <glyph glyph-name="afii10017" unicode="&#x410;" horiz-adv-x="1420" 
d="M944 0l-31 287h-530l-142 -287h-311l766 1464h387l195 -1464h-334zM888 529l-69 649l-320 -649h389z" />
    <glyph glyph-name="afii10018" unicode="&#x411;" horiz-adv-x="1355" 
d="M344 1464h950l-47 -248h-629l-61 -319h221q250 0 363 -80q135 -93 135 -307q0 -114 -42.5 -217t-117.5 -170q-77 -68 -179 -95.5t-276 -27.5h-602zM682 248q79 0 126 16t82 54q64 66 64 171q0 89 -46 130.5t-144 41.5h-254l-80 -413h252z" />
    <glyph glyph-name="afii10019" unicode="&#x412;" horiz-adv-x="1400" 
d="M344 1464h579q214 0 324 -103q96 -91 96 -245q0 -147 -74 -236q-64 -78 -202 -133q130 -40 186 -120q49 -70 49 -180q0 -228 -169 -345q-147 -102 -400 -102h-674zM794 868q234 0 234 199q0 147 -172 147h-238l-70 -346h246zM737 250q124 0 185 62q54 55 54 151
q0 176 -198 176h-273l-75 -389h307z" />
    <glyph glyph-name="afii10020" unicode="&#x413;" horiz-adv-x="1127" 
d="M344 1464h899l-51 -262h-572l-233 -1202h-328z" />
    <glyph glyph-name="afii10021" unicode="&#x414;" horiz-adv-x="1419" 
d="M136 0l-100 -356h-236l119 614h131q102 143 183 383.5t157 630.5l39 192h1001l-235 -1206h151l-119 -614h-235l39 356h-895zM1060 1206h-379l-23 -121q-124 -573 -274 -835h491z" />
    <glyph glyph-name="afii10022" unicode="&#x415;" horiz-adv-x="1262" 
d="M351 1464h964l-47 -250h-651l-68 -350h488l-47 -238h-488l-71 -376h682l-48 -250h-999z" />
    <glyph glyph-name="afii10024" unicode="&#x416;" horiz-adv-x="1911" 
d="M821 643q-94 -15 -157 -75q-55 -52 -169 -214l-240 -354h-358l324 455q102 140 174 209.5t145 97.5q-47 41 -63.5 85t-44.5 207q-17 103 -47.5 137.5t-104.5 34.5q-53 0 -88 -4l47 242q36 2 74 5q19 1 24 1q124 0 188 -26q67 -28 105 -97t68 -217q32 -181 60 -227.5
t104 -46.5l118 608h312l-119 -608q64 0 97.5 11t62.5 41q44 46 137 226q113 219 206 281q83 55 240 55q25 0 94 -4l23 -2l-47 -242q-41 4 -74 4q-74 0 -113 -47q-35 -42 -106 -192q-57 -123 -89.5 -167t-100.5 -89q80 -40 155 -276l148 -455h-342l-103 354
q-54 176 -96 229.5t-133 59.5l-125 -643h-311z" />
    <glyph glyph-name="afii10025" unicode="&#x417;" horiz-adv-x="1317" 
d="M308 456q11 -65 26 -98.5t46 -59.5q71 -65 211 -65q134 0 211 69q67 60 67 154q0 174 -217 174h-149l47 238h139q141 0 220 61q68 53 68 137q0 78 -58 120t-163 42q-106 0 -179.5 -34.5t-143.5 -116.5l-209 168q185 239 563 239q250 0 390 -117q122 -101 122 -262
q0 -182 -172 -288q-54 -32 -141 -60q79 -33 108 -57q113 -90 113 -250q0 -97 -49 -190t-133 -156q-168 -127 -439 -127q-159 0 -288 45q-112 39 -176 105q-88 90 -111 254z" />
    <glyph glyph-name="afii10026" unicode="&#x418;" horiz-adv-x="1443" 
d="M344 1464h319l-168 -864l627 737l24 127h318l-285 -1464h-317l170 874l-629 -737l-27 -137h-317z" />
    <glyph glyph-name="afii10027" unicode="&#x419;" horiz-adv-x="1443" 
d="M344 1464h319l-168 -864l627 737l24 127h318l-285 -1464h-317l170 874l-629 -737l-27 -137h-317zM1275 1909q-16 -95 -43 -150t-80 -100q-96 -78 -233 -78q-149 0 -229 90q-40 43 -54 93t-14 145h207q1 -70 26 -101.5t80 -31.5q106 0 133 133h207z" />
    <glyph glyph-name="afii10028" unicode="&#x41a;" horiz-adv-x="1338" 
d="M344 1464h327l-118 -606h24q63 0 107 50q38 43 129 196q138 237 248 305q97 61 276 61q27 0 117 -6l-47 -242q-37 4 -84 4q-56 0 -85 -9.5t-56 -34.5q-40 -39 -132 -195q-63 -107 -95.5 -144.5t-96.5 -80.5q69 -31 117.5 -101.5t93.5 -203.5l157 -457h-356l-111 354
q-57 181 -93 233t-105 52h-51l-123 -639h-328z" />
    <glyph glyph-name="afii10029" unicode="&#x41b;" horiz-adv-x="1377" 
d="M1019 1206h-372l-54 -272q-69 -324 -152 -546.5t-194 -387.5h-350q158 194 252 456q84 232 170 658l70 350h1007l-285 -1464h-325z" />
    <glyph glyph-name="afii10030" unicode="&#x41c;" horiz-adv-x="1859" 
d="M344 1464h436l123 -1005l518 1005h457l-285 -1464h-320l209 1077l-559 -1077h-239l-129 1077l-209 -1077h-287z" />
    <glyph glyph-name="afii10031" unicode="&#x41d;" horiz-adv-x="1480" 
d="M344 1464h327l-116 -596h501l117 596h328l-285 -1464h-328l119 606h-504l-116 -606h-328z" />
    <glyph glyph-name="afii10032" unicode="&#x41e;" horiz-adv-x="1569" 
d="M904 1484q294 0 463 -201q147 -174 147 -444q0 -203 -76 -386q-66 -159 -176 -269q-207 -207 -516 -207q-299 0 -466 198q-146 171 -146 443q0 245 101 446q99 195 273 306q178 114 396 114zM889 1226q-202 0 -315 -197q-102 -178 -102 -427q0 -191 87 -285
q75 -82 210 -82q191 0 306 198q101 172 101 426q0 191 -83 285q-73 82 -204 82z" />
    <glyph glyph-name="afii10033" unicode="&#x41f;" horiz-adv-x="1453" 
d="M344 1464h1130l-285 -1464h-325l233 1204h-477l-233 -1204h-328z" />
    <glyph glyph-name="afii10034" unicode="&#x420;" horiz-adv-x="1336" 
d="M344 1464h536q245 0 366 -119q107 -103 107 -287q0 -264 -178 -403q-155 -121 -416 -121h-270l-104 -534h-326zM764 776q142 0 213 75q61 65 61 181q0 182 -201 182h-217l-84 -438h228z" />
    <glyph glyph-name="afii10035" unicode="&#x421;" horiz-adv-x="1434" 
d="M1339 381q-189 -404 -620 -404q-296 0 -452 191q-136 166 -136 444q0 253 96 453q95 197 263 307q172 112 389 112q279 0 428 -170q45 -51 71 -106t51 -154l-299 -98q-31 153 -96 213q-58 53 -162 53q-191 0 -301 -195q-102 -179 -102 -430q0 -356 276 -356q109 0 186 63
t136 200z" />
    <glyph glyph-name="afii10036" unicode="&#x422;" horiz-adv-x="1285" 
d="M614 1206h-393l49 258h1112l-51 -258h-393l-234 -1206h-325z" />
    <glyph glyph-name="afii10037" unicode="&#x423;" horiz-adv-x="1273" 
d="M189 1464h346l199 -729l381 729h313l-592 -1077q-137 -248 -263 -335q-111 -77 -279 -77q-105 0 -195 25l80 258q61 -21 123 -21q77 0 123 28.5t92 105.5l20 32z" />
    <glyph glyph-name="afii10038" unicode="&#x424;" horiz-adv-x="1797" 
d="M680 149q-250 20 -385 115q-172 122 -172 352q0 169 87 321q76 132 202 222q98 69 214 105.5t281 50.5l43 225h291l-43 -225q139 -13 226.5 -39t158.5 -76q172 -122 172 -352q0 -169 -87 -321q-76 -132 -202 -222q-97 -69 -213.5 -105.5t-281.5 -50.5l-43 -225h-291z
M860 1077q-181 -23 -274 -110q-59 -58 -93 -147.5t-34 -186.5q0 -117 74 -177q65 -53 194 -69zM1018 387q182 24 274 111q59 57 93 147t34 188q0 108 -64.5 167t-203.5 77z" />
    <glyph glyph-name="afii10039" unicode="&#x425;" horiz-adv-x="1392" 
d="M544 770l-297 694h369l170 -473l336 473h360l-553 -719l322 -745h-367l-196 534l-396 -534h-362z" />
    <glyph glyph-name="afii10040" unicode="&#x426;" horiz-adv-x="1430" 
d="M344 1464h327l-235 -1206h444l234 1206h327l-235 -1206h153l-120 -614h-236l39 356h-983z" />
    <glyph glyph-name="afii10041" unicode="&#x427;" horiz-adv-x="1355" 
d="M764 0l102 530q-130 -151 -350 -151q-171 0 -259 97q-77 85 -77 231q0 107 35 278l92 479h328l-101 -514q-20 -105 -20 -166q0 -149 156 -149q216 0 266 248l112 581h326l-285 -1464h-325z" />
    <glyph glyph-name="afii10042" unicode="&#x428;" horiz-adv-x="2094" 
d="M344 1464h327l-235 -1206h395l236 1206h325l-233 -1206h395l234 1206h327l-284 -1464h-1772z" />
    <glyph glyph-name="afii10043" unicode="&#x429;" horiz-adv-x="2104" 
d="M344 1464h327l-235 -1206h395l236 1206h325l-233 -1206h395l234 1206h327l-235 -1206h153l-121 -614h-235l39 356h-1657z" />
    <glyph glyph-name="afii10044" unicode="&#x42a;" horiz-adv-x="1514" 
d="M728 950h188q256 0 369 -84q133 -102 133 -322q0 -122 -44.5 -233t-121.5 -182t-179.5 -100t-274.5 -29h-578l235 1206h-319l51 258h641zM818 248q81 0 130.5 19t86.5 65q59 76 59 188q0 188 -184 188h-229l-90 -460h227z" />
    <glyph glyph-name="afii10045" unicode="&#x42b;" horiz-adv-x="1916" 
d="M567 950h186q258 0 371 -84q133 -101 133 -321q0 -123 -44.5 -234t-121.5 -182q-78 -71 -180.5 -100t-273.5 -29h-578l285 1464h323zM1611 1464h326l-285 -1464h-325zM657 248q81 0 130.5 19.5t86.5 64.5q59 76 59 188q0 98 -45 143.5t-141 45.5h-227l-90 -461h227z" />
    <glyph glyph-name="afii10046" unicode="&#x42c;" horiz-adv-x="1351" 
d="M567 950h186q258 0 371 -84q133 -102 133 -322q0 -122 -44.5 -233t-121.5 -182q-78 -71 -180.5 -100t-273.5 -29h-578l285 1464h323zM657 248q81 0 130.5 19t86.5 65q59 75 59 188q0 97 -45 142.5t-141 45.5h-227l-90 -460h227z" />
    <glyph glyph-name="afii10047" unicode="&#x42d;" horiz-adv-x="1356" 
d="M976 858q2 18 2 39q0 328 -293 328q-159 0 -288 -142l-234 154q201 250 557 250q297 0 454 -182q136 -159 136 -426q0 -238 -83 -437q-72 -173 -196 -285q-201 -180 -503 -180q-404 0 -539 289l283 137q74 -164 270 -164q165 0 264 106q85 91 135 275h-567l47 238h555z
" />
    <glyph glyph-name="afii10048" unicode="&#x42e;" horiz-adv-x="2133" 
d="M555 870h223q77 305 288 470q184 144 424 144q285 0 448 -200q142 -173 142 -443q0 -245 -97 -444q-94 -195 -261 -306q-170 -114 -379 -114q-335 0 -496 252q-91 143 -100 379h-244l-116 -608h-328l285 1464h327zM1472 1226q-181 0 -291 -198q-96 -172 -96 -425
q0 -188 79 -284q69 -84 189 -84q191 0 293 195q96 185 96 425q0 371 -270 371z" />
    <glyph glyph-name="afii10049" unicode="&#x42f;" horiz-adv-x="1407" 
d="M1142 0h-326l107 553h-185q-73 0 -114.5 -12.5t-72.5 -44.5q-49 -50 -116 -215q-85 -210 -143 -281h-330v6q38 51 69 113t89 205q69 173 128.5 238t184.5 104q-213 79 -213 333q0 222 166 350q78 63 177 89t259 26h604zM1052 1212h-248q-136 0 -197 -55q-74 -67 -74 -180
q0 -94 53 -143q47 -43 126 -43h258z" />
    <glyph glyph-name="afii10065" unicode="&#x430;" horiz-adv-x="1119" 
d="M616 0q-10 58 -10 96q0 17 2 33q-59 -80 -125.5 -116t-157.5 -36q-143 0 -227 90q-72 79 -72 199q0 288 373 352q113 19 297 25l4 23q4 25 4 55q0 129 -145 129t-293 -90l-107 209q108 70 211 99.5t240 29.5q401 0 401 -324q0 -60 -16 -141l-84 -432q-12 -68 -12 -105
q0 -47 12 -84v-12h-295zM661 465q-128 -5 -195 -21q-133 -33 -133 -147q0 -103 111 -103q76 0 130.5 47.5t67.5 125.5z" />
    <glyph glyph-name="afii10066" unicode="&#x431;" horiz-adv-x="1212" 
d="M1135 1317h-240q-161 0 -238.5 -30t-131.5 -113q-62 -95 -105 -298q98 87 133 109q97 63 225 63q182 0 284 -132q89 -115 89 -298q0 -131 -48 -255.5t-132 -213.5q-160 -172 -399 -172q-233 0 -356 149q-107 129 -107 347q0 206 70 459q59 217 141 354q91 150 229 206
q122 50 332 50h340zM686 839q-126 0 -205 -140q-69 -121 -69 -294q0 -102 50 -156q44 -47 118 -47q126 0 197 148q27 55 45 135.5t18 150.5q0 105 -45 157q-40 46 -109 46z" />
    <glyph glyph-name="afii10067" unicode="&#x432;" horiz-adv-x="1222" 
d="M268 1071h498q193 0 289 -73q83 -64 83 -179q0 -97 -41 -158t-139 -110q76 -42 109.5 -94.5t33.5 -128.5q0 -75 -35.5 -143.5t-95.5 -110.5q-111 -74 -301 -74h-610zM710 637q141 0 141 133q0 49 -26.5 70.5t-87.5 21.5h-207l-45 -225h225zM639 209q77 0 112 33
q45 45 45 113q0 53 -27.5 76.5t-91.5 23.5h-229l-49 -246h240z" />
    <glyph glyph-name="afii10068" unicode="&#x433;" horiz-adv-x="937" 
d="M268 1071h715l-47 -242h-408l-160 -829h-309z" />
    <glyph glyph-name="afii10069" unicode="&#x434;" horiz-adv-x="1213" 
d="M295 1407q113 86 210.5 122t219.5 36q246 0 356 -149q97 -131 97 -386q0 -242 -47 -461q-42 -190 -109 -313q-77 -144 -212 -216q-117 -63 -265 -63q-235 0 -363 148q-112 128 -112 337q0 128 43.5 245t122.5 200q135 141 344 141q230 0 326 -155q12 108 12 172
q0 151 -60 217q-53 58 -159 58q-70 0 -130 -26t-137 -89zM645 839q-122 0 -198 -135q-66 -116 -66 -285q0 -111 49 -168q42 -49 117 -49q140 0 211 164q53 116 53 260q0 109 -49 164q-43 49 -117 49z" />
    <glyph glyph-name="afii10070" unicode="&#x435;" horiz-adv-x="1140" 
d="M543 -23q-233 0 -352 134q-103 117 -103 319q0 309 198 502q171 166 418 166q186 0 290 -97q91 -84 91 -219q0 -255 -358 -321q-121 -24 -338 -29v-20q0 -115 52 -164q46 -44 143 -44q147 0 276 115l137 -190q-171 -152 -454 -152zM412 614q220 0 309 40q79 35 79 108
q0 52 -33 81.5t-92 29.5q-191 0 -263 -259z" />
    <glyph glyph-name="afii10072" unicode="&#x436;" horiz-adv-x="1598" 
d="M635 455h-39q-43 0 -73 -27.5t-85 -116.5l-190 -311h-336l238 330q70 101 116.5 145.5t118.5 79.5q-35 41 -48 71t-24 97q-17 103 -32.5 122t-81.5 19h-58l41 207h82q98 0 145 -14.5t74 -53.5q23 -33 35 -77t31 -164q11 -63 31 -89t57 -26h37l82 424h299l-82 -424h53
q52 0 78.5 29t87.5 153q81 162 149 205q59 37 187 37h100l-41 -207h-33q-61 0 -82 -23q-20 -22 -65 -120q-36 -72 -64.5 -107.5t-80.5 -74.5l-13 -11q38 -29 62 -71t53 -127l117 -330h-320l-86 311q-23 84 -46 114t-64 30h-31l-88 -455h-299z" />
    <glyph glyph-name="afii10073" unicode="&#x437;" horiz-adv-x="1075" 
d="M223 353q28 -87 81 -121t157 -34q89 0 140 48q44 42 44 108q0 101 -139 101h-134l37 186h137q76 0 121.5 36t45.5 95q0 50 -40.5 77.5t-113.5 27.5q-142 0 -258 -111l-168 158q86 92 193.5 133t263.5 41q222 0 333 -85q97 -74 97 -204q0 -91 -45 -150t-144 -98
q68 -43 96.5 -90t28.5 -115q0 -185 -156 -289q-137 -90 -354 -90q-261 0 -383 125q-59 65 -92 179z" />
    <glyph glyph-name="afii10074" unicode="&#x438;" horiz-adv-x="1259" 
d="M268 1071h307l-110 -575l403 468l20 107h310l-209 -1071h-309l114 584l-405 -471l-21 -113h-309z" />
    <glyph glyph-name="afii10075" unicode="&#x439;" horiz-adv-x="1259" 
d="M268 1071h307l-110 -575l403 468l20 107h310l-209 -1071h-309l114 584l-405 -471l-21 -113h-309zM1102 1544q-16 -105 -42 -162t-77 -102q-90 -78 -221 -78q-142 0 -219 90q-39 43 -52.5 95.5t-13.5 156.5h199q1 -79 24 -113t76 -34q55 0 84.5 34.5t42.5 112.5h199z" />
    <glyph glyph-name="afii10076" unicode="&#x43a;" horiz-adv-x="1161" 
d="M268 1071h307l-82 -428h27q40 0 68 28.5t96 137.5q69 113 106.5 160t76.5 69q59 33 216 33h106l-40 -207h-35q-50 0 -68 -3.5t-34 -17.5q-22 -19 -79 -118q-42 -73 -74.5 -109t-88.5 -71q50 -29 80.5 -74t66.5 -141l127 -330h-332l-100 311q-26 77 -52 108.5t-63 31.5
h-43l-86 -451h-309z" />
    <glyph glyph-name="afii10077" unicode="&#x43b;" horiz-adv-x="1204" 
d="M790 833h-252l-30 -156q-43 -213 -106 -371.5t-163 -305.5h-315q124 159 202.5 354t139.5 495l41 222h838l-209 -1071h-307z" />
    <glyph glyph-name="afii10078" unicode="&#x43c;" horiz-adv-x="1582" 
d="M671 1071l84 -694l346 694h424l-209 -1071h-303l144 737l-379 -737h-203l-92 735l-143 -735h-281l209 1071h403z" />
    <glyph glyph-name="afii10079" unicode="&#x43d;" horiz-adv-x="1245" 
d="M268 1071h307l-80 -409h305l80 409h307l-208 -1071h-308l82 424h-303l-84 -424h-307z" />
    <glyph glyph-name="afii10080" unicode="&#x43e;" horiz-adv-x="1204" 
d="M660 1098q227 0 355 -148q112 -128 112 -329q0 -303 -185 -486q-159 -158 -397 -158q-227 0 -357 149q-114 130 -114 331q0 295 188 480q164 161 398 161zM646 871q-125 0 -199 -139q-64 -120 -64 -302q0 -226 174 -226q124 0 196 140q63 122 63 305q0 222 -170 222z" />
    <glyph glyph-name="afii10081" unicode="&#x43f;" horiz-adv-x="1245" 
d="M268 1071h919l-208 -1071h-308l160 829h-303l-160 -829h-309z" />
    <glyph glyph-name="afii10082" unicode="&#x440;" horiz-adv-x="1276" 
d="M264 1071h309l-31 -156q131 183 328 183q165 0 252 -129q75 -113 75 -305q0 -316 -162 -513q-141 -171 -344 -171q-215 0 -290 213l-109 -566h-309zM718 863q-125 0 -203 -137q-67 -119 -67 -291q0 -219 176 -219q125 0 198 130q64 113 64 286q0 231 -168 231z" />
    <glyph glyph-name="afii10083" unicode="&#x441;" horiz-adv-x="1109" 
d="M1005 258q-87 -155 -208 -222q-106 -59 -251 -59q-232 0 -355 143q-108 123 -108 328q0 308 181 491q157 159 394 159q308 0 416 -263l-252 -116q-34 81 -71 111t-103 30q-127 0 -199 -130q-63 -112 -63 -288q0 -238 176 -238q71 0 120 39t97 132z" />
    <glyph glyph-name="afii10084" unicode="&#x442;" horiz-adv-x="929" 
d="M369 829h-279l47 242h864l-47 -242h-278l-162 -829h-307z" />
    <glyph glyph-name="afii10085" unicode="&#x443;" horiz-adv-x="1125" 
d="M550 -107q-88 -160 -192 -225q-92 -57 -220 -57q-138 0 -233 71l115 209q53 -40 118 -40q56 0 92.5 29.5t71.5 102.5l21 43l-187 1045h316l96 -678l344 678h307z" />
    <glyph glyph-name="afii10086" unicode="&#x444;" horiz-adv-x="1706" 
d="M634 133q-97 -156 -249 -156q-160 0 -248 129q-76 112 -76 291q0 129 35 261.5t96 232.5q65 106 160 160q82 47 174 47q93 0 161.5 -46t100.5 -131l121 621h280l-116 -596q102 152 250 152q157 0 245 -130q76 -113 76 -294q0 -129 -37 -266t-96 -228q-130 -203 -332 -203
q-197 0 -260 183l-102 -533h-281zM604 869q-88 0 -146 -113q-39 -76 -62.5 -178.5t-23.5 -194.5q0 -85 35 -131t98 -46q85 0 142 94q40 70 66 178t26 204q0 94 -41 144q-35 43 -94 43zM1206 869q-95 0 -160 -127q-36 -72 -58 -171.5t-22 -187.5q0 -86 44 -135
q38 -42 100 -42q84 0 133 90q38 67 64 178t26 206q0 96 -38 146q-33 43 -89 43z" />
    <glyph glyph-name="afii10087" unicode="&#x445;" horiz-adv-x="1139" 
d="M387 563l-230 508h342l119 -313l230 313h333l-428 -516l252 -555h-342l-139 354l-266 -354h-330z" />
    <glyph glyph-name="afii10088" unicode="&#x446;" horiz-adv-x="1239" 
d="M268 1071h307l-160 -829h287l160 829h309l-162 -829h127l-108 -559h-228l41 317h-782z" />
    <glyph glyph-name="afii10089" unicode="&#x447;" horiz-adv-x="1175" 
d="M511 1071l-65 -340q-13 -55 -13 -110q0 -56 31 -86.5t86 -30.5q68 0 118 53t66 143l72 371h309l-209 -1071h-307l82 426q-114 -162 -295 -162q-134 0 -206 89q-62 77 -62 206q0 82 20 178l64 334h309z" />
    <glyph glyph-name="afii10090" unicode="&#x448;" horiz-adv-x="1765" 
d="M268 1071h307l-162 -829h269l159 829h291l-160 -829h267l161 829h308l-209 -1071h-1440z" />
    <glyph glyph-name="afii10091" unicode="&#x449;" horiz-adv-x="1776" 
d="M268 1071h307l-162 -829h269l159 829h291l-160 -829h267l161 829h308l-162 -831h127l-109 -557h-223l39 317h-1321z" />
    <glyph glyph-name="afii10092" unicode="&#x44a;" horiz-adv-x="1216" 
d="M294 856h-231l41 215h530l-65 -342h151q120 0 191.5 -17.5t118.5 -58.5q94 -78 94 -233q0 -94 -33.5 -182.5t-89.5 -141.5q-55 -52 -131 -74t-201 -22h-543zM622 215q65 0 100 14t60 49q35 54 35 119q0 72 -34 99.5t-124 27.5h-131l-59 -309h153z" />
    <glyph glyph-name="afii10093" unicode="&#x44b;" horiz-adv-x="1685" 
d="M499 729h152q121 0 192.5 -17.5t118.5 -58.5q94 -78 94 -231q0 -95 -33.5 -184t-89.5 -142q-55 -52 -131.5 -74t-201.5 -22h-541l209 1071h299zM1319 1071h309l-209 -1071h-307zM553 215q66 0 101 14t60 49q35 54 35 119q0 72 -34.5 99.5t-125.5 27.5h-129l-59 -309h152z
" />
    <glyph glyph-name="afii10094" unicode="&#x44c;" horiz-adv-x="1146" 
d="M499 729h152q121 0 192.5 -17.5t118.5 -58.5q94 -78 94 -231q0 -95 -33.5 -184t-89.5 -142q-55 -52 -131.5 -74t-201.5 -22h-541l209 1071h299zM553 215q66 0 101 14t60 49q35 54 35 119q0 72 -34.5 99.5t-125.5 27.5h-129l-59 -309h152z" />
    <glyph glyph-name="afii10095" unicode="&#x44d;" horiz-adv-x="1101" 
d="M322 637h394q0 236 -187 236q-75 0 -132 -24.5t-124 -86.5l-151 180q164 156 434 156q217 0 332 -109q137 -127 137 -354q0 -128 -40.5 -248.5t-113.5 -208.5q-167 -201 -467 -201q-324 0 -436 218l221 141q45 -70 99.5 -101t132.5 -31q195 0 264 251h-398z" />
    <glyph glyph-name="afii10096" unicode="&#x44e;" horiz-adv-x="1677" 
d="M472 647h152q64 227 218 347q135 104 314 104q215 0 336 -149q106 -129 106 -333q0 -298 -176 -480q-152 -159 -375 -159q-276 0 -389 232q-56 112 -59 213h-172l-82 -422h-303l209 1071h303zM1135 869q-108 0 -176 -141q-59 -121 -59 -296q0 -230 152 -230
q110 0 169 117q68 135 68 318q0 232 -154 232z" />
    <glyph glyph-name="afii10097" unicode="&#x44f;" horiz-adv-x="1203" 
d="M637 0l76 397h-151q-68 0 -101 -34t-82 -152q-61 -150 -114 -211h-330l2 14q38 45 64.5 92.5t72.5 157.5q44 99 85 145t114 80q-131 76 -131 221q0 185 131 281q60 45 136.5 62.5t209.5 17.5h526l-209 -1071h-299zM805 862h-184q-91 0 -131 -37q-49 -49 -49 -127
q0 -64 31.5 -89.5t111.5 -25.5h166z" />
    <glyph glyph-name="uni0450" unicode="&#x450;" horiz-adv-x="1140" 
d="M543 -23q-233 0 -352 134q-103 117 -103 319q0 309 198 502q171 166 418 166q186 0 290 -97q91 -84 91 -219q0 -255 -358 -321q-121 -24 -338 -29v-20q0 -115 52 -164q46 -44 143 -44q147 0 276 115l137 -190q-171 -152 -454 -152zM412 614q220 0 309 40q79 35 79 108
q0 52 -33 81.5t-92 29.5q-191 0 -263 -259zM438 1563h332l59 -360h-209z" />
    <glyph glyph-name="afii10071" unicode="&#x451;" horiz-adv-x="1137" 
d="M543 -23q-233 0 -352 134q-103 117 -103 319q0 309 198 502q171 166 418 166q186 0 290 -97q91 -84 91 -219q0 -255 -358 -321q-121 -24 -338 -29v-20q0 -115 52 -164q46 -44 143 -44q147 0 276 115l137 -190q-171 -152 -454 -152zM412 614q220 0 309 40q79 35 79 108
q0 52 -33 81.5t-92 29.5q-191 0 -263 -259zM526 1556q67 0 109.5 -41.5t42.5 -105.5q0 -82 -60 -138q-52 -48 -122 -48q-65 0 -107.5 43.5t-42.5 109.5q0 78 60 133q52 47 120 47zM977 1556q64 0 106.5 -42t42.5 -105q0 -82 -60 -138q-52 -48 -122 -48q-64 0 -104.5 42.5
t-40.5 110.5q0 78 60 133q51 47 118 47z" />
    <glyph glyph-name="afii10099" unicode="&#x452;" horiz-adv-x="1217" 
d="M615 1386h206l-34 -184h-209l-58 -305q69 104 149 152.5t185 48.5q134 0 206 -87q62 -76 62 -202q0 -54 -18 -143l-84 -441q-52 -262 -95.5 -359.5t-135.5 -160.5q-123 -79 -359 -82l27 195q68 4 104 23.5t60 64.5q38 70 88 315l84 428q7 49 7 70q0 125 -119 125
q-170 0 -222 -266l-115 -578h-309l233 1202h-127l37 184h125l31 156h309z" />
    <glyph glyph-name="afii10100" unicode="&#x453;" horiz-adv-x="939" 
d="M268 1071h715l-47 -242h-408l-160 -829h-309zM651 1567h355l-275 -360h-219z" />
    <glyph glyph-name="afii10101" unicode="&#x454;" horiz-adv-x="1092" 
d="M809 639l-34 -186h-387q-3 -29 -3 -53q0 -193 197 -193q75 0 131 23.5t113 79.5l168 -152q-171 -181 -445 -181q-248 0 -373 133q-110 117 -110 320q0 138 46 264t130 220q166 184 428 184q299 0 424 -219l-199 -127q-72 117 -196 117q-217 0 -275 -230h385z" />
    <glyph glyph-name="afii10102" unicode="&#x455;" horiz-adv-x="1036" 
d="M821 754q-114 127 -266 127q-121 0 -121 -92q0 -43 30 -66t138 -61q178 -64 248 -147q61 -72 61 -181q0 -178 -134 -274q-117 -83 -311 -83q-318 0 -479 195l166 184q121 -158 305 -158q150 0 150 98q0 46 -45 76q-29 17 -143 58q-275 99 -275 319q0 175 129 268
q113 81 299 81q133 0 231.5 -39.5t188.5 -128.5z" />
    <glyph glyph-name="afii10103" unicode="&#x456;" horiz-adv-x="606" 
d="M482 1556q67 0 110.5 -41.5t43.5 -105.5q0 -82 -61 -138q-53 -48 -121 -48q-66 0 -108 43t-42 110q0 77 60 133q53 47 118 47zM259 1071h303l-209 -1071h-303z" />
    <glyph glyph-name="afii10104" unicode="&#x457;" horiz-adv-x="621" 
d="M259 1071h303l-209 -1071h-303zM259 1556q67 0 109.5 -41.5t42.5 -105.5q0 -82 -60 -138q-52 -48 -122 -48q-65 0 -107.5 43.5t-42.5 109.5q0 78 60 133q52 47 120 47zM710 1556q64 0 106.5 -42t42.5 -105q0 -82 -60 -138q-52 -48 -122 -48q-64 0 -104.5 42.5
t-40.5 110.5q0 78 60 133q51 47 118 47z" />
    <glyph glyph-name="afii10105" unicode="&#x458;" horiz-adv-x="618" 
d="M495 1556q67 0 110.5 -41.5t43.5 -105.5q0 -82 -61 -138q-53 -48 -121 -48q-66 0 -108 43t-42 110q0 77 61 133q52 47 117 47zM356 -72q-61 -319 -364 -319q-126 0 -203 55l86 217q42 -22 80 -22q83 0 106 108l215 1104h304z" />
    <glyph glyph-name="afii10106" unicode="&#x459;" horiz-adv-x="1693" 
d="M788 829h-250l-30 -151q-44 -215 -106.5 -374t-162.5 -304h-315q124 159 203 355.5t139 496.5l41 219h827l-69 -358h182q160 0 239 -33q121 -51 121 -215q0 -104 -36.5 -201.5t-96.5 -154.5q-114 -109 -352 -109h-493zM1130 215q57 0 85.5 13t51.5 48q37 57 37 134
q0 55 -25.5 76.5t-90.5 21.5h-162l-58 -293h162z" />
    <glyph glyph-name="afii10107" unicode="&#x45a;" horiz-adv-x="1726" 
d="M862 1071h299l-70 -358h137q221 0 310 -72q96 -77 96 -227q0 -91 -34 -178.5t-89 -139.5t-131 -74t-201 -22h-526l88 459h-285l-90 -459h-307l209 1071h307l-78 -397h287zM1132 215q61 0 89 8.5t53 34.5q53 53 53 133q0 66 -35 91.5t-125 25.5h-117l-57 -293h139z" />
    <glyph glyph-name="afii10108" unicode="&#x45b;" horiz-adv-x="1214" 
d="M334 1542h309l-28 -156h206l-34 -184h-209l-58 -305q69 104 149 152.5t185 48.5q134 0 206 -87q62 -77 62 -204q0 -49 -16 -141l-129 -666h-309l125 649q7 38 7 72q0 123 -119 123q-171 0 -222 -266l-115 -578h-309l233 1202h-127l37 184h125z" />
    <glyph glyph-name="afii10109" unicode="&#x45c;" horiz-adv-x="1161" 
d="M268 1071h307l-82 -428h27q40 0 68 28.5t96 137.5q69 113 106.5 160t76.5 69q59 33 216 33h106l-40 -207h-35q-50 0 -68 -3.5t-34 -17.5q-22 -19 -79 -118q-42 -73 -74.5 -109t-88.5 -71q50 -29 80.5 -74t66.5 -141l127 -330h-332l-100 311q-26 77 -52 108.5t-63 31.5
h-43l-86 -451h-309zM761 1567h355l-275 -360h-219z" />
    <glyph glyph-name="uni045D" unicode="&#x45d;" horiz-adv-x="1259" 
d="M268 1071h307l-110 -575l403 468l20 107h310l-209 -1071h-309l114 584l-405 -471l-21 -113h-309zM497 1563h332l59 -360h-209z" />
    <glyph glyph-name="afii10110" unicode="&#x45e;" horiz-adv-x="1125" 
d="M550 -107q-88 -160 -192 -225q-92 -57 -220 -57q-138 0 -233 71l115 209q53 -40 118 -40q56 0 92.5 29.5t71.5 102.5l21 43l-187 1045h316l96 -678l344 678h307zM1036 1544q-16 -105 -42 -162t-77 -102q-90 -78 -221 -78q-142 0 -219 90q-39 43 -52.5 95.5t-13.5 156.5
h199q1 -79 24 -113t76 -34q55 0 84.5 34.5t42.5 112.5h199z" />
    <glyph glyph-name="afii10193" unicode="&#x45f;" horiz-adv-x="1232" 
d="M268 1071h309l-162 -829h287l162 829h309l-207 -1071h-327l-84 -317h-209l39 317h-326z" />
    <glyph glyph-name="afii10050" unicode="&#x490;" horiz-adv-x="1130" 
d="M344 1464h647l80 260h221l-100 -522h-572l-233 -1202h-328z" />
    <glyph glyph-name="afii10098" unicode="&#x491;" horiz-adv-x="940" 
d="M268 1071h479l66 221h213l-90 -463h-408l-160 -829h-309z" />
    <glyph glyph-name="uni0492" unicode="&#x492;" horiz-adv-x="1137" 
d="M1192 1212h-573l-74 -383h321l-24 -221h-340l-119 -608h-321l118 608h-186l31 221h198l123 635h897z" />
    <glyph glyph-name="uni0493" unicode="&#x493;" horiz-adv-x="935" 
d="M59 0l80 418h-113l39 199h113l88 454h716l-47 -242h-407l-41 -212h293l-39 -199h-293l-82 -418h-307z" />
    <glyph glyph-name="uni0496" unicode="&#x496;" horiz-adv-x="1911" 
d="M1464 0l-103 354q-54 176 -96 229.5t-133 59.5l-125 -643h-311l125 643q-94 -15 -157 -75q-55 -52 -169 -214l-240 -354h-358l324 455q102 140 174 209.5t145 97.5q-41 35 -59.5 77.5t-36.5 147.5q-28 163 -54 201t-110 38q-53 0 -88 -4l47 242q36 2 74 5q19 1 24 1
q124 0 188 -26q67 -28 105 -97t68 -217q32 -181 60 -227.5t104 -46.5l118 608h312l-119 -608q64 0 97 10.5t62 41.5q43 45 138 226q113 219 206 281q83 55 240 55q25 0 94 -4l23 -2l-47 -242q-41 4 -74 4q-74 0 -113 -47q-35 -42 -106 -192q-58 -124 -90.5 -168t-99.5 -88
q80 -40 155 -276l64 -195h170l-119 -614h-236l39 354h-112z" />
    <glyph glyph-name="uni0497" unicode="&#x497;" horiz-adv-x="1598" 
d="M1161 0l-86 312q-23 83 -46 113t-64 30h-31l-88 -455h-299l88 455h-39q-41 0 -72 -28.5t-86 -114.5l-190 -312h-336l238 330q70 101 116.5 145.5t118.5 79.5q-35 42 -48 71.5t-24 96.5q-17 103 -32.5 122t-81.5 19h-58l41 207h82q98 0 145 -14.5t74 -53.5q23 -33 35 -77
t31 -164q11 -62 31 -88.5t57 -26.5h37l82 424h299l-82 -424h53q52 0 78.5 29.5t87.5 152.5q81 162 149 205q59 37 187 37h100l-41 -207h-33q-61 0 -82 -23q-20 -22 -65 -120q-36 -72 -64.5 -107.5t-80.5 -74.5l-13 -10q37 -29 61 -71.5t54 -127.5l31 -86h168l-109 -559h-225
l39 315h-107z" />
    <glyph glyph-name="uni049A" unicode="&#x49a;" horiz-adv-x="1338" 
d="M1355 258l-120 -614h-236l39 356h-168l-111 354q-54 171 -86 221q-40 64 -112 64h-51l-123 -639h-328l285 1464h327l-118 -606h24q63 0 107 50q38 43 129 196q138 237 248 305q97 61 276 61q27 0 117 -6l-47 -242q-37 4 -84 4q-56 0 -85 -9.5t-56 -34.5
q-40 -39 -132 -195q-63 -107 -95.5 -144.5t-96.5 -80.5q69 -31 117.5 -102t93.5 -205l69 -197h217z" />
    <glyph glyph-name="uni049B" unicode="&#x49b;" horiz-adv-x="1161" 
d="M1155 244l-109 -561h-225l39 317h-148l-100 312q-45 139 -115 139h-43l-86 -451h-309l209 1071h307l-82 -428h27q40 0 68 28.5t96 137.5q69 113 106.5 160t76.5 69q59 33 216 33h106l-40 -207h-35q-50 0 -68 -3.5t-34 -17.5q-22 -19 -79 -118q-42 -73 -74.5 -109
t-88.5 -71q50 -29 80.5 -73.5t66.5 -139.5l35 -88h203z" />
    <glyph glyph-name="uni049C" unicode="&#x49c;" horiz-adv-x="1447" 
d="M1486 1470q27 0 117 -6l-47 -241q-37 4 -84 4q-55 0 -84.5 -9t-55.5 -36q-40 -39 -132 -195q-64 -107 -96 -144.5t-97 -80.5q68 -30 116 -99.5t95 -205.5l158 -457h-356l-78 354q-42 179 -66 230.5t-67 54.5l-95 -479h-172l97 479h-129l-123 -639h-328l285 1464h327
l-118 -606h129l69 359h172l-69 -349q23 16 48 63.5t77 172.5q124 236 233 305q95 61 274 61z" />
    <glyph glyph-name="uni049D" unicode="&#x49d;" horiz-adv-x="1247" 
d="M1228 1071h107l-41 -207h-35q-50 0 -68 -3.5t-33 -17.5q-22 -19 -79 -118q-42 -73 -75 -109t-89 -72q49 -28 79 -71.5t69 -143.5l126 -329h-331l-68 311q-31 139 -78 139h-10l-63 -315h-134l64 315h-115l-86 -450h-309l209 1071h307l-82 -428h115l59 303h133l-57 -297
l-2 -6q58 11 117 158q45 111 78.5 163.5t74.5 75.5q32 18 76 24.5t141 6.5z" />
    <glyph glyph-name="uni04A2" unicode="&#x4a2;" horiz-adv-x="1475" 
d="M895 0l121 606h-510l-118 -606h-322l285 1464h321l-117 -598h508l117 598h322l-234 -1204h191l-117 -614h-236l39 354h-250z" />
    <glyph glyph-name="uni04A3" unicode="&#x4a3;" horiz-adv-x="1204" 
d="M1187 244l-109 -561h-225l39 317h-238l84 426h-311l-82 -426h-303l209 1071h303l-80 -420h309l80 420h303l-161 -827h182z" />
    <glyph glyph-name="uni04AE" unicode="&#x4ae;" horiz-adv-x="1350" 
d="M541 612l-309 852h336l192 -575l394 575h331l-628 -868l-115 -596h-320z" />
    <glyph glyph-name="uni04AF" unicode="&#x4af;" horiz-adv-x="1127" 
d="M515 -399h-287l96 430l-186 1040h315l97 -678l344 678h307l-598 -1085z" />
    <glyph glyph-name="uni04B0" unicode="&#x4b0;" horiz-adv-x="1350" 
d="M422 0l48 248h-238l31 215h248l30 149l-309 852h336l192 -575l394 575h331l-628 -868l-27 -133h272l-24 -215h-289l-47 -248h-320z" />
    <glyph glyph-name="uni04B1" unicode="&#x4b1;" horiz-adv-x="1124" 
d="M1199 1071l-592 -1071h203l-21 -195h-229l-47 -204h-289l45 204h-170l29 195h186l6 31l-184 1040h315l97 -678l344 678h307z" />
    <glyph glyph-name="uni04B2" unicode="&#x4b2;" 
d="M914 0l-200 536l-400 -536h-356l614 770l-295 694h361l174 -477l338 477h354l-555 -719l209 -485h219l-119 -614h-237l39 354h-146z" />
    <glyph glyph-name="uni04B3" unicode="&#x4b3;" horiz-adv-x="1161" 
d="M1112 240l-108 -559h-226l39 319h-135l-141 357l-268 -357h-326l459 563l-230 508h336l121 -317l234 317h327l-428 -516l144 -315h202z" />
    <glyph glyph-name="uni04B6" unicode="&#x4b6;" horiz-adv-x="1387" 
d="M1263 -358h-235l39 358h-297l102 528q-128 -149 -350 -149q-172 0 -260 97q-76 84 -76 230q0 107 35 281l92 477h322l-101 -514q-22 -117 -22 -162q0 -149 160 -149q222 0 270 245l112 580h322l-234 -1204h238z" />
    <glyph glyph-name="uni04B7" unicode="&#x4b7;" horiz-adv-x="1151" 
d="M601 0l82 426q-115 -162 -295 -162q-131 0 -204 88q-64 77 -64 199q0 90 20 186l66 334h303l-67 -342q-13 -65 -13 -109q0 -119 119 -119q69 0 120.5 53.5t67.5 144.5l74 372h303l-157 -827h204l-110 -561h-225l38 317h-262z" />
    <glyph glyph-name="uni04B8" unicode="&#x4b8;" horiz-adv-x="1396" 
d="M1089 1464h326l-285 -1464h-325l102 530q-71 -81 -158 -114l-47 -234h-172l39 199q-16 -2 -53 -2q-171 0 -259 97q-77 85 -77 231q0 107 35 278l92 479h328l-101 -514q-20 -105 -20 -165q0 -124 108 -146l66 334h172l-64 -320q144 47 179 230z" />
    <glyph glyph-name="uni04B9" unicode="&#x4b9;" horiz-adv-x="1236" 
d="M868 1071h309l-209 -1071h-307l82 426q-42 -59 -117 -98l-47 -246h-133l37 192q-55 -10 -97 -10q-134 0 -206 89q-62 77 -62 206q0 82 20 178l64 334h309l-65 -340q-13 -55 -13 -131q0 -86 95 -96l51 270h133l-49 -252q107 44 133 178z" />
    <glyph glyph-name="uni04BA" unicode="&#x4ba;" horiz-adv-x="1355" 
d="M792 1464l-102 -528q128 149 350 149q172 0 260 -97q76 -84 76 -231q0 -114 -33 -280l-94 -477h-322l101 514l4 20q18 97 18 142q0 149 -160 149q-223 0 -270 -245l-112 -580h-322l285 1464h321z" />
    <glyph glyph-name="uni04BB" unicode="&#x4bb;" horiz-adv-x="1217" 
d="M341 1542h303l-123 -637q67 101 147 147t187 46q134 0 205 -88q61 -77 61 -207q0 -54 -18 -160l-123 -643h-305l121 631q12 63 12 92q0 125 -119 125q-86 0 -144 -63t-81 -181l-119 -604h-303z" />
    <glyph glyph-name="uni04C0" unicode="&#x4c0;" horiz-adv-x="671" 
d="M353 1464h327l-284 -1464h-328z" />
    <glyph glyph-name="uni04CF" unicode="&#x4cf;" horiz-adv-x="671" 
d="M353 1464h327l-284 -1464h-328z" />
    <glyph glyph-name="uni04D8" unicode="&#x4d8;" horiz-adv-x="1587" 
d="M259 1157q92 159 283 250q167 80 356 80q314 0 487 -198q150 -173 150 -454q0 -243 -101 -442q-99 -193 -273 -303q-179 -113 -398 -113q-301 0 -476 194q-151 168 -151 428q0 106 23 267h1044q-6 369 -322 369q-221 0 -337 -222zM468 622v-18q0 -192 90 -290
q80 -85 217 -85q156 0 264 117q94 101 137 276h-708z" />
    <glyph glyph-name="afii10846" unicode="&#x4d9;" horiz-adv-x="1140" 
d="M469 -23q-186 0 -290 97q-91 84 -91 219q0 255 358 321q122 24 338 29v21q0 207 -174 207q-131 0 -293 -126l-127 197q203 156 455 156q222 0 338 -134q102 -118 102 -319q0 -309 -198 -502q-171 -166 -418 -166zM498 202q191 0 264 259q-220 0 -310 -40
q-79 -35 -79 -108q0 -52 33 -81.5t92 -29.5z" />
    <glyph glyph-name="uni04E2" unicode="&#x4e2;" horiz-adv-x="1443" 
d="M344 1464h319l-168 -864l627 737l24 127h318l-285 -1464h-317l170 874l-629 -737l-27 -137h-317zM716 1833h516l-39 -207h-518z" />
    <glyph glyph-name="uni04E3" unicode="&#x4e3;" horiz-adv-x="1259" 
d="M268 1071h307l-110 -575l403 468l20 107h310l-209 -1071h-309l114 584l-405 -471l-21 -113h-309zM559 1497h516l-39 -207h-518z" />
    <glyph glyph-name="uni04E8" unicode="&#x4e8;" horiz-adv-x="1587" 
d="M908 1487q306 0 478 -200q149 -174 149 -452q0 -243 -101 -442q-99 -193 -273 -303q-179 -113 -398 -113q-311 0 -480 197q-147 171 -147 450q0 185 59 353q52 145 140 252q218 258 573 258zM1203 866q-6 369 -301 369q-152 0 -258 -107q-93 -94 -141 -262h700zM468 622
v-18q0 -192 90 -290q80 -85 217 -85q156 0 264 117q94 101 137 276h-708z" />
    <glyph glyph-name="uni04E9" unicode="&#x4e9;" horiz-adv-x="1207" 
d="M652 1098q232 0 361 -151q112 -131 112 -343q0 -293 -182 -472q-158 -155 -391 -155q-230 0 -358 153q-111 133 -111 347q0 290 181 467q157 154 388 154zM816 631q0 242 -168 242q-164 0 -229 -242h397zM392 418q9 -216 170 -216q153 0 221 216h-391z" />
    <glyph glyph-name="uni04EE" unicode="&#x4ee;" horiz-adv-x="1273" 
d="M189 1464h346l199 -729l381 729h313l-592 -1077q-137 -248 -263 -335q-111 -77 -279 -77q-105 0 -195 25l80 258q61 -21 123 -21q77 0 123 28.5t92 105.5l20 32zM629 1833h516l-39 -207h-518z" />
    <glyph glyph-name="uni04EF" unicode="&#x4ef;" horiz-adv-x="1125" 
d="M550 -107q-88 -160 -192 -225q-92 -57 -220 -57q-138 0 -233 71l115 209q53 -40 118 -40q56 0 92.5 29.5t71.5 102.5l21 43l-187 1045h316l96 -678l344 678h307zM493 1497h516l-39 -207h-518z" />
    <glyph glyph-name="uni1E1E" unicode="&#x1e1e;" horiz-adv-x="1211" 
d="M351 1464h948l-47 -250h-631l-78 -403h477l-47 -244h-479l-109 -567h-319zM852 1907q64 0 105.5 -40.5t41.5 -103.5q0 -79 -58 -132q-51 -46 -118 -46q-62 0 -102.5 42t-40.5 106q0 75 58 128q50 46 114 46z" />
    <glyph glyph-name="Wgrave" unicode="&#x1e80;" horiz-adv-x="2051" 
d="M250 1464h324l34 -1034l467 1034h265l75 -1044l443 1044h313l-645 -1464h-328l-74 997l-460 -997h-332zM955 1935h332l55 -356h-209z" />
    <glyph glyph-name="wgrave" unicode="&#x1e81;" horiz-adv-x="1655" 
d="M160 1071h307l31 -700l305 700h262l41 -700l303 700h301l-516 -1071h-299l-49 668l-289 -668h-303zM699 1563h332l59 -360h-209z" />
    <glyph glyph-name="Wacute" unicode="&#x1e82;" horiz-adv-x="2051" 
d="M250 1464h324l34 -1034l467 1034h265l75 -1044l443 1044h313l-645 -1464h-328l-74 997l-460 -997h-332zM1255 1935h355l-275 -356h-219z" />
    <glyph glyph-name="wacute" unicode="&#x1e83;" horiz-adv-x="1655" 
d="M160 1071h307l31 -700l305 700h262l41 -700l303 700h301l-516 -1071h-299l-49 668l-289 -668h-303zM991 1567h355l-275 -360h-219z" />
    <glyph glyph-name="Wdieresis" unicode="&#x1e84;" horiz-adv-x="2051" 
d="M250 1464h324l34 -1034l467 1034h265l75 -1044l443 1044h313l-645 -1464h-328l-74 997l-460 -997h-332zM1061 1903q65 0 106.5 -40.5t41.5 -102.5q0 -81 -59 -136q-51 -47 -119 -47q-62 0 -103 42.5t-41 107.5q0 76 57 129q51 47 117 47zM1499 1903q62 0 103 -41t41 -102
q0 -82 -58 -136q-50 -47 -118 -47q-63 0 -102.5 41.5t-39.5 108.5q0 76 58 129q51 47 116 47z" />
    <glyph glyph-name="wdieresis" unicode="&#x1e85;" horiz-adv-x="1655" 
d="M786 1556q67 0 109.5 -41.5t42.5 -105.5q0 -82 -60 -138q-52 -48 -122 -48q-65 0 -107.5 43.5t-42.5 109.5q0 78 60 133q52 47 120 47zM1237 1556q65 0 107.5 -42t42.5 -105q0 -82 -60 -138q-52 -48 -122 -48q-65 0 -105.5 43t-40.5 110q0 78 60 133q51 47 118 47z
M160 1071h307l31 -700l305 700h262l41 -700l303 700h301l-516 -1071h-299l-49 668l-289 -668h-303z" />
    <glyph glyph-name="uni1EA0" unicode="&#x1ea0;" 
d="M385 279l-142 -279h-317l791 1464h368l213 -1464h-328l-32 279h-553zM831 1161l-330 -649h408zM571 -113q66 0 109 -42t43 -105q0 -81 -60 -135q-52 -47 -120 -47q-64 0 -106 43t-42 108q0 77 59 131q52 47 117 47z" />
    <glyph glyph-name="uni1EA1" unicode="&#x1ea1;" horiz-adv-x="1119" 
d="M616 0q-10 58 -10 96q0 17 2 33q-59 -80 -125.5 -116t-157.5 -36q-143 0 -227 90q-72 79 -72 199q0 288 373 352q113 19 297 25l4 23q4 25 4 55q0 129 -145 129t-293 -90l-107 209q108 70 211 99.5t240 29.5q401 0 401 -324q0 -60 -16 -141l-84 -432q-12 -68 -12 -105
q0 -47 12 -84v-12h-295zM661 465q-128 -5 -195 -21q-133 -33 -133 -147q0 -103 111 -103q76 0 130.5 47.5t67.5 125.5zM411 -113q66 0 109 -42t43 -105q0 -81 -60 -135q-52 -47 -120 -47q-64 0 -106 43t-42 108q0 77 59 131q51 47 117 47z" />
    <glyph glyph-name="uni1EA2" unicode="&#x1ea2;" 
d="M848 1552l30 158q5 0 13 2q9 2 12 2l16 2q50 6 66 18.5t16 45.5q0 16 -22 16q-40 0 -67.5 -10t-96.5 -50l-25 -14l-49 111q96 56 150.5 76t109.5 20q70 0 114 -39.5t44 -101.5q0 -69 -41 -115t-117 -62l-12 -59h-141zM385 279l-142 -279h-317l791 1464h368l213 -1464
h-328l-32 279h-553zM831 1161l-330 -649h408z" />
    <glyph glyph-name="uni1EA3" unicode="&#x1ea3;" horiz-adv-x="1119" 
d="M616 1178l31 158q4 0 12 2q10 2 12 2l17 2q49 6 65 18.5t16 45.5q0 16 -23 16q-39 0 -66.5 -10t-96.5 -50l-25 -14l-49 111q97 56 151.5 76t108.5 20q70 0 114 -39.5t44 -101.5q0 -144 -158 -177l-12 -59h-141zM616 0q-10 58 -10 96q0 17 2 33q-59 -80 -125.5 -116
t-157.5 -36q-143 0 -227 90q-72 79 -72 199q0 288 373 352q113 19 297 25l4 23q4 25 4 55q0 129 -145 129t-293 -90l-107 209q108 70 211 99.5t240 29.5q401 0 401 -324q0 -60 -16 -141l-84 -432q-12 -68 -12 -105q0 -47 12 -84v-12h-295zM661 465q-128 -5 -195 -21
q-133 -33 -133 -147q0 -103 111 -103q76 0 130.5 47.5t67.5 125.5z" />
    <glyph glyph-name="uni1EA4" unicode="&#x1ea4;" horiz-adv-x="1441" 
d="M1265 1987h359l-291 -356h-127l41 -91h-217l-103 140l-153 -140h-211l291 348h237l68 -149zM385 279l-142 -279h-317l791 1464h368l213 -1464h-328l-32 279h-553zM831 1161l-330 -649h408z" />
    <glyph glyph-name="uni1EA5" unicode="&#x1ea5;" horiz-adv-x="1132" 
d="M1044 1706h358l-289 -340h-161l75 -164h-215l-102 137l-154 -137h-213l291 340h236l51 -110zM616 0q-10 58 -10 96q0 17 2 33q-59 -80 -125.5 -116t-157.5 -36q-143 0 -227 90q-72 79 -72 199q0 288 373 352q113 19 297 25l4 23q4 25 4 55q0 129 -145 129t-293 -90
l-107 209q108 70 211 99.5t240 29.5q401 0 401 -324q0 -60 -16 -141l-84 -432q-12 -68 -12 -105q0 -47 12 -84v-12h-295zM661 465q-128 -5 -195 -21q-133 -33 -133 -147q0 -103 111 -103q76 0 130.5 47.5t67.5 125.5z" />
    <glyph glyph-name="uni1EA6" unicode="&#x1ea6;" horiz-adv-x="1432" 
d="M1122 2013h358l17 -356h-223zM852 1878h237l154 -348h-215l-103 139l-153 -139h-211zM385 279l-142 -279h-317l791 1464h368l213 -1464h-328l-32 279h-553zM831 1161l-330 -649h408z" />
    <glyph glyph-name="uni1EA7" unicode="&#x1ea7;" horiz-adv-x="1122" 
d="M876 1731h358l19 -340h-223zM634 1542h236l157 -340h-215l-102 137l-154 -137h-213zM616 0q-10 58 -10 96q0 17 2 33q-59 -80 -125.5 -116t-157.5 -36q-143 0 -227 90q-72 79 -72 199q0 288 373 352q113 19 297 25l4 23q4 25 4 55q0 129 -145 129t-293 -90l-107 209
q108 70 211 99.5t240 29.5q401 0 401 -324q0 -60 -16 -141l-84 -432q-12 -68 -12 -105q0 -47 12 -84v-12h-295zM661 465q-128 -5 -195 -21q-133 -33 -133 -147q0 -103 111 -103q76 0 130.5 47.5t67.5 125.5z" />
    <glyph glyph-name="uni1EA8" unicode="&#x1ea8;" 
d="M1247 1640l31 158l24 4l17 2q49 6 65 18.5t16 45.5q0 16 -23 16q-39 0 -66.5 -10t-96.5 -50q-7 -2 -17 -9q-4 -3 -7 -5l-50 111q97 56 151.5 76t108.5 20q70 0 114 -39.5t44 -101.5q0 -144 -157 -177l-13 -59h-141zM854 1864h237l154 -348h-215l-103 139l-153 -139h-211z
M385 279l-142 -279h-317l791 1464h368l213 -1464h-328l-32 279h-553zM831 1161l-330 -649h408z" />
    <glyph glyph-name="uni1EA9" unicode="&#x1ea9;" horiz-adv-x="1125" 
d="M991 1403l30 158l23 4l18 2q50 6 66 18.5t16 45.5q0 16 -22 16q-40 0 -67.5 -10t-96.5 -50q-16 -6 -27 -14l-47 111q91 54 147.5 75t112.5 21q70 0 114 -39.5t44 -101.5q0 -145 -160 -177l-10 -59h-141zM638 1542h236l158 -340h-215l-103 137l-153 -137h-213zM616 0
q-10 58 -10 96q0 17 2 33q-59 -80 -125.5 -116t-157.5 -36q-143 0 -227 90q-72 79 -72 199q0 288 373 352q113 19 297 25l4 23q4 25 4 55q0 129 -145 129t-293 -90l-107 209q108 70 211 99.5t240 29.5q401 0 401 -324q0 -60 -16 -141l-84 -432q-12 -68 -12 -105
q0 -47 12 -84v-12h-295zM661 465q-128 -5 -195 -21q-133 -33 -133 -147q0 -103 111 -103q76 0 130.5 47.5t67.5 125.5z" />
    <glyph glyph-name="uni1EAA" unicode="&#x1eaa;" horiz-adv-x="1433" 
d="M1341 2005q-80 -217 -278 -217q-64 0 -156 39q-52 22 -80 22q-59 0 -86 -57l-170 8q77 217 275 217q67 0 149 -37q54 -24 86 -24q52 0 78 59zM841 1767h238l172 -260h-217l-109 104l-145 -104h-213zM385 279l-142 -279h-317l791 1464h368l213 -1464h-328l-32 279h-553z
M831 1161l-330 -649h408z" />
    <glyph glyph-name="uni1EAB" unicode="&#x1eab;" horiz-adv-x="1115" 
d="M1154 1821q-92 -291 -292 -291q-68 0 -146 47q-59 35 -88 35q-55 0 -88 -78l-170 12q95 291 291 291q63 0 147 -49q51 -33 84 -33q51 0 82 78zM624 1489h236l155 -340h-215l-102 137l-154 -137h-213zM616 0q-10 58 -10 96q0 17 2 33q-59 -80 -125.5 -116t-157.5 -36
q-143 0 -227 90q-72 79 -72 199q0 288 373 352q113 19 297 25l4 23q4 25 4 55q0 129 -145 129t-293 -90l-107 209q108 70 211 99.5t240 29.5q401 0 401 -324q0 -60 -16 -141l-84 -432q-12 -68 -12 -105q0 -47 12 -84v-12h-295zM661 465q-128 -5 -195 -21q-133 -33 -133 -147
q0 -103 111 -103q76 0 130.5 47.5t67.5 125.5z" />
    <glyph glyph-name="uni1EAC" unicode="&#x1eac;" 
d="M876 1935h228l151 -348h-205l-94 145l-151 -145h-211zM385 279l-142 -279h-317l791 1464h368l213 -1464h-328l-32 279h-553zM831 1161l-330 -649h408zM571 -113q66 0 109 -42t43 -105q0 -81 -60 -135q-52 -47 -120 -47q-64 0 -106 43t-42 108q0 77 59 131q52 47 117 47z
" />
    <glyph glyph-name="uni1EAD" unicode="&#x1ead;" horiz-adv-x="1116" 
d="M663 1567h227l154 -360h-205l-94 166l-152 -166h-211zM616 0q-10 58 -10 96q0 17 2 33q-59 -80 -125.5 -116t-157.5 -36q-143 0 -227 90q-72 79 -72 199q0 288 373 352q113 19 297 25l4 23q4 25 4 55q0 129 -145 129t-293 -90l-107 209q108 70 211 99.5t240 29.5
q401 0 401 -324q0 -60 -16 -141l-84 -432q-12 -68 -12 -105q0 -47 12 -84v-12h-295zM661 465q-128 -5 -195 -21q-133 -33 -133 -147q0 -103 111 -103q76 0 130.5 47.5t67.5 125.5zM411 -113q66 0 109 -42t43 -105q0 -81 -60 -135q-52 -47 -120 -47q-64 0 -106 43t-42 108
q0 77 59 131q51 47 117 47z" />
    <glyph glyph-name="uni1EAE" unicode="&#x1eae;" horiz-adv-x="1435" 
d="M946 2019h358l-258 -178h-221zM1288 1806q-35 -133 -125 -198q-98 -74 -238 -74q-156 0 -241 88q-67 64 -70 184h217q9 -84 109 -84q95 0 131 84h217zM385 279l-142 -279h-317l791 1464h368l213 -1464h-328l-32 279h-553zM831 1161l-330 -649h408z" />
    <glyph glyph-name="uni1EAF" unicode="&#x1eaf;" horiz-adv-x="1112" 
d="M763 1901h359l-289 -340h-221zM591 1530q0 -137 107 -137q105 0 123 137h200q-42 -301 -323 -301q-190 0 -264 102q-43 58 -43 199h200zM616 0q-10 58 -10 96q0 17 2 33q-59 -80 -125.5 -116t-157.5 -36q-143 0 -227 90q-72 79 -72 199q0 288 373 352q113 19 297 25l4 23
q4 25 4 55q0 129 -145 129t-293 -90l-107 209q108 70 211 99.5t240 29.5q401 0 401 -324q0 -60 -16 -141l-84 -432q-12 -68 -12 -105q0 -47 12 -84v-12h-295zM661 465q-128 -5 -195 -21q-133 -33 -133 -147q0 -103 111 -103q76 0 130.5 47.5t67.5 125.5z" />
    <glyph glyph-name="uni1EB0" unicode="&#x1eb0;" 
d="M837 1841l-192 178h358l58 -178h-224zM1288 1806q-35 -133 -125 -198q-98 -74 -238 -74q-156 0 -241 88q-67 64 -70 184h217q9 -84 109 -84q95 0 131 84h217zM385 279l-142 -279h-317l791 1464h368l213 -1464h-328l-32 279h-553zM831 1161l-330 -649h408z" />
    <glyph glyph-name="uni1EB1" unicode="&#x1eb1;" horiz-adv-x="1118" 
d="M450 1898h358l21 -340h-223zM591 1530q0 -137 107 -137q105 0 123 137h200q-42 -301 -323 -301q-190 0 -264 102q-43 58 -43 199h200zM616 0q-10 58 -10 96q0 17 2 33q-59 -80 -125.5 -116t-157.5 -36q-143 0 -227 90q-72 79 -72 199q0 288 373 352q113 19 297 25l4 23
q4 25 4 55q0 129 -145 129t-293 -90l-107 209q108 70 211 99.5t240 29.5q401 0 401 -324q0 -60 -16 -141l-84 -432q-12 -68 -12 -105q0 -47 12 -84v-12h-295zM661 465q-128 -5 -195 -21q-133 -33 -133 -147q0 -103 111 -103q76 0 130.5 47.5t67.5 125.5z" />
    <glyph glyph-name="uni1EB2" unicode="&#x1eb2;" 
d="M864 1745l23 111l22 4h18q50 6 64 13.5t14 29.5q0 14 -23 14q-45 0 -68.5 -6.5t-117.5 -44.5l-55 78q99 41 147 54t105 13q74 0 121 -29.5t47 -76.5q0 -94 -148 -119l-8 -41h-141zM1288 1739q-34 -100 -125 -150q-98 -55 -238 -55q-158 0 -241 66q-67 47 -70 139h217
q9 -68 109 -68q92 0 131 68h217zM385 279l-142 -279h-317l791 1464h368l213 -1464h-328l-32 279h-553zM831 1161l-330 -649h408z" />
    <glyph glyph-name="uni1EB3" unicode="&#x1eb3;" horiz-adv-x="1118" 
d="M642 1522l31 158l25 4l16 2q50 6 66 18.5t16 45.5q0 16 -22 16q-40 0 -67.5 -10t-96.5 -50q-17 -8 -25 -14l-49 111q97 56 151 76t109 20q70 0 114 -39.5t44 -101.5q0 -144 -158 -177l-12 -59h-142zM591 1530q0 -137 107 -137q105 0 123 137h200q-42 -301 -323 -301
q-190 0 -264 102q-43 58 -43 199h200zM616 0q-10 58 -10 96q0 17 2 33q-59 -80 -125.5 -116t-157.5 -36q-143 0 -227 90q-72 79 -72 199q0 288 373 352q113 19 297 25l4 23q4 25 4 55q0 129 -145 129t-293 -90l-107 209q108 70 211 99.5t240 29.5q401 0 401 -324
q0 -60 -16 -141l-84 -432q-12 -68 -12 -105q0 -47 12 -84v-12h-295zM661 465q-128 -5 -195 -21q-133 -33 -133 -147q0 -103 111 -103q76 0 130.5 47.5t67.5 125.5z" />
    <glyph glyph-name="uni1EB4" unicode="&#x1eb4;" horiz-adv-x="1431" 
d="M1362 2015q-84 -229 -283 -229q-60 0 -154 41q-57 25 -81 25q-57 0 -87 -62l-169 10q79 230 278 230q66 0 150 -39q55 -27 84 -27q51 0 79 61zM1267 1757q-32 -109 -124 -170q-97 -63 -238 -63q-156 0 -242 74q-37 30 -52.5 65.5t-16.5 93.5h217q9 -77 108 -77
q93 0 131 77h217zM385 279l-142 -279h-317l791 1464h368l213 -1464h-328l-32 279h-553zM831 1161l-330 -649h408z" />
    <glyph glyph-name="uni1EB5" unicode="&#x1eb5;" horiz-adv-x="1112" 
d="M1124 1829q-95 -291 -293 -291q-63 0 -146 47q-59 35 -88 35q-55 0 -88 -78l-170 12q92 291 291 291q66 0 148 -49q50 -33 82 -33q50 0 84 78zM571 1489q0 -137 106 -137q105 0 123 137h201q-42 -301 -324 -301q-189 0 -264 102q-43 58 -43 199h201zM616 0q-10 58 -10 96
q0 17 2 33q-59 -80 -125.5 -116t-157.5 -36q-143 0 -227 90q-72 79 -72 199q0 288 373 352q113 19 297 25l4 23q4 25 4 55q0 129 -145 129t-293 -90l-107 209q108 70 211 99.5t240 29.5q401 0 401 -324q0 -60 -16 -141l-84 -432q-12 -68 -12 -105q0 -47 12 -84v-12h-295z
M661 465q-128 -5 -195 -21q-133 -33 -133 -147q0 -103 111 -103q76 0 130.5 47.5t67.5 125.5z" />
    <glyph glyph-name="uni1EB6" unicode="&#x1eb6;" 
d="M1292 1907q-16 -95 -43 -150t-80 -100q-96 -78 -233 -78q-149 0 -230 90q-39 43 -53 93t-14 145h207q1 -70 26 -101.5t80 -31.5q105 0 133 133h207zM385 279l-142 -279h-317l791 1464h368l213 -1464h-328l-32 279h-553zM831 1161l-330 -649h408zM571 -113q66 0 109 -42
t43 -105q0 -81 -60 -135q-52 -47 -120 -47q-64 0 -106 43t-42 108q0 77 59 131q52 47 117 47z" />
    <glyph glyph-name="uni1EB7" unicode="&#x1eb7;" horiz-adv-x="1117" 
d="M1030 1554q-16 -105 -42 -162t-77 -102q-91 -78 -221 -78q-142 0 -220 90q-38 43 -51.5 95.5t-13.5 156.5h199q1 -79 24 -113t76 -34q55 0 84.5 34.5t42.5 112.5h199zM616 0q-10 58 -10 96q0 17 2 33q-59 -80 -125.5 -116t-157.5 -36q-143 0 -227 90q-72 79 -72 199
q0 288 373 352q113 19 297 25l4 23q4 25 4 55q0 129 -145 129t-293 -90l-107 209q108 70 211 99.5t240 29.5q401 0 401 -324q0 -60 -16 -141l-84 -432q-12 -68 -12 -105q0 -47 12 -84v-12h-295zM661 465q-128 -5 -195 -21q-133 -33 -133 -147q0 -103 111 -103
q76 0 130.5 47.5t67.5 125.5zM411 -113q66 0 109 -42t43 -105q0 -81 -60 -135q-52 -47 -120 -47q-64 0 -106 43t-42 108q0 77 59 131q51 47 117 47z" />
    <glyph glyph-name="uni1EB8" unicode="&#x1eb8;" horiz-adv-x="1262" 
d="M351 1464h964l-47 -250h-651l-68 -350h488l-47 -238h-488l-71 -376h682l-48 -250h-999zM486 -113q65 0 108 -42t43 -105q0 -81 -60 -135q-51 -47 -120 -47q-63 0 -105 43t-42 108q0 77 59 131q51 47 117 47z" />
    <glyph glyph-name="uni1EB9" unicode="&#x1eb9;" horiz-adv-x="1140" 
d="M543 -23q-233 0 -352 134q-103 117 -103 319q0 309 198 502q171 166 418 166q186 0 290 -97q91 -84 91 -219q0 -255 -358 -321q-121 -24 -338 -29v-20q0 -115 52 -164q46 -44 143 -44q147 0 276 115l137 -190q-171 -152 -454 -152zM412 614q220 0 309 40q79 35 79 108
q0 52 -33 81.5t-92 29.5q-191 0 -263 -259zM426 -113q65 0 108 -42t43 -105q0 -81 -60 -135q-51 -47 -120 -47q-63 0 -105 43t-42 108q0 77 59 131q51 47 117 47z" />
    <glyph glyph-name="uni1EBA" unicode="&#x1eba;" horiz-adv-x="1262" 
d="M762 1552l31 158q5 0 13 2q9 2 12 2l16 2q50 6 66 18.5t16 45.5q0 16 -22 16q-40 0 -67.5 -10t-96.5 -50l-25 -14l-49 111q96 56 150.5 76t109.5 20q70 0 114 -39.5t44 -101.5q0 -69 -41 -115t-117 -62l-12 -59h-142zM351 1464h964l-47 -250h-651l-68 -350h488l-47 -238
h-488l-71 -376h682l-48 -250h-999z" />
    <glyph glyph-name="uni1EBB" unicode="&#x1ebb;" horiz-adv-x="1140" 
d="M631 1178l30 158q5 0 13 2q9 2 12 2l16 2q50 6 66 18.5t16 45.5q0 16 -22 16q-40 0 -67.5 -10t-96.5 -50l-25 -14l-49 111q96 56 150.5 76t109.5 20q70 0 114 -39.5t44 -101.5q0 -144 -158 -177l-12 -59h-141zM543 -23q-233 0 -352 134q-103 117 -103 319q0 309 198 502
q171 166 418 166q186 0 290 -97q91 -84 91 -219q0 -255 -358 -321q-121 -24 -338 -29v-20q0 -115 52 -164q46 -44 143 -44q147 0 276 115l137 -190q-171 -152 -454 -152zM412 614q220 0 309 40q79 35 79 108q0 52 -33 81.5t-92 29.5q-191 0 -263 -259z" />
    <glyph glyph-name="uni1EBC" unicode="&#x1ebc;" horiz-adv-x="1262" 
d="M1233 1872q-60 -291 -256 -291q-70 0 -155 55q-51 33 -80 33q-52 0 -78 -84l-168 12q36 160 103 229q58 62 147 62q66 0 151 -53q59 -35 84 -35q47 0 76 84zM351 1464h964l-47 -250h-651l-68 -350h488l-47 -238h-488l-71 -376h682l-48 -250h-999z" />
    <glyph glyph-name="uni1EBD" unicode="&#x1ebd;" horiz-adv-x="1138" 
d="M1106 1523q-61 -290 -256 -290q-70 0 -156 55q-50 33 -80 33q-51 0 -77 -84l-168 12q36 160 102 230q58 61 147 61q67 0 152 -53q59 -35 86 -35q45 0 74 84zM543 -23q-233 0 -352 134q-103 117 -103 319q0 309 198 502q171 166 418 166q186 0 290 -97q91 -84 91 -219
q0 -255 -358 -321q-121 -24 -338 -29v-20q0 -115 52 -164q46 -44 143 -44q147 0 276 115l137 -190q-171 -152 -454 -152zM412 614q220 0 309 40q79 35 79 108q0 52 -33 81.5t-92 29.5q-191 0 -263 -259z" />
    <glyph glyph-name="uni1EBE" unicode="&#x1ebe;" horiz-adv-x="1277" 
d="M1180 1987h359l-291 -356h-127l41 -91h-217l-103 140l-153 -140h-211l290 348h238l68 -149zM351 1464h964l-47 -250h-651l-68 -350h488l-47 -238h-488l-71 -376h682l-48 -250h-999z" />
    <glyph glyph-name="uni1EBF" unicode="&#x1ebf;" horiz-adv-x="1156" 
d="M1059 1706h358l-289 -340h-161l75 -164h-215l-102 137l-154 -137h-213l291 340h236l51 -110zM543 -23q-233 0 -352 134q-103 117 -103 319q0 309 198 502q171 166 418 166q186 0 290 -97q91 -84 91 -219q0 -255 -358 -321q-121 -24 -338 -29v-20q0 -115 52 -164
q46 -44 143 -44q147 0 276 115l137 -190q-171 -152 -454 -152zM412 614q220 0 309 40q79 35 79 108q0 52 -33 81.5t-92 29.5q-191 0 -263 -259z" />
    <glyph glyph-name="uni1EC0" unicode="&#x1ec0;" horiz-adv-x="1268" 
d="M1037 2013h358l17 -356h-224zM766 1878h238l154 -348h-215l-103 139l-153 -139h-211zM351 1464h964l-47 -250h-651l-68 -350h488l-47 -238h-488l-71 -376h682l-48 -250h-999z" />
    <glyph glyph-name="uni1EC1" unicode="&#x1ec1;" horiz-adv-x="1145" 
d="M891 1731h358l19 -340h-224zM649 1542h236l157 -340h-215l-102 137l-154 -137h-213zM543 -23q-233 0 -352 134q-103 117 -103 319q0 309 198 502q171 166 418 166q186 0 290 -97q91 -84 91 -219q0 -255 -358 -321q-121 -24 -338 -29v-20q0 -115 52 -164q46 -44 143 -44
q147 0 276 115l137 -190q-171 -152 -454 -152zM412 614q220 0 309 40q79 35 79 108q0 52 -33 81.5t-92 29.5q-191 0 -263 -259z" />
    <glyph glyph-name="uni1EC2" unicode="&#x1ec2;" horiz-adv-x="1273" 
d="M1162 1640l30 158l25 4l16 2q50 6 66 18.5t16 45.5q0 16 -23 16q-39 0 -66.5 -10t-96.5 -50q-7 -2 -18 -9q-3 -3 -7 -5l-49 111q96 56 150.5 76t109.5 20q70 0 114 -39.5t44 -101.5q0 -144 -158 -177l-12 -59h-141zM768 1864h238l154 -348h-215l-103 139l-153 -139h-211z
M351 1464h964l-47 -250h-651l-68 -350h488l-47 -238h-488l-71 -376h682l-48 -250h-999z" />
    <glyph glyph-name="uni1EC3" unicode="&#x1ec3;" horiz-adv-x="1149" 
d="M1006 1403l30 158l23 4l18 2q50 6 66 18.5t16 45.5q0 16 -23 16q-39 0 -66.5 -10t-96.5 -50q-16 -6 -27 -14l-47 111q91 54 147.5 75t112.5 21q70 0 114 -39.5t44 -101.5q0 -145 -160 -177l-10 -59h-141zM653 1542h236l157 -340h-215l-102 137l-154 -137h-213zM543 -23
q-233 0 -352 134q-103 117 -103 319q0 309 198 502q171 166 418 166q186 0 290 -97q91 -84 91 -219q0 -255 -358 -321q-121 -24 -338 -29v-20q0 -115 52 -164q46 -44 143 -44q147 0 276 115l137 -190q-171 -152 -454 -152zM412 614q220 0 309 40q79 35 79 108q0 52 -33 81.5
t-92 29.5q-191 0 -263 -259z" />
    <glyph glyph-name="uni1EC4" unicode="&#x1ec4;" horiz-adv-x="1262" 
d="M1256 2005q-81 -217 -279 -217q-64 0 -155 39q-53 22 -80 22q-59 0 -86 -57l-170 8q76 217 274 217q68 0 150 -37q54 -24 86 -24q52 0 78 59zM756 1767h238l172 -260h-217l-109 104l-145 -104h-213zM351 1464h964l-47 -250h-651l-68 -350h488l-47 -238h-488l-71 -376h682
l-48 -250h-999z" />
    <glyph glyph-name="uni1EC5" unicode="&#x1ec5;" horiz-adv-x="1138" 
d="M1169 1821q-92 -291 -293 -291q-67 0 -145 47q-60 35 -88 35q-55 0 -88 -78l-170 12q95 291 291 291q63 0 147 -49q51 -33 84 -33q50 0 82 78zM639 1489h235l156 -340h-215l-102 137l-154 -137h-213zM543 -23q-233 0 -352 134q-103 117 -103 319q0 309 198 502
q171 166 418 166q186 0 290 -97q91 -84 91 -219q0 -255 -358 -321q-121 -24 -338 -29v-20q0 -115 52 -164q46 -44 143 -44q147 0 276 115l137 -190q-171 -152 -454 -152zM412 614q220 0 309 40q79 35 79 108q0 52 -33 81.5t-92 29.5q-191 0 -263 -259z" />
    <glyph glyph-name="uni1EC6" unicode="&#x1ec6;" horiz-adv-x="1262" 
d="M791 1935h227l152 -348h-205l-94 145l-152 -145h-211zM351 1464h964l-47 -250h-651l-68 -350h488l-47 -238h-488l-71 -376h682l-48 -250h-999zM486 -113q65 0 108 -42t43 -105q0 -81 -60 -135q-51 -47 -120 -47q-63 0 -105 43t-42 108q0 77 59 131q51 47 117 47z" />
    <glyph glyph-name="uni1EC7" unicode="&#x1ec7;" horiz-adv-x="1140" 
d="M678 1567h227l154 -360h-205l-94 166l-152 -166h-211zM543 -23q-233 0 -352 134q-103 117 -103 319q0 309 198 502q171 166 418 166q186 0 290 -97q91 -84 91 -219q0 -255 -358 -321q-121 -24 -338 -29v-20q0 -115 52 -164q46 -44 143 -44q147 0 276 115l137 -190
q-171 -152 -454 -152zM412 614q220 0 309 40q79 35 79 108q0 52 -33 81.5t-92 29.5q-191 0 -263 -259zM426 -113q65 0 108 -42t43 -105q0 -81 -60 -135q-51 -47 -120 -47q-63 0 -105 43t-42 108q0 77 59 131q51 47 117 47z" />
    <glyph glyph-name="uni1EC8" unicode="&#x1ec8;" horiz-adv-x="682" 
d="M472 1552l31 158q5 0 13 2q9 2 12 2l16 2q50 6 66 18.5t16 45.5q0 16 -23 16q-39 0 -66.5 -10t-97.5 -50l-24 -14l-49 111q96 56 150.5 76t109.5 20q70 0 114 -39.5t44 -101.5q0 -69 -41 -115t-117 -62l-12 -59h-142zM362 1464h319l-285 -1464h-319z" />
    <glyph glyph-name="uni1EC9" unicode="&#x1ec9;" horiz-adv-x="608" 
d="M363 1178l31 158q5 0 13 2q9 2 12 2l16 2q50 6 66 18.5t16 45.5q0 16 -23 16q-39 0 -66.5 -10t-96.5 -50l-25 -14l-49 111q96 56 150.5 76t109.5 20q70 0 114 -39.5t44 -101.5q0 -144 -158 -177l-12 -59h-142zM259 1071h303l-209 -1071h-303z" />
    <glyph glyph-name="uni1ECA" unicode="&#x1eca;" horiz-adv-x="671" 
d="M357 1464h320l-285 -1464h-320zM191 -113q66 0 109 -42t43 -105q0 -81 -60 -135q-52 -47 -120 -47q-64 0 -106 43t-42 108q0 77 59 131q52 47 117 47z" />
    <glyph glyph-name="uni1ECB" unicode="&#x1ecb;" horiz-adv-x="604" 
d="M481 1556q66 0 109.5 -41.5t43.5 -105.5q0 -82 -61 -138q-52 -48 -121 -48q-65 0 -107 43t-42 110q0 77 60 133q52 47 118 47zM257 1071h304l-209 -1071h-303zM157 -113q66 0 109 -42t43 -105q0 -81 -60 -135q-52 -47 -120 -47q-64 0 -106 43t-42 108q0 77 59 131
q52 47 117 47z" />
    <glyph glyph-name="uni1ECC" unicode="&#x1ecc;" horiz-adv-x="1567" 
d="M887 1487q309 0 479 -198q148 -173 148 -452q0 -203 -76 -386q-66 -159 -178 -269q-205 -205 -514 -205q-299 0 -465 197q-145 172 -145 448q0 186 58 354q51 147 139 253q214 258 554 258zM891 1235q-198 0 -319 -200q-104 -174 -104 -431q0 -195 88 -291
q77 -84 215 -84q192 0 309 201q102 174 102 430q0 195 -85 291q-74 84 -206 84zM642 -113q65 0 108 -42t43 -105q0 -81 -60 -135q-51 -47 -120 -47q-63 0 -105 43t-42 108q0 77 59 131q51 47 117 47z" />
    <glyph glyph-name="uni1ECD" unicode="&#x1ecd;" horiz-adv-x="1207" 
d="M652 1098q232 0 361 -151q112 -131 112 -343q0 -293 -182 -472q-158 -155 -391 -155q-230 0 -358 153q-111 133 -111 347q0 290 181 467q157 154 388 154zM648 873q-137 0 -207 -170q-49 -125 -49 -269q0 -232 170 -232q118 0 191 141q63 122 63 300q0 230 -168 230z
M458 -113q65 0 108 -42t43 -105q0 -81 -60 -135q-51 -47 -120 -47q-63 0 -105 43t-42 108q0 77 59 131q51 47 117 47z" />
    </font>
</defs>
</svg>
