<?xml version="1.0" standalone="no"?>
<!DOCTYPE svg PUBLIC "-//W3C//DTD SVG 1.1//EN" "http://www.w3.org/Graphics/SVG/1.1/DTD/svg11.dtd" >
<svg xmlns="http://www.w3.org/2000/svg" xmlns:xlink="http://www.w3.org/1999/xlink" version="1.1">
<metadata>
Created by FontForge 20170731 at Mon Nov 19 19:14:13 2018
 By Aleksey,,,
Copyright 2004 - 2010 by Robert Bosch GmbH
</metadata>
<defs>
<font id="BoschSans-BlackItalic" horiz-adv-x="1481" >
  <font-face 
    font-family="Bosch Sans Black"
    font-weight="800"
    font-style="italic"
    font-stretch="normal"
    units-per-em="2048"
    panose-1="2 11 8 4 2 2 2 9 2 4"
    ascent="1638"
    descent="-410"
    x-height="1071"
    cap-height="1464"
    bbox="-547 -588 3007 2093"
    underline-thickness="260"
    underline-position="-692"
    slope="-11"
    unicode-range="U+0020-FB02"
  />
<missing-glyph horiz-adv-x="748" 
d="M68 0v1365h544v-1365h-544zM136 68h408v1229h-408v-1229z" />
    <glyph glyph-name="fi" unicode="fi" horiz-adv-x="1408" 
d="M158 1071h139l31 156q67 342 417 342q152 0 263 -76l-123 -254q-49 33 -97 33q-86 0 -104 -97l-21 -104h201l-53 -276h-203l-153 -795h-367l156 795h-142zM1278 1563q87 0 138 -55q44 -48 44 -122q0 -99 -72 -163q-62 -56 -149 -56q-84 0 -136 57q-46 50 -46 122
q0 96 73 161q63 56 148 56zM1020 1071h366l-208 -1071h-367z" />
    <glyph glyph-name="fl" unicode="fl" horiz-adv-x="1510" 
d="M158 1071h139l31 156q67 342 417 342q152 0 263 -76l-123 -254q-49 33 -97 33q-86 0 -104 -97l-21 -104h201l-53 -276h-203l-153 -795h-367l156 795h-142zM1116 -23q-258 0 -258 250q0 91 18 179l238 1136h373l-230 -1098q-14 -72 -14 -112q0 -74 64 -74q41 0 86 31
l2 -254q-86 -58 -279 -58z" />
    <glyph glyph-name=".notdef" horiz-adv-x="748" 
d="M68 0v1365h544v-1365h-544zM136 68h408v1229h-408v-1229z" />
    <glyph glyph-name="glyph1" horiz-adv-x="0" 
 />
    <glyph glyph-name="glyph2" horiz-adv-x="504" 
 />
    <glyph glyph-name="space" unicode=" " horiz-adv-x="504" 
 />
    <glyph glyph-name="exclam" unicode="!" horiz-adv-x="810" 
d="M345 1048l82 416h414l-84 -438l-193 -512h-246zM407 406q87 0 143 -64q49 -55 49 -131q0 -106 -77 -176q-67 -60 -158 -60q-89 0 -145 62q-48 53 -48 129q0 106 78 178q68 62 158 62z" />
    <glyph glyph-name="quotedbl" unicode="&#x22;" horiz-adv-x="1138" 
d="M318 1464h389l-148 -583h-311zM805 1464h387l-145 -583h-312z" />
    <glyph glyph-name="numbersign" unicode="#" horiz-adv-x="1237" 
d="M283 1206h184l64 258h217l-64 -258h174l64 258h217l-64 -258h170l-51 -264h-182l-45 -184h172l-51 -262h-187l-63 -263h-215l63 263h-176l-63 -263h-215l63 263h-172l51 262h185l45 184h-170zM576 758h174l45 184h-174z" />
    <glyph glyph-name="dollar" unicode="$" horiz-adv-x="1291" 
d="M465 -12q-370 57 -473 350l360 137q45 -149 170 -190l58 293q-238 86 -324 191q-76 93 -76 247q0 235 174 360q151 108 402 107l35 182h153l-39 -199q292 -54 390 -292l-330 -142q-48 104 -117 138l-55 -279q243 -83 330 -189q77 -93 77 -251q0 -264 -213 -387
q-76 -45 -151.5 -62.5t-218.5 -23.5l-50 -254h-153zM699 1194q-91 -6 -132 -35t-41 -88q0 -46 27 -74.5t96 -56.5zM674 271q164 14 164 120q0 44 -26 75t-89 61z" />
    <glyph glyph-name="percent" unicode="%" horiz-adv-x="2237" 
d="M688 1480q180 0 283 -116q90 -101 90 -258q0 -236 -145 -378q-126 -124 -311 -124q-183 0 -285 115q-88 100 -88 262q0 230 147 374q127 125 309 125zM1541 1464h260l-1012 -1464h-260zM668 1247q-65 0 -107 -73t-42 -189q0 -143 102 -143q70 0 114 85q38 74 38 179
q0 141 -105 141zM1717 854q181 0 284 -116q89 -100 89 -259q0 -236 -144 -378q-125 -124 -311 -124q-184 0 -285 115q-88 100 -88 260q0 232 147 377q126 125 308 125zM1696 621q-64 0 -105.5 -73.5t-41.5 -188.5q0 -144 102 -144q70 0 114 85q38 73 38 177q0 144 -107 144z
" />
    <glyph glyph-name="ampersand" unicode="&#x26;" horiz-adv-x="1557" 
d="M1336 -8q-58 -4 -93 -4q-150 0 -268 78q-166 -91 -356 -91q-271 0 -418 129q-127 113 -127 299q0 207 145 334q85 76 261 141q-7 46 -7 98q0 245 147 386q127 122 325 122q172 0 266 -91q82 -79 82 -208q0 -177 -152 -282q-86 -60 -272 -115q67 -156 192 -301
q67 109 109 258h288q-81 -256 -215 -436q32 -18 64.5 -23.5t107.5 -5.5zM811 962q104 34 148.5 80.5t44.5 120.5q0 90 -66 90q-60 0 -95.5 -62.5t-35.5 -166.5q0 -43 4 -62zM543 649q-86 -92 -86 -219q0 -203 199 -203q67 0 135 23q-162 189 -248 399z" />
    <glyph glyph-name="quotesingle" unicode="'" horiz-adv-x="639" 
d="M311 1464h389l-148 -583h-311z" />
    <glyph glyph-name="parenleft" unicode="(" horiz-adv-x="924" 
d="M363 -303q-105 166 -152 327.5t-47 356.5q0 467 260 868q115 178 293 340h319q-499 -588 -499 -1276q0 -328 114 -616h-288z" />
    <glyph glyph-name="parenright" unicode=")" horiz-adv-x="918" 
d="M602 1589q104 -167 151 -328.5t47 -355.5q0 -467 -260 -868q-114 -178 -293 -340h-319q499 588 499 1274q0 330 -114 618h289z" />
    <glyph glyph-name="asterisk" unicode="*" horiz-adv-x="968" 
d="M240 926l228 190l-238 23l129 274l190 -127l-8 256h281l-94 -260l217 131l53 -276l-252 -25l148 -193l-248 -155l-62 246l-145 -242z" />
    <glyph glyph-name="plus" unicode="+" horiz-adv-x="1243" 
d="M203 850h318l70 362h323l-72 -362h322l-64 -307h-317l-70 -365h-321l69 365h-319z" />
    <glyph glyph-name="comma" unicode="," horiz-adv-x="660" 
d="M-5 -190q171 28 215 194q-77 11 -120.5 61t-43.5 128q0 100 75 164q65 55 156 55q99 0 153 -70q48 -61 48 -159q0 -99 -37 -198.5t-100 -172.5q-72 -83 -159 -122.5t-222 -49.5z" />
    <glyph glyph-name="hyphen" unicode="-" horiz-adv-x="649" 
d="M123 844h526l-68 -344h-526z" />
    <glyph glyph-name="period" unicode="." horiz-adv-x="660" 
d="M281 412q90 0 146 -63q49 -55 49 -134q0 -107 -79 -178q-68 -62 -161 -62q-90 0 -146 62q-48 54 -48 133q0 107 80 180q68 62 159 62z" />
    <glyph glyph-name="slash" unicode="/" horiz-adv-x="956" 
d="M768 1589h350l-934 -1892h-350z" />
    <glyph glyph-name="zero" unicode="0" horiz-adv-x="1297" 
d="M776 1487q248 0 387 -184q121 -160 121 -414q0 -223 -76 -428q-66 -178 -172 -296q-172 -190 -424 -190q-255 0 -394 182q-122 159 -122 416q0 195 59 378q51 158 138 276q191 260 483 260zM760 1180q-118 0 -197 -244q-66 -200 -66 -416q0 -238 136 -238q87 0 151 146
q99 233 99 510q0 123 -37 187q-32 55 -86 55z" />
    <glyph glyph-name="one" unicode="1" horiz-adv-x="1316" 
d="M828 1481h326l-287 -1481h-389l194 997q-189 -90 -438 -90l39 274q222 20 360 102q120 71 195 198z" />
    <glyph glyph-name="two" unicode="2" horiz-adv-x="1295" 
d="M51 301q197 103 305.5 172t205.5 150q260 220 260 426q0 54 -35.5 88.5t-91.5 34.5q-70 0 -117.5 -46.5t-85.5 -152.5l-332 108q34 96 68.5 153.5t89.5 108.5q152 144 399 144q253 0 389 -127q119 -110 119 -293q0 -315 -307 -559q-71 -57 -137.5 -96.5t-200.5 -104.5
h549l-62 -307h-1073z" />
    <glyph glyph-name="three" unicode="3" horiz-adv-x="1294" 
d="M162 1108q150 379 576 379q248 0 388 -122q122 -107 122 -275q0 -262 -287 -352q207 -84 207 -314q0 -218 -178 -342q-154 -107 -398 -107q-291 0 -442 154q-58 58 -88 123t-45 168l356 60q13 -108 60 -157t139 -49q96 0 148 56q45 48 45 127q0 71 -45.5 111.5
t-127.5 40.5h-90l56 270h108q101 0 151 49q44 43 44 119q0 66 -44 105.5t-118 39.5q-77 0 -128.5 -43.5t-92.5 -144.5z" />
    <glyph glyph-name="four" unicode="4" horiz-adv-x="1293" 
d="M668 266h-672l66 330l798 881h400l-181 -930h172l-53 -281h-174l-51 -266h-356zM352 547h381l115 587z" />
    <glyph glyph-name="five" unicode="5" horiz-adv-x="1295" 
d="M540 860q114 115 292 115q183 0 279 -122q84 -106 84 -284q0 -294 -180 -454q-157 -140 -414 -140q-250 0 -401 123q-62 51 -97.5 110.5t-58.5 150.5l362 59q40 -144 187 -144q98 0 159 82q52 71 52 174q0 77 -36.5 118.5t-102.5 41.5q-109 0 -177 -106h-331l241 880h867
l-62 -313h-579z" />
    <glyph glyph-name="six" unicode="6" horiz-adv-x="1301" 
d="M1057 1040q-35 80 -80 112.5t-118 32.5q-138 0 -224 -110q-77 -97 -122 -289q130 176 341 176q195 0 309 -133q99 -115 99 -291q0 -267 -186 -425q-162 -138 -406 -138q-290 0 -438 176q-129 154 -129 420q0 264 101 474q99 206 275 321q180 118 406 118q180 0 297 -72
q103 -63 181 -194zM703 679q-99 0 -159 -70q-52 -62 -52 -153q0 -93 54 -145q46 -45 122 -45q95 0 159 79q54 68 54 160q0 84 -56 132q-48 42 -122 42z" />
    <glyph glyph-name="seven" unicode="7" horiz-adv-x="1310" 
d="M230 0q75 359 270 672q169 272 410 479h-655l61 313h1053l-52 -262q-275 -251 -450 -592q-151 -296 -199 -610h-438z" />
    <glyph glyph-name="eight" unicode="8" horiz-adv-x="1293" 
d="M1018 739q107 -55 155 -128.5t48 -180.5q0 -217 -186 -345q-162 -110 -408 -110q-286 0 -450 136q-142 118 -142 302q0 173 131 279q77 61 215 98q-156 99 -156 266q0 198 177 320q153 106 374 106q245 0 388 -124q124 -107 124 -271q0 -248 -270 -348zM770 1214
q-79 0 -131 -61q-45 -52 -45 -123q0 -69 42 -110.5t111 -41.5q78 0 125 56q41 49 41 120t-39.5 115.5t-103.5 44.5zM654 645q-97 0 -156 -68q-51 -58 -51 -145q0 -90 53 -137q46 -42 123 -42q92 0 152 70q51 61 51 145q0 85 -54 134q-47 43 -118 43z" />
    <glyph glyph-name="nine" unicode="9" horiz-adv-x="1292" 
d="M312 418q35 -79 84 -112.5t127 -33.5q141 0 224 113q73 99 112 297q-125 -170 -340 -170q-195 0 -311 132q-101 115 -101 287q0 260 189 417q164 136 407 136q290 0 436 -179q127 -156 127 -429q0 -440 -235 -687q-204 -214 -529 -214q-189 0 -311 72q-107 63 -182 193z
M705 1199q-97 0 -160 -75q-55 -65 -55 -158q0 -85 55 -131q49 -40 127 -40q99 0 158 67q51 59 51 147q0 92 -54 144q-48 46 -122 46z" />
    <glyph glyph-name="colon" unicode=":" horiz-adv-x="652" 
d="M395 995q88 0 146 -64q50 -55 50 -133q0 -106 -80 -178q-69 -61 -162 -61q-90 0 -146 62q-48 53 -48 130q0 108 80 181q68 63 160 63zM281 412q90 0 146 -63q49 -55 49 -134q0 -107 -79 -178q-68 -62 -161 -62q-89 0 -145 62q-49 55 -49 133q0 106 80 179q68 63 159 63z
" />
    <glyph glyph-name="semicolon" unicode=";" horiz-adv-x="652" 
d="M399 995q88 0 146 -64q50 -55 50 -133q0 -106 -80 -178q-69 -61 -162 -61q-90 0 -146 62q-48 53 -48 130q0 108 80 181q68 63 160 63zM-5 -190q172 28 215 194q-77 11 -120.5 61t-43.5 128q0 100 75 164q65 55 156 55q99 0 153 -70q48 -61 48 -159q0 -99 -37 -198.5
t-100 -172.5q-72 -83 -159 -122.5t-222 -49.5z" />
    <glyph glyph-name="less" unicode="&#x3c;" horiz-adv-x="1249" 
d="M219 514l61 303l877 397l-80 -405l-444 -154l381 -178l-74 -371z" />
    <glyph glyph-name="equal" unicode="=" horiz-adv-x="1244" 
d="M297 1075h864l-62 -305h-862zM204 598h865l-62 -305h-862z" />
    <glyph glyph-name="greater" unicode="&#x3e;" horiz-adv-x="1249" 
d="M225 512l446 154l-381 178l72 370l721 -407l-59 -305l-877 -396z" />
    <glyph glyph-name="question" unicode="?" horiz-adv-x="1229" 
d="M459 573q28 130 83 199.5t179 130.5q83 42 116 80.5t33 93.5q0 51 -32.5 81t-88.5 30q-61 0 -103.5 -36.5t-82.5 -123.5l-305 127q87 185 226 263q123 69 308 69q232 0 353 -113q106 -98 106 -264q0 -182 -137 -295q-56 -46 -188 -115q-71 -38 -96.5 -69.5t-41.5 -98.5
l-4 -18h-338zM571 406q88 0 144 -64q49 -55 49 -131q0 -105 -78 -176q-68 -60 -160 -60q-88 0 -144 62q-48 53 -48 129q0 106 78 178q68 62 159 62z" />
    <glyph glyph-name="at" unicode="@" horiz-adv-x="1845" 
d="M1370 -164q-127 -87 -241 -121.5t-273 -34.5q-368 0 -578 240q-182 208 -182 534q0 262 122 479q118 211 324 332q212 125 467 125q367 0 572 -227q178 -197 178 -510q0 -282 -140 -442q-121 -139 -313 -139q-110 0 -173 43t-89 137q-107 -185 -286 -185q-143 0 -222 110
q-69 96 -69 250q0 246 134 401q116 134 282 134q158 0 210 -129l21 113h291l-113 -543q-6 -31 -6 -55q0 -77 76 -77q104 0 163 122q52 106 52 273q0 283 -171 430q-150 128 -404 128q-207 0 -371 -99q-160 -97 -250 -270q-92 -177 -92 -401q0 -308 176 -468
q153 -140 413 -140q121 0 206.5 26.5t195.5 98.5zM932 726q-79 0 -125 -85q-39 -74 -39 -189q0 -139 98 -139q81 0 129 85q41 74 41 185q0 143 -104 143z" />
    <glyph glyph-name="A" unicode="A" 
d="M415 252l-118 -252h-371l756 1464h479l182 -1464h-405l-23 252h-500zM837 1139l-284 -602h338z" />
    <glyph glyph-name="B" unicode="B" horiz-adv-x="1406" 
d="M331 1464h622q212 0 322 -104q96 -91 96 -244q0 -150 -73 -237q-63 -76 -201 -131q121 -41 174 -120q47 -70 47 -179q0 -232 -172 -348q-150 -101 -414 -101h-686zM812 887q178 0 178 161q0 121 -135 121h-195l-55 -282h207zM748 295q97 0 148 54q45 48 45 126
q0 70 -40 108t-114 38h-233l-64 -326h258z" />
    <glyph glyph-name="C" unicode="C" horiz-adv-x="1422" 
d="M1347 371q-52 -108 -105.5 -174t-130.5 -115q-158 -107 -389 -107q-310 0 -470 190q-140 166 -140 449q0 416 237 661q206 212 519 212q250 0 403 -129q64 -53 103 -119t71 -176l-360 -121q-25 104 -53 146q-56 86 -172 86q-157 0 -244 -158q-98 -174 -98 -422
q0 -304 227 -304q92 0 157.5 55.5t116.5 176.5z" />
    <glyph glyph-name="D" unicode="D" horiz-adv-x="1511" 
d="M331 1464h549q304 0 459 -179q134 -157 134 -429q0 -427 -249 -656q-216 -200 -574 -200h-604zM671 315q201 0 305 159q91 139 91 376q0 165 -69 236q-60 63 -180 63h-156l-161 -834h170z" />
    <glyph glyph-name="E" unicode="E" horiz-adv-x="1275" 
d="M331 1464h1007l-57 -307h-623l-51 -264h443l-60 -291h-440l-58 -295h654l-60 -307h-1040z" />
    <glyph glyph-name="F" unicode="F" horiz-adv-x="1223" 
d="M331 1464h991l-57 -307h-601l-65 -328h444l-57 -297h-444l-103 -532h-393z" />
    <glyph glyph-name="G" unicode="G" horiz-adv-x="1575" 
d="M1105 211q-75 -122 -202 -183q-111 -53 -248 -53q-266 0 -413 194q-128 169 -128 441q0 258 101 459q99 197 278 306q182 112 414 112q244 0 388 -98q129 -87 191 -261l-375 -125q-26 98 -78.5 139.5t-150.5 41.5q-173 0 -274 -181q-88 -158 -88 -399q0 -334 256 -334
q140 0 221 94q25 32 46 82t21 79v20h-243l53 272h622l-155 -817h-201z" />
    <glyph glyph-name="H" unicode="H" horiz-adv-x="1515" 
d="M331 1464h393l-111 -565h430l111 565h393l-284 -1464h-394l115 586h-430l-115 -586h-393z" />
    <glyph glyph-name="I" unicode="I" horiz-adv-x="706" 
d="M338 1464h395l-285 -1464h-395z" />
    <glyph glyph-name="J" unicode="J" horiz-adv-x="1292" 
d="M1131 440q-48 -243 -213 -361q-145 -104 -369 -104q-243 0 -369 126q-110 111 -110 298q0 75 18 162h379q-18 -98 -18 -133q0 -140 125 -140q76 0 114.5 45t61.5 162l188 969h394z" />
    <glyph glyph-name="K" unicode="K" horiz-adv-x="1450" 
d="M331 1464h393l-113 -573l504 573h436l-594 -635l349 -829h-416l-236 538l-137 -139l-78 -399h-393z" />
    <glyph glyph-name="L" unicode="L" horiz-adv-x="1207" 
d="M331 1464h393l-223 -1151h581l-61 -313h-975z" />
    <glyph glyph-name="M" unicode="M" horiz-adv-x="1928" 
d="M331 1464h522l100 -901l461 901h547l-285 -1464h-385l197 1011l-522 -1011h-275l-106 1011l-197 -1011h-342z" />
    <glyph glyph-name="N" unicode="N" horiz-adv-x="1533" 
d="M331 1464h424l286 -887l172 887h353l-285 -1464h-399l-304 930l-180 -930h-352z" />
    <glyph glyph-name="O" unicode="O" horiz-adv-x="1560" 
d="M898 1487q303 0 476 -202q151 -176 151 -450q0 -201 -75 -381q-65 -156 -177 -268q-211 -211 -530 -211q-307 0 -478 198q-149 173 -149 447q0 245 104 445q101 196 277 307q181 115 401 115zM882 1180q-169 0 -264 -170q-96 -174 -96 -408q0 -167 71 -249
q63 -71 174 -71q165 0 265 184q87 160 87 394q0 320 -237 320z" />
    <glyph glyph-name="P" unicode="P" horiz-adv-x="1363" 
d="M331 1464h577q242 0 369 -127q112 -111 112 -297q0 -269 -183 -415q-159 -126 -421 -126h-250l-96 -499h-393zM781 784q118 0 178 65q53 57 53 154q0 78 -41 121t-116 43h-188l-76 -383h190z" />
    <glyph glyph-name="Q" unicode="Q" horiz-adv-x="1560" 
d="M958 2q-93 -27 -209 -27q-312 0 -484 197q-149 172 -149 448q0 245 104 445q101 196 277 307q181 115 401 115q303 0 476 -202q151 -176 151 -449q0 -224 -90 -416q-78 -167 -211 -279l96 -147l-256 -158zM702 403l254 162l71 -115q92 178 92 410q0 320 -238 320
q-171 0 -273 -187q-89 -162 -89 -405q0 -169 70 -253q61 -73 170 -73q19 0 33 2z" />
    <glyph glyph-name="R" unicode="R" horiz-adv-x="1455" 
d="M331 1464h589q127 0 210 -22t151 -72q143 -103 143 -301q0 -176 -98 -277q-86 -88 -260 -133q112 -39 149 -112q33 -64 41 -213q26 -280 66 -326v-8h-387q-44 78 -53 289q-7 151 -49 197q-37 40 -134 40h-157l-103 -526h-393zM812 805q110 0 168 63q51 54 51 146
q0 151 -160 151h-204l-72 -360h217z" />
    <glyph glyph-name="S" unicode="S" horiz-adv-x="1261" 
d="M946 1048q-42 77 -94 107.5t-142 30.5q-168 0 -168 -121q0 -48 37 -79.5t131 -63.5q165 -59 224 -86.5t112 -69.5q141 -114 141 -314q0 -236 -181 -365q-157 -112 -413 -112q-308 0 -481 158q-81 76 -135 192l360 136q35 -97 98.5 -140t174.5 -43q93 0 142 36
q42 32 42 85q0 57 -43.5 90t-192.5 86q-233 85 -318 190q-75 93 -75 247q0 234 170 363q148 112 387 112q419 0 560 -297z" />
    <glyph glyph-name="T" unicode="T" horiz-adv-x="1295" 
d="M577 1157h-371l59 307h1133l-59 -307h-371l-225 -1157h-392z" />
    <glyph glyph-name="U" unicode="U" horiz-adv-x="1518" 
d="M1382 549q-62 -324 -235 -457q-152 -117 -425 -117q-296 0 -445 145q-130 127 -130 349q0 74 18 172l162 823h393l-163 -839q-17 -78 -17 -144q0 -195 193 -195q125 0 182 76q51 67 84 232l170 870h389z" />
    <glyph glyph-name="V" unicode="V" horiz-adv-x="1432" 
d="M210 1464h408l88 -1009l483 1009h395l-758 -1464h-436z" />
    <glyph glyph-name="W" unicode="W" horiz-adv-x="2098" 
d="M237 1464h397l25 -973l409 973h324l53 -983l400 983h387l-633 -1464h-420l-49 911l-393 -911h-426z" />
    <glyph glyph-name="X" unicode="X" horiz-adv-x="1460" 
d="M538 772l-297 692h447l141 -426l285 426h434l-547 -717l328 -747h-444l-172 495l-355 -495h-436z" />
    <glyph glyph-name="Y" unicode="Y" horiz-adv-x="1379" 
d="M513 610l-303 854h410l163 -516l347 516h401l-631 -874l-115 -590h-391z" />
    <glyph glyph-name="Z" unicode="Z" horiz-adv-x="1289" 
d="M59 329l764 828h-573l59 307h1039l-64 -325l-758 -826h617l-62 -313h-1085z" />
    <glyph glyph-name="bracketleft" unicode="[" horiz-adv-x="912" 
d="M382 1589h606l-55 -283h-234l-256 -1326h232l-56 -283h-606z" />
    <glyph glyph-name="backslash" unicode="\" horiz-adv-x="959" 
d="M254 1589h313l234 -1892h-314z" />
    <glyph glyph-name="bracketright" unicode="]" horiz-adv-x="910" 
d="M570 -303h-606l55 283h234l256 1326h-232l56 283h606z" />
    <glyph glyph-name="asciicircum" unicode="^" horiz-adv-x="1121" 
d="M611 1464h254l197 -663h-270l-117 305l-223 -305h-283z" />
    <glyph glyph-name="underscore" unicode="_" horiz-adv-x="924" 
d="M-162 -172h983l-51 -260h-983z" />
    <glyph glyph-name="grave" unicode="`" horiz-adv-x="1065" 
d="M416 1542h391l49 -367h-260z" />
    <glyph glyph-name="a" unicode="a" horiz-adv-x="1131" 
d="M606 0q-11 41 -11 131q-52 -82 -118.5 -119t-159.5 -37q-142 0 -224 89q-71 78 -71 198q0 272 311 346q154 35 346 35q1 5 2 15q2 23 2 34q0 111 -133 111q-118 0 -278 -72l-123 256q117 62 223 87.5t244 25.5q438 0 438 -338q0 -50 -14 -133l-80 -416q-12 -61 -12 -119
q0 -50 12 -82v-12h-354zM640 444q-141 -1 -199 -37q-50 -31 -50 -96q0 -78 82 -78q127 0 157 160z" />
    <glyph glyph-name="b" unicode="b" horiz-adv-x="1267" 
d="M560 913q131 187 326 187q156 0 238 -129q71 -113 71 -303q0 -322 -157 -519q-136 -172 -335 -172q-209 0 -284 213l-37 -190h-369l299 1542h369zM689 826q-102 0 -167 -127q-56 -110 -56 -267q0 -181 141 -181q103 0 165 119q54 103 54 255q0 201 -137 201z" />
    <glyph glyph-name="c" unicode="c" horiz-adv-x="1118" 
d="M1029 270q-84 -161 -210 -232q-111 -63 -266 -63q-244 0 -374 147q-113 127 -113 341q0 306 183 483q158 154 403 154q179 0 287 -82q94 -71 147 -215l-309 -115q-17 78 -47 110t-86 32q-99 0 -158 -123q-51 -107 -51 -267q0 -195 137 -195q116 0 180 161z" />
    <glyph glyph-name="d" unicode="d" horiz-adv-x="1272" 
d="M714 172q-68 -102 -143.5 -148.5t-174.5 -46.5q-161 0 -245 128q-74 112 -74 302q0 322 155 521q135 172 330 172q209 0 293 -197l123 639h369l-299 -1542h-369zM667 826q-105 0 -167 -118q-54 -102 -54 -258q0 -199 139 -199q99 0 164 130q57 112 57 266q0 179 -139 179
z" />
    <glyph glyph-name="e" unicode="e" horiz-adv-x="1141" 
d="M546 -25q-250 0 -376 136q-109 119 -109 327q0 311 200 499q174 163 433 163q200 0 310 -98q95 -86 95 -226q0 -204 -207 -287q-140 -55 -464 -63v-20q0 -161 143 -161q83 0 143.5 22t120.5 75l168 -217q-101 -82 -205 -116t-252 -34zM450 625q173 0 247 33q64 29 64 90
q0 41 -27.5 65.5t-74.5 24.5q-149 0 -209 -213z" />
    <glyph glyph-name="f" unicode="f" horiz-adv-x="828" 
d="M158 1071h139l31 156q67 342 417 342q152 0 263 -76l-123 -254q-49 33 -97 33q-86 0 -104 -97l-21 -104h201l-53 -276h-203l-153 -795h-367l156 795h-142z" />
    <glyph glyph-name="g" unicode="g" horiz-adv-x="1163" 
d="M1038 836q10 -43 10 -86q0 -178 -142 -277q-123 -86 -319 -86q-112 0 -212 28q-33 -35 -33 -77q0 -34 24 -48t82 -14h168q198 0 300 -88q89 -76 89 -207q0 -203 -172 -307q-149 -90 -407 -90q-253 0 -386 77q-116 68 -116 181q0 153 223 217q-96 63 -96 160
q0 155 211 250q-131 95 -131 244q0 181 151 291q132 96 326 96q180 0 309 -88l307 81l-51 -257h-135zM612 894q-66 0 -107.5 -53t-41.5 -138q0 -125 112 -125q64 0 105.5 55.5t41.5 141.5q0 119 -110 119zM323 16q-65 -39 -65 -109q0 -102 182 -102q221 0 221 121
q0 90 -121 90h-217z" />
    <glyph glyph-name="h" unicode="h" horiz-adv-x="1222" 
d="M312 1542h369l-125 -653q72 111 152.5 161t187.5 50q128 0 198 -86q60 -76 60 -199q0 -58 -19 -149l-127 -666h-368l123 639q6 31 6 59q0 103 -94 103q-88 0 -138 -90q-23 -42 -45 -156l-110 -555h-369z" />
    <glyph glyph-name="i" unicode="i" horiz-adv-x="621" 
d="M489 1563q87 0 138 -55q44 -48 44 -122q0 -99 -72 -163q-62 -56 -149 -56q-84 0 -136 57q-46 50 -46 122q0 96 73 161q64 56 148 56zM231 1071h366l-208 -1071h-367z" />
    <glyph glyph-name="j" unicode="j" horiz-adv-x="649" 
d="M517 1563q87 0 138 -55q44 -48 44 -122q0 -99 -72 -163q-62 -56 -150 -56q-84 0 -136 57q-46 50 -46 122q0 96 74 161q63 56 148 56zM408 -43q-68 -348 -398 -348q-143 0 -229 61l100 260q38 -20 76 -20q43 0 63.5 22.5t32.5 83.5l205 1055h367z" />
    <glyph glyph-name="k" unicode="k" horiz-adv-x="1207" 
d="M537 387l-100 -98l-55 -289h-369l299 1542h369l-162 -829l342 358h401l-438 -430l256 -641h-387z" />
    <glyph glyph-name="l" unicode="l" horiz-adv-x="729" 
d="M335 -23q-258 0 -258 250q0 91 18 179l238 1136h373l-230 -1098q-14 -71 -14 -112q0 -74 64 -74q41 0 86 31l2 -254q-86 -58 -279 -58z" />
    <glyph glyph-name="m" unicode="m" horiz-adv-x="1793" 
d="M558 903q131 197 329 197q187 0 236 -201q150 201 346 201q130 0 198 -86q60 -76 60 -203q0 -62 -12 -121l-135 -690h-369l125 639q8 41 8 66q0 96 -88 96q-117 0 -153 -187l-121 -614h-369l125 641q8 41 8 64q0 96 -88 96q-121 0 -156 -187l-120 -614h-369l209 1071h369
z" />
    <glyph glyph-name="n" unicode="n" horiz-adv-x="1222" 
d="M222 1071h369l-35 -182q73 111 153.5 161t188.5 50q128 0 196 -86q60 -76 60 -199q0 -57 -15 -129l-131 -686h-368l121 629q8 38 8 71q0 101 -94 101q-137 0 -177 -209l-116 -592h-369z" />
    <glyph glyph-name="o" unicode="o" horiz-adv-x="1225" 
d="M665 1100q240 0 377 -151q119 -132 119 -337q0 -301 -190 -481q-165 -156 -412 -156q-237 0 -376 152q-120 133 -120 336q0 293 194 477q168 160 408 160zM651 834q-102 0 -165 -128q-54 -111 -54 -274q0 -191 147 -191q100 0 161 128q52 111 52 276q0 189 -141 189z" />
    <glyph glyph-name="p" unicode="p" horiz-adv-x="1266" 
d="M228 1071h368l-31 -158q132 187 326 187q156 0 238 -129q71 -113 71 -303q0 -322 -157 -519q-136 -172 -334 -172q-210 0 -285 213l-108 -563h-369zM694 826q-102 0 -167 -127q-56 -110 -56 -267q0 -181 141 -181q103 0 165 119q54 103 54 255q0 201 -137 201z" />
    <glyph glyph-name="q" unicode="q" horiz-adv-x="1267" 
d="M714 172q-68 -102 -143.5 -148.5t-174.5 -46.5q-162 0 -246 128q-73 112 -73 302q0 322 155 521q135 172 330 172q209 0 293 -197l33 168h369l-281 -1444h-369zM667 826q-105 0 -167 -118q-54 -102 -54 -258q0 -199 139 -199q99 0 164 130q57 112 57 266q0 179 -139 179z
" />
    <glyph glyph-name="r" unicode="r" horiz-adv-x="911" 
d="M222 1071h369l-43 -221q67 129 137.5 186.5t161.5 57.5q75 0 133 -44l-115 -337q-68 39 -131 39q-204 0 -252 -238l-100 -514h-369z" />
    <glyph glyph-name="s" unicode="s" horiz-adv-x="1058" 
d="M841 731q-54 53 -129.5 85t-146.5 32q-90 0 -90 -66q0 -30 24.5 -47.5t104.5 -44.5q110 -36 151 -55t87 -55q106 -86 106 -228q0 -192 -139 -291q-120 -86 -328 -86q-322 0 -510 177l188 219q127 -134 309 -134q113 0 113 68q0 32 -26.5 48t-147.5 56q-154 51 -220 135
q-58 74 -58 185q0 189 136 286q118 85 318 85q143 0 247.5 -35.5t203.5 -118.5z" />
    <glyph glyph-name="t" unicode="t" horiz-adv-x="849" 
d="M158 1071h133l37 188l396 136l-64 -324h199l-54 -276h-198l-76 -398l-2 -15q-4 -28 -4 -40q0 -62 57 -62q42 0 88 21l64 -254q-114 -72 -283 -72q-157 0 -238 82q-71 72 -71 195q0 47 14 117l82 426h-135z" />
    <glyph glyph-name="u" unicode="u" horiz-adv-x="1218" 
d="M668 186q-73 -114 -152.5 -164.5t-187.5 -50.5q-129 0 -197 87q-59 76 -59 204q0 62 12 123l133 686h369l-125 -647q-6 -28 -6 -66q0 -96 92 -96q136 0 176 209l117 600h369l-209 -1071h-369z" />
    <glyph glyph-name="v" unicode="v" horiz-adv-x="1155" 
d="M129 1071h383l51 -661l307 661h367l-559 -1071h-404z" />
    <glyph glyph-name="w" unicode="w" horiz-adv-x="1666" 
d="M149 1071h373l16 -616l260 616h297l23 -616l258 616h360l-514 -1071h-352l-35 573l-237 -573h-359z" />
    <glyph glyph-name="x" unicode="x" horiz-adv-x="1186" 
d="M371 563l-224 508h408l96 -279l195 279h391l-424 -516l248 -555h-408l-117 317l-229 -317h-389z" />
    <glyph glyph-name="y" unicode="y" horiz-adv-x="1194" 
d="M635 -72q-103 -182 -220 -254q-102 -63 -249 -63q-150 0 -250 71l133 254q47 -34 117 -34q53 0 87.5 26.5t72.5 95.5l-191 1047h381l82 -610l311 610h367z" />
    <glyph glyph-name="z" unicode="z" horiz-adv-x="1038" 
d="M11 258l535 528h-414l57 285h885l-49 -248l-547 -538h451l-56 -285h-913z" />
    <glyph glyph-name="braceleft" unicode="{" horiz-adv-x="916" 
d="M637 -305q-153 4 -241.5 32.5t-147.5 92.5q-78 87 -78 219q0 61 11 108l43 213q0 3 1 9q2 20 2 30q0 53 -36.5 76.5t-122.5 26.5l59 303q100 0 148 35t63 118l49 254q48 229 198 309q133 70 421 70l-55 -284q-113 -10 -154 -48t-59 -149l-41 -205q-23 -118 -85 -181.5
t-175 -84.5q87 -26 125 -72.5t38 -128.5q0 -35 -8 -76l-41 -212q-6 -31 -6 -60q0 -54 33.5 -78.5t116.5 -31.5z" />
    <glyph glyph-name="bar" unicode="|" horiz-adv-x="626" 
d="M193 1589h285v-1892h-285v1892z" />
    <glyph glyph-name="braceright" unicode="}" horiz-adv-x="910" 
d="M320 1591q153 -4 241.5 -32.5t147.5 -92.5q78 -87 78 -219q0 -57 -11 -108l-43 -213q-3 -25 -3 -39q0 -52 36.5 -76t122.5 -27l-59 -303q-100 0 -148 -35t-63 -118l-50 -254q-47 -229 -197 -309q-133 -70 -421 -70l55 285q112 9 153.5 47t59.5 149l41 205
q23 118 85 181.5t175 84.5q-87 26 -125 73t-38 128q0 37 8 76l41 213q6 33 6 59q0 54 -33.5 78.5t-116.5 32.5z" />
    <glyph glyph-name="asciitilde" unicode="~" horiz-adv-x="1245" 
d="M151 481q41 180 102 273q100 149 248 149q81 0 195 -65q64 -41 104 -41q37 0 58 24.5t38 85.5l256 -18q-99 -420 -352 -420q-81 0 -192 65q-67 41 -105 41t-59.5 -24.5t-36.5 -85.5z" />
    <glyph glyph-name="nonbreakingspace" unicode="&#xa0;" horiz-adv-x="504" 
 />
    <glyph glyph-name="exclamdown" unicode="&#xa1;" horiz-adv-x="806" 
d="M535 1116q89 0 144 -61q48 -52 48 -129q0 -107 -78 -179q-68 -61 -160 -61q-84 0 -140 64q-48 55 -48 131q0 105 77 175q66 60 157 60zM143 66l192 512h244l-26 -535l-80 -416h-414z" />
    <glyph glyph-name="cent" unicode="&#xa2;" horiz-adv-x="1305" 
d="M515 -10q-98 23 -159.5 58.5t-113.5 97.5q-102 123 -102 319q0 278 170 455q81 83 176 123t244 53l37 192h155l-41 -207q252 -55 336 -311l-307 -104q-24 100 -82 135l-110 -563q95 33 149 168l270 -135q-67 -141 -202 -218q-118 -67 -267 -73l-49 -256h-155zM675 817
q-89 -36 -140 -129q-51 -102 -51 -243q0 -140 82 -193z" />
    <glyph glyph-name="sterling" unicode="&#xa3;" horiz-adv-x="1297" 
d="M158 811h131q-21 97 -21 182q0 245 171 378q148 116 388 116q221 0 348 -98q111 -86 169 -259l-340 -86q-45 144 -177 144q-78 0 -123 -56t-45 -153q0 -58 19 -168h344l-37 -209h-278q4 -47 4 -82q0 -91 -37 -217q59 -22 113 -22q67 0 103 29t62 106l322 -49
q-61 -181 -135 -260q-115 -127 -311 -127q-87 0 -155.5 25.5t-143.5 84.5q-138 -110 -297 -110q-137 0 -214 74q-67 64 -67 165q0 128 94 199q82 61 213 61q55 0 115 -16q-8 59 -29 139h-225zM352 246q-55 55 -106 55q-40 0 -66 -20.5t-26 -51.5q0 -28 22.5 -45.5
t59.5 -17.5q78 0 116 80z" />
    <glyph glyph-name="currency" unicode="&#xa4;" horiz-adv-x="1295" 
d="M709 -23q-488 0 -559 518h-156l33 162h121q2 65 12 133h-109l33 160h111q42 125 87.5 202.5t119.5 150.5q190 184 466 184q262 0 383 -150q70 -84 99 -227l-355 -86q-16 84 -50 118t-101 34q-150 0 -240 -226h271l-31 -160h-285q-11 -59 -16 -133h274l-30 -162h-242
q30 -199 186 -199q66 0 108.5 34t80.5 116l338 -102q-163 -367 -549 -367z" />
    <glyph glyph-name="yen" unicode="&#xa5;" horiz-adv-x="1310" 
d="M191 776h234l-246 688h424l139 -518l338 518h403l-503 -688h235l-31 -160h-315l-27 -134h316l-31 -160h-315l-64 -322h-393l61 322h-315l33 160h315l27 134h-316z" />
    <glyph glyph-name="brokenbar" unicode="&#xa6;" horiz-adv-x="607" 
d="M327 1464h282l-114 -587h-283zM157 588h282l-114 -588h-283z" />
    <glyph glyph-name="section" unicode="&#xa7;" horiz-adv-x="1252" 
d="M995 1073q-84 140 -241 140q-55 0 -87 -22.5t-32 -61.5q0 -40 35.5 -67.5t136.5 -63.5q209 -75 298 -170q77 -82 77 -193q0 -103 -65.5 -171.5t-205.5 -111.5q97 -102 97 -235q0 -193 -154 -305q-135 -97 -342 -97q-340 0 -516 256l248 176q59 -84 123 -120t154 -36
q127 0 127 82q0 40 -38 66t-179 84q-182 73 -259 166q-67 81 -67 190t64.5 177.5t201.5 103.5q-84 101 -84 227q0 193 149 304q130 96 330 96q175 0 294 -66q104 -58 181 -176zM721 473q101 24 101 96q0 73 -138 119l-135 47q-94 -18 -94 -92q0 -76 145 -127z" />
    <glyph glyph-name="dieresis" unicode="&#xa8;" horiz-adv-x="1047" 
d="M483 1544q76 0 123 -53q41 -45 41 -111q0 -87 -66 -147q-57 -51 -132 -51t-121 53q-41 46 -41 113q0 85 66 145q56 51 130 51zM934 1544q76 0 123 -53q41 -45 41 -111q0 -87 -66 -147q-57 -51 -132 -51t-120 53q-40 46 -40 113q0 85 65 145q55 51 129 51z" />
    <glyph glyph-name="copyright" unicode="&#xa9;" horiz-adv-x="1667" 
d="M933 1480q189 0 343 -88q149 -86 234 -239q87 -156 87 -348q0 -225 -108 -416q-104 -186 -283 -295q-184 -112 -400 -112q-184 0 -337 89q-148 87 -233 239q-87 156 -87 345q0 223 108 415q104 187 282 297q183 113 394 113zM927 1369q-178 0 -329 -96
q-147 -93 -232 -252q-88 -164 -88 -357q0 -271 172 -432q149 -139 375 -139q176 0 326 96q145 93 230 253q87 164 87 358q0 270 -170 430q-148 139 -371 139zM1234 526q-74 -122 -161 -174.5t-216 -52.5q-187 0 -298 124q-97 108 -97 271q0 222 147 358q127 117 314 117
q256 0 342 -225l-231 -121q-27 90 -119 90q-77 0 -123 -65q-39 -56 -39 -142q0 -71 33.5 -111t93.5 -40q46 0 76.5 23.5t56.5 78.5z" />
    <glyph glyph-name="ordfeminine" unicode="&#xaa;" horiz-adv-x="1042" 
d="M649 551q-13 37 -13 115q-85 -135 -237 -135q-119 0 -188 76q-60 66 -60 167q0 245 279 299q103 20 276 23v10q0 76 -19 98.5t-83 22.5q-119 0 -248 -62l-105 223q191 99 410 99q377 0 377 -277q0 -47 -10 -102l-74 -377q-10 -58 -10 -88q0 -50 14 -82v-10h-309zM675 930
q-211 3 -211 -115q0 -63 68 -63q50 0 86 31.5t45 82.5z" />
    <glyph glyph-name="guillemotleft" unicode="&#xab;" horiz-adv-x="1122" 
d="M88 508l281 405h297l-295 -426l125 -417h-281zM518 494l303 419h297l-319 -442l131 -401h-281z" />
    <glyph glyph-name="logicalnot" unicode="&#xac;" horiz-adv-x="1256" 
d="M700 565h-463l63 322h771l-113 -586h-307z" />
    <glyph glyph-name="uni00AD" unicode="&#xad;" horiz-adv-x="649" 
d="M123 844h526l-68 -344h-526z" />
    <glyph glyph-name="registered" unicode="&#xae;" horiz-adv-x="1224" 
d="M748 1480q215 0 348 -149q115 -129 115 -316q0 -156 -76 -289q-74 -129 -201 -204q-131 -78 -284 -78q-209 0 -341 150q-114 129 -114 315q0 153 76 286q75 130 200 206q129 79 277 79zM740 1380q-202 0 -325 -147q-107 -127 -107 -314q0 -184 111 -287q96 -90 249 -90
q198 0 321 152q107 131 107 321q0 181 -108 279q-94 86 -248 86zM541 1212h234q172 0 172 -137q0 -111 -125 -137q40 -11 53.5 -37t13.5 -92q3 -62 13 -74v-6h-148q-12 20 -12 80q0 44 -11 60t-42 16h-48l-30 -156h-164zM723 997q66 0 66 55q0 45 -57 45h-50l-18 -100h59z
" />
    <glyph glyph-name="macron" unicode="&#xaf;" horiz-adv-x="1055" 
d="M459 1487h531l-48 -246h-532z" />
    <glyph glyph-name="degree" unicode="&#xb0;" horiz-adv-x="998" 
d="M652 1484q167 0 264 -103q84 -90 84 -229q0 -197 -133 -317q-116 -104 -287 -104q-164 0 -262 104q-84 90 -84 228q0 192 135 315q117 106 283 106zM635 1285q-67 0 -108 -56t-41 -148q0 -149 115 -149q65 0 106 58t41 152q0 143 -113 143z" />
    <glyph glyph-name="plusminus" unicode="&#xb1;" horiz-adv-x="1234" 
d="M247 1065h313l64 317h321l-61 -317h307l-62 -309h-307l-63 -330h-324l64 330h-312zM101 309h942l-57 -309h-944z" />
    <glyph glyph-name="twosuperior" unicode="&#xb2;" horiz-adv-x="1018" 
d="M183 1090q244 109 348 188q154 113 154 213q0 65 -49 65q-62 0 -107 -128l-278 84q55 164 163 231q96 59 256 59q192 0 288 -83q83 -73 83 -202q0 -180 -174 -309q-47 -34 -197 -106h299l-49 -242h-780z" />
    <glyph glyph-name="threesuperior" unicode="&#xb3;" horiz-adv-x="1019" 
d="M616 1417q84 0 84 72q0 78 -80 78t-121 -113l-258 90q53 143 162 203q96 53 254 53q194 0 297 -79q90 -69 90 -185q0 -80 -40.5 -128t-137.5 -83q133 -67 133 -188q0 -66 -34 -126t-93 -97q-111 -68 -293 -68q-313 0 -399 188q-29 60 -29 115l303 43q19 -110 113 -110
q76 0 76 75q0 86 -89 86h-55l33 174h84z" />
    <glyph glyph-name="acute" unicode="&#xb4;" horiz-adv-x="1057" 
d="M622 1542h418l-279 -367h-268z" />
    <glyph glyph-name="mu" unicode="&#xb5;" horiz-adv-x="1225" 
d="M-55 -373l283 1444h368l-125 -639q-6 -30 -6 -57q0 -92 90 -92q66 0 112 49t64 139l117 600h369l-209 -1071h-348l30 164q-103 -180 -219 -180q-56 0 -114 41q6 -47 6 -99q0 -56 -10 -102l-39 -197h-369z" />
    <glyph glyph-name="paragraph" unicode="&#xb6;" horiz-adv-x="1312" 
d="M543 659h-4q-168 0 -263 108q-83 94 -83 242q0 221 149 346q129 109 330 109h658l-285 -1464h-231l245 1255h-170l-243 -1255h-230z" />
    <glyph glyph-name="glyph121" unicode="&#xb7;" horiz-adv-x="660" 
d="M377 885q90 0 146 -62q49 -54 49 -132q0 -108 -78 -179q-68 -61 -162 -61q-90 0 -146 62q-48 53 -48 130q0 107 80 180q68 62 159 62z" />
    <glyph glyph-name="cedilla" unicode="&#xb8;" horiz-adv-x="1063" 
d="M410 -103q12 3 28 3q68 0 110 -44.5t42 -115.5q0 -103 -72 -159q-62 -48 -166 -48q-166 0 -229 127l147 55q23 -49 76 -49q32 0 52 19t20 49q0 27 -16.5 44t-42.5 17q-42 0 -64 -35l-86 62l143 178h148z" />
    <glyph glyph-name="onesuperior" unicode="&#xb9;" horiz-adv-x="1035" 
d="M772 1790h297l-180 -930h-342l111 570q-142 -48 -283 -48l18 209q283 47 379 199z" />
    <glyph glyph-name="ordmasculine" unicode="&#xba;" horiz-adv-x="1100" 
d="M689 1487q207 0 327 -131q105 -115 105 -289q0 -253 -165 -405q-142 -132 -355 -132q-202 0 -323 132q-105 115 -105 288q0 247 166 402q144 135 350 135zM673 1245q-82 0 -129 -99q-41 -86 -41 -221q0 -162 119 -162q80 0 128 98q41 86 41 216q0 168 -118 168z" />
    <glyph glyph-name="guillemotright" unicode="&#xbb;" horiz-adv-x="1124" 
d="M310 512l-129 401h281l129 -424l-301 -419h-299zM741 496l-127 417h280l127 -438l-280 -405h-299z" />
    <glyph glyph-name="onequarter" unicode="&#xbc;" horiz-adv-x="2107" 
d="M760 621h-315l100 518q-126 -43 -254 -43l16 188q259 44 342 180h275zM1473 1464h260l-1012 -1464h-260zM1938 844l-101 -508h101l-39 -205h-101l-24 -131h-285l25 131h-398l43 219l469 494h310zM1561 324l55 284l-272 -284h217z" />
    <glyph glyph-name="onehalf" unicode="&#xbd;" horiz-adv-x="2102" 
d="M760 621h-315l100 518q-126 -43 -254 -43l16 188q259 44 342 180h275zM1473 1464h260l-1012 -1464h-260zM1839 315q-50 -35 -180 -96h272l-43 -219h-710l41 207q258 118 363 208q93 80 93 161q0 57 -45 57q-59 0 -98 -119l-252 78q51 150 149 211q86 53 232 53
q175 0 262 -76q76 -66 76 -182q0 -166 -160 -283z" />
    <glyph glyph-name="threequarters" unicode="&#xbe;" horiz-adv-x="2097" 
d="M560 1128q76 0 76 65q0 72 -72 72q-73 0 -111 -104l-233 82q49 130 148 185q87 48 229 48q176 0 270 -72q82 -63 82 -168q0 -72 -37 -116t-125 -76q123 -60 123 -172q0 -131 -116 -202q-101 -62 -267 -62q-285 0 -364 172q-25 52 -25 104l274 39q19 -100 105 -100
q69 0 69 70q0 77 -81 77h-52l31 158h76zM1465 1464h260l-1012 -1464h-260zM1494 131h-398l43 219l469 494h308l-99 -508h101l-39 -205h-101l-26 -131h-283zM1324 324h217l55 284z" />
    <glyph glyph-name="questiondown" unicode="&#xbf;" horiz-adv-x="1226" 
d="M747 1112q90 0 145 -61q47 -52 47 -129q0 -106 -78 -178q-68 -62 -160 -62q-84 0 -140 64q-48 55 -48 131q0 105 77 175q67 60 157 60zM1017 -68q-88 -185 -227 -262q-123 -68 -309 -68q-231 0 -352 112q-105 98 -105 263q0 140 72 230q64 79 211 157q103 54 132 85
t48 108l4 16h338l-12 -59q-26 -129 -81.5 -198.5t-180.5 -131.5q-86 -43 -119 -80.5t-33 -91.5q0 -52 32.5 -82.5t88.5 -30.5q62 0 104 35.5t84 124.5z" />
    <glyph glyph-name="Agrave" unicode="&#xc0;" 
d="M415 252l-118 -252h-371l756 1464h479l182 -1464h-405l-23 252h-500zM837 1139l-284 -602h338zM633 1933h391l49 -369h-260z" />
    <glyph glyph-name="Aacute" unicode="&#xc1;" 
d="M415 252l-118 -252h-371l756 1464h479l182 -1464h-405l-23 252h-500zM837 1139l-284 -602h338zM923 1933h418l-279 -369h-268z" />
    <glyph glyph-name="Acircumflex" unicode="&#xc2;" 
d="M415 252l-118 -252h-371l756 1464h479l182 -1464h-405l-23 252h-500zM837 1139l-284 -602h338zM881 1933h266l158 -356h-250l-82 125l-127 -125h-258z" />
    <glyph glyph-name="Atilde" unicode="&#xc3;" horiz-adv-x="1479" 
d="M415 252l-118 -252h-371l756 1464h479l182 -1464h-405l-23 252h-500zM837 1139l-284 -602h338zM1365 1884q-71 -323 -284 -323q-70 0 -158 51q-48 31 -76 31q-47 0 -75 -74l-195 12q41 180 114 257q64 67 165 67q68 0 149 -51q51 -31 82 -31q23 0 36.5 15t31.5 58z" />
    <glyph glyph-name="Adieresis" unicode="&#xc4;" 
d="M415 252l-118 -252h-371l756 1464h479l182 -1464h-405l-23 252h-500zM837 1139l-284 -602h338zM774 1870q65 0 107.5 -41.5t42.5 -106.5q0 -80 -60 -135q-52 -47 -120 -47q-63 0 -105.5 43.5t-42.5 108.5q0 77 60 131q51 47 118 47zM1188 1870q65 0 107 -41.5t42 -106.5
q0 -80 -60 -135q-51 -47 -120 -47q-64 0 -105.5 42.5t-41.5 109.5q0 77 60 131q52 47 118 47z" />
    <glyph glyph-name="Aring" unicode="&#xc5;" 
d="M415 252l-118 -252h-371l756 1464h479l182 -1464h-405l-23 252h-500zM837 1139l-284 -602h338zM999 2001q102 0 162 -67q53 -58 53 -146q0 -111 -81 -181q-71 -61 -171 -61q-103 0 -164 66q-53 57 -53 143q0 112 83 184q71 62 171 62zM991 1868q-38 0 -64 -31t-26 -78
q0 -36 19 -59t50 -23q39 0 63.5 30.5t24.5 78.5q0 37 -18.5 59.5t-48.5 22.5z" />
    <glyph glyph-name="AE" unicode="&#xc6;" horiz-adv-x="2028" 
d="M886 1464h1208l-59 -307h-619l-51 -264h438l-59 -291h-436l-56 -295h647l-59 -307h-1036l47 248h-418l-164 -248h-393zM619 533h287l121 616z" />
    <glyph glyph-name="Ccedilla" unicode="&#xc7;" horiz-adv-x="1422" 
d="M745 290q92 0 157.5 55.5t116.5 176.5l328 -152q-52 -107 -105.5 -172.5t-130.5 -115.5q-158 -107 -389 -107h-10l-68 -78q13 2 29 2q68 0 110 -44.5t42 -115.5q0 -103 -72 -158q-63 -48 -166 -48q-166 0 -229 127l147 55q23 -49 76 -49q32 0 52 18.5t20 48.5
q0 27 -16.5 44t-43.5 17q-41 0 -63 -34l-86 62l133 165q-239 43 -359 223q-106 159 -106 404q0 416 237 661q206 212 519 212q250 0 403 -129q64 -54 103 -119.5t71 -175.5l-360 -121q-25 104 -53 146q-56 86 -172 86q-157 0 -244 -158q-98 -174 -98 -422q0 -304 227 -304z
" />
    <glyph glyph-name="Egrave" unicode="&#xc8;" horiz-adv-x="1275" 
d="M331 1464h1007l-57 -307h-623l-51 -264h443l-60 -291h-440l-58 -295h654l-60 -307h-1040zM531 1933h391l49 -369h-260z" />
    <glyph glyph-name="Eacute" unicode="&#xc9;" horiz-adv-x="1275" 
d="M331 1464h1007l-57 -307h-623l-51 -264h443l-60 -291h-440l-58 -295h654l-60 -307h-1040zM822 1933h418l-279 -369h-268z" />
    <glyph glyph-name="Ecircumflex" unicode="&#xca;" horiz-adv-x="1275" 
d="M331 1464h1007l-57 -307h-623l-51 -264h443l-60 -291h-440l-58 -295h654l-60 -307h-1040zM779 1933h266l158 -356h-250l-82 125l-127 -125h-258z" />
    <glyph glyph-name="Edieresis" unicode="&#xcb;" horiz-adv-x="1275" 
d="M673 1870q65 0 107 -41.5t42 -106.5q0 -80 -60 -135q-51 -47 -120 -47q-63 0 -105 43.5t-42 108.5q0 77 60 131q51 47 118 47zM1086 1870q65 0 107.5 -41.5t42.5 -106.5q0 -80 -60 -135q-52 -47 -120 -47q-65 0 -106.5 42.5t-41.5 109.5q0 77 60 131q52 47 118 47z
M331 1464h1007l-57 -307h-623l-51 -264h443l-60 -291h-440l-58 -295h654l-60 -307h-1040z" />
    <glyph glyph-name="Igrave" unicode="&#xcc;" horiz-adv-x="706" 
d="M338 1464h395l-285 -1464h-395zM248 1933h391l49 -369h-260z" />
    <glyph glyph-name="Iacute" unicode="&#xcd;" horiz-adv-x="721" 
d="M338 1464h395l-285 -1464h-395zM538 1933h418l-279 -369h-268z" />
    <glyph glyph-name="Icircumflex" unicode="&#xce;" horiz-adv-x="719" 
d="M338 1464h395l-285 -1464h-395zM496 1933h266l158 -356h-250l-82 125l-127 -125h-258z" />
    <glyph glyph-name="Idieresis" unicode="&#xcf;" horiz-adv-x="721" 
d="M338 1464h395l-285 -1464h-395zM389 1870q65 0 107.5 -41.5t42.5 -106.5q0 -80 -60 -135q-52 -47 -120 -47q-63 0 -105.5 43.5t-42.5 108.5q0 77 60 131q51 47 118 47zM803 1870q65 0 107 -41.5t42 -106.5q0 -80 -60 -135q-51 -47 -120 -47q-64 0 -105.5 42.5
t-41.5 109.5q0 77 60 131q52 47 118 47z" />
    <glyph glyph-name="Eth" unicode="&#xd0;" horiz-adv-x="1513" 
d="M882 1464q305 0 459 -179q135 -157 135 -429q0 -427 -249 -656q-217 -200 -575 -200h-604l113 583h-117l53 283h119l117 598h549zM673 315q201 0 306 159q91 139 91 376q0 165 -69 236q-60 63 -181 63h-155l-56 -283h226l-58 -283h-223l-51 -268h170z" />
    <glyph glyph-name="Ntilde" unicode="&#xd1;" horiz-adv-x="1533" 
d="M331 1464h424l286 -887l172 887h353l-285 -1464h-399l-304 930l-180 -930h-352zM1393 1884q-71 -323 -284 -323q-70 0 -158 51q-48 31 -76 31q-47 0 -75 -74l-195 12q41 180 114 257q64 67 165 67q68 0 149 -51q51 -31 82 -31q23 0 36.5 15t31.5 58z" />
    <glyph glyph-name="Ograve" unicode="&#xd2;" horiz-adv-x="1560" 
d="M898 1487q303 0 476 -202q151 -176 151 -450q0 -201 -75 -381q-65 -156 -177 -268q-211 -211 -530 -211q-307 0 -478 198q-149 173 -149 447q0 245 104 445q101 196 277 307q181 115 401 115zM882 1180q-169 0 -264 -170q-96 -174 -96 -408q0 -167 71 -249
q63 -71 174 -71q165 0 265 184q87 160 87 394q0 320 -237 320zM677 1933h391l49 -369h-260z" />
    <glyph glyph-name="Oacute" unicode="&#xd3;" horiz-adv-x="1560" 
d="M898 1487q303 0 476 -202q151 -176 151 -450q0 -201 -75 -381q-65 -156 -177 -268q-211 -211 -530 -211q-307 0 -478 198q-149 173 -149 447q0 245 104 445q101 196 277 307q181 115 401 115zM882 1180q-169 0 -264 -170q-96 -174 -96 -408q0 -167 71 -249
q63 -71 174 -71q165 0 265 184q87 160 87 394q0 320 -237 320zM968 1933h418l-279 -369h-268z" />
    <glyph glyph-name="Ocircumflex" unicode="&#xd4;" horiz-adv-x="1560" 
d="M898 1487q303 0 476 -202q151 -176 151 -450q0 -201 -75 -381q-65 -156 -177 -268q-211 -211 -530 -211q-307 0 -478 198q-149 173 -149 447q0 245 104 445q101 196 277 307q181 115 401 115zM882 1180q-169 0 -264 -170q-96 -174 -96 -408q0 -167 71 -249
q63 -71 174 -71q165 0 265 184q87 160 87 394q0 320 -237 320zM925 1933h266l158 -356h-250l-82 125l-127 -125h-258z" />
    <glyph glyph-name="Otilde" unicode="&#xd5;" horiz-adv-x="1560" 
d="M898 1487q303 0 476 -202q151 -176 151 -450q0 -201 -75 -381q-65 -156 -177 -268q-211 -211 -530 -211q-307 0 -478 198q-149 173 -149 447q0 245 104 445q101 196 277 307q181 115 401 115zM882 1180q-169 0 -264 -170q-96 -174 -96 -408q0 -167 71 -249
q63 -71 174 -71q165 0 265 184q87 160 87 394q0 320 -237 320zM1410 1884q-71 -323 -284 -323q-70 0 -158 51q-48 31 -76 31q-47 0 -75 -74l-195 12q41 180 114 257q64 67 165 67q68 0 149 -51q51 -31 82 -31q23 0 36.5 15t31.5 58z" />
    <glyph glyph-name="Odieresis" unicode="&#xd6;" horiz-adv-x="1560" 
d="M898 1487q303 0 476 -202q151 -176 151 -450q0 -201 -75 -381q-65 -156 -177 -268q-211 -211 -530 -211q-307 0 -478 198q-149 173 -149 447q0 245 104 445q101 196 277 307q181 115 401 115zM882 1180q-169 0 -264 -170q-96 -174 -96 -408q0 -167 71 -249
q63 -71 174 -71q165 0 265 184q87 160 87 394q0 320 -237 320zM818 1870q65 0 107.5 -41.5t42.5 -106.5q0 -80 -60 -135q-52 -47 -120 -47q-63 0 -105.5 43.5t-42.5 108.5q0 77 60 131q51 47 118 47zM1232 1870q65 0 107 -41.5t42 -106.5q0 -80 -60 -135q-51 -47 -120 -47
q-64 0 -105.5 42.5t-41.5 109.5q0 77 60 131q52 47 118 47z" />
    <glyph glyph-name="multiply" unicode="&#xd7;" horiz-adv-x="1243" 
d="M131 397l313 314l-313 313l207 205l309 -314l307 314l207 -205l-311 -313l311 -314l-207 -204l-307 313l-309 -313z" />
    <glyph glyph-name="Oslash" unicode="&#xd8;" horiz-adv-x="1562" 
d="M208 246q-97 156 -97 375q0 244 104 445q101 195 277 307q181 114 402 114q233 0 405 -136l113 113h268l-254 -256q94 -158 94 -373q0 -244 -102 -443q-99 -194 -274 -304q-179 -113 -398 -113q-245 0 -413 129l-105 -104h-264zM1054 1102q-66 78 -177 78
q-169 0 -271 -183q-89 -160 -89 -397q0 -25 2 -39zM585 358q66 -76 174 -76q168 0 260 168q96 170 96 402v41z" />
    <glyph glyph-name="Ugrave" unicode="&#xd9;" horiz-adv-x="1518" 
d="M1382 549q-62 -324 -235 -457q-152 -117 -425 -117q-296 0 -445 145q-130 127 -130 349q0 74 18 172l162 823h393l-163 -839q-17 -78 -17 -144q0 -195 193 -195q125 0 182 76q51 67 84 232l170 870h389zM657 1933h391l49 -369h-260z" />
    <glyph glyph-name="Uacute" unicode="&#xda;" horiz-adv-x="1518" 
d="M1382 549q-62 -324 -235 -457q-152 -117 -425 -117q-296 0 -445 145q-130 127 -130 349q0 74 18 172l162 823h393l-163 -839q-17 -78 -17 -144q0 -195 193 -195q125 0 182 76q51 67 84 232l170 870h389zM948 1933h418l-279 -369h-268z" />
    <glyph glyph-name="Ucircumflex" unicode="&#xdb;" horiz-adv-x="1518" 
d="M1382 549q-62 -324 -235 -457q-152 -117 -425 -117q-296 0 -445 145q-130 127 -130 349q0 74 18 172l162 823h393l-163 -839q-17 -78 -17 -144q0 -195 193 -195q125 0 182 76q51 67 84 232l170 870h389zM905 1933h266l158 -356h-250l-82 125l-127 -125h-258z" />
    <glyph glyph-name="Udieresis" unicode="&#xdc;" horiz-adv-x="1518" 
d="M1382 549q-62 -324 -235 -457q-152 -117 -425 -117q-296 0 -445 145q-130 127 -130 349q0 74 18 172l162 823h393l-163 -839q-17 -78 -17 -144q0 -195 193 -195q125 0 182 76q51 67 84 232l170 870h389zM798 1870q65 0 107.5 -41.5t42.5 -106.5q0 -80 -60 -135
q-52 -47 -120 -47q-63 0 -105.5 43.5t-42.5 108.5q0 77 60 131q51 47 118 47zM1212 1870q65 0 107 -41.5t42 -106.5q0 -80 -60 -135q-51 -47 -120 -47q-64 0 -105.5 42.5t-41.5 109.5q0 77 60 131q52 47 118 47z" />
    <glyph glyph-name="Yacute" unicode="&#xdd;" horiz-adv-x="1379" 
d="M513 610l-303 854h410l163 -516l347 516h401l-631 -874l-115 -590h-391zM876 1933h418l-279 -369h-268z" />
    <glyph glyph-name="Thorn" unicode="&#xde;" horiz-adv-x="1362" 
d="M331 1464h393l-45 -225h184q241 0 369 -128q112 -112 112 -298q0 -268 -183 -413q-158 -126 -419 -126h-250l-53 -274h-393zM736 559q119 0 179 64q52 56 52 153q0 80 -41 123t-116 43h-189l-73 -383h188z" />
    <glyph glyph-name="germandbls" unicode="&#xdf;" horiz-adv-x="1241" 
d="M240 1167q41 209 192 313q132 91 333 91q217 0 333 -107q101 -94 101 -249q0 -250 -268 -316q134 -39 190 -135q49 -84 49 -227q0 -269 -144 -422q-124 -133 -319 -133q-136 0 -221 49l51 256h6q33 -20 78 -20q92 0 140 89q42 77 42 207q0 110 -38.5 158.5t-133.5 58.5
l48 240q90 0 131 40t41 128q0 135 -107 135q-105 0 -137 -168l-223 -1155h-371z" />
    <glyph glyph-name="agrave" unicode="&#xe0;" horiz-adv-x="1131" 
d="M606 0q-11 41 -11 131q-52 -82 -118.5 -119t-159.5 -37q-142 0 -224 89q-71 78 -71 198q0 272 311 346q154 35 346 35q1 5 2 15q2 23 2 34q0 111 -133 111q-118 0 -278 -72l-123 256q117 62 223 87.5t244 25.5q438 0 438 -338q0 -50 -14 -133l-80 -416q-12 -61 -12 -119
q0 -50 12 -82v-12h-354zM640 444q-141 -1 -199 -37q-50 -31 -50 -96q0 -78 82 -78q127 0 157 160zM395 1542h391l49 -367h-260z" />
    <glyph glyph-name="aacute" unicode="&#xe1;" horiz-adv-x="1128" 
d="M606 0q-11 41 -11 131q-52 -82 -118.5 -119t-159.5 -37q-142 0 -224 89q-71 78 -71 198q0 272 311 346q154 35 346 35q1 5 2 15q2 23 2 34q0 111 -133 111q-118 0 -278 -72l-123 256q117 62 223 87.5t244 25.5q438 0 438 -338q0 -50 -14 -133l-80 -416q-12 -61 -12 -119
q0 -50 12 -82v-12h-354zM640 444q-141 -1 -199 -37q-50 -31 -50 -96q0 -78 82 -78q127 0 157 160zM679 1546h418l-279 -367h-268z" />
    <glyph glyph-name="acircumflex" unicode="&#xe2;" horiz-adv-x="1129" 
d="M606 0q-11 41 -11 131q-52 -82 -118.5 -119t-159.5 -37q-142 0 -224 89q-71 78 -71 198q0 272 311 346q154 35 346 35q1 5 2 15q2 23 2 34q0 111 -133 111q-118 0 -278 -72l-123 256q117 62 223 87.5t244 25.5q438 0 438 -338q0 -50 -14 -133l-80 -416q-12 -61 -12 -119
q0 -50 12 -82v-12h-354zM640 444q-141 -1 -199 -37q-50 -31 -50 -96q0 -78 82 -78q127 0 157 160zM653 1546h266l158 -356h-250l-82 125l-127 -125h-258z" />
    <glyph glyph-name="atilde" unicode="&#xe3;" horiz-adv-x="1126" 
d="M606 0q-11 41 -11 131q-52 -82 -118.5 -119t-159.5 -37q-142 0 -224 89q-71 78 -71 198q0 272 311 346q154 35 346 35q1 5 2 15q2 23 2 34q0 111 -133 111q-118 0 -278 -72l-123 256q117 62 223 87.5t244 25.5q438 0 438 -338q0 -50 -14 -133l-80 -416q-12 -61 -12 -119
q0 -50 12 -82v-12h-354zM640 444q-141 -1 -199 -37q-50 -31 -50 -96q0 -78 82 -78q127 0 157 160zM1117 1509q-71 -324 -282 -324q-72 0 -164 56q-45 27 -72 27q-47 0 -75 -74l-195 12q41 180 114 257q64 67 165 67q68 0 149 -52q51 -31 82 -31q23 0 36.5 15t31.5 59z" />
    <glyph glyph-name="adieresis" unicode="&#xe4;" horiz-adv-x="1126" 
d="M606 0q-11 41 -11 131q-52 -82 -118.5 -119t-159.5 -37q-142 0 -224 89q-71 78 -71 198q0 272 311 346q154 35 346 35q1 5 2 15q2 23 2 34q0 111 -133 111q-118 0 -278 -72l-123 256q117 62 223 87.5t244 25.5q438 0 438 -338q0 -50 -14 -133l-80 -416q-12 -61 -12 -119
q0 -50 12 -82v-12h-354zM640 444q-141 -1 -199 -37q-50 -31 -50 -96q0 -78 82 -78q127 0 157 160zM515 1544q76 0 123 -53q41 -45 41 -111q0 -87 -66 -147q-57 -51 -132 -51t-121 53q-41 46 -41 113q0 85 66 145q56 51 130 51zM966 1544q76 0 123 -53q41 -45 41 -111
q0 -87 -66 -147q-57 -51 -132 -51t-120 53q-40 46 -40 113q0 85 65 145q55 51 129 51z" />
    <glyph glyph-name="aring" unicode="&#xe5;" horiz-adv-x="1131" 
d="M606 0q-11 41 -11 131q-52 -82 -118.5 -119t-159.5 -37q-142 0 -224 89q-71 78 -71 198q0 272 311 346q154 35 346 35q1 5 2 15q2 23 2 34q0 111 -133 111q-118 0 -278 -72l-123 256q117 62 223 87.5t244 25.5q438 0 438 -338q0 -50 -14 -133l-80 -416q-12 -61 -12 -119
q0 -50 12 -82v-12h-354zM640 444q-141 -1 -199 -37q-50 -31 -50 -96q0 -78 82 -78q127 0 157 160zM753 1609q102 0 162 -66q53 -58 53 -147q0 -110 -81 -180q-71 -61 -171 -61q-103 0 -164 66q-53 57 -53 143q0 111 83 183q71 62 171 62zM745 1476q-38 0 -64 -31t-26 -77
q0 -37 19 -59.5t50 -22.5q39 0 63.5 30.5t24.5 77.5q0 37 -18.5 59.5t-48.5 22.5z" />
    <glyph glyph-name="ae" unicode="&#xe6;" horiz-adv-x="1735" 
d="M329 -25q-146 0 -229 90q-72 78 -72 201q0 206 180 296q157 78 471 77q11 26 11 59q0 103 -127 103q-140 0 -293 -74l-123 258q117 62 228.5 88.5t254.5 26.5q121 0 196.5 -28.5t127.5 -94.5q146 123 336 123q197 0 306 -99q95 -86 95 -225q0 -204 -205 -287
q-140 -55 -467 -63v-12q0 -91 33.5 -130t110.5 -39q82 0 142.5 22t121.5 75l168 -217q-101 -82 -205.5 -116t-253.5 -34q-170 0 -278 60q-94 52 -154 158q-143 -218 -375 -218zM1042 627q176 0 249 32q64 28 64 87q0 42 -28 67t-76 25q-149 0 -209 -211zM479 233
q55 0 98.5 40t54.5 100l12 69q-141 -3 -198 -37q-49 -31 -49 -94q0 -78 82 -78z" />
    <glyph glyph-name="ccedilla" unicode="&#xe7;" horiz-adv-x="1118" 
d="M572 246q116 0 180 159l277 -135q-148 -283 -447 -295l-70 -78q13 3 29 3q68 0 110 -44.5t42 -115.5q0 -103 -72 -159q-63 -48 -166 -48q-166 0 -229 127l147 55q23 -49 76 -49q32 0 52 19t20 49q0 27 -16.5 44t-43.5 17q-41 0 -63 -35l-86 62l131 161q-191 33 -290 172
q-87 123 -87 308q0 306 183 483q158 154 403 154q179 0 287 -82q94 -71 147 -215l-309 -115q-17 78 -47 110t-86 32q-99 0 -158 -123q-51 -106 -51 -266q0 -195 137 -195z" />
    <glyph glyph-name="egrave" unicode="&#xe8;" horiz-adv-x="1141" 
d="M546 -25q-250 0 -376 136q-109 119 -109 327q0 311 200 499q174 163 433 163q200 0 310 -98q95 -86 95 -226q0 -204 -207 -287q-140 -55 -464 -63v-20q0 -161 143 -161q83 0 143.5 22t120.5 75l168 -217q-101 -82 -205 -116t-252 -34zM450 625q173 0 247 33q64 29 64 90
q0 41 -27.5 65.5t-74.5 24.5q-149 0 -209 -213zM401 1542h391l49 -367h-260z" />
    <glyph glyph-name="eacute" unicode="&#xe9;" horiz-adv-x="1141" 
d="M546 -25q-250 0 -376 136q-109 119 -109 327q0 311 200 499q174 163 433 163q200 0 310 -98q95 -86 95 -226q0 -204 -207 -287q-140 -55 -464 -63v-20q0 -161 143 -161q83 0 143.5 22t120.5 75l168 -217q-101 -82 -205 -116t-252 -34zM450 625q173 0 247 33q64 29 64 90
q0 41 -27.5 65.5t-74.5 24.5q-149 0 -209 -213zM686 1546h418l-279 -367h-268z" />
    <glyph glyph-name="ecircumflex" unicode="&#xea;" horiz-adv-x="1141" 
d="M546 -25q-250 0 -376 136q-109 119 -109 327q0 311 200 499q174 163 433 163q200 0 310 -98q95 -86 95 -226q0 -204 -207 -287q-140 -55 -464 -63v-20q0 -161 143 -161q83 0 143.5 22t120.5 75l168 -217q-101 -82 -205 -116t-252 -34zM450 625q173 0 247 33q64 29 64 90
q0 41 -27.5 65.5t-74.5 24.5q-149 0 -209 -213zM659 1546h266l158 -356h-250l-82 125l-127 -125h-258z" />
    <glyph glyph-name="edieresis" unicode="&#xeb;" horiz-adv-x="1139" 
d="M546 -25q-250 0 -376 136q-109 119 -109 327q0 311 200 499q174 163 433 163q200 0 310 -98q95 -86 95 -226q0 -204 -207 -287q-140 -55 -464 -63v-20q0 -161 143 -161q83 0 143.5 22t120.5 75l168 -217q-101 -82 -205 -116t-252 -34zM450 625q173 0 247 33q64 29 64 90
q0 41 -27.5 65.5t-74.5 24.5q-149 0 -209 -213zM521 1544q76 0 123 -53q41 -45 41 -111q0 -87 -66 -147q-57 -51 -132 -51t-121 53q-41 46 -41 113q0 85 66 145q56 51 130 51zM972 1544q76 0 123 -53q41 -45 41 -111q0 -87 -66 -147q-57 -51 -132 -51t-120 53
q-40 46 -40 113q0 85 65 145q55 51 129 51z" />
    <glyph glyph-name="igrave" unicode="&#xec;" horiz-adv-x="619" 
d="M231 1071h366l-208 -1071h-367zM141 1542h391l49 -367h-260z" />
    <glyph glyph-name="iacute" unicode="&#xed;" horiz-adv-x="634" 
d="M231 1071h366l-208 -1071h-367zM425 1546h418l-279 -367h-268z" />
    <glyph glyph-name="icircumflex" unicode="&#xee;" horiz-adv-x="632" 
d="M231 1071h366l-208 -1071h-367zM399 1546h266l158 -356h-250l-82 125l-127 -125h-258z" />
    <glyph glyph-name="idieresis" unicode="&#xef;" horiz-adv-x="636" 
d="M231 1071h366l-208 -1071h-367zM261 1544q76 0 123 -53q41 -45 41 -111q0 -87 -66 -147q-57 -51 -132 -51t-121 53q-41 46 -41 113q0 85 66 145q56 51 130 51zM712 1544q76 0 123 -53q41 -45 41 -111q0 -87 -66 -147q-57 -51 -132 -51t-120 53q-40 46 -40 113
q0 85 65 145q55 51 129 51z" />
    <glyph glyph-name="eth" unicode="&#xf0;" horiz-adv-x="1221" 
d="M378 1227l135 92l-17 15q-36 31 -53 44q-15 16 -31 25l173 211q104 -59 188 -117l164 113l84 -142l-119 -82q152 -157 214 -317q54 -141 54 -324q0 -290 -117 -496q-153 -274 -499 -274q-248 0 -385 148q-119 128 -119 335q0 265 164 436q141 148 340 148q146 0 248 -104
q-45 136 -166 266l-174 -119zM636 788q-100 0 -161 -111q-52 -96 -52 -237q0 -189 147 -189q100 0 159 108q50 93 50 236q0 193 -143 193z" />
    <glyph glyph-name="ntilde" unicode="&#xf1;" horiz-adv-x="1221" 
d="M222 1071h369l-35 -182q73 111 153.5 161t188.5 50q128 0 196 -86q60 -76 60 -199q0 -57 -15 -129l-131 -686h-368l121 629q8 38 8 71q0 101 -94 101q-137 0 -177 -209l-116 -592h-369zM1161 1509q-71 -324 -282 -324q-72 0 -164 56q-45 27 -72 27q-47 0 -75 -74l-195 12
q41 180 114 257q64 67 165 67q68 0 149 -52q51 -31 82 -31q23 0 36.5 15t31.5 59z" />
    <glyph glyph-name="ograve" unicode="&#xf2;" horiz-adv-x="1225" 
d="M665 1100q240 0 377 -151q119 -132 119 -337q0 -301 -190 -481q-165 -156 -412 -156q-237 0 -376 152q-120 133 -120 336q0 293 194 477q168 160 408 160zM651 834q-102 0 -165 -128q-54 -111 -54 -274q0 -191 147 -191q100 0 161 128q52 111 52 276q0 189 -141 189z
M442 1542h391l49 -367h-260z" />
    <glyph glyph-name="oacute" unicode="&#xf3;" horiz-adv-x="1225" 
d="M665 1100q240 0 377 -151q119 -132 119 -337q0 -301 -190 -481q-165 -156 -412 -156q-237 0 -376 152q-120 133 -120 336q0 293 194 477q168 160 408 160zM651 834q-102 0 -165 -128q-54 -111 -54 -274q0 -191 147 -191q100 0 161 128q52 111 52 276q0 189 -141 189z
M727 1546h418l-279 -367h-268z" />
    <glyph glyph-name="ocircumflex" unicode="&#xf4;" horiz-adv-x="1225" 
d="M665 1100q240 0 377 -151q119 -132 119 -337q0 -301 -190 -481q-165 -156 -412 -156q-237 0 -376 152q-120 133 -120 336q0 293 194 477q168 160 408 160zM651 834q-102 0 -165 -128q-54 -111 -54 -274q0 -191 147 -191q100 0 161 128q52 111 52 276q0 189 -141 189z
M700 1546h266l158 -356h-250l-82 125l-127 -125h-258z" />
    <glyph glyph-name="otilde" unicode="&#xf5;" horiz-adv-x="1224" 
d="M665 1100q240 0 377 -151q119 -132 119 -337q0 -301 -190 -481q-165 -156 -412 -156q-237 0 -376 152q-120 133 -120 336q0 293 194 477q168 160 408 160zM651 834q-102 0 -165 -128q-54 -111 -54 -274q0 -191 147 -191q100 0 161 128q52 111 52 276q0 189 -141 189z
M1164 1509q-71 -324 -282 -324q-72 0 -164 56q-45 27 -72 27q-47 0 -75 -74l-195 12q41 180 114 257q64 67 165 67q68 0 149 -52q51 -31 82 -31q23 0 36.5 15t31.5 59z" />
    <glyph glyph-name="odieresis" unicode="&#xf6;" horiz-adv-x="1224" 
d="M665 1100q240 0 377 -151q119 -132 119 -337q0 -301 -190 -481q-165 -156 -412 -156q-237 0 -376 152q-120 133 -120 336q0 293 194 477q168 160 408 160zM651 834q-102 0 -165 -128q-54 -111 -54 -274q0 -191 147 -191q100 0 161 128q52 111 52 276q0 189 -141 189z
M562 1544q76 0 123 -53q41 -45 41 -111q0 -87 -66 -147q-57 -51 -132 -51t-121 53q-41 46 -41 113q0 85 66 145q56 51 130 51zM1013 1544q76 0 123 -53q41 -45 41 -111q0 -87 -66 -147q-57 -51 -132 -51t-120 53q-40 46 -40 113q0 85 65 145q55 51 129 51z" />
    <glyph glyph-name="divide" unicode="&#xf7;" horiz-adv-x="1243" 
d="M763 1341q81 0 133 -57q44 -48 44 -117q0 -99 -71 -164q-62 -57 -146 -57q-82 0 -134 57q-45 49 -45 119q0 96 73 162q64 57 146 57zM206 850h961l-64 -307h-958zM590 449q82 0 133 -56q45 -49 45 -120q0 -98 -73 -163q-62 -57 -147 -57q-80 0 -132 57q-44 49 -44 120
q0 97 72 162q63 57 146 57z" />
    <glyph glyph-name="oslash" unicode="&#xf8;" horiz-adv-x="1226" 
d="M160 0h-223l201 190q-74 115 -74 273q0 293 194 477q168 160 408 160q191 0 326 -105l80 76h223l-201 -190q68 -118 68 -269q0 -299 -189 -480q-164 -157 -407 -157q-191 0 -324 101zM768 786q-43 56 -116 56q-129 0 -191 -182q-31 -99 -35 -199zM463 287q44 -54 115 -54
q133 0 195 197q26 98 28 174z" />
    <glyph glyph-name="ugrave" unicode="&#xf9;" horiz-adv-x="1218" 
d="M668 186q-73 -114 -152.5 -164.5t-187.5 -50.5q-129 0 -197 87q-59 76 -59 204q0 62 12 123l133 686h369l-125 -647q-6 -28 -6 -66q0 -96 92 -96q136 0 176 209l117 600h369l-209 -1071h-369zM441 1542h391l49 -367h-260z" />
    <glyph glyph-name="uacute" unicode="&#xfa;" horiz-adv-x="1218" 
d="M668 186q-73 -114 -152.5 -164.5t-187.5 -50.5q-129 0 -197 87q-59 76 -59 204q0 62 12 123l133 686h369l-125 -647q-6 -28 -6 -66q0 -96 92 -96q136 0 176 209l117 600h369l-209 -1071h-369zM725 1546h418l-279 -367h-268z" />
    <glyph glyph-name="ucircumflex" unicode="&#xfb;" horiz-adv-x="1218" 
d="M668 186q-73 -114 -152.5 -164.5t-187.5 -50.5q-129 0 -197 87q-59 76 -59 204q0 62 12 123l133 686h369l-125 -647q-6 -28 -6 -66q0 -96 92 -96q136 0 176 209l117 600h369l-209 -1071h-369zM699 1546h266l158 -356h-250l-82 125l-127 -125h-258z" />
    <glyph glyph-name="udieresis" unicode="&#xfc;" horiz-adv-x="1218" 
d="M668 186q-73 -114 -152.5 -164.5t-187.5 -50.5q-129 0 -197 87q-59 76 -59 204q0 62 12 123l133 686h369l-125 -647q-6 -28 -6 -66q0 -96 92 -96q136 0 176 209l117 600h369l-209 -1071h-369zM561 1544q76 0 123 -53q41 -45 41 -111q0 -87 -66 -147q-57 -51 -132 -51
t-121 53q-41 46 -41 113q0 85 66 145q56 51 130 51zM1012 1544q76 0 123 -53q41 -45 41 -111q0 -87 -66 -147q-57 -51 -132 -51t-120 53q-40 46 -40 113q0 85 65 145q55 51 129 51z" />
    <glyph glyph-name="yacute" unicode="&#xfd;" horiz-adv-x="1194" 
d="M635 -72q-103 -182 -220 -254q-102 -63 -249 -63q-150 0 -250 71l133 254q47 -34 117 -34q53 0 87.5 26.5t72.5 95.5l-191 1047h381l82 -610l311 610h367zM713 1546h418l-279 -367h-268z" />
    <glyph glyph-name="thorn" unicode="&#xfe;" horiz-adv-x="1269" 
d="M318 1542h368l-121 -629q132 187 326 187q161 0 245 -129q73 -113 73 -303q0 -321 -160 -519q-138 -172 -340 -172q-210 0 -285 213l-108 -563h-369zM695 826q-103 0 -168 -125q-56 -109 -56 -265q0 -178 142 -178q103 0 163 117q52 102 52 258q0 193 -133 193z" />
    <glyph glyph-name="ydieresis" unicode="&#xff;" horiz-adv-x="1194" 
d="M635 -72q-103 -182 -220 -254q-102 -63 -249 -63q-150 0 -250 71l133 254q47 -34 117 -34q53 0 87.5 26.5t72.5 95.5l-191 1047h381l82 -610l311 610h367zM548 1544q76 0 123 -53q41 -45 41 -111q0 -87 -66 -147q-57 -51 -132 -51t-121 53q-41 46 -41 113q0 85 66 145
q56 51 130 51zM999 1544q76 0 123 -53q41 -45 41 -111q0 -87 -66 -147q-57 -51 -132 -51t-120 53q-40 46 -40 113q0 85 65 145q55 51 129 51z" />
    <glyph glyph-name="Amacron" unicode="&#x100;" 
d="M415 252l-118 -252h-371l756 1464h479l182 -1464h-405l-23 252h-500zM837 1139l-284 -602h338zM733 1864h531l-48 -246h-532z" />
    <glyph glyph-name="amacron" unicode="&#x101;" horiz-adv-x="1131" 
d="M606 0q-11 41 -11 131q-52 -82 -118.5 -119t-159.5 -37q-142 0 -224 89q-71 78 -71 198q0 272 311 346q154 35 346 35q1 5 2 15q2 23 2 34q0 111 -133 111q-118 0 -278 -72l-123 256q117 62 223 87.5t244 25.5q438 0 438 -338q0 -50 -14 -133l-80 -416q-12 -61 -12 -119
q0 -50 12 -82v-12h-354zM640 444q-141 -1 -199 -37q-50 -31 -50 -96q0 -78 82 -78q127 0 157 160zM485 1487h531l-48 -246h-532z" />
    <glyph glyph-name="Abreve" unicode="&#x102;" 
d="M415 252l-118 -252h-371l756 1464h479l182 -1464h-405l-23 252h-500zM837 1139l-284 -602h338zM849 1921q4 -69 29.5 -96t87.5 -27q64 0 94.5 28t40.5 95h236q-31 -195 -128 -275q-86 -71 -241 -71q-104 0 -183.5 34t-119.5 95q-49 75 -49 217h233z" />
    <glyph glyph-name="abreve" unicode="&#x103;" horiz-adv-x="1130" 
d="M606 0q-11 41 -11 131q-52 -82 -118.5 -119t-159.5 -37q-142 0 -224 89q-71 78 -71 198q0 272 311 346q154 35 346 35q1 5 2 15q2 23 2 34q0 111 -133 111q-118 0 -278 -72l-123 256q117 62 223 87.5t244 25.5q438 0 438 -338q0 -50 -14 -133l-80 -416q-12 -61 -12 -119
q0 -50 12 -82v-12h-354zM640 444q-141 -1 -199 -37q-50 -31 -50 -96q0 -78 82 -78q127 0 157 160zM622 1544v-16q0 -121 99 -121q54 0 79.5 31t32.5 106h236q-28 -204 -120 -288q-81 -72 -228 -72q-195 0 -279 119q-30 42 -41.5 95t-11.5 146h233z" />
    <glyph glyph-name="Aogonek" unicode="&#x104;" horiz-adv-x="1478" 
d="M1343 0q-153 -107 -153 -207q0 -51 59 -51q29 0 72 31l69 -119q-43 -38 -85 -53t-105 -15q-105 0 -162 51q-49 44 -49 117q0 72 49 137t135 109h-235l-23 252h-500l-118 -252h-371l756 1464h479zM837 1139l-284 -602h338z" />
    <glyph glyph-name="aogonek" unicode="&#x105;" horiz-adv-x="1131" 
d="M960 0q-153 -107 -153 -207q0 -51 57 -51q31 0 73 31l70 -119q-81 -68 -190 -68q-105 0 -162 50q-49 44 -49 116q0 73 49 139t135 109h-184q-11 41 -11 131q-52 -82 -118.5 -119t-159.5 -37q-142 0 -224 89q-71 78 -71 198q0 272 311 346q154 35 346 35q1 5 2 15
q2 23 2 34q0 111 -133 111q-118 0 -278 -72l-123 256q117 62 223 87.5t244 25.5q438 0 438 -338q0 -50 -14 -133l-80 -416q-12 -61 -12 -119q0 -50 12 -82v-12zM640 444q-141 -1 -199 -37q-50 -31 -50 -96q0 -78 82 -78q127 0 157 160z" />
    <glyph glyph-name="Cacute" unicode="&#x106;" horiz-adv-x="1422" 
d="M1347 371q-52 -108 -105.5 -174t-130.5 -115q-158 -107 -389 -107q-310 0 -470 190q-140 166 -140 449q0 416 237 661q206 212 519 212q250 0 403 -129q64 -53 103 -119t71 -176l-360 -121q-25 104 -53 146q-56 86 -172 86q-157 0 -244 -158q-98 -174 -98 -422
q0 -304 227 -304q92 0 157.5 55.5t116.5 176.5zM898 1933h418l-279 -369h-268z" />
    <glyph glyph-name="cacute" unicode="&#x107;" horiz-adv-x="1118" 
d="M1029 270q-84 -161 -210 -232q-111 -63 -266 -63q-244 0 -374 147q-113 127 -113 341q0 306 183 483q158 154 403 154q179 0 287 -82q94 -71 147 -215l-309 -115q-17 78 -47 110t-86 32q-99 0 -158 -123q-51 -107 -51 -267q0 -195 137 -195q116 0 180 161zM676 1546h418
l-279 -367h-268z" />
    <glyph glyph-name="Ccircumflex" unicode="&#x108;" horiz-adv-x="1422" 
d="M1347 371q-52 -108 -105.5 -174t-130.5 -115q-158 -107 -389 -107q-310 0 -470 190q-140 166 -140 449q0 416 237 661q206 212 519 212q250 0 403 -129q64 -53 103 -119t71 -176l-360 -121q-25 104 -53 146q-56 86 -172 86q-157 0 -244 -158q-98 -174 -98 -422
q0 -304 227 -304q92 0 157.5 55.5t116.5 176.5zM856 1933h266l158 -356h-250l-82 125l-127 -125h-258z" />
    <glyph glyph-name="ccircumflex" unicode="&#x109;" horiz-adv-x="1118" 
d="M1029 270q-84 -161 -210 -232q-111 -63 -266 -63q-244 0 -374 147q-113 127 -113 341q0 306 183 483q158 154 403 154q179 0 287 -82q94 -71 147 -215l-309 -115q-17 78 -47 110t-86 32q-99 0 -158 -123q-51 -107 -51 -267q0 -195 137 -195q116 0 180 161zM650 1546h266
l158 -356h-250l-82 125l-127 -125h-258z" />
    <glyph glyph-name="Cdotaccent" unicode="&#x10a;" horiz-adv-x="1422" 
d="M1347 371q-52 -108 -105.5 -174t-130.5 -115q-158 -107 -389 -107q-310 0 -470 190q-140 166 -140 449q0 416 237 661q206 212 519 212q250 0 403 -129q64 -53 103 -119t71 -176l-360 -121q-25 104 -53 146q-56 86 -172 86q-157 0 -244 -158q-98 -174 -98 -422
q0 -304 227 -304q92 0 157.5 55.5t116.5 176.5zM959 1898q76 0 123 -52q41 -45 41 -110q0 -88 -66 -148q-57 -52 -132 -52q-74 0 -121 54q-41 46 -41 112q0 85 66 145q56 51 130 51z" />
    <glyph glyph-name="cdotaccent" unicode="&#x10b;" horiz-adv-x="1118" 
d="M1029 270q-84 -161 -210 -232q-111 -63 -266 -63q-244 0 -374 147q-113 127 -113 341q0 306 183 483q158 154 403 154q179 0 287 -82q94 -71 147 -215l-309 -115q-17 78 -47 110t-86 32q-99 0 -158 -123q-51 -107 -51 -267q0 -195 137 -195q116 0 180 161zM739 1544
q76 0 123 -53q41 -45 41 -111q0 -87 -66 -147q-57 -51 -132 -51t-121 53q-41 46 -41 113q0 85 66 145q56 51 130 51z" />
    <glyph glyph-name="Ccaron" unicode="&#x10c;" horiz-adv-x="1422" 
d="M1347 371q-52 -108 -105.5 -174t-130.5 -115q-158 -107 -389 -107q-310 0 -470 190q-140 166 -140 449q0 416 237 661q206 212 519 212q250 0 403 -129q64 -53 103 -119t71 -176l-360 -121q-25 104 -53 146q-56 86 -172 86q-157 0 -244 -158q-98 -174 -98 -422
q0 -304 227 -304q92 0 157.5 55.5t116.5 176.5zM632 1933h250l82 -125l127 125h260l-295 -356h-266z" />
    <glyph glyph-name="ccaron" unicode="&#x10d;" horiz-adv-x="1117" 
d="M1029 270q-84 -161 -210 -232q-111 -63 -266 -63q-244 0 -374 147q-113 127 -113 341q0 306 183 483q158 154 403 154q179 0 287 -82q94 -71 147 -215l-309 -115q-17 78 -47 110t-86 32q-99 0 -158 -123q-51 -107 -51 -267q0 -195 137 -195q116 0 180 161zM408 1546h250
l82 -125l127 125h260l-295 -356h-266z" />
    <glyph glyph-name="Dcaron" unicode="&#x10e;" horiz-adv-x="1511" 
d="M331 1464h549q304 0 459 -179q134 -157 134 -429q0 -427 -249 -656q-216 -200 -574 -200h-604zM671 315q201 0 305 159q91 139 91 376q0 165 -69 236q-60 63 -180 63h-156l-161 -834h170zM531 1933h250l82 -125l127 125h260l-295 -356h-266z" />
    <glyph glyph-name="dcaron" unicode="&#x10f;" horiz-adv-x="1642" 
d="M714 172q-68 -102 -143.5 -148.5t-174.5 -46.5q-161 0 -245 128q-74 112 -74 302q0 322 155 521q135 172 330 172q209 0 293 -197l123 639h369l-299 -1542h-369zM667 826q-105 0 -167 -118q-54 -102 -54 -258q0 -199 139 -199q99 0 164 130q57 112 57 266q0 179 -139 179
zM1398 1175q143 20 163 96q-59 8 -94 46t-35 96q0 63 47.5 106t116.5 43q79 0 126 -56q40 -49 40 -122q0 -148 -102 -238q-55 -48 -120 -69.5t-169 -26.5z" />
    <glyph glyph-name="Dcroat" unicode="&#x110;" horiz-adv-x="1513" 
d="M882 1464q305 0 459 -179q135 -157 135 -429q0 -427 -249 -656q-217 -200 -575 -200h-604l113 583h-117l53 283h119l117 598h549zM673 315q201 0 306 159q91 139 91 376q0 165 -69 236q-60 63 -181 63h-155l-56 -283h226l-58 -283h-223l-51 -268h170z" />
    <glyph glyph-name="dcroat" unicode="&#x111;" horiz-adv-x="1278" 
d="M978 1542h369l-29 -153h113l-43 -221h-113l-227 -1168h-369l35 172q-68 -102 -143.5 -148.5t-174.5 -46.5q-161 0 -245 128q-74 112 -74 302q0 322 155 521q135 172 330 172q209 0 293 -197l51 265h-225l43 221h225zM667 825q-105 0 -167 -117q-54 -102 -54 -258
q0 -199 139 -199q99 0 164 129q57 113 57 267q0 178 -139 178z" />
    <glyph glyph-name="Emacron" unicode="&#x112;" horiz-adv-x="1275" 
d="M331 1464h1007l-57 -307h-623l-51 -264h443l-60 -291h-440l-58 -295h654l-60 -307h-1040zM632 1864h531l-48 -246h-532z" />
    <glyph glyph-name="emacron" unicode="&#x113;" horiz-adv-x="1141" 
d="M546 -25q-250 0 -376 136q-109 119 -109 327q0 311 200 499q174 163 433 163q200 0 310 -98q95 -86 95 -226q0 -204 -207 -287q-140 -55 -464 -63v-20q0 -161 143 -161q83 0 143.5 22t120.5 75l168 -217q-101 -82 -205 -116t-252 -34zM450 625q173 0 247 33q64 29 64 90
q0 41 -27.5 65.5t-74.5 24.5q-149 0 -209 -213zM491 1487h531l-48 -246h-532z" />
    <glyph glyph-name="Ebreve" unicode="&#x114;" horiz-adv-x="1275" 
d="M331 1464h1007l-57 -307h-623l-51 -264h443l-60 -291h-440l-58 -295h654l-60 -307h-1040zM748 1921q4 -69 29.5 -96t87.5 -27q64 0 94.5 28t40.5 95h236q-31 -195 -128 -275q-86 -71 -241 -71q-104 0 -183.5 34t-119.5 95q-49 75 -49 217h233z" />
    <glyph glyph-name="ebreve" unicode="&#x115;" horiz-adv-x="1141" 
d="M546 -25q-250 0 -376 136q-109 119 -109 327q0 311 200 499q174 163 433 163q200 0 310 -98q95 -86 95 -226q0 -204 -207 -287q-140 -55 -464 -63v-20q0 -161 143 -161q83 0 143.5 22t120.5 75l168 -217q-101 -82 -205 -116t-252 -34zM450 625q173 0 247 33q64 29 64 90
q0 41 -27.5 65.5t-74.5 24.5q-149 0 -209 -213zM628 1544v-16q0 -121 99 -121q54 0 79.5 31t32.5 106h236q-28 -204 -120 -288q-81 -72 -228 -72q-195 0 -279 119q-30 42 -41.5 95t-11.5 146h233z" />
    <glyph glyph-name="Edotaccent" unicode="&#x116;" horiz-adv-x="1275" 
d="M331 1464h1007l-57 -307h-623l-51 -264h443l-60 -291h-440l-58 -295h654l-60 -307h-1040zM883 1898q76 0 123 -52q41 -45 41 -110q0 -88 -66 -148q-57 -52 -132 -52q-74 0 -121 54q-41 46 -41 112q0 85 66 145q56 51 130 51z" />
    <glyph glyph-name="edotaccent" unicode="&#x117;" horiz-adv-x="1141" 
d="M546 -25q-250 0 -376 136q-109 119 -109 327q0 311 200 499q174 163 433 163q200 0 310 -98q95 -86 95 -226q0 -204 -207 -287q-140 -55 -464 -63v-20q0 -161 143 -161q83 0 143.5 22t120.5 75l168 -217q-101 -82 -205 -116t-252 -34zM450 625q173 0 247 33q64 29 64 90
q0 41 -27.5 65.5t-74.5 24.5q-149 0 -209 -213zM749 1544q76 0 123 -53q41 -45 41 -111q0 -87 -66 -147q-57 -51 -132 -51t-121 53q-41 46 -41 113q0 85 66 145q56 51 130 51z" />
    <glyph glyph-name="Eogonek" unicode="&#x118;" horiz-adv-x="1275" 
d="M1086 0q-153 -110 -153 -207q0 -51 59 -51q29 0 72 31l69 -119q-43 -38 -85 -53t-105 -15q-105 0 -162 51q-49 44 -49 117q0 72 49 137t135 109h-870l285 1464h1007l-57 -307h-623l-51 -264h443l-60 -291h-440l-58 -295h654z" />
    <glyph glyph-name="eogonek" unicode="&#x119;" horiz-adv-x="1141" 
d="M892 489q-140 -55 -464 -63v-21q0 -159 143 -159q83 0 143.5 22t120.5 74l168 -217q-170 -136 -397 -148q-56 -40 -89.5 -90.5t-33.5 -93.5q0 -51 57 -51q31 0 74 31l70 -119q-82 -68 -191 -68q-105 0 -162 51q-49 44 -49 117q0 132 154 229q-375 62 -375 455
q0 311 200 499q174 163 433 163q200 0 310 -98q95 -86 95 -226q0 -204 -207 -287zM659 838q-149 0 -209 -213q173 0 247 33q64 29 64 90q0 41 -27.5 65.5t-74.5 24.5z" />
    <glyph glyph-name="Ecaron" unicode="&#x11a;" horiz-adv-x="1275" 
d="M331 1464h1007l-57 -307h-623l-51 -264h443l-60 -291h-440l-58 -295h654l-60 -307h-1040zM556 1933h250l82 -125l127 125h260l-295 -356h-266z" />
    <glyph glyph-name="ecaron" unicode="&#x11b;" horiz-adv-x="1139" 
d="M546 -25q-250 0 -376 136q-109 119 -109 327q0 311 200 499q174 163 433 163q200 0 310 -98q95 -86 95 -226q0 -204 -207 -287q-140 -55 -464 -63v-20q0 -161 143 -161q83 0 143.5 22t120.5 75l168 -217q-101 -82 -205 -116t-252 -34zM450 625q173 0 247 33q64 29 64 90
q0 41 -27.5 65.5t-74.5 24.5q-149 0 -209 -213zM417 1546h250l82 -125l127 125h260l-295 -356h-266z" />
    <glyph glyph-name="Gcircumflex" unicode="&#x11c;" horiz-adv-x="1575" 
d="M1105 211q-75 -122 -202 -183q-111 -53 -248 -53q-266 0 -413 194q-128 169 -128 441q0 258 101 459q99 197 278 306q182 112 414 112q244 0 388 -98q129 -87 191 -261l-375 -125q-26 98 -78.5 139.5t-150.5 41.5q-173 0 -274 -181q-88 -158 -88 -399q0 -334 256 -334
q140 0 221 94q25 32 46 82t21 79v20h-243l53 272h622l-155 -817h-201zM913 1933h266l158 -356h-250l-82 125l-127 -125h-258z" />
    <glyph glyph-name="gcircumflex" unicode="&#x11d;" horiz-adv-x="1163" 
d="M1038 836q10 -43 10 -86q0 -178 -142 -277q-123 -86 -319 -86q-112 0 -212 28q-33 -35 -33 -77q0 -34 24 -48t82 -14h168q198 0 300 -88q89 -76 89 -207q0 -203 -172 -307q-149 -90 -407 -90q-253 0 -386 77q-116 68 -116 181q0 153 223 217q-96 63 -96 160
q0 155 211 250q-131 95 -131 244q0 181 151 291q132 96 326 96q180 0 309 -88l307 81l-51 -257h-135zM612 894q-66 0 -107.5 -53t-41.5 -138q0 -125 112 -125q64 0 105.5 55.5t41.5 141.5q0 119 -110 119zM323 16q-65 -39 -65 -109q0 -102 182 -102q221 0 221 121
q0 90 -121 90h-217zM641 1546h266l158 -356h-250l-82 125l-127 -125h-258z" />
    <glyph glyph-name="Gbreve" unicode="&#x11e;" horiz-adv-x="1575" 
d="M1105 211q-75 -122 -202 -183q-111 -53 -248 -53q-266 0 -413 194q-128 169 -128 441q0 258 101 459q99 197 278 306q182 112 414 112q244 0 388 -98q129 -87 191 -261l-375 -125q-26 98 -78.5 139.5t-150.5 41.5q-173 0 -274 -181q-88 -158 -88 -399q0 -334 256 -334
q140 0 221 94q25 32 46 82t21 79v20h-243l53 272h622l-155 -817h-201zM882 1921q4 -69 29.5 -96t87.5 -27q64 0 94.5 28t40.5 95h236q-31 -195 -128 -275q-86 -71 -241 -71q-104 0 -183.5 34t-119.5 95q-49 75 -49 217h233z" />
    <glyph glyph-name="gbreve" unicode="&#x11f;" horiz-adv-x="1163" 
d="M1038 836q10 -43 10 -86q0 -178 -142 -277q-123 -86 -319 -86q-112 0 -212 28q-33 -35 -33 -77q0 -34 24 -48t82 -14h168q198 0 300 -88q89 -76 89 -207q0 -203 -172 -307q-149 -90 -407 -90q-253 0 -386 77q-116 68 -116 181q0 153 223 217q-96 63 -96 160
q0 155 211 250q-131 95 -131 244q0 181 151 291q132 96 326 96q180 0 309 -88l307 81l-51 -257h-135zM612 894q-66 0 -107.5 -53t-41.5 -138q0 -125 112 -125q64 0 105.5 55.5t41.5 141.5q0 119 -110 119zM323 16q-65 -39 -65 -109q0 -102 182 -102q221 0 221 121
q0 90 -121 90h-217zM610 1544v-16q0 -121 99 -121q54 0 79.5 31t32.5 106h236q-28 -204 -120 -288q-81 -72 -228 -72q-195 0 -279 119q-30 42 -41.5 95t-11.5 146h233z" />
    <glyph glyph-name="Gdotaccent" unicode="&#x120;" horiz-adv-x="1575" 
d="M1105 211q-75 -122 -202 -183q-111 -53 -248 -53q-266 0 -413 194q-128 169 -128 441q0 258 101 459q99 197 278 306q182 112 414 112q244 0 388 -98q129 -87 191 -261l-375 -125q-26 98 -78.5 139.5t-150.5 41.5q-173 0 -274 -181q-88 -158 -88 -399q0 -334 256 -334
q140 0 221 94q25 32 46 82t21 79v20h-243l53 272h622l-155 -817h-201zM1017 1898q76 0 123 -52q41 -45 41 -110q0 -88 -66 -148q-57 -52 -132 -52q-74 0 -121 54q-41 46 -41 112q0 85 66 145q56 51 130 51z" />
    <glyph glyph-name="gdotaccent" unicode="&#x121;" horiz-adv-x="1163" 
d="M1038 836q10 -43 10 -86q0 -178 -142 -277q-123 -86 -319 -86q-112 0 -212 28q-33 -35 -33 -77q0 -34 24 -48t82 -14h168q198 0 300 -88q89 -76 89 -207q0 -203 -172 -307q-149 -90 -407 -90q-253 0 -386 77q-116 68 -116 181q0 153 223 217q-96 63 -96 160
q0 155 211 250q-131 95 -131 244q0 181 151 291q132 96 326 96q180 0 309 -88l307 81l-51 -257h-135zM612 894q-66 0 -107.5 -53t-41.5 -138q0 -125 112 -125q64 0 105.5 55.5t41.5 141.5q0 119 -110 119zM323 16q-65 -39 -65 -109q0 -102 182 -102q221 0 221 121
q0 90 -121 90h-217zM730 1544q76 0 123 -53q41 -45 41 -111q0 -87 -66 -147q-57 -51 -132 -51t-121 53q-41 46 -41 113q0 85 66 145q56 51 130 51z" />
    <glyph glyph-name="Gcommaaccent" unicode="&#x122;" horiz-adv-x="1575" 
d="M1105 211q-75 -122 -202 -183q-111 -53 -248 -53q-266 0 -413 194q-128 169 -128 441q0 258 101 459q99 197 278 306q182 112 414 112q244 0 388 -98q129 -87 191 -261l-375 -125q-26 98 -78.5 139.5t-150.5 41.5q-173 0 -274 -181q-88 -158 -88 -399q0 -334 256 -334
q140 0 221 94q25 32 46 82t21 79v20h-243l53 272h622l-155 -817h-201zM454 -463q77 13 115 35t48 61q-60 10 -94.5 47.5t-34.5 94.5q0 63 47.5 106t116.5 43q79 0 126 -56q40 -49 40 -122q0 -145 -102 -238q-54 -47 -118 -68.5t-171 -27.5z" />
    <glyph glyph-name="gcommaaccent" unicode="&#x123;" horiz-adv-x="1163" 
d="M893 1550q-142 -23 -162 -98q58 -6 93.5 -44t35.5 -95q0 -65 -47.5 -108.5t-118.5 -43.5q-77 0 -124 56q-40 49 -40 122q0 147 100 238q52 47 117 68.5t174 27.5zM1038 836q10 -43 10 -86q0 -178 -142 -277q-123 -86 -319 -86q-112 0 -212 28q-33 -35 -33 -77
q0 -34 24 -48t82 -14h168q198 0 300 -88q89 -76 89 -207q0 -203 -172 -307q-149 -90 -407 -90q-253 0 -386 77q-116 68 -116 181q0 153 223 217q-96 63 -96 160q0 155 211 250q-131 95 -131 244q0 181 151 291q132 96 326 96q180 0 309 -88l307 81l-51 -257h-135zM612 894
q-66 0 -107.5 -53t-41.5 -138q0 -125 112 -125q64 0 105.5 55.5t41.5 141.5q0 119 -110 119zM323 16q-65 -39 -65 -109q0 -102 182 -102q221 0 221 121q0 90 -121 90h-217z" />
    <glyph glyph-name="Hcircumflex" unicode="&#x124;" horiz-adv-x="1515" 
d="M331 1464h393l-111 -565h430l111 565h393l-284 -1464h-394l115 586h-430l-115 -586h-393zM900 1933h266l158 -356h-250l-82 125l-127 -125h-258z" />
    <glyph glyph-name="hcircumflex" unicode="&#x125;" horiz-adv-x="1222" 
d="M312 1542h369l-125 -653q72 111 152.5 161t187.5 50q128 0 198 -86q60 -76 60 -199q0 -58 -19 -149l-127 -666h-368l123 639q6 31 6 59q0 103 -94 103q-88 0 -138 -90q-23 -42 -45 -156l-110 -555h-369zM458 2013h266l158 -356h-250l-82 125l-127 -125h-258z" />
    <glyph glyph-name="Hbar" unicode="&#x126;" horiz-adv-x="1523" 
d="M136 1266h156l39 198h393l-39 -198h430l39 198h393l-39 -198h162l-41 -203h-160l-206 -1063h-394l115 586h-430l-115 -586h-393l207 1063h-156zM1043 899l31 164h-430l-31 -164h430z" />
    <glyph glyph-name="hbar" unicode="&#x127;" horiz-adv-x="1222" 
d="M312 1542h369l-29 -153h223l-43 -221h-223l-53 -279q72 111 152.5 161t187.5 50q128 0 198 -86q60 -76 60 -199q0 -58 -19 -149l-127 -666h-368l123 639q6 31 6 59q0 103 -94 103q-88 0 -138 -90q-23 -42 -45 -156l-110 -555h-369l227 1168h-114l43 221h112z" />
    <glyph glyph-name="Itilde" unicode="&#x128;" horiz-adv-x="723" 
d="M338 1464h395l-285 -1464h-395zM980 1884q-71 -323 -284 -323q-70 0 -158 51q-48 31 -76 31q-47 0 -75 -74l-195 12q41 180 114 257q64 67 165 67q68 0 149 -51q51 -31 82 -31q23 0 36.5 15t31.5 58z" />
    <glyph glyph-name="itilde" unicode="&#x129;" horiz-adv-x="635" 
d="M231 1071h366l-208 -1071h-367zM863 1509q-71 -324 -282 -324q-72 0 -164 56q-45 27 -72 27q-47 0 -75 -74l-195 12q41 180 114 257q64 67 165 67q68 0 149 -52q51 -31 82 -31q23 0 36.5 15t31.5 59z" />
    <glyph glyph-name="Imacron" unicode="&#x12a;" horiz-adv-x="716" 
d="M338 1464h395l-285 -1464h-395zM348 1864h531l-48 -246h-532z" />
    <glyph glyph-name="imacron" unicode="&#x12b;" horiz-adv-x="628" 
d="M231 1071h366l-208 -1071h-367zM231 1487h531l-48 -246h-532z" />
    <glyph glyph-name="Ibreve" unicode="&#x12c;" horiz-adv-x="721" 
d="M338 1464h395l-285 -1464h-395zM464 1921q4 -69 29.5 -96t87.5 -27q64 0 94.5 28t40.5 95h236q-31 -195 -128 -275q-86 -71 -241 -71q-104 0 -183.5 34t-119.5 95q-49 75 -49 217h233z" />
    <glyph glyph-name="ibreve" unicode="&#x12d;" horiz-adv-x="632" 
d="M231 1071h366l-208 -1071h-367zM368 1544v-16q0 -121 99 -121q54 0 79.5 31t32.5 106h236q-28 -204 -120 -288q-81 -72 -228 -72q-195 0 -279 119q-30 42 -41.5 95t-11.5 146h233z" />
    <glyph glyph-name="Iogonek" unicode="&#x12e;" horiz-adv-x="706" 
d="M448 0q-153 -106 -153 -207q0 -51 59 -51q29 0 72 31l69 -119q-43 -38 -85 -53t-105 -15q-105 0 -162 51q-49 44 -49 117q0 72 49 137t135 109h-225l285 1464h395z" />
    <glyph glyph-name="iogonek" unicode="&#x12f;" horiz-adv-x="621" 
d="M489 1563q87 0 138 -55q44 -48 44 -122q0 -99 -72 -163q-62 -56 -149 -56q-84 0 -136 57q-46 50 -46 122q0 96 73 161q64 56 148 56zM389 0q-154 -109 -154 -207q0 -51 57 -51q32 0 74 31l70 -119q-82 -68 -191 -68q-105 0 -162 50q-49 44 -49 116q0 73 49 138.5
t136 109.5h-197l209 1071h366z" />
    <glyph glyph-name="Idotaccent" unicode="&#x130;" horiz-adv-x="708" 
d="M338 1464h395l-285 -1464h-395zM599 1898q76 0 123 -52q41 -45 41 -110q0 -88 -66 -148q-57 -52 -132 -52q-74 0 -121 54q-41 46 -41 112q0 85 66 145q56 51 130 51z" />
    <glyph glyph-name="dotlessi" unicode="&#x131;" horiz-adv-x="619" 
d="M231 1071h366l-208 -1071h-367z" />
    <glyph glyph-name="IJ" unicode="&#x132;" horiz-adv-x="1997" 
d="M338 1464h395l-285 -1464h-395zM1837 440q-48 -243 -213 -361q-145 -104 -369 -104q-243 0 -369 126q-110 111 -110 298q0 75 18 162h379q-18 -98 -18 -133q0 -140 125 -140q76 0 114.5 45t61.5 162l188 969h394z" />
    <glyph glyph-name="ij" unicode="&#x133;" horiz-adv-x="1270" 
d="M489 1563q87 0 138 -55q44 -48 44 -122q0 -99 -72 -163q-62 -56 -149 -56q-84 0 -136 57q-46 50 -46 122q0 96 73 161q64 56 148 56zM231 1071h366l-208 -1071h-367zM1139 1563q87 0 138 -55q44 -48 44 -122q0 -99 -72 -163q-62 -56 -150 -56q-84 0 -136 57
q-46 50 -46 122q0 96 74 161q63 56 148 56zM1030 -43q-68 -348 -398 -348q-143 0 -229 61l100 260q38 -20 76 -20q43 0 63.5 22.5t32.5 83.5l205 1055h367z" />
    <glyph glyph-name="Jcircumflex" unicode="&#x134;" horiz-adv-x="1305" 
d="M1131 440q-48 -243 -213 -361q-145 -104 -369 -104q-243 0 -369 126q-110 111 -110 298q0 75 18 162h379q-18 -98 -18 -133q0 -140 125 -140q76 0 114.5 45t61.5 162l188 969h394zM1096 1933h266l158 -356h-250l-82 125l-127 -125h-258z" />
    <glyph glyph-name="jcircumflex" unicode="&#x135;" horiz-adv-x="659" 
d="M408 -43q-68 -348 -398 -348q-143 0 -229 61l100 260q38 -20 76 -20q43 0 63.5 22.5t32.5 83.5l205 1055h367zM420 1546h266l158 -356h-250l-82 125l-127 -125h-258z" />
    <glyph glyph-name="Kcommaaccent" unicode="&#x136;" horiz-adv-x="1450" 
d="M331 1464h393l-113 -573l504 573h436l-594 -635l349 -829h-416l-236 538l-137 -139l-78 -399h-393zM429 -463q77 13 115 35t48 61q-60 10 -94.5 47.5t-34.5 94.5q0 63 47.5 106t116.5 43q79 0 126 -56q40 -49 40 -122q0 -145 -102 -238q-54 -47 -118 -68.5t-171 -27.5z
" />
    <glyph glyph-name="kcommaaccent" unicode="&#x137;" horiz-adv-x="1207" 
d="M537 387l-100 -98l-55 -289h-369l299 1542h369l-162 -829l342 358h401l-438 -430l256 -641h-387zM308 -463q77 13 115 35t48 61q-60 10 -94.5 47.5t-34.5 94.5q0 63 47.5 106t116.5 43q79 0 126 -56q40 -49 40 -122q0 -145 -102 -238q-54 -47 -118 -68.5t-171 -27.5z" />
    <glyph glyph-name="kgreenlandic" unicode="&#x138;" horiz-adv-x="1295" 
d="M221 1067h366l-70 -389l404 389h412l-508 -461l344 -604h-387l-228 379l-106 -94l-55 -285h-365z" />
    <glyph glyph-name="Lacute" unicode="&#x139;" horiz-adv-x="1207" 
d="M331 1464h393l-223 -1151h581l-61 -313h-975zM531 1933h418l-279 -369h-268z" />
    <glyph glyph-name="lacute" unicode="&#x13a;" horiz-adv-x="743" 
d="M335 -23q-258 0 -258 250q0 91 18 179l238 1136h373l-230 -1098q-14 -71 -14 -112q0 -74 64 -74q41 0 86 31l2 -254q-86 -58 -279 -58zM523 2011h418l-279 -367h-268z" />
    <glyph glyph-name="Lcommaaccent" unicode="&#x13b;" horiz-adv-x="1207" 
d="M331 1464h393l-223 -1151h581l-61 -313h-975zM286 -463q77 13 115 35t48 61q-60 10 -94.5 47.5t-34.5 94.5q0 63 47.5 106t116.5 43q79 0 126 -56q40 -49 40 -122q0 -145 -102 -238q-54 -47 -118 -68.5t-171 -27.5z" />
    <glyph glyph-name="lcommaaccent" unicode="&#x13c;" horiz-adv-x="726" 
d="M331 -23q-258 0 -258 250q0 91 18 179l238 1136h373l-230 -1098q-14 -71 -14 -112q0 -74 64 -74q41 0 86 31l2 -254q-86 -58 -279 -58zM49 -463q77 13 115 35t48 61q-60 10 -94.5 47.5t-34.5 94.5q0 63 47.5 106t116.5 43q79 0 126 -56q40 -49 40 -122q0 -145 -102 -238
q-54 -47 -118 -68.5t-171 -27.5z" />
    <glyph glyph-name="Lcaron" unicode="&#x13d;" horiz-adv-x="1229" 
d="M331 1464h393l-223 -1151h581l-61 -313h-975zM810 1085q143 20 163 96q-59 8 -94 46t-35 96q0 63 47.5 106t116.5 43q79 0 126 -56q40 -49 40 -122q0 -148 -102 -238q-55 -48 -120 -69.5t-169 -26.5z" />
    <glyph glyph-name="lcaron" unicode="&#x13e;" horiz-adv-x="745" 
d="M261 2013h250l82 -125l127 125h260l-295 -356h-266zM335 -23q-258 0 -258 250q0 91 18 179l238 1136h373l-230 -1098q-14 -71 -14 -112q0 -74 64 -74q41 0 86 31l2 -254q-86 -58 -279 -58z" />
    <glyph glyph-name="Ldot" unicode="&#x13f;" horiz-adv-x="1203" 
d="M331 1464h393l-223 -1151h581l-61 -313h-975zM947 885q90 0 146 -62q49 -54 49 -132q0 -108 -78 -179q-68 -61 -162 -61q-90 0 -146 62q-48 53 -48 130q0 107 80 180q68 62 159 62z" />
    <glyph glyph-name="ldot" unicode="&#x140;" horiz-adv-x="1061" 
d="M335 -23q-258 0 -258 250q0 91 18 179l238 1136h373l-230 -1098q-14 -71 -14 -112q0 -74 64 -74q41 0 86 31l2 -254q-86 -58 -279 -58zM885 885q90 0 146 -62q49 -54 49 -132q0 -108 -78 -179q-68 -61 -162 -61q-90 0 -146 62q-48 53 -48 130q0 107 80 180q68 62 159 62z
" />
    <glyph glyph-name="Lslash" unicode="&#x141;" horiz-adv-x="1228" 
d="M81 753l140 41l131 670h395l-107 -549l342 101l-55 -285l-342 -98l-61 -320h581l-61 -313h-977l98 512l-141 -41z" />
    <glyph glyph-name="lslash" unicode="&#x142;" horiz-adv-x="759" 
d="M557 690l-51 -246q-14 -72 -14 -112q0 -74 63 -74q42 0 86 31l2 -254q-86 -58 -278 -58q-258 0 -258 250q0 92 18 179l27 126l-121 -49l59 301l125 51l148 707h373l-115 -545l155 64l-59 -303z" />
    <glyph glyph-name="Nacute" unicode="&#x143;" horiz-adv-x="1533" 
d="M331 1464h424l286 -887l172 887h353l-285 -1464h-399l-304 930l-180 -930h-352zM951 1933h418l-279 -369h-268z" />
    <glyph glyph-name="nacute" unicode="&#x144;" horiz-adv-x="1222" 
d="M222 1071h369l-35 -182q73 111 153.5 161t188.5 50q128 0 196 -86q60 -76 60 -199q0 -57 -15 -129l-131 -686h-368l121 629q8 38 8 71q0 101 -94 101q-137 0 -177 -209l-116 -592h-369zM724 1546h418l-279 -367h-268z" />
    <glyph glyph-name="Ncommaaccent" unicode="&#x145;" horiz-adv-x="1533" 
d="M331 1464h424l286 -887l172 887h353l-285 -1464h-399l-304 930l-180 -930h-352zM452 -463q77 13 115 35t48 61q-60 10 -94.5 47.5t-34.5 94.5q0 63 47.5 106t116.5 43q79 0 126 -56q40 -49 40 -122q0 -145 -102 -238q-54 -47 -118 -68.5t-171 -27.5z" />
    <glyph glyph-name="ncommaaccent" unicode="&#x146;" horiz-adv-x="1222" 
d="M222 1071h369l-35 -182q73 111 153.5 161t188.5 50q128 0 196 -86q60 -76 60 -199q0 -57 -15 -129l-131 -686h-368l121 629q8 38 8 71q0 101 -94 101q-137 0 -177 -209l-116 -592h-369zM273 -463q77 13 115 35t48 61q-60 10 -94.5 47.5t-34.5 94.5q0 63 47.5 106
t116.5 43q79 0 126 -56q40 -49 40 -122q0 -145 -102 -238q-54 -47 -118 -68.5t-171 -27.5z" />
    <glyph glyph-name="Ncaron" unicode="&#x147;" horiz-adv-x="1533" 
d="M331 1464h424l286 -887l172 887h353l-285 -1464h-399l-304 930l-180 -930h-352zM685 1933h250l82 -125l127 125h260l-295 -356h-266z" />
    <glyph glyph-name="ncaron" unicode="&#x148;" horiz-adv-x="1220" 
d="M222 1071h369l-35 -182q73 111 153.5 161t188.5 50q128 0 196 -86q60 -76 60 -199q0 -57 -15 -129l-131 -686h-368l121 629q8 38 8 71q0 101 -94 101q-137 0 -177 -209l-116 -592h-369zM455 1546h250l82 -125l127 125h260l-295 -356h-266z" />
    <glyph glyph-name="napostrophe" unicode="&#x149;" horiz-adv-x="1234" 
d="M235 1071h369l-35 -182q73 111 153.5 161t188.5 50q128 0 196 -86q60 -76 60 -199q0 -57 -15 -129l-131 -686h-368l121 629q8 38 8 71q0 101 -94 101q-137 0 -177 -209l-116 -592h-369zM-144 1182q143 20 163 96q-59 8 -94 46t-35 96q0 63 47.5 106t116.5 43
q79 0 126 -56q40 -49 40 -122q0 -148 -102 -238q-55 -48 -120 -69.5t-169 -26.5z" />
    <glyph glyph-name="Eng" unicode="&#x14a;" horiz-adv-x="1294" 
d="M655 1282q76 114 157.5 162.5t199.5 48.5q134 0 204 -85q60 -74 60 -200q0 -60 -14 -129l-219 -1122q-68 -348 -398 -348q-80 0 -157 24l75 279q21 -2 33 -2q73 0 88 90l178 1022q9 43 9 69q0 103 -94 103q-137 0 -177 -209l-194 -985h-369l287 1464h368z" />
    <glyph glyph-name="eng" unicode="&#x14b;" horiz-adv-x="1222" 
d="M556 889q73 111 153.5 161t188.5 50q128 0 196 -86q60 -76 60 -199q0 -60 -15 -129l-141 -729q-67 -348 -397 -348q-81 0 -158 24l76 279q20 -2 33 -2q70 0 88 90l121 629q8 38 8 71q0 101 -94 101q-137 0 -177 -209l-116 -592h-369l209 1071h369z" />
    <glyph glyph-name="Omacron" unicode="&#x14c;" horiz-adv-x="1560" 
d="M898 1487q303 0 476 -202q151 -176 151 -450q0 -201 -75 -381q-65 -156 -177 -268q-211 -211 -530 -211q-307 0 -478 198q-149 173 -149 447q0 245 104 445q101 196 277 307q181 115 401 115zM882 1180q-169 0 -264 -170q-96 -174 -96 -408q0 -167 71 -249
q63 -71 174 -71q165 0 265 184q87 160 87 394q0 320 -237 320zM777 1864h531l-48 -246h-532z" />
    <glyph glyph-name="omacron" unicode="&#x14d;" horiz-adv-x="1225" 
d="M665 1100q240 0 377 -151q119 -132 119 -337q0 -301 -190 -481q-165 -156 -412 -156q-237 0 -376 152q-120 133 -120 336q0 293 194 477q168 160 408 160zM651 834q-102 0 -165 -128q-54 -111 -54 -274q0 -191 147 -191q100 0 161 128q52 111 52 276q0 189 -141 189z
M532 1487h531l-48 -246h-532z" />
    <glyph glyph-name="Obreve" unicode="&#x14e;" horiz-adv-x="1560" 
d="M898 1487q303 0 476 -202q151 -176 151 -450q0 -201 -75 -381q-65 -156 -177 -268q-211 -211 -530 -211q-307 0 -478 198q-149 173 -149 447q0 245 104 445q101 196 277 307q181 115 401 115zM882 1180q-169 0 -264 -170q-96 -174 -96 -408q0 -167 71 -249
q63 -71 174 -71q165 0 265 184q87 160 87 394q0 320 -237 320zM894 1921q4 -69 29.5 -96t87.5 -27q64 0 94.5 28t40.5 95h236q-31 -195 -128 -275q-86 -71 -241 -71q-104 0 -183.5 34t-119.5 95q-49 75 -49 217h233z" />
    <glyph glyph-name="obreve" unicode="&#x14f;" horiz-adv-x="1225" 
d="M665 1100q240 0 377 -151q119 -132 119 -337q0 -301 -190 -481q-165 -156 -412 -156q-237 0 -376 152q-120 133 -120 336q0 293 194 477q168 160 408 160zM651 834q-102 0 -165 -128q-54 -111 -54 -274q0 -191 147 -191q100 0 161 128q52 111 52 276q0 189 -141 189z
M669 1544v-16q0 -121 99 -121q54 0 79.5 31t32.5 106h236q-28 -204 -120 -288q-81 -72 -228 -72q-195 0 -279 119q-30 42 -41.5 95t-11.5 146h233z" />
    <glyph glyph-name="Ohungarumlaut" unicode="&#x150;" horiz-adv-x="1560" 
d="M898 1487q303 0 476 -202q151 -176 151 -450q0 -201 -75 -381q-65 -156 -177 -268q-211 -211 -530 -211q-307 0 -478 198q-149 173 -149 447q0 245 104 445q101 196 277 307q181 115 401 115zM882 1180q-169 0 -264 -170q-96 -174 -96 -408q0 -167 71 -249
q63 -71 174 -71q165 0 265 184q87 160 87 394q0 320 -237 320zM743 1933h346l-215 -369h-254zM1169 1933h344l-211 -369h-254z" />
    <glyph glyph-name="ohungarumlaut" unicode="&#x151;" horiz-adv-x="1227" 
d="M665 1100q240 0 377 -151q119 -132 119 -337q0 -301 -190 -481q-165 -156 -412 -156q-237 0 -376 152q-120 133 -120 336q0 293 194 477q168 160 408 160zM651 834q-102 0 -165 -128q-54 -111 -54 -274q0 -191 147 -191q100 0 161 128q52 111 52 276q0 189 -141 189z
M548 1546h346l-215 -367h-254zM974 1546h344l-211 -367h-254z" />
    <glyph glyph-name="OE" unicode="&#x152;" horiz-adv-x="2177" 
d="M931 0q-98 -25 -186 -25q-309 0 -479 197q-148 172 -148 448q0 243 103 444q101 195 276 308q180 115 397 115q81 0 168 -23h1180l-60 -307h-620l-51 -264h440l-57 -291h-441l-57 -295h653l-61 -307h-1057zM1111 758q15 63 15 139q0 143 -69 216q-61 63 -167 63
q-174 0 -279 -181q-90 -156 -90 -391q0 -322 246 -322q135 0 216 104q70 91 108 271z" />
    <glyph glyph-name="oe" unicode="&#x153;" horiz-adv-x="1858" 
d="M566 -25q-240 0 -379 152q-121 133 -121 336q0 293 194 477q167 160 406 160q221 0 348 -160q169 160 400 160q198 0 308 -99q95 -86 95 -225q0 -204 -207 -287q-77 -31 -180 -45.5t-285 -19.5v-10q0 -92 32.5 -130.5t109.5 -38.5q82 0 142.5 22t121.5 75l168 -217
q-101 -82 -205.5 -116t-251.5 -34q-119 0 -199.5 32t-140.5 104q-150 -136 -356 -136zM1168 623q311 0 311 123q0 43 -28 67.5t-76 24.5q-150 0 -207 -215zM582 241q99 0 159 128q52 112 52 276q0 189 -139 189q-102 0 -165 -128q-54 -111 -54 -274q0 -191 147 -191z" />
    <glyph glyph-name="Racute" unicode="&#x154;" horiz-adv-x="1455" 
d="M331 1464h589q127 0 210 -22t151 -72q143 -103 143 -301q0 -176 -98 -277q-86 -88 -260 -133q112 -39 149 -112q33 -64 41 -213q26 -280 66 -326v-8h-387q-44 78 -53 289q-7 151 -49 197q-37 40 -134 40h-157l-103 -526h-393zM812 805q110 0 168 63q51 54 51 146
q0 151 -160 151h-204l-72 -360h217zM851 1933h418l-279 -369h-268z" />
    <glyph glyph-name="racute" unicode="&#x155;" horiz-adv-x="913" 
d="M222 1071h369l-43 -221q67 129 137.5 186.5t161.5 57.5q75 0 133 -44l-115 -337q-68 39 -131 39q-204 0 -252 -238l-100 -514h-369zM588 1546h418l-279 -367h-268z" />
    <glyph glyph-name="Rcommaaccent" unicode="&#x156;" horiz-adv-x="1455" 
d="M331 1464h589q127 0 210 -22t151 -72q143 -103 143 -301q0 -176 -98 -277q-86 -88 -260 -133q112 -39 149 -112q33 -64 41 -213q26 -280 66 -326v-8h-387q-44 78 -53 289q-7 151 -49 197q-37 40 -134 40h-157l-103 -526h-393zM812 805q110 0 168 63q51 54 51 146
q0 151 -160 151h-204l-72 -360h217zM466 -463q77 13 115 35t48 61q-60 10 -94.5 47.5t-34.5 94.5q0 63 47.5 106t116.5 43q79 0 126 -56q40 -49 40 -122q0 -145 -102 -238q-54 -47 -118 -68.5t-171 -27.5z" />
    <glyph glyph-name="rcommaaccent" unicode="&#x157;" horiz-adv-x="915" 
d="M226 1071h369l-43 -221q67 129 137.5 186.5t161.5 57.5q75 0 133 -44l-115 -337q-68 39 -131 39q-204 0 -252 -238l-100 -514h-369zM-30 -463q77 13 115 35t48 61q-60 10 -94.5 47.5t-34.5 94.5q0 63 47.5 106t116.5 43q79 0 126 -56q40 -49 40 -122q0 -145 -102 -238
q-54 -47 -118 -68.5t-171 -27.5z" />
    <glyph glyph-name="Rcaron" unicode="&#x158;" horiz-adv-x="1455" 
d="M331 1464h589q127 0 210 -22t151 -72q143 -103 143 -301q0 -176 -98 -277q-86 -88 -260 -133q112 -39 149 -112q33 -64 41 -213q26 -280 66 -326v-8h-387q-44 78 -53 289q-7 151 -49 197q-37 40 -134 40h-157l-103 -526h-393zM812 805q110 0 168 63q51 54 51 146
q0 151 -160 151h-204l-72 -360h217zM585 1933h250l82 -125l127 125h260l-295 -356h-266z" />
    <glyph glyph-name="rcaron" unicode="&#x159;" horiz-adv-x="915" 
d="M222 1071h369l-43 -221q67 129 137.5 186.5t161.5 57.5q75 0 133 -44l-115 -337q-68 39 -131 39q-204 0 -252 -238l-100 -514h-369zM320 1546h250l82 -125l127 125h260l-295 -356h-266z" />
    <glyph glyph-name="Sacute" unicode="&#x15a;" horiz-adv-x="1261" 
d="M946 1048q-42 77 -94 107.5t-142 30.5q-168 0 -168 -121q0 -48 37 -79.5t131 -63.5q165 -59 224 -86.5t112 -69.5q141 -114 141 -314q0 -236 -181 -365q-157 -112 -413 -112q-308 0 -481 158q-81 76 -135 192l360 136q35 -97 98.5 -140t174.5 -43q93 0 142 36
q42 32 42 85q0 57 -43.5 90t-192.5 86q-233 85 -318 190q-75 93 -75 247q0 234 170 363q148 112 387 112q419 0 560 -297zM815 1933h418l-279 -369h-268z" />
    <glyph glyph-name="sacute" unicode="&#x15b;" horiz-adv-x="1057" 
d="M841 731q-54 53 -129.5 85t-146.5 32q-90 0 -90 -66q0 -30 24.5 -47.5t104.5 -44.5q110 -36 151 -55t87 -55q106 -86 106 -228q0 -192 -139 -291q-120 -86 -328 -86q-322 0 -510 177l188 219q127 -134 309 -134q113 0 113 68q0 32 -26.5 48t-147.5 56q-154 51 -220 135
q-58 74 -58 185q0 189 136 286q118 85 318 85q143 0 247.5 -35.5t203.5 -118.5zM643 1546h418l-279 -367h-268z" />
    <glyph glyph-name="Scircumflex" unicode="&#x15c;" horiz-adv-x="1261" 
d="M946 1048q-42 77 -94 107.5t-142 30.5q-168 0 -168 -121q0 -48 37 -79.5t131 -63.5q165 -59 224 -86.5t112 -69.5q141 -114 141 -314q0 -236 -181 -365q-157 -112 -413 -112q-308 0 -481 158q-81 76 -135 192l360 136q35 -97 98.5 -140t174.5 -43q93 0 142 36
q42 32 42 85q0 57 -43.5 90t-192.5 86q-233 85 -318 190q-75 93 -75 247q0 234 170 363q148 112 387 112q419 0 560 -297zM772 1933h266l158 -356h-250l-82 125l-127 -125h-258z" />
    <glyph glyph-name="scircumflex" unicode="&#x15d;" horiz-adv-x="1058" 
d="M841 731q-54 53 -129.5 85t-146.5 32q-90 0 -90 -66q0 -30 24.5 -47.5t104.5 -44.5q110 -36 151 -55t87 -55q106 -86 106 -228q0 -192 -139 -291q-120 -86 -328 -86q-322 0 -510 177l188 219q127 -134 309 -134q113 0 113 68q0 32 -26.5 48t-147.5 56q-154 51 -220 135
q-58 74 -58 185q0 189 136 286q118 85 318 85q143 0 247.5 -35.5t203.5 -118.5zM616 1546h266l158 -356h-250l-82 125l-127 -125h-258z" />
    <glyph glyph-name="Scedilla" unicode="&#x15e;" horiz-adv-x="1261" 
d="M1046 766q141 -114 141 -314q0 -231 -174 -359q-151 -112 -397 -118l-70 -78q13 2 29 2q68 0 110 -44.5t42 -115.5q0 -103 -72 -158q-63 -48 -166 -48q-166 0 -229 127l147 55q23 -49 76 -49q32 0 52 19t20 49q0 27 -16.5 44t-43.5 17q-41 0 -63 -35l-86 62l129 159
q-227 28 -363 152q-81 76 -135 192l360 136q35 -97 98.5 -140t174.5 -43q93 0 142 36q42 32 42 85q0 57 -43.5 90t-192.5 86q-233 85 -318 190q-75 93 -75 247q0 234 170 363q148 112 387 112q419 0 560 -297l-336 -142q-42 77 -94.5 107.5t-141.5 30.5q-168 0 -168 -121
q0 -48 37 -79.5t131 -64.5q165 -58 224 -85.5t112 -69.5z" />
    <glyph glyph-name="scedilla" unicode="&#x15f;" horiz-adv-x="1058" 
d="M841 579q107 -85 107 -227q0 -190 -135 -288q-118 -86 -322 -89l-67 -78q12 3 28 3q68 0 110 -44.5t42 -115.5q0 -103 -72 -159q-62 -48 -166 -48q-166 0 -229 127l147 55q23 -49 76 -49q32 0 52 19t20 49q0 27 -16.5 44t-42.5 17q-42 0 -64 -35l-86 62l129 161
q-232 28 -381 168l188 220q127 -134 309 -134q113 0 113 68q0 32 -26.5 48t-147.5 56q-154 51 -220 135q-58 74 -58 185q0 189 136 286q118 85 318 85q143 0 247.5 -35.5t203.5 -118.5l-193 -215q-54 53 -129.5 85t-146.5 32q-90 0 -90 -66q0 -30 24.5 -47.5t104.5 -44.5
q110 -36 150.5 -55t86.5 -56z" />
    <glyph glyph-name="Scaron" unicode="&#x160;" horiz-adv-x="1261" 
d="M946 1048q-42 77 -94 107.5t-142 30.5q-168 0 -168 -121q0 -48 37 -79.5t131 -63.5q165 -59 224 -86.5t112 -69.5q141 -114 141 -314q0 -236 -181 -365q-157 -112 -413 -112q-308 0 -481 158q-81 76 -135 192l360 136q35 -97 98.5 -140t174.5 -43q93 0 142 36
q42 32 42 85q0 57 -43.5 90t-192.5 86q-233 85 -318 190q-75 93 -75 247q0 234 170 363q148 112 387 112q419 0 560 -297zM548 1933h250l82 -125l127 125h260l-295 -356h-266z" />
    <glyph glyph-name="scaron" unicode="&#x161;" horiz-adv-x="1059" 
d="M841 731q-54 53 -129.5 85t-146.5 32q-90 0 -90 -66q0 -30 24.5 -47.5t104.5 -44.5q110 -36 151 -55t87 -55q106 -86 106 -228q0 -192 -139 -291q-120 -86 -328 -86q-322 0 -510 177l188 219q127 -134 309 -134q113 0 113 68q0 32 -26.5 48t-147.5 56q-154 51 -220 135
q-58 74 -58 185q0 189 136 286q118 85 318 85q143 0 247.5 -35.5t203.5 -118.5zM374 1546h250l82 -125l127 125h260l-295 -356h-266z" />
    <glyph glyph-name="Tcommaaccent" unicode="&#x162;" horiz-adv-x="1295" 
d="M577 1157h-371l59 307h1133l-59 -307h-371l-225 -1157h-392zM317 -463q77 13 115 35t48 61q-60 10 -94.5 47.5t-34.5 94.5q0 63 47.5 106t116.5 43q79 0 126 -56q40 -49 40 -122q0 -145 -102 -238q-54 -47 -118 -68.5t-171 -27.5z" />
    <glyph glyph-name="tcommaaccent" unicode="&#x163;" horiz-adv-x="849" 
d="M158 1071h133l37 188l396 136l-64 -324h199l-54 -276h-198l-76 -398l-2 -15q-4 -28 -4 -40q0 -62 57 -62q42 0 88 21l64 -254q-114 -72 -283 -72q-157 0 -238 82q-71 72 -71 195q0 47 14 117l82 426h-135zM157 -463q77 13 115 35t48 61q-60 10 -94.5 47.5t-34.5 94.5
q0 63 47.5 106t116.5 43q79 0 126 -56q40 -49 40 -122q0 -145 -102 -238q-54 -47 -118 -68.5t-171 -27.5z" />
    <glyph glyph-name="Tcaron" unicode="&#x164;" horiz-adv-x="1295" 
d="M577 1157h-371l59 307h1133l-59 -307h-371l-225 -1157h-392zM568 1933h250l82 -125l127 125h260l-295 -356h-266z" />
    <glyph glyph-name="tcaron" unicode="&#x165;" horiz-adv-x="1174" 
d="M158 1071h133l37 188l396 136l-64 -324h199l-54 -276h-198l-76 -398l-2 -15q-4 -28 -4 -40q0 -62 57 -62q42 0 88 21l64 -254q-114 -72 -283 -72q-157 0 -238 82q-71 72 -71 195q0 47 14 117l82 426h-135zM939 1157q143 20 163 96q-59 8 -94 46t-35 96q0 63 47.5 106
t116.5 43q79 0 126 -56q40 -49 40 -122q0 -148 -102 -238q-55 -48 -120 -69.5t-169 -26.5z" />
    <glyph glyph-name="Tbar" unicode="&#x166;" horiz-adv-x="1295" 
d="M1339 1157h-371l-74 -373h221l-57 -285h-217l-98 -499h-392l99 499h-205l57 285h201l74 373h-371l59 307h1133z" />
    <glyph glyph-name="tbar" unicode="&#x167;" horiz-adv-x="845" 
d="M444 -25q-157 0 -238 82q-71 71 -71 194q0 35 15 117l18 78h-133l45 231h131l21 118h-136l56 276h133l37 188l395 136l-64 -324h199l-53 -276h-199l-20 -118h200l-45 -231h-200l-8 -49q-9 -41 -9 -56q0 -61 60 -61q37 0 86 21l63 -254q-114 -72 -283 -72z" />
    <glyph glyph-name="Utilde" unicode="&#x168;" horiz-adv-x="1518" 
d="M1382 549q-62 -324 -235 -457q-152 -117 -425 -117q-296 0 -445 145q-130 127 -130 349q0 74 18 172l162 823h393l-163 -839q-17 -78 -17 -144q0 -195 193 -195q125 0 182 76q51 67 84 232l170 870h389zM1390 1884q-71 -323 -284 -323q-70 0 -158 51q-48 31 -76 31
q-47 0 -75 -74l-195 12q41 180 114 257q64 67 165 67q68 0 149 -51q51 -31 82 -31q23 0 36.5 15t31.5 58z" />
    <glyph glyph-name="utilde" unicode="&#x169;" horiz-adv-x="1218" 
d="M668 186q-73 -114 -152.5 -164.5t-187.5 -50.5q-129 0 -197 87q-59 76 -59 204q0 62 12 123l133 686h369l-125 -647q-6 -28 -6 -66q0 -96 92 -96q136 0 176 209l117 600h369l-209 -1071h-369zM1163 1509q-71 -324 -282 -324q-72 0 -164 56q-45 27 -72 27q-47 0 -75 -74
l-195 12q41 180 114 257q64 67 165 67q68 0 149 -52q51 -31 82 -31q23 0 36.5 15t31.5 59z" />
    <glyph glyph-name="Umacron" unicode="&#x16a;" horiz-adv-x="1518" 
d="M1382 549q-62 -324 -235 -457q-152 -117 -425 -117q-296 0 -445 145q-130 127 -130 349q0 74 18 172l162 823h393l-163 -839q-17 -78 -17 -144q0 -195 193 -195q125 0 182 76q51 67 84 232l170 870h389zM757 1864h531l-48 -246h-532z" />
    <glyph glyph-name="umacron" unicode="&#x16b;" horiz-adv-x="1218" 
d="M668 186q-73 -114 -152.5 -164.5t-187.5 -50.5q-129 0 -197 87q-59 76 -59 204q0 62 12 123l133 686h369l-125 -647q-6 -28 -6 -66q0 -96 92 -96q136 0 176 209l117 600h369l-209 -1071h-369zM531 1487h531l-48 -246h-532z" />
    <glyph glyph-name="Ubreve" unicode="&#x16c;" horiz-adv-x="1518" 
d="M1382 549q-62 -324 -235 -457q-152 -117 -425 -117q-296 0 -445 145q-130 127 -130 349q0 74 18 172l162 823h393l-163 -839q-17 -78 -17 -144q0 -195 193 -195q125 0 182 76q51 67 84 232l170 870h389zM874 1921q4 -69 29.5 -96t87.5 -27q64 0 94.5 28t40.5 95h236
q-31 -195 -128 -275q-86 -71 -241 -71q-104 0 -183.5 34t-119.5 95q-49 75 -49 217h233z" />
    <glyph glyph-name="ubreve" unicode="&#x16d;" horiz-adv-x="1218" 
d="M668 186q-73 -114 -152.5 -164.5t-187.5 -50.5q-129 0 -197 87q-59 76 -59 204q0 62 12 123l133 686h369l-125 -647q-6 -28 -6 -66q0 -96 92 -96q136 0 176 209l117 600h369l-209 -1071h-369zM667 1544v-16q0 -121 99 -121q54 0 79.5 31t32.5 106h236q-28 -204 -120 -288
q-81 -72 -228 -72q-195 0 -279 119q-30 42 -41.5 95t-11.5 146h233z" />
    <glyph glyph-name="Uring" unicode="&#x16e;" horiz-adv-x="1518" 
d="M1382 549q-62 -324 -235 -457q-152 -117 -425 -117q-296 0 -445 145q-130 127 -130 349q0 74 18 172l162 823h393l-163 -839q-17 -78 -17 -144q0 -195 193 -195q125 0 182 76q51 67 84 232l170 870h389zM1024 2001q102 0 162 -67q53 -58 53 -146q0 -111 -81 -181
q-71 -61 -171 -61q-103 0 -164 66q-53 57 -53 143q0 112 83 184q71 62 171 62zM1016 1868q-38 0 -64 -31t-26 -78q0 -36 19 -59t50 -23q39 0 63.5 30.5t24.5 78.5q0 37 -18.5 59.5t-48.5 22.5z" />
    <glyph glyph-name="uring" unicode="&#x16f;" horiz-adv-x="1218" 
d="M668 186q-73 -114 -152.5 -164.5t-187.5 -50.5q-129 0 -197 87q-59 76 -59 204q0 62 12 123l133 686h369l-125 -647q-6 -28 -6 -66q0 -96 92 -96q136 0 176 209l117 600h369l-209 -1071h-369zM799 1609q102 0 162 -66q53 -58 53 -147q0 -110 -81 -180q-71 -61 -171 -61
q-103 0 -164 66q-53 57 -53 143q0 111 83 183q71 62 171 62zM791 1476q-38 0 -64 -31t-26 -77q0 -37 19 -59.5t50 -22.5q39 0 63.5 30.5t24.5 77.5q0 37 -18.5 59.5t-48.5 22.5z" />
    <glyph glyph-name="Uhungarumlaut" unicode="&#x170;" horiz-adv-x="1518" 
d="M1382 549q-62 -324 -235 -457q-152 -117 -425 -117q-296 0 -445 145q-130 127 -130 349q0 74 18 172l162 823h393l-163 -839q-17 -78 -17 -144q0 -195 193 -195q125 0 182 76q51 67 84 232l170 870h389zM723 1933h346l-215 -369h-254zM1149 1933h344l-211 -369h-254z" />
    <glyph glyph-name="uhungarumlaut" unicode="&#x171;" horiz-adv-x="1224" 
d="M668 186q-73 -114 -152.5 -164.5t-187.5 -50.5q-129 0 -197 87q-59 76 -59 204q0 62 12 123l133 686h369l-125 -647q-6 -28 -6 -66q0 -96 92 -96q136 0 176 209l117 600h369l-209 -1071h-369zM547 1546h346l-215 -367h-254zM973 1546h344l-211 -367h-254z" />
    <glyph glyph-name="Uogonek" unicode="&#x172;" horiz-adv-x="1518" 
d="M1382 549q-64 -313 -216 -443q-134 -114 -380 -129q-123 -98 -123 -184q0 -51 59 -51q32 0 72 30l70 -118q-82 -68 -191 -68q-105 0 -162 51q-49 44 -49 117q0 133 152 227q-246 28 -364 167q-103 121 -103 321q0 73 18 172l162 823h393l-163 -840q-17 -77 -17 -143
q0 -195 193 -195q125 0 182 76q51 66 84 232l170 870h389z" />
    <glyph glyph-name="uogonek" unicode="&#x173;" horiz-adv-x="1218" 
d="M1000 0q-154 -109 -154 -207q0 -51 57 -51q32 0 74 31l70 -119q-82 -68 -191 -68q-105 0 -162 50q-49 44 -49 116q0 73 49 138.5t136 109.5h-199l37 186q-73 -114 -152.5 -164.5t-187.5 -50.5q-129 0 -197 87q-59 76 -59 204q0 62 12 123l133 686h369l-125 -647
q-6 -28 -6 -66q0 -96 92 -96q136 0 176 209l117 600h369z" />
    <glyph glyph-name="Wcircumflex" unicode="&#x174;" horiz-adv-x="2098" 
d="M237 1464h397l25 -973l409 973h324l53 -983l400 983h387l-633 -1464h-420l-49 911l-393 -911h-426zM1194 1933h266l158 -356h-250l-82 125l-127 -125h-258z" />
    <glyph glyph-name="wcircumflex" unicode="&#x175;" horiz-adv-x="1666" 
d="M149 1071h373l16 -616l260 616h297l23 -616l258 616h360l-514 -1071h-352l-35 573l-237 -573h-359zM923 1546h266l158 -356h-250l-82 125l-127 -125h-258z" />
    <glyph glyph-name="Ycircumflex" unicode="&#x176;" horiz-adv-x="1379" 
d="M513 610l-303 854h410l163 -516l347 516h401l-631 -874l-115 -590h-391zM833 1933h266l158 -356h-250l-82 125l-127 -125h-258z" />
    <glyph glyph-name="ycircumflex" unicode="&#x177;" horiz-adv-x="1194" 
d="M635 -72q-103 -182 -220 -254q-102 -63 -249 -63q-150 0 -250 71l133 254q47 -34 117 -34q53 0 87.5 26.5t72.5 95.5l-191 1047h381l82 -610l311 610h367zM686 1546h266l158 -356h-250l-82 125l-127 -125h-258z" />
    <glyph glyph-name="Ydieresis" unicode="&#x178;" horiz-adv-x="1379" 
d="M513 610l-303 854h410l163 -516l347 516h401l-631 -874l-115 -590h-391zM726 1870q65 0 107.5 -41.5t42.5 -106.5q0 -80 -60 -135q-52 -47 -120 -47q-63 0 -105.5 43.5t-42.5 108.5q0 77 60 131q51 47 118 47zM1140 1870q65 0 107 -41.5t42 -106.5q0 -80 -60 -135
q-51 -47 -120 -47q-64 0 -105.5 42.5t-41.5 109.5q0 77 60 131q52 47 118 47z" />
    <glyph glyph-name="Zacute" unicode="&#x179;" horiz-adv-x="1289" 
d="M59 329l764 828h-573l59 307h1039l-64 -325l-758 -826h617l-62 -313h-1085zM827 1933h418l-279 -369h-268z" />
    <glyph glyph-name="zacute" unicode="&#x17a;" horiz-adv-x="1038" 
d="M11 258l535 528h-414l57 285h885l-49 -248l-547 -538h451l-56 -285h-913zM634 1546h418l-279 -367h-268z" />
    <glyph glyph-name="Zdotaccent" unicode="&#x17b;" horiz-adv-x="1289" 
d="M59 329l764 828h-573l59 307h1039l-64 -325l-758 -826h617l-62 -313h-1085zM888 1898q76 0 123 -52q41 -45 41 -110q0 -88 -66 -148q-57 -52 -132 -52q-74 0 -121 54q-41 46 -41 112q0 85 66 145q56 51 130 51z" />
    <glyph glyph-name="zdotaccent" unicode="&#x17c;" horiz-adv-x="1038" 
d="M11 258l535 528h-414l57 285h885l-49 -248l-547 -538h451l-56 -285h-913zM697 1544q76 0 123 -53q41 -45 41 -111q0 -87 -66 -147q-57 -51 -132 -51t-121 53q-41 46 -41 113q0 85 66 145q56 51 130 51z" />
    <glyph glyph-name="Zcaron" unicode="&#x17d;" horiz-adv-x="1289" 
d="M59 329l764 828h-573l59 307h1039l-64 -325l-758 -826h617l-62 -313h-1085zM561 1933h250l82 -125l127 125h260l-295 -356h-266z" />
    <glyph glyph-name="zcaron" unicode="&#x17e;" horiz-adv-x="1039" 
d="M11 258l535 528h-414l57 285h885l-49 -248l-547 -538h451l-56 -285h-913zM366 1546h250l82 -125l127 125h260l-295 -356h-266z" />
    <glyph glyph-name="uni018F" unicode="&#x18f;" horiz-adv-x="1593" 
d="M245 1147q115 177 305 265q163 75 363 75q311 0 490 -202q155 -176 155 -449q0 -245 -104 -444q-101 -194 -280 -304q-183 -113 -409 -113q-320 0 -496 197q-153 172 -153 451q0 128 35 256h1001q-12 301 -252 301q-110 0 -178.5 -39.5t-136.5 -142.5zM522 594
q6 -312 256 -312q239 0 335 312h-591z" />
    <glyph glyph-name="florin" unicode="&#x192;" horiz-adv-x="995" 
d="M171 852h154l57 276q73 356 410 356q145 0 258 -53l-90 -247q-38 24 -90 24q-90 0 -113 -110l-51 -246h213l-49 -262h-219l-127 -612q-40 -188 -144 -270q-92 -72 -246 -72q-133 0 -233 47l76 245q38 -16 78 -16q72 0 96 109l119 569h-150z" />
    <glyph glyph-name="Ohorn" unicode="&#x1a0;" horiz-adv-x="1566" 
d="M1298 1358q154 29 178 127q-60 9 -94.5 46.5t-34.5 94.5q0 63 47.5 106t116.5 43q79 0 126 -57q40 -49 40 -123q0 -140 -84 -235q-74 -83 -193 -109q125 -165 125 -416q0 -244 -102 -443q-99 -194 -274 -304q-179 -113 -398 -113q-314 0 -486 197q-149 171 -149 448
q0 245 104 445q101 196 277 307q181 115 401 115q223 0 400 -129zM882 1180q-169 0 -264 -170q-96 -174 -96 -408q0 -167 71 -249q63 -71 174 -71q165 0 265 184q87 160 87 394q0 320 -237 320z" />
    <glyph glyph-name="ohorn" unicode="&#x1a1;" horiz-adv-x="1228" 
d="M978 1003q131 29 152 113q-60 9 -94.5 47t-34.5 94q0 64 47.5 107t116.5 43q79 0 126 -56q40 -49 40 -122q0 -131 -74 -221q-64 -79 -174 -113q78 -114 78 -283q0 -298 -189 -479q-164 -158 -407 -158q-242 0 -381 152q-121 131 -121 336q0 293 193 477q168 160 409 160
q186 0 313 -97zM651 834q-102 0 -165 -128q-54 -111 -54 -274q0 -191 147 -191q100 0 161 128q52 111 52 276q0 189 -141 189z" />
    <glyph glyph-name="Uhorn" unicode="&#x1af;" horiz-adv-x="1538" 
d="M1546 1401q88 22 106 84q-60 9 -94.5 46.5t-34.5 94.5q0 63 47.5 106t116.5 43q79 0 126 -56q40 -49 40 -122q0 -146 -101 -237q-88 -78 -231 -93l-139 -718q-62 -324 -235 -457q-152 -117 -425 -117q-296 0 -445 145q-130 127 -130 349q0 74 18 172l162 823h393
l-163 -839q-17 -78 -17 -144q0 -195 193 -195q125 0 182 76q51 67 84 232l170 870h389z" />
    <glyph glyph-name="uhorn" unicode="&#x1b0;" horiz-adv-x="1238" 
d="M1200 1030q99 23 117 86q-60 9 -94.5 47t-34.5 94q0 64 47.5 107t116.5 43q79 0 126 -56q40 -49 40 -122q0 -148 -105 -239q-91 -80 -237 -91l-176 -899h-369l37 186q-73 -114 -152.5 -164.5t-187.5 -50.5q-129 0 -197 87q-59 76 -59 204q0 62 12 123l133 686h369
l-125 -647q-6 -28 -6 -66q0 -96 92 -96q136 0 176 209l117 600h369z" />
    <glyph glyph-name="uni01CD" unicode="&#x1cd;" horiz-adv-x="1479" 
d="M415 252l-118 -252h-371l756 1464h479l182 -1464h-405l-23 252h-500zM837 1139l-284 -602h338zM657 1933h250l82 -125l127 125h260l-295 -356h-266z" />
    <glyph glyph-name="uni01CE" unicode="&#x1ce;" horiz-adv-x="1126" 
d="M606 0q-11 41 -11 131q-52 -82 -118.5 -119t-159.5 -37q-142 0 -224 89q-71 78 -71 198q0 272 311 346q154 35 346 35q1 5 2 15q2 23 2 34q0 111 -133 111q-118 0 -278 -72l-123 256q117 62 223 87.5t244 25.5q438 0 438 -338q0 -50 -14 -133l-80 -416q-12 -61 -12 -119
q0 -50 12 -82v-12h-354zM640 444q-141 -1 -199 -37q-50 -31 -50 -96q0 -78 82 -78q127 0 157 160zM411 1546h250l82 -125l127 125h260l-295 -356h-266z" />
    <glyph glyph-name="uni01CF" unicode="&#x1cf;" horiz-adv-x="724" 
d="M272 1933h250l82 -125l127 125h260l-295 -356h-266zM338 1464h395l-285 -1464h-395z" />
    <glyph glyph-name="uni01D0" unicode="&#x1d0;" horiz-adv-x="636" 
d="M157 1546h250l82 -125l127 125h260l-295 -356h-266zM231 1071h366l-208 -1071h-367z" />
    <glyph glyph-name="uni01D1" unicode="&#x1d1;" horiz-adv-x="1560" 
d="M702 1933h250l82 -125l126 125h261l-295 -356h-267zM898 1487q303 0 476 -202q151 -176 151 -450q0 -201 -75 -381q-65 -156 -177 -268q-211 -211 -530 -211q-307 0 -478 198q-149 173 -149 447q0 245 104 445q101 196 277 307q181 115 401 115zM882 1180
q-169 0 -264 -170q-96 -174 -96 -408q0 -167 71 -249q63 -71 174 -71q165 0 265 184q87 160 87 394q0 320 -237 320z" />
    <glyph glyph-name="uni01D2" unicode="&#x1d2;" horiz-adv-x="1224" 
d="M665 1100q240 0 377 -151q119 -132 119 -337q0 -301 -190 -481q-165 -156 -412 -156q-237 0 -376 152q-120 133 -120 336q0 293 194 477q168 160 408 160zM651 834q-102 0 -165 -128q-54 -111 -54 -274q0 -191 147 -191q100 0 161 128q52 111 52 276q0 189 -141 189z
M458 1546h250l82 -125l127 125h260l-295 -356h-266z" />
    <glyph glyph-name="uni01D3" unicode="&#x1d3;" horiz-adv-x="1518" 
d="M1382 549q-62 -324 -235 -457q-152 -117 -425 -117q-296 0 -445 145q-130 127 -130 349q0 74 18 172l162 823h393l-163 -839q-17 -78 -17 -144q0 -195 193 -195q125 0 182 76q51 67 84 232l170 870h389zM682 1933h250l82 -125l127 125h260l-295 -356h-266z" />
    <glyph glyph-name="uni01D4" unicode="&#x1d4;" horiz-adv-x="1218" 
d="M668 186q-73 -114 -152.5 -164.5t-187.5 -50.5q-129 0 -197 87q-59 76 -59 204q0 62 12 123l133 686h369l-125 -647q-6 -28 -6 -66q0 -96 92 -96q136 0 176 209l117 600h369l-209 -1071h-369zM457 1546h250l82 -125l127 125h260l-295 -356h-266z" />
    <glyph glyph-name="uni01DD" unicode="&#x1dd;" horiz-adv-x="1141" 
d="M585 830q-150 0 -274 -109l-146 221q211 158 449 158q250 0 376 -136q109 -119 109 -327q0 -311 -200 -499q-173 -163 -431 -163q-202 0 -311 98q-96 86 -96 226q0 137 90 217q78 69 234 102q115 26 346 31q1 17 1 35q0 146 -147 146zM710 451q-173 0 -247 -34
q-64 -29 -64 -90q0 -42 28 -66t76 -24q146 0 207 214z" />
    <glyph glyph-name="Gcaron" unicode="&#x1e6;" horiz-adv-x="1575" 
d="M1105 211q-75 -122 -202 -183q-111 -53 -248 -53q-266 0 -413 194q-128 169 -128 441q0 258 101 459q99 197 278 306q182 112 414 112q244 0 388 -98q129 -87 191 -261l-375 -125q-26 98 -78.5 139.5t-150.5 41.5q-173 0 -274 -181q-88 -158 -88 -399q0 -334 256 -334
q140 0 221 94q25 32 46 82t21 79v20h-243l53 272h622l-155 -817h-201zM689 1933h250l82 -125l127 125h260l-295 -356h-266z" />
    <glyph glyph-name="gcaron" unicode="&#x1e7;" horiz-adv-x="1163" 
d="M1038 836q10 -43 10 -86q0 -178 -142 -277q-123 -86 -319 -86q-112 0 -212 28q-33 -35 -33 -77q0 -34 24 -48t82 -14h168q198 0 300 -88q89 -76 89 -207q0 -203 -172 -307q-149 -90 -407 -90q-253 0 -386 77q-116 68 -116 181q0 153 223 217q-96 63 -96 160
q0 155 211 250q-131 95 -131 244q0 181 151 291q132 96 326 96q180 0 309 -88l307 81l-51 -257h-135zM612 894q-66 0 -107.5 -53t-41.5 -138q0 -125 112 -125q64 0 105.5 55.5t41.5 141.5q0 119 -110 119zM323 16q-65 -39 -65 -109q0 -102 182 -102q221 0 221 121
q0 90 -121 90h-217zM399 1546h250l82 -125l127 125h260l-295 -356h-266z" />
    <glyph glyph-name="uni01F4" unicode="&#x1f4;" horiz-adv-x="1575" 
d="M1105 211q-75 -122 -202 -183q-111 -53 -248 -53q-266 0 -413 194q-128 169 -128 441q0 258 101 459q99 197 278 306q182 112 414 112q244 0 388 -98q129 -87 191 -261l-375 -125q-26 98 -78.5 139.5t-150.5 41.5q-173 0 -274 -181q-88 -158 -88 -399q0 -334 256 -334
q140 0 221 94q25 32 46 82t21 79v20h-243l53 272h622l-155 -817h-201zM956 1933h418l-279 -369h-268z" />
    <glyph glyph-name="uni01F5" unicode="&#x1f5;" horiz-adv-x="1163" 
d="M1038 836q10 -43 10 -86q0 -178 -142 -277q-123 -86 -319 -86q-112 0 -212 28q-33 -35 -33 -77q0 -34 24 -48t82 -14h168q198 0 300 -88q89 -76 89 -207q0 -203 -172 -307q-149 -90 -407 -90q-253 0 -386 77q-116 68 -116 181q0 153 223 217q-96 63 -96 160
q0 155 211 250q-131 95 -131 244q0 181 151 291q132 96 326 96q180 0 309 -88l307 81l-51 -257h-135zM612 894q-66 0 -107.5 -53t-41.5 -138q0 -125 112 -125q64 0 105.5 55.5t41.5 141.5q0 119 -110 119zM323 16q-65 -39 -65 -109q0 -102 182 -102q221 0 221 121
q0 90 -121 90h-217zM667 1546h418l-279 -367h-268z" />
    <glyph glyph-name="Aringacute" unicode="&#x1fa;" 
d="M1161 1464l182 -1464h-405l-23 252h-500l-118 -252h-371l756 1464h164q-138 48 -138 197q0 66 32 121.5t87 87.5l78 223h418l-195 -258q49 -56 49 -141q0 -80 -44.5 -142t-121.5 -88h150zM933 1583q39 0 63.5 30.5t24.5 78.5q0 37 -18.5 59.5t-48.5 22.5q-38 0 -64 -31.5
t-26 -77.5q0 -36 19 -59t50 -23zM553 537h338l-54 602z" />
    <glyph glyph-name="aringacute" unicode="&#x1fb;" horiz-adv-x="1129" 
d="M657 1155q-103 0 -164 66q-53 57 -53 143q0 67 32 123.5t89 87.5l102 289h418l-236 -309q64 -61 64 -159q0 -110 -81 -180q-71 -61 -171 -61zM665 1286q39 0 63.5 30.5t24.5 77.5q0 38 -18.5 60.5t-48.5 22.5q-38 0 -64 -31.5t-26 -77.5q0 -37 19 -59.5t50 -22.5z
M616 1100q438 0 438 -338q0 -50 -14 -133l-80 -416q-12 -61 -12 -119q0 -50 12 -82v-12h-354q-11 41 -11 131q-52 -82 -118.5 -119t-159.5 -37q-142 0 -224 89q-71 78 -71 198q0 272 311 346q154 35 346 35q1 5 2 15q2 23 2 34q0 111 -133 111q-118 0 -278 -72l-123 256
q117 62 223 87.5t244 25.5zM630 393l10 51q-141 -1 -199 -37q-50 -31 -50 -96q0 -78 82 -78q127 0 157 160z" />
    <glyph glyph-name="AEacute" unicode="&#x1fc;" horiz-adv-x="2028" 
d="M886 1464h1208l-59 -307h-619l-51 -264h438l-59 -291h-436l-56 -295h647l-59 -307h-1036l47 248h-418l-164 -248h-393zM619 533h287l121 616zM1201 1933h418l-279 -369h-268z" />
    <glyph glyph-name="aeacute" unicode="&#x1fd;" horiz-adv-x="1735" 
d="M329 -25q-146 0 -229 90q-72 78 -72 201q0 206 180 296q157 78 471 77q11 26 11 59q0 103 -127 103q-140 0 -293 -74l-123 258q117 62 228.5 88.5t254.5 26.5q121 0 196.5 -28.5t127.5 -94.5q146 123 336 123q197 0 306 -99q95 -86 95 -225q0 -204 -205 -287
q-140 -55 -467 -63v-12q0 -91 33.5 -130t110.5 -39q82 0 142.5 22t121.5 75l168 -217q-101 -82 -205.5 -116t-253.5 -34q-170 0 -278 60q-94 52 -154 158q-143 -218 -375 -218zM1042 627q176 0 249 32q64 28 64 87q0 42 -28 67t-76 25q-149 0 -209 -211zM479 233
q55 0 98.5 40t54.5 100l12 69q-141 -3 -198 -37q-49 -31 -49 -94q0 -78 82 -78zM982 1546h418l-279 -367h-268z" />
    <glyph glyph-name="Oslashacute" unicode="&#x1fe;" horiz-adv-x="1562" 
d="M208 246q-97 156 -97 375q0 244 104 445q101 195 277 307q181 114 402 114q233 0 405 -136l113 113h268l-254 -256q94 -158 94 -373q0 -244 -102 -443q-99 -194 -274 -304q-179 -113 -398 -113q-245 0 -413 129l-105 -104h-264zM1054 1102q-66 78 -177 78
q-169 0 -271 -183q-89 -160 -89 -397q0 -25 2 -39zM585 358q66 -76 174 -76q168 0 260 168q96 170 96 402v41zM963 1933h418l-279 -369h-268z" />
    <glyph glyph-name="oslashacute" unicode="&#x1ff;" horiz-adv-x="1226" 
d="M160 0h-223l201 190q-74 115 -74 273q0 293 194 477q168 160 408 160q191 0 326 -105l80 76h223l-201 -190q68 -118 68 -269q0 -299 -189 -480q-164 -157 -407 -157q-191 0 -324 101zM768 786q-43 56 -116 56q-129 0 -191 -182q-31 -99 -35 -199zM463 287q44 -54 115 -54
q133 0 195 197q26 98 28 174zM728 1546h418l-279 -367h-268z" />
    <glyph glyph-name="Scommaaccent" unicode="&#x218;" horiz-adv-x="1261" 
d="M946 1048q-42 77 -94 107.5t-142 30.5q-168 0 -168 -121q0 -48 37 -79.5t131 -63.5q165 -59 224 -86.5t112 -69.5q141 -114 141 -314q0 -236 -181 -365q-157 -112 -413 -112q-308 0 -481 158q-81 76 -135 192l360 136q35 -97 98.5 -140t174.5 -43q93 0 142 36
q42 32 42 85q0 57 -43.5 90t-192.5 86q-233 85 -318 190q-75 93 -75 247q0 234 170 363q148 112 387 112q419 0 560 -297zM342 -463q77 13 115 35t48 61q-60 10 -94.5 47.5t-34.5 94.5q0 63 47.5 106t116.5 43q79 0 126 -56q40 -49 40 -122q0 -145 -102 -238
q-54 -47 -118 -68.5t-171 -27.5z" />
    <glyph glyph-name="scommaaccent" unicode="&#x219;" horiz-adv-x="1058" 
d="M841 731q-54 53 -129.5 85t-146.5 32q-90 0 -90 -66q0 -30 24.5 -47.5t104.5 -44.5q110 -36 151 -55t87 -55q106 -86 106 -228q0 -192 -139 -291q-120 -86 -328 -86q-322 0 -510 177l188 219q127 -134 309 -134q113 0 113 68q0 32 -26.5 48t-147.5 56q-154 51 -220 135
q-58 74 -58 185q0 189 136 286q118 85 318 85q143 0 247.5 -35.5t203.5 -118.5zM219 -463q77 13 115 35t48 61q-60 10 -94.5 47.5t-34.5 94.5q0 63 47.5 106t116.5 43q79 0 126 -56q40 -49 40 -122q0 -145 -102 -238q-54 -47 -118 -68.5t-171 -27.5z" />
    <glyph glyph-name="uni021A" unicode="&#x21a;" horiz-adv-x="1295" 
d="M577 1157h-371l59 307h1133l-59 -307h-371l-225 -1157h-392zM317 -463q77 13 115 35t48 61q-60 10 -94.5 47.5t-34.5 94.5q0 63 47.5 106t116.5 43q79 0 126 -56q40 -49 40 -122q0 -145 -102 -238q-54 -47 -118 -68.5t-171 -27.5z" />
    <glyph glyph-name="uni021B" unicode="&#x21b;" horiz-adv-x="849" 
d="M158 1071h133l37 188l396 136l-64 -324h199l-54 -276h-198l-76 -398l-2 -15q-4 -28 -4 -40q0 -62 57 -62q42 0 88 21l64 -254q-114 -72 -283 -72q-157 0 -238 82q-71 72 -71 195q0 47 14 117l82 426h-135zM157 -463q77 13 115 35t48 61q-60 10 -94.5 47.5t-34.5 94.5
q0 63 47.5 106t116.5 43q79 0 126 -56q40 -49 40 -122q0 -145 -102 -238q-54 -47 -118 -68.5t-171 -27.5z" />
    <glyph glyph-name="uni0226" unicode="&#x226;" 
d="M415 252l-118 -252h-371l756 1464h479l182 -1464h-405l-23 252h-500zM837 1139l-284 -602h338zM984 1898q76 0 123 -52q41 -45 41 -110q0 -88 -66 -148q-57 -52 -132 -52q-74 0 -121 54q-41 46 -41 112q0 85 66 145q56 51 130 51z" />
    <glyph glyph-name="uni0227" unicode="&#x227;" horiz-adv-x="1131" 
d="M606 0q-11 41 -11 131q-52 -82 -118.5 -119t-159.5 -37q-142 0 -224 89q-71 78 -71 198q0 272 311 346q154 35 346 35q1 5 2 15q2 23 2 34q0 111 -133 111q-118 0 -278 -72l-123 256q117 62 223 87.5t244 25.5q438 0 438 -338q0 -50 -14 -133l-80 -416q-12 -61 -12 -119
q0 -50 12 -82v-12h-354zM640 444q-141 -1 -199 -37q-50 -31 -50 -96q0 -78 82 -78q127 0 157 160zM742 1544q76 0 123 -53q41 -45 41 -111q0 -87 -66 -147q-57 -51 -132 -51t-121 53q-41 46 -41 113q0 85 66 145q56 51 130 51z" />
    <glyph glyph-name="uni0237" unicode="&#x237;" horiz-adv-x="647" 
d="M408 -43q-68 -348 -398 -348q-143 0 -229 61l100 260q38 -20 76 -20q43 0 63.5 22.5t32.5 83.5l205 1055h367z" />
    <glyph glyph-name="uni0259" unicode="&#x259;" horiz-adv-x="1141" 
d="M585 830q-150 0 -274 -109l-146 221q211 158 449 158q250 0 376 -136q109 -119 109 -327q0 -311 -200 -499q-173 -163 -431 -163q-202 0 -311 98q-96 86 -96 226q0 137 90 217q78 69 234 102q115 26 346 31q1 17 1 35q0 146 -147 146zM710 451q-173 0 -247 -34
q-64 -29 -64 -90q0 -42 28 -66t76 -24q146 0 207 214z" />
    <glyph glyph-name="afii57929" unicode="&#x2bc;" horiz-adv-x="612" 
d="M239 1032q147 29 186 180q-65 9 -103 53t-38 109q0 86 65 141q56 48 136 48q86 0 136 -61q44 -52 44 -134q0 -84 -32 -170.5t-87 -150.5q-63 -76 -140.5 -112.5t-195.5 -45.5z" />
    <glyph glyph-name="circumflex" unicode="&#x2c6;" horiz-adv-x="1045" 
d="M593 1542h266l158 -356h-250l-82 125l-127 -125h-258z" />
    <glyph glyph-name="caron" unicode="&#x2c7;" horiz-adv-x="1051" 
d="M372 1542h250l82 -125l127 125h260l-295 -356h-266z" />
    <glyph glyph-name="uni02C9" unicode="&#x2c9;" horiz-adv-x="1055" 
d="M459 1487h531l-48 -246h-532z" />
    <glyph glyph-name="breve" unicode="&#x2d8;" horiz-adv-x="1051" 
d="M621 1544v-16q0 -121 99 -121q54 0 79.5 31t32.5 106h236q-28 -204 -120 -288q-81 -72 -228 -72q-195 0 -279 119q-30 42 -41.5 95t-11.5 146h233z" />
    <glyph glyph-name="dotaccent" unicode="&#x2d9;" horiz-adv-x="1070" 
d="M724 1544q76 0 123 -53q41 -45 41 -111q0 -87 -66 -147q-57 -51 -132 -51t-121 53q-41 46 -41 113q0 85 66 145q56 51 130 51z" />
    <glyph glyph-name="ring" unicode="&#x2da;" horiz-adv-x="1063" 
d="M727 1609q102 0 162 -66q53 -58 53 -147q0 -110 -81 -180q-71 -61 -171 -61q-103 0 -164 66q-53 57 -53 143q0 111 83 183q71 62 171 62zM719 1476q-38 0 -64 -31t-26 -77q0 -37 19 -59.5t50 -22.5q39 0 63.5 30.5t24.5 77.5q0 37 -18.5 59.5t-48.5 22.5z" />
    <glyph glyph-name="ogonek" unicode="&#x2db;" horiz-adv-x="1068" 
d="M561 -346q-81 -68 -190 -68q-105 0 -162 50q-49 44 -49 116q0 73 48.5 138.5t135.5 109.5h170q-153 -107 -153 -207q0 -51 57 -51q31 0 74 31z" />
    <glyph glyph-name="tilde" unicode="&#x2dc;" horiz-adv-x="1046" 
d="M1084 1509q-71 -324 -282 -324q-72 0 -164 56q-45 27 -72 27q-47 0 -75 -74l-195 12q41 180 114 257q64 67 165 67q68 0 149 -52q51 -31 82 -31q23 0 36.5 15t31.5 59z" />
    <glyph glyph-name="hungarumlaut" unicode="&#x2dd;" horiz-adv-x="1055" 
d="M430 1542h346l-215 -367h-254zM856 1542h344l-211 -367h-254z" />
    <glyph glyph-name="uni0309" unicode="&#x309;" horiz-adv-x="52" 
d="M-438 1188l32 168l19 2l12 2l16 2q48 6 62 15.5t14 37.5q0 12 -16 12q-42 0 -72 -11.5t-123 -61.5l-53 118q169 98 270 98q77 0 124 -45q40 -40 40 -98q0 -69 -42.5 -116.5t-117.5 -63.5l-10 -59h-155z" />
    <glyph glyph-name="uni037E" unicode="&#x37e;" horiz-adv-x="652" 
d="M399 995q88 0 146 -64q50 -55 50 -133q0 -106 -80 -178q-69 -61 -162 -61q-90 0 -146 62q-48 53 -48 130q0 108 80 181q68 63 160 63zM-5 -190q172 28 215 194q-77 11 -120.5 61t-43.5 128q0 100 75 164q65 55 156 55q99 0 153 -70q48 -61 48 -159q0 -99 -37 -198.5
t-100 -172.5q-72 -83 -159 -122.5t-222 -49.5z" />
    <glyph glyph-name="tonos" unicode="&#x384;" horiz-adv-x="1033" 
d="M852 1227h-313l102 354h387z" />
    <glyph glyph-name="dieresistonos" unicode="&#x385;" horiz-adv-x="1045" 
d="M569 1571h328l-152 -367h-246zM319 1524q64 0 106 -41.5t42 -104.5q0 -77 -60 -130q-51 -46 -118 -46q-63 0 -103.5 42t-40.5 106q0 76 58 128q51 46 116 46zM1046 1524q64 0 106 -41.5t42 -104.5q0 -77 -60 -130q-51 -46 -118 -46q-63 0 -103.5 42t-40.5 106
q0 76 58 128q51 46 116 46z" />
    <glyph glyph-name="Alphatonos" unicode="&#x386;" 
d="M415 252l-118 -252h-371l756 1464h479l182 -1464h-405l-23 252h-500zM-23 1460h402l-127 -449h-320zM837 1138l-284 -601h338z" />
    <glyph glyph-name="uni0387" unicode="&#x387;" horiz-adv-x="660" 
d="M377 885q90 0 146 -62q49 -54 49 -132q0 -108 -78 -179q-68 -61 -162 -61q-90 0 -146 62q-48 53 -48 130q0 107 80 180q68 62 159 62z" />
    <glyph glyph-name="Epsilontonos" unicode="&#x388;" horiz-adv-x="1739" 
d="M794 1464h1008l-58 -307h-622l-51 -264h442l-59 -291h-441l-57 -295h653l-59 -307h-1040zM233 1460h401l-127 -449h-319z" />
    <glyph glyph-name="Etatonos" unicode="&#x389;" horiz-adv-x="1979" 
d="M794 1464h393l-110 -565h430l111 565h393l-285 -1464h-393l115 586h-431l-114 -586h-393zM233 1460h401l-127 -449h-319z" />
    <glyph glyph-name="Iotatonos" unicode="&#x38a;" horiz-adv-x="1169" 
d="M800 1464h396l-285 -1464h-395zM233 1460h401l-127 -449h-319z" />
    <glyph glyph-name="Omicrontonos" unicode="&#x38c;" horiz-adv-x="2020" 
d="M1357 1487q303 0 476 -202q151 -176 151 -450q0 -201 -75 -381q-65 -156 -177 -268q-211 -211 -530 -211q-307 0 -478 198q-149 173 -149 447q0 245 104 445q100 196 277 307q181 115 401 115zM233 1460h401l-127 -449h-319zM1341 1179q-169 0 -264 -170
q-96 -173 -96 -408q0 -167 72 -248q62 -71 174 -71q164 0 265 184q87 159 87 393q0 320 -238 320z" />
    <glyph glyph-name="Upsilontonos" unicode="&#x38e;" horiz-adv-x="1853" 
d="M987 610l-303 854h409l164 -516l346 516h402l-631 -874l-115 -590h-391zM233 1460h401l-127 -449h-319z" />
    <glyph glyph-name="Omegatonos" unicode="&#x38f;" horiz-adv-x="2122" 
d="M2086 862q0 -179 -99 -342q-86 -142 -224 -229h285l-58 -291h-680l52 264q153 94 240 270q78 156 78 333q0 313 -276 313q-217 0 -325 -213q-71 -137 -71 -305q0 -234 134 -398l-51 -264h-639l58 291h288q-101 74 -156 192q-48 103 -48 213q0 219 114 403
q109 178 297 282q193 106 418 106q330 0 508 -189q155 -165 155 -436zM634 1460l-127 -449h-319l45 449h401z" />
    <glyph glyph-name="iotadieresistonos" unicode="&#x390;" horiz-adv-x="690" 
d="M475 455q-16 -90 -16 -121q0 -29 15.5 -41t54.5 -12q24 0 79 6l-55 -287q-96 -10 -176 -10q-299 0 -299 231q0 77 29 225l123 625h366zM375 1571h328l-152 -367h-246zM125 1524q64 0 106 -41.5t42 -104.5q0 -77 -60 -130q-51 -46 -118 -46q-63 0 -103.5 42t-40.5 106
q0 76 58 128q51 46 116 46zM852 1524q64 0 106 -41.5t42 -104.5q0 -77 -60 -130q-51 -46 -118 -46q-63 0 -103.5 42t-40.5 106q0 76 58 128q51 46 116 46z" />
    <glyph glyph-name="Alpha" unicode="&#x391;" 
d="M415 252l-118 -252h-371l756 1464h479l182 -1464h-405l-23 252h-500zM837 1139l-284 -602h338z" />
    <glyph glyph-name="Beta" unicode="&#x392;" horiz-adv-x="1424" 
d="M331 1464h622q212 0 322 -104q96 -91 96 -244q0 -150 -73 -237q-63 -76 -201 -131q131 -41 187 -120q50 -70 50 -179q0 -232 -172 -348q-150 -101 -414 -101h-702zM812 887q178 0 178 161q0 121 -135 121h-195l-55 -282h207zM748 295q97 0 148 54q45 48 45 126
q0 70 -40 108t-114 38h-233l-64 -326h258z" />
    <glyph glyph-name="Gamma" unicode="&#x393;" horiz-adv-x="1158" 
d="M329 1464h938l-62 -313h-545l-223 -1151h-393z" />
    <glyph glyph-name="uni0394" unicode="&#x394;" horiz-adv-x="1477" 
d="M678 1464h479l182 -1464h-1417zM909 285l-76 854l-405 -854h481z" />
    <glyph glyph-name="Epsilon" unicode="&#x395;" horiz-adv-x="1275" 
d="M331 1464h1007l-57 -307h-623l-51 -264h443l-60 -291h-440l-58 -295h654l-60 -307h-1040z" />
    <glyph glyph-name="Zeta" unicode="&#x396;" horiz-adv-x="1289" 
d="M59 329l764 828h-573l59 307h1039l-64 -325l-758 -826h617l-62 -313h-1085z" />
    <glyph glyph-name="Eta" unicode="&#x397;" horiz-adv-x="1515" 
d="M331 1464h393l-111 -565h430l111 565h393l-284 -1464h-394l115 586h-430l-115 -586h-393z" />
    <glyph glyph-name="Theta" unicode="&#x398;" horiz-adv-x="1593" 
d="M921 1487q305 0 482 -203q155 -177 155 -449q0 -244 -104 -443q-101 -194 -280 -304q-183 -113 -409 -113q-320 0 -496 197q-153 172 -153 450q0 245 106 445q103 195 285 306q186 114 414 114zM894 1180q-174 0 -280 -184q-92 -160 -92 -394q0 -166 75 -248
q65 -72 181 -72q189 0 286 191q88 170 88 385q0 322 -258 322zM644 889h447l-55 -285h-447z" />
    <glyph glyph-name="Iota" unicode="&#x399;" horiz-adv-x="706" 
d="M338 1464h395l-285 -1464h-395z" />
    <glyph glyph-name="Kappa" unicode="&#x39a;" horiz-adv-x="1450" 
d="M331 1464h393l-113 -573l504 573h436l-594 -635l349 -829h-416l-236 538l-137 -139l-78 -399h-393z" />
    <glyph glyph-name="Lambda" unicode="&#x39b;" horiz-adv-x="1448" 
d="M665 1464h480l165 -1464h-405l-84 1138l-524 -1138h-371z" />
    <glyph glyph-name="Mu" unicode="&#x39c;" horiz-adv-x="1928" 
d="M331 1464h522l100 -901l461 901h547l-285 -1464h-385l197 1011l-522 -1011h-275l-106 1011l-197 -1011h-342z" />
    <glyph glyph-name="Nu" unicode="&#x39d;" horiz-adv-x="1533" 
d="M331 1464h424l286 -887l172 887h353l-285 -1464h-399l-304 930l-180 -930h-352z" />
    <glyph glyph-name="Xi" unicode="&#x39e;" horiz-adv-x="1283" 
d="M294 1464h1052l-61 -313h-1053zM308 893h803l-58 -293h-802zM70 313h1053l-61 -313h-1053z" />
    <glyph glyph-name="Omicron" unicode="&#x39f;" horiz-adv-x="1560" 
d="M898 1487q303 0 476 -202q151 -176 151 -450q0 -201 -75 -381q-65 -156 -177 -268q-211 -211 -530 -211q-307 0 -478 198q-149 173 -149 447q0 245 104 445q101 196 277 307q181 115 401 115zM882 1180q-169 0 -264 -170q-96 -174 -96 -408q0 -167 71 -249
q63 -71 174 -71q165 0 265 184q87 160 87 394q0 320 -237 320z" />
    <glyph glyph-name="Pi" unicode="&#x3a0;" horiz-adv-x="1490" 
d="M276 1151h-123l62 313h1407l-62 -313h-114l-224 -1151h-393l223 1151h-383l-223 -1151h-393z" />
    <glyph glyph-name="Rho" unicode="&#x3a1;" horiz-adv-x="1363" 
d="M331 1464h577q242 0 369 -127q112 -111 112 -297q0 -269 -183 -415q-159 -126 -421 -126h-250l-96 -499h-393zM781 784q118 0 178 65q53 57 53 154q0 78 -41 121t-116 43h-188l-76 -383h190z" />
    <glyph glyph-name="Sigma" unicode="&#x3a3;" horiz-adv-x="1289" 
d="M47 342l452 422l-266 393l59 307h1069l-61 -313h-657l266 -404l-453 -434h717l-62 -313h-1130z" />
    <glyph glyph-name="Tau" unicode="&#x3a4;" horiz-adv-x="1295" 
d="M577 1157h-371l59 307h1133l-59 -307h-371l-225 -1157h-392z" />
    <glyph glyph-name="Upsilon" unicode="&#x3a5;" horiz-adv-x="1379" 
d="M513 610l-303 854h410l163 -516l347 516h401l-631 -874l-115 -590h-391z" />
    <glyph glyph-name="Phi" unicode="&#x3a6;" horiz-adv-x="1860" 
d="M674 95q-284 47 -434 222q-131 153 -131 372q0 196 105 352q92 136 249 219q100 51 204 79.5t257 45.5l29 141h344l-31 -156q286 -47 435 -221q130 -152 130 -373q0 -196 -105 -350q-92 -134 -249 -215q-188 -95 -461 -123l-28 -149h-344zM869 1094q-181 -39 -278 -169
q-85 -113 -85 -267q0 -222 224 -281zM1072 371q180 39 277 169q85 113 85 267q0 225 -223 281z" />
    <glyph glyph-name="Chi" unicode="&#x3a7;" horiz-adv-x="1460" 
d="M538 772l-297 692h447l141 -426l285 426h434l-547 -717l328 -747h-444l-172 495l-355 -495h-436z" />
    <glyph glyph-name="Psi" unicode="&#x3a8;" horiz-adv-x="1973" 
d="M747 291h-59q-262 0 -391 140q-113 121 -113 339q0 118 33 291l80 403h393l-98 -506q-21 -97 -21 -188q0 -101 37.5 -143.5t126.5 -42.5h70l172 880h387l-172 -880h73q123 0 187 83q56 73 88 234l110 563h394l-125 -641q-26 -135 -67 -219.5t-112 -150.5
q-167 -162 -473 -162h-133l-55 -291h-387z" />
    <glyph glyph-name="uni03A9" unicode="&#x3a9;" horiz-adv-x="1637" 
d="M1602 862q0 -179 -99 -342q-86 -142 -224 -229h284l-57 -291h-680l51 264q154 94 241 270q78 156 78 333q0 313 -276 313q-217 0 -325 -213q-72 -138 -72 -305q0 -234 135 -398l-51 -264h-639l57 291h289q-102 74 -157 192q-48 103 -48 213q0 219 114 403
q109 178 297 282q193 106 418 106q330 0 509 -189q155 -165 155 -436z" />
    <glyph glyph-name="Iotadieresis" unicode="&#x3aa;" horiz-adv-x="721" 
d="M389 1870q65 0 107 -41.5t42 -106.5q0 -80 -60 -135q-51 -47 -120 -47q-63 0 -105 43.5t-42 108.5q0 77 60 131q51 47 118 47zM802 1870q65 0 107.5 -41.5t42.5 -106.5q0 -80 -60 -135q-52 -47 -120 -47q-65 0 -106.5 42.5t-41.5 109.5q0 77 61 131q51 47 117 47z
M338 1464h395l-285 -1464h-395z" />
    <glyph glyph-name="Upsilondieresis" unicode="&#x3ab;" horiz-adv-x="1379" 
d="M513 610l-303 854h410l163 -516l347 516h401l-631 -874l-115 -590h-391zM726 1870q65 0 107.5 -41.5t42.5 -106.5q0 -80 -60 -135q-52 -47 -120 -47q-63 0 -105.5 43.5t-42.5 108.5q0 77 60 131q51 47 118 47zM1140 1870q65 0 107 -41.5t42 -106.5q0 -80 -60 -135
q-51 -47 -120 -47q-64 0 -105.5 42.5t-41.5 109.5q0 77 60 131q52 47 118 47z" />
    <glyph glyph-name="alphatonos" unicode="&#x3ac;" horiz-adv-x="1204" 
d="M986 0h-367l27 145q-106 -170 -281 -170q-156 0 -241 127q-74 111 -74 291q0 125 34.5 252.5t94.5 225.5q143 229 369 229q194 0 254 -156l24 127h367zM642 834q-100 0 -162 -139q-61 -133 -61 -296q0 -67 29 -106t79 -39q98 0 160 127q26 57 44.5 140.5t18.5 148.5
q0 78 -28.5 121t-79.5 43zM902 1227h-313l102 354h387z" />
    <glyph glyph-name="epsilontonos" unicode="&#x3ad;" horiz-adv-x="1107" 
d="M578 241q80 0 131.5 18.5t116.5 72.5l190 -187q-166 -172 -506 -172q-216 0 -335 86q-105 75 -105 199q0 92 57 166.5t160 117.5q-56 33 -87.5 86.5t-31.5 114.5q0 179 153 275q126 80 322 80q170 0 296 -62q114 -56 178 -158l-213 -159q-80 115 -249 115
q-64 0 -103.5 -27.5t-39.5 -73.5q0 -38 36 -61t97 -23h181l-41 -207h-117q-114 0 -179 -34q-59 -31 -59 -83q0 -38 41 -61t107 -23zM854 1227h-313l102 354h387z" />
    <glyph glyph-name="etatonos" unicode="&#x3ae;" horiz-adv-x="1222" 
d="M222 1071h369l-35 -182q72 112 152 161.5t190 49.5q128 0 196 -86q60 -76 60 -199q0 -57 -15 -129l-202 -1059h-369l193 1002q8 38 8 71q0 101 -94 101q-137 0 -177 -209l-116 -592h-369zM908 1227h-313l102 354h387z" />
    <glyph glyph-name="iotatonos" unicode="&#x3af;" horiz-adv-x="677" 
d="M476 455q-16 -90 -16 -121q0 -29 15.5 -41t54.5 -12q24 0 79 6l-55 -287q-96 -10 -176 -10q-299 0 -299 231q0 77 29 225l123 625h366zM609 1227h-313l102 354h387z" />
    <glyph glyph-name="upsilondieresistonos" unicode="&#x3b0;" horiz-adv-x="1224" 
d="M604 1071l-123 -635l-2 -10q-11 -54 -11 -80q0 -105 86 -105q115 0 150 179l127 651h366l-143 -735q-38 -197 -179 -284q-124 -77 -337 -77q-231 0 -335 102q-91 88 -91 261q0 92 20 201l105 532h367zM679 1571h328l-152 -367h-246zM429 1524q64 0 106 -41.5t42 -104.5
q0 -77 -60 -130q-51 -46 -118 -46q-63 0 -103.5 42t-40.5 106q0 76 58 128q51 46 116 46zM1156 1524q64 0 106 -41.5t42 -104.5q0 -77 -60 -130q-51 -46 -118 -46q-63 0 -103.5 42t-40.5 106q0 76 58 128q51 46 116 46z" />
    <glyph glyph-name="alpha" unicode="&#x3b1;" horiz-adv-x="1204" 
d="M986 0h-367l27 145q-106 -170 -281 -170q-156 0 -241 127q-74 111 -74 291q0 125 34.5 252.5t94.5 225.5q143 229 369 229q194 0 254 -156l24 127h367zM642 834q-100 0 -162 -139q-61 -133 -61 -296q0 -67 29 -106t79 -39q98 0 160 127q26 57 44.5 140.5t18.5 148.5
q0 78 -28.5 121t-79.5 43z" />
    <glyph glyph-name="beta" unicode="&#x3b2;" horiz-adv-x="1261" 
d="M217 1036q36 189 57.5 250t72.5 119q131 156 422 156q225 0 343 -99q103 -87 103 -233q0 -243 -285 -326q98 -32 145 -69q117 -98 117 -281q0 -113 -40 -227.5t-107 -196.5q-122 -149 -338 -149q-134 0 -213 34l49 258q36 -26 80 -26q93 0 145 110q57 112 57 259
q0 84 -39.5 120.5t-129.5 36.5h-15l45 227q86 6 127 39q66 56 66 168q0 117 -111 117q-78 0 -122 -70q-30 -45 -50 -145l-288 -1489h-367z" />
    <glyph glyph-name="gamma" unicode="&#x3b3;" horiz-adv-x="1114" 
d="M271 0l-164 1071h375l65 -631l310 631h358l-576 -1071l-73 -381h-367z" />
    <glyph glyph-name="delta" unicode="&#x3b4;" horiz-adv-x="1210" 
d="M880 1042q146 -100 207 -195q61 -98 61 -225q0 -307 -186 -489q-161 -158 -404 -158q-236 0 -375 151q-120 130 -120 330q0 381 403 545q-174 135 -174 281q0 287 461 287q128 0 258 -39t223 -105l-192 -211q-153 95 -293 95q-109 0 -109 -68q0 -30 30.5 -58t138.5 -95
q43 -27 71 -46zM573 241q97 0 155 128q51 111 51 276q0 170 -135 170q-100 0 -159 -118q-53 -104 -53 -265q0 -191 141 -191z" />
    <glyph glyph-name="epsilon" unicode="&#x3b5;" horiz-adv-x="1107" 
d="M578 241q80 0 131.5 18.5t116.5 72.5l190 -187q-166 -172 -506 -172q-216 0 -335 86q-105 75 -105 199q0 92 57 166.5t160 117.5q-56 33 -87.5 86.5t-31.5 114.5q0 179 153 275q126 80 322 80q170 0 296 -62q114 -56 178 -158l-213 -159q-80 115 -249 115
q-64 0 -103.5 -27.5t-39.5 -73.5q0 -38 36 -61t97 -23h181l-41 -207h-117q-114 0 -179 -34q-59 -31 -59 -83q0 -38 41 -61t107 -23z" />
    <glyph glyph-name="zeta" unicode="&#x3b6;" horiz-adv-x="1014" 
d="M456 -403q64 149 64 229q0 49 -29 82.5t-96 61.5q-158 66 -221 138q-80 91 -80 238q0 184 88 344q77 139 231 278q110 98 392 295h-473l55 279h735l-53 -271q-259 -227 -360 -340q-122 -137 -190 -305q-56 -139 -56 -251q0 -66 33 -108t110 -76q144 -65 197 -124.5
t53 -156.5q0 -125 -84 -313h-316z" />
    <glyph glyph-name="eta" unicode="&#x3b7;" horiz-adv-x="1222" 
d="M222 1071h369l-35 -182q72 112 152 161.5t190 49.5q128 0 196 -86q60 -76 60 -199q0 -57 -15 -129l-202 -1059h-369l193 1002q8 38 8 71q0 101 -94 101q-137 0 -177 -209l-116 -592h-369z" />
    <glyph glyph-name="theta" unicode="&#x3b8;" horiz-adv-x="1239" 
d="M782 1560q224 0 350 -180q109 -157 109 -406q0 -207 -68 -417q-60 -182 -155 -314q-193 -268 -459 -268q-227 0 -354 182q-111 158 -111 408q0 206 68 416q59 183 153 313q194 266 467 266zM868 909q15 117 15 172q0 108 -38 164q-33 49 -89 49q-106 0 -185 -213
q-19 -51 -51 -172h348zM473 678q-21 -142 -21 -220q0 -110 38 -167q34 -50 91 -50q106 0 183 211q29 81 61 226h-352z" />
    <glyph glyph-name="iota" unicode="&#x3b9;" horiz-adv-x="673" 
d="M476 455q-16 -90 -16 -121q0 -29 15.5 -41t54.5 -12q24 0 79 6l-55 -287q-96 -10 -176 -10q-299 0 -299 231q0 77 29 225l123 625h366z" />
    <glyph glyph-name="kappa" unicode="&#x3ba;" horiz-adv-x="1173" 
d="M376 0h-367l209 1071h366l-75 -387l385 387h401l-434 -403l266 -668h-387l-162 403l-151 -139z" />
    <glyph glyph-name="lambda" unicode="&#x3bb;" horiz-adv-x="1184" 
d="M543 1130l-52 412h373l193 -1542h-383l-66 678l-336 -678h-356z" />
    <glyph glyph-name="uni03BC" unicode="&#x3bc;" horiz-adv-x="1225" 
d="M-55 -373l283 1444h368l-125 -639q-6 -30 -6 -57q0 -92 90 -92q66 0 112 49t64 139l117 600h369l-209 -1071h-348l30 164q-103 -180 -219 -180q-56 0 -114 41q6 -47 6 -99q0 -56 -10 -102l-39 -197h-369z" />
    <glyph glyph-name="nu" unicode="&#x3bd;" horiz-adv-x="1155" 
d="M129 1071h383l51 -661l307 661h367l-559 -1071h-404z" />
    <glyph glyph-name="xi" unicode="&#x3be;" horiz-adv-x="993" 
d="M412 -403q64 146 64 225q0 48 -28.5 80.5t-96.5 60.5q-159 67 -221 137q-80 89 -80 234q3 191 141 317q86 80 248 133q-46 23 -76 42q-8 5 -12 7q-88 59 -88 164q0 124 145 196q66 34 220 70h-361l55 279h783l-56 -279h-94q-167 0 -244 -47q-92 -59 -92 -160
q0 -82 53 -118q39 -27 136 -27h151l-53 -272h-213q-76 0 -113 -10t-71 -39q-39 -36 -63.5 -97.5t-24.5 -123.5q0 -66 33.5 -110t107.5 -76q143 -63 196.5 -122t53.5 -155q0 -125 -84 -309h-316z" />
    <glyph glyph-name="omicron" unicode="&#x3bf;" horiz-adv-x="1225" 
d="M669 1100q237 0 374 -152q118 -132 118 -336q0 -299 -189 -480q-164 -157 -407 -157q-242 0 -381 151q-121 132 -121 335q0 296 194 480q168 159 412 159zM651 834q-102 0 -165 -128q-54 -111 -54 -274q0 -191 145 -191q102 0 162 128q53 111 53 278q0 187 -141 187z" />
    <glyph glyph-name="pi" unicode="&#x3c0;" horiz-adv-x="1300" 
d="M233 792h-115l55 279h1166l-56 -279h-114l-154 -792h-367l156 799h-215l-156 -799h-354z" />
    <glyph glyph-name="rho" unicode="&#x3c1;" horiz-adv-x="1237" 
d="M33 -373q-2 78 -2 236q0 356 34 579q37 244 120 379q85 143 228 216q124 63 271 63q242 0 377 -150q117 -131 117 -340q0 -287 -186 -473q-161 -162 -386 -162q-124 0 -231 48q-2 -23 -2 -66q0 -113 12 -330h-352zM580 241q103 0 166 129q25 56 44 145.5t19 154.5
q0 164 -135 164q-116 0 -178 -140q-55 -128 -55 -289q0 -76 37 -120t102 -44z" />
    <glyph glyph-name="uni03C2" unicode="&#x3c2;" horiz-adv-x="1021" 
d="M419 412q0 -60 36 -97t134 -79q169 -72 228 -139q56 -64 56 -162q0 -78 -21 -152.5t-75 -185.5h-311q71 160 71 242q0 104 -143 151q-184 61 -254 134q-90 94 -90 265q0 330 186 534q162 177 398 177q173 0 284 -90q95 -79 131 -215l-292 -119q-20 81 -46 111t-75 30
q-98 0 -156 -121q-24 -52 -42.5 -137t-18.5 -147z" />
    <glyph glyph-name="sigma" unicode="&#x3c3;" horiz-adv-x="1229" 
d="M1253 790l-182 17q61 -88 61 -211q0 -293 -183 -469q-159 -152 -394 -152q-240 0 -375 150q-117 130 -117 338q0 151 58 285q51 117 139 198q84 81 186.5 117.5t247.5 36.5q93 0 203 -15q128 -14 174 -14h237zM636 834q-103 0 -157 -140q-47 -114 -47 -254
q0 -199 131 -199q93 0 150 128q50 112 50 276q0 189 -127 189z" />
    <glyph glyph-name="tau" unicode="&#x3c4;" horiz-adv-x="974" 
d="M353 792h-270l53 279h895l-53 -279h-258l-154 -792h-366z" />
    <glyph glyph-name="upsilon" unicode="&#x3c5;" horiz-adv-x="1219" 
d="M604 1071l-123 -635l-2 -10q-11 -54 -11 -80q0 -105 86 -105q115 0 150 179l127 651h366l-143 -735q-38 -197 -179 -284q-124 -77 -337 -77q-231 0 -335 102q-91 88 -91 261q0 92 20 201l105 532h367z" />
    <glyph glyph-name="phi" unicode="&#x3c6;" horiz-adv-x="1625" 
d="M422 483q0 -181 166 -237l161 839q91 13 170 13q267 0 451 -121q102 -66 155 -178q46 -97 46 -213q0 -266 -211 -428q-183 -140 -490 -171l-69 -360h-334l69 358q-245 29 -374 177q-109 125 -109 307q0 355 375 624l229 -124q-136 -161 -185.5 -263.5t-49.5 -222.5z
M919 244q124 31 193 106q41 46 65.5 111t24.5 129q0 190 -170 233z" />
    <glyph glyph-name="chi" unicode="&#x3c7;" horiz-adv-x="1159" 
d="M349 416l-203 655h393l92 -354l244 354h350l-479 -692l238 -752h-393l-125 459l-316 -459h-350z" />
    <glyph glyph-name="psi" unicode="&#x3c8;" horiz-adv-x="1752" 
d="M1634 528q-32 -170 -63.5 -245t-99.5 -142q-145 -141 -398 -141h-121l-71 -373h-355l72 373h-47q-221 0 -331 124q-95 108 -95 300q0 124 43 342l59 305h367l-90 -463q-23 -115 -23 -182q0 -85 32 -121.5t106 -36.5h30l158 803h354l-157 -803h45q99 0 150 72
q44 63 73 211l102 520h367z" />
    <glyph glyph-name="omega" unicode="&#x3c9;" horiz-adv-x="1614" 
d="M606 963q-200 -297 -200 -562q0 -73 26 -116.5t70 -43.5q49 0 83 68t64 230l43 225h316l-43 -225q-29 -142 -29 -218q0 -80 76 -80q85 0 132 106q40 91 40 241q0 204 -88 381l246 102q211 -204 211 -502q0 -282 -162 -449q-140 -145 -352 -145q-120 0 -188 44.5
t-101 146.5q-63 -102 -140.5 -146.5t-189.5 -44.5q-185 0 -285 113q-98 115 -98 293q0 207 80.5 374t267.5 351z" />
    <glyph glyph-name="iotadieresis" unicode="&#x3ca;" horiz-adv-x="682" 
d="M259 1544q76 0 123 -53q41 -45 41 -111q0 -87 -66 -147q-57 -51 -132 -51t-121 53q-41 46 -41 113q0 85 66 145q56 51 130 51zM710 1544q76 0 123 -53q41 -45 41 -111q0 -87 -66 -147q-57 -51 -132 -51t-120 53q-40 46 -40 113q0 85 65 145q55 51 129 51zM475 455
q-17 -91 -17 -121q0 -29 15.5 -41t54.5 -12q24 0 80 6l-56 -287q-96 -10 -176 -10q-299 0 -299 231q0 77 29 225l123 625h366z" />
    <glyph glyph-name="upsilondieresis" unicode="&#x3cb;" horiz-adv-x="1219" 
d="M564 1544q76 0 123 -53q41 -45 41 -111q0 -87 -66 -147q-57 -51 -132 -51t-121 53q-41 46 -41 113q0 85 66 145q56 51 130 51zM1015 1544q76 0 123 -53q41 -45 41 -111q0 -87 -66 -147q-57 -51 -132 -51t-120 53q-40 46 -40 113q0 85 65 145q55 51 129 51zM604 1071
l-123 -635l-2 -10q-11 -54 -11 -80q0 -105 86 -105q115 0 150 179l127 651h366l-143 -735q-38 -197 -179 -284q-124 -77 -337 -77q-231 0 -335 102q-91 88 -91 261q0 92 20 201l105 532h367z" />
    <glyph glyph-name="omicrontonos" unicode="&#x3cc;" horiz-adv-x="1225" 
d="M669 1100q237 0 374 -152q118 -132 118 -336q0 -299 -189 -480q-164 -157 -407 -157q-242 0 -381 151q-121 132 -121 335q0 296 194 480q168 159 412 159zM651 834q-102 0 -165 -128q-54 -111 -54 -274q0 -191 145 -191q102 0 162 128q53 111 53 278q0 187 -141 187z
M911 1227h-313l102 354h387z" />
    <glyph glyph-name="upsilontonos" unicode="&#x3cd;" horiz-adv-x="1219" 
d="M604 1071l-123 -635l-2 -10q-11 -54 -11 -80q0 -105 86 -105q115 0 150 179l127 651h366l-143 -735q-38 -197 -179 -284q-124 -77 -337 -77q-231 0 -335 102q-91 88 -91 261q0 92 20 201l105 532h367zM912 1227h-313l102 354h387z" />
    <glyph glyph-name="omegatonos" unicode="&#x3ce;" horiz-adv-x="1614" 
d="M606 963q-200 -297 -200 -562q0 -73 26 -116.5t70 -43.5q49 0 83 68t64 230l43 225h316l-43 -225q-29 -142 -29 -218q0 -80 76 -80q85 0 132 106q40 91 40 241q0 204 -88 381l246 102q211 -204 211 -502q0 -282 -162 -449q-140 -145 -352 -145q-120 0 -188 44.5
t-101 146.5q-63 -102 -140.5 -146.5t-189.5 -44.5q-185 0 -285 113q-98 115 -98 293q0 207 80.5 374t267.5 351zM1085 1227h-313l102 354h387z" />
    <glyph glyph-name="phi1" unicode="&#x3d5;" horiz-adv-x="1625" 
d="M817 1513h336l-76 -428l8 -2l10 -2q211 -36 339 -154q64 -60 100.5 -150t36.5 -192q0 -265 -211 -427q-183 -140 -490 -171l-69 -360h-334l69 358q-244 29 -373 177q-110 125 -110 307q0 278 211 450q186 151 477 164zM698 833q-139 -11 -214 -125q-62 -94 -62 -227
q0 -97 54 -165q45 -58 112 -73zM919 241q125 35 193 109q41 44 65.5 109t24.5 130q0 187 -170 234z" />
    <glyph glyph-name="uni0400" unicode="&#x400;" horiz-adv-x="1275" 
d="M331 1464h1007l-57 -307h-623l-51 -264h443l-60 -291h-440l-58 -295h654l-60 -307h-1040zM531 1933h391l49 -369h-260z" />
    <glyph glyph-name="afii10023" unicode="&#x401;" horiz-adv-x="1275" 
d="M673 1870q65 0 107 -41.5t42 -106.5q0 -80 -60 -135q-51 -47 -120 -47q-63 0 -105 43.5t-42 108.5q0 77 60 131q51 47 118 47zM1086 1870q65 0 107.5 -41.5t42.5 -106.5q0 -80 -60 -135q-52 -47 -120 -47q-65 0 -106.5 42.5t-41.5 109.5q0 77 60 131q52 47 118 47z
M331 1464h1007l-57 -307h-623l-51 -264h443l-60 -291h-440l-58 -295h654l-60 -307h-1040z" />
    <glyph glyph-name="afii10051" unicode="&#x402;" horiz-adv-x="1592" 
d="M202 0l223 1151h-274l61 313h1098l-61 -313h-430l-70 -356q105 81 195.5 116t198.5 35q159 0 241 -90q72 -78 72 -211q0 -115 -45.5 -359.5t-91.5 -381.5q-34 -104 -99.5 -163.5t-175.5 -88.5q-87 -24 -293 -27l33 244q77 8 103.5 37t54.5 137q33 132 65.5 305.5
t32.5 222.5q0 84 -88 84q-95 0 -254 -127l-103 -528h-393z" />
    <glyph glyph-name="afii10052" unicode="&#x403;" horiz-adv-x="1158" 
d="M329 1464h938l-62 -313h-545l-223 -1151h-393zM761 1933h418l-279 -369h-268z" />
    <glyph glyph-name="afii10053" unicode="&#x404;" horiz-adv-x="1394" 
d="M1114 1008q-36 90 -89 128t-145 38q-113 0 -191.5 -70.5t-131.5 -222.5h508l-53 -279h-510q-2 -21 -2 -45q0 -269 260 -269q94 0 165 34t140 112l266 -205q-223 -254 -608 -254q-320 0 -485 175q-144 153 -144 415q0 189 64 369q57 157 151 275q224 278 586 278
q228 0 374 -98q127 -85 173 -234z" />
    <glyph glyph-name="afii10054" unicode="&#x405;" horiz-adv-x="1261" 
d="M946 1032q-40 85 -92 119.5t-142 34.5q-81 0 -125.5 -31t-44.5 -88q0 -62 61 -98q45 -27 246 -99q185 -65 267 -177q71 -99 71 -243q0 -235 -180 -363q-157 -112 -412 -112q-287 0 -460 139q-99 80 -158 226l360 135q34 -106 96.5 -151.5t174.5 -45.5q94 0 143 35
q43 31 43 84q0 72 -84 119q-41 19 -152 59q-118 44 -174 74.5t-106 77.5q-113 106 -113 285q0 235 170 363q148 112 389 112q421 0 558 -314z" />
    <glyph glyph-name="afii10055" unicode="&#x406;" horiz-adv-x="706" 
d="M338 1464h395l-285 -1464h-395z" />
    <glyph glyph-name="afii10056" unicode="&#x407;" horiz-adv-x="721" 
d="M338 1464h395l-285 -1464h-395zM389 1870q65 0 107.5 -41.5t42.5 -106.5q0 -80 -60 -135q-52 -47 -120 -47q-63 0 -105.5 43.5t-42.5 108.5q0 77 60 131q51 47 118 47zM803 1870q65 0 107 -41.5t42 -106.5q0 -80 -60 -135q-51 -47 -120 -47q-64 0 -105.5 42.5
t-41.5 109.5q0 77 60 131q52 47 118 47z" />
    <glyph glyph-name="afii10057" unicode="&#x408;" horiz-adv-x="1292" 
d="M1131 440q-48 -243 -213 -361q-145 -104 -369 -104q-243 0 -369 126q-110 111 -110 298q0 75 18 162h379q-18 -98 -18 -133q0 -140 125 -140q76 0 114.5 45t61.5 162l188 969h394z" />
    <glyph glyph-name="afii10058" unicode="&#x409;" horiz-adv-x="2067" 
d="M995 1157h-301l-62 -313q-109 -529 -315 -844h-422q159 200 248 448q77 218 160 633l73 383h1071l-102 -524h201q120 0 190 -11t129 -40q154 -75 154 -281q0 -140 -52 -271q-45 -114 -116 -185q-81 -83 -192.5 -117.5t-297.5 -34.5h-592zM1411 295q111 0 166 63
q55 65 55 160q0 127 -152 127h-192l-68 -350h191z" />
    <glyph glyph-name="afii10059" unicode="&#x40a;" horiz-adv-x="2207" 
d="M619 940h414l103 524h387l-103 -524h160q264 0 381 -80q67 -46 104 -130t37 -191q0 -118 -44 -228t-118 -178q-77 -72 -183 -102.5t-281 -30.5h-625l121 627h-414l-121 -627h-393l285 1464h393zM1492 293q115 0 174 63q51 55 51 150q0 78 -36.5 113.5t-116.5 35.5h-199
l-72 -362h199z" />
    <glyph glyph-name="afii10060" unicode="&#x40b;" horiz-adv-x="1593" 
d="M202 0l223 1151h-274l61 313h1098l-61 -313h-430l-70 -356q105 81 195 116t196 35q154 0 230 -89q67 -78 67 -216q0 -81 -20 -201l-86 -440h-394l88 453q15 82 15 114q0 88 -88 88q-98 0 -254 -127l-103 -528h-393z" />
    <glyph glyph-name="afii10061" unicode="&#x40c;" horiz-adv-x="1369" 
d="M329 1464h393l-113 -583h17q28 0 59 40.5t121 196.5q133 227 249 293q102 59 298 59q13 0 116 -5l15 -1l-54 -281q-49 2 -94 2q-90 0 -134 -41q-39 -37 -122 -176q-60 -100 -86 -134t-65 -64q61 -35 103.5 -106t88.5 -216l148 -448h-426l-94 336q-50 176 -78 225
q-35 59 -86 59h-27l-121 -620h-393zM867 1933h418l-279 -369h-268z" />
    <glyph glyph-name="uni040D" unicode="&#x40d;" horiz-adv-x="1463" 
d="M329 1464h387l-152 -780l522 657l25 123h385l-285 -1464h-387l154 788l-524 -657l-25 -131h-385zM626 1933h391l49 -369h-260z" />
    <glyph glyph-name="afii10062" unicode="&#x40e;" horiz-adv-x="1334" 
d="M180 1464h420l184 -627l330 627h375l-592 -1061q-140 -253 -281 -346q-125 -82 -309 -82q-107 0 -219 25l88 309q69 -21 137 -21q80 0 124 25t87 94l23 39zM772 1913q4 -69 29.5 -96t87.5 -27q64 0 94.5 28t40.5 95h236q-31 -195 -128 -275q-86 -71 -241 -71
q-104 0 -183.5 34t-119.5 95q-49 75 -49 217h233z" />
    <glyph glyph-name="afii10145" unicode="&#x40f;" horiz-adv-x="1445" 
d="M329 1464h393l-225 -1157h362l225 1157h394l-285 -1464h-406l-100 -358h-276l36 358h-403z" />
    <glyph glyph-name="afii10017" unicode="&#x410;" 
d="M938 0l-23 252h-500l-118 -252h-371l756 1464h479l182 -1464h-405zM891 537l-54 602l-284 -602h338z" />
    <glyph glyph-name="afii10018" unicode="&#x411;" horiz-adv-x="1400" 
d="M329 1464h1007l-57 -293h-621l-51 -270h201q257 0 371 -76q139 -91 139 -313q0 -115 -41.5 -218.5t-114.5 -168.5q-77 -68 -182.5 -96.5t-280.5 -28.5h-655zM714 293q221 0 221 189q0 143 -156 143h-227l-64 -332h226z" />
    <glyph glyph-name="afii10019" unicode="&#x412;" horiz-adv-x="1424" 
d="M331 1464h622q212 0 322 -104q96 -91 96 -244q0 -150 -73 -237q-63 -76 -201 -131q131 -41 187 -120q50 -70 50 -179q0 -232 -172 -348q-150 -101 -414 -101h-702zM812 887q178 0 178 161q0 121 -135 121h-195l-55 -282h207zM748 295q97 0 148 54q45 48 45 126
q0 70 -40 108t-114 38h-233l-64 -326h258z" />
    <glyph glyph-name="afii10020" unicode="&#x413;" horiz-adv-x="1158" 
d="M329 1464h938l-62 -313h-545l-223 -1151h-393z" />
    <glyph glyph-name="afii10021" unicode="&#x414;" horiz-adv-x="1446" 
d="M177 0l-101 -358h-276l129 665h129q104 155 174.5 366.5t147.5 604.5l36 186h1053l-225 -1157h155l-131 -665h-274l37 358h-854zM1027 1157h-309l-25 -131q-109 -496 -238 -731h404z" />
    <glyph glyph-name="afii10022" unicode="&#x415;" horiz-adv-x="1275" 
d="M331 1464h1007l-57 -307h-623l-51 -264h443l-60 -291h-440l-58 -295h654l-60 -307h-1040z" />
    <glyph glyph-name="afii10024" unicode="&#x416;" horiz-adv-x="1978" 
d="M820 627q-80 -20 -132.5 -71.5t-162.5 -219.5l-217 -336h-424l313 448q106 149 171 216.5t141 105.5q-26 29 -38.5 65t-31.5 135q-26 147 -52 182t-110 35q-19 0 -72 -2l-22 -2l55 281h15q75 8 98 8q138 0 207 -27q73 -28 113.5 -98.5t70.5 -224.5q29 -151 47 -195
q25 -52 72 -49h8l113 586h375l-115 -586q53 1 79 10.5t51 35.5q37 41 124 204q122 229 214 289q83 53 255 53q18 0 94 -4l43 -2l-55 -281h-19q-24 2 -59 2q-48 0 -79 -20.5t-58 -69.5q-26 -45 -93 -186q-31 -67 -53 -97t-78 -79q67 -57 138 -285l139 -448h-408l-84 336
q-44 171 -82 226t-118 65l-121 -627h-375z" />
    <glyph glyph-name="afii10025" unicode="&#x417;" horiz-adv-x="1328" 
d="M360 471q16 -94 56 -133q63 -58 184 -58q111 0 175 57q56 50 56 128q0 137 -172 137h-129l56 279h116q122 0 188 51q58 44 58 117q0 133 -190 133q-99 0 -166 -32t-137 -114l-240 207q194 244 582 244q260 0 406 -119q128 -104 128 -268q0 -180 -172 -287
q-57 -32 -141 -59q74 -32 104 -56q115 -89 115 -240q0 -227 -204 -364q-176 -119 -439 -119q-322 0 -471 144q-54 52 -81 111.5t-38 150.5z" />
    <glyph glyph-name="afii10026" unicode="&#x418;" horiz-adv-x="1463" 
d="M329 1464h387l-152 -780l522 657l25 123h385l-285 -1464h-387l154 788l-524 -657l-25 -131h-385z" />
    <glyph glyph-name="afii10027" unicode="&#x419;" horiz-adv-x="1463" 
d="M329 1464h387l-152 -780l522 657l25 123h385l-285 -1464h-387l154 788l-524 -657l-25 -131h-385zM838 1913q4 -69 29.5 -96t87.5 -27q64 0 94.5 28t40.5 95h236q-31 -195 -128 -275q-86 -71 -241 -71q-104 0 -183.5 34t-119.5 95q-49 75 -49 217h233z" />
    <glyph glyph-name="afii10028" unicode="&#x41a;" horiz-adv-x="1369" 
d="M329 1464h393l-113 -583h17q28 0 59 40.5t121 196.5q133 227 249 293q102 59 298 59q13 0 116 -5l15 -1l-54 -281q-49 2 -94 2q-90 0 -134 -41q-39 -37 -122 -176q-60 -100 -86 -134t-65 -64q61 -35 103.5 -106t88.5 -216l148 -448h-426l-94 336q-50 176 -78 225
q-35 59 -86 59h-27l-121 -620h-393z" />
    <glyph glyph-name="afii10029" unicode="&#x41b;" horiz-adv-x="1411" 
d="M989 1157h-301l-62 -313q-108 -528 -313 -844h-418q158 198 246 446q78 218 162 635l73 383h1067l-284 -1464h-394z" />
    <glyph glyph-name="afii10030" unicode="&#x41c;" horiz-adv-x="1928" 
d="M331 1464h522l100 -901l461 901h547l-285 -1464h-385l197 1011l-522 -1011h-275l-106 1011l-197 -1011h-342z" />
    <glyph glyph-name="afii10031" unicode="&#x41d;" horiz-adv-x="1515" 
d="M331 1464h393l-111 -565h430l111 565h393l-284 -1464h-394l115 586h-430l-115 -586h-393z" />
    <glyph glyph-name="afii10032" unicode="&#x41e;" horiz-adv-x="1560" 
d="M898 1487q302 0 476 -202q151 -177 151 -450q0 -201 -75 -381q-65 -156 -177 -268q-211 -211 -528 -211q-309 0 -480 198q-149 172 -149 447q0 245 104 445q101 196 277 307q181 115 401 115zM882 1180q-169 0 -264 -170q-96 -174 -96 -408q0 -167 71 -249
q63 -71 174 -71q165 0 265 184q87 160 87 394q0 320 -237 320z" />
    <glyph glyph-name="afii10033" unicode="&#x41f;" horiz-adv-x="1480" 
d="M329 1464h1183l-284 -1464h-393l223 1157h-396l-225 -1157h-393z" />
    <glyph glyph-name="afii10034" unicode="&#x420;" horiz-adv-x="1363" 
d="M331 1464h577q242 0 369 -127q112 -111 112 -297q0 -269 -183 -415q-159 -126 -421 -126h-250l-96 -499h-393zM781 784q118 0 178 65q53 57 53 154q0 78 -41 121t-116 43h-191l-73 -383h190z" />
    <glyph glyph-name="afii10035" unicode="&#x421;" horiz-adv-x="1422" 
d="M1347 371q-52 -108 -105.5 -174t-130.5 -115q-158 -107 -389 -107q-308 0 -469 191q-141 166 -141 448q0 416 237 661q206 212 519 212q286 0 440 -164q49 -53 78.5 -108.5t58.5 -151.5l-360 -127q-20 87 -43 133q-54 105 -180 105q-167 0 -262 -187q-82 -170 -82 -393
q0 -304 227 -304q92 0 157.5 55.5t116.5 176.5z" />
    <glyph glyph-name="afii10036" unicode="&#x422;" horiz-adv-x="1295" 
d="M577 1157h-371l59 307h1133l-59 -307h-371l-225 -1157h-392z" />
    <glyph glyph-name="afii10037" unicode="&#x423;" horiz-adv-x="1334" 
d="M180 1464h420l184 -627l330 627h375l-592 -1061q-140 -253 -281 -346q-125 -82 -309 -82q-107 0 -219 25l88 309q69 -21 137 -21q80 0 124 25t87 94l23 39z" />
    <glyph glyph-name="afii10038" unicode="&#x424;" horiz-adv-x="1843" 
d="M678 151q-139 11 -230.5 38t-168.5 79q-176 122 -176 350q0 170 88 320q76 130 205 219q195 133 510 155l45 234h342l-45 -234q139 -10 230.5 -37t168.5 -79q176 -122 176 -350q0 -169 -88 -319q-77 -131 -205 -220q-194 -133 -507 -156l-48 -233h-342zM851 1032
q-160 -23 -240 -100q-50 -49 -78.5 -126.5t-28.5 -160.5q0 -94 54.5 -144.5t175.5 -68.5zM1076 432q162 26 239 100q50 50 78.5 126t28.5 159q0 95 -53.5 145t-175.5 70z" />
    <glyph glyph-name="afii10039" unicode="&#x425;" horiz-adv-x="1460" 
d="M538 772l-297 692h447l141 -426l285 426h434l-547 -717l328 -747h-444l-172 495l-355 -495h-436z" />
    <glyph glyph-name="afii10040" unicode="&#x426;" horiz-adv-x="1454" 
d="M329 1464h393l-225 -1157h362l225 1157h394l-226 -1157h154l-129 -665h-277l39 358h-995z" />
    <glyph glyph-name="afii10041" unicode="&#x427;" horiz-adv-x="1375" 
d="M729 0l101 514q-130 -147 -346 -147q-166 0 -252 96q-74 84 -74 227q0 114 37 301l92 473h393l-100 -516q-19 -101 -19 -149q0 -127 123 -127q177 0 219 227l111 565h393l-284 -1464h-394z" />
    <glyph glyph-name="afii10042" unicode="&#x428;" horiz-adv-x="2141" 
d="M329 1464h393l-225 -1157h333l226 1157h393l-225 -1157h331l226 1157h393l-285 -1464h-1845z" />
    <glyph glyph-name="afii10043" unicode="&#x429;" horiz-adv-x="2153" 
d="M329 1464h393l-225 -1157h333l226 1157h393l-225 -1157h331l226 1157h393l-225 -1157h155l-129 -665h-276l39 358h-1694z" />
    <glyph glyph-name="afii10044" unicode="&#x42a;" horiz-adv-x="1559" 
d="M776 971h162q263 0 379 -84q137 -99 137 -328q0 -125 -43.5 -239.5t-118.5 -184.5q-78 -74 -183.5 -104.5t-280.5 -30.5h-627l225 1157h-303l59 307h691zM846 293q116 0 174 67q51 59 51 162q0 86 -35.5 125t-113.5 39h-201l-76 -393h201z" />
    <glyph glyph-name="afii10045" unicode="&#x42b;" horiz-adv-x="2000" 
d="M619 971h162q263 0 379 -84q137 -99 137 -328q0 -125 -43.5 -239.5t-118.5 -184.5q-78 -74 -183.5 -104.5t-280.5 -30.5h-627l285 1464h387zM1639 1464h394l-285 -1464h-393zM687 293q118 0 176 67q51 59 51 162q0 86 -35.5 125t-113.5 39h-201l-76 -393h199z" />
    <glyph glyph-name="afii10046" unicode="&#x42c;" horiz-adv-x="1402" 
d="M619 971h162q263 0 379 -84q137 -99 137 -328q0 -125 -43.5 -239.5t-118.5 -184.5q-78 -74 -183.5 -104.5t-280.5 -30.5h-627l285 1464h387zM687 293q118 0 176 67q51 59 51 162q0 86 -35.5 125t-113.5 39h-201l-76 -393h199z" />
    <glyph glyph-name="afii10047" unicode="&#x42d;" horiz-adv-x="1363" 
d="M940 881q1 160 -65 231q-58 62 -173 62q-87 0 -150.5 -30t-132.5 -103l-250 214q194 232 556 232q305 0 469 -185q143 -162 143 -429q0 -245 -86 -444q-75 -174 -203 -282q-205 -172 -518 -172q-221 0 -359 72q-120 63 -192 189l332 186q43 -71 105.5 -102.5t160.5 -31.5
q227 0 324 314h-521l54 279h506z" />
    <glyph glyph-name="afii10048" unicode="&#x42e;" horiz-adv-x="2155" 
d="M611 899h187q88 296 297 452q183 136 422 136q291 0 458 -202q146 -176 146 -449q0 -244 -98 -443q-96 -194 -265 -305q-174 -113 -387 -113q-293 0 -455 183q-141 158 -155 428h-209l-115 -586h-393l285 1464h393zM1498 1180q-155 0 -250 -185q-82 -161 -82 -395
q0 -164 64 -246q56 -72 153 -72q156 0 250 183q82 158 82 391q0 324 -217 324z" />
    <glyph glyph-name="afii10049" unicode="&#x42f;" horiz-adv-x="1438" 
d="M1185 0h-393l100 518h-158q-62 0 -94 -10t-57 -37q-39 -42 -103 -197q-85 -206 -139 -274h-389v4q46 66 141 291q83 206 144 269q53 55 174 91q-203 90 -203 334q0 240 182 367q83 59 184.5 83.5t268.5 24.5h627zM1019 1165h-197q-123 0 -174 -45q-67 -58 -67 -159
q0 -77 40 -120.5t109 -43.5h217z" />
    <glyph glyph-name="afii10065" unicode="&#x430;" horiz-adv-x="1131" 
d="M606 0q-11 41 -11 131q-52 -82 -118.5 -119t-159.5 -37q-142 0 -224 89q-71 78 -71 198q0 272 311 346q154 35 346 35q1 5 2 15q2 23 2 34q0 111 -133 111q-118 0 -278 -72l-123 256q117 62 223 87.5t244 25.5q438 0 438 -338q0 -50 -14 -133l-80 -416q-12 -61 -12 -119
q0 -50 12 -82v-12h-354zM640 444q-141 -1 -199 -37q-50 -31 -50 -96q0 -78 82 -78q127 0 157 160z" />
    <glyph glyph-name="afii10066" unicode="&#x431;" horiz-adv-x="1241" 
d="M1164 1284h-254q-160 0 -236.5 -30.5t-130.5 -114.5q-56 -83 -94 -269l41 34q63 51 90 69q97 59 225 59q184 0 291 -136q92 -117 92 -300q0 -287 -191 -466q-166 -155 -405 -155q-250 0 -377 156q-110 137 -110 375q0 210 68 446q59 204 145 338q98 150 239 204
q124 48 347 48h360zM688 794q-107 0 -166 -117q-25 -50 -41 -125.5t-16 -142.5q0 -82 37 -127t104 -45q104 0 162 123q51 117 51 258q0 176 -131 176z" />
    <glyph glyph-name="afii10067" unicode="&#x432;" horiz-adv-x="1253" 
d="M253 1071h530q391 0 391 -256q0 -98 -39.5 -156t-140.5 -110q78 -50 110 -100.5t32 -124.5q0 -77 -36 -145t-99 -109q-109 -70 -302 -70h-655zM724 645q116 0 116 106q0 46 -21.5 64t-78.5 18h-176l-37 -188h197zM652 238q68 0 89 29q35 37 35 93q0 48 -20.5 66t-74.5 18
h-197l-39 -206h207z" />
    <glyph glyph-name="afii10068" unicode="&#x433;" horiz-adv-x="960" 
d="M253 1071h749l-55 -285h-383l-153 -786h-367z" />
    <glyph glyph-name="afii10069" unicode="&#x434;" horiz-adv-x="1234" 
d="M276 1407q118 87 220 123.5t227 36.5q485 0 485 -543q0 -243 -49 -463q-43 -191 -113 -316q-77 -139 -216 -209q-121 -61 -273 -61q-246 0 -383 155q-119 134 -119 349q0 258 162 420q133 133 344 133q227 0 332 -143q12 115 12 168q0 137 -58 196q-51 52 -153 52
q-68 0 -127 -24.5t-135 -84.5zM643 794q-102 0 -165 -116q-54 -101 -54 -248q0 -193 139 -193q113 0 172 139q43 99 43 234q0 184 -135 184z" />
    <glyph glyph-name="afii10070" unicode="&#x435;" horiz-adv-x="1141" 
d="M546 -25q-250 0 -376 136q-109 119 -109 327q0 311 200 499q174 163 433 163q200 0 310 -98q95 -86 95 -226q0 -204 -207 -287q-140 -55 -464 -63v-20q0 -161 143 -161q83 0 143.5 22t120.5 75l168 -217q-101 -82 -205 -116t-252 -34zM450 625q173 0 247 33q64 29 64 90
q0 41 -27.5 65.5t-74.5 24.5q-149 0 -209 -213z" />
    <glyph glyph-name="afii10072" unicode="&#x436;" horiz-adv-x="1654" 
d="M634 438h-22q-33 0 -57 -25t-77 -112l-182 -301h-393l244 330q68 95 112.5 138.5t114.5 84.5q-29 40 -40.5 69.5t-18.5 81.5q-16 96 -32.5 114.5t-84.5 18.5h-62l48 234h100q108 0 157 -15.5t78 -58.5q25 -35 37 -80.5t27 -152.5q17 -102 61 -102h33l80 409h352l-80 -409
h41q43 0 65 27q18 24 77 140q77 157 153 202q67 40 203 40h115l-45 -234h-29q-61 0 -82 -18.5t-68 -114.5q-28 -59 -50 -89t-72 -78l-13 -11q37 -35 58.5 -74.5t48.5 -121.5l117 -330h-379l-76 301q-20 82 -36 109.5t-44 27.5h-27l-84 -438h-354z" />
    <glyph glyph-name="afii10073" unicode="&#x437;" horiz-adv-x="1093" 
d="M251 372q28 -75 80.5 -109t142.5 -34q71 0 110 36t39 101q0 72 -104 72h-119l41 207h127q58 0 91.5 30.5t33.5 82.5q0 88 -135 88q-62 0 -114.5 -22.5t-135.5 -84.5l-182 195q96 87 209 126.5t266 39.5q235 0 353 -86q104 -76 104 -209q0 -178 -187 -244q68 -49 94.5 -94
t26.5 -109q0 -87 -44 -165.5t-120 -127.5q-140 -90 -370 -90q-271 0 -396 125q-60 58 -102 176z" />
    <glyph glyph-name="afii10074" unicode="&#x438;" horiz-adv-x="1275" 
d="M253 1071h366l-100 -518l326 420l20 98h367l-209 -1071h-367l103 524l-328 -420l-20 -104h-367z" />
    <glyph glyph-name="afii10075" unicode="&#x439;" horiz-adv-x="1275" 
d="M253 1071h366l-100 -518l326 420l20 98h367l-209 -1071h-367l103 524l-328 -420l-20 -104h-367zM691 1544v-16q0 -121 99 -121q54 0 79.5 31t32.5 106h236q-28 -204 -120 -288q-81 -72 -228 -72q-195 0 -279 119q-30 42 -41.5 95t-11.5 146h233z" />
    <glyph glyph-name="afii10076" unicode="&#x43a;" horiz-adv-x="1193" 
d="M253 1071h366l-81 -416h12q24 0 50 32.5t91 143.5q97 165 174 207q63 33 230 33h129l-45 -234h-33q-80 0 -104 -20q-20 -17 -74 -113q-61 -107 -140 -161q48 -36 75.5 -79.5t58.5 -133.5l124 -330h-393l-90 301q-25 82 -41.5 108.5t-42.5 26.5h-24l-84 -436h-367z" />
    <glyph glyph-name="afii10077" unicode="&#x43b;" horiz-adv-x="1228" 
d="M762 795h-199l-26 -137q-42 -205 -101.5 -356t-156.5 -302h-365q125 171 201.5 368t136.5 501l41 202h891l-209 -1071h-367z" />
    <glyph glyph-name="afii10078" unicode="&#x43c;" horiz-adv-x="1634" 
d="M726 1071l66 -629l301 629h497l-209 -1071h-366l129 659l-332 -659h-233l-74 657l-127 -657h-334l209 1071h473z" />
    <glyph glyph-name="afii10079" unicode="&#x43d;" horiz-adv-x="1265" 
d="M253 1071h366l-75 -389h235l76 389h367l-209 -1071h-367l78 403h-236l-77 -403h-367z" />
    <glyph glyph-name="afii10080" unicode="&#x43e;" horiz-adv-x="1225" 
d="M665 1100q240 0 377 -151q119 -132 119 -337q0 -301 -190 -481q-165 -156 -412 -156q-237 0 -376 152q-120 132 -120 334q0 295 193 479q168 160 409 160zM651 834q-102 0 -165 -128q-54 -111 -54 -274q0 -191 145 -191q102 0 162 127q53 111 53 277q0 189 -141 189z" />
    <glyph glyph-name="afii10081" unicode="&#x43f;" horiz-adv-x="1267" 
d="M253 1071h971l-209 -1071h-367l154 786h-238l-153 -786h-367z" />
    <glyph glyph-name="afii10082" unicode="&#x440;" horiz-adv-x="1291" 
d="M252 1071h368l-31 -158q132 187 326 187q157 0 238 -130q71 -113 71 -306q0 -318 -158 -516q-137 -171 -335 -171q-208 0 -283 213l-108 -563h-369zM716 826q-101 0 -165 -128q-56 -110 -56 -266q0 -181 139 -181q105 0 167 118q54 102 54 256q0 201 -139 201z" />
    <glyph glyph-name="afii10083" unicode="&#x441;" horiz-adv-x="1118" 
d="M1029 270q-84 -161 -210 -232q-111 -63 -266 -63q-244 0 -374 147q-113 127 -113 341q0 306 183 483q158 154 403 154q179 0 287 -82q94 -71 147 -215l-309 -115q-17 78 -47 110t-86 32q-99 0 -158 -123q-51 -107 -51 -267q0 -195 137 -195q116 0 180 161z" />
    <glyph glyph-name="afii10084" unicode="&#x442;" horiz-adv-x="975" 
d="M354 786h-264l55 285h895l-55 -285h-264l-154 -786h-366z" />
    <glyph glyph-name="afii10085" unicode="&#x443;" horiz-adv-x="1194" 
d="M635 -72q-103 -182 -220 -254q-102 -63 -249 -63q-150 0 -250 71l133 254q47 -34 117 -34q53 0 87.5 26.5t72.5 95.5l-191 1047h381l82 -610l311 610h367z" />
    <glyph glyph-name="afii10086" unicode="&#x444;" horiz-adv-x="1730" 
d="M619 131q-92 -156 -243 -156q-161 0 -252 128q-78 111 -78 288q0 131 34.5 266t94.5 234q129 209 334 209q195 0 264 -179l121 621h334l-115 -592q99 150 244 150q162 0 250 -130q77 -113 77 -296q0 -129 -36.5 -267.5t-94.5 -228.5q-129 -203 -332 -203q-202 0 -262 185
l-104 -533h-334zM611 834q-76 0 -124 -107q-72 -157 -72 -340q0 -68 31 -106t86 -38q77 0 120 90q32 63 53 159.5t21 183.5q0 74 -30.5 116t-84.5 42zM1204 831q-82 0 -132 -115q-68 -145 -68 -321q0 -70 34 -111t91 -41q70 0 114 88q30 63 51 164t21 182q0 73 -29 113.5
t-82 40.5z" />
    <glyph glyph-name="afii10087" unicode="&#x445;" horiz-adv-x="1186" 
d="M371 563l-224 508h408l96 -279l195 279h391l-424 -516l248 -555h-408l-117 317l-229 -317h-389z" />
    <glyph glyph-name="afii10088" unicode="&#x446;" horiz-adv-x="1264" 
d="M253 1071h366l-153 -786h221l154 786h366l-153 -786h129l-117 -607h-262l39 322h-799z" />
    <glyph glyph-name="afii10089" unicode="&#x447;" horiz-adv-x="1197" 
d="M550 1071l-64 -324q-12 -70 -12 -108q0 -105 88 -105q120 0 160 203l65 334h367l-209 -1071h-367l86 436q-117 -184 -301 -184q-134 0 -204 90q-60 79 -60 215q0 80 20 182l64 332h367z" />
    <glyph glyph-name="afii10090" unicode="&#x448;" horiz-adv-x="1804" 
d="M253 1071h364l-153 -786h217l154 786h342l-154 -786h219l152 786h364l-207 -1071h-1507z" />
    <glyph glyph-name="afii10091" unicode="&#x449;" horiz-adv-x="1817" 
d="M253 1071h364l-153 -786h217l154 786h342l-154 -786h219l152 786h364l-153 -788h131l-117 -605h-260l41 322h-1356z" />
    <glyph glyph-name="afii10092" unicode="&#x44a;" horiz-adv-x="1246" 
d="M272 823h-219l49 248h572l-64 -330h127q234 0 326 -78q94 -78 94 -235q0 -98 -33 -187.5t-88 -142.5t-133.5 -75.5t-210.5 -22.5h-580zM620 246q69 0 95.5 9.5t45.5 41.5q31 46 31 105q0 66 -35 92q-24 16 -114 16h-78l-51 -264h106z" />
    <glyph glyph-name="afii10093" unicode="&#x44b;" horiz-adv-x="1761" 
d="M542 741h129q231 0 323 -78q94 -78 94 -235q0 -99 -33 -188.5t-88 -141.5q-54 -53 -133 -75.5t-210 -22.5h-580l209 1071h354zM1351 1071h366l-209 -1071h-366zM552 246q68 0 94.5 9.5t46.5 41.5q31 46 31 105q0 66 -35 92q-24 16 -115 16h-77l-52 -264h107z" />
    <glyph glyph-name="afii10094" unicode="&#x44c;" horiz-adv-x="1178" 
d="M542 741h129q231 0 323 -78q94 -78 94 -235q0 -98 -33 -187.5t-88 -142.5q-54 -53 -133 -75.5t-210 -22.5h-580l209 1071h354zM552 246q68 0 94.5 9.5t45.5 41.5q31 46 31 105q0 67 -35 92q-24 16 -114 16h-77l-52 -264h107z" />
    <glyph glyph-name="afii10095" unicode="&#x44d;" horiz-adv-x="1124" 
d="M331 649h356q-3 185 -168 185q-137 0 -237 -93l-174 195q176 164 450 164q228 0 348 -109q150 -133 150 -371q0 -134 -42.5 -255t-119.5 -206q-169 -184 -483 -184q-335 0 -453 211l262 166q82 -111 207 -111q87 0 140 47t87 154h-364z" />
    <glyph glyph-name="afii10096" unicode="&#x44e;" horiz-adv-x="1729" 
d="M544 682h114q68 210 226 321q137 97 315 97q225 0 355 -151q112 -132 112 -337q0 -298 -180 -479q-156 -158 -387 -158q-211 0 -343 133q-114 116 -128 295h-140l-77 -403h-367l209 1071h366zM1184 834q-85 0 -133 -102q-57 -125 -57 -294q0 -197 117 -197q87 0 140 128
q46 111 46 276q0 189 -113 189z" />
    <glyph glyph-name="afii10097" unicode="&#x44f;" horiz-adv-x="1234" 
d="M627 0l73 379h-133q-51 0 -74 -27t-71 -141q-42 -99 -62 -136.5t-51 -74.5h-395v4q42 52 61.5 86.5t73.5 157.5q50 108 90.5 154t116.5 84q-72 45 -100.5 94t-28.5 126q0 95 38.5 171.5t106.5 119.5q65 42 145 58t220 16h553l-209 -1071h-354zM788 833h-141
q-91 0 -121 -33q-45 -41 -45 -116q0 -56 33 -82q19 -16 88 -16h139z" />
    <glyph glyph-name="uni0450" unicode="&#x450;" horiz-adv-x="1141" 
d="M546 -25q-250 0 -376 136q-109 119 -109 327q0 311 200 499q174 163 433 163q200 0 310 -98q95 -86 95 -226q0 -204 -207 -287q-140 -55 -464 -63v-20q0 -161 143 -161q83 0 143.5 22t120.5 75l168 -217q-101 -82 -205 -116t-252 -34zM450 625q173 0 247 33q64 29 64 90
q0 41 -27.5 65.5t-74.5 24.5q-149 0 -209 -213zM401 1542h391l49 -367h-260z" />
    <glyph glyph-name="afii10071" unicode="&#x451;" horiz-adv-x="1139" 
d="M546 -25q-250 0 -376 136q-109 119 -109 327q0 311 200 499q174 163 433 163q200 0 310 -98q95 -86 95 -226q0 -204 -207 -287q-140 -55 -464 -63v-20q0 -161 143 -161q83 0 143.5 22t120.5 75l168 -217q-101 -82 -205 -116t-252 -34zM450 625q173 0 247 33q64 29 64 90
q0 41 -27.5 65.5t-74.5 24.5q-149 0 -209 -213zM521 1544q76 0 123 -53q41 -45 41 -111q0 -87 -66 -147q-57 -51 -132 -51t-121 53q-41 46 -41 113q0 85 66 145q56 51 130 51zM972 1544q76 0 123 -53q41 -45 41 -111q0 -87 -66 -147q-57 -51 -132 -51t-120 53
q-40 46 -40 113q0 85 65 145q55 51 129 51z" />
    <glyph glyph-name="afii10099" unicode="&#x452;" horiz-adv-x="1222" 
d="M652 1395h192l-40 -207h-191l-57 -299q72 111 152.5 161t187.5 50q128 0 198 -86q60 -76 60 -199q0 -58 -19 -149l-90 -459q-54 -278 -94 -367t-139 -147q-109 -63 -363 -66l29 221q57 6 82 20.5t43 52.5q27 55 74 284l84 434q8 38 8 59q0 103 -94 103q-74 0 -115.5 -56
t-67.5 -190l-110 -555h-369l229 1188h-116l41 207h116l29 147h369z" />
    <glyph glyph-name="afii10100" unicode="&#x453;" horiz-adv-x="961" 
d="M253 1071h749l-55 -285h-383l-153 -786h-367zM595 1546h418l-279 -367h-268z" />
    <glyph glyph-name="afii10101" unicode="&#x454;" horiz-adv-x="1106" 
d="M825 649l-41 -207h-350q-2 -14 -2 -33q0 -168 168 -168q74 0 119 20t102 77l190 -187q-170 -176 -462 -176q-258 0 -385 134q-111 117 -111 325q0 139 48 266.5t134 219.5q168 180 434 180q309 0 447 -222l-232 -151q-77 111 -194 111q-76 0 -135 -51.5t-82 -137.5h352z
" />
    <glyph glyph-name="afii10102" unicode="&#x455;" horiz-adv-x="1058" 
d="M841 731q-54 53 -129.5 85t-146.5 32q-90 0 -90 -66q0 -30 24.5 -47.5t104.5 -44.5q110 -36 151 -55t87 -55q106 -86 106 -228q0 -192 -139 -291q-120 -86 -328 -86q-322 0 -510 177l188 219q127 -134 309 -134q113 0 113 68q0 32 -26.5 48t-147.5 56q-154 51 -220 135
q-58 74 -58 185q0 189 136 286q118 85 318 85q143 0 247.5 -35.5t203.5 -118.5z" />
    <glyph glyph-name="afii10103" unicode="&#x456;" horiz-adv-x="621" 
d="M489 1563q87 0 138 -55q44 -48 44 -122q0 -99 -72 -163q-62 -56 -149 -56q-84 0 -136 57q-46 50 -46 122q0 96 73 161q64 56 148 56zM231 1071h366l-208 -1071h-367z" />
    <glyph glyph-name="afii10104" unicode="&#x457;" horiz-adv-x="636" 
d="M231 1071h366l-208 -1071h-367zM261 1544q76 0 123 -53q41 -45 41 -111q0 -87 -66 -147q-57 -51 -132 -51t-121 53q-41 46 -41 113q0 85 66 145q56 51 130 51zM712 1544q76 0 123 -53q41 -45 41 -111q0 -87 -66 -147q-57 -51 -132 -51t-120 53q-40 46 -40 113
q0 85 65 145q55 51 129 51z" />
    <glyph glyph-name="afii10105" unicode="&#x458;" horiz-adv-x="649" 
d="M517 1563q87 0 138 -55q44 -48 44 -122q0 -99 -72 -163q-62 -56 -150 -56q-84 0 -136 57q-46 50 -46 122q0 96 74 161q63 56 148 56zM408 -43q-68 -348 -398 -348q-143 0 -229 61l100 260q38 -20 76 -20q43 0 63.5 22.5t32.5 83.5l205 1055h367z" />
    <glyph glyph-name="afii10106" unicode="&#x459;" horiz-adv-x="1712" 
d="M762 786h-201l-24 -128q-42 -205 -101 -355.5t-157 -302.5h-365q125 169 201.5 366t136.5 502l41 203h876l-67 -346h155q171 0 250 -33q58 -24 90.5 -79.5t32.5 -130.5q0 -110 -35.5 -210.5t-95.5 -158.5q-118 -113 -362 -113h-529zM1126 248q59 0 83 13.5t42 58.5
q19 47 19 98q0 45 -18.5 59.5t-75.5 14.5h-119l-47 -244h116z" />
    <glyph glyph-name="afii10107" unicode="&#x45a;" horiz-adv-x="1739" 
d="M835 1071h354l-68 -346h107q235 0 326 -74q96 -78 96 -231q0 -95 -33 -183.5t-88 -138.5q-55 -53 -133.5 -75.5t-210.5 -22.5h-559l84 436h-215l-84 -436h-367l209 1071h366l-75 -387h215zM1113 246q63 0 87 7t44 30q41 44 41 110q0 59 -37 86q-28 14 -114 14h-58
l-49 -247h86z" />
    <glyph glyph-name="afii10108" unicode="&#x45b;" horiz-adv-x="1222" 
d="M312 1542h369l-29 -147h192l-40 -207h-191l-57 -299q72 111 152 161t186 50q129 0 199 -86q61 -76 61 -199q0 -55 -19 -149l-127 -666h-368l123 639q6 28 6 59q0 103 -94 103q-74 0 -115.5 -56t-67.5 -190l-110 -555h-369l229 1188h-116l41 207h116z" />
    <glyph glyph-name="afii10109" unicode="&#x45c;" horiz-adv-x="1193" 
d="M253 1071h366l-81 -416h12q24 0 50 32.5t91 143.5q97 165 174 207q63 33 230 33h129l-45 -234h-33q-80 0 -104 -20q-20 -17 -74 -113q-61 -107 -140 -161q48 -36 75.5 -79.5t58.5 -133.5l124 -330h-393l-90 301q-25 82 -41.5 108.5t-42.5 26.5h-24l-84 -436h-367z
M753 1546h418l-279 -367h-268z" />
    <glyph glyph-name="uni045D" unicode="&#x45d;" horiz-adv-x="1275" 
d="M253 1071h366l-100 -518l326 420l20 98h367l-209 -1071h-367l103 524l-328 -420l-20 -104h-367zM468 1542h391l49 -367h-260z" />
    <glyph glyph-name="afii10110" unicode="&#x45e;" horiz-adv-x="1194" 
d="M635 -72q-103 -182 -220 -254q-102 -63 -249 -63q-150 0 -250 71l133 254q47 -34 117 -34q53 0 87.5 26.5t72.5 95.5l-191 1047h381l82 -610l311 610h367zM651 1544v-16q0 -121 99 -121q54 0 79.5 31t32.5 106h236q-28 -204 -120 -288q-81 -72 -228 -72q-195 0 -279 119
q-30 42 -41.5 95t-11.5 146h233z" />
    <glyph glyph-name="afii10193" unicode="&#x45f;" horiz-adv-x="1255" 
d="M253 1071h369l-154 -786h221l154 786h368l-209 -1071h-335l-86 -322h-238l37 322h-336z" />
    <glyph glyph-name="afii10050" unicode="&#x490;" horiz-adv-x="1161" 
d="M329 1464h645l84 269h260l-113 -582h-545l-223 -1151h-393z" />
    <glyph glyph-name="afii10098" unicode="&#x491;" horiz-adv-x="963" 
d="M253 1071h479l66 225h247l-98 -510h-383l-153 -786h-367z" />
    <glyph glyph-name="uni0492" unicode="&#x492;" horiz-adv-x="1156" 
d="M44 0l109 555h-168l59 285h160l125 624h938l-61 -313h-551l-64 -311h312l-60 -285h-303l-109 -555h-387z" />
    <glyph glyph-name="uni0493" unicode="&#x493;" horiz-adv-x="958" 
d="M41 0l69 354h-106l45 227h105l96 490h749l-55 -285h-383l-41 -205h279l-45 -227h-277l-70 -354h-366z" />
    <glyph glyph-name="uni0496" unicode="&#x496;" horiz-adv-x="1978" 
d="M1477 0l-84 336q-45 172 -83 227.5t-117 62.5l-121 -626h-375l123 626q-81 -20 -134 -71.5t-161 -218.5l-217 -336h-424l313 448q108 152 173 219t139 103q-27 28 -40 66t-30 134q-26 147 -52 182t-110 35q-49 0 -94 -4l55 281h15q73 8 98 8q138 0 207 -27
q73 -27 113.5 -97.5t70.5 -223.5q29 -155 50.5 -199.5t68.5 -44.5h8l113 584h375l-115 -584q53 0 79.5 9t50.5 35q34 38 124 204q122 229 214 289q83 53 255 53q18 0 94 -4l43 -2l-55 -281h-19q-26 2 -59 2q-48 0 -79 -20.5t-58 -69.5q-20 -34 -81 -162l-12 -24
q-30 -65 -51.5 -94.5t-79.5 -81.5q70 -63 138 -285l45 -141h196l-129 -667h-276l39 360h-144z" />
    <glyph glyph-name="uni0497" unicode="&#x497;" horiz-adv-x="1654" 
d="M1169 0l-76 301q-20 82 -36 110t-44 28h-27l-84 -439h-354l86 439h-22q-33 0 -57 -25t-77 -113l-182 -301h-393l244 330q68 95 112.5 139t114.5 84q-29 40 -40.5 69.5t-18.5 82.5q-16 95 -32.5 114t-84.5 19h-62l48 233h100q108 0 157 -15.5t78 -58.5q25 -35 37 -80
t27 -153q17 -102 61 -102h33l80 409h352l-80 -409h41q43 0 65 28q18 23 77 139q77 157 153 202q67 40 203 40h115l-45 -233h-29q-61 0 -82 -19t-68 -114q-28 -60 -50 -90t-72 -78l-13 -11q37 -34 58.5 -74t48.5 -122l16 -45h199l-119 -607h-262l39 322h-135z" />
    <glyph glyph-name="uni049A" unicode="&#x49a;" horiz-adv-x="1369" 
d="M1170 307h238l-129 -665h-277l39 358h-198l-94 336q-50 176 -78 225q-35 59 -86 59h-27l-121 -620h-393l285 1464h393l-113 -584h17q28 0 59 41t121 197q133 227 249 293q102 59 298 59q13 0 116 -5l15 -1l-54 -281q-49 2 -94 2q-90 0 -134 -41q-39 -37 -122 -176
q-60 -100 -86 -134t-65 -64q61 -35 103.5 -106t88.5 -216l47 -143z" />
    <glyph glyph-name="uni049B" unicode="&#x49b;" horiz-adv-x="1193" 
d="M1183 285l-119 -607h-262l39 322h-148l-90 301q-25 82 -41.5 108.5t-42.5 26.5h-24l-84 -436h-367l209 1071h366l-81 -416h12q24 0 50 32.5t91 143.5q97 164 174 207q63 33 230 33h129l-45 -233h-33q-80 0 -104 -21q-20 -17 -74 -112q-61 -108 -140 -162q55 -43 74.5 -75
t81.5 -183h199z" />
    <glyph glyph-name="uni049C" unicode="&#x49c;" horiz-adv-x="1535" 
d="M44 0l285 1464h393l-113 -583h107l65 340h144l-60 -313q23 26 116 187l13 23q129 226 245 294q98 58 280 58q13 0 116 -5l15 -1l-54 -280q-49 2 -94 2q-52 0 -80 -8.5t-53 -32.5q-38 -36 -123 -176q-61 -101 -87 -135t-64 -64q59 -34 101 -104t91 -217l148 -449h-404
l-90 336q-45 169 -78 226q-21 39 -55 53l-80 -418h-141l80 424h-109l-121 -621h-393z" />
    <glyph glyph-name="uni049D" unicode="&#x49d;" horiz-adv-x="1351" 
d="M1252 1071h129l-45 -233h-32q-80 0 -104 -21q-20 -18 -75 -113q-58 -106 -139 -162q49 -35 77 -78.5t58 -133.5l123 -330h-393l-70 301q-20 89 -65 135l-66 -350h-139l65 350h-81l-84 -436h-367l209 1071h366l-81 -416h81l52 265h139l-49 -251q38 33 60 67.5t79 146.5
q61 122 123 155q63 33 229 33z" />
    <glyph glyph-name="uni04A2" unicode="&#x4a2;" horiz-adv-x="1554" 
d="M869 0l115 586h-430l-115 -586h-393l285 1464h393l-111 -565h430l111 565h393l-223 -1151h213l-129 -667h-277l37 354h-299z" />
    <glyph glyph-name="uni04A3" unicode="&#x4a3;" horiz-adv-x="1264" 
d="M1232 285l-117 -607h-262l39 322h-246l78 403h-236l-77 -403h-367l209 1071h366l-75 -389h235l76 389h367l-154 -786h164z" />
    <glyph glyph-name="uni04AE" unicode="&#x4ae;" horiz-adv-x="1379" 
d="M513 610l-303 854h410l163 -516l347 516h401l-631 -874l-115 -590h-391z" />
    <glyph glyph-name="uni04AF" unicode="&#x4af;" horiz-adv-x="1197" 
d="M605 -401h-354l80 422l-193 1050h381l82 -610l311 610h367l-600 -1069z" />
    <glyph glyph-name="uni04B0" unicode="&#x4b0;" horiz-adv-x="1378" 
d="M899 590l-20 -106h236l-52 -281h-237l-41 -203h-391l41 203h-238l53 281h238l24 127l-303 853h410l164 -516l346 516h401z" />
    <glyph glyph-name="uni04B1" unicode="&#x4b1;" horiz-adv-x="1195" 
d="M249 -401l33 178h-170l45 223h170l2 23l-192 1048h381l81 -610l312 610h366l-596 -1071h183l-45 -223h-183l-32 -178h-355z" />
    <glyph glyph-name="uni04B2" unicode="&#x4b2;" horiz-adv-x="1460" 
d="M885 0l-172 495l-355 -495h-436l616 772l-297 692h447l141 -426l285 426h434l-547 -717l191 -436h235l-129 -665h-276l39 354h-176z" />
    <glyph glyph-name="uni04B3" unicode="&#x4b3;" horiz-adv-x="1186" 
d="M1135 285l-119 -607h-262l38 322h-139l-117 318l-229 -318h-389l453 563l-224 508h408l96 -278l195 278h391l-424 -516l121 -270h201z" />
    <glyph glyph-name="uni04B6" unicode="&#x4b6;" horiz-adv-x="1377" 
d="M1319 -354h-274l37 354h-353l101 516q-129 -150 -346 -150q-166 0 -252 97q-74 84 -74 229q0 112 37 299l92 473h393l-100 -516q-19 -102 -19 -150q0 -127 123 -127q177 0 219 228l111 565h393l-223 -1151h264z" />
    <glyph glyph-name="uni04B7" unicode="&#x4b7;" horiz-adv-x="1195" 
d="M1184 285l-116 -607h-262l38 322h-266l86 436q-117 -184 -301 -184q-134 0 -204 90q-60 79 -60 215q0 80 20 182l64 332h367l-64 -323q-12 -74 -12 -109q0 -104 88 -104q120 0 160 202l65 334h367l-181 -786h211z" />
    <glyph glyph-name="uni04B8" unicode="&#x4b8;" horiz-adv-x="1436" 
d="M1076 1464h393l-285 -1464h-393l100 520q-81 -56 -131 -84l-53 -268h-141l41 211q-59 -12 -123 -12q-166 0 -252 96q-74 84 -74 227q0 114 37 301l92 473h393l-100 -516q-19 -101 -19 -149q0 -58 26.5 -97.5t72.5 -48.5l71 365h142l-68 -348q125 46 162 229z" />
    <glyph glyph-name="uni04B9" unicode="&#x4b9;" horiz-adv-x="1271" 
d="M861 1071h366l-208 -1071h-367l94 438q-34 -27 -102 -73l-6 -5l-56 -256h-141l37 172q-55 -18 -115 -18q-135 0 -204 87q-60 77 -60 212q0 80 20 182l64 332h367l-64 -323q-12 -71 -12 -121q0 -82 59 -101l51 238h142l-47 -219q88 40 116 192z" />
    <glyph glyph-name="uni04BA" unicode="&#x4ba;" horiz-adv-x="1375" 
d="M836 1464l-100 -514q129 148 346 148q165 0 251 -96q74 -84 74 -228q0 -108 -37 -301l-92 -473h-393l100 516q19 101 19 150q0 127 -123 127q-177 0 -219 -228l-111 -565h-393l285 1464h393z" />
    <glyph glyph-name="uni04BB" unicode="&#x4bb;" horiz-adv-x="1222" 
d="M312 1542h369l-125 -653q72 111 152.5 161t187.5 50q128 0 198 -86q60 -76 60 -199q0 -58 -19 -149l-127 -666h-368l123 639q6 31 6 59q0 103 -94 103q-88 0 -138 -90q-23 -42 -45 -156l-110 -555h-369z" />
    <glyph glyph-name="uni04C0" unicode="&#x4c0;" horiz-adv-x="706" 
d="M338 1464h395l-285 -1464h-395z" />
    <glyph glyph-name="uni04CF" unicode="&#x4cf;" horiz-adv-x="706" 
d="M338 1464h395l-285 -1464h-395z" />
    <glyph glyph-name="uni04D8" unicode="&#x4d8;" horiz-adv-x="1593" 
d="M245 1147q115 177 305 265q163 75 363 75q311 0 490 -202q155 -176 155 -449q0 -245 -104 -444q-101 -194 -280 -304q-183 -113 -409 -113q-320 0 -496 197q-153 172 -153 451q0 128 35 256h1001q-12 301 -252 301q-110 0 -178.5 -39.5t-136.5 -142.5zM522 594
q6 -312 256 -312q239 0 335 312h-591z" />
    <glyph glyph-name="afii10846" unicode="&#x4d9;" horiz-adv-x="1141" 
d="M585 830q-150 0 -274 -109l-146 221q211 158 449 158q250 0 376 -136q109 -119 109 -327q0 -311 -200 -499q-173 -163 -431 -163q-202 0 -311 98q-96 86 -96 226q0 137 90 217q78 69 234 102q115 26 346 31q1 17 1 35q0 146 -147 146zM710 451q-173 0 -247 -34
q-64 -29 -64 -90q0 -42 28 -66t76 -24q146 0 207 214z" />
    <glyph glyph-name="uni04E2" unicode="&#x4e2;" horiz-adv-x="1463" 
d="M329 1464h387l-152 -780l522 657l25 123h385l-285 -1464h-387l154 788l-524 -657l-25 -131h-385zM726 1864h531l-48 -246h-532z" />
    <glyph glyph-name="uni04E3" unicode="&#x4e3;" horiz-adv-x="1275" 
d="M253 1071h366l-100 -518l326 420l20 98h367l-209 -1071h-367l103 524l-328 -420l-20 -104h-367zM558 1487h531l-48 -246h-532z" />
    <glyph glyph-name="uni04E8" unicode="&#x4e8;" horiz-adv-x="1593" 
d="M921 1487q305 0 482 -203q155 -177 155 -448q0 -245 -104 -444q-101 -194 -280 -304q-183 -113 -409 -113q-320 0 -496 197q-153 172 -153 451q0 244 106 444q103 195 285 306q186 114 414 114zM1152 879q-12 301 -252 301q-235 0 -335 -301h587zM522 594
q6 -312 256 -312q239 0 335 312h-591z" />
    <glyph glyph-name="uni04E9" unicode="&#x4e9;" horiz-adv-x="1225" 
d="M665 1100q240 0 377 -151q119 -132 119 -336q0 -302 -190 -482q-165 -156 -412 -156q-237 0 -376 152q-120 132 -120 334q0 294 194 479q168 160 408 160zM792 656q-3 178 -141 178q-63 0 -107 -42.5t-78 -135.5h326zM432 410q9 -169 145 -169q116 0 178 169h-323z" />
    <glyph glyph-name="uni04EE" unicode="&#x4ee;" horiz-adv-x="1334" 
d="M180 1464h420l184 -627l330 627h375l-592 -1061q-140 -253 -281 -346q-125 -82 -309 -82q-107 0 -219 25l88 309q69 -21 137 -21q80 0 124 25t87 94l23 39zM659 1864h531l-48 -246h-532z" />
    <glyph glyph-name="uni04EF" unicode="&#x4ef;" horiz-adv-x="1194" 
d="M635 -72q-103 -182 -220 -254q-102 -63 -249 -63q-150 0 -250 71l133 254q47 -34 117 -34q53 0 87.5 26.5t72.5 95.5l-191 1047h381l82 -610l311 610h367zM518 1487h531l-48 -246h-532z" />
    <glyph glyph-name="uni1E1E" unicode="&#x1e1e;" horiz-adv-x="1223" 
d="M331 1464h991l-57 -307h-601l-65 -328h444l-57 -297h-444l-103 -532h-393zM875 1898q76 0 123 -52q41 -45 41 -110q0 -88 -66 -148q-57 -52 -132 -52q-74 0 -121 54q-41 46 -41 112q0 85 66 145q56 51 130 51z" />
    <glyph glyph-name="Wgrave" unicode="&#x1e80;" horiz-adv-x="2098" 
d="M237 1464h397l25 -973l409 973h324l53 -983l400 983h387l-633 -1464h-420l-49 911l-393 -911h-426zM946 1933h391l49 -369h-260z" />
    <glyph glyph-name="wgrave" unicode="&#x1e81;" horiz-adv-x="1666" 
d="M149 1071h373l16 -616l260 616h297l23 -616l258 616h360l-514 -1071h-352l-35 573l-237 -573h-359zM665 1542h391l49 -367h-260z" />
    <glyph glyph-name="Wacute" unicode="&#x1e82;" horiz-adv-x="2098" 
d="M237 1464h397l25 -973l409 973h324l53 -983l400 983h387l-633 -1464h-420l-49 911l-393 -911h-426zM1236 1933h418l-279 -369h-268z" />
    <glyph glyph-name="wacute" unicode="&#x1e83;" horiz-adv-x="1666" 
d="M149 1071h373l16 -616l260 616h297l23 -616l258 616h360l-514 -1071h-352l-35 573l-237 -573h-359zM950 1546h418l-279 -367h-268z" />
    <glyph glyph-name="Wdieresis" unicode="&#x1e84;" horiz-adv-x="2098" 
d="M237 1464h397l25 -973l409 973h324l53 -983l400 983h387l-633 -1464h-420l-49 911l-393 -911h-426zM1087 1870q65 0 107.5 -41.5t42.5 -106.5q0 -80 -60 -135q-52 -47 -120 -47q-63 0 -105.5 43.5t-42.5 108.5q0 77 60 131q51 47 118 47zM1501 1870q65 0 107 -41.5
t42 -106.5q0 -80 -60 -135q-51 -47 -120 -47q-64 0 -105.5 42.5t-41.5 109.5q0 77 60 131q52 47 118 47z" />
    <glyph glyph-name="wdieresis" unicode="&#x1e85;" horiz-adv-x="1666" 
d="M149 1071h373l16 -616l260 616h297l23 -616l258 616h360l-514 -1071h-352l-35 573l-237 -573h-359zM785 1544q76 0 123 -53q41 -45 41 -111q0 -87 -66 -147q-57 -51 -132 -51t-121 53q-41 46 -41 113q0 85 66 145q56 51 130 51zM1236 1544q76 0 123 -53q41 -45 41 -111
q0 -87 -66 -147q-57 -51 -132 -51t-120 53q-40 46 -40 113q0 85 65 145q55 51 129 51z" />
    <glyph glyph-name="uni1EA0" unicode="&#x1ea0;" 
d="M415 252l-118 -252h-371l756 1464h479l182 -1464h-405l-23 252h-500zM837 1139l-284 -602h338zM598 -111q76 0 123 -52q41 -46 41 -112q0 -87 -66 -146q-57 -52 -133 -52q-74 0 -121 53q-41 46 -41 113q0 85 66 145q57 51 131 51z" />
    <glyph glyph-name="uni1EA1" unicode="&#x1ea1;" horiz-adv-x="1131" 
d="M606 0q-11 41 -11 131q-52 -82 -118.5 -119t-159.5 -37q-142 0 -224 89q-71 78 -71 198q0 272 311 346q154 35 346 35q1 5 2 15q2 23 2 34q0 111 -133 111q-118 0 -278 -72l-123 256q117 62 223 87.5t244 25.5q438 0 438 -338q0 -50 -14 -133l-80 -416q-12 -61 -12 -119
q0 -50 12 -82v-12h-354zM640 444q-141 -1 -199 -37q-50 -31 -50 -96q0 -78 82 -78q127 0 157 160zM423 -111q76 0 123 -52q41 -46 41 -112q0 -87 -66 -146q-57 -52 -132 -52t-121 53q-41 46 -41 113q0 85 66 145q56 51 130 51z" />
    <glyph glyph-name="uni1EA2" unicode="&#x1ea2;" 
d="M837 1540l33 168l19 2l12 2l16 2q48 6 62 16t14 38q0 12 -16 12q-42 0 -72 -11.5t-123 -62.5l-53 119q168 98 270 98q77 0 124 -45q40 -40 40 -98q0 -70 -42.5 -117.5t-117.5 -63.5l-10 -59h-156zM415 252l-118 -252h-371l756 1464h479l182 -1464h-405l-23 252h-500z
M837 1139l-284 -602h338z" />
    <glyph glyph-name="uni1EA3" unicode="&#x1ea3;" horiz-adv-x="1131" 
d="M614 1188l33 168l18 2l12 2l17 2q48 6 62 15.5t14 37.5q0 12 -16 12q-42 0 -72 -11.5t-123 -61.5l-54 118q169 98 271 98q77 0 124 -45q40 -40 40 -98q0 -69 -42.5 -116.5t-117.5 -63.5l-10 -59h-156zM606 0q-11 41 -11 131q-52 -82 -118.5 -119t-159.5 -37
q-142 0 -224 89q-71 78 -71 198q0 272 311 346q154 35 346 35q1 5 2 15q2 23 2 34q0 111 -133 111q-118 0 -278 -72l-123 256q117 62 223 87.5t244 25.5q438 0 438 -338q0 -50 -14 -133l-80 -416q-12 -61 -12 -119q0 -50 12 -82v-12h-354zM640 444q-141 -1 -199 -37
q-50 -31 -50 -96q0 -78 82 -78q127 0 157 160z" />
    <glyph glyph-name="uni1EA4" unicode="&#x1ea4;" horiz-adv-x="1492" 
d="M1333 1964h422l-291 -367h-209l39 -85h-262l-92 116l-131 -116h-258l303 356h276l90 -195zM415 252l-118 -252h-371l756 1464h479l182 -1464h-405l-23 252h-500zM837 1139l-284 -602h338z" />
    <glyph glyph-name="uni1EA5" unicode="&#x1ea5;" horiz-adv-x="1153" 
d="M1091 1710h422l-293 -367h-211l74 -157h-262l-92 116l-132 -116h-258l301 356h277l59 -127zM606 0q-11 41 -11 131q-52 -82 -118.5 -119t-159.5 -37q-142 0 -224 89q-71 78 -71 198q0 272 311 346q154 35 346 35q1 5 2 15q2 23 2 34q0 111 -133 111q-118 0 -278 -72
l-123 256q117 62 223 87.5t244 25.5q438 0 438 -338q0 -50 -14 -133l-80 -416q-12 -61 -12 -119q0 -50 12 -82v-12h-354zM640 444q-141 -1 -199 -37q-50 -31 -50 -96q0 -78 82 -78q127 0 157 160z" />
    <glyph glyph-name="uni1EA6" unicode="&#x1ea6;" horiz-adv-x="1480" 
d="M1161 1989h422v-367h-272zM856 1862h276l164 -356h-262l-92 117l-131 -117h-258zM415 252l-118 -252h-371l756 1464h479l182 -1464h-405l-23 252h-500zM837 1139l-284 -602h338z" />
    <glyph glyph-name="uni1EA7" unicode="&#x1ea7;" horiz-adv-x="1139" 
d="M888 1739h422v-367h-272zM616 1542h276l164 -356h-262l-92 117l-131 -117h-258zM606 0q-11 41 -11 131q-52 -82 -118.5 -119t-159.5 -37q-142 0 -224 89q-71 78 -71 198q0 272 311 346q154 35 346 35q1 5 2 15q2 23 2 34q0 111 -133 111q-118 0 -278 -72l-123 256
q117 62 223 87.5t244 25.5q438 0 438 -338q0 -50 -14 -133l-80 -416q-12 -61 -12 -119q0 -50 12 -82v-12h-354zM640 444q-141 -1 -199 -37q-50 -31 -50 -96q0 -78 82 -78q127 0 157 160z" />
    <glyph glyph-name="uni1EA8" unicode="&#x1ea8;" horiz-adv-x="1480" 
d="M1269 1610l33 168l19 2l12 2l18 2q46 5 60 15.5t14 40.5q0 10 -16 10q-42 0 -72 -11.5t-123 -62.5l-51 119q166 98 268 98q77 0 124 -45q40 -40 40 -98q0 -69 -42 -117t-116 -64l-12 -59h-156zM846 1847h276l164 -356h-262l-92 117l-132 -117h-258zM415 252l-118 -252
h-371l756 1464h479l182 -1464h-405l-23 252h-500zM837 1139l-284 -602h338z" />
    <glyph glyph-name="uni1EA9" unicode="&#x1ea9;" horiz-adv-x="1140" 
d="M1001 1397l33 168l16 2l12 2l19 2q47 5 61.5 15.5t14.5 40.5q0 10 -16 10q-45 0 -72 -10.5t-123 -63.5l-54 119q166 98 271 98q77 0 124 -45q40 -40 40 -98q0 -70 -42.5 -117.5t-117.5 -63.5l-12 -59h-154zM618 1542h276l164 -356h-262l-92 117l-131 -117h-258zM606 0
q-11 41 -11 131q-52 -82 -118.5 -119t-159.5 -37q-142 0 -224 89q-71 78 -71 198q0 272 311 346q154 35 346 35q1 5 2 15q2 23 2 34q0 111 -133 111q-118 0 -278 -72l-123 256q117 62 223 87.5t244 25.5q438 0 438 -338q0 -50 -14 -133l-80 -416q-12 -61 -12 -119
q0 -50 12 -82v-12h-354zM640 444q-141 -1 -199 -37q-50 -31 -50 -96q0 -78 82 -78q127 0 157 160z" />
    <glyph glyph-name="uni1EAA" unicode="&#x1eaa;" horiz-adv-x="1479" 
d="M1368 1974q-82 -219 -303 -219q-73 0 -160 33q-50 19 -76 19q-56 0 -80 -46l-198 8q39 114 110.5 167t184.5 53q65 0 151 -31q49 -21 80 -21q47 0 74 45zM825 1735h277l188 -242h-262l-101 80l-122 -80h-258zM415 252l-118 -252h-371l756 1464h479l182 -1464h-405
l-23 252h-500zM837 1139l-284 -602h338z" />
    <glyph glyph-name="uni1EAB" unicode="&#x1eab;" horiz-adv-x="1130" 
d="M1193 1862q-102 -324 -323 -324q-65 0 -156 47q-51 27 -78 27q-52 0 -82 -66l-198 13q54 178 138 255q73 68 179 68q71 0 148 -45q49 -29 80 -29q26 0 42.5 14t32.5 52zM606 1503h276l164 -356h-262l-92 117l-131 -117h-258zM606 0q-11 41 -11 131q-52 -82 -118.5 -119
t-159.5 -37q-142 0 -224 89q-71 78 -71 198q0 272 311 346q154 35 346 35q1 5 2 15q2 23 2 34q0 111 -133 111q-118 0 -278 -72l-123 256q117 62 223 87.5t244 25.5q438 0 438 -338q0 -50 -14 -133l-80 -416q-12 -61 -12 -119q0 -50 12 -82v-12h-354zM640 444
q-141 -1 -199 -37q-50 -31 -50 -96q0 -78 82 -78q127 0 157 160z" />
    <glyph glyph-name="uni1EAC" unicode="&#x1eac;" 
d="M880 1933h267l157 -356h-250l-81 125l-127 -125h-258zM415 252l-118 -252h-371l756 1464h479l182 -1464h-405l-23 252h-500zM837 1139l-284 -602h338zM598 -111q76 0 123 -52q41 -46 41 -112q0 -87 -66 -146q-57 -52 -133 -52q-74 0 -121 53q-41 46 -41 113q0 85 66 145
q57 51 131 51z" />
    <glyph glyph-name="uni1EAD" unicode="&#x1ead;" horiz-adv-x="1129" 
d="M653 1546h266l158 -356h-250l-82 125l-127 -125h-258zM606 0q-11 41 -11 131q-52 -82 -118.5 -119t-159.5 -37q-142 0 -224 89q-71 78 -71 198q0 272 311 346q154 35 346 35q1 5 2 15q2 23 2 34q0 111 -133 111q-118 0 -278 -72l-123 256q117 62 223 87.5t244 25.5
q438 0 438 -338q0 -50 -14 -133l-80 -416q-12 -61 -12 -119q0 -50 12 -82v-12h-354zM640 444q-141 -1 -199 -37q-50 -31 -50 -96q0 -78 82 -78q127 0 157 160zM423 -111q76 0 123 -52q41 -46 41 -112q0 -87 -66 -146q-57 -52 -132 -52t-121 53q-41 46 -41 113q0 85 66 145
q56 51 130 51z" />
    <glyph glyph-name="uni1EAE" unicode="&#x1eae;" horiz-adv-x="1480" 
d="M932 1993h421l-260 -201h-272zM833 1767q3 -51 29.5 -71.5t87.5 -20.5t91 20.5t42 71.5h229q-29 -145 -125 -205q-84 -53 -235 -53q-211 0 -297 96q-49 55 -49 162h227zM415 252l-118 -252h-371l756 1464h479l182 -1464h-405l-23 252h-500zM837 1139l-284 -602h338z" />
    <glyph glyph-name="uni1EAF" unicode="&#x1eaf;" horiz-adv-x="1126" 
d="M772 1925h358l-289 -365h-221zM610 1511v-14q0 -104 98 -104q54 0 79.5 26.5t33.5 91.5h235q-27 -177 -120 -249q-80 -62 -228 -62q-195 0 -278 102q-54 65 -54 209h234zM606 0q-11 41 -11 131q-52 -82 -118.5 -119t-159.5 -37q-142 0 -224 89q-71 78 -71 198
q0 272 311 346q154 35 346 35q1 5 2 15q2 23 2 34q0 111 -133 111q-118 0 -278 -72l-123 256q117 62 223 87.5t244 25.5q438 0 438 -338q0 -50 -14 -133l-80 -416q-12 -61 -12 -119q0 -50 12 -82v-12h-354zM640 444q-141 -1 -199 -37q-50 -31 -50 -96q0 -78 82 -78
q127 0 157 160z" />
    <glyph glyph-name="uni1EB0" unicode="&#x1eb0;" 
d="M643 1999h422l30 -203h-272zM833 1767q3 -51 29.5 -71.5t87.5 -20.5t91 20.5t42 71.5h229q-29 -145 -125 -205q-84 -53 -235 -53q-211 0 -297 96q-49 55 -49 162h227zM415 252l-118 -252h-371l756 1464h479l182 -1464h-405l-23 252h-500zM837 1139l-284 -602h338z" />
    <glyph glyph-name="uni1EB1" unicode="&#x1eb1;" horiz-adv-x="1131" 
d="M423 1921h422l2 -367h-272zM610 1511v-14q0 -104 98 -104q54 0 79.5 26.5t33.5 91.5h235q-27 -177 -120 -249q-80 -62 -228 -62q-195 0 -278 102q-54 65 -54 209h234zM606 0q-11 41 -11 131q-52 -82 -118.5 -119t-159.5 -37q-142 0 -224 89q-71 78 -71 198q0 272 311 346
q154 35 346 35q1 5 2 15q2 23 2 34q0 111 -133 111q-118 0 -278 -72l-123 256q117 62 223 87.5t244 25.5q438 0 438 -338q0 -50 -14 -133l-80 -416q-12 -61 -12 -119q0 -50 12 -82v-12h-354zM640 444q-141 -1 -199 -37q-50 -31 -50 -96q0 -78 82 -78q127 0 157 160z" />
    <glyph glyph-name="uni1EB2" unicode="&#x1eb2;" 
d="M880 1720l23 113q5 0 27 2q13 1 20 2q47 4 59.5 10t12.5 23q0 10 -16 10q-59 0 -160 -37q-7 -3 -16 -7q-7 -3 -15 -5l-62 80l15 4l16 8l16 4q122 49 216 49q83 0 133 -33q43 -28 43 -71q0 -91 -148 -113l-8 -39h-156zM1306 1716q-30 -110 -115 -160.5t-239 -50.5
q-212 0 -297 88q-43 44 -49 123h231q8 -32 33.5 -45.5t79.5 -13.5q99 0 125 59h231zM415 252l-118 -252h-371l756 1464h479l182 -1464h-405l-23 252h-500zM837 1139l-284 -602h338z" />
    <glyph glyph-name="uni1EB3" unicode="&#x1eb3;" horiz-adv-x="1131" 
d="M653 1532l33 168l18 2l10 2l19 2q43 6 56.5 13t16.5 24q2 11 2 17q0 12 -16 12q-42 0 -72 -11.5t-123 -62.5l-53 119q168 98 268 98q80 0 126 -46q39 -39 39 -99q0 -16 -3 -33q-22 -118 -155 -146l-11 -59h-155zM610 1511v-14q0 -104 98 -104q54 0 79.5 26.5t33.5 91.5
h235q-27 -177 -120 -249q-80 -62 -228 -62q-195 0 -278 102q-54 65 -54 209h234zM606 0q-11 41 -11 131q-52 -82 -118.5 -119t-159.5 -37q-142 0 -224 89q-71 78 -71 198q0 272 311 346q154 35 346 35q1 5 2 15q2 23 2 34q0 111 -133 111q-118 0 -278 -72l-123 256
q117 62 223 87.5t244 25.5q438 0 438 -338q0 -50 -14 -133l-80 -416q-12 -61 -12 -119q0 -50 12 -82v-12h-354zM640 444q-141 -1 -199 -37q-50 -31 -50 -96q0 -78 82 -78q127 0 157 160z" />
    <glyph glyph-name="uni1EB4" unicode="&#x1eb4;" horiz-adv-x="1477" 
d="M1394 1987q-85 -240 -307 -240q-70 0 -157 33q-49 20 -76 20q-53 0 -82 -47l-199 8q81 240 299 240q74 0 152 -33q48 -20 80 -20q27 0 42.5 9.5t30.5 37.5zM1306 1722q-32 -130 -127 -185q-83 -48 -227 -48q-211 0 -297 96q-44 50 -49 137h231q8 -37 33.5 -52t79.5 -15
q100 0 125 67h231zM415 252l-118 -252h-371l756 1464h479l182 -1464h-405l-23 252h-500zM837 1139l-284 -602h338z" />
    <glyph glyph-name="uni1EB5" unicode="&#x1eb5;" horiz-adv-x="1128" 
d="M1157 1853q-100 -323 -322 -323q-72 0 -158 47q-47 27 -75 27q-52 0 -84 -66l-197 12q54 179 137 256q74 68 178 68q66 0 148 -45q52 -29 82 -29q27 0 43 14t33 52zM610 1464v-14q0 -104 98 -104q54 0 79.5 26.5t33.5 91.5h235q-27 -177 -120 -249q-80 -62 -228 -62
q-195 0 -278 102q-54 65 -54 209h234zM606 0q-11 41 -11 131q-52 -82 -118.5 -119t-159.5 -37q-142 0 -224 89q-71 78 -71 198q0 272 311 346q154 35 346 35q1 5 2 15q2 23 2 34q0 111 -133 111q-118 0 -278 -72l-123 256q117 62 223 87.5t244 25.5q438 0 438 -338
q0 -50 -14 -133l-80 -416q-12 -61 -12 -119q0 -50 12 -82v-12h-354zM640 444q-141 -1 -199 -37q-50 -31 -50 -96q0 -78 82 -78q127 0 157 160z" />
    <glyph glyph-name="uni1EB6" unicode="&#x1eb6;" 
d="M850 1921q3 -69 28.5 -96t87.5 -27q64 0 94.5 28t41.5 95h235q-31 -195 -128 -275q-86 -71 -241 -71q-104 0 -183.5 34t-119.5 95q-49 75 -49 217h234zM415 252l-118 -252h-371l756 1464h479l182 -1464h-405l-23 252h-500zM837 1139l-284 -602h338zM598 -111
q76 0 123 -52q41 -46 41 -112q0 -87 -66 -146q-57 -52 -133 -52q-74 0 -121 53q-41 46 -41 113q0 85 66 145q57 51 131 51z" />
    <glyph glyph-name="uni1EB7" unicode="&#x1eb7;" horiz-adv-x="1130" 
d="M622 1544v-16q0 -121 98 -121q54 0 80 31t33 106h236q-28 -204 -121 -288q-80 -72 -228 -72q-195 0 -278 119q-30 42 -41.5 95t-11.5 146h233zM606 0q-11 41 -11 131q-52 -82 -118.5 -119t-159.5 -37q-142 0 -224 89q-71 78 -71 198q0 272 311 346q154 35 346 35
q1 5 2 15q2 23 2 34q0 111 -133 111q-118 0 -278 -72l-123 256q117 62 223 87.5t244 25.5q438 0 438 -338q0 -50 -14 -133l-80 -416q-12 -61 -12 -119q0 -50 12 -82v-12h-354zM640 444q-141 -1 -199 -37q-50 -31 -50 -96q0 -78 82 -78q127 0 157 160zM423 -111q76 0 123 -52
q41 -46 41 -112q0 -87 -66 -146q-57 -52 -132 -52t-121 53q-41 46 -41 113q0 85 66 145q56 51 130 51z" />
    <glyph glyph-name="uni1EB8" unicode="&#x1eb8;" horiz-adv-x="1275" 
d="M331 1464h1007l-57 -307h-623l-51 -264h443l-60 -291h-440l-58 -295h654l-60 -307h-1040zM496 -111q76 0 123 -52q41 -46 41 -112q0 -87 -66 -146q-57 -52 -132 -52t-121 53q-41 46 -41 113q0 85 66 145q56 51 130 51z" />
    <glyph glyph-name="uni1EB9" unicode="&#x1eb9;" horiz-adv-x="1141" 
d="M546 -25q-250 0 -376 136q-109 119 -109 327q0 311 200 499q174 163 433 163q200 0 310 -98q95 -86 95 -226q0 -204 -207 -287q-140 -55 -464 -63v-20q0 -161 143 -161q83 0 143.5 22t120.5 75l168 -217q-101 -82 -205 -116t-252 -34zM450 625q173 0 247 33q64 29 64 90
q0 41 -27.5 65.5t-74.5 24.5q-149 0 -209 -213zM429 -111q76 0 123 -52q41 -46 41 -112q0 -87 -66 -146q-57 -52 -132 -52t-121 53q-41 46 -41 113q0 85 66 145q56 51 130 51z" />
    <glyph glyph-name="uni1EBA" unicode="&#x1eba;" horiz-adv-x="1275" 
d="M736 1540l33 168l18 2l13 2l16 2q48 6 62 16t14 38q0 12 -16 12q-42 0 -72 -11.5t-123 -62.5l-53 119q168 98 270 98q77 0 124 -45q40 -40 40 -98q0 -70 -42.5 -117.5t-117.5 -63.5l-10 -59h-156zM331 1464h1007l-57 -307h-623l-51 -264h443l-60 -291h-440l-58 -295h654
l-60 -307h-1040z" />
    <glyph glyph-name="uni1EBB" unicode="&#x1ebb;" horiz-adv-x="1141" 
d="M620 1188l33 168l18 2l13 2l16 2q48 6 62 15.5t14 37.5q0 12 -16 12q-42 0 -72 -11.5t-123 -61.5l-53 118q168 98 270 98q77 0 124 -45q40 -40 40 -98q0 -69 -42.5 -116.5t-117.5 -63.5l-10 -59h-156zM546 -25q-250 0 -376 136q-109 119 -109 327q0 311 200 499
q174 163 433 163q200 0 310 -98q95 -86 95 -226q0 -204 -207 -287q-140 -55 -464 -63v-20q0 -161 143 -161q83 0 143.5 22t120.5 75l168 -217q-101 -82 -205 -116t-252 -34zM450 625q173 0 247 33q64 29 64 90q0 41 -27.5 65.5t-74.5 24.5q-149 0 -209 -213z" />
    <glyph glyph-name="uni1EBC" unicode="&#x1ebc;" horiz-adv-x="1275" 
d="M1265 1884q-72 -323 -285 -323q-70 0 -158 51q-48 31 -76 31q-47 0 -75 -74l-195 12q41 180 114 257q64 67 165 67q68 0 149 -51q51 -31 82 -31q23 0 36.5 15t31.5 58zM331 1464h1007l-57 -307h-623l-51 -264h443l-60 -291h-440l-58 -295h654l-60 -307h-1040z" />
    <glyph glyph-name="uni1EBD" unicode="&#x1ebd;" horiz-adv-x="1140" 
d="M1124 1509q-72 -324 -283 -324q-71 0 -164 56q-45 27 -71 27q-48 0 -76 -74l-195 12q41 180 114 257q65 67 165 67q69 0 149 -52q52 -31 82 -31q23 0 37 15t31 59zM546 -25q-250 0 -376 136q-109 119 -109 327q0 311 200 499q174 163 433 163q200 0 310 -98
q95 -86 95 -226q0 -204 -207 -287q-140 -55 -464 -63v-20q0 -161 143 -161q83 0 143.5 22t120.5 75l168 -217q-101 -82 -205 -116t-252 -34zM450 625q173 0 247 33q64 29 64 90q0 41 -27.5 65.5t-74.5 24.5q-149 0 -209 -213z" />
    <glyph glyph-name="uni1EBE" unicode="&#x1ebe;" horiz-adv-x="1297" 
d="M1232 1964h422l-291 -367h-209l39 -85h-262l-92 116l-131 -116h-259l304 356h276l90 -195zM331 1464h1007l-57 -307h-623l-51 -264h443l-60 -291h-440l-58 -295h654l-60 -307h-1040z" />
    <glyph glyph-name="uni1EBF" unicode="&#x1ebf;" horiz-adv-x="1165" 
d="M1097 1710h422l-293 -367h-211l74 -157h-262l-92 116l-131 -116h-258l301 356h276l60 -127zM546 -25q-250 0 -376 136q-109 119 -109 327q0 311 200 499q174 163 433 163q200 0 310 -98q95 -86 95 -226q0 -204 -207 -287q-140 -55 -464 -63v-20q0 -161 143 -161
q83 0 143.5 22t120.5 75l168 -217q-101 -82 -205 -116t-252 -34zM450 625q173 0 247 33q64 29 64 90q0 41 -27.5 65.5t-74.5 24.5q-149 0 -209 -213z" />
    <glyph glyph-name="uni1EC0" unicode="&#x1ec0;" horiz-adv-x="1285" 
d="M1060 1989h422v-367h-272zM755 1862h276l164 -356h-262l-92 117l-131 -117h-258zM331 1464h1007l-57 -307h-623l-51 -264h443l-60 -291h-440l-58 -295h654l-60 -307h-1040z" />
    <glyph glyph-name="uni1EC1" unicode="&#x1ec1;" horiz-adv-x="1151" 
d="M894 1739h422v-367h-272zM622 1542h277l163 -356h-262l-92 117l-131 -117h-258zM546 -25q-250 0 -376 136q-109 119 -109 327q0 311 200 499q174 163 433 163q200 0 310 -98q95 -86 95 -226q0 -204 -207 -287q-140 -55 -464 -63v-20q0 -161 143 -161q83 0 143.5 22
t120.5 75l168 -217q-101 -82 -205 -116t-252 -34zM450 625q173 0 247 33q64 29 64 90q0 41 -27.5 65.5t-74.5 24.5q-149 0 -209 -213z" />
    <glyph glyph-name="uni1EC2" unicode="&#x1ec2;" horiz-adv-x="1286" 
d="M1168 1610l33 168l19 2l12 2l18 2q46 5 60 15.5t14 40.5q0 10 -16 10q-42 0 -72 -11.5t-123 -62.5l-51 119q166 98 268 98q77 0 124 -45q40 -40 40 -98q0 -69 -42 -117t-116 -64l-12 -59h-156zM744 1847h277l164 -356h-262l-93 117l-131 -117h-258zM331 1464h1007
l-57 -307h-623l-51 -264h443l-60 -291h-440l-58 -295h654l-60 -307h-1040z" />
    <glyph glyph-name="uni1EC3" unicode="&#x1ec3;" horiz-adv-x="1152" 
d="M1007 1397l33 168l16 2l13 2l18 2q47 5 61.5 15.5t14.5 40.5q0 10 -16 10q-45 0 -72 -10.5t-123 -63.5l-53 119q165 98 270 98q77 0 124 -45q40 -40 40 -98q0 -70 -42.5 -117.5t-117.5 -63.5l-12 -59h-154zM624 1542h277l164 -356h-263l-92 117l-131 -117h-258zM546 -25
q-250 0 -376 136q-109 119 -109 327q0 311 200 499q174 163 433 163q200 0 310 -98q95 -86 95 -226q0 -204 -207 -287q-140 -55 -464 -63v-20q0 -161 143 -161q83 0 143.5 22t120.5 75l168 -217q-101 -82 -205 -116t-252 -34zM450 625q173 0 247 33q64 29 64 90
q0 41 -27.5 65.5t-74.5 24.5q-149 0 -209 -213z" />
    <glyph glyph-name="uni1EC4" unicode="&#x1ec4;" horiz-adv-x="1275" 
d="M1267 1974q-83 -219 -303 -219q-73 0 -160 33q-51 19 -76 19q-56 0 -80 -46l-199 8q40 114 111.5 167t183.5 53q65 0 152 -31q48 -21 80 -21q47 0 74 45zM724 1735h276l189 -242h-262l-101 80l-123 -80h-258zM331 1464h1007l-57 -307h-623l-51 -264h443l-60 -291h-440
l-58 -295h654l-60 -307h-1040z" />
    <glyph glyph-name="uni1EC5" unicode="&#x1ec5;" horiz-adv-x="1143" 
d="M1200 1862q-103 -324 -324 -324q-64 0 -156 47q-50 27 -77 27q-52 0 -82 -66l-199 13q54 178 138 255q73 68 179 68q71 0 148 -45q49 -29 80 -29q27 0 43 14t33 52zM612 1503h276l164 -356h-262l-92 117l-131 -117h-258zM546 -25q-250 0 -376 136q-109 119 -109 327
q0 311 200 499q174 163 433 163q200 0 310 -98q95 -86 95 -226q0 -204 -207 -287q-140 -55 -464 -63v-20q0 -161 143 -161q83 0 143.5 22t120.5 75l168 -217q-101 -82 -205 -116t-252 -34zM450 625q173 0 247 33q64 29 64 90q0 41 -27.5 65.5t-74.5 24.5q-149 0 -209 -213z
" />
    <glyph glyph-name="uni1EC6" unicode="&#x1ec6;" horiz-adv-x="1275" 
d="M779 1933h266l158 -356h-250l-82 125l-127 -125h-258zM331 1464h1007l-57 -307h-623l-51 -264h443l-60 -291h-440l-58 -295h654l-60 -307h-1040zM496 -111q76 0 123 -52q41 -46 41 -112q0 -87 -66 -146q-57 -52 -132 -52t-121 53q-41 46 -41 113q0 85 66 145
q56 51 130 51z" />
    <glyph glyph-name="uni1EC7" unicode="&#x1ec7;" horiz-adv-x="1141" 
d="M659 1546h266l158 -356h-250l-82 125l-127 -125h-258zM546 -25q-250 0 -376 136q-109 119 -109 327q0 311 200 499q174 163 433 163q200 0 310 -98q95 -86 95 -226q0 -204 -207 -287q-140 -55 -464 -63v-20q0 -161 143 -161q83 0 143.5 22t120.5 75l168 -217
q-101 -82 -205 -116t-252 -34zM450 625q173 0 247 33q64 29 64 90q0 41 -27.5 65.5t-74.5 24.5q-149 0 -209 -213zM429 -111q76 0 123 -52q41 -46 41 -112q0 -87 -66 -146q-57 -52 -132 -52t-121 53q-41 46 -41 113q0 85 66 145q56 51 130 51z" />
    <glyph glyph-name="uni1EC8" unicode="&#x1ec8;" horiz-adv-x="709" 
d="M452 1540l33 168l19 2l12 2l16 2q48 6 62 16t14 38q0 12 -16 12q-42 0 -72 -11.5t-123 -62.5l-53 119q168 98 270 98q77 0 124 -45q40 -40 40 -98q0 -70 -42.5 -117.5t-117.5 -63.5l-10 -59h-156zM338 1464h395l-285 -1464h-395z" />
    <glyph glyph-name="uni1EC9" unicode="&#x1ec9;" horiz-adv-x="623" 
d="M360 1188l33 168l18 2l12 2l17 2q48 6 62 15.5t14 37.5q0 12 -16 12q-42 0 -72 -11.5t-123 -61.5l-54 118q169 98 271 98q77 0 124 -45q40 -40 40 -98q0 -69 -42.5 -116.5t-117.5 -63.5l-10 -59h-156zM231 1071h366l-208 -1071h-367z" />
    <glyph glyph-name="uni1ECA" unicode="&#x1eca;" horiz-adv-x="703" 
d="M335 1464h395l-285 -1464h-395zM209 -111q76 0 123 -52q41 -46 41 -112q0 -87 -66 -146q-57 -52 -132 -52t-121 53q-41 46 -41 113q0 85 66 145q56 51 130 51z" />
    <glyph glyph-name="uni1ECB" unicode="&#x1ecb;" horiz-adv-x="622" 
d="M489 1563q87 0 138 -55q44 -48 44 -122q0 -99 -72 -163q-62 -56 -149 -56q-84 0 -136 57q-46 50 -46 122q0 96 73 161q64 56 148 56zM231 1071h367l-209 -1071h-367zM169 -111q76 0 123 -52q41 -46 41 -112q0 -87 -66 -146q-57 -52 -132 -52t-121 53q-41 46 -41 113
q0 85 66 145q56 51 130 51z" />
    <glyph glyph-name="uni1ECC" unicode="&#x1ecc;" horiz-adv-x="1560" 
d="M898 1487q303 0 476 -202q151 -176 151 -450q0 -201 -75 -381q-65 -156 -177 -268q-211 -211 -530 -211q-307 0 -478 198q-149 173 -149 447q0 245 104 445q101 196 277 307q181 115 401 115zM882 1180q-169 0 -264 -170q-96 -174 -96 -408q0 -167 71 -249
q63 -71 174 -71q165 0 265 184q87 160 87 394q0 320 -237 320zM642 -111q76 0 123 -52q41 -46 41 -112q0 -87 -66 -146q-57 -52 -132 -52t-121 53q-41 46 -41 113q0 85 66 145q56 51 130 51z" />
    <glyph glyph-name="uni1ECD" unicode="&#x1ecd;" horiz-adv-x="1225" 
d="M665 1100q240 0 377 -151q119 -132 119 -337q0 -301 -190 -481q-165 -156 -412 -156q-237 0 -376 152q-120 133 -120 336q0 293 194 477q168 160 408 160zM651 834q-102 0 -165 -128q-54 -111 -54 -274q0 -191 147 -191q100 0 161 128q52 111 52 276q0 189 -141 189z
M470 -111q76 0 123 -52q41 -46 41 -112q0 -87 -66 -146q-57 -52 -132 -52t-121 53q-41 46 -41 113q0 85 66 145q56 51 130 51z" />
    <glyph glyph-name="uni1ECE" unicode="&#x1ece;" horiz-adv-x="1560" 
d="M882 1540l33 168l18 2l12 2l17 2q48 6 62 16t14 38q0 12 -16 12q-42 0 -72 -11.5t-123 -62.5l-54 119q169 98 271 98q77 0 124 -45q40 -40 40 -98q0 -70 -42.5 -117.5t-117.5 -63.5l-10 -59h-156zM898 1487q303 0 476 -202q151 -176 151 -450q0 -201 -75 -381
q-65 -156 -177 -268q-211 -211 -530 -211q-307 0 -478 198q-149 173 -149 447q0 245 104 445q101 196 277 307q181 115 401 115zM882 1180q-169 0 -264 -170q-96 -174 -96 -408q0 -167 71 -249q63 -71 174 -71q165 0 265 184q87 160 87 394q0 320 -237 320z" />
    </font>
</defs>
</svg>
