<?xml version="1.0" standalone="no"?>
<!DOCTYPE svg PUBLIC "-//W3C//DTD SVG 1.1//EN" "http://www.w3.org/Graphics/SVG/1.1/DTD/svg11.dtd" >
<svg xmlns="http://www.w3.org/2000/svg" xmlns:xlink="http://www.w3.org/1999/xlink" version="1.1">
<metadata>
Created by FontForge 20170731 at Mon Nov 19 19:13:25 2018
 By Aleksey,,,
Copyright 2004 - 2010 by Robert Bosch GmbH
</metadata>
<defs>
<font id="BoschSans-Medium" horiz-adv-x="1346" >
  <font-face 
    font-family="Bosch Sans Medium"
    font-weight="500"
    font-stretch="normal"
    units-per-em="2048"
    panose-1="2 11 6 4 2 2 2 2 2 4"
    ascent="1638"
    descent="-410"
    x-height="1071"
    cap-height="1464"
    bbox="-356 -514 2560 2122"
    underline-thickness="172"
    underline-position="-575"
    unicode-range="U+0020-FB02"
  />
<missing-glyph horiz-adv-x="748" 
d="M68 0v1365h544v-1365h-544zM136 68h408v1229h-408v-1229z" />
    <glyph glyph-name="fi" unicode="fi" horiz-adv-x="1295" 
d="M72 1071h152v139q0 181 99 275q87 82 235 82q104 0 206 -56l-53 -157q-65 37 -131 37t-103.5 -45t-37.5 -123v-152h235v-172h-235v-899h-215v899h-152v172zM988 1520q51 0 87 -36.5t36 -88.5t-35.5 -87.5t-87.5 -35.5q-53 0 -89 35.5t-36 87.5q0 53 36 89t89 36z
M879 1071h215v-1071h-215v1071z" />
    <glyph glyph-name="fl" unicode="fl" horiz-adv-x="1385" 
d="M72 1071h152v139q0 181 99 275q87 82 235 82q104 0 206 -56l-53 -157q-65 37 -131 37t-103.5 -45t-37.5 -123v-152h235v-172h-235v-899h-215v899h-152v172zM1168 -29q-155 0 -222 82q-65 79 -65 248v1241h215v-1220q0 -91 29 -131t96 -40q60 0 104 29l60 -151
q-92 -58 -217 -58z" />
    <glyph glyph-name=".notdef" horiz-adv-x="748" 
d="M68 0v1365h544v-1365h-544zM136 68h408v1229h-408v-1229z" />
    <glyph glyph-name="glyph1" horiz-adv-x="0" 
 />
    <glyph glyph-name="glyph2" horiz-adv-x="659" 
 />
    <glyph glyph-name="space" unicode=" " horiz-adv-x="659" 
 />
    <glyph glyph-name="exclam" unicode="!" horiz-adv-x="763" 
d="M311 1012v452h238v-452l-55 -557h-128zM428 285q60 0 103.5 -44t43.5 -106q0 -65 -50 -110q-42 -39 -99 -39q-66 0 -111 50q-39 42 -39 99q0 63 44 106.5t108 43.5z" />
    <glyph glyph-name="quotedbl" unicode="&#x22;" horiz-adv-x="898" 
d="M151 1464h227l-32 -551h-162zM520 1464h225l-33 -551h-162z" />
    <glyph glyph-name="numbersign" unicode="#" horiz-adv-x="1159" 
d="M137 1161h217l31 303h147l-30 -303h219l33 303h145l-31 -303h197v-176h-215l-27 -242h199v-176h-217l-31 -307h-147l32 307h-221l-31 -307h-147l31 307h-197v176h215l27 242h-199v176zM457 743h221l24 242h-219z" />
    <glyph glyph-name="dollar" unicode="$" horiz-adv-x="1242" 
d="M553 -276v258q-192 15 -326 117q-117 90 -170 233l190 74q41 -115 114.5 -174.5t191.5 -73.5v510q-192 46 -289 108q-157 102 -157 303q0 189 141 299q63 50 129.5 73t175.5 34v180h133v-182q294 -31 415 -268l-180 -78q-41 77 -96 117t-139 55v-467q208 -49 305 -111
q164 -103 164 -325q0 -161 -101 -270q-64 -68 -147.5 -102.5t-220.5 -49.5v-260h-133zM553 871v444q-245 -27 -245 -215q0 -101 59 -150q52 -43 186 -79zM686 158q264 34 264 235q0 108 -66 163q-57 48 -198 85v-483z" />
    <glyph glyph-name="percent" unicode="%" horiz-adv-x="1906" 
d="M461 1478q164 0 262 -129q84 -112 84 -280q0 -199 -109 -314q-95 -100 -241 -100q-168 0 -265 127q-85 111 -85 282q0 198 111 313q96 101 243 101zM1274 1464h168l-809 -1464h-170zM453 1323q-162 0 -162 -256q0 -254 164 -254q168 0 168 254q0 256 -170 256zM1453 807
q164 0 262 -128q84 -111 84 -279q0 -199 -110 -314q-95 -100 -243 -100q-167 0 -264 127q-84 110 -84 280q0 199 110 314q96 100 245 100zM1444 651q-162 0 -162 -255q0 -254 164 -254q169 0 169 256q0 253 -171 253z" />
    <glyph glyph-name="ampersand" unicode="&#x26;" horiz-adv-x="1442" 
d="M1359 6q-68 -16 -110 -16q-75 0 -139 27t-140 92q-168 -125 -375 -125q-236 0 -368 127q-115 111 -115 287q0 161 91 270q80 96 255 184q-51 145 -51 266q0 174 106 272q92 86 236 86q138 0 224 -94q75 -82 75 -199q0 -130 -94 -225q-83 -84 -258 -161q111 -219 288 -416
q92 146 119 338h178q-27 -263 -170 -463q99 -90 170 -90q26 0 56 12zM636 928q131 58 182.5 114t51.5 139q0 62 -32.5 98.5t-88.5 36.5q-70 0 -109.5 -52t-39.5 -144q0 -82 36 -192zM518 715q-98 -62 -140.5 -130.5t-42.5 -164.5q0 -128 85 -204q74 -66 185 -66
q122 0 242 83q-213 236 -329 482z" />
    <glyph glyph-name="quotesingle" unicode="'" horiz-adv-x="530" 
d="M151 1464h227l-32 -551h-162z" />
    <glyph glyph-name="parenleft" unicode="(" horiz-adv-x="893" 
d="M568 -303q-190 235 -268 473q-68 210 -68 471q0 297 91 534q79 207 245 414h184q-174 -267 -240 -494q-57 -199 -57 -452q0 -288 76 -512q67 -198 221 -434h-184z" />
    <glyph glyph-name="parenright" unicode=")" horiz-adv-x="893" 
d="M324 1589q190 -235 268 -473q68 -210 68 -471q0 -297 -91 -534q-79 -207 -245 -414h-184q174 267 240 494q57 199 57 452q0 288 -76 512q-67 198 -221 434h184z" />
    <glyph glyph-name="asterisk" unicode="*" horiz-adv-x="948" 
d="M175 926l188 215l-258 59l57 172l236 -115l-31 285h182l-30 -285l235 115l56 -172l-259 -59l189 -215l-143 -105l-140 246l-139 -246z" />
    <glyph glyph-name="plus" unicode="+" horiz-adv-x="1163" 
d="M123 788h367v404h184v-404h369v-176h-369v-405h-184v405h-367v176z" />
    <glyph glyph-name="comma" unicode="," horiz-adv-x="638" 
d="M189 -203q127 38 133 199q-153 6 -153 141q0 67 39.5 107.5t103.5 40.5q79 0 122.5 -57t43.5 -160q0 -178 -82 -279q-40 -48 -85.5 -71t-121.5 -33v112z" />
    <glyph glyph-name="hyphen" unicode="-" horiz-adv-x="628" 
d="M88 770h453v-197h-453v197z" />
    <glyph glyph-name="period" unicode="." horiz-adv-x="639" 
d="M323 285q61 0 104 -44t43 -106q0 -65 -49 -110q-43 -39 -98 -39q-68 0 -113 50q-39 42 -39 99q0 63 44 106.5t108 43.5z" />
    <glyph glyph-name="slash" unicode="/" horiz-adv-x="893" 
d="M622 1589h193l-596 -1892h-195z" />
    <glyph glyph-name="zero" unicode="0" horiz-adv-x="1245" 
d="M622 1484q257 0 401 -231q126 -201 126 -520q0 -366 -162 -573q-141 -180 -362 -180q-261 0 -405 233q-124 202 -124 528q0 358 164 564q142 179 362 179zM627 1308q-156 0 -237 -174q-71 -152 -71 -409q0 -281 93 -435q80 -134 210 -134q152 0 233 174q71 151 71 401
q0 286 -91 441q-79 136 -208 136z" />
    <glyph glyph-name="one" unicode="1" horiz-adv-x="1274" 
d="M725 1491h137v-1491h-215v1155q-167 -72 -406 -72l-24 135q334 33 508 273z" />
    <glyph glyph-name="two" unicode="2" horiz-adv-x="1251" 
d="M136 180q433 303 593 507q141 180 141 367q0 124 -74 193q-65 61 -168 61q-109 0 -177.5 -63.5t-105.5 -200.5l-201 47q48 205 185 305q120 88 299 88q225 0 353 -137q112 -119 112 -305q0 -289 -293 -563q-83 -76 -154.5 -131t-241.5 -172h701v-176h-969v180z" />
    <glyph glyph-name="three" unicode="3" horiz-adv-x="1244" 
d="M139 1118q51 168 172 264q131 102 326 102q214 0 344 -125q113 -109 113 -270q0 -216 -232 -315q275 -88 275 -362q0 -212 -160 -330q-138 -102 -360 -102q-245 0 -396 129q-64 55 -98.5 117t-54.5 157l200 47q71 -274 353 -274q151 0 227 76q66 65 66 180q0 134 -91 203
q-79 59 -217 59h-143v176h133q145 0 220 68q65 60 65 161q0 113 -76 175q-66 54 -172 54q-117 0 -192 -57.5t-119 -181.5z" />
    <glyph glyph-name="four" unicode="4" horiz-adv-x="1240" 
d="M784 301h-731v207l686 979h248v-1010h199v-176h-199v-301h-203v301zM252 477h532v803z" />
    <glyph glyph-name="five" unicode="5" horiz-adv-x="1248" 
d="M366 858q104 113 287 113q222 0 353 -154q114 -134 114 -337q0 -243 -157 -381q-136 -119 -351 -119q-216 0 -358 111q-61 47 -96.5 101.5t-61.5 143.5l203 55q70 -235 309 -235q146 0 223 95q66 83 66 225q0 157 -89 244q-77 75 -202 75q-164 0 -256 -133h-185l76 802
h801v-176h-635z" />
    <glyph glyph-name="six" unicode="6" horiz-adv-x="1247" 
d="M908 1110q-48 110 -102 154t-142 44q-304 0 -338 -561q126 191 352 191q219 0 351 -149q114 -128 114 -320q0 -235 -154 -371q-134 -118 -342 -118q-262 0 -417 215q-121 168 -121 487q0 399 170 614q148 188 391 188q299 0 420 -298zM635 762q-134 0 -214 -93
q-70 -81 -70 -204q0 -145 92 -233q81 -76 201 -76q133 0 209 94q67 83 67 211q0 148 -87 230q-76 71 -198 71z" />
    <glyph glyph-name="seven" unicode="7" horiz-adv-x="1251" 
d="M339 0q33 407 198 760q145 308 371 528h-770v176h981v-184q-253 -245 -401 -614q-129 -321 -148 -666h-231z" />
    <glyph glyph-name="eight" unicode="8" horiz-adv-x="1243" 
d="M902 786q265 -115 265 -364q0 -210 -172 -334q-148 -108 -373 -108q-259 0 -412 137q-133 120 -133 301q0 255 272 370q-200 107 -200 307q0 183 150 293q131 96 325 96q221 0 354 -123q115 -106 115 -266q0 -200 -191 -309zM620 1312q-122 0 -191 -69q-61 -60 -61 -154
q0 -109 79 -170q70 -53 181 -53q124 0 189 66q57 59 57 157q0 108 -79 170q-68 53 -175 53zM624 700q-158 0 -247 -84q-77 -72 -77 -188q0 -133 100 -207q87 -65 224 -65q158 0 245 84q75 73 75 192q0 134 -97 206q-84 62 -223 62z" />
    <glyph glyph-name="nine" unicode="9" horiz-adv-x="1248" 
d="M298 369q36 -115 96 -164t164 -49q184 0 265 160q71 140 81 438q-121 -189 -350 -189q-211 0 -338 141q-111 123 -111 305q0 223 155 357q134 116 335 116q149 0 265 -67q102 -58 165 -160q98 -155 98 -454q0 -429 -163 -640q-143 -183 -398 -183q-217 0 -348 131
q-72 71 -109 188zM594 1308q-126 0 -201 -90q-65 -78 -65 -197q0 -137 82 -214q71 -66 184 -66q135 0 217 88q70 77 70 192q0 135 -91 217q-79 70 -196 70z" />
    <glyph glyph-name="colon" unicode=":" horiz-adv-x="639" 
d="M323 889q60 0 103.5 -44t43.5 -106q0 -65 -50 -110q-42 -39 -99 -39q-66 0 -111 50q-39 42 -39 99q0 63 44 106.5t108 43.5zM323 285q60 0 103.5 -44t43.5 -106q0 -65 -50 -110q-42 -39 -99 -39q-66 0 -111 50q-39 42 -39 99q0 64 43.5 107t108.5 43z" />
    <glyph glyph-name="semicolon" unicode=";" horiz-adv-x="638" 
d="M322 889q60 0 103.5 -44t43.5 -106q0 -65 -50 -110q-42 -39 -99 -39q-66 0 -111 50q-39 42 -39 99q0 63 44 106.5t108 43.5zM184 -203q127 38 133 199q-153 6 -153 141q0 67 39.5 107.5t103.5 40.5q79 0 122.5 -57t43.5 -160q0 -178 -82 -279q-40 -48 -85.5 -71
t-121.5 -33v112z" />
    <glyph glyph-name="less" unicode="&#x3c;" horiz-adv-x="1170" 
d="M169 571v177l811 405v-217l-592 -274l592 -283v-213z" />
    <glyph glyph-name="equal" unicode="=" horiz-adv-x="1168" 
d="M162 950h844v-176h-844v176zM162 555h844v-176h-844v176z" />
    <glyph glyph-name="greater" unicode="&#x3e;" horiz-adv-x="1170" 
d="M188 383l594 274l-594 285v203l811 -404v-163l-811 -404v209z" />
    <glyph glyph-name="question" unicode="?" horiz-adv-x="1134" 
d="M444 549q0 114 40.5 183t154.5 149q88 61 122 111.5t34 119.5q0 95 -67 149q-57 47 -146 47q-214 0 -263 -231l-194 37q20 94 53 154t92 110q125 106 322 106q205 0 323 -113q103 -98 103 -251q0 -115 -51.5 -191t-192.5 -169q-83 -55 -109 -100t-26 -131v-74h-195v94z
M539 285q60 0 103.5 -44t43.5 -106q0 -65 -50 -110q-42 -39 -99 -39q-66 0 -111 50q-39 42 -39 99q0 62 44.5 106t107.5 44z" />
    <glyph glyph-name="at" unicode="@" horiz-adv-x="1898" 
d="M1423 -170q-130 -87 -243.5 -121t-273.5 -34q-228 0 -410 104q-177 102 -276 284q-102 186 -102 421q0 241 115 442q112 196 307 308q200 116 440 116q229 0 413 -99q179 -96 280 -267q104 -174 104 -392q0 -251 -126 -396q-109 -126 -280 -126q-201 0 -241 182
q-63 -103 -136 -149.5t-171 -46.5q-146 0 -226 109q-69 95 -69 249q0 247 133 402q114 135 278 135q158 0 223 -138l25 115h184l-84 -500q-8 -44 -8 -90q0 -129 111 -129q118 0 184 118q58 102 58 265q0 300 -200 470q-175 149 -449 149q-333 0 -532 -229
q-173 -198 -173 -494q0 -330 195 -514q169 -160 440 -160q126 0 218 28t212 103zM952 785q-109 0 -174 -117q-57 -102 -57 -254q0 -192 141 -192q130 0 194 125q55 110 55 254q0 95 -47 142q-41 42 -112 42z" />
    <glyph glyph-name="A" unicode="A" 
d="M240 0h-209l530 1464h230l522 -1464h-227l-117 342h-612zM910 514l-246 721l-248 -721h494z" />
    <glyph glyph-name="B" unicode="B" horiz-adv-x="1439" 
d="M202 1464h586q249 0 370 -112q105 -97 105 -275q0 -111 -46.5 -183t-154.5 -128q153 -49 219 -142q58 -82 58 -208q0 -212 -150 -321q-131 -95 -356 -95h-631v1464zM818 840q232 0 232 231q0 121 -72 174q-64 47 -190 47h-371v-452h401zM845 172q145 0 217 73
q64 64 64 177q0 246 -297 246h-412v-496h428z" />
    <glyph glyph-name="C" unicode="C" horiz-adv-x="1507" 
d="M810 -20q-323 0 -507 232q-161 202 -161 517q0 360 209 573q182 185 457 185q260 0 413 -148q80 -77 135 -207l-188 -78q-60 145 -153 204q-82 53 -205 53q-222 0 -341 -175q-104 -153 -104 -405q0 -288 135 -442q117 -133 314 -133q147 0 236 75q77 66 126 201l201 -78
q-75 -174 -193 -264q-146 -110 -374 -110z" />
    <glyph glyph-name="D" unicode="D" horiz-adv-x="1544" 
d="M202 1464h494q354 0 541 -219q163 -190 163 -512q0 -376 -210 -566q-183 -167 -501 -167h-487v1464zM706 176q245 0 365 162q106 142 106 395q0 287 -138 430q-121 125 -335 125h-287v-1112h289z" />
    <glyph glyph-name="E" unicode="E" horiz-adv-x="1313" 
d="M202 1464h963v-176h-748v-463h606v-172h-606v-477h784v-176h-999v1464z" />
    <glyph glyph-name="F" unicode="F" horiz-adv-x="1251" 
d="M202 1464h944v-176h-729v-504h578v-172h-578v-612h-215v1464z" />
    <glyph glyph-name="G" unicode="G" horiz-adv-x="1614" 
d="M800 -20q-312 0 -497 236q-161 205 -161 513q0 358 213 572q186 186 463 186q264 0 413 -144q82 -76 140 -204l-193 -84q-61 146 -154 205q-80 51 -204 51q-225 0 -348 -177q-107 -154 -107 -405q0 -283 137 -438q119 -135 314 -135q191 0 309 136q102 118 102 288v18
h-372v172h583v-770h-133l-39 252q-95 -152 -215 -216q-106 -56 -251 -56z" />
    <glyph glyph-name="H" unicode="H" horiz-adv-x="1523" 
d="M202 1464h215v-645h690v645h215v-1464h-215v643h-690v-643h-215v1464z" />
    <glyph glyph-name="I" unicode="I" horiz-adv-x="671" 
d="M228 1464h215v-1464h-215v1464z" />
    <glyph glyph-name="J" unicode="J" horiz-adv-x="1205" 
d="M1016 495q0 -515 -450 -515q-227 0 -350 136q-107 118 -107 312v98h215v-78q0 -296 233 -296q244 0 244 325v987h215v-969z" />
    <glyph glyph-name="K" unicode="K" horiz-adv-x="1367" 
d="M202 1464h215v-710l606 710h246l-528 -612l557 -852h-242l-457 696l-182 -211v-485h-215v1464z" />
    <glyph glyph-name="L" unicode="L" horiz-adv-x="1185" 
d="M202 1464h215v-1288h707v-176h-922v1464z" />
    <glyph glyph-name="M" unicode="M" horiz-adv-x="1876" 
d="M532 1464l412 -1181l405 1181h326v-1464h-215v1245l-430 -1245h-185l-440 1245v-1245h-203v1464h330z" />
    <glyph glyph-name="N" unicode="N" horiz-adv-x="1523" 
d="M202 1464h275l642 -1198v1198h203v-1464h-279l-638 1188v-1188h-203v1464z" />
    <glyph glyph-name="O" unicode="O" horiz-adv-x="1659" 
d="M836 1484q193 0 350 -99q153 -96 241 -265q89 -173 89 -385q0 -353 -217 -568q-188 -187 -465 -187q-196 0 -356 99q-156 96 -245 266q-91 174 -91 388q0 215 90 388q89 170 245 265q160 98 359 98zM824 1308q-221 0 -348 -180q-111 -156 -111 -397q0 -278 145 -437
q126 -138 322 -138q230 0 353 172q108 150 108 399q0 283 -145 442q-125 139 -324 139z" />
    <glyph glyph-name="P" unicode="P" horiz-adv-x="1378" 
d="M202 1464h571q252 0 380 -131q112 -114 112 -311q0 -218 -145 -331q-126 -99 -343 -99h-360v-592h-215v1464zM777 764q143 0 214 78q61 68 61 190q0 260 -275 260h-360v-528h360z" />
    <glyph glyph-name="Q" unicode="Q" horiz-adv-x="1659" 
d="M1189 78q-163 -98 -355 -98q-196 0 -356 99q-156 96 -245 266q-91 174 -91 388t90 388q88 169 244 265q159 98 356 98q195 0 353 -98q154 -95 241 -264q90 -173 90 -387q0 -330 -190 -542l190 -185l-127 -125zM871 385l125 125l190 -182q107 161 107 399q0 281 -144 441
q-125 140 -321 140q-224 0 -352 -179q-111 -155 -111 -398q0 -278 145 -437q127 -138 324 -138q119 0 219 53z" />
    <glyph glyph-name="R" unicode="R" horiz-adv-x="1403" 
d="M202 1464h586q228 0 352 -123q108 -107 108 -282q0 -292 -301 -368q136 -48 190 -131q49 -74 79 -242q19 -90 54 -189t54 -119v-10h-219q-37 66 -60 137.5t-48 206.5q-35 168 -111 227q-67 52 -203 52h-266v-623h-215v1464zM741 795q294 0 294 256q0 237 -253 237h-365
v-493h324z" />
    <glyph glyph-name="S" unicode="S" horiz-adv-x="1345" 
d="M673 -20q-158 0 -284 49q-113 44 -184 121q-60 66 -104 178l193 84q53 -149 150 -209q84 -51 224 -51q160 0 246 75q76 66 76 173q0 106 -72 159q-69 53 -285 107q-262 58 -360 139q-119 97 -119 270q0 200 146 311q128 96 333 96q197 0 318 -67q111 -61 190 -193
l-178 -84q-58 95 -131 133.5t-193 38.5q-137 0 -209 -65q-63 -56 -63 -152q0 -97 78 -147q69 -43 244 -82q271 -60 375 -143q139 -112 139 -305q0 -217 -161 -334q-140 -102 -369 -102z" />
    <glyph glyph-name="T" unicode="T" horiz-adv-x="1187" 
d="M486 1288h-442v176h1100v-176h-443v-1288h-215v1288z" />
    <glyph glyph-name="U" unicode="U" horiz-adv-x="1476" 
d="M1292 563q0 -300 -165 -451q-145 -132 -398 -132q-282 0 -423 166q-122 144 -122 399v919h215v-901q0 -229 90 -324q79 -83 244 -83q198 0 280 116q72 101 72 314v878h207v-901z" />
    <glyph glyph-name="V" unicode="V" horiz-adv-x="1264" 
d="M17 1464h229l394 -1173l395 1173h211l-518 -1464h-197z" />
    <glyph glyph-name="W" unicode="W" horiz-adv-x="1978" 
d="M57 1464h227l281 -1126l342 1126h176l336 -1132l295 1132h207l-391 -1464h-199l-338 1124l-348 -1124h-199z" />
    <glyph glyph-name="X" unicode="X" horiz-adv-x="1330" 
d="M542 751l-452 713h252l338 -543l336 543h227l-451 -708l482 -756h-250l-369 590l-371 -590h-229z" />
    <glyph glyph-name="Y" unicode="Y" horiz-adv-x="1169" 
d="M489 610l-512 854h244l381 -670l368 670h221l-487 -852v-612h-215v610z" />
    <glyph glyph-name="Z" unicode="Z" horiz-adv-x="1262" 
d="M118 188l760 1100h-719v176h954v-203l-747 -1085h760v-176h-1008v188z" />
    <glyph glyph-name="bracketleft" unicode="[" horiz-adv-x="895" 
d="M245 1589h492v-176h-277v-1540h277v-176h-492v1892z" />
    <glyph glyph-name="backslash" unicode="\" horiz-adv-x="893" 
d="M77 1589h195l596 -1892h-193z" />
    <glyph glyph-name="bracketright" unicode="]" horiz-adv-x="895" 
d="M652 -303h-492v176h277v1540h-277v176h492v-1892z" />
    <glyph glyph-name="asciicircum" unicode="^" horiz-adv-x="1142" 
d="M492 1464h168l320 -637h-193l-215 412l-211 -412h-188z" />
    <glyph glyph-name="underscore" unicode="_" horiz-adv-x="907" 
d="M-38 -231h983v-172h-983v172z" />
    <glyph glyph-name="grave" unicode="`" horiz-adv-x="1070" 
d="M232 1593h262l109 -360h-148z" />
    <glyph glyph-name="a" unicode="a" horiz-adv-x="1146" 
d="M1080 -4q-55 -6 -76 -6q-182 0 -236 157q-129 -167 -327 -167q-161 0 -255 95q-81 82 -81 208q0 236 276 317q135 38 373 43v55q0 123 -55 175q-48 46 -146 46q-155 0 -305 -127l-111 140q97 84 198.5 121.5t232.5 37.5q208 0 311 -113q90 -100 90 -276v-450
q0 -100 86 -100q17 0 25 2v-158zM754 498q-436 -3 -436 -203q0 -71 45.5 -110t128.5 -39q123 0 198 69q64 59 64 147v136z" />
    <glyph glyph-name="b" unicode="b" horiz-adv-x="1316" 
d="M408 899q124 192 346 192q219 0 344 -171q109 -149 109 -381q0 -273 -140 -426q-121 -133 -313 -133q-234 0 -346 190v-170h-215v1542h215v-643zM699 919q-148 0 -228 -117q-69 -102 -69 -267q0 -196 89 -296q77 -87 210 -87q287 0 287 376q0 200 -85 302q-75 89 -204 89
z" />
    <glyph glyph-name="c" unicode="c" horiz-adv-x="1128" 
d="M621 -20q-243 0 -387 173q-125 151 -125 379q0 267 159 423q138 136 349 136q275 0 420 -219l-172 -106q-52 85 -105.5 119t-136.5 34q-149 0 -227 -115q-68 -99 -68 -269q0 -197 88 -296q77 -87 211 -87q87 0 144 34t106 115l174 -94q-141 -227 -430 -227z" />
    <glyph glyph-name="d" unicode="d" horiz-adv-x="1316" 
d="M906 172q-115 -192 -346 -192q-220 0 -345 173q-108 150 -108 386q0 268 140 420q121 132 313 132q227 0 346 -190v641h215v-1542h-215v172zM611 919q-145 0 -220 -116q-65 -101 -65 -273q0 -378 283 -378q156 0 235 113q70 99 70 270q0 193 -91 295q-79 89 -212 89z" />
    <glyph glyph-name="e" unicode="e" horiz-adv-x="1189" 
d="M633 -20q-250 0 -397 172q-127 150 -127 378q0 266 159 424q137 137 345 137q236 0 362 -163q109 -141 109 -377v-66h-758q9 -102 35 -163t80 -107q73 -63 203 -63q96 0 159 33.5t113 111.5l151 -125q-141 -192 -434 -192zM334 641h539q-18 161 -87 227q-60 57 -173 57
q-228 0 -279 -284z" />
    <glyph glyph-name="f" unicode="f" horiz-adv-x="747" 
d="M72 1071h152v139q0 181 99 275q87 82 235 82q104 0 206 -56l-53 -157q-65 37 -131 37t-103.5 -45t-37.5 -123v-152h235v-172h-235v-899h-215v899h-152v172z" />
    <glyph glyph-name="g" unicode="g" horiz-adv-x="1176" 
d="M1100 1089v-180h-145q53 -80 53 -174q0 -163 -135 -261q-117 -85 -291 -85q-95 0 -184 31q-54 -36 -54 -90q0 -45 32 -63.5t108 -18.5h190q116 0 182.5 -12.5t118.5 -44.5q123 -78 123 -240q0 -177 -158 -272q-137 -82 -364 -82q-239 0 -369 88q-113 76 -113 201
q0 140 185 225q-111 60 -111 174q0 116 121 192q-135 105 -135 262q0 164 132 265q114 87 282 87q123 0 235 -53zM574 937q-103 0 -161 -61q-50 -53 -50 -137q0 -99 68 -154q59 -47 153 -47q105 0 164 61q51 52 51 135q0 102 -68 156q-59 47 -157 47zM484 68q-16 0 -54 3
q-10 1 -16 1q-121 -65 -121 -157q0 -160 287 -160q315 0 315 182q0 131 -180 131h-231z" />
    <glyph glyph-name="h" unicode="h" horiz-adv-x="1261" 
d="M193 1542h215v-637q98 186 322 186q180 0 272 -124q80 -108 80 -295v-672h-215v662q0 137 -56 197q-50 52 -149 52q-125 0 -194 -83q-60 -71 -60 -187v-641h-215v1542z" />
    <glyph glyph-name="i" unicode="i" horiz-adv-x="606" 
d="M304 1528q53 0 92 -39.5t39 -93.5t-38.5 -92.5t-92.5 -38.5q-55 0 -94 38.5t-39 92.5q0 55 39 94t94 39zM196 1071h215v-1071h-215v1071z" />
    <glyph glyph-name="j" unicode="j" horiz-adv-x="597" 
d="M295 1528q53 0 92 -39.5t39 -93.5t-39 -92.5t-92 -38.5q-55 0 -94 38.5t-39 92.5q0 55 38.5 94t94.5 39zM402 -76q0 -163 -87 -243q-75 -70 -210 -70q-89 0 -158 39l43 153q46 -20 80 -20q117 0 117 127v1161h215v-1147z" />
    <glyph glyph-name="k" unicode="k" horiz-adv-x="1157" 
d="M553 496l-145 -168v-328h-215v1542h215v-956l406 485h243l-364 -420l411 -651h-237z" />
    <glyph glyph-name="l" unicode="l" horiz-adv-x="703" 
d="M486 -29q-155 0 -222 82q-65 79 -65 248v1241h215v-1220q0 -91 29 -131t96 -40q60 0 104 29l60 -151q-92 -58 -217 -58z" />
    <glyph glyph-name="m" unicode="m" horiz-adv-x="1853" 
d="M408 909q99 182 297 182q207 0 297 -192q126 192 332 192q172 0 262 -125q78 -110 78 -294v-672h-215v664q0 135 -51 195q-44 52 -131 52q-115 0 -180 -83q-56 -72 -56 -185v-643h-215v664q0 247 -184 247q-114 0 -178 -83q-56 -72 -56 -185v-643h-215v1071h215v-162z
" />
    <glyph glyph-name="n" unicode="n" horiz-adv-x="1261" 
d="M193 1071h215v-166q98 186 322 186q180 0 272 -124q80 -108 80 -295v-672h-215v662q0 137 -56 197q-50 52 -149 52q-125 0 -194 -83q-60 -71 -60 -187v-641h-215v1071z" />
    <glyph glyph-name="o" unicode="o" horiz-adv-x="1257" 
d="M633 1091q239 0 386 -177q128 -153 128 -375q0 -262 -165 -421q-144 -138 -355 -138q-242 0 -390 176q-128 152 -128 376q0 263 166 422q144 137 358 137zM623 919q-143 0 -222 -117q-69 -102 -69 -267q0 -191 88 -294q78 -89 205 -89q149 0 229 116q70 101 70 267
q0 193 -91 295q-78 89 -210 89z" />
    <glyph glyph-name="p" unicode="p" horiz-adv-x="1316" 
d="M193 1071h215v-172q124 192 346 192q219 0 344 -171q109 -149 109 -381q0 -273 -140 -426q-121 -133 -313 -133q-230 0 -346 188v-541h-215v1444zM699 919q-148 0 -228 -117q-69 -102 -69 -267q0 -196 89 -296q77 -87 210 -87q287 0 287 376q0 200 -85 302
q-75 89 -204 89z" />
    <glyph glyph-name="q" unicode="q" horiz-adv-x="1316" 
d="M906 170q-115 -190 -346 -190q-220 0 -345 173q-108 150 -108 386q0 268 140 420q121 132 313 132q227 0 346 -190v170h215v-1444h-215v543zM611 919q-145 0 -220 -116q-65 -101 -65 -273q0 -378 283 -378q156 0 235 113q70 99 70 270q0 193 -91 295q-79 89 -212 89z" />
    <glyph glyph-name="r" unicode="r" horiz-adv-x="859" 
d="M193 1071h215v-176q101 196 283 196q84 0 170 -43l-72 -184q-61 30 -127 30q-125 0 -194 -97q-60 -86 -60 -224v-573h-215v1071z" />
    <glyph glyph-name="s" unicode="s" horiz-adv-x="1063" 
d="M508 -20q-283 0 -434 192l141 129q63 -82 131 -115.5t173 -33.5q227 0 227 145q0 70 -58 103q-52 28 -204 63q-194 43 -274 126q-70 73 -70 194q0 152 125 236q107 73 277 73q236 0 357 -136l-133 -129q-50 51 -106 72t-141 21q-82 0 -132 -36q-46 -32 -46 -85
q0 -65 48 -96.5t189 -61.5q165 -34 240 -81q133 -87 133 -250q0 -164 -132 -252q-116 -78 -311 -78z" />
    <glyph glyph-name="t" unicode="t" horiz-adv-x="813" 
d="M72 1071h160v260l215 62v-322h254v-172h-254v-600q0 -143 111 -143q64 0 135 47l67 -144q-103 -79 -229 -79q-149 0 -229 87q-70 75 -70 199v633h-160v172z" />
    <glyph glyph-name="u" unicode="u" horiz-adv-x="1251" 
d="M842 164q-101 -184 -320 -184q-175 0 -264 124q-78 108 -78 295v672h215v-637q0 -161 50 -223q45 -55 143 -55q125 0 194 84q60 72 60 188v643h215v-1071h-215v164z" />
    <glyph glyph-name="v" unicode="v" horiz-adv-x="1054" 
d="M39 1071h229l269 -850l264 850h213l-363 -1071h-243z" />
    <glyph glyph-name="w" unicode="w" horiz-adv-x="1711" 
d="M68 1071h227l215 -811l252 811h211l234 -811l223 811h213l-326 -1071h-225l-229 801l-252 -801h-226z" />
    <glyph glyph-name="x" unicode="x" horiz-adv-x="1115" 
d="M429 549l-354 522h245l242 -365l240 365h225l-352 -506l389 -565h-250l-266 406l-275 -406h-223z" />
    <glyph glyph-name="y" unicode="y" horiz-adv-x="1066" 
d="M590 -135q-91 -252 -315 -252q-122 0 -218 65l70 150q63 -43 133 -43q115 0 154 129l31 98l-406 1059h229l281 -772l262 772h215z" />
    <glyph glyph-name="z" unicode="z" horiz-adv-x="1039" 
d="M94 168l590 731h-563v172h802v-195l-573 -704h590v-172h-846v168z" />
    <glyph glyph-name="braceleft" unicode="{" horiz-adv-x="892" 
d="M772 -307q-136 4 -216 31t-136 86q-84 90 -84 258v272q0 122 -63 170q-55 43 -181 47v178q141 5 196 61q48 50 48 156v269q0 189 106 280q54 48 128 68.5t202 23.5v-170q-143 -16 -184 -65q-37 -43 -37 -156v-274q0 -218 -203 -281q105 -34 154 -101t49 -177v-281
q0 -128 51 -172q44 -39 170 -53v-170z" />
    <glyph glyph-name="bar" unicode="|" horiz-adv-x="614" 
d="M215 1589h184v-1892h-184v1892z" />
    <glyph glyph-name="braceright" unicode="}" horiz-adv-x="892" 
d="M120 1593q136 -4 216 -31t136 -85q84 -90 84 -258v-273q0 -122 63 -170q55 -43 181 -47v-178q-141 -5 -196 -61q-48 -50 -48 -156v-268q0 -190 -106 -281q-54 -48 -128 -68.5t-202 -23.5v170q143 16 184 65q37 43 37 156v274q0 218 203 281q-105 34 -154 101t-49 178v280
q0 128 -51 172q-44 39 -170 53v170z" />
    <glyph glyph-name="asciitilde" unicode="~" horiz-adv-x="1169" 
d="M171 547q45 305 252 305q77 0 201 -80q86 -57 127 -57q38 0 59.5 33t34.5 110l155 -14q-45 -305 -249 -305q-81 0 -201 80q-84 57 -127 57q-41 0 -63 -33.5t-33 -110.5z" />
    <glyph glyph-name="nonbreakingspace" unicode="&#xa0;" horiz-adv-x="659" 
 />
    <glyph glyph-name="exclamdown" unicode="&#xa1;" horiz-adv-x="763" 
d="M426 1108q65 0 110 -50q39 -42 39 -100q0 -62 -43.5 -105.5t-105.5 -43.5q-64 0 -107 43t-43 106t43 106.5t107 43.5zM307 80l55 557h128l55 -557v-453h-238v453z" />
    <glyph glyph-name="cent" unicode="&#xa2;" horiz-adv-x="1252" 
d="M1111 207q-67 -106 -159 -160t-224 -65v-258h-133v260q-216 25 -339 192q-107 146 -107 357q0 247 139 401q119 133 307 153v201h133v-201q236 -21 365 -215l-172 -106q-43 72 -87 106t-106 43v-765q68 8 116 42.5t93 108.5zM362 535q0 -171 69 -272q60 -88 164 -109v759
q-117 -24 -179 -134q-54 -97 -54 -244z" />
    <glyph glyph-name="sterling" unicode="&#xa3;" horiz-adv-x="1239" 
d="M99 793h151q-51 134 -51 260q0 210 140 328q122 103 314 103q196 0 322 -104q78 -63 119 -147l-189 -84q-39 83 -98 121t-150 38q-118 0 -180 -78q-55 -68 -55 -184q0 -106 60 -253h374v-147h-313q74 -192 74 -328q0 -36 -9 -72q136 -90 219 -90q73 0 109.5 42.5
t50.5 141.5l186 -26q-26 -188 -109 -266q-73 -68 -204 -68q-81 0 -154 28.5t-165 96.5q-108 -123 -264 -123q-118 0 -187 67q-59 57 -59 146q0 96 72 154q63 51 155 51q74 0 170 -45q-7 65 -29.5 124.5t-78.5 166.5h-221v147zM408 205q-82 56 -137 56q-37 0 -58.5 -18.5
t-21.5 -49.5q0 -72 88 -72q84 0 129 84z" />
    <glyph glyph-name="currency" unicode="&#xa4;" horiz-adv-x="1235" 
d="M-15 946h166q32 140 74 225.5t116 161.5q151 154 394 154q181 0 298 -93q105 -83 175 -251l-193 -54q-48 122 -113 172t-173 50q-158 0 -246 -101q-77 -88 -113 -264h418v-137h-432q-3 -25 -3 -86q0 -47 3 -74h432v-137h-416q45 -197 138 -281q82 -75 217 -75
q115 0 185 55.5t118 185.5l192 -59q-46 -127 -115 -201q-141 -157 -387 -157q-206 0 -346 119q-86 70 -137 164.5t-86 248.5h-166v137h150q-3 19 -3 64q0 35 3 57v39h-150v137z" />
    <glyph glyph-name="yen" unicode="&#xa5;" horiz-adv-x="1241" 
d="M123 817h296l-353 647h242l318 -635l335 635h217l-352 -647h297v-137h-373l-20 -39v-127h393v-137h-393v-377h-215v377h-392v137h392v127l-23 39h-369v137z" />
    <glyph glyph-name="brokenbar" unicode="&#xa6;" horiz-adv-x="614" 
d="M215 1464h184v-587h-184v587zM215 588h184v-588h-184v588z" />
    <glyph glyph-name="section" unicode="&#xa7;" horiz-adv-x="1178" 
d="M857 1159q-103 153 -273 153q-95 0 -146 -46q-44 -40 -44 -108q0 -74 50 -114.5t194 -81.5q193 -56 282 -111q158 -100 158 -274q0 -100 -48.5 -167t-154.5 -111q113 -95 113 -242q0 -164 -123 -258q-106 -82 -272 -82q-278 0 -426 221l139 111q103 -160 282 -160
q102 0 154 46q45 40 45 110q0 76 -55 114q-48 33 -199 84q-195 65 -278 119q-154 99 -154 266q0 99 48 164.5t153 108.5q-109 93 -109 241q0 164 122 259q106 83 269 83q270 0 410 -212zM713 387q164 44 164 170q0 89 -108 149q-95 51 -316 105q-151 -42 -151 -164
q0 -58 31 -95q33 -38 116 -74.5t264 -90.5z" />
    <glyph glyph-name="dieresis" unicode="&#xa8;" horiz-adv-x="1050" 
d="M332 1530q54 0 93.5 -39.5t39.5 -93.5t-39.5 -93.5t-93.5 -39.5t-93.5 39.5t-39.5 93.5t39.5 93.5t93.5 39.5zM721 1530q52 0 92.5 -40.5t40.5 -92.5q0 -54 -39.5 -93.5t-93.5 -39.5t-93.5 39.5t-39.5 93.5t39.5 93.5t93.5 39.5z" />
    <glyph glyph-name="copyright" unicode="&#xa9;" horiz-adv-x="1771" 
d="M894 1482q203 0 375 -101q167 -98 264 -267q100 -174 100 -381q0 -208 -101 -382q-98 -170 -267 -268q-174 -101 -381 -101t-381 100q-169 98 -266 267q-101 173 -101 380q0 210 101 384q99 170 270 268q176 101 387 101zM881 1382q-175 0 -321 -87q-143 -85 -225 -231
q-84 -151 -84 -333t84 -332q82 -146 225 -231q147 -86 324 -86q176 0 323 87q144 85 226 231q85 152 85 333q0 299 -205 487q-177 162 -432 162zM1264 535q-104 -248 -374 -248q-204 0 -321 139q-101 120 -101 307q0 214 132 341q116 110 290 110q144 0 233 -66
q79 -58 129 -176l-160 -74q-32 85 -77.5 120.5t-120.5 35.5q-113 0 -173 -86q-52 -75 -52 -202q0 -148 68 -223q59 -66 161 -66q77 0 124.5 38t78.5 123z" />
    <glyph glyph-name="ordfeminine" unicode="&#xaa;" horiz-adv-x="1020" 
d="M691 553q-19 38 -27 115q-104 -131 -270 -131q-139 0 -218 78q-69 69 -69 176q0 301 555 305v49q0 94 -40 137.5t-126 43.5q-148 0 -274 -122l-95 127q86 80 174.5 115.5t204.5 35.5q182 0 270 -99q76 -86 76 -242v-426q0 -93 27 -152v-10h-188zM662 971
q-369 -3 -369 -170q0 -60 39 -92.5t111 -32.5q102 0 165 59q54 52 54 127v109z" />
    <glyph glyph-name="guillemotleft" unicode="&#xab;" horiz-adv-x="1099" 
d="M140 494l256 409h197l-252 -409l252 -410h-197zM521 494l256 409h194l-249 -409l249 -410h-194z" />
    <glyph glyph-name="logicalnot" unicode="&#xac;" horiz-adv-x="1180" 
d="M723 649h-484v176h668v-479h-184v303z" />
    <glyph glyph-name="uni00AD" unicode="&#xad;" horiz-adv-x="628" 
d="M88 770h453v-197h-453v197z" />
    <glyph glyph-name="registered" unicode="&#xae;" horiz-adv-x="1172" 
d="M593 1482q215 0 357 -158q122 -137 122 -325q0 -219 -158 -360q-137 -123 -330 -123q-219 0 -360 156q-123 135 -123 325q0 221 159 362q139 123 333 123zM584 1392q-177 0 -284 -125q-93 -108 -93 -268q0 -184 120 -296q104 -97 257 -97q179 0 287 125q95 109 95 270
q0 186 -120 296q-104 95 -262 95zM398 1241h220q79 0 123 -36t44 -101q0 -93 -90 -117q39 -11 54.5 -33.5t29.5 -85.5l15 -55q4 -18 18 -39v-4h-117q-20 28 -32 100q-15 78 -80 78h-72v-178h-113v471zM599 1030q80 0 80 66q0 59 -74 59h-94v-125h88z" />
    <glyph glyph-name="macron" unicode="&#xaf;" horiz-adv-x="1251" 
d="M372 1450h508v-156h-508v156z" />
    <glyph glyph-name="degree" unicode="&#xb0;" horiz-adv-x="954" 
d="M480 1484q153 0 252 -113q86 -98 86 -235q0 -164 -110 -267q-95 -89 -232 -89q-155 0 -254 113q-86 99 -86 237q0 163 111 265q96 89 233 89zM472 1349q-84 0 -133 -67q-43 -57 -43 -146q0 -107 56 -168q48 -53 124 -53q89 0 139 66q43 58 43 149q0 104 -58 165
q-51 54 -128 54z" />
    <glyph glyph-name="plusminus" unicode="&#xb1;" horiz-adv-x="1163" 
d="M125 864h365v361h184v-361h366v-176h-366v-364h-184v364h-365v176zM125 176h911v-176h-911v176z" />
    <glyph glyph-name="twosuperior" unicode="&#xb2;" horiz-adv-x="943" 
d="M151 1069q235 136 334 248q88 99 88 198q0 56 -29 88.5t-78 32.5q-100 0 -133 -127l-182 43q59 248 324 248q149 0 235 -86q74 -75 74 -192q0 -257 -365 -449h371v-162h-639v158z" />
    <glyph glyph-name="threesuperior" unicode="&#xb3;" horiz-adv-x="939" 
d="M153 1569q76 234 334 234q148 0 233 -76q74 -67 74 -170q0 -128 -140 -182q160 -49 160 -209q0 -132 -104 -204q-89 -63 -234 -63q-304 0 -360 248l178 43q35 -137 174 -137q141 0 141 121q0 117 -143 117h-80v139h74q64 0 100.5 29t36.5 82q0 50 -31.5 79t-87.5 29
q-115 0 -160 -123z" />
    <glyph glyph-name="acute" unicode="&#xb4;" horiz-adv-x="1070" 
d="M576 1593h262l-224 -360h-147z" />
    <glyph glyph-name="mu" unicode="&#xb5;" horiz-adv-x="1285" 
d="M878 1071h215v-1071h-215v164q-46 -98 -105 -141t-145 -43q-139 0 -211 83v-436h-215v1444h215v-625q0 -157 51 -222q49 -62 154 -62q126 0 196 80q60 69 60 178v651z" />
    <glyph glyph-name="paragraph" unicode="&#xb6;" horiz-adv-x="1284" 
d="M579 699h-27q-220 0 -336 113q-102 99 -102 265q0 195 134 298q116 89 311 89h524v-1464h-176v1317h-152v-1317h-176v699z" />
    <glyph glyph-name="glyph121" unicode="&#xb7;" horiz-adv-x="639" 
d="M323 819q61 0 104 -44t43 -105q0 -62 -43 -106t-104 -44q-64 0 -108 43.5t-44 106.5q0 62 44 105.5t108 43.5z" />
    <glyph glyph-name="cedilla" unicode="&#xb8;" horiz-adv-x="1066" 
d="M596 -121q32 8 49 8q67 0 109.5 -44.5t42.5 -113.5q0 -87 -64 -133q-55 -41 -147 -41q-124 0 -207 95l96 65q36 -51 107 -51q82 0 82 69q0 66 -72 66q-41 0 -61 -27l-82 52l129 176h108z" />
    <glyph glyph-name="onesuperior" unicode="&#xb9;" horiz-adv-x="956" 
d="M495 1788h158v-877h-203v609q-91 -47 -246 -47l-16 126q198 28 307 189z" />
    <glyph glyph-name="ordmasculine" unicode="&#xba;" horiz-adv-x="1103" 
d="M556 1482q205 0 331 -150q109 -130 109 -321q0 -224 -141 -358q-123 -117 -306 -117q-207 0 -334 150q-110 130 -110 321q0 224 143 358q123 117 308 117zM547 1332q-118 0 -184 -99q-57 -86 -57 -224q0 -161 74 -247q64 -76 169 -76q122 0 188 98q58 85 58 225
q0 162 -74 248q-65 75 -174 75z" />
    <glyph glyph-name="guillemotright" unicode="&#xbb;" horiz-adv-x="1099" 
d="M377 494l-250 409h195l258 -409l-258 -410h-195zM758 494l-250 409h194l256 -409l-256 -410h-194z" />
    <glyph glyph-name="onequarter" unicode="&#xbc;" horiz-adv-x="1909" 
d="M608 668h-184v552q-84 -45 -226 -45l-14 117q182 24 280 172h144v-796zM1253 1464h168l-803 -1464h-168zM1607 285h105v-135h-105v-150h-184v150h-379v155l370 492h193v-512zM1431 285v311l-228 -311h228z" />
    <glyph glyph-name="onehalf" unicode="&#xbd;" horiz-adv-x="1907" 
d="M608 668h-184v552q-84 -45 -226 -45l-14 117q182 24 280 172h144v-796zM1247 1464h167l-802 -1464h-168zM1402 147h338v-147h-581v143q213 124 304 227q79 89 79 178q0 51 -26 81t-71 30q-91 0 -121 -115l-165 39q52 226 292 226q137 0 215 -79q68 -68 68 -175
q0 -236 -332 -408z" />
    <glyph glyph-name="threequarters" unicode="&#xbe;" horiz-adv-x="1905" 
d="M178 1266q71 210 305 210q133 0 211 -69q68 -60 68 -152q0 -116 -128 -167q146 -47 146 -191q0 -118 -94 -184q-82 -57 -213 -57q-278 0 -328 225l162 39q33 -125 160 -125t127 110q0 107 -132 107h-71v127h67q59 0 92.5 26.5t33.5 73.5q0 46 -29 72t-80 26
q-104 0 -146 -110zM1306 1464h168l-803 -1464h-168zM1446 150h-379v155l371 492h192v-512h104v-135h-104v-150h-184v150zM1227 285h227v311z" />
    <glyph glyph-name="questiondown" unicode="&#xbf;" horiz-adv-x="1134" 
d="M642 1106q65 0 110 -50q39 -42 39 -99q0 -62 -44.5 -106t-106.5 -44q-61 0 -104.5 44t-43.5 106q0 65 50 110q42 39 100 39zM734 543q0 -114 -40.5 -183t-154.5 -149q-88 -62 -122 -112t-34 -119q0 -95 67 -150q57 -47 146 -47q214 0 263 231l194 -36q-20 -94 -53 -154.5
t-92 -110.5q-125 -106 -322 -106q-205 0 -323 113q-103 99 -103 251q0 115 51.5 191.5t192.5 169.5q83 55 109 100t26 131v74h195v-94z" />
    <glyph glyph-name="Agrave" unicode="&#xc0;" 
d="M240 0h-209l530 1464h230l522 -1464h-227l-117 342h-612zM910 514l-246 721l-248 -721h494zM385 1935h262l109 -340h-148z" />
    <glyph glyph-name="Aacute" unicode="&#xc1;" 
d="M240 0h-209l530 1464h230l522 -1464h-227l-117 342h-612zM910 514l-246 721l-248 -721h494zM701 1935h262l-224 -340h-147z" />
    <glyph glyph-name="Acircumflex" unicode="&#xc2;" 
d="M240 0h-209l530 1464h230l522 -1464h-227l-117 342h-612zM910 514l-246 721l-248 -721h494zM586 1935h178l205 -338h-146l-151 174l-152 -174h-143z" />
    <glyph glyph-name="Atilde" unicode="&#xc3;" 
d="M240 0h-209l530 1464h230l522 -1464h-227l-117 342h-612zM910 514l-246 721l-248 -721h494zM344 1620q18 122 77 185q51 55 126 55q58 0 153 -53q66 -37 97 -37q58 0 75 92l129 -13q-19 -122 -79 -185q-53 -54 -127 -54q-58 0 -156 53q-63 37 -92 37q-63 0 -78 -92z" />
    <glyph glyph-name="Adieresis" unicode="&#xc4;" 
d="M240 0h-209l530 1464h230l522 -1464h-227l-117 342h-612zM910 514l-246 721l-248 -721h494zM477 1599q-54 0 -93.5 39.5t-39.5 93.5t39.5 93.5t93.5 39.5t93.5 -39.5t39.5 -93.5t-39.5 -93.5t-93.5 -39.5zM866 1599q-54 0 -93.5 39.5t-39.5 93.5t39.5 93.5t93.5 39.5
q52 0 92.5 -40.5t40.5 -92.5q0 -54 -39.5 -93.5t-93.5 -39.5z" />
    <glyph glyph-name="Aring" unicode="&#xc5;" 
d="M240 0h-209l530 1464h230l522 -1464h-227l-117 342h-612zM910 514l-246 721l-248 -721h494zM676 2011q97 0 163 -71q56 -61 56 -144q0 -97 -73 -160q-62 -55 -148 -55q-99 0 -164 70q-57 61 -57 145q0 97 73 160q63 55 150 55zM674 1911q-44 0 -75 -32t-31 -79t30 -78.5
t76 -31.5q47 0 76.5 31t29.5 79t-30 79.5t-76 31.5z" />
    <glyph glyph-name="AE" unicode="&#xc6;" horiz-adv-x="2060" 
d="M254 0h-219l862 1464h1014v-176h-715v-463h574v-172h-574v-477h752v-176h-967v326h-541zM981 498v768l-440 -768h440z" />
    <glyph glyph-name="Ccedilla" unicode="&#xc7;" horiz-adv-x="1507" 
d="M1176 432l201 -78q-75 -175 -193 -264q-140 -108 -356 -111l-76 -100q33 8 49 8q67 0 109.5 -44.5t42.5 -113.5q0 -87 -64 -133q-55 -41 -147 -41q-124 0 -207 95l96 65q37 -51 107 -51q82 0 82 69q0 66 -72 66q-41 0 -61 -27l-82 52l117 159q-284 33 -442 257
q-138 197 -138 489q0 360 209 573q182 185 457 185q260 0 413 -148q80 -77 135 -207l-188 -78q-60 145 -153 204q-82 53 -205 53q-222 0 -341 -175q-104 -153 -104 -405q0 -289 135 -442q118 -134 314 -134q147 0 236 75q77 66 126 202z" />
    <glyph glyph-name="Egrave" unicode="&#xc8;" horiz-adv-x="1313" 
d="M202 1464h963v-176h-748v-463h606v-172h-606v-477h784v-176h-999v1464zM403 1935h262l109 -340h-148z" />
    <glyph glyph-name="Eacute" unicode="&#xc9;" horiz-adv-x="1313" 
d="M202 1464h963v-176h-748v-463h606v-172h-606v-477h784v-176h-999v1464zM719 1935h262l-224 -340h-147z" />
    <glyph glyph-name="Ecircumflex" unicode="&#xca;" horiz-adv-x="1313" 
d="M202 1464h963v-176h-748v-463h606v-172h-606v-477h784v-176h-999v1464zM604 1935h178l205 -338h-146l-151 174l-152 -174h-143z" />
    <glyph glyph-name="Edieresis" unicode="&#xcb;" horiz-adv-x="1313" 
d="M202 1464h963v-176h-748v-463h606v-172h-606v-477h784v-176h-999v1464zM495 1599q-54 0 -93.5 39.5t-39.5 93.5t39.5 93.5t93.5 39.5t93.5 -39.5t39.5 -93.5t-39.5 -93.5t-93.5 -39.5zM884 1599q-54 0 -93.5 39.5t-39.5 93.5t39.5 93.5t93.5 39.5q52 0 92.5 -40.5
t40.5 -92.5q0 -54 -39.5 -93.5t-93.5 -39.5z" />
    <glyph glyph-name="Igrave" unicode="&#xcc;" horiz-adv-x="658" 
d="M215 1464h215v-1464h-215v1464zM35 1935h262l109 -340h-148z" />
    <glyph glyph-name="Iacute" unicode="&#xcd;" horiz-adv-x="658" 
d="M228 1464h215v-1464h-215v1464zM364 1935h262l-224 -340h-147z" />
    <glyph glyph-name="Icircumflex" unicode="&#xce;" horiz-adv-x="644" 
d="M214 1464h215v-1464h-215v1464zM235 1935h178l205 -338h-146l-151 174l-152 -174h-143z" />
    <glyph glyph-name="Idieresis" unicode="&#xcf;" horiz-adv-x="642" 
d="M213 1464h215v-1464h-215v1464zM125 1599q-54 0 -93.5 39.5t-39.5 93.5t39.5 93.5t93.5 39.5t93.5 -39.5t39.5 -93.5t-39.5 -93.5t-93.5 -39.5zM514 1599q-54 0 -93.5 39.5t-39.5 93.5t39.5 93.5t93.5 39.5q52 0 92.5 -40.5t40.5 -92.5q0 -54 -39.5 -93.5t-93.5 -39.5z
" />
    <glyph glyph-name="Eth" unicode="&#xd0;" horiz-adv-x="1550" 
d="M44 795h164v669h493q356 0 542 -218q162 -191 162 -513q0 -376 -208 -566q-183 -167 -500 -167h-489v639h-164v156zM713 176q245 0 364 162q105 142 105 395q0 289 -138 431q-120 124 -335 124h-286v-493h280v-156h-280v-463h290z" />
    <glyph glyph-name="Ntilde" unicode="&#xd1;" horiz-adv-x="1523" 
d="M202 1464h275l642 -1198v1198h203v-1464h-279l-638 1188v-1188h-203v1464zM470 1620q18 122 77 185q51 55 126 55q58 0 153 -53q66 -37 97 -37q58 0 75 92l129 -13q-19 -122 -79 -185q-53 -54 -127 -54q-58 0 -156 53q-63 37 -92 37q-63 0 -78 -92z" />
    <glyph glyph-name="Ograve" unicode="&#xd2;" horiz-adv-x="1659" 
d="M836 1484q193 0 350 -99q153 -96 241 -265q89 -173 89 -385q0 -353 -217 -568q-188 -187 -465 -187q-196 0 -356 99q-156 96 -245 266q-91 174 -91 388q0 215 90 388q89 170 245 265q160 98 359 98zM824 1308q-221 0 -348 -180q-111 -156 -111 -397q0 -278 145 -437
q126 -138 322 -138q230 0 353 172q108 150 108 399q0 283 -145 442q-125 139 -324 139zM541 1935h262l109 -340h-148z" />
    <glyph glyph-name="Oacute" unicode="&#xd3;" horiz-adv-x="1659" 
d="M836 1484q193 0 350 -99q153 -96 241 -265q89 -173 89 -385q0 -353 -217 -568q-188 -187 -465 -187q-196 0 -356 99q-156 96 -245 266q-91 174 -91 388q0 215 90 388q89 170 245 265q160 98 359 98zM824 1308q-221 0 -348 -180q-111 -156 -111 -397q0 -278 145 -437
q126 -138 322 -138q230 0 353 172q108 150 108 399q0 283 -145 442q-125 139 -324 139zM857 1935h262l-224 -340h-147z" />
    <glyph glyph-name="Ocircumflex" unicode="&#xd4;" horiz-adv-x="1659" 
d="M836 1484q193 0 350 -99q153 -96 241 -265q89 -173 89 -385q0 -353 -217 -568q-188 -187 -465 -187q-196 0 -356 99q-156 96 -245 266q-91 174 -91 388q0 215 90 388q89 170 245 265q160 98 359 98zM824 1308q-221 0 -348 -180q-111 -156 -111 -397q0 -278 145 -437
q126 -138 322 -138q230 0 353 172q108 150 108 399q0 283 -145 442q-125 139 -324 139zM742 1935h178l205 -338h-146l-151 174l-152 -174h-143z" />
    <glyph glyph-name="Otilde" unicode="&#xd5;" horiz-adv-x="1659" 
d="M836 1484q193 0 350 -99q153 -96 241 -265q89 -173 89 -385q0 -353 -217 -568q-188 -187 -465 -187q-196 0 -356 99q-156 96 -245 266q-91 174 -91 388q0 215 90 388q89 170 245 265q160 98 359 98zM824 1308q-221 0 -348 -180q-111 -156 -111 -397q0 -278 145 -437
q126 -138 322 -138q230 0 353 172q108 150 108 399q0 283 -145 442q-125 139 -324 139zM500 1620q18 122 77 185q51 55 126 55q58 0 153 -53q66 -37 97 -37q58 0 75 92l129 -13q-19 -122 -79 -185q-53 -54 -127 -54q-58 0 -156 53q-63 37 -92 37q-63 0 -78 -92z" />
    <glyph glyph-name="Odieresis" unicode="&#xd6;" horiz-adv-x="1659" 
d="M836 1484q193 0 350 -99q153 -96 241 -265q89 -173 89 -385q0 -353 -217 -568q-188 -187 -465 -187q-196 0 -356 99q-156 96 -245 266q-91 174 -91 388q0 215 90 388q89 170 245 265q160 98 359 98zM824 1308q-221 0 -348 -180q-111 -156 -111 -397q0 -278 145 -437
q126 -138 322 -138q230 0 353 172q108 150 108 399q0 283 -145 442q-125 139 -324 139zM633 1599q-54 0 -93.5 39.5t-39.5 93.5t39.5 93.5t93.5 39.5t93.5 -39.5t39.5 -93.5t-39.5 -93.5t-93.5 -39.5zM1022 1599q-54 0 -93.5 39.5t-39.5 93.5t39.5 93.5t93.5 39.5
q52 0 92.5 -40.5t40.5 -92.5q0 -54 -39.5 -93.5t-93.5 -39.5z" />
    <glyph glyph-name="multiply" unicode="&#xd7;" horiz-adv-x="1166" 
d="M149 383l313 334l-313 332l127 120l307 -327l307 327l125 -120l-313 -332l313 -334l-125 -121l-307 328l-307 -328z" />
    <glyph glyph-name="Oslash" unicode="&#xd8;" horiz-adv-x="1647" 
d="M283 254q-147 209 -147 479q0 214 90 387q88 170 244 266q159 98 356 98q252 0 441 -163l131 143h198l-231 -252q145 -201 145 -477q0 -353 -217 -568q-188 -187 -465 -187q-254 0 -442 163l-131 -143h-205zM1137 1181q-127 131 -313 131q-227 0 -356 -179
q-113 -156 -113 -400q0 -183 68 -328zM511 281q132 -129 315 -129q232 0 356 173q109 151 109 400q0 191 -67 331z" />
    <glyph glyph-name="Ugrave" unicode="&#xd9;" horiz-adv-x="1476" 
d="M1292 563q0 -300 -165 -451q-145 -132 -398 -132q-282 0 -423 166q-122 144 -122 399v919h215v-901q0 -229 90 -324q79 -83 244 -83q198 0 280 116q72 101 72 314v878h207v-901zM450 1935h262l109 -340h-148z" />
    <glyph glyph-name="Uacute" unicode="&#xda;" horiz-adv-x="1476" 
d="M1292 563q0 -300 -165 -451q-145 -132 -398 -132q-282 0 -423 166q-122 144 -122 399v919h215v-901q0 -229 90 -324q79 -83 244 -83q198 0 280 116q72 101 72 314v878h207v-901zM766 1935h262l-224 -340h-147z" />
    <glyph glyph-name="Ucircumflex" unicode="&#xdb;" horiz-adv-x="1476" 
d="M1292 563q0 -300 -165 -451q-145 -132 -398 -132q-282 0 -423 166q-122 144 -122 399v919h215v-901q0 -229 90 -324q79 -83 244 -83q198 0 280 116q72 101 72 314v878h207v-901zM651 1935h178l205 -338h-146l-151 174l-152 -174h-143z" />
    <glyph glyph-name="Udieresis" unicode="&#xdc;" horiz-adv-x="1476" 
d="M1292 563q0 -300 -165 -451q-145 -132 -398 -132q-282 0 -423 166q-122 144 -122 399v919h215v-901q0 -229 90 -324q79 -83 244 -83q198 0 280 116q72 101 72 314v878h207v-901zM542 1599q-54 0 -93.5 39.5t-39.5 93.5t39.5 93.5t93.5 39.5t93.5 -39.5t39.5 -93.5
t-39.5 -93.5t-93.5 -39.5zM931 1599q-54 0 -93.5 39.5t-39.5 93.5t39.5 93.5t93.5 39.5q52 0 92.5 -40.5t40.5 -92.5q0 -54 -39.5 -93.5t-93.5 -39.5z" />
    <glyph glyph-name="Yacute" unicode="&#xdd;" horiz-adv-x="1169" 
d="M489 610l-512 854h244l381 -670l368 670h221l-487 -852v-612h-215v610zM629 1935h262l-224 -340h-147z" />
    <glyph glyph-name="Thorn" unicode="&#xde;" horiz-adv-x="1378" 
d="M202 1464h215v-272h356q252 0 380 -131q112 -114 112 -311q0 -217 -146 -330q-127 -98 -342 -98h-360v-322h-215v1464zM777 494q143 0 214 78q61 68 61 188q0 256 -275 256h-360v-522h360z" />
    <glyph glyph-name="germandbls" unicode="&#xdf;" horiz-adv-x="1285" 
d="M193 1128q0 219 135 337q118 102 314 102q206 0 320 -113q100 -99 100 -258q0 -222 -213 -303q85 -26 138.5 -60t98.5 -91q90 -115 90 -293q0 -235 -126 -359q-109 -108 -294 -108q-109 0 -184 32v170h4q68 -30 148 -30q233 0 233 301q0 181 -102 268q-46 40 -101.5 56
t-148.5 16v168q144 1 204 62q52 53 52 161q0 215 -223 215q-230 0 -230 -242v-1159h-215v1128z" />
    <glyph glyph-name="agrave" unicode="&#xe0;" horiz-adv-x="1146" 
d="M1080 -4q-55 -6 -76 -6q-182 0 -236 157q-129 -167 -327 -167q-161 0 -255 95q-81 82 -81 208q0 236 276 317q135 38 373 43v55q0 123 -55 175q-48 46 -146 46q-155 0 -305 -127l-111 140q97 84 198.5 121.5t232.5 37.5q208 0 311 -113q90 -100 90 -276v-450
q0 -100 86 -100q17 0 25 2v-158zM754 498q-436 -3 -436 -203q0 -71 45.5 -110t128.5 -39q123 0 198 69q64 59 64 147v136zM265 1593h262l109 -360h-148z" />
    <glyph glyph-name="aacute" unicode="&#xe1;" horiz-adv-x="1146" 
d="M1080 -4q-55 -6 -76 -6q-182 0 -236 157q-129 -167 -327 -167q-161 0 -255 95q-81 82 -81 208q0 236 276 317q135 38 373 43v55q0 123 -55 175q-48 46 -146 46q-155 0 -305 -127l-111 140q97 84 198.5 121.5t232.5 37.5q208 0 311 -113q90 -100 90 -276v-450
q0 -100 86 -100q17 0 25 2v-158zM754 498q-436 -3 -436 -203q0 -71 45.5 -110t128.5 -39q123 0 198 69q64 59 64 147v136zM599 1593h262l-224 -360h-147z" />
    <glyph glyph-name="acircumflex" unicode="&#xe2;" horiz-adv-x="1146" 
d="M1080 -4q-55 -6 -76 -6q-182 0 -236 157q-129 -167 -327 -167q-161 0 -255 95q-81 82 -81 208q0 236 276 317q135 38 373 43v55q0 123 -55 175q-48 46 -146 46q-155 0 -305 -127l-111 140q97 84 198.5 121.5t232.5 37.5q208 0 311 -113q90 -100 90 -276v-450
q0 -100 86 -100q17 0 25 2v-158zM754 498q-436 -3 -436 -203q0 -71 45.5 -110t128.5 -39q123 0 198 69q64 59 64 147v136zM486 1573h178l205 -338h-146l-151 174l-152 -174h-143z" />
    <glyph glyph-name="atilde" unicode="&#xe3;" horiz-adv-x="1146" 
d="M1080 -4q-55 -6 -76 -6q-182 0 -236 157q-129 -167 -327 -167q-161 0 -255 95q-81 82 -81 208q0 236 276 317q135 38 373 43v55q0 123 -55 175q-48 46 -146 46q-155 0 -305 -127l-111 140q97 84 198.5 121.5t232.5 37.5q208 0 311 -113q90 -100 90 -276v-450
q0 -100 86 -100q17 0 25 2v-158zM754 498q-436 -3 -436 -203q0 -71 45.5 -110t128.5 -39q123 0 198 69q64 59 64 147v136zM244 1284q18 121 77 184q51 55 126 55q58 0 153 -53q66 -36 97 -36q58 0 75 91l129 -12q-19 -122 -79 -185q-53 -54 -127 -54q-66 0 -156 53
q-63 36 -92 36q-63 0 -78 -91z" />
    <glyph glyph-name="adieresis" unicode="&#xe4;" horiz-adv-x="1146" 
d="M1080 -4q-55 -6 -76 -6q-182 0 -236 157q-129 -167 -327 -167q-161 0 -255 95q-81 82 -81 208q0 236 276 317q135 38 373 43v55q0 123 -55 175q-48 46 -146 46q-155 0 -305 -127l-111 140q97 84 198.5 121.5t232.5 37.5q208 0 311 -113q90 -100 90 -276v-450
q0 -100 86 -100q17 0 25 2v-158zM754 498q-436 -3 -436 -203q0 -71 45.5 -110t128.5 -39q123 0 198 69q64 59 64 147v136zM379 1530q54 0 93.5 -39.5t39.5 -93.5t-39.5 -93.5t-93.5 -39.5t-93.5 39.5t-39.5 93.5t39.5 93.5t93.5 39.5zM768 1530q52 0 92.5 -40.5t40.5 -92.5
q0 -54 -39.5 -93.5t-93.5 -39.5t-93.5 39.5t-39.5 93.5t39.5 93.5t93.5 39.5z" />
    <glyph glyph-name="aring" unicode="&#xe5;" horiz-adv-x="1146" 
d="M1080 -4q-55 -6 -76 -6q-182 0 -236 157q-129 -167 -327 -167q-161 0 -255 95q-81 82 -81 208q0 236 276 317q135 38 373 43v55q0 123 -55 175q-48 46 -146 46q-155 0 -305 -127l-111 140q97 84 198.5 121.5t232.5 37.5q208 0 311 -113q90 -100 90 -276v-450
q0 -100 86 -100q17 0 25 2v-158zM754 498q-436 -3 -436 -203q0 -71 45.5 -110t128.5 -39q123 0 198 69q64 59 64 147v136zM576 1640q97 0 163 -71q56 -61 56 -144q0 -97 -73 -160q-62 -55 -148 -55q-99 0 -164 70q-57 61 -57 145q0 97 73 160q63 55 150 55zM574 1540
q-44 0 -75 -32t-31 -78q0 -48 30 -79.5t76 -31.5q47 0 76.5 31t29.5 80q0 47 -30 78.5t-76 31.5z" />
    <glyph glyph-name="ae" unicode="&#xe6;" horiz-adv-x="1814" 
d="M445 -20q-164 0 -258 94q-82 82 -82 209q0 234 276 315q135 38 373 43v57q0 123 -55 175q-48 46 -146 46q-155 0 -305 -126l-111 139q97 84 198 121.5t231 37.5q125 0 205.5 -39.5t127.5 -125.5q133 165 349 165q227 0 352 -163q109 -142 109 -371v-72h-740
q9 -106 33.5 -167.5t73.5 -102.5q72 -63 192 -63q97 0 160 33.5t113 111.5l152 -125q-142 -192 -427 -192q-271 0 -416 210q-75 -109 -172.5 -159.5t-232.5 -50.5zM977 641h519q-18 160 -83 226q-57 58 -163 58q-221 0 -273 -284zM492 146q123 0 198 69q64 59 64 147v133
q-436 -3 -436 -200q0 -71 45.5 -110t128.5 -39z" />
    <glyph glyph-name="ccedilla" unicode="&#xe7;" horiz-adv-x="1128" 
d="M1051 207q-138 -221 -414 -228l-75 -100q32 8 49 8q66 0 108.5 -44.5t42.5 -113.5q0 -87 -64 -133q-55 -41 -147 -41q-124 0 -206 95l96 65q36 -51 106 -51q82 0 82 69q0 66 -72 66q-41 0 -61 -26l-82 51l119 162q-205 31 -322 196q-102 145 -102 350q0 267 159 423
q138 136 349 136q275 0 420 -219l-172 -106q-52 85 -105.5 119t-136.5 34q-149 0 -227 -115q-68 -100 -68 -270q0 -197 88 -296q77 -87 211 -87q87 0 144 34t106 116z" />
    <glyph glyph-name="egrave" unicode="&#xe8;" horiz-adv-x="1189" 
d="M633 -20q-250 0 -397 172q-127 150 -127 378q0 266 159 424q137 137 345 137q236 0 362 -163q109 -141 109 -377v-66h-758q9 -102 35 -163t80 -107q73 -63 203 -63q96 0 159 33.5t113 111.5l151 -125q-141 -192 -434 -192zM334 641h539q-18 161 -87 227q-60 57 -173 57
q-228 0 -279 -284zM302 1593h262l109 -360h-148z" />
    <glyph glyph-name="eacute" unicode="&#xe9;" horiz-adv-x="1189" 
d="M633 -20q-250 0 -397 172q-127 150 -127 378q0 266 159 424q137 137 345 137q236 0 362 -163q109 -141 109 -377v-66h-758q9 -102 35 -163t80 -107q73 -63 203 -63q96 0 159 33.5t113 111.5l151 -125q-141 -192 -434 -192zM334 641h539q-18 161 -87 227q-60 57 -173 57
q-228 0 -279 -284zM636 1593h262l-224 -360h-147z" />
    <glyph glyph-name="ecircumflex" unicode="&#xea;" horiz-adv-x="1189" 
d="M633 -20q-250 0 -397 172q-127 150 -127 378q0 266 159 424q137 137 345 137q236 0 362 -163q109 -141 109 -377v-66h-758q9 -102 35 -163t80 -107q73 -63 203 -63q96 0 159 33.5t113 111.5l151 -125q-141 -192 -434 -192zM334 641h539q-18 161 -87 227q-60 57 -173 57
q-228 0 -279 -284zM523 1573h178l205 -338h-146l-151 174l-152 -174h-143z" />
    <glyph glyph-name="edieresis" unicode="&#xeb;" horiz-adv-x="1189" 
d="M633 -20q-250 0 -397 172q-127 150 -127 378q0 266 159 424q137 137 345 137q236 0 362 -163q109 -141 109 -377v-66h-758q9 -102 35 -163t80 -107q73 -63 203 -63q96 0 159 33.5t113 111.5l151 -125q-141 -192 -434 -192zM334 641h539q-18 161 -87 227q-60 57 -173 57
q-228 0 -279 -284zM416 1530q54 0 93.5 -39.5t39.5 -93.5t-39.5 -93.5t-93.5 -39.5t-93.5 39.5t-39.5 93.5t39.5 93.5t93.5 39.5zM805 1530q52 0 92.5 -40.5t40.5 -92.5q0 -54 -39.5 -93.5t-93.5 -39.5t-93.5 39.5t-39.5 93.5t39.5 93.5t93.5 39.5z" />
    <glyph glyph-name="igrave" unicode="&#xec;" horiz-adv-x="598" 
d="M186 1071h215v-1071h-215v1071zM-15 1593h262l109 -360h-148z" />
    <glyph glyph-name="iacute" unicode="&#xed;" horiz-adv-x="597" 
d="M197 1071h215v-1071h-215v1071zM331 1593h262l-224 -360h-147z" />
    <glyph glyph-name="icircumflex" unicode="&#xee;" horiz-adv-x="584" 
d="M184 1071h215v-1071h-215v1071zM205 1573h178l205 -338h-146l-151 174l-152 -174h-143z" />
    <glyph glyph-name="idieresis" unicode="&#xef;" horiz-adv-x="589" 
d="M187 1071h215v-1071h-215v1071zM101 1530q54 0 93.5 -39.5t39.5 -93.5t-39.5 -93.5t-93.5 -39.5t-93.5 39.5t-39.5 93.5t39.5 93.5t93.5 39.5zM490 1530q52 0 92.5 -40.5t40.5 -92.5q0 -54 -39.5 -93.5t-93.5 -39.5t-93.5 39.5t-39.5 93.5t39.5 93.5t93.5 39.5z" />
    <glyph glyph-name="eth" unicode="&#xf0;" horiz-adv-x="1264" 
d="M416 1241l129 115q-25 18 -64 46q-53 38 -79 56l96 141q107 -60 186 -118l132 116l86 -100l-115 -100q89 -85 140.5 -150t94.5 -149q123 -230 123 -514q0 -300 -157 -463q-136 -141 -359 -141q-244 0 -392 175q-128 152 -128 378q0 249 155 407q134 137 324 137
q151 0 258 -98q-77 163 -202 289l-140 -123zM623 917q-145 0 -225 -118q-70 -102 -70 -267q0 -188 91 -291q79 -89 208 -89q148 0 229 116q70 100 70 264q0 194 -91 296q-79 89 -212 89z" />
    <glyph glyph-name="ntilde" unicode="&#xf1;" horiz-adv-x="1261" 
d="M193 1071h215v-166q98 186 322 186q180 0 272 -124q80 -108 80 -295v-672h-215v662q0 137 -56 197q-50 52 -149 52q-125 0 -194 -83q-60 -71 -60 -187v-641h-215v1071zM302 1284q18 121 77 184q51 55 126 55q58 0 153 -53q66 -36 97 -36q58 0 75 91l129 -12
q-19 -122 -79 -185q-53 -54 -127 -54q-66 0 -156 53q-63 36 -92 36q-63 0 -78 -91z" />
    <glyph glyph-name="ograve" unicode="&#xf2;" horiz-adv-x="1257" 
d="M633 1091q239 0 386 -177q128 -153 128 -375q0 -262 -165 -421q-144 -138 -355 -138q-242 0 -390 176q-128 152 -128 376q0 263 166 422q144 137 358 137zM623 919q-143 0 -222 -117q-69 -102 -69 -267q0 -191 88 -294q78 -89 205 -89q149 0 229 116q70 101 70 267
q0 193 -91 295q-78 89 -210 89zM320 1593h262l109 -360h-148z" />
    <glyph glyph-name="oacute" unicode="&#xf3;" horiz-adv-x="1257" 
d="M633 1091q239 0 386 -177q128 -153 128 -375q0 -262 -165 -421q-144 -138 -355 -138q-242 0 -390 176q-128 152 -128 376q0 263 166 422q144 137 358 137zM623 919q-143 0 -222 -117q-69 -102 -69 -267q0 -191 88 -294q78 -89 205 -89q149 0 229 116q70 101 70 267
q0 193 -91 295q-78 89 -210 89zM654 1593h262l-224 -360h-147z" />
    <glyph glyph-name="ocircumflex" unicode="&#xf4;" horiz-adv-x="1257" 
d="M633 1091q239 0 386 -177q128 -153 128 -375q0 -262 -165 -421q-144 -138 -355 -138q-242 0 -390 176q-128 152 -128 376q0 263 166 422q144 137 358 137zM623 919q-143 0 -222 -117q-69 -102 -69 -267q0 -191 88 -294q78 -89 205 -89q149 0 229 116q70 101 70 267
q0 193 -91 295q-78 89 -210 89zM541 1573h178l205 -338h-146l-151 174l-152 -174h-143z" />
    <glyph glyph-name="otilde" unicode="&#xf5;" horiz-adv-x="1257" 
d="M633 1091q239 0 386 -177q128 -153 128 -375q0 -262 -165 -421q-144 -138 -355 -138q-242 0 -390 176q-128 152 -128 376q0 263 166 422q144 137 358 137zM623 919q-143 0 -222 -117q-69 -102 -69 -267q0 -191 88 -294q78 -89 205 -89q149 0 229 116q70 101 70 267
q0 193 -91 295q-78 89 -210 89zM299 1284q18 121 77 184q51 55 126 55q58 0 153 -53q66 -36 97 -36q58 0 75 91l129 -12q-19 -122 -79 -185q-53 -54 -127 -54q-66 0 -156 53q-63 36 -92 36q-63 0 -78 -91z" />
    <glyph glyph-name="odieresis" unicode="&#xf6;" horiz-adv-x="1257" 
d="M633 1091q239 0 386 -177q128 -153 128 -375q0 -262 -165 -421q-144 -138 -355 -138q-242 0 -390 176q-128 152 -128 376q0 263 166 422q144 137 358 137zM623 919q-143 0 -222 -117q-69 -102 -69 -267q0 -191 88 -294q78 -89 205 -89q149 0 229 116q70 101 70 267
q0 193 -91 295q-78 89 -210 89zM435 1530q54 0 93.5 -39.5t39.5 -93.5t-39.5 -93.5t-93.5 -39.5t-93.5 39.5t-39.5 93.5t39.5 93.5t93.5 39.5zM824 1530q52 0 92.5 -40.5t40.5 -92.5q0 -54 -39.5 -93.5t-93.5 -39.5t-93.5 39.5t-39.5 93.5t39.5 93.5t93.5 39.5z" />
    <glyph glyph-name="divide" unicode="&#xf7;" horiz-adv-x="1163" 
d="M584 1245q58 0 100.5 -43t42.5 -102q0 -61 -42.5 -103.5t-103.5 -42.5q-60 0 -102.5 42.5t-42.5 103.5t43 103t105 42zM123 788h920v-176h-920v176zM584 447q58 0 100.5 -43t42.5 -103t-42.5 -102.5t-103.5 -42.5t-103 42t-42 103t43 103.5t105 42.5z" />
    <glyph glyph-name="oslash" unicode="&#xf8;" horiz-adv-x="1235" 
d="M209 186q-98 152 -98 351q0 271 159 427q139 136 353 136q183 0 321 -109l72 80h186l-166 -182q95 -153 95 -349q0 -272 -158 -429q-137 -136 -350 -136q-182 0 -320 109l-76 -84h-188zM819 854q-79 74 -194 74q-157 0 -234 -113q-67 -98 -67 -274q0 -110 26 -199z
M424 217q79 -76 195 -76q155 0 232 115q67 101 67 280q0 96 -25 197z" />
    <glyph glyph-name="ugrave" unicode="&#xf9;" horiz-adv-x="1251" 
d="M842 164q-101 -184 -320 -184q-175 0 -264 124q-78 108 -78 295v672h215v-637q0 -161 50 -223q45 -55 143 -55q125 0 194 84q60 72 60 188v643h215v-1071h-215v164zM317 1593h262l109 -360h-148z" />
    <glyph glyph-name="uacute" unicode="&#xfa;" horiz-adv-x="1251" 
d="M842 164q-101 -184 -320 -184q-175 0 -264 124q-78 108 -78 295v672h215v-637q0 -161 50 -223q45 -55 143 -55q125 0 194 84q60 72 60 188v643h215v-1071h-215v164zM651 1593h262l-224 -360h-147z" />
    <glyph glyph-name="ucircumflex" unicode="&#xfb;" horiz-adv-x="1251" 
d="M842 164q-101 -184 -320 -184q-175 0 -264 124q-78 108 -78 295v672h215v-637q0 -161 50 -223q45 -55 143 -55q125 0 194 84q60 72 60 188v643h215v-1071h-215v164zM539 1573h178l205 -338h-146l-151 174l-152 -174h-143z" />
    <glyph glyph-name="udieresis" unicode="&#xfc;" horiz-adv-x="1251" 
d="M842 164q-101 -184 -320 -184q-175 0 -264 124q-78 108 -78 295v672h215v-637q0 -161 50 -223q45 -55 143 -55q125 0 194 84q60 72 60 188v643h215v-1071h-215v164zM432 1530q54 0 93.5 -39.5t39.5 -93.5t-39.5 -93.5t-93.5 -39.5t-93.5 39.5t-39.5 93.5t39.5 93.5
t93.5 39.5zM821 1530q52 0 92.5 -40.5t40.5 -92.5q0 -54 -39.5 -93.5t-93.5 -39.5t-93.5 39.5t-39.5 93.5t39.5 93.5t93.5 39.5z" />
    <glyph glyph-name="yacute" unicode="&#xfd;" horiz-adv-x="1066" 
d="M590 -135q-91 -252 -315 -252q-122 0 -218 65l70 150q63 -43 133 -43q115 0 154 129l31 98l-406 1059h229l281 -772l262 772h215zM570 1593h262l-224 -360h-147z" />
    <glyph glyph-name="thorn" unicode="&#xfe;" horiz-adv-x="1316" 
d="M193 1542h215v-643q124 192 346 192q219 0 344 -171q109 -149 109 -381q0 -273 -140 -426q-121 -133 -313 -133q-230 0 -346 188v-541h-215v1915zM699 919q-148 0 -228 -117q-69 -102 -69 -267q0 -196 89 -296q77 -87 210 -87q287 0 287 376q0 200 -85 302
q-75 89 -204 89z" />
    <glyph glyph-name="ydieresis" unicode="&#xff;" horiz-adv-x="1066" 
d="M590 -135q-91 -252 -315 -252q-122 0 -218 65l70 150q63 -43 133 -43q115 0 154 129l31 98l-406 1059h229l281 -772l262 772h215zM350 1530q54 0 93.5 -39.5t39.5 -93.5t-39.5 -93.5t-93.5 -39.5t-93.5 39.5t-39.5 93.5t39.5 93.5t93.5 39.5zM739 1530q52 0 92.5 -40.5
t40.5 -92.5q0 -54 -39.5 -93.5t-93.5 -39.5t-93.5 39.5t-39.5 93.5t39.5 93.5t93.5 39.5z" />
    <glyph glyph-name="Amacron" unicode="&#x100;" 
d="M240 0h-209l530 1464h230l522 -1464h-227l-117 342h-612zM910 514l-246 721l-248 -721h494zM420 1786h508v-156h-508v156z" />
    <glyph glyph-name="amacron" unicode="&#x101;" horiz-adv-x="1146" 
d="M1080 -4q-55 -6 -76 -6q-182 0 -236 157q-129 -167 -327 -167q-161 0 -255 95q-81 82 -81 208q0 236 276 317q135 38 373 43v55q0 123 -55 175q-48 46 -146 46q-155 0 -305 -127l-111 140q97 84 198.5 121.5t232.5 37.5q208 0 311 -113q90 -100 90 -276v-450
q0 -100 86 -100q17 0 25 2v-158zM754 498q-436 -3 -436 -203q0 -71 45.5 -110t128.5 -39q123 0 198 69q64 59 64 147v136zM320 1450h508v-156h-508v156z" />
    <glyph glyph-name="Abreve" unicode="&#x102;" 
d="M240 0h-209l530 1464h230l522 -1464h-227l-117 342h-612zM910 514l-246 721l-248 -721h494zM509 1901q8 -165 165 -165q158 0 164 165h154q-6 -317 -318 -317q-310 0 -319 317h154z" />
    <glyph glyph-name="abreve" unicode="&#x103;" horiz-adv-x="1146" 
d="M1080 -4q-55 -6 -76 -6q-182 0 -236 157q-129 -167 -327 -167q-161 0 -255 95q-81 82 -81 208q0 236 276 317q135 38 373 43v55q0 123 -55 175q-48 46 -146 46q-155 0 -305 -127l-111 140q97 84 198.5 121.5t232.5 37.5q208 0 311 -113q90 -100 90 -276v-450
q0 -100 86 -100q17 0 25 2v-158zM754 498q-436 -3 -436 -203q0 -71 45.5 -110t128.5 -39q123 0 198 69q64 59 64 147v136zM425 1573q8 -172 149 -172q73 0 108 41t40 131h153q-6 -324 -301 -324q-294 0 -303 324h154z" />
    <glyph glyph-name="Aogonek" unicode="&#x104;" horiz-adv-x="1344" 
d="M1303 29q-207 -125 -207 -254q0 -100 82 -100q53 0 98 51l76 -86q-77 -74 -186 -74t-164 53q-49 47 -49 127q0 60 29 113t106 133l-119 350h-612l-117 -342h-209l530 1464h230zM910 514l-246 721l-248 -721h494z" />
    <glyph glyph-name="aogonek" unicode="&#x105;" horiz-adv-x="1143" 
d="M1119 -358q-43 -42 -86 -58t-109 -16q-105 0 -162 52q-49 46 -49 120q0 144 182 268q-98 39 -127 139q-129 -167 -327 -167q-161 0 -255 95q-81 82 -81 208q0 236 276 317q135 38 373 43v55q0 123 -55 175q-48 46 -146 46q-155 0 -305 -127l-111 140q97 84 198.5 121.5
t232.5 37.5q208 0 311 -113q90 -100 90 -276v-450q0 -100 86 -100q17 0 25 2v-121q-105 -67 -163.5 -141.5t-58.5 -138.5q0 -76 80 -76q56 0 105 49zM754 498q-436 -3 -436 -203q0 -71 45.5 -110t128.5 -39q123 0 198 69q64 59 64 147v136z" />
    <glyph glyph-name="Cacute" unicode="&#x106;" horiz-adv-x="1507" 
d="M810 -20q-323 0 -507 232q-161 202 -161 517q0 360 209 573q182 185 457 185q260 0 413 -148q80 -77 135 -207l-188 -78q-60 145 -153 204q-82 53 -205 53q-222 0 -341 -175q-104 -153 -104 -405q0 -288 135 -442q117 -133 314 -133q147 0 236 75q77 66 126 201l201 -78
q-75 -174 -193 -264q-146 -110 -374 -110zM829 1935h262l-224 -340h-147z" />
    <glyph glyph-name="cacute" unicode="&#x107;" horiz-adv-x="1128" 
d="M621 -20q-243 0 -387 173q-125 151 -125 379q0 267 159 423q138 136 349 136q275 0 420 -219l-172 -106q-52 85 -105.5 119t-136.5 34q-149 0 -227 -115q-68 -99 -68 -269q0 -197 88 -296q77 -87 211 -87q87 0 144 34t106 115l174 -94q-141 -227 -430 -227zM632 1593h262
l-224 -360h-147z" />
    <glyph glyph-name="Ccircumflex" unicode="&#x108;" horiz-adv-x="1507" 
d="M810 -20q-323 0 -507 232q-161 202 -161 517q0 360 209 573q182 185 457 185q260 0 413 -148q80 -77 135 -207l-188 -78q-60 145 -153 204q-82 53 -205 53q-222 0 -341 -175q-104 -153 -104 -405q0 -288 135 -442q117 -133 314 -133q147 0 236 75q77 66 126 201l201 -78
q-75 -174 -193 -264q-146 -110 -374 -110zM713 1935h178l205 -338h-146l-151 174l-152 -174h-143z" />
    <glyph glyph-name="ccircumflex" unicode="&#x109;" horiz-adv-x="1128" 
d="M621 -20q-243 0 -387 173q-125 151 -125 379q0 267 159 423q138 136 349 136q275 0 420 -219l-172 -106q-52 85 -105.5 119t-136.5 34q-149 0 -227 -115q-68 -99 -68 -269q0 -197 88 -296q77 -87 211 -87q87 0 144 34t106 115l174 -94q-141 -227 -430 -227zM519 1573h178
l205 -338h-146l-151 174l-152 -174h-143z" />
    <glyph glyph-name="Cdotaccent" unicode="&#x10a;" horiz-adv-x="1507" 
d="M810 -20q-323 0 -507 232q-161 202 -161 517q0 360 209 573q182 185 457 185q260 0 413 -148q80 -77 135 -207l-188 -78q-60 145 -153 204q-82 53 -205 53q-222 0 -341 -175q-104 -153 -104 -405q0 -288 135 -442q117 -133 314 -133q147 0 236 75q77 66 126 201l201 -78
q-75 -174 -193 -264q-146 -110 -374 -110zM801 1853q52 0 90.5 -38.5t38.5 -90.5t-38.5 -90.5t-90.5 -38.5t-90.5 38.5t-38.5 90.5t38.5 90.5t90.5 38.5z" />
    <glyph glyph-name="cdotaccent" unicode="&#x10b;" horiz-adv-x="1128" 
d="M621 -20q-243 0 -387 173q-125 151 -125 379q0 267 159 423q138 136 349 136q275 0 420 -219l-172 -106q-52 85 -105.5 119t-136.5 34q-149 0 -227 -115q-68 -99 -68 -269q0 -197 88 -296q77 -87 211 -87q87 0 144 34t106 115l174 -94q-141 -227 -430 -227zM607 1526
q52 0 90.5 -38.5t38.5 -90.5t-38.5 -90.5t-90.5 -38.5t-90.5 38.5t-38.5 90.5t38.5 90.5t90.5 38.5z" />
    <glyph glyph-name="Ccaron" unicode="&#x10c;" horiz-adv-x="1507" 
d="M810 -20q-323 0 -507 232q-161 202 -161 517q0 360 209 573q182 185 457 185q260 0 413 -148q80 -77 135 -207l-188 -78q-60 145 -153 204q-82 53 -205 53q-222 0 -341 -175q-104 -153 -104 -405q0 -288 135 -442q117 -133 314 -133q147 0 236 75q77 66 126 201l201 -78
q-75 -174 -193 -264q-146 -110 -374 -110zM504 1935h147l152 -182l152 182h143l-211 -336h-172z" />
    <glyph glyph-name="ccaron" unicode="&#x10d;" horiz-adv-x="1128" 
d="M621 -20q-243 0 -387 173q-125 151 -125 379q0 267 159 423q138 136 349 136q275 0 420 -219l-172 -106q-52 85 -105.5 119t-136.5 34q-149 0 -227 -115q-68 -99 -68 -269q0 -197 88 -296q77 -87 211 -87q87 0 144 34t106 115l174 -94q-141 -227 -430 -227zM310 1573h147
l152 -182l152 182h141l-211 -338h-168z" />
    <glyph glyph-name="Dcaron" unicode="&#x10e;" horiz-adv-x="1544" 
d="M202 1464h494q354 0 541 -219q163 -190 163 -512q0 -376 -210 -566q-183 -167 -501 -167h-487v1464zM706 176q245 0 365 162q106 142 106 395q0 287 -138 430q-121 125 -335 125h-287v-1112h289zM395 1935h147l152 -182l152 182h143l-211 -336h-172z" />
    <glyph glyph-name="dcaron" unicode="&#x10f;" horiz-adv-x="1319" 
d="M906 172q-115 -192 -346 -192q-220 0 -345 173q-108 150 -108 386q0 268 140 420q121 132 313 132q227 0 346 -190v641h215v-1542h-215v172zM611 919q-145 0 -220 -116q-65 -101 -65 -273q0 -378 283 -378q156 0 235 113q70 99 70 270q0 193 -91 295q-79 89 -212 89z
M1281 1229q114 16 117 104q-119 6 -119 111q0 48 33.5 79t85.5 31q60 0 95.5 -44t35.5 -118q0 -122 -73 -191q-63 -59 -175 -71v99z" />
    <glyph glyph-name="Dcroat" unicode="&#x110;" horiz-adv-x="1550" 
d="M44 795h164v669h493q356 0 542 -218q162 -191 162 -513q0 -376 -208 -566q-183 -167 -500 -167h-489v639h-164v156zM713 176q245 0 364 162q105 142 105 395q0 289 -138 431q-120 124 -335 124h-286v-493h280v-156h-280v-463h290z" />
    <glyph glyph-name="dcroat" unicode="&#x111;" horiz-adv-x="1306" 
d="M1121 0h-215v172q-115 -192 -346 -192q-220 0 -345 173q-108 150 -108 386q0 268 140 420q121 132 313 132q227 0 346 -190v311h-205v156h205v174h215v-174h149v-156h-149v-1212zM611 919q-145 0 -220 -116q-65 -101 -65 -273q0 -378 283 -378q156 0 235 113
q70 99 70 270q0 193 -91 295q-79 89 -212 89z" />
    <glyph glyph-name="Emacron" unicode="&#x112;" horiz-adv-x="1313" 
d="M202 1464h963v-176h-748v-463h606v-172h-606v-477h784v-176h-999v1464zM438 1786h508v-156h-508v156z" />
    <glyph glyph-name="emacron" unicode="&#x113;" horiz-adv-x="1189" 
d="M633 -20q-250 0 -397 172q-127 150 -127 378q0 266 159 424q137 137 345 137q236 0 362 -163q109 -141 109 -377v-66h-758q9 -102 35 -163t80 -107q73 -63 203 -63q96 0 159 33.5t113 111.5l151 -125q-141 -192 -434 -192zM334 641h539q-18 161 -87 227q-60 57 -173 57
q-228 0 -279 -284zM357 1450h508v-156h-508v156z" />
    <glyph glyph-name="Ebreve" unicode="&#x114;" horiz-adv-x="1313" 
d="M202 1464h963v-176h-748v-463h606v-172h-606v-477h784v-176h-999v1464zM526 1901q8 -165 165 -165q158 0 164 165h154q-6 -317 -318 -317q-310 0 -319 317h154z" />
    <glyph glyph-name="ebreve" unicode="&#x115;" horiz-adv-x="1189" 
d="M633 -20q-250 0 -397 172q-127 150 -127 378q0 266 159 424q137 137 345 137q236 0 362 -163q109 -141 109 -377v-66h-758q9 -102 35 -163t80 -107q73 -63 203 -63q96 0 159 33.5t113 111.5l151 -125q-141 -192 -434 -192zM334 641h539q-18 161 -87 227q-60 57 -173 57
q-228 0 -279 -284zM462 1573q8 -172 149 -172q73 0 108 41t40 131h153q-6 -324 -301 -324q-294 0 -303 324h154z" />
    <glyph glyph-name="Edotaccent" unicode="&#x116;" horiz-adv-x="1313" 
d="M202 1464h963v-176h-748v-463h606v-172h-606v-477h784v-176h-999v1464zM691 1853q52 0 90.5 -38.5t38.5 -90.5t-38.5 -90.5t-90.5 -38.5t-90.5 38.5t-38.5 90.5t38.5 90.5t90.5 38.5z" />
    <glyph glyph-name="edotaccent" unicode="&#x117;" horiz-adv-x="1189" 
d="M633 -20q-250 0 -397 172q-127 150 -127 378q0 266 159 424q137 137 345 137q236 0 362 -163q109 -141 109 -377v-66h-758q9 -102 35 -163t80 -107q73 -63 203 -63q96 0 159 33.5t113 111.5l151 -125q-141 -192 -434 -192zM334 641h539q-18 161 -87 227q-60 57 -173 57
q-228 0 -279 -284zM611 1526q52 0 90.5 -38.5t38.5 -90.5t-38.5 -90.5t-90.5 -38.5t-90.5 38.5t-38.5 90.5t38.5 90.5t90.5 38.5z" />
    <glyph glyph-name="Eogonek" unicode="&#x118;" horiz-adv-x="1312" 
d="M1138 -274l75 -84q-42 -42 -84.5 -58t-107.5 -16q-104 0 -160 53q-49 45 -49 121q0 137 178 258h-788v1464h963v-176h-748v-463h606v-172h-606v-477h784v-176h-77q-167 -138 -167 -247q0 -76 76 -76q56 0 105 49z" />
    <glyph glyph-name="eogonek" unicode="&#x119;" horiz-adv-x="1189" 
d="M1084 551v-66h-758q9 -106 33.5 -167.5t73.5 -104.5q78 -66 198 -66q189 0 285 150l151 -125q-117 -158 -323 -185q-150 -131 -150 -235q0 -78 76 -78q55 0 105 49l75 -84q-42 -41 -84.5 -57.5t-107.5 -16.5q-104 0 -160 52q-49 46 -49 120q0 125 149 242
q-121 12 -199.5 46.5t-146.5 105.5q-143 152 -143 399q0 266 159 424q137 137 345 137q236 0 362 -163q109 -141 109 -377zM334 641h539q-18 161 -87 227q-60 57 -173 57q-228 0 -279 -284z" />
    <glyph glyph-name="Ecaron" unicode="&#x11a;" horiz-adv-x="1313" 
d="M202 1464h963v-176h-748v-463h606v-172h-606v-477h784v-176h-999v1464zM395 1935h147l152 -182l152 182h143l-211 -336h-172z" />
    <glyph glyph-name="ecaron" unicode="&#x11b;" horiz-adv-x="1189" 
d="M633 -20q-250 0 -397 172q-127 150 -127 378q0 266 159 424q137 137 345 137q236 0 362 -163q109 -141 109 -377v-66h-758q9 -102 35 -163t80 -107q73 -63 203 -63q96 0 159 33.5t113 111.5l151 -125q-141 -192 -434 -192zM334 641h539q-18 161 -87 227q-60 57 -173 57
q-228 0 -279 -284zM314 1573h147l152 -182l152 182h141l-211 -338h-168z" />
    <glyph glyph-name="Gcircumflex" unicode="&#x11c;" horiz-adv-x="1614" 
d="M800 -20q-312 0 -497 236q-161 205 -161 513q0 358 213 572q186 186 463 186q264 0 413 -144q82 -76 140 -204l-193 -84q-61 146 -154 205q-80 51 -204 51q-225 0 -348 -177q-107 -154 -107 -405q0 -283 137 -438q119 -135 314 -135q191 0 309 136q102 118 102 288v18
h-372v172h583v-770h-133l-39 252q-95 -152 -215 -216q-106 -56 -251 -56zM736 1935h178l205 -338h-146l-151 174l-152 -174h-143z" />
    <glyph glyph-name="gcircumflex" unicode="&#x11d;" horiz-adv-x="1176" 
d="M1100 1089v-180h-145q53 -80 53 -174q0 -163 -135 -261q-117 -85 -291 -85q-95 0 -184 31q-54 -36 -54 -90q0 -45 32 -63.5t108 -18.5h190q116 0 182.5 -12.5t118.5 -44.5q123 -78 123 -240q0 -177 -158 -272q-137 -82 -364 -82q-239 0 -369 88q-113 76 -113 201
q0 140 185 225q-111 60 -111 174q0 116 121 192q-135 105 -135 262q0 164 132 265q114 87 282 87q123 0 235 -53zM574 937q-103 0 -161 -61q-50 -53 -50 -137q0 -99 68 -154q59 -47 153 -47q105 0 164 61q51 52 51 135q0 102 -68 156q-59 47 -157 47zM484 68q-16 0 -54 3
q-10 1 -16 1q-121 -65 -121 -157q0 -160 287 -160q315 0 315 182q0 131 -180 131h-231zM518 1573h178l205 -338h-146l-151 174l-152 -174h-143z" />
    <glyph glyph-name="Gbreve" unicode="&#x11e;" horiz-adv-x="1614" 
d="M800 -20q-312 0 -497 236q-161 205 -161 513q0 358 213 572q186 186 463 186q264 0 413 -144q82 -76 140 -204l-193 -84q-61 146 -154 205q-80 51 -204 51q-225 0 -348 -177q-107 -154 -107 -405q0 -283 137 -438q119 -135 314 -135q191 0 309 136q102 118 102 288v18
h-372v172h583v-770h-133l-39 252q-95 -152 -215 -216q-106 -56 -251 -56zM658 1901q8 -165 165 -165q158 0 164 165h154q-6 -317 -318 -317q-310 0 -319 317h154z" />
    <glyph glyph-name="gbreve" unicode="&#x11f;" horiz-adv-x="1176" 
d="M1100 1089v-180h-145q53 -80 53 -174q0 -163 -135 -261q-117 -85 -291 -85q-95 0 -184 31q-54 -36 -54 -90q0 -45 32 -63.5t108 -18.5h190q116 0 182.5 -12.5t118.5 -44.5q123 -78 123 -240q0 -177 -158 -272q-137 -82 -364 -82q-239 0 -369 88q-113 76 -113 201
q0 140 185 225q-111 60 -111 174q0 116 121 192q-135 105 -135 262q0 164 132 265q114 87 282 87q123 0 235 -53zM574 937q-103 0 -161 -61q-50 -53 -50 -137q0 -99 68 -154q59 -47 153 -47q105 0 164 61q51 52 51 135q0 102 -68 156q-59 47 -157 47zM484 68q-16 0 -54 3
q-10 1 -16 1q-121 -65 -121 -157q0 -160 287 -160q315 0 315 182q0 131 -180 131h-231zM457 1573q8 -172 149 -172q73 0 108 41t40 131h153q-6 -324 -301 -324q-294 0 -303 324h154z" />
    <glyph glyph-name="Gdotaccent" unicode="&#x120;" horiz-adv-x="1614" 
d="M800 -20q-312 0 -497 236q-161 205 -161 513q0 358 213 572q186 186 463 186q264 0 413 -144q82 -76 140 -204l-193 -84q-61 146 -154 205q-80 51 -204 51q-225 0 -348 -177q-107 -154 -107 -405q0 -283 137 -438q119 -135 314 -135q191 0 309 136q102 118 102 288v18
h-372v172h583v-770h-133l-39 252q-95 -152 -215 -216q-106 -56 -251 -56zM824 1853q52 0 90.5 -38.5t38.5 -90.5t-38.5 -90.5t-90.5 -38.5t-90.5 38.5t-38.5 90.5t38.5 90.5t90.5 38.5z" />
    <glyph glyph-name="gdotaccent" unicode="&#x121;" horiz-adv-x="1176" 
d="M1100 1089v-180h-145q53 -80 53 -174q0 -163 -135 -261q-117 -85 -291 -85q-95 0 -184 31q-54 -36 -54 -90q0 -45 32 -63.5t108 -18.5h190q116 0 182.5 -12.5t118.5 -44.5q123 -78 123 -240q0 -177 -158 -272q-137 -82 -364 -82q-239 0 -369 88q-113 76 -113 201
q0 140 185 225q-111 60 -111 174q0 116 121 192q-135 105 -135 262q0 164 132 265q114 87 282 87q123 0 235 -53zM574 937q-103 0 -161 -61q-50 -53 -50 -137q0 -99 68 -154q59 -47 153 -47q105 0 164 61q51 52 51 135q0 102 -68 156q-59 47 -157 47zM484 68q-16 0 -54 3
q-10 1 -16 1q-121 -65 -121 -157q0 -160 287 -160q315 0 315 182q0 131 -180 131h-231zM606 1526q52 0 90.5 -38.5t38.5 -90.5t-38.5 -90.5t-90.5 -38.5t-90.5 38.5t-38.5 90.5t38.5 90.5t90.5 38.5z" />
    <glyph glyph-name="Gcommaaccent" unicode="&#x122;" horiz-adv-x="1614" 
d="M800 -20q-312 0 -497 236q-161 205 -161 513q0 358 213 572q186 186 463 186q264 0 413 -144q82 -76 140 -204l-193 -84q-61 146 -154 205q-80 51 -204 51q-225 0 -348 -177q-107 -154 -107 -405q0 -283 137 -438q119 -135 314 -135q191 0 309 136q102 118 102 288v18
h-372v172h583v-770h-133l-39 252q-95 -152 -215 -216q-106 -56 -251 -56zM703 -416q114 16 117 105q-119 9 -119 110q0 49 33.5 80t85.5 31q60 0 95.5 -44t35.5 -118q0 -123 -73 -191q-63 -60 -175 -71v98z" />
    <glyph glyph-name="gcommaaccent" unicode="&#x123;" horiz-adv-x="1176" 
d="M719 1536q-114 -16 -117 -104q119 -10 119 -111q0 -48 -33.5 -79.5t-85.5 -31.5q-60 0 -95.5 44t-35.5 118q0 237 248 262v-98zM1100 1089v-180h-145q53 -80 53 -174q0 -163 -135 -261q-117 -85 -291 -85q-95 0 -184 31q-54 -36 -54 -90q0 -45 32 -63.5t108 -18.5h190
q116 0 182.5 -12.5t118.5 -44.5q123 -78 123 -240q0 -177 -158 -272q-137 -82 -364 -82q-239 0 -369 88q-113 76 -113 201q0 140 185 225q-111 60 -111 174q0 116 121 192q-135 105 -135 262q0 164 132 265q114 87 282 87q123 0 235 -53zM574 937q-103 0 -161 -61
q-50 -53 -50 -137q0 -99 68 -154q59 -47 153 -47q105 0 164 61q51 52 51 135q0 102 -68 156q-59 47 -157 47zM484 68q-16 0 -54 3q-10 1 -16 1q-121 -65 -121 -157q0 -160 287 -160q315 0 315 182q0 131 -180 131h-231z" />
    <glyph glyph-name="Hcircumflex" unicode="&#x124;" horiz-adv-x="1523" 
d="M202 1464h215v-645h690v645h215v-1464h-215v643h-690v-643h-215v1464zM675 1935h178l205 -338h-146l-151 174l-152 -174h-143z" />
    <glyph glyph-name="hcircumflex" unicode="&#x125;" horiz-adv-x="1249" 
d="M180 1542h215v-637q98 186 322 186q180 0 272 -124q80 -108 80 -295v-672h-215v662q0 137 -56 197q-50 52 -149 52q-125 0 -194 -83q-60 -71 -60 -187v-641h-215v1542zM201 2013h178l205 -338h-146l-151 174l-152 -174h-143z" />
    <glyph glyph-name="Hbar" unicode="&#x126;" horiz-adv-x="1502" 
d="M39 1204h152v260h215v-260h690v260h215v-260h151v-156h-151v-1048h-215v643h-690v-643h-215v1048h-152v156zM1096 819v229h-690v-229h690z" />
    <glyph glyph-name="hbar" unicode="&#x127;" horiz-adv-x="1251" 
d="M398 905q98 186 322 186q180 0 272 -124q80 -108 80 -295v-672h-215v662q0 137 -56 197q-50 52 -149 52q-125 0 -194 -83q-60 -71 -60 -187v-641h-215v1212h-141v156h141v174h215v-174h213v-156h-213v-307z" />
    <glyph glyph-name="Itilde" unicode="&#x128;" horiz-adv-x="642" 
d="M213 1464h215v-1464h-215v1464zM-8 1620q18 122 77 185q51 55 126 55q58 0 153 -53q66 -37 97 -37q58 0 75 92l129 -13q-19 -122 -79 -185q-53 -54 -127 -54q-58 0 -156 53q-63 37 -92 37q-63 0 -78 -92z" />
    <glyph glyph-name="itilde" unicode="&#x129;" horiz-adv-x="589" 
d="M187 1071h215v-1071h-215v1071zM-34 1284q18 121 77 184q51 55 126 55q58 0 153 -53q66 -36 97 -36q58 0 75 91l129 -12q-19 -122 -79 -185q-53 -54 -127 -54q-66 0 -156 53q-63 36 -92 36q-63 0 -78 -91z" />
    <glyph glyph-name="Imacron" unicode="&#x12a;" horiz-adv-x="650" 
d="M217 1464h215v-1464h-215v1464zM72 1786h508v-156h-508v156z" />
    <glyph glyph-name="imacron" unicode="&#x12b;" horiz-adv-x="589" 
d="M187 1071h215v-1071h-215v1071zM42 1450h508v-156h-508v156z" />
    <glyph glyph-name="Ibreve" unicode="&#x12c;" horiz-adv-x="641" 
d="M213 1464h215v-1464h-215v1464zM156 1901q8 -165 165 -165q158 0 164 165h154q-6 -317 -318 -317q-310 0 -319 317h154z" />
    <glyph glyph-name="ibreve" unicode="&#x12d;" horiz-adv-x="585" 
d="M186 1071h215v-1071h-215v1071zM145 1573q8 -172 149 -172q73 0 108 41t40 131h153q-6 -324 -301 -324q-294 0 -303 324h154z" />
    <glyph glyph-name="Iogonek" unicode="&#x12e;" horiz-adv-x="658" 
d="M418 -275l75 -84q-42 -41 -84.5 -57t-107.5 -16q-104 0 -160 52q-49 46 -49 122q0 137 178 258h-51v1464h215v-1464h-31q-166 -138 -166 -247q0 -76 76 -76q55 0 105 48z" />
    <glyph glyph-name="iogonek" unicode="&#x12f;" horiz-adv-x="596" 
d="M296 1528q53 0 92 -39.5t39 -93.5t-38.5 -92.5t-92.5 -38.5q-55 0 -94 38.5t-39 92.5q0 55 39 94t94 39zM190 1071h215v-1049q-201 -143 -201 -269q0 -76 78 -76q57 0 107 48l75 -84q-42 -40 -85.5 -56.5t-108.5 -16.5q-105 0 -162 52q-49 46 -49 122q0 138 178 258h-47
v1071z" />
    <glyph glyph-name="Idotaccent" unicode="&#x130;" horiz-adv-x="668" 
d="M226 1464h215v-1464h-215v1464zM335 1853q52 0 90.5 -38.5t38.5 -90.5t-38.5 -90.5t-90.5 -38.5t-90.5 38.5t-38.5 90.5t38.5 90.5t90.5 38.5z" />
    <glyph glyph-name="dotlessi" unicode="&#x131;" horiz-adv-x="609" 
d="M197 1071h215v-1071h-215v1071z" />
    <glyph glyph-name="IJ" unicode="&#x132;" horiz-adv-x="1876" 
d="M228 1464h215v-1464h-215v1464zM1687 495q0 -515 -450 -515q-227 0 -350 136q-107 118 -107 312v98h215v-78q0 -296 233 -296q244 0 244 325v987h215v-969z" />
    <glyph glyph-name="ij" unicode="&#x133;" horiz-adv-x="1203" 
d="M304 1528q53 0 92 -39.5t39 -93.5t-38.5 -92.5t-92.5 -38.5q-55 0 -94 38.5t-39 92.5q0 55 39 94t94 39zM196 1071h215v-1071h-215v1071zM901 1528q53 0 92 -39.5t39 -93.5t-39 -92.5t-92 -38.5q-55 0 -94 38.5t-39 92.5q0 55 38.5 94t94.5 39zM1008 -76q0 -163 -87 -243
q-75 -70 -210 -70q-89 0 -158 39l43 153q46 -20 80 -20q117 0 117 127v1161h215v-1147z" />
    <glyph glyph-name="Jcircumflex" unicode="&#x134;" horiz-adv-x="1194" 
d="M1016 495q0 -515 -450 -515q-227 0 -350 136q-107 118 -107 312v98h215v-78q0 -296 233 -296q244 0 244 325v987h215v-969zM820 1935h178l205 -338h-146l-151 174l-152 -174h-143z" />
    <glyph glyph-name="jcircumflex" unicode="&#x135;" horiz-adv-x="586" 
d="M402 -76q0 -163 -87 -243q-75 -70 -210 -70q-89 0 -158 39l43 153q46 -20 80 -20q117 0 117 127v1161h215v-1147zM207 1573h178l205 -338h-146l-151 174l-152 -174h-143z" />
    <glyph glyph-name="Kcommaaccent" unicode="&#x136;" horiz-adv-x="1367" 
d="M202 1464h215v-710l606 710h246l-528 -612l557 -852h-242l-457 696l-182 -211v-485h-215v1464zM585 -416q114 16 117 105q-119 9 -119 110q0 49 33.5 80t85.5 31q60 0 95.5 -44t35.5 -118q0 -123 -73 -191q-63 -60 -175 -71v98z" />
    <glyph glyph-name="kcommaaccent" unicode="&#x137;" horiz-adv-x="1157" 
d="M553 496l-145 -168v-328h-215v1542h215v-956l406 485h243l-364 -420l411 -651h-237zM498 -416q114 16 117 105q-119 9 -119 110q0 49 33.5 80t85.5 31q60 0 95.5 -44t35.5 -118q0 -123 -73 -191q-63 -60 -175 -71v98z" />
    <glyph glyph-name="kgreenlandic" unicode="&#x138;" horiz-adv-x="1374" 
d="M199 1071h207v-506l537 506h241l-485 -450l508 -621h-236l-409 500l-156 -150v-350h-207v1071z" />
    <glyph glyph-name="Lacute" unicode="&#x139;" horiz-adv-x="1185" 
d="M202 1464h215v-1288h707v-176h-922v1464zM348 1935h262l-224 -340h-147z" />
    <glyph glyph-name="lacute" unicode="&#x13a;" horiz-adv-x="703" 
d="M334 2013h262l-223 -340h-147zM486 -29q-155 0 -222 82q-65 79 -65 248v1241h215v-1220q0 -91 29 -131t96 -40q60 0 104 29l60 -151q-92 -58 -217 -58z" />
    <glyph glyph-name="Lcommaaccent" unicode="&#x13b;" horiz-adv-x="1185" 
d="M202 1464h215v-1288h707v-176h-922v1464zM536 -416q114 16 117 105q-119 9 -119 110q0 49 33.5 80t85.5 31q60 0 95.5 -44t35.5 -118q0 -123 -73 -191q-63 -60 -175 -71v98z" />
    <glyph glyph-name="lcommaaccent" unicode="&#x13c;" horiz-adv-x="703" 
d="M486 -29q-155 0 -222 82q-65 79 -65 248v1241h215v-1220q0 -91 29 -131t96 -40q60 0 104 29l60 -151q-92 -58 -217 -58zM314 -416q114 16 117 105q-119 9 -119 110q0 49 33.5 80t85.5 31q60 0 95.5 -44t35.5 -118q0 -123 -73 -191q-63 -60 -175 -71v98z" />
    <glyph glyph-name="Lcaron" unicode="&#x13d;" horiz-adv-x="1185" 
d="M202 1464h215v-1288h707v-176h-922v1464zM837 1163q114 16 117 104q-119 7 -119 111q0 48 33.5 79.5t85.5 31.5q60 0 95.5 -44t35.5 -118q0 -123 -73 -191q-63 -60 -175 -71v98z" />
    <glyph glyph-name="lcaron" unicode="&#x13e;" horiz-adv-x="690" 
d="M-2 2044h147l152 -182l152 182h141l-211 -338h-168zM473 -29q-155 0 -222 82q-65 79 -65 248v1241h215v-1220q0 -91 29 -131t96 -40q60 0 104 29l60 -151q-92 -58 -217 -58z" />
    <glyph glyph-name="Ldot" unicode="&#x13f;" horiz-adv-x="1185" 
d="M202 1464h215v-1288h707v-176h-922v1464zM886 819q61 0 104 -44t43 -105q0 -62 -43 -106t-104 -44q-64 0 -108 43.5t-44 106.5q0 62 44 105.5t108 43.5z" />
    <glyph glyph-name="ldot" unicode="&#x140;" horiz-adv-x="807" 
d="M486 -29q-155 0 -222 82q-65 79 -65 248v1241h215v-1220q0 -91 29 -131t96 -40q60 0 104 29l60 -151q-92 -58 -217 -58zM699 819q61 0 104 -44t43 -105q0 -62 -43 -106t-104 -44q-64 0 -108 43.5t-44 106.5q0 62 44 105.5t108 43.5z" />
    <glyph glyph-name="Lslash" unicode="&#x141;" horiz-adv-x="1263" 
d="M68 670l158 61v733h215v-651l342 135v-172l-342 -133v-467h706v-176h-921v561l-158 -61v170z" />
    <glyph glyph-name="lslash" unicode="&#x142;" horiz-adv-x="739" 
d="M688 180l59 -151q-92 -58 -217 -58q-155 0 -222 82q-65 79 -65 248v336l-186 -96v184l186 96v721h215v-610l205 110v-184l-205 -111v-425q0 -91 29 -131t96 -40q60 0 105 29z" />
    <glyph glyph-name="Nacute" unicode="&#x143;" horiz-adv-x="1523" 
d="M202 1464h275l642 -1198v1198h203v-1464h-279l-638 1188v-1188h-203v1464zM827 1935h262l-224 -340h-147z" />
    <glyph glyph-name="nacute" unicode="&#x144;" horiz-adv-x="1261" 
d="M193 1071h215v-166q98 186 322 186q180 0 272 -124q80 -108 80 -295v-672h-215v662q0 137 -56 197q-50 52 -149 52q-125 0 -194 -83q-60 -71 -60 -187v-641h-215v1071zM656 1593h262l-224 -360h-147z" />
    <glyph glyph-name="Ncommaaccent" unicode="&#x145;" horiz-adv-x="1523" 
d="M202 1464h275l642 -1198v1198h203v-1464h-279l-638 1188v-1188h-203v1464zM640 -416q114 16 117 105q-119 9 -119 110q0 49 33.5 80t85.5 31q60 0 95.5 -44t35.5 -118q0 -123 -73 -191q-63 -60 -175 -71v98z" />
    <glyph glyph-name="ncommaaccent" unicode="&#x146;" horiz-adv-x="1261" 
d="M193 1071h215v-166q98 186 322 186q180 0 272 -124q80 -108 80 -295v-672h-215v662q0 137 -56 197q-50 52 -149 52q-125 0 -194 -83q-60 -71 -60 -187v-641h-215v1071zM521 -416q114 16 117 105q-119 9 -119 110q0 49 33.5 80t85.5 31q60 0 95.5 -44t35.5 -118
q0 -123 -73 -191q-63 -60 -175 -71v98z" />
    <glyph glyph-name="Ncaron" unicode="&#x147;" horiz-adv-x="1523" 
d="M202 1464h275l642 -1198v1198h203v-1464h-279l-638 1188v-1188h-203v1464zM503 1935h147l152 -182l152 182h143l-211 -336h-172z" />
    <glyph glyph-name="ncaron" unicode="&#x148;" horiz-adv-x="1261" 
d="M193 1071h215v-166q98 186 322 186q180 0 272 -124q80 -108 80 -295v-672h-215v662q0 137 -56 197q-50 52 -149 52q-125 0 -194 -83q-60 -71 -60 -187v-641h-215v1071zM334 1573h147l152 -182l152 182h141l-211 -338h-168z" />
    <glyph glyph-name="napostrophe" unicode="&#x149;" horiz-adv-x="1263" 
d="M-167 1110q127 38 133 199q-153 6 -153 141q0 66 39.5 106.5t103.5 40.5q79 0 122.5 -57t43.5 -160q0 -177 -82 -278q-40 -48 -85.5 -71t-121.5 -34v113zM194 1071h215v-166q98 186 322 186q180 0 272 -124q80 -108 80 -295v-672h-215v662q0 137 -56 197q-50 52 -149 52
q-125 0 -194 -83q-60 -71 -60 -187v-641h-215v1071z" />
    <glyph glyph-name="Eng" unicode="&#x14a;" horiz-adv-x="1259" 
d="M379 1253q54 131 143 188q78 50 193 50q364 0 364 -535v-1003q0 -399 -299 -399h-26v219q110 3 110 157v1012q0 182 -58 256q-51 66 -159 66q-136 0 -206 -103q-62 -90 -62 -244v-917h-215v1464h215v-211z" />
    <glyph glyph-name="eng" unicode="&#x14b;" horiz-adv-x="1261" 
d="M408 905q99 186 323 186q180 0 271 -124q80 -108 80 -295v-709q0 -308 -299 -311h-27v170q111 3 111 123v717q0 137 -56 197q-50 52 -149 52q-125 0 -194 -83q-60 -71 -60 -187v-641h-215v1071h215v-166z" />
    <glyph glyph-name="Omacron" unicode="&#x14c;" horiz-adv-x="1659" 
d="M836 1484q193 0 350 -99q153 -96 241 -265q89 -173 89 -385q0 -353 -217 -568q-188 -187 -465 -187q-196 0 -356 99q-156 96 -245 266q-91 174 -91 388q0 215 90 388q89 170 245 265q160 98 359 98zM824 1308q-221 0 -348 -180q-111 -156 -111 -397q0 -278 145 -437
q126 -138 322 -138q230 0 353 172q108 150 108 399q0 283 -145 442q-125 139 -324 139zM576 1786h508v-156h-508v156z" />
    <glyph glyph-name="omacron" unicode="&#x14d;" horiz-adv-x="1257" 
d="M633 1091q239 0 386 -177q128 -153 128 -375q0 -262 -165 -421q-144 -138 -355 -138q-242 0 -390 176q-128 152 -128 376q0 263 166 422q144 137 358 137zM623 919q-143 0 -222 -117q-69 -102 -69 -267q0 -191 88 -294q78 -89 205 -89q149 0 229 116q70 101 70 267
q0 193 -91 295q-78 89 -210 89zM375 1450h508v-156h-508v156z" />
    <glyph glyph-name="Obreve" unicode="&#x14e;" horiz-adv-x="1659" 
d="M836 1484q193 0 350 -99q153 -96 241 -265q89 -173 89 -385q0 -353 -217 -568q-188 -187 -465 -187q-196 0 -356 99q-156 96 -245 266q-91 174 -91 388q0 215 90 388q89 170 245 265q160 98 359 98zM824 1308q-221 0 -348 -180q-111 -156 -111 -397q0 -278 145 -437
q126 -138 322 -138q230 0 353 172q108 150 108 399q0 283 -145 442q-125 139 -324 139zM665 1901q8 -165 165 -165q158 0 164 165h154q-6 -317 -318 -317q-310 0 -319 317h154z" />
    <glyph glyph-name="obreve" unicode="&#x14f;" horiz-adv-x="1257" 
d="M633 1091q239 0 386 -177q128 -153 128 -375q0 -262 -165 -421q-144 -138 -355 -138q-242 0 -390 176q-128 152 -128 376q0 263 166 422q144 137 358 137zM623 919q-143 0 -222 -117q-69 -102 -69 -267q0 -191 88 -294q78 -89 205 -89q149 0 229 116q70 101 70 267
q0 193 -91 295q-78 89 -210 89zM480 1573q8 -172 149 -172q73 0 108 41t40 131h153q-6 -324 -301 -324q-294 0 -303 324h154z" />
    <glyph glyph-name="Ohungarumlaut" unicode="&#x150;" horiz-adv-x="1659" 
d="M836 1484q193 0 350 -99q153 -96 241 -265q89 -173 89 -385q0 -353 -217 -568q-188 -187 -465 -187q-196 0 -356 99q-156 96 -245 266q-91 174 -91 388q0 215 90 388q89 170 245 265q160 98 359 98zM824 1308q-221 0 -348 -180q-111 -156 -111 -397q0 -278 145 -437
q126 -138 322 -138q230 0 353 172q108 150 108 399q0 283 -145 442q-125 139 -324 139zM665 1935h231l-164 -340h-141zM988 1935h232l-164 -340h-139z" />
    <glyph glyph-name="ohungarumlaut" unicode="&#x151;" horiz-adv-x="1257" 
d="M633 1091q239 0 386 -177q128 -153 128 -375q0 -262 -165 -421q-144 -138 -355 -138q-242 0 -390 176q-128 152 -128 376q0 263 166 422q144 137 358 137zM623 919q-143 0 -222 -117q-69 -102 -69 -267q0 -191 88 -294q78 -89 205 -89q149 0 229 116q70 101 70 267
q0 193 -91 295q-78 89 -210 89zM453 1593h231l-162 -360h-141zM776 1593h232l-162 -360h-139z" />
    <glyph glyph-name="OE" unicode="&#x152;" horiz-adv-x="2355" 
d="M1287 176q-185 -196 -457 -196q-195 0 -354 99q-155 96 -243 265q-91 174 -91 387q0 215 90 389q87 170 242 266q158 98 354 98q271 0 459 -202v182h921v-176h-714v-463h571v-172h-571v-477h749v-176h-956v176zM1283 829q0 219 -148 358q-129 121 -309 121
q-225 0 -351 -178q-110 -155 -110 -399q0 -281 143 -438q124 -137 320 -137q215 0 344 152q111 132 111 329v192z" />
    <glyph glyph-name="oe" unicode="&#x153;" horiz-adv-x="2011" 
d="M627 -20q-242 0 -390 176q-128 152 -128 376q0 262 165 421q144 138 355 138q262 0 408 -225q141 225 397 225q236 0 363 -163q110 -143 110 -377v-66h-762q10 -106 34.5 -166.5t74.5 -101.5q78 -65 198 -65q97 0 160 33.5t113 111.5l151 -125q-141 -192 -421 -192
q-274 0 -418 225q-147 -225 -410 -225zM1153 641h541q-16 160 -85 226q-60 58 -175 58q-229 0 -281 -284zM629 152q150 0 232 116q71 101 71 266q0 194 -92 296q-81 89 -215 89q-146 0 -227 -118q-70 -102 -70 -267q0 -190 91 -293q80 -89 210 -89z" />
    <glyph glyph-name="Racute" unicode="&#x154;" horiz-adv-x="1403" 
d="M202 1464h586q228 0 352 -123q108 -107 108 -282q0 -292 -301 -368q136 -48 190 -131q49 -74 79 -242q19 -90 54 -189t54 -119v-10h-219q-37 66 -60 137.5t-48 206.5q-35 168 -111 227q-67 52 -203 52h-266v-623h-215v1464zM741 795q294 0 294 256q0 237 -253 237h-365
v-493h324zM712 1935h262l-224 -340h-147z" />
    <glyph glyph-name="racute" unicode="&#x155;" horiz-adv-x="859" 
d="M193 1071h215v-176q101 196 283 196q84 0 170 -43l-72 -184q-61 30 -127 30q-125 0 -194 -97q-60 -86 -60 -224v-573h-215v1071zM546 1593h262l-224 -360h-147z" />
    <glyph glyph-name="Rcommaaccent" unicode="&#x156;" horiz-adv-x="1403" 
d="M202 1464h586q228 0 352 -123q108 -107 108 -282q0 -292 -301 -368q136 -48 190 -131q49 -74 79 -242q19 -90 54 -189t54 -119v-10h-219q-37 66 -60 137.5t-48 206.5q-35 168 -111 227q-67 52 -203 52h-266v-623h-215v1464zM741 795q294 0 294 256q0 237 -253 237h-365
v-493h324zM610 -416q114 16 117 105q-119 9 -119 110q0 49 33.5 80t85.5 31q60 0 95.5 -44t35.5 -118q0 -123 -73 -191q-63 -60 -175 -71v98z" />
    <glyph glyph-name="rcommaaccent" unicode="&#x157;" horiz-adv-x="857" 
d="M191 1071h215v-176q101 196 283 196q84 0 170 -43l-72 -184q-61 30 -127 30q-125 0 -194 -97q-60 -86 -60 -224v-573h-215v1071zM177 -416q114 16 117 105q-119 9 -119 110q0 49 33.5 80t85.5 31q60 0 95.5 -44t35.5 -118q0 -123 -73 -191q-63 -60 -175 -71v98z" />
    <glyph glyph-name="Rcaron" unicode="&#x158;" horiz-adv-x="1403" 
d="M202 1464h586q228 0 352 -123q108 -107 108 -282q0 -292 -301 -368q136 -48 190 -131q49 -74 79 -242q19 -90 54 -189t54 -119v-10h-219q-37 66 -60 137.5t-48 206.5q-35 168 -111 227q-67 52 -203 52h-266v-623h-215v1464zM741 795q294 0 294 256q0 237 -253 237h-365
v-493h324zM388 1935h147l152 -182l152 182h143l-211 -336h-172z" />
    <glyph glyph-name="rcaron" unicode="&#x159;" horiz-adv-x="859" 
d="M193 1071h215v-176q101 196 283 196q84 0 170 -43l-72 -184q-61 30 -127 30q-125 0 -194 -97q-60 -86 -60 -224v-573h-215v1071zM224 1573h147l152 -182l152 182h141l-211 -338h-168z" />
    <glyph glyph-name="Sacute" unicode="&#x15a;" horiz-adv-x="1345" 
d="M673 -20q-158 0 -284 49q-113 44 -184 121q-60 66 -104 178l193 84q53 -149 150 -209q84 -51 224 -51q160 0 246 75q76 66 76 173q0 106 -72 159q-69 53 -285 107q-262 58 -360 139q-119 97 -119 270q0 200 146 311q128 96 333 96q197 0 318 -67q111 -61 190 -193
l-178 -84q-58 95 -131 133.5t-193 38.5q-137 0 -209 -65q-63 -56 -63 -152q0 -97 78 -147q69 -43 244 -82q271 -60 375 -143q139 -112 139 -305q0 -217 -161 -334q-140 -102 -369 -102zM679 1935h262l-224 -340h-147z" />
    <glyph glyph-name="sacute" unicode="&#x15b;" horiz-adv-x="1063" 
d="M508 -20q-283 0 -434 192l141 129q63 -82 131 -115.5t173 -33.5q227 0 227 145q0 70 -58 103q-52 28 -204 63q-194 43 -274 126q-70 73 -70 194q0 152 125 236q107 73 277 73q236 0 357 -136l-133 -129q-50 51 -106 72t-141 21q-82 0 -132 -36q-46 -32 -46 -85
q0 -65 48 -96.5t189 -61.5q165 -34 240 -81q133 -87 133 -250q0 -164 -132 -252q-116 -78 -311 -78zM556 1593h262l-224 -360h-147z" />
    <glyph glyph-name="Scircumflex" unicode="&#x15c;" horiz-adv-x="1345" 
d="M673 -20q-158 0 -284 49q-113 44 -184 121q-60 66 -104 178l193 84q53 -149 150 -209q84 -51 224 -51q160 0 246 75q76 66 76 173q0 106 -72 159q-69 53 -285 107q-262 58 -360 139q-119 97 -119 270q0 200 146 311q128 96 333 96q197 0 318 -67q111 -61 190 -193
l-178 -84q-58 95 -131 133.5t-193 38.5q-137 0 -209 -65q-63 -56 -63 -152q0 -97 78 -147q69 -43 244 -82q271 -60 375 -143q139 -112 139 -305q0 -217 -161 -334q-140 -102 -369 -102zM564 1935h178l205 -338h-146l-151 174l-152 -174h-143z" />
    <glyph glyph-name="scircumflex" unicode="&#x15d;" horiz-adv-x="1063" 
d="M508 -20q-283 0 -434 192l141 129q63 -82 131 -115.5t173 -33.5q227 0 227 145q0 70 -58 103q-52 28 -204 63q-194 43 -274 126q-70 73 -70 194q0 152 125 236q107 73 277 73q236 0 357 -136l-133 -129q-50 51 -106 72t-141 21q-82 0 -132 -36q-46 -32 -46 -85
q0 -65 48 -96.5t189 -61.5q165 -34 240 -81q133 -87 133 -250q0 -164 -132 -252q-116 -78 -311 -78zM443 1573h178l205 -338h-146l-151 174l-152 -174h-143z" />
    <glyph glyph-name="Scedilla" unicode="&#x15e;" horiz-adv-x="1345" 
d="M1203 415q0 -203 -142 -320q-124 -101 -329 -114l-76 -102q33 8 49 8q67 0 109.5 -44.5t42.5 -113.5q0 -87 -64 -133q-55 -41 -147 -41q-124 0 -207 95l96 65q36 -51 107 -51q82 0 82 69q0 66 -72 66q-42 0 -62 -27l-81 52l114 157q-272 13 -418 168q-60 66 -104 178
l193 84q53 -149 150 -209q84 -51 224 -51q160 0 246 75q76 66 76 173t-72 160q-69 53 -285 106q-262 59 -360 139q-119 97 -119 271q0 200 146 311q128 96 333 96q197 0 318 -67q111 -61 190 -193l-178 -84q-58 95 -131 133.5t-193 38.5q-137 0 -209 -65q-63 -56 -63 -152
q0 -97 78 -147q69 -43 244 -82q271 -60 375 -144q139 -111 139 -305z" />
    <glyph glyph-name="scedilla" unicode="&#x15f;" horiz-adv-x="1063" 
d="M951 309q0 -146 -107 -233q-95 -77 -256 -93l-78 -104q33 8 49 8q67 0 109.5 -44.5t42.5 -113.5q0 -87 -64 -133q-55 -41 -147 -41q-124 0 -207 95l96 65q37 -51 107 -51q82 0 82 69q0 66 -72 66q-41 0 -61 -26l-82 51l114 155q-259 10 -403 193l141 129
q63 -83 131 -116.5t173 -33.5q227 0 227 146q0 69 -58 102q-52 29 -204 64q-194 42 -274 125q-70 73 -70 194q0 152 125 237q107 73 277 73q236 0 357 -136l-133 -129q-50 51 -106 72t-141 21q-82 0 -132 -36q-46 -32 -46 -85q0 -65 48 -97t189 -61q165 -34 240 -82
q133 -86 133 -250z" />
    <glyph glyph-name="Scaron" unicode="&#x160;" horiz-adv-x="1345" 
d="M673 -20q-158 0 -284 49q-113 44 -184 121q-60 66 -104 178l193 84q53 -149 150 -209q84 -51 224 -51q160 0 246 75q76 66 76 173q0 106 -72 159q-69 53 -285 107q-262 58 -360 139q-119 97 -119 270q0 200 146 311q128 96 333 96q197 0 318 -67q111 -61 190 -193
l-178 -84q-58 95 -131 133.5t-193 38.5q-137 0 -209 -65q-63 -56 -63 -152q0 -97 78 -147q69 -43 244 -82q271 -60 375 -143q139 -112 139 -305q0 -217 -161 -334q-140 -102 -369 -102zM355 1935h147l152 -182l152 182h143l-211 -336h-172z" />
    <glyph glyph-name="scaron" unicode="&#x161;" horiz-adv-x="1063" 
d="M508 -20q-283 0 -434 192l141 129q63 -82 131 -115.5t173 -33.5q227 0 227 145q0 70 -58 103q-52 28 -204 63q-194 43 -274 126q-70 73 -70 194q0 152 125 236q107 73 277 73q236 0 357 -136l-133 -129q-50 51 -106 72t-141 21q-82 0 -132 -36q-46 -32 -46 -85
q0 -65 48 -96.5t189 -61.5q165 -34 240 -81q133 -87 133 -250q0 -164 -132 -252q-116 -78 -311 -78zM234 1573h147l152 -182l152 182h141l-211 -338h-168z" />
    <glyph glyph-name="Tcommaaccent" unicode="&#x162;" horiz-adv-x="1187" 
d="M486 1288h-442v176h1100v-176h-443v-1288h-215v1288zM474 -416q114 16 117 105q-119 9 -119 110q0 49 33.5 80t85.5 31q60 0 95.5 -44t35.5 -118q0 -123 -73 -191q-63 -60 -175 -71v98z" />
    <glyph glyph-name="tcommaaccent" unicode="&#x163;" horiz-adv-x="813" 
d="M72 1071h160v260l215 62v-322h254v-172h-254v-600q0 -143 111 -143q64 0 135 47l67 -144q-103 -79 -229 -79q-149 0 -229 87q-70 75 -70 199v633h-160v172zM338 -416q114 16 117 105q-119 9 -119 110q0 49 33.5 80t85.5 31q60 0 95.5 -44t35.5 -118q0 -123 -73 -191
q-63 -60 -175 -71v98z" />
    <glyph glyph-name="Tcaron" unicode="&#x164;" horiz-adv-x="1187" 
d="M486 1288h-442v176h1100v-176h-443v-1288h-215v1288zM298 1935h147l152 -182l152 182h143l-211 -336h-172z" />
    <glyph glyph-name="tcaron" unicode="&#x165;" horiz-adv-x="1013" 
d="M72 1071h160v260l215 62v-322h254v-172h-254v-600q0 -143 111 -143q64 0 135 47l67 -144q-103 -79 -229 -79q-149 0 -229 87q-70 75 -70 199v633h-160v172zM807 1229q114 16 117 104q-119 6 -119 111q0 48 33.5 79t85.5 31q60 0 95.5 -44t35.5 -118q0 -122 -73 -191
q-63 -59 -175 -71v99z" />
    <glyph glyph-name="Tbar" unicode="&#x166;" horiz-adv-x="1187" 
d="M259 573v156h227v559h-442v176h1100v-176h-443v-559h242v-156h-242v-573h-215v573h-227z" />
    <glyph glyph-name="tbar" unicode="&#x167;" horiz-adv-x="813" 
d="M701 743v-156h-254v-288q0 -143 111 -143q37 0 63.5 9t71.5 37l67 -143q-103 -79 -229 -79q-149 0 -229 86q-70 76 -70 200v321h-162v156h162v156h-160v172h160v260l215 62v-322h254v-172h-254v-156h254z" />
    <glyph glyph-name="Utilde" unicode="&#x168;" horiz-adv-x="1476" 
d="M1292 563q0 -300 -165 -451q-145 -132 -398 -132q-282 0 -423 166q-122 144 -122 399v919h215v-901q0 -229 90 -324q79 -83 244 -83q198 0 280 116q72 101 72 314v878h207v-901zM409 1620q18 122 77 185q51 55 126 55q58 0 153 -53q66 -37 97 -37q58 0 75 92l129 -13
q-19 -122 -79 -185q-53 -54 -127 -54q-58 0 -156 53q-63 37 -92 37q-63 0 -78 -92z" />
    <glyph glyph-name="utilde" unicode="&#x169;" horiz-adv-x="1251" 
d="M842 164q-101 -184 -320 -184q-175 0 -264 124q-78 108 -78 295v672h215v-637q0 -161 50 -223q45 -55 143 -55q125 0 194 84q60 72 60 188v643h215v-1071h-215v164zM297 1284q18 121 77 184q51 55 126 55q58 0 153 -53q66 -36 97 -36q58 0 75 91l129 -12
q-19 -122 -79 -185q-53 -54 -127 -54q-66 0 -156 53q-63 36 -92 36q-63 0 -78 -91z" />
    <glyph glyph-name="Umacron" unicode="&#x16a;" horiz-adv-x="1476" 
d="M1292 563q0 -300 -165 -451q-145 -132 -398 -132q-282 0 -423 166q-122 144 -122 399v919h215v-901q0 -229 90 -324q79 -83 244 -83q198 0 280 116q72 101 72 314v878h207v-901zM485 1786h508v-156h-508v156z" />
    <glyph glyph-name="umacron" unicode="&#x16b;" horiz-adv-x="1251" 
d="M842 164q-101 -184 -320 -184q-175 0 -264 124q-78 108 -78 295v672h215v-637q0 -161 50 -223q45 -55 143 -55q125 0 194 84q60 72 60 188v643h215v-1071h-215v164zM373 1450h508v-156h-508v156z" />
    <glyph glyph-name="Ubreve" unicode="&#x16c;" horiz-adv-x="1476" 
d="M1292 563q0 -300 -165 -451q-145 -132 -398 -132q-282 0 -423 166q-122 144 -122 399v919h215v-901q0 -229 90 -324q79 -83 244 -83q198 0 280 116q72 101 72 314v878h207v-901zM574 1901q8 -165 165 -165q158 0 164 165h154q-6 -317 -318 -317q-310 0 -319 317h154z" />
    <glyph glyph-name="ubreve" unicode="&#x16d;" horiz-adv-x="1251" 
d="M842 164q-101 -184 -320 -184q-175 0 -264 124q-78 108 -78 295v672h215v-637q0 -161 50 -223q45 -55 143 -55q125 0 194 84q60 72 60 188v643h215v-1071h-215v164zM477 1573q8 -172 149 -172q73 0 108 41t40 131h153q-6 -324 -301 -324q-294 0 -303 324h154z" />
    <glyph glyph-name="Uring" unicode="&#x16e;" horiz-adv-x="1476" 
d="M1292 563q0 -300 -165 -451q-145 -132 -398 -132q-282 0 -423 166q-122 144 -122 399v919h215v-901q0 -229 90 -324q79 -83 244 -83q198 0 280 116q72 101 72 314v878h207v-901zM741 2011q97 0 163 -71q56 -61 56 -144q0 -97 -73 -160q-62 -55 -148 -55q-99 0 -164 70
q-57 61 -57 145q0 97 73 160q63 55 150 55zM739 1911q-44 0 -75 -32t-31 -79t30 -78.5t76 -31.5q47 0 76.5 31t29.5 79t-30 79.5t-76 31.5z" />
    <glyph glyph-name="uring" unicode="&#x16f;" horiz-adv-x="1251" 
d="M842 164q-101 -184 -320 -184q-175 0 -264 124q-78 108 -78 295v672h215v-637q0 -161 50 -223q45 -55 143 -55q125 0 194 84q60 72 60 188v643h215v-1071h-215v164zM628 1640q97 0 163 -71q56 -61 56 -144q0 -97 -73 -160q-62 -55 -148 -55q-99 0 -164 70q-57 61 -57 145
q0 97 73 160q63 55 150 55zM626 1540q-44 0 -75 -32t-31 -78q0 -48 30 -79.5t76 -31.5q47 0 76.5 31t29.5 80q0 47 -30 78.5t-76 31.5z" />
    <glyph glyph-name="Uhungarumlaut" unicode="&#x170;" horiz-adv-x="1476" 
d="M1292 563q0 -300 -165 -451q-145 -132 -398 -132q-282 0 -423 166q-122 144 -122 399v919h215v-901q0 -229 90 -324q79 -83 244 -83q198 0 280 116q72 101 72 314v878h207v-901zM573 1935h231l-164 -340h-141zM896 1935h232l-164 -340h-139z" />
    <glyph glyph-name="uhungarumlaut" unicode="&#x171;" horiz-adv-x="1251" 
d="M842 164q-101 -184 -320 -184q-175 0 -264 124q-78 108 -78 295v672h215v-637q0 -161 50 -223q45 -55 143 -55q125 0 194 84q60 72 60 188v643h215v-1071h-215v164zM451 1593h231l-162 -360h-141zM774 1593h232l-162 -360h-139z" />
    <glyph glyph-name="Uogonek" unicode="&#x172;" horiz-adv-x="1476" 
d="M784 -432q-102 0 -158 52q-49 46 -49 122q0 126 148 237q-281 0 -420 166q-121 144 -121 399v920h215v-901q0 -229 90 -324q79 -84 244 -84q198 0 280 116q72 102 72 314v879h207v-901q0 -483 -414 -569q-156 -132 -156 -241q0 -76 76 -76q55 0 105 48l73 -84
q-40 -40 -83 -56.5t-109 -16.5z" />
    <glyph glyph-name="uogonek" unicode="&#x173;" horiz-adv-x="1247" 
d="M842 164q-101 -184 -320 -184q-175 0 -264 124q-78 108 -78 295v672h215v-637q0 -161 50 -223q45 -55 143 -55q125 0 194 84q60 72 60 188v643h215v-1048q-92 -64 -145 -136t-53 -134q0 -76 78 -76q55 0 104 49l75 -84q-42 -41 -85.5 -57.5t-110.5 -16.5q-103 0 -159 52
q-48 46 -48 120q0 140 176 260h-47v164z" />
    <glyph glyph-name="Wcircumflex" unicode="&#x174;" horiz-adv-x="1978" 
d="M57 1464h227l281 -1126l342 1126h176l336 -1132l295 1132h207l-391 -1464h-199l-338 1124l-348 -1124h-199zM901 1935h178l205 -338h-146l-151 174l-152 -174h-143z" />
    <glyph glyph-name="wcircumflex" unicode="&#x175;" horiz-adv-x="1711" 
d="M68 1071h227l215 -811l252 811h211l234 -811l223 811h213l-326 -1071h-225l-229 801l-252 -801h-226zM787 1573h178l205 -338h-146l-151 174l-152 -174h-143z" />
    <glyph glyph-name="Ycircumflex" unicode="&#x176;" horiz-adv-x="1169" 
d="M489 610l-512 854h244l381 -670l368 670h221l-487 -852v-612h-215v610zM514 1935h178l205 -338h-146l-151 174l-152 -174h-143z" />
    <glyph glyph-name="ycircumflex" unicode="&#x177;" horiz-adv-x="1066" 
d="M590 -135q-91 -252 -315 -252q-122 0 -218 65l70 150q63 -43 133 -43q115 0 154 129l31 98l-406 1059h229l281 -772l262 772h215zM457 1573h178l205 -338h-146l-151 174l-152 -174h-143z" />
    <glyph glyph-name="Ydieresis" unicode="&#x178;" horiz-adv-x="1169" 
d="M489 610l-512 854h244l381 -670l368 670h221l-487 -852v-612h-215v610zM405 1599q-54 0 -93.5 39.5t-39.5 93.5t39.5 93.5t93.5 39.5t93.5 -39.5t39.5 -93.5t-39.5 -93.5t-93.5 -39.5zM794 1599q-54 0 -93.5 39.5t-39.5 93.5t39.5 93.5t93.5 39.5q52 0 92.5 -40.5
t40.5 -92.5q0 -54 -39.5 -93.5t-93.5 -39.5z" />
    <glyph glyph-name="Zacute" unicode="&#x179;" horiz-adv-x="1262" 
d="M118 188l760 1100h-719v176h954v-203l-747 -1085h760v-176h-1008v188zM684 1935h262l-224 -340h-147z" />
    <glyph glyph-name="zacute" unicode="&#x17a;" horiz-adv-x="1039" 
d="M94 168l590 731h-563v172h802v-195l-573 -704h590v-172h-846v168zM545 1593h262l-224 -360h-147z" />
    <glyph glyph-name="Zdotaccent" unicode="&#x17b;" horiz-adv-x="1262" 
d="M118 188l760 1100h-719v176h954v-203l-747 -1085h760v-176h-1008v188zM657 1853q52 0 90.5 -38.5t38.5 -90.5t-38.5 -90.5t-90.5 -38.5t-90.5 38.5t-38.5 90.5t38.5 90.5t90.5 38.5z" />
    <glyph glyph-name="zdotaccent" unicode="&#x17c;" horiz-adv-x="1039" 
d="M94 168l590 731h-563v172h802v-195l-573 -704h590v-172h-846v168zM520 1526q52 0 90.5 -38.5t38.5 -90.5t-38.5 -90.5t-90.5 -38.5t-90.5 38.5t-38.5 90.5t38.5 90.5t90.5 38.5z" />
    <glyph glyph-name="Zcaron" unicode="&#x17d;" horiz-adv-x="1262" 
d="M118 188l760 1100h-719v176h954v-203l-747 -1085h760v-176h-1008v188zM360 1935h147l152 -182l152 182h143l-211 -336h-172z" />
    <glyph glyph-name="zcaron" unicode="&#x17e;" horiz-adv-x="1039" 
d="M94 168l590 731h-563v172h802v-195l-573 -704h590v-172h-846v168zM223 1573h147l152 -182l152 182h141l-211 -338h-168z" />
    <glyph glyph-name="uni018F" unicode="&#x18f;" horiz-adv-x="1659" 
d="M834 -20q-194 0 -354 98q-156 96 -246 264q-92 172 -92 381q0 15 2 66q2 22 2 34h1143q-30 246 -169 373q-123 112 -312 112q-135 0 -237 -68q-79 -52 -150 -155l-187 103q211 296 576 296q205 0 368 -98q159 -95 248 -264q90 -172 90 -387q0 -354 -217 -568
q-188 -187 -465 -187zM834 156q212 0 336 152q108 132 121 349h-922q20 -246 161 -382q123 -119 304 -119z" />
    <glyph glyph-name="florin" unicode="&#x192;" horiz-adv-x="890" 
d="M113 831h193l35 303q40 348 344 348q112 0 205 -49l-45 -158q-75 35 -135 35q-138 0 -156 -166l-35 -313h248v-172h-267l-77 -715q-34 -317 -320 -317q-98 0 -170 39l45 155q50 -22 98 -22q61 0 92.5 32t38.5 103l80 725h-174v172z" />
    <glyph glyph-name="Ohorn" unicode="&#x1a0;" horiz-adv-x="1659" 
d="M1232 1356q138 25 141 129q-119 6 -119 110q0 48 33.5 79.5t85.5 31.5q60 0 95.5 -45t35.5 -121q0 -108 -53 -185q-45 -66 -121 -92q186 -211 186 -528q0 -353 -217 -568q-188 -187 -465 -187q-196 0 -356 99q-156 96 -245 266q-91 174 -91 388t90 388q88 169 244 265
q159 98 356 98q226 0 400 -128zM824 1308q-221 0 -348 -180q-111 -156 -111 -397q0 -278 145 -437q126 -138 322 -138q230 0 353 172q108 150 108 399q0 283 -145 442q-125 139 -324 139z" />
    <glyph glyph-name="ohorn" unicode="&#x1a1;" horiz-adv-x="1254" 
d="M938 991q119 31 125 121q-118 6 -118 111q0 48 33.5 79t84.5 31q60 0 95.5 -44.5t35.5 -119.5q0 -103 -52 -174q-45 -61 -120 -84q125 -155 125 -372q0 -262 -165 -421q-144 -138 -355 -138q-242 0 -390 176q-128 152 -128 376q0 262 165 421q144 138 355 138
q178 0 309 -100zM623 919q-143 0 -222 -117q-69 -102 -69 -267q0 -191 88 -294q78 -89 205 -89q149 0 229 116q70 101 70 267q0 193 -91 295q-78 89 -210 89z" />
    <glyph glyph-name="Uhorn" unicode="&#x1af;" horiz-adv-x="1468" 
d="M1292 1384q91 22 94 101q-119 6 -119 110q0 49 33.5 80t85.5 31q60 0 95.5 -44.5t35.5 -119.5q0 -115 -68 -185q-58 -60 -157 -73v-721q0 -300 -165 -451q-145 -132 -398 -132q-282 0 -423 166q-122 144 -122 399v919h215v-901q0 -229 90 -324q79 -83 244 -83
q198 0 280 116q72 101 72 314v878h207v-80z" />
    <glyph glyph-name="uhorn" unicode="&#x1b0;" horiz-adv-x="1240" 
d="M1057 1016q77 24 80 96q-119 6 -119 111q0 48 33.5 79t85.5 31q60 0 95.5 -44.5t35.5 -119.5q0 -110 -65 -180q-56 -61 -146 -76v-913h-215v164q-101 -184 -320 -184q-175 0 -264 124q-78 108 -78 295v672h215v-637q0 -161 50 -223q45 -55 143 -55q125 0 194 84
q60 72 60 188v643h215v-55z" />
    <glyph glyph-name="uni01CD" unicode="&#x1cd;" 
d="M240 0h-209l530 1464h230l522 -1464h-227l-117 342h-612zM910 514l-246 721l-248 -721h494zM377 1935h147l152 -182l152 182h143l-211 -336h-172z" />
    <glyph glyph-name="uni01CE" unicode="&#x1ce;" horiz-adv-x="1146" 
d="M1080 -4q-55 -6 -76 -6q-182 0 -236 157q-129 -167 -327 -167q-161 0 -255 95q-81 82 -81 208q0 236 276 317q135 38 373 43v55q0 123 -55 175q-48 46 -146 46q-155 0 -305 -127l-111 140q97 84 198.5 121.5t232.5 37.5q208 0 311 -113q90 -100 90 -276v-450
q0 -100 86 -100q17 0 25 2v-158zM754 498q-436 -3 -436 -203q0 -71 45.5 -110t128.5 -39q123 0 198 69q64 59 64 147v136zM277 1573h147l152 -182l152 182h141l-211 -338h-168z" />
    <glyph glyph-name="uni01CF" unicode="&#x1cf;" horiz-adv-x="644" 
d="M26 1935h147l152 -182l152 182h143l-211 -336h-172zM214 1464h215v-1464h-215v1464z" />
    <glyph glyph-name="uni01D0" unicode="&#x1d0;" horiz-adv-x="584" 
d="M-4 1573h147l152 -182l152 182h141l-211 -338h-168zM184 1071h215v-1071h-215v1071z" />
    <glyph glyph-name="uni01D1" unicode="&#x1d1;" horiz-adv-x="1659" 
d="M533 1935h148l151 -182l152 182h143l-211 -336h-172zM836 1484q193 0 350 -99q153 -96 241 -265q89 -173 89 -385q0 -353 -217 -568q-188 -187 -465 -187q-196 0 -356 99q-156 96 -245 266q-91 174 -91 388q0 215 90 388q89 170 245 265q160 98 359 98zM824 1308
q-221 0 -348 -180q-111 -156 -111 -397q0 -278 145 -437q126 -138 322 -138q230 0 353 172q108 150 108 399q0 283 -145 442q-125 139 -324 139z" />
    <glyph glyph-name="uni01D2" unicode="&#x1d2;" horiz-adv-x="1257" 
d="M633 1091q239 0 386 -177q128 -153 128 -375q0 -262 -165 -421q-144 -138 -355 -138q-242 0 -390 176q-128 152 -128 376q0 263 166 422q144 137 358 137zM623 919q-143 0 -222 -117q-69 -102 -69 -267q0 -191 88 -294q78 -89 205 -89q149 0 229 116q70 101 70 267
q0 193 -91 295q-78 89 -210 89zM332 1573h147l152 -182l152 182h141l-211 -338h-168z" />
    <glyph glyph-name="uni01D3" unicode="&#x1d3;" horiz-adv-x="1476" 
d="M1292 563q0 -300 -165 -451q-145 -132 -398 -132q-282 0 -423 166q-122 144 -122 399v919h215v-901q0 -229 90 -324q79 -83 244 -83q198 0 280 116q72 101 72 314v878h207v-901zM442 1935h147l152 -182l152 182h143l-211 -336h-172z" />
    <glyph glyph-name="uni01D4" unicode="&#x1d4;" horiz-adv-x="1251" 
d="M842 164q-101 -184 -320 -184q-175 0 -264 124q-78 108 -78 295v672h215v-637q0 -161 50 -223q45 -55 143 -55q125 0 194 84q60 72 60 188v643h215v-1071h-215v164zM330 1573h147l152 -182l152 182h141l-211 -338h-168z" />
    <glyph glyph-name="uni01DD" unicode="&#x1dd;" horiz-adv-x="1189" 
d="M576 -20q-236 0 -362 163q-109 141 -109 377v66h758q-10 105 -34 166t-73 104q-75 63 -198 63q-158 0 -263 -130l-145 133q141 169 385 169q274 0 421 -172q124 -146 124 -378q0 -266 -159 -424q-138 -137 -345 -137zM576 146q228 0 279 284h-539q18 -161 86 -227
q60 -57 174 -57z" />
    <glyph glyph-name="Gcaron" unicode="&#x1e6;" horiz-adv-x="1614" 
d="M800 -20q-312 0 -497 236q-161 205 -161 513q0 358 213 572q186 186 463 186q264 0 413 -144q82 -76 140 -204l-193 -84q-61 146 -154 205q-80 51 -204 51q-225 0 -348 -177q-107 -154 -107 -405q0 -283 137 -438q119 -135 314 -135q191 0 309 136q102 118 102 288v18
h-372v172h583v-770h-133l-39 252q-95 -152 -215 -216q-106 -56 -251 -56zM527 1935h147l152 -182l152 182h143l-211 -336h-172z" />
    <glyph glyph-name="gcaron" unicode="&#x1e7;" horiz-adv-x="1176" 
d="M1100 1089v-180h-145q53 -80 53 -174q0 -163 -135 -261q-117 -85 -291 -85q-95 0 -184 31q-54 -36 -54 -90q0 -45 32 -63.5t108 -18.5h190q116 0 182.5 -12.5t118.5 -44.5q123 -78 123 -240q0 -177 -158 -272q-137 -82 -364 -82q-239 0 -369 88q-113 76 -113 201
q0 140 185 225q-111 60 -111 174q0 116 121 192q-135 105 -135 262q0 164 132 265q114 87 282 87q123 0 235 -53zM574 937q-103 0 -161 -61q-50 -53 -50 -137q0 -99 68 -154q59 -47 153 -47q105 0 164 61q51 52 51 135q0 102 -68 156q-59 47 -157 47zM484 68q-16 0 -54 3
q-10 1 -16 1q-121 -65 -121 -157q0 -160 287 -160q315 0 315 182q0 131 -180 131h-231zM309 1573h147l152 -182l152 182h141l-211 -338h-168z" />
    <glyph glyph-name="uni01F4" unicode="&#x1f4;" horiz-adv-x="1614" 
d="M800 -20q-312 0 -497 236q-161 205 -161 513q0 358 213 572q186 186 463 186q264 0 413 -144q82 -76 140 -204l-193 -84q-61 146 -154 205q-80 51 -204 51q-225 0 -348 -177q-107 -154 -107 -405q0 -283 137 -438q119 -135 314 -135q191 0 309 136q102 118 102 288v18
h-372v172h583v-770h-133l-39 252q-95 -152 -215 -216q-106 -56 -251 -56zM851 1935h262l-224 -340h-147z" />
    <glyph glyph-name="uni01F5" unicode="&#x1f5;" horiz-adv-x="1176" 
d="M1100 1089v-180h-145q53 -80 53 -174q0 -163 -135 -261q-117 -85 -291 -85q-95 0 -184 31q-54 -36 -54 -90q0 -45 32 -63.5t108 -18.5h190q116 0 182.5 -12.5t118.5 -44.5q123 -78 123 -240q0 -177 -158 -272q-137 -82 -364 -82q-239 0 -369 88q-113 76 -113 201
q0 140 185 225q-111 60 -111 174q0 116 121 192q-135 105 -135 262q0 164 132 265q114 87 282 87q123 0 235 -53zM574 937q-103 0 -161 -61q-50 -53 -50 -137q0 -99 68 -154q59 -47 153 -47q105 0 164 61q51 52 51 135q0 102 -68 156q-59 47 -157 47zM484 68q-16 0 -54 3
q-10 1 -16 1q-121 -65 -121 -157q0 -160 287 -160q315 0 315 182q0 131 -180 131h-231zM631 1593h262l-224 -360h-147z" />
    <glyph glyph-name="Aringacute" unicode="&#x1fa;" 
d="M791 1464l522 -1464h-227l-117 342h-612l-117 -342h-209l530 1464q-112 65 -112 189q0 70 42 126.5t111 78.5l84 264h263l-181 -274q58 -28 91.5 -80.5t33.5 -114.5q0 -59 -29.5 -109.5t-80.5 -79.5h8zM668 1759q-44 0 -74 -31t-30 -76q0 -47 30 -77.5t76 -30.5t77 30.5
t31 75.5q0 48 -30.5 78.5t-79.5 30.5zM416 514h494l-246 721z" />
    <glyph glyph-name="aringacute" unicode="&#x1fb;" horiz-adv-x="1146" 
d="M572 1208q-99 0 -164 70q-57 61 -57 145q0 69 39 124t104 77l96 301h263l-199 -301q63 -25 101 -80t38 -121q0 -97 -73 -160q-62 -55 -148 -55zM572 1538q-44 0 -75 -32t-31 -79t30 -78.5t76 -31.5t76 31t30 79t-30 79.5t-76 31.5zM1055 152q17 0 25 2v-158
q-55 -6 -76 -6q-182 0 -236 157q-129 -167 -327 -167q-161 0 -255 95q-81 82 -81 208q0 236 276 317q135 38 373 43v55q0 123 -55 175q-48 46 -146 46q-155 0 -305 -127l-111 140q97 84 198.5 121.5t232.5 37.5q208 0 311 -113q90 -100 90 -276v-450q0 -100 86 -100z
M754 362v136q-436 -3 -436 -203q0 -71 45.5 -110t128.5 -39q123 0 198 69q64 59 64 147z" />
    <glyph glyph-name="AEacute" unicode="&#x1fc;" horiz-adv-x="2060" 
d="M254 0h-219l862 1464h1014v-176h-715v-463h574v-172h-574v-477h752v-176h-967v326h-541zM981 498v768l-440 -768h440zM1055 1935h262l-224 -340h-147z" />
    <glyph glyph-name="aeacute" unicode="&#x1fd;" horiz-adv-x="1814" 
d="M445 -20q-164 0 -258 94q-82 82 -82 209q0 234 276 315q135 38 373 43v57q0 123 -55 175q-48 46 -146 46q-155 0 -305 -126l-111 139q97 84 198 121.5t231 37.5q125 0 205.5 -39.5t127.5 -125.5q133 165 349 165q227 0 352 -163q109 -142 109 -371v-72h-740
q9 -106 33.5 -167.5t73.5 -102.5q72 -63 192 -63q97 0 160 33.5t113 111.5l152 -125q-142 -192 -427 -192q-271 0 -416 210q-75 -109 -172.5 -159.5t-232.5 -50.5zM977 641h519q-18 160 -83 226q-57 58 -163 58q-221 0 -273 -284zM492 146q123 0 198 69q64 59 64 147v133
q-436 -3 -436 -200q0 -71 45.5 -110t128.5 -39zM933 1593h262l-224 -360h-147z" />
    <glyph glyph-name="Oslashacute" unicode="&#x1fe;" horiz-adv-x="1647" 
d="M283 254q-147 209 -147 479q0 214 90 387q88 170 244 266q159 98 356 98q252 0 441 -163l131 143h198l-231 -252q145 -201 145 -477q0 -353 -217 -568q-188 -187 -465 -187q-254 0 -442 163l-131 -143h-205zM1137 1181q-127 131 -313 131q-227 0 -356 -179
q-113 -156 -113 -400q0 -183 68 -328zM511 281q132 -129 315 -129q232 0 356 173q109 151 109 400q0 191 -67 331zM851 1935h262l-224 -340h-147z" />
    <glyph glyph-name="oslashacute" unicode="&#x1ff;" horiz-adv-x="1235" 
d="M209 186q-98 152 -98 351q0 271 159 427q139 136 353 136q183 0 321 -109l72 80h186l-166 -182q95 -153 95 -349q0 -272 -158 -429q-137 -136 -350 -136q-182 0 -320 109l-76 -84h-188zM819 854q-79 74 -194 74q-157 0 -234 -113q-67 -98 -67 -274q0 -110 26 -199z
M424 217q79 -76 195 -76q155 0 232 115q67 101 67 280q0 96 -25 197zM644 1593h262l-224 -360h-147z" />
    <glyph glyph-name="Scommaaccent" unicode="&#x218;" horiz-adv-x="1345" 
d="M673 -20q-158 0 -284 49q-113 44 -184 121q-60 66 -104 178l193 84q53 -149 150 -209q84 -51 224 -51q160 0 246 75q76 66 76 173q0 106 -72 159q-69 53 -285 107q-262 58 -360 139q-119 97 -119 270q0 200 146 311q128 96 333 96q197 0 318 -67q111 -61 190 -193
l-178 -84q-58 95 -131 133.5t-193 38.5q-137 0 -209 -65q-63 -56 -63 -152q0 -97 78 -147q69 -43 244 -82q271 -60 375 -143q139 -112 139 -305q0 -217 -161 -334q-140 -102 -369 -102zM547 -416q114 16 117 105q-119 9 -119 110q0 49 33.5 80t85.5 31q60 0 95.5 -44
t35.5 -118q0 -123 -73 -191q-63 -60 -175 -71v98z" />
    <glyph glyph-name="scommaaccent" unicode="&#x219;" horiz-adv-x="1063" 
d="M508 -20q-283 0 -434 192l141 129q63 -82 131 -115.5t173 -33.5q227 0 227 145q0 70 -58 103q-52 28 -204 63q-194 43 -274 126q-70 73 -70 194q0 152 125 236q107 73 277 73q236 0 357 -136l-133 -129q-50 51 -106 72t-141 21q-82 0 -132 -36q-46 -32 -46 -85
q0 -65 48 -96.5t189 -61.5q165 -34 240 -81q133 -87 133 -250q0 -164 -132 -252q-116 -78 -311 -78zM402 -416q114 16 117 105q-119 9 -119 110q0 49 33.5 80t85.5 31q60 0 95.5 -44t35.5 -118q0 -123 -73 -191q-63 -60 -175 -71v98z" />
    <glyph glyph-name="uni021A" unicode="&#x21a;" horiz-adv-x="1187" 
d="M486 1288h-442v176h1100v-176h-443v-1288h-215v1288zM474 -416q114 16 117 105q-119 9 -119 110q0 49 33.5 80t85.5 31q60 0 95.5 -44t35.5 -118q0 -123 -73 -191q-63 -60 -175 -71v98z" />
    <glyph glyph-name="uni021B" unicode="&#x21b;" horiz-adv-x="813" 
d="M72 1071h160v260l215 62v-322h254v-172h-254v-600q0 -143 111 -143q64 0 135 47l67 -144q-103 -79 -229 -79q-149 0 -229 87q-70 75 -70 199v633h-160v172zM338 -416q114 16 117 105q-119 9 -119 110q0 49 33.5 80t85.5 31q60 0 95.5 -44t35.5 -118q0 -123 -73 -191
q-63 -60 -175 -71v98z" />
    <glyph glyph-name="uni0226" unicode="&#x226;" 
d="M240 0h-209l530 1464h230l522 -1464h-227l-117 342h-612zM910 514l-246 721l-248 -721h494zM674 1853q52 0 90.5 -38.5t38.5 -90.5t-38.5 -90.5t-90.5 -38.5t-90.5 38.5t-38.5 90.5t38.5 90.5t90.5 38.5z" />
    <glyph glyph-name="uni0227" unicode="&#x227;" horiz-adv-x="1146" 
d="M1080 -4q-55 -6 -76 -6q-182 0 -236 157q-129 -167 -327 -167q-161 0 -255 95q-81 82 -81 208q0 236 276 317q135 38 373 43v55q0 123 -55 175q-48 46 -146 46q-155 0 -305 -127l-111 140q97 84 198.5 121.5t232.5 37.5q208 0 311 -113q90 -100 90 -276v-450
q0 -100 86 -100q17 0 25 2v-158zM754 498q-436 -3 -436 -203q0 -71 45.5 -110t128.5 -39q123 0 198 69q64 59 64 147v136zM574 1526q52 0 90.5 -38.5t38.5 -90.5t-38.5 -90.5t-90.5 -38.5t-90.5 38.5t-38.5 90.5t38.5 90.5t90.5 38.5z" />
    <glyph glyph-name="uni0237" unicode="&#x237;" horiz-adv-x="598" 
d="M402 -76q0 -163 -87 -243q-75 -70 -210 -70q-89 0 -158 39l43 153q46 -20 80 -20q117 0 117 127v1161h215v-1147z" />
    <glyph glyph-name="uni0259" unicode="&#x259;" horiz-adv-x="1189" 
d="M576 -20q-236 0 -362 163q-109 141 -109 377v66h758q-10 105 -34 166t-73 104q-75 63 -198 63q-158 0 -263 -130l-145 133q141 169 385 169q274 0 421 -172q124 -146 124 -378q0 -266 -159 -424q-138 -137 -345 -137zM576 146q228 0 279 284h-539q18 -161 86 -227
q60 -57 174 -57z" />
    <glyph glyph-name="afii57929" unicode="&#x2bc;" horiz-adv-x="623" 
d="M176 1075q127 38 133 199q-153 6 -153 141q0 67 39.5 107.5t103.5 40.5q79 0 122.5 -57t43.5 -160q0 -178 -82 -279q-40 -48 -85.5 -71t-121.5 -33v112z" />
    <glyph glyph-name="circumflex" unicode="&#x2c6;" horiz-adv-x="1054" 
d="M441 1573h178l205 -338h-146l-151 174l-152 -174h-143z" />
    <glyph glyph-name="caron" unicode="&#x2c7;" horiz-adv-x="1054" 
d="M232 1573h147l152 -182l152 182h141l-211 -338h-168z" />
    <glyph glyph-name="uni02C9" unicode="&#x2c9;" horiz-adv-x="1251" 
d="M372 1450h508v-156h-508v156z" />
    <glyph glyph-name="breve" unicode="&#x2d8;" horiz-adv-x="1053" 
d="M378 1573q8 -172 149 -172q73 0 108 41t40 131h153q-6 -324 -301 -324q-294 0 -303 324h154z" />
    <glyph glyph-name="dotaccent" unicode="&#x2d9;" horiz-adv-x="1078" 
d="M539 1526q52 0 90.5 -38.5t38.5 -90.5t-38.5 -90.5t-90.5 -38.5t-90.5 38.5t-38.5 90.5t38.5 90.5t90.5 38.5z" />
    <glyph glyph-name="ring" unicode="&#x2da;" horiz-adv-x="1065" 
d="M534 1640q97 0 163 -71q56 -61 56 -144q0 -97 -73 -160q-62 -55 -148 -55q-99 0 -164 70q-57 61 -57 145q0 97 73 160q63 55 150 55zM532 1540q-44 0 -75 -32t-31 -78q0 -48 30 -79.5t76 -31.5q47 0 76.5 31t29.5 80q0 47 -30 78.5t-76 31.5z" />
    <glyph glyph-name="ogonek" unicode="&#x2db;" horiz-adv-x="1068" 
d="M712 -358q-42 -42 -84.5 -58t-107.5 -16q-104 0 -160 53q-49 45 -49 121q0 142 188 264l123 -6q-166 -138 -166 -247q0 -76 76 -76q55 0 105 49z" />
    <glyph glyph-name="tilde" unicode="&#x2dc;" horiz-adv-x="1050" 
d="M197 1284q18 121 77 184q51 55 126 55q58 0 153 -53q66 -36 97 -36q58 0 75 91l129 -12q-19 -122 -79 -185q-53 -54 -127 -54q-66 0 -156 53q-63 36 -92 36q-63 0 -78 -91z" />
    <glyph glyph-name="hungarumlaut" unicode="&#x2dd;" horiz-adv-x="1052" 
d="M355 1593h231l-162 -360h-141zM678 1593h232l-162 -360h-139z" />
    <glyph glyph-name="uni0309" unicode="&#x309;" horiz-adv-x="1066" 
d="M596 -121q32 8 49 8q67 0 109.5 -44.5t42.5 -113.5q0 -87 -64 -133q-55 -41 -147 -41q-124 0 -207 95l96 65q36 -51 107 -51q82 0 82 69q0 66 -72 66q-41 0 -61 -27l-82 52l129 176h108z" />
    <glyph glyph-name="uni037E" unicode="&#x37e;" horiz-adv-x="638" 
d="M322 889q60 0 103.5 -44t43.5 -106q0 -65 -50 -110q-42 -39 -99 -39q-66 0 -111 50q-39 42 -39 99q0 63 44 106.5t108 43.5zM184 -203q127 38 133 199q-153 6 -153 141q0 67 39.5 107.5t103.5 40.5q79 0 122.5 -57t43.5 -160q0 -178 -82 -279q-40 -48 -85.5 -71
t-121.5 -33v112z" />
    <glyph glyph-name="tonos" unicode="&#x384;" horiz-adv-x="1076" 
d="M503 1604h231l-108 -360h-166z" />
    <glyph glyph-name="dieresistonos" unicode="&#x385;" horiz-adv-x="1038" 
d="M487 1583h195l-125 -360h-113zM252 1528q49 0 86 -39t37 -90t-37 -89t-86 -38q-50 0 -86.5 38t-36.5 91q0 52 36.5 89.5t86.5 37.5zM832 1526q49 0 86 -39t37 -90t-37 -89t-86 -38q-50 0 -86.5 38t-36.5 91q0 52 36.5 89.5t86.5 37.5z" />
    <glyph glyph-name="Alphatonos" unicode="&#x386;" horiz-adv-x="1343" 
d="M238 0h-209l530 1464h229l523 -1464h-228l-116 342h-613zM0 1462h231l-32 -426h-166zM907 514l-245 721l-248 -721h493z" />
    <glyph glyph-name="uni0387" unicode="&#x387;" horiz-adv-x="639" 
d="M323 819q61 0 104 -44t43 -105q0 -62 -43 -106t-104 -44q-64 0 -108 43.5t-44 106.5q0 62 44 105.5t108 43.5z" />
    <glyph glyph-name="Epsilontonos" unicode="&#x388;" horiz-adv-x="1567" 
d="M456 1464h962v-176h-747v-463h606v-172h-606v-477h784v-176h-999v1464zM44 1462h231l-32 -426h-166z" />
    <glyph glyph-name="Etatonos" unicode="&#x389;" horiz-adv-x="1777" 
d="M456 1464h215v-645h690v645h215v-1464h-215v643h-690v-643h-215v1464zM44 1462h231l-32 -426h-166z" />
    <glyph glyph-name="Iotatonos" unicode="&#x38a;" horiz-adv-x="882" 
d="M439 1464h215v-1464h-215v1464zM44 1462h231l-32 -426h-166z" />
    <glyph glyph-name="Omicrontonos" unicode="&#x38c;" horiz-adv-x="1849" 
d="M1027 1484q193 0 350 -99q153 -96 241 -265q89 -173 89 -385q0 -353 -217 -568q-188 -187 -465 -187q-196 0 -356 99q-156 96 -245 266q-91 174 -91 388q0 215 90 388q89 170 245 265q160 98 359 98zM44 1462h231l-32 -426h-166zM1015 1308q-221 0 -348 -180
q-111 -156 -111 -398q0 -277 145 -437q126 -138 322 -138q230 0 354 172q107 151 107 399q0 283 -145 443q-125 139 -324 139z" />
    <glyph glyph-name="Upsilontonos" unicode="&#x38e;" horiz-adv-x="1532" 
d="M853 610l-512 854h244l381 -670l368 670h221l-487 -852v-612h-215v610zM44 1462h231l-32 -426h-166z" />
    <glyph glyph-name="Omegatonos" unicode="&#x38f;" horiz-adv-x="1896" 
d="M1443 170h352v-170h-612v143q164 102 255 256q91 155 91 340q0 284 -143 436q-125 133 -334 133q-241 0 -368 -173q-110 -149 -110 -396q0 -210 116 -380q89 -128 231 -216v-143h-613v170h353q-310 213 -310 579q0 358 217 560q189 175 484 175q339 0 532 -226
q168 -198 168 -509q0 -366 -309 -579zM77 1036l-33 426h231l-32 -426h-166z" />
    <glyph glyph-name="iotadieresistonos" unicode="&#x390;" horiz-adv-x="620" 
d="M407 1071v-772q0 -78 21 -106.5t79 -28.5q23 0 47 4v-168q-63 -8 -106 -8q-145 0 -204 83q-52 73 -52 228v768h215zM267 1583h195l-125 -360h-113zM32 1528q49 0 86 -39t37 -90t-37 -89t-86 -38q-50 0 -86.5 38t-36.5 91q0 52 36.5 89.5t86.5 37.5zM612 1526q49 0 86 -39
t37 -90t-37 -89t-86 -38q-50 0 -86.5 38t-36.5 91q0 52 36.5 89.5t86.5 37.5z" />
    <glyph glyph-name="Alpha" unicode="&#x391;" 
d="M240 0h-209l530 1464h230l522 -1464h-227l-117 342h-612zM910 514l-246 721l-248 -721h494z" />
    <glyph glyph-name="Beta" unicode="&#x392;" horiz-adv-x="1439" 
d="M202 1464h586q249 0 370 -112q105 -97 105 -275q0 -111 -46.5 -183t-154.5 -128q153 -49 219 -142q58 -82 58 -208q0 -212 -150 -321q-131 -95 -356 -95h-631v1464zM818 840q232 0 232 231q0 121 -72 174q-64 47 -190 47h-371v-452h401zM845 172q145 0 217 73
q64 64 64 177q0 246 -297 246h-412v-496h428z" />
    <glyph glyph-name="Gamma" unicode="&#x393;" horiz-adv-x="1124" 
d="M202 1464h874v-176h-659v-1288h-215v1464z" />
    <glyph glyph-name="uni0394" unicode="&#x394;" horiz-adv-x="1389" 
d="M574 1464h246l549 -1464h-1352zM1084 172l-399 1083l-402 -1083h801z" />
    <glyph glyph-name="Epsilon" unicode="&#x395;" horiz-adv-x="1313" 
d="M202 1464h963v-176h-748v-463h606v-172h-606v-477h784v-176h-999v1464z" />
    <glyph glyph-name="Zeta" unicode="&#x396;" horiz-adv-x="1262" 
d="M118 188l760 1100h-719v176h954v-203l-747 -1085h760v-176h-1008v188z" />
    <glyph glyph-name="Eta" unicode="&#x397;" horiz-adv-x="1523" 
d="M202 1464h215v-645h690v645h215v-1464h-215v643h-690v-643h-215v1464z" />
    <glyph glyph-name="Theta" unicode="&#x398;" horiz-adv-x="1659" 
d="M838 1484q192 0 349 -99q153 -96 240 -265q89 -173 89 -385q0 -353 -217 -568q-188 -187 -465 -187q-196 0 -356 99q-156 96 -245 266q-91 174 -91 388q0 215 90 388q89 170 246 265q160 98 360 98zM824 1308q-221 0 -348 -180q-111 -156 -111 -397q0 -278 145 -437
q126 -138 322 -138q230 0 353 172q108 150 108 399q0 283 -145 442q-125 139 -324 139zM527 823h602v-166h-602v166z" />
    <glyph glyph-name="Iota" unicode="&#x399;" horiz-adv-x="671" 
d="M228 1464h215v-1464h-215v1464z" />
    <glyph glyph-name="Kappa" unicode="&#x39a;" horiz-adv-x="1367" 
d="M202 1464h215v-710l606 710h246l-528 -612l557 -852h-242l-457 696l-182 -211v-485h-215v1464z" />
    <glyph glyph-name="Lambda" unicode="&#x39b;" horiz-adv-x="1299" 
d="M557 1464h193l510 -1464h-224l-395 1181l-397 -1181h-205z" />
    <glyph glyph-name="Mu" unicode="&#x39c;" horiz-adv-x="1876" 
d="M532 1464l412 -1181l405 1181h326v-1464h-215v1245l-430 -1245h-185l-440 1245v-1245h-203v1464h330z" />
    <glyph glyph-name="Nu" unicode="&#x39d;" horiz-adv-x="1523" 
d="M202 1464h275l642 -1198v1198h203v-1464h-279l-638 1188v-1188h-203v1464z" />
    <glyph glyph-name="Xi" unicode="&#x39e;" horiz-adv-x="1234" 
d="M118 1464h997v-176h-997v176zM224 827h785v-172h-785v172zM118 176h997v-176h-997v176z" />
    <glyph glyph-name="Omicron" unicode="&#x39f;" horiz-adv-x="1659" 
d="M836 1484q193 0 350 -99q153 -96 241 -265q89 -173 89 -385q0 -353 -217 -568q-188 -187 -465 -187q-196 0 -356 99q-156 96 -245 266q-91 174 -91 388q0 215 90 388q89 170 245 265q160 98 359 98zM824 1308q-221 0 -348 -180q-111 -156 -111 -397q0 -278 145 -437
q126 -138 322 -138q230 0 353 172q108 150 108 399q0 283 -145 442q-125 139 -324 139z" />
    <glyph glyph-name="Pi" unicode="&#x3a0;" horiz-adv-x="1467" 
d="M193 1288h-123v176h1327v-176h-125v-1288h-215v1288h-649v-1288h-215v1288z" />
    <glyph glyph-name="Rho" unicode="&#x3a1;" horiz-adv-x="1378" 
d="M202 1464h571q252 0 380 -131q112 -114 112 -311q0 -218 -145 -331q-126 -99 -343 -99h-360v-592h-215v1464zM777 764q143 0 214 78q61 68 61 190q0 260 -275 260h-360v-528h360z" />
    <glyph glyph-name="Sigma" unicode="&#x3a3;" horiz-adv-x="1266" 
d="M118 188l428 555l-395 520v201h987v-176h-762l408 -537l-442 -575h853v-176h-1077v188z" />
    <glyph glyph-name="Tau" unicode="&#x3a4;" horiz-adv-x="1187" 
d="M486 1288h-442v176h1100v-176h-443v-1288h-215v1288z" />
    <glyph glyph-name="Upsilon" unicode="&#x3a5;" horiz-adv-x="1169" 
d="M489 610l-512 854h244l381 -670l368 670h221l-487 -852v-612h-215v610z" />
    <glyph glyph-name="Phi" unicode="&#x3a6;" horiz-adv-x="1802" 
d="M797 96q-316 32 -497 227q-158 170 -158 410q0 274 204 453q177 155 451 182v141h207v-141q315 -31 497 -227q158 -169 158 -408q0 -276 -204 -454q-177 -156 -451 -183v-141h-207v141zM797 1202q-224 -30 -335 -165q-97 -118 -97 -306q0 -213 126 -336
q110 -107 306 -133v940zM1004 262q224 30 335 165q97 118 97 306q0 213 -126 336q-110 107 -306 133v-940z" />
    <glyph glyph-name="Chi" unicode="&#x3a7;" horiz-adv-x="1330" 
d="M542 751l-452 713h252l338 -543l336 543h227l-451 -708l482 -756h-250l-369 590l-371 -590h-229z" />
    <glyph glyph-name="Psi" unicode="&#x3a8;" horiz-adv-x="1760" 
d="M1630 927q0 -151 -22.5 -242.5t-77.5 -160.5q-71 -90 -173 -130t-264 -40h-106v-354h-215v354h-104q-163 0 -266 40.5t-173 131.5q-55 69 -77.5 159.5t-22.5 241.5v537h215v-565q0 -216 94 -297q82 -72 271 -72h63v934h215v-934h68q210 0 290 95q70 84 70 274v565h215
v-537z" />
    <glyph glyph-name="uni03A9" unicode="&#x3a9;" horiz-adv-x="1688" 
d="M1235 170h353v-170h-613v143q165 102 256 256q91 155 91 340q0 284 -143 436q-125 133 -335 133q-240 0 -367 -173q-110 -149 -110 -396q0 -210 116 -380q88 -128 230 -216v-143h-612v170h352q-309 213 -309 579q0 358 217 560q188 175 483 175q340 0 533 -226
q168 -198 168 -509q0 -366 -310 -579z" />
    <glyph glyph-name="Iotadieresis" unicode="&#x3aa;" horiz-adv-x="642" 
d="M125 1599q-54 0 -93.5 39.5t-39.5 93.5t39.5 93.5t93.5 39.5t93.5 -39.5t39.5 -93.5t-39.5 -93.5t-93.5 -39.5zM514 1599q-54 0 -93.5 39.5t-39.5 93.5t39.5 93.5t93.5 39.5q52 0 92.5 -40.5t40.5 -92.5q0 -54 -39.5 -93.5t-93.5 -39.5zM213 1464h215v-1464h-215v1464z
" />
    <glyph glyph-name="Upsilondieresis" unicode="&#x3ab;" horiz-adv-x="1169" 
d="M489 610l-512 854h244l381 -670l368 670h221l-487 -852v-612h-215v610zM389 1599q-54 0 -93.5 39.5t-39.5 93.5t39.5 93.5t93.5 39.5t93.5 -39.5t39.5 -93.5t-39.5 -93.5t-93.5 -39.5zM778 1599q-54 0 -93.5 39.5t-39.5 93.5t39.5 93.5t93.5 39.5q52 0 92.5 -40.5
t40.5 -92.5q0 -54 -39.5 -93.5t-93.5 -39.5z" />
    <glyph glyph-name="alphatonos" unicode="&#x3ac;" horiz-adv-x="1269" 
d="M861 0v172q-112 -192 -332 -192q-210 0 -322 166q-98 144 -98 384q0 275 131 428q114 133 297 133q211 0 324 -180v160h215v-1071h-215zM586 919q-129 0 -196 -116q-58 -101 -58 -275q0 -376 248 -376q145 0 222 114q67 99 67 264q0 196 -85 299q-73 90 -198 90z
M574 1604h231l-108 -360h-166z" />
    <glyph glyph-name="epsilontonos" unicode="&#x3ad;" horiz-adv-x="1130" 
d="M914 290l157 -98q-83 -121 -215 -170q-112 -42 -280 -42q-225 0 -347 93q-104 79 -104 205q0 92 51 163.5t146 110.5q-170 77 -170 242q0 143 121 223q114 74 313 74q307 0 461 -196l-156 -113q-101 137 -307 137q-231 0 -231 -143q0 -75 66.5 -116.5t185.5 -41.5h190
v-158h-184q-136 0 -204 -45q-61 -40 -61 -110q0 -153 266 -153q106 0 175.5 32t126.5 106zM543 1604h231l-108 -360h-166z" />
    <glyph glyph-name="etatonos" unicode="&#x3ae;" horiz-adv-x="1270" 
d="M193 1071h215v-166q98 186 322 186q180 0 272 -124q80 -108 80 -295v-1045h-215v1035q0 137 -56 197q-50 52 -149 52q-125 0 -194 -83q-60 -71 -60 -187v-641h-215v1071zM607 1604h231l-108 -360h-166z" />
    <glyph glyph-name="iotatonos" unicode="&#x3af;" horiz-adv-x="621" 
d="M412 1071v-772q0 -78 21 -106.5t79 -28.5q23 0 47 4v-168q-63 -8 -106 -8q-145 0 -204 83q-52 73 -52 228v768h215zM265 1604h231l-108 -360h-166z" />
    <glyph glyph-name="upsilondieresistonos" unicode="&#x3b0;" horiz-adv-x="1238" 
d="M399 1071v-602q0 -183 58 -254q51 -63 163 -63q126 0 175 83q44 73 44 234v602h215v-592q0 -284 -116 -398q-102 -101 -320 -101q-247 0 -346 133q-88 117 -88 366v592h215zM587 1583h195l-125 -360h-113zM352 1528q49 0 86 -39t37 -90t-37 -89t-86 -38q-50 0 -86.5 38
t-36.5 91q0 52 36.5 89.5t86.5 37.5zM932 1526q49 0 86 -39t37 -90t-37 -89t-86 -38q-50 0 -86.5 38t-36.5 91q0 52 36.5 89.5t86.5 37.5z" />
    <glyph glyph-name="alpha" unicode="&#x3b1;" horiz-adv-x="1269" 
d="M861 0v172q-112 -192 -332 -192q-210 0 -322 166q-98 144 -98 384q0 275 131 428q114 133 297 133q211 0 324 -180v160h215v-1071h-215zM586 919q-129 0 -196 -116q-58 -101 -58 -275q0 -376 248 -376q145 0 222 114q67 99 67 264q0 196 -85 299q-73 90 -198 90z" />
    <glyph glyph-name="beta" unicode="&#x3b2;" horiz-adv-x="1321" 
d="M206 1040q0 126 18.5 207t61.5 144q119 176 381 176q213 0 332 -114q104 -100 104 -259q0 -220 -217 -301q325 -98 325 -444q0 -235 -126 -360q-109 -109 -289 -109q-108 0 -189 34v172q72 -34 150 -34q231 0 231 299q0 237 -164 313q-64 31 -184 31v168q144 1 204 62
q52 53 52 161q0 215 -231 215q-154 0 -207 -113q-37 -76 -37 -241v-1420h-215v1413z" />
    <glyph glyph-name="gamma" unicode="&#x3b3;" horiz-adv-x="1053" 
d="M432 -373v373l-401 1071h231l283 -795l258 795h219l-375 -1071v-373h-215z" />
    <glyph glyph-name="delta" unicode="&#x3b4;" horiz-adv-x="1247" 
d="M1006 920q131 -138 131 -369q0 -273 -160 -432q-140 -139 -354 -139q-243 0 -388 174q-126 151 -126 377q0 179 89 309q77 114 216 178q-192 109 -192 272q0 148 126 224q101 61 257 61q249 0 417 -107l-82 -151q-169 88 -331 88q-95 0 -137.5 -26.5t-42.5 -86.5
q0 -55 42 -88t177 -84q253 -93 358 -200zM625 152q143 0 221 117q68 103 68 270q0 186 -89 290q-77 91 -200 91q-148 0 -225 -117q-68 -102 -68 -272q0 -187 89 -290q78 -89 204 -89z" />
    <glyph glyph-name="epsilon" unicode="&#x3b5;" horiz-adv-x="1130" 
d="M914 290l157 -98q-83 -121 -215 -170q-112 -42 -280 -42q-225 0 -347 93q-104 79 -104 205q0 92 51 163.5t146 110.5q-170 77 -170 242q0 143 121 223q114 74 313 74q307 0 461 -196l-156 -113q-101 137 -307 137q-231 0 -231 -143q0 -75 66.5 -116.5t185.5 -41.5h190
v-158h-184q-136 0 -204 -45q-61 -40 -61 -110q0 -153 266 -153q106 0 175.5 32t126.5 106z" />
    <glyph glyph-name="zeta" unicode="&#x3b6;" horiz-adv-x="982" 
d="M201 1542h691v-186q-180 -182 -275 -299q-254 -321 -254 -602q0 -156 46 -210q40 -46 163 -81l29 -8q195 -56 261 -137q59 -72 59 -210q0 -86 -41 -188h-189q39 94 39 172q0 86 -37.5 125t-149.5 68l-49 14q-193 51 -271 142q-83 99 -83 284q0 321 297 661
q111 123 295 283h-531v172z" />
    <glyph glyph-name="eta" unicode="&#x3b7;" horiz-adv-x="1270" 
d="M193 1071h215v-166q98 186 322 186q180 0 272 -124q80 -108 80 -295v-1045h-215v1035q0 137 -56 197q-50 52 -149 52q-125 0 -194 -83q-60 -71 -60 -187v-641h-215v1071z" />
    <glyph glyph-name="theta" unicode="&#x3b8;" horiz-adv-x="1265" 
d="M636 1563q147 0 264 -103q115 -100 180 -278q66 -183 66 -412q0 -371 -163 -595q-141 -195 -351 -195q-242 0 -388 252q-126 218 -126 543t131 548q140 240 387 240zM929 877q-16 259 -104 395q-77 119 -193 119q-134 0 -212 -151q-68 -132 -85 -363h594zM333 719
q12 -283 101 -435q78 -132 198 -132q137 0 220 177q73 154 79 390h-598z" />
    <glyph glyph-name="iota" unicode="&#x3b9;" horiz-adv-x="621" 
d="M412 1071v-772q0 -78 21 -106.5t79 -28.5q23 0 47 4v-168q-63 -8 -106 -8q-145 0 -204 83q-52 73 -52 228v768h215z" />
    <glyph glyph-name="kappa" unicode="&#x3ba;" horiz-adv-x="1172" 
d="M193 1071h215v-516l432 516h246l-365 -416l412 -655h-240l-315 500l-170 -193v-307h-215v1071z" />
    <glyph glyph-name="lambda" unicode="&#x3bb;" horiz-adv-x="1109" 
d="M1063 0h-225l-289 823l-293 -823h-217l416 1083l-160 459h219z" />
    <glyph glyph-name="uni03BC" unicode="&#x3bc;" horiz-adv-x="1285" 
d="M878 1071h215v-1071h-215v164q-46 -98 -105 -141t-145 -43q-139 0 -211 83v-436h-215v1444h215v-625q0 -157 51 -222q49 -62 154 -62q126 0 196 80q60 69 60 178v651z" />
    <glyph glyph-name="nu" unicode="&#x3bd;" horiz-adv-x="1054" 
d="M39 1071h229l269 -850l264 850h213l-363 -1071h-243z" />
    <glyph glyph-name="xi" unicode="&#x3be;" horiz-adv-x="999" 
d="M346 424q0 -126 46 -173.5t206 -88.5l29 -6q193 -42 262 -131q57 -74 57 -216q0 -86 -41 -188h-188q39 94 39 172q0 87 -37 124.5t-149 63.5l-70 17q-207 48 -291 140q-86 95 -86 271q0 328 307 416q-94 31 -145 82q-74 74 -74 178q0 187 240 285h-289v172h778v-172h-86
q-428 0 -428 -252q0 -111 80 -167q69 -48 193 -48h135v-172h-135q-174 0 -251 -59q-102 -78 -102 -248z" />
    <glyph glyph-name="omicron" unicode="&#x3bf;" horiz-adv-x="1257" 
d="M633 1091q239 0 386 -177q128 -153 128 -375q0 -262 -165 -421q-144 -138 -355 -138q-242 0 -390 176q-128 152 -128 376q0 263 166 422q144 137 358 137zM623 919q-143 0 -222 -117q-69 -102 -69 -267q0 -191 88 -294q78 -89 205 -89q149 0 229 116q70 101 70 267
q0 193 -91 295q-78 89 -210 89z" />
    <glyph glyph-name="pi" unicode="&#x3c0;" horiz-adv-x="1242" 
d="M205 899h-117v172h1067v-172h-119v-899h-215v899h-401v-899h-215v899z" />
    <glyph glyph-name="rho" unicode="&#x3c1;" horiz-adv-x="1244" 
d="M625 1091q240 0 385 -176q125 -153 125 -378q0 -262 -159 -420q-138 -137 -343 -137q-177 0 -301 145q34 -346 53 -498h-213q-49 507 -49 788q0 202 34 322.5t118 212.5q128 141 350 141zM623 152q143 0 221 116q68 100 68 264q0 195 -87 298q-77 89 -204 89
q-138 0 -214 -117q-65 -102 -65 -267q0 -191 85 -294q74 -89 196 -89z" />
    <glyph glyph-name="uni03C2" unicode="&#x3c2;" horiz-adv-x="1019" 
d="M672 -379q37 107 37 199q0 58 -24 82t-115 57q-26 9 -94 32q-84 28 -117 44q-250 117 -250 464q0 293 141 453q123 139 322 139q259 0 387 -249l-174 -99q-48 100 -93.5 138t-115.5 38q-126 0 -189 -118q-55 -103 -55 -285q0 -197 84 -277q33 -32 63.5 -46t151.5 -56
q145 -50 202 -111q60 -65 60 -174q0 -107 -36 -231h-185z" />
    <glyph glyph-name="sigma" unicode="&#x3c3;" horiz-adv-x="1239" 
d="M1164 895l-242 12q90 -80 130 -171t40 -214q0 -254 -156 -408q-135 -134 -333 -134q-236 0 -374 174q-120 151 -120 383q0 269 157 421q137 133 351 133q67 0 152 -10l15 -2q88 -8 120 -8h260v-176zM598 919q-129 0 -203 -118q-63 -103 -63 -264q0 -188 82 -293
q72 -92 187 -92q129 0 204 119q64 104 64 266q0 188 -83 292q-72 90 -188 90z" />
    <glyph glyph-name="tau" unicode="&#x3c4;" horiz-adv-x="895" 
d="M339 899h-319v172h856v-172h-322v-899h-215v899z" />
    <glyph glyph-name="upsilon" unicode="&#x3c5;" horiz-adv-x="1238" 
d="M399 1071v-602q0 -183 58 -254q51 -63 163 -63q126 0 175 83q44 73 44 234v602h215v-592q0 -284 -116 -398q-102 -101 -320 -101q-247 0 -346 133q-88 117 -88 366v592h215z" />
    <glyph glyph-name="phi" unicode="&#x3c6;" horiz-adv-x="1561" 
d="M674 -373v360q-282 31 -435 198q-130 141 -130 345q0 180 75 316q66 121 203 231l127 -125q-104 -96 -143 -184.5t-39 -229.5q0 -158 101 -268q92 -100 241 -121v932q72 10 135 10q298 0 482 -177q159 -153 159 -376q0 -244 -170 -392q-148 -128 -399 -159v-360h-207z
M881 149q180 28 269 139q77 97 77 248q0 170 -106 277q-92 94 -240 113v-777z" />
    <glyph glyph-name="chi" unicode="&#x3c7;" horiz-adv-x="1066" 
d="M1055 -373h-236l-305 582l-305 -582h-209l408 768l-353 676h236l252 -504l266 504h211l-369 -692z" />
    <glyph glyph-name="psi" unicode="&#x3c8;" horiz-adv-x="1697" 
d="M1513 549q0 -149 -21 -239.5t-71 -157.5q-65 -90 -157 -130t-236 -40h-72v-355h-215v355h-70q-146 0 -239.5 40t-157.5 130q-49 67 -69.5 158t-20.5 239v522h215v-555q0 -209 81 -288q71 -70 232 -70h29v913h215v-913h31q182 0 251 93q60 81 60 265v555h215v-522z" />
    <glyph glyph-name="omega" unicode="&#x3c9;" horiz-adv-x="1582" 
d="M1222 1091q134 -134 191 -285q50 -133 50 -302q0 -256 -125 -399q-109 -125 -282 -125q-93 0 -155 43t-109 141q-49 -98 -111.5 -141t-155.5 -43q-200 0 -311 161q-96 140 -96 363q0 193 66 340q58 130 175 247l137 -98q-155 -207 -155 -499q0 -174 62 -264
q53 -78 145 -78q91 0 125 104q16 55 16 199v325h203v-325q0 -154 23 -213q34 -90 118 -90q105 0 160 102q47 88 47 240q0 285 -155 499z" />
    <glyph glyph-name="iotadieresis" unicode="&#x3ca;" horiz-adv-x="608" 
d="M402 1071v-772q0 -78 21 -106.5t79 -28.5q23 0 47 4v-168q-63 -8 -106 -8q-145 0 -204 83q-52 73 -52 228v768h215zM101 1264q-54 0 -93.5 39.5t-39.5 93.5t39.5 93.5t93.5 39.5t93.5 -39.5t39.5 -93.5t-39.5 -93.5t-93.5 -39.5zM490 1264q-54 0 -93.5 39.5t-39.5 93.5
t39.5 93.5t93.5 39.5q52 0 92.5 -40.5t40.5 -92.5q0 -54 -39.5 -93.5t-93.5 -39.5z" />
    <glyph glyph-name="upsilondieresis" unicode="&#x3cb;" horiz-adv-x="1238" 
d="M426 1530q54 0 93.5 -39.5t39.5 -93.5t-39.5 -93.5t-93.5 -39.5t-93.5 39.5t-39.5 93.5t39.5 93.5t93.5 39.5zM815 1530q52 0 92.5 -40.5t40.5 -92.5q0 -54 -39.5 -93.5t-93.5 -39.5t-93.5 39.5t-39.5 93.5t39.5 93.5t93.5 39.5zM399 1071v-602q0 -183 58 -254
q51 -63 163 -63q126 0 175 83q44 73 44 234v602h215v-592q0 -284 -116 -398q-102 -101 -320 -101q-247 0 -346 133q-88 117 -88 366v592h215z" />
    <glyph glyph-name="omicrontonos" unicode="&#x3cc;" horiz-adv-x="1257" 
d="M633 1091q239 0 386 -177q128 -153 128 -375q0 -262 -165 -421q-144 -138 -355 -138q-242 0 -390 176q-128 152 -128 376q0 263 166 422q144 137 358 137zM623 919q-143 0 -222 -117q-69 -102 -69 -267q0 -191 88 -294q78 -89 205 -89q149 0 229 116q70 101 70 267
q0 193 -91 295q-78 89 -210 89zM588 1604h231l-108 -360h-166z" />
    <glyph glyph-name="upsilontonos" unicode="&#x3cd;" horiz-adv-x="1238" 
d="M399 1071v-602q0 -183 58 -254q51 -63 163 -63q126 0 175 83q44 73 44 234v602h215v-592q0 -284 -116 -398q-102 -101 -320 -101q-247 0 -346 133q-88 117 -88 366v592h215zM579 1604h231l-108 -360h-166z" />
    <glyph glyph-name="omegatonos" unicode="&#x3ce;" horiz-adv-x="1582" 
d="M1222 1091q134 -134 191 -285q50 -133 50 -302q0 -256 -125 -399q-109 -125 -282 -125q-93 0 -155 43t-109 141q-49 -98 -111.5 -141t-155.5 -43q-200 0 -311 161q-96 140 -96 363q0 193 66 340q58 130 175 247l137 -98q-155 -207 -155 -499q0 -174 62 -264
q53 -78 145 -78q91 0 125 104q16 55 16 199v325h203v-325q0 -154 23 -213q34 -90 118 -90q105 0 160 102q47 88 47 240q0 285 -155 499zM751 1604h231l-108 -360h-166z" />
    <glyph glyph-name="phi1" unicode="&#x3d5;" horiz-adv-x="1526" 
d="M660 -373v365q-288 28 -431 192q-120 137 -120 344q0 252 170 405q148 134 381 148v471h205v-471q269 -17 419 -183q132 -145 132 -364q0 -241 -155 -387q-144 -135 -394 -155v-365h-207zM660 153v766q-171 -16 -256 -131q-72 -97 -72 -254q0 -175 85 -268
q80 -89 243 -113zM865 153q185 27 264 137q64 88 64 240q0 181 -94 283q-84 92 -234 106v-766z" />
    <glyph glyph-name="uni0400" unicode="&#x400;" horiz-adv-x="1304" 
d="M199 1464h963v-176h-748v-463h606v-172h-606v-477h784v-176h-999v1464zM406 1935h262l109 -340h-148z" />
    <glyph glyph-name="afii10023" unicode="&#x401;" horiz-adv-x="1304" 
d="M199 1464h965v-180h-746v-459h604v-172h-604v-473h782v-180h-1001v1464zM498 1599q-54 0 -93.5 39.5t-39.5 93.5t39.5 93.5t93.5 39.5t93.5 -39.5t39.5 -93.5t-39.5 -93.5t-93.5 -39.5zM887 1599q-54 0 -93.5 39.5t-39.5 93.5t39.5 93.5t93.5 39.5q52 0 92.5 -40.5
t40.5 -92.5q0 -54 -39.5 -93.5t-93.5 -39.5z" />
    <glyph glyph-name="afii10051" unicode="&#x402;" horiz-adv-x="1642" 
d="M406 0v1284h-399v180h1174v-180h-554v-502q145 174 406 174q244 0 347 -153q91 -135 91 -410v-110q0 -256 -41 -390q-44 -140 -148 -201q-99 -58 -290 -65l-10 164q83 6 124 22.5t69 55.5q67 94 67 407v103q0 230 -69 319q-60 78 -195 78q-142 0 -229 -65
q-76 -57 -122 -172v-539h-221z" />
    <glyph glyph-name="afii10052" unicode="&#x403;" horiz-adv-x="1126" 
d="M199 1464h877v-180h-658v-1284h-219v1464zM656 1935h262l-224 -340h-147z" />
    <glyph glyph-name="afii10053" unicode="&#x404;" horiz-adv-x="1446" 
d="M1164 1097q-105 210 -346 210q-285 0 -398 -275q-30 -77 -45 -209h668v-170h-670q17 -157 58 -247q119 -246 391 -246q151 0 240 65q76 56 118 166l189 -94q-88 -172 -235 -248q-133 -69 -328 -69q-323 0 -505 229q-159 200 -159 514q0 370 208 581q181 183 464 183
q378 0 538 -316z" />
    <glyph glyph-name="afii10054" unicode="&#x405;" horiz-adv-x="1362" 
d="M304 428q82 -270 381 -270q156 0 243 74q76 65 76 167q0 113 -88 171q-78 51 -275 95q-232 54 -330 121q-149 103 -149 295q0 197 150 306q131 95 340 95q382 0 524 -323l-188 -68q-57 117 -134 165t-206 48q-279 0 -279 -203q0 -107 80 -155q71 -43 274 -88
q223 -49 326 -119q168 -110 168 -325q0 -214 -162 -331q-142 -103 -370 -103q-235 0 -389 114q-73 53 -117 116t-76 161z" />
    <glyph glyph-name="afii10055" unicode="&#x406;" horiz-adv-x="655" 
d="M217 1464h221v-1464h-221v1464z" />
    <glyph glyph-name="afii10056" unicode="&#x407;" horiz-adv-x="642" 
d="M213 1464h221v-1464h-221v1464zM125 1599q-54 0 -93.5 39.5t-39.5 93.5t39.5 93.5t93.5 39.5t93.5 -39.5t39.5 -93.5t-39.5 -93.5t-93.5 -39.5zM514 1599q-54 0 -93.5 39.5t-39.5 93.5t39.5 93.5t93.5 39.5q52 0 92.5 -40.5t40.5 -92.5q0 -54 -39.5 -93.5t-93.5 -39.5z
" />
    <glyph glyph-name="afii10057" unicode="&#x408;" horiz-adv-x="1209" 
d="M1018 495q0 -271 -131 -401q-114 -114 -323 -114q-225 0 -348 136q-107 119 -107 312v98h217v-76q0 -292 231 -292q240 0 240 321v985h221v-969z" />
    <glyph glyph-name="afii10058" unicode="&#x409;" horiz-adv-x="2112" 
d="M987 1284h-541v-199q0 -152 -16 -345.5t-39 -313.5q-22 -122 -52.5 -213.5t-91.5 -212.5h-247q69 107 104 189t61 198q68 304 68 778v299h975v-596h291q267 0 389 -90q156 -118 156 -344q0 -127 -54 -225q-47 -85 -128 -135q-119 -74 -363 -74h-512v1284zM1523 176
q308 0 308 258t-308 258h-315v-516h315z" />
    <glyph glyph-name="afii10059" unicode="&#x40a;" horiz-adv-x="2170" 
d="M199 1464h221v-596h623v596h221v-596h291q267 0 389 -90q156 -118 156 -344q0 -127 -54 -224q-47 -86 -128 -136q-118 -74 -363 -74h-512v682h-623v-682h-221v1464zM1579 176q308 0 308 258t-308 258h-315v-516h315z" />
    <glyph glyph-name="afii10060" unicode="&#x40b;" horiz-adv-x="1642" 
d="M406 0v1284h-399v180h1174v-180h-554v-502q148 174 406 174q231 0 343 -135q97 -118 97 -334v-487h-225v410q0 220 -67 297q-59 69 -201 69q-144 0 -232 -65q-76 -58 -121 -172v-539h-221z" />
    <glyph glyph-name="afii10061" unicode="&#x40c;" horiz-adv-x="1352" 
d="M199 1464h221v-642h53q73 0 112 11t69 40q46 47 114 208q64 147 96.5 204t76.5 101q85 82 258 82q45 0 90 -4v-176q-29 2 -66 2q-66 0 -99 -11t-59 -41q-39 -45 -112 -224q-54 -129 -90 -172.5t-129 -91.5q91 -25 162 -88t151 -193l285 -469h-262l-230 387
q-104 173 -169 227t-169 54h-82v-668h-221v1464zM728 1935h262l-224 -340h-147z" />
    <glyph glyph-name="uni040D" unicode="&#x40d;" horiz-adv-x="1499" 
d="M199 1464h211v-1016l678 881v135h211v-1464h-211v1030l-678 -880v-150h-211v1464zM461 1935h262l109 -340h-148z" />
    <glyph glyph-name="afii10062" unicode="&#x40e;" horiz-adv-x="1202" 
d="M13 1464h242l368 -878l308 878h225l-406 -1104q-47 -128 -78 -189.5t-69 -99.5q-91 -94 -260 -94q-84 0 -162 23l43 174q54 -15 100 -15q83 0 126 35.5t77 133.5zM437 1908q8 -165 165 -165q158 0 164 165h154q-6 -317 -318 -317q-310 0 -319 317h154z" />
    <glyph glyph-name="afii10145" unicode="&#x40f;" horiz-adv-x="1456" 
d="M202 1464h221v-1284h611v1284h221v-1464h-414l-28 -350h-169l-28 350h-414v1464z" />
    <glyph glyph-name="afii10017" unicode="&#x410;" horiz-adv-x="1345" 
d="M1086 0l-117 340h-610l-117 -340h-211l530 1464h232l522 -1464h-229zM664 1233l-248 -721h496z" />
    <glyph glyph-name="afii10018" unicode="&#x411;" horiz-adv-x="1357" 
d="M199 1464h940v-176h-721v-399h317q269 0 387 -92q158 -120 158 -352q0 -254 -182 -369q-117 -76 -363 -76h-536v1464zM760 176q307 0 307 269q0 268 -307 268h-342v-537h342z" />
    <glyph glyph-name="afii10019" unicode="&#x412;" horiz-adv-x="1439" 
d="M199 1464h588q246 0 369 -113q108 -99 108 -274q0 -114 -47 -185.5t-156 -123.5q154 -49 220 -143q57 -82 57 -211q0 -210 -151 -319q-132 -95 -355 -95h-633v1464zM815 840q238 0 238 229q0 120 -74 173q-65 46 -194 46h-367v-448h397zM842 176q146 0 219 74
q64 64 64 176q0 244 -299 244h-408v-494h424z" />
    <glyph glyph-name="afii10020" unicode="&#x413;" horiz-adv-x="1126" 
d="M199 1464h877v-180h-658v-1284h-219v1464z" />
    <glyph glyph-name="afii10021" unicode="&#x414;" horiz-adv-x="1460" 
d="M162 0l-28 -350h-170v530h141q49 83 75 163t46 208q51 312 51 712v201h973v-1284h156v-530h-168l-29 350h-1047zM1031 1284h-543v-100q0 -129 -14.5 -316t-34.5 -321q-33 -203 -100 -369h692v1106z" />
    <glyph glyph-name="afii10022" unicode="&#x415;" horiz-adv-x="1304" 
d="M199 1464h965v-180h-746v-459h604v-172h-604v-473h782v-180h-1001v1464z" />
    <glyph glyph-name="afii10024" unicode="&#x416;" horiz-adv-x="1880" 
d="M834 668q-125 -2 -190 -60q-58 -52 -158 -221l-215 -387h-258l268 469q80 133 144.5 194.5t150.5 85.5q-93 47 -133 110q-34 55 -98 230q-47 124 -90 162.5t-136 38.5q-34 0 -63 -2v176q51 4 84 4q144 0 229 -63q43 -33 76 -87t82 -173q92 -233 143 -281
q27 -24 61.5 -33.5t102.5 -11.5v645h213v-645q76 2 113.5 15t66.5 48q44 53 127 263q49 119 82 173t76 87q85 63 229 63q31 0 84 -4v-176q-29 2 -65 2q-63 0 -93.5 -10.5t-53.5 -40.5q-36 -45 -103 -225q-51 -130 -86.5 -176t-118.5 -89q87 -26 151.5 -87.5t143.5 -192.5
l268 -469h-258l-215 387q-111 189 -178 237q-58 42 -170 44v-668h-213v668z" />
    <glyph glyph-name="afii10025" unicode="&#x417;" horiz-adv-x="1383" 
d="M665 -20q-305 0 -470 153q-79 76 -109 158l188 98q88 -231 388 -231q178 0 269 76q79 65 79 180q0 133 -105 201q-92 59 -252 59h-192v176h182q169 0 256 68q76 59 76 159q0 113 -93 174q-81 53 -214 53q-142 0 -226 -54q-76 -49 -123 -152l-178 69q125 315 543 315
q245 0 388 -123q124 -108 124 -272q0 -211 -231 -313q276 -88 276 -358q0 -214 -176 -332q-154 -104 -400 -104z" />
    <glyph glyph-name="afii10026" unicode="&#x418;" horiz-adv-x="1499" 
d="M199 1464h211v-1016l678 881v135h211v-1464h-211v1030l-678 -880v-150h-211v1464z" />
    <glyph glyph-name="afii10027" unicode="&#x419;" horiz-adv-x="1499" 
d="M199 1464h211v-1016l678 881v135h211v-1464h-211v1030l-678 -880v-150h-211v1464zM586 1908q8 -165 165 -165q158 0 164 165h154q-6 -317 -318 -317q-310 0 -319 317h154z" />
    <glyph glyph-name="afii10028" unicode="&#x41a;" horiz-adv-x="1352" 
d="M199 1464h221v-642h53q73 0 112 11t69 40q46 47 114 208q64 147 96.5 204t76.5 101q85 82 258 82q45 0 90 -4v-176q-29 2 -66 2q-66 0 -99 -11t-59 -41q-39 -45 -112 -224q-54 -129 -90 -172.5t-129 -91.5q91 -25 162 -88t151 -193l285 -469h-262l-230 387
q-104 173 -169 227t-169 54h-82v-668h-221v1464z" />
    <glyph glyph-name="afii10029" unicode="&#x41b;" horiz-adv-x="1408" 
d="M985 1284h-539v-197q0 -152 -16 -346.5t-39 -314.5q-22 -122 -52.5 -213.5t-91.5 -212.5h-247q69 107 104 189t61 198q68 308 68 778v299h973v-1464h-221v1284z" />
    <glyph glyph-name="afii10030" unicode="&#x41c;" horiz-adv-x="1882" 
d="M199 1464h330l414 -1175l407 1175h330v-1464h-219v1241l-432 -1241h-187l-442 1241v-1241h-201v1464z" />
    <glyph glyph-name="afii10031" unicode="&#x41d;" horiz-adv-x="1523" 
d="M199 1464h221v-643h680v643h221v-1464h-221v635h-680v-635h-221v1464z" />
    <glyph glyph-name="afii10032" unicode="&#x41e;" horiz-adv-x="1661" 
d="M830 1482q197 0 355 -98q155 -95 242 -265q89 -173 89 -388t-90 -388q-87 -170 -242 -265q-158 -98 -354 -98q-199 0 -358 98q-154 96 -241 266q-89 175 -89 393q0 212 90 384q88 168 243 263q159 98 355 98zM828 1302q-222 0 -347 -177q-108 -155 -108 -400
q0 -272 142 -428q124 -137 315 -137q220 0 346 177q109 154 109 394q0 276 -141 434q-123 137 -316 137z" />
    <glyph glyph-name="afii10033" unicode="&#x41f;" horiz-adv-x="1499" 
d="M199 1464h1100v-1464h-221v1278h-658v-1278h-221v1464z" />
    <glyph glyph-name="afii10034" unicode="&#x420;" horiz-adv-x="1380" 
d="M199 1464h551q270 0 403 -128q115 -112 115 -314q0 -218 -145 -330q-126 -98 -343 -98h-360v-594h-221v1464zM752 764q297 0 297 266q0 258 -289 258h-340v-524h332z" />
    <glyph glyph-name="afii10035" unicode="&#x421;" horiz-adv-x="1507" 
d="M1399 412q-46 -122 -93.5 -192t-121.5 -126q-151 -114 -374 -114q-323 0 -507 233q-161 202 -161 516q0 362 210 574q182 184 460 184q257 0 409 -150q53 -52 88 -110t74 -158l-194 -74q-61 177 -158 249q-86 63 -219 63q-220 0 -337 -174q-102 -151 -102 -402
q0 -288 132 -439q116 -132 311 -132q158 0 253 89q84 78 134 238z" />
    <glyph glyph-name="afii10036" unicode="&#x422;" horiz-adv-x="1211" 
d="M1157 1284h-439v-1284h-221v1284h-442v180h1102v-180z" />
    <glyph glyph-name="afii10037" unicode="&#x423;" horiz-adv-x="1202" 
d="M13 1464h242l368 -878l308 878h225l-406 -1104q-47 -128 -78 -189.5t-69 -99.5q-91 -94 -260 -94q-84 0 -162 23l43 174q54 -15 100 -15q83 0 126 35.5t77 133.5z" />
    <glyph glyph-name="afii10038" unicode="&#x424;" horiz-adv-x="1829" 
d="M810 149q-255 15 -408 109q-133 80 -201 214q-59 118 -59 261q0 162 77 291q67 112 183 182q153 94 408 109v215h205v-215q255 -15 408 -109q133 -80 201 -214q59 -117 59 -259q0 -164 -77 -293q-67 -112 -183 -182q-153 -94 -408 -109v-215h-205v215zM810 1151
q-246 -25 -349 -136q-90 -98 -90 -282q0 -211 119 -311q104 -87 320 -109v838zM1015 313q246 25 349 136q90 99 90 284q0 209 -119 309q-104 87 -320 109v-838z" />
    <glyph glyph-name="afii10039" unicode="&#x425;" horiz-adv-x="1334" 
d="M540 751l-452 713h258l334 -540l333 540h232l-449 -708l482 -756h-256l-367 588l-367 -588h-233z" />
    <glyph glyph-name="afii10040" unicode="&#x426;" horiz-adv-x="1464" 
d="M199 1464h221v-1284h611v1284h221v-1284h157v-530h-169l-31 350h-1010v1464z" />
    <glyph glyph-name="afii10041" unicode="&#x427;" horiz-adv-x="1406" 
d="M985 0v561q-123 -160 -391 -160q-223 0 -332 125q-96 108 -96 303v635h221v-627q0 -141 74 -201q65 -53 198 -53q161 0 249 84q77 73 77 189v608h221v-1464h-221z" />
    <glyph glyph-name="afii10042" unicode="&#x428;" horiz-adv-x="2140" 
d="M199 1464h221v-1284h539v1284h221v-1284h539v1284h221v-1464h-1741v1464z" />
    <glyph glyph-name="afii10043" unicode="&#x429;" horiz-adv-x="2153" 
d="M199 1464h221v-1284h539v1284h221v-1284h539v1284h221v-1284h157v-530h-169l-31 350h-1698v1464z" />
    <glyph glyph-name="afii10044" unicode="&#x42a;" horiz-adv-x="1502" 
d="M378 1284h-367v180h586v-544h293q266 0 389 -96q156 -124 156 -363q0 -136 -54 -240q-47 -90 -128 -143q-119 -78 -363 -78h-512v1284zM914 176q308 0 308 285q0 283 -308 283h-317v-568h317z" />
    <glyph glyph-name="afii10045" unicode="&#x42b;" horiz-adv-x="1890" 
d="M199 1464h219v-544h293q267 0 389 -96q156 -124 156 -363q0 -136 -54 -240q-47 -90 -128 -143q-119 -78 -363 -78h-512v1464zM1467 1464h221v-1464h-221v1464zM736 176q307 0 307 285q0 282 -307 282h-318v-567h318z" />
    <glyph glyph-name="afii10046" unicode="&#x42c;" horiz-adv-x="1326" 
d="M199 1464h219v-544h293q267 0 389 -96q156 -124 156 -363q0 -136 -54 -240q-47 -90 -128 -143q-119 -78 -363 -78h-512v1464zM735 176q308 0 308 285q0 283 -308 283h-317v-568h317z" />
    <glyph glyph-name="afii10047" unicode="&#x42d;" horiz-adv-x="1425" 
d="M624 -20q-283 0 -434 145q-61 58 -113 153l184 93q110 -211 357 -211q394 0 434 493h-676v170h676q-46 484 -418 484q-255 0 -364 -199l-181 86q170 293 549 293q317 0 492 -234q153 -204 153 -532q0 -366 -201 -566q-175 -175 -458 -175z" />
    <glyph glyph-name="afii10048" unicode="&#x42e;" horiz-adv-x="2212" 
d="M199 1464h221v-643h328q33 322 234 503q175 158 425 158q190 0 343 -98q149 -95 233 -265q86 -173 86 -388q0 -352 -209 -566q-181 -185 -449 -185q-283 0 -470 205q-163 177 -193 450h-328v-635h-221v1464zM1406 1302q-210 0 -329 -177q-104 -155 -104 -396
q0 -274 136 -432q117 -137 301 -137q216 0 329 172q99 150 99 403q0 271 -135 429q-117 138 -297 138z" />
    <glyph glyph-name="afii10049" unicode="&#x42f;" horiz-adv-x="1459" 
d="M1036 0v610h-279q-168 0 -243 -70q-39 -37 -58 -82.5t-45 -166.5q-41 -200 -102 -291h-217v8q70 114 121 367q29 135 84.5 201t169.5 102q-88 23 -137 52t-88 81q-74 95 -74 243q0 208 145 322q64 48 147 68t220 20h577v-1464h-221zM1036 1288h-373q-157 0 -223 -67
q-59 -58 -59 -179q0 -262 295 -262h360v508z" />
    <glyph glyph-name="afii10065" unicode="&#x430;" horiz-adv-x="1146" 
d="M1080 -4q-55 -6 -76 -6q-182 0 -236 157q-129 -167 -327 -167q-161 0 -255 95q-81 82 -81 208q0 236 276 317q135 38 373 43v55q0 123 -55 175q-48 46 -146 46q-155 0 -305 -127l-111 140q97 84 198.5 121.5t232.5 37.5q208 0 311 -113q90 -100 90 -276v-450
q0 -100 86 -100q17 0 25 2v-158zM754 498q-436 -3 -436 -203q0 -71 45.5 -110t128.5 -39q123 0 198 69q64 59 64 147v136z" />
    <glyph glyph-name="afii10066" unicode="&#x431;" horiz-adv-x="1247" 
d="M1015 1368h-267q-164 0 -243 -27t-119 -98q-64 -114 -70 -365q98 118 179.5 161.5t203.5 43.5q214 0 333 -165q103 -144 103 -375q0 -273 -152 -428q-133 -135 -341 -135q-292 0 -420 231q-49 87 -68.5 201t-19.5 311q0 466 106 631q65 101 170 144.5t285 43.5h352z
M642 917q-142 0 -220 -118q-69 -102 -69 -267q0 -190 88 -293q76 -89 201 -89q138 0 209 115q63 99 63 270q0 190 -82 293q-72 89 -190 89z" />
    <glyph glyph-name="afii10067" unicode="&#x432;" horiz-adv-x="1228" 
d="M199 1071h500q373 0 373 -293q0 -78 -26.5 -128t-88.5 -87q89 -36 128.5 -95t39.5 -155q0 -313 -395 -313h-531v1071zM713 627q152 0 152 143q0 139 -174 139h-283v-282h305zM732 162q93 0 142 48q42 41 42 109q0 74 -50.5 114t-144.5 40h-313v-311h324z" />
    <glyph glyph-name="afii10068" unicode="&#x433;" horiz-adv-x="940" 
d="M199 1071h692v-174h-477v-897h-215v1071z" />
    <glyph glyph-name="afii10069" unicode="&#x434;" horiz-adv-x="1229" 
d="M166 0l-25 -309h-166v483h105q180 267 180 795v102h768v-897h127v-483h-166l-22 309h-801zM815 897h-363v-37q0 -93 -16 -226t-37 -212q-32 -123 -94 -250h510v725z" />
    <glyph glyph-name="afii10070" unicode="&#x435;" horiz-adv-x="1189" 
d="M633 -20q-250 0 -397 172q-127 150 -127 378q0 266 159 424q137 137 345 137q236 0 362 -163q109 -141 109 -377v-66h-758q9 -102 35 -163t80 -107q73 -63 203 -63q96 0 159 33.5t113 111.5l151 -125q-141 -192 -434 -192zM334 641h539q-18 161 -87 227q-60 57 -173 57
q-228 0 -279 -284z" />
    <glyph glyph-name="afii10072" unicode="&#x436;" horiz-adv-x="1596" 
d="M692 481h-41q-60 0 -103.5 -34.5t-90.5 -120.5l-181 -326h-243l196 334q63 101 109 147.5t106 69.5q-71 40 -97 78t-83 188q-23 59 -46.5 74.5t-88.5 15.5h-47v164h66q84 0 126 -9.5t71 -35.5q46 -40 110 -189q61 -145 92 -176.5t110 -31.5h35v442h209v-442h35q48 0 72 8
t43 31q29 34 88 169q69 165 125 202q50 32 182 32h66v-164h-47q-50 0 -67 -4t-31 -19q-18 -20 -60 -128q-38 -97 -65.5 -133t-92.5 -72q62 -23 109 -70.5t106 -146.5l197 -334h-244l-180 326q-47 86 -90.5 120.5t-104.5 34.5h-41v-481h-209v481z" />
    <glyph glyph-name="afii10073" unicode="&#x437;" horiz-adv-x="1108" 
d="M538 -20q-268 0 -391 123q-48 47 -70 114l188 84q66 -151 275 -151q118 0 182 49q56 43 56 112q0 78 -64 122t-176 44h-166v158h160q108 0 171 43q54 38 54 96q0 65 -59.5 106t-155.5 41q-100 0 -162.5 -27.5t-103.5 -90.5l-164 84q55 107 159.5 155.5t278.5 48.5
q209 0 319 -92q97 -81 97 -217q0 -74 -31.5 -123.5t-105.5 -91.5q170 -71 170 -249q0 -173 -137 -261q-119 -77 -324 -77z" />
    <glyph glyph-name="afii10074" unicode="&#x438;" horiz-adv-x="1284" 
d="M199 1071h213v-686l459 569v117h213v-1071h-213v696l-459 -569v-127h-213v1071z" />
    <glyph glyph-name="afii10075" unicode="&#x439;" horiz-adv-x="1284" 
d="M496 1567q9 -151 149 -151q139 0 148 151h154q-7 -303 -302 -303q-293 0 -303 303h154zM199 1071h213v-686l459 569v117h213v-1071h-213v696l-459 -569v-127h-213v1071z" />
    <glyph glyph-name="afii10076" unicode="&#x43a;" horiz-adv-x="1173" 
d="M199 1071h215v-446h64q87 0 120 37q31 30 103 188q71 155 129 190q51 31 186 31h66v-164h-47q-54 0 -72.5 -4t-33.5 -19q-19 -20 -66 -128q-42 -101 -70.5 -135.5t-99.5 -69.5q65 -23 116 -71.5t113 -145.5l209 -334h-246l-186 311q-51 85 -100 120.5t-115 35.5h-70v-467
h-215v1071z" />
    <glyph glyph-name="afii10077" unicode="&#x43b;" horiz-adv-x="1231" 
d="M817 897h-362v-154q0 -459 -171 -743h-233q113 176 158 364t45 488v219h778v-1071h-215v897z" />
    <glyph glyph-name="afii10078" unicode="&#x43c;" horiz-adv-x="1587" 
d="M199 1071h297l299 -797l297 797h295v-1071h-207v842l-313 -842h-152l-321 846v-846h-195v1071z" />
    <glyph glyph-name="afii10079" unicode="&#x43d;" horiz-adv-x="1284" 
d="M199 1071h215v-440h453v440h215v-1071h-215v457h-453v-457h-215v1071z" />
    <glyph glyph-name="afii10080" unicode="&#x43e;" horiz-adv-x="1260" 
d="M629 1091q243 0 390 -176q128 -153 128 -378q0 -262 -165 -420q-144 -137 -355 -137q-245 0 -391 177q-127 153 -127 382q0 256 166 415q144 137 354 137zM629 919q-150 0 -229 -115q-70 -101 -70 -269q0 -194 90 -295q78 -88 211 -88q146 0 226 117q69 102 69 268
q0 190 -90 293q-78 89 -207 89z" />
    <glyph glyph-name="afii10081" unicode="&#x43f;" horiz-adv-x="1277" 
d="M199 1071h879v-1071h-215v897h-449v-897h-215v1071z" />
    <glyph glyph-name="afii10082" unicode="&#x440;" horiz-adv-x="1302" 
d="M193 1071h215v-172q118 192 340 192q215 0 338 -171q106 -149 106 -381q0 -271 -138 -425q-120 -134 -308 -134q-225 0 -338 188v-541h-215v1444zM695 919q-148 0 -227 -116q-68 -102 -68 -271q0 -193 87 -293q76 -87 206 -87q278 0 278 383q0 194 -83 296
q-72 88 -193 88z" />
    <glyph glyph-name="afii10083" unicode="&#x441;" horiz-adv-x="1128" 
d="M621 -20q-243 0 -387 173q-125 151 -125 379q0 267 159 423q138 136 349 136q275 0 420 -219l-172 -106q-52 85 -105.5 119t-136.5 34q-149 0 -227 -115q-68 -99 -68 -269q0 -197 88 -296q77 -87 211 -87q87 0 144 34t106 115l174 -94q-141 -227 -430 -227z" />
    <glyph glyph-name="afii10084" unicode="&#x442;" horiz-adv-x="895" 
d="M339 897h-319v174h856v-174h-322v-897h-215v897z" />
    <glyph glyph-name="afii10085" unicode="&#x443;" horiz-adv-x="1050" 
d="M121 -170q66 -43 133 -43q114 0 152 121l30 104l-403 1059h231l281 -768l260 768h219l-436 -1204q-91 -252 -319 -252q-122 0 -216 63z" />
    <glyph glyph-name="afii10086" unicode="&#x444;" horiz-adv-x="1763" 
d="M783 158q-91 -178 -277 -178q-192 0 -302 174q-95 150 -95 385q0 267 123 420q107 132 274 132q180 0 277 -172v623h197v-623q100 172 277 172q192 0 302 -171q95 -149 95 -381q0 -270 -123 -424q-106 -135 -272 -135q-188 0 -279 178v-531h-197v531zM558 919
q-116 0 -176 -115q-52 -100 -52 -272q0 -380 228 -380q118 0 178 113q53 99 53 267q0 195 -69 298q-61 89 -162 89zM1206 919q-118 0 -180 -115q-54 -101 -54 -269q0 -198 69 -297q60 -86 167 -86q225 0 225 385q0 191 -69 293q-59 89 -158 89z" />
    <glyph glyph-name="afii10087" unicode="&#x445;" horiz-adv-x="1117" 
d="M429 549l-354 522h249l240 -363l238 363h229l-354 -506l389 -565h-252l-266 403l-271 -403h-227z" />
    <glyph glyph-name="afii10088" unicode="&#x446;" horiz-adv-x="1257" 
d="M199 1071h215v-897h424v897h215v-897h127v-483h-166l-22 309h-793v1071z" />
    <glyph glyph-name="afii10089" unicode="&#x447;" horiz-adv-x="1206" 
d="M357 1071v-426q0 -101 46.5 -145.5t154.5 -44.5t175 60q58 52 58 126v430h215v-1071h-215v395q-109 -114 -291 -114q-358 0 -358 354v436h215z" />
    <glyph glyph-name="afii10090" unicode="&#x448;" horiz-adv-x="1804" 
d="M199 1071h215v-897h383v897h209v-897h381v897h215v-1071h-1403v1071z" />
    <glyph glyph-name="afii10091" unicode="&#x449;" horiz-adv-x="1806" 
d="M199 1071h215v-897h383v897h209v-897h381v897h215v-897h127v-483h-166l-20 309h-1344v1071z" />
    <glyph glyph-name="afii10092" unicode="&#x44a;" horiz-adv-x="1232" 
d="M736 707q211 0 301 -70q121 -90 121 -285q0 -208 -139 -297q-94 -55 -283 -55h-459v903h-266v168h475v-364h250zM740 164q209 0 209 190q0 191 -209 191h-254v-381h254z" />
    <glyph glyph-name="afii10093" unicode="&#x44b;" horiz-adv-x="1650" 
d="M199 1071h209v-364h250q211 0 301 -70q121 -90 121 -284q0 -209 -139 -298q-93 -55 -283 -55h-459v1071zM1235 1071h215v-1071h-215v1071zM662 164q209 0 209 190q0 191 -209 191h-254v-381h254z" />
    <glyph glyph-name="afii10094" unicode="&#x44c;" horiz-adv-x="1155" 
d="M199 1071h209v-364h250q211 0 301 -70q121 -90 121 -285q0 -208 -139 -297q-93 -55 -283 -55h-459v1071zM662 164q209 0 209 190q0 191 -209 191h-254v-381h254z" />
    <glyph glyph-name="afii10095" unicode="&#x44d;" horiz-adv-x="1129" 
d="M485 -20q-282 0 -432 206l162 100q55 -74 115.5 -104t152.5 -30q277 0 307 310h-473v156h471q-34 301 -295 301q-81 0 -140 -31t-114 -102l-155 111q143 194 417 194q251 0 392 -171q122 -149 122 -386q0 -269 -164 -421q-142 -133 -366 -133z" />
    <glyph glyph-name="afii10096" unicode="&#x44e;" horiz-adv-x="1747" 
d="M199 1071h215v-451h221q30 229 182 358q132 113 316 113q235 0 378 -176q124 -152 124 -377q0 -262 -160 -421q-139 -137 -344 -137q-211 0 -349 144q-121 125 -147 322h-221v-446h-215v1071zM1129 919q-141 0 -216 -116q-65 -101 -65 -269q0 -191 85 -293
q75 -89 198 -89q138 0 213 117q66 102 66 267q0 191 -85 293q-74 90 -196 90z" />
    <glyph glyph-name="afii10097" unicode="&#x44f;" horiz-adv-x="1221" 
d="M812 0v424h-217q-99 0 -152 -49q-25 -26 -37 -55t-30 -107q-33 -148 -78 -213h-213v31q57 71 98 262q19 78 50 122.5t85 70.5q-89 40 -129.5 106.5t-40.5 173.5q0 164 113 244q86 61 289 61h471v-1071h-209zM812 909h-278q-177 0 -177 -153q0 -87 57 -135q49 -41 130 -41
h268v329z" />
    <glyph glyph-name="uni0450" unicode="&#x450;" horiz-adv-x="1189" 
d="M633 -20q-250 0 -397 172q-127 150 -127 378q0 266 159 424q137 137 345 137q236 0 362 -163q109 -141 109 -377v-66h-758q9 -102 35 -163t80 -107q73 -63 203 -63q96 0 159 33.5t113 111.5l151 -125q-141 -192 -434 -192zM334 641h539q-18 161 -87 227q-60 57 -173 57
q-228 0 -279 -284zM302 1593h262l109 -360h-148z" />
    <glyph glyph-name="afii10071" unicode="&#x451;" horiz-adv-x="1189" 
d="M633 -20q-250 0 -397 172q-127 150 -127 378q0 266 159 424q137 137 345 137q236 0 362 -163q109 -141 109 -377v-66h-758q9 -102 35 -163t80 -107q73 -63 203 -63q96 0 159 33.5t113 111.5l151 -125q-141 -192 -434 -192zM334 641h539q-18 161 -87 227q-60 57 -173 57
q-228 0 -279 -284zM416 1530q54 0 93.5 -39.5t39.5 -93.5t-39.5 -93.5t-93.5 -39.5t-93.5 39.5t-39.5 93.5t39.5 93.5t93.5 39.5zM805 1530q52 0 92.5 -40.5t40.5 -92.5q0 -54 -39.5 -93.5t-93.5 -39.5t-93.5 39.5t-39.5 93.5t39.5 93.5t93.5 39.5z" />
    <glyph glyph-name="afii10099" unicode="&#x452;" horiz-adv-x="1289" 
d="M621 -231q115 8 167 46q56 39 77 133t21 300v411q0 139 -59 198q-52 52 -157 52q-128 0 -199 -81q-61 -70 -61 -183v-645h-215v1214h-147v156h147v172h215v-172h252v-156h-252v-309q101 186 334 186q184 0 276 -123q81 -108 81 -296v-418q0 -238 -29 -353.5t-106 -183.5
q-60 -52 -132.5 -73.5t-200.5 -26.5z" />
    <glyph glyph-name="afii10100" unicode="&#x453;" horiz-adv-x="940" 
d="M199 1071h692v-174h-477v-897h-215v1071zM562 1593h262l-224 -360h-147z" />
    <glyph glyph-name="afii10101" unicode="&#x454;" horiz-adv-x="1136" 
d="M644 -20q-258 0 -403 171q-127 149 -127 383q0 273 158 425q137 132 356 132q274 0 417 -194l-155 -111q-55 71 -114 102t-140 31q-261 0 -295 -301h471v-156h-473q30 -310 307 -310q92 0 152.5 30t115.5 104l162 -100q-150 -206 -432 -206z" />
    <glyph glyph-name="afii10102" unicode="&#x455;" horiz-adv-x="1063" 
d="M508 -20q-283 0 -434 192l141 129q63 -82 131 -115.5t173 -33.5q227 0 227 145q0 70 -58 103q-52 28 -204 63q-194 43 -274 126q-70 73 -70 194q0 152 125 236q107 73 277 73q236 0 357 -136l-133 -129q-50 51 -106 72t-141 21q-82 0 -132 -36q-46 -32 -46 -85
q0 -65 48 -96.5t189 -61.5q165 -34 240 -81q133 -87 133 -250q0 -164 -132 -252q-116 -78 -311 -78z" />
    <glyph glyph-name="afii10103" unicode="&#x456;" horiz-adv-x="606" 
d="M304 1528q53 0 92 -39.5t39 -93.5t-38.5 -92.5t-92.5 -38.5q-55 0 -94 38.5t-39 92.5q0 55 39 94t94 39zM196 1071h215v-1071h-215v1071z" />
    <glyph glyph-name="afii10104" unicode="&#x457;" horiz-adv-x="589" 
d="M187 1071h215v-1071h-215v1071zM101 1530q54 0 93.5 -39.5t39.5 -93.5t-39.5 -93.5t-93.5 -39.5t-93.5 39.5t-39.5 93.5t39.5 93.5t93.5 39.5zM490 1530q52 0 92.5 -40.5t40.5 -92.5q0 -54 -39.5 -93.5t-93.5 -39.5t-93.5 39.5t-39.5 93.5t39.5 93.5t93.5 39.5z" />
    <glyph glyph-name="afii10105" unicode="&#x458;" horiz-adv-x="597" 
d="M295 1528q53 0 92 -39.5t39 -93.5t-39 -92.5t-92 -38.5q-55 0 -94 38.5t-39 92.5q0 55 38.5 94t94.5 39zM402 -76q0 -163 -87 -243q-75 -70 -210 -70q-89 0 -158 39l43 153q46 -20 80 -20q117 0 117 127v1161h215v-1147z" />
    <glyph glyph-name="afii10106" unicode="&#x459;" horiz-adv-x="1765" 
d="M817 897h-362v-152q0 -459 -168 -745h-236q111 176 157 368.5t46 483.5v219h774v-377h243q213 0 300 -68q121 -89 121 -280q0 -205 -140 -291q-90 -55 -276 -55h-459v897zM1282 164q201 0 201 184t-201 184h-254v-368h254z" />
    <glyph glyph-name="afii10107" unicode="&#x45a;" horiz-adv-x="1802" 
d="M852 491h-438v-491h-215v1071h215v-412h438v412h209v-377h246q211 0 301 -68q121 -90 121 -280q0 -207 -139 -291q-91 -55 -279 -55h-459v491zM1319 164q201 0 201 184t-201 184h-258v-368h258z" />
    <glyph glyph-name="afii10108" unicode="&#x45b;" horiz-adv-x="1279" 
d="M195 1214h-147v156h147v172h215v-172h252v-156h-252v-309q101 186 328 186q181 0 271 -122q79 -107 79 -297v-672h-215v666q0 133 -58 192q-50 51 -149 51q-125 0 -195 -81q-61 -70 -61 -183v-645h-215v1214z" />
    <glyph glyph-name="afii10109" unicode="&#x45c;" horiz-adv-x="1173" 
d="M199 1071h215v-446h64q87 0 120 37q31 30 103 188q71 155 129 190q51 31 186 31h66v-164h-47q-54 0 -72.5 -4t-33.5 -19q-19 -20 -66 -128q-42 -101 -70.5 -135.5t-99.5 -69.5q65 -23 116 -71.5t113 -145.5l209 -334h-246l-186 311q-51 85 -100 120.5t-115 35.5h-70v-467
h-215v1071zM638 1593h262l-224 -360h-147z" />
    <glyph glyph-name="uni045D" unicode="&#x45d;" horiz-adv-x="1284" 
d="M199 1071h213v-686l459 569v117h213v-1071h-213v696l-459 -569v-127h-213v1071zM332 1593h262l109 -360h-148z" />
    <glyph glyph-name="afii10110" unicode="&#x45e;" horiz-adv-x="1050" 
d="M379 1567q9 -151 150 -151q138 0 147 151h154q-7 -303 -301 -303t-303 303h153zM121 -170q66 -43 133 -43q114 0 152 121l30 104l-403 1059h231l281 -768l260 768h219l-436 -1204q-91 -252 -319 -252q-122 0 -216 63z" />
    <glyph glyph-name="afii10193" unicode="&#x45f;" horiz-adv-x="1255" 
d="M199 1071h215v-897h424v897h215v-1071h-326l-22 -309h-158l-22 309h-326v1071z" />
    <glyph glyph-name="afii10050" unicode="&#x490;" horiz-adv-x="1126" 
d="M199 1464h690l31 244h156v-424h-658v-1284h-219v1464z" />
    <glyph glyph-name="afii10098" unicode="&#x491;" horiz-adv-x="940" 
d="M199 1071h508l22 215h158v-389h-477v-897h-211v1071z" />
    <glyph glyph-name="uni0492" unicode="&#x492;" horiz-adv-x="1113" 
d="M37 651v156h154v657h874v-176h-659v-481h428v-156h-428v-651h-215v651h-154z" />
    <glyph glyph-name="uni0493" unicode="&#x493;" horiz-adv-x="921" 
d="M42 534v156h141v381h693v-172h-478v-209h336v-156h-336v-534h-215v534h-141z" />
    <glyph glyph-name="uni0496" unicode="&#x496;" horiz-adv-x="1881" 
d="M1916 176v-530h-173l-31 354h-102l-215 387q-111 189 -178 237q-58 42 -170 44v-668h-213v668q-125 -2 -190 -60q-58 -52 -158 -221l-215 -387h-258l268 469q80 133 144.5 194.5t150.5 85.5q-93 47 -133 110q-34 55 -98 230q-47 124 -90 162.5t-136 38.5q-34 0 -63 -2
v176q51 4 84 4q144 0 229 -63q43 -33 76 -87t82 -173q92 -233 143 -281q27 -24 61.5 -33.5t102.5 -11.5v645h213v-645q76 2 113.5 15t66.5 48q44 53 127 263q49 119 82 173t76 87q85 63 229 63q31 0 84 -4v-176q-29 2 -65 2q-63 0 -93.5 -10.5t-53.5 -40.5
q-36 -45 -103 -226q-51 -129 -86.5 -175.5t-118.5 -88.5q88 -26 152 -87.5t143 -192.5l168 -293h148z" />
    <glyph glyph-name="uni0497" unicode="&#x497;" horiz-adv-x="1594" 
d="M1585 174v-483h-165l-23 309h-80l-180 325q-48 86 -91.5 121t-103.5 35h-41v-481h-209v481h-41q-60 0 -103.5 -34.5t-90.5 -121.5l-181 -325h-243l196 334q62 99 108.5 146.5t106.5 70.5q-71 40 -97 78t-83 188q-23 59 -46.5 74.5t-88.5 15.5h-47v164h66q84 0 126 -9.5
t71 -35.5q46 -40 110 -189q61 -145 92 -176.5t110 -31.5h35v442h209v-442h35q48 0 72 8t43 31q29 34 88 169q69 165 125 202q50 32 182 32h66v-164h-47q-50 0 -67 -4t-31 -19q-18 -20 -60 -128q-38 -97 -65.5 -133t-92.5 -72q62 -23 109 -70.5t106 -146.5l95 -160h126z" />
    <glyph glyph-name="uni049A" unicode="&#x49a;" horiz-adv-x="1350" 
d="M1352 180v-530h-170l-30 350h-82l-230 387q-104 173 -169 227t-169 54h-82v-668h-221v1464h221v-642h53q73 0 112 11t69 40q46 47 114 208q64 147 96.5 204t76.5 101q85 82 258 82q45 0 90 -4v-176q-29 2 -66 2q-66 0 -99 -11t-59 -41q-39 -45 -112 -224
q-54 -129 -90 -172.5t-129 -91.5q93 -25 163.5 -88t149.5 -193l176 -289h129z" />
    <glyph glyph-name="uni049B" unicode="&#x49b;" horiz-adv-x="1171" 
d="M1153 180v-483h-167l-23 303h-78l-186 311q-51 85 -100 120.5t-115 35.5h-70v-467h-215v1071h215v-446h64q87 0 120 37q31 30 103 188q71 155 129 190q51 31 186 31h66v-164h-47q-54 0 -72.5 -4t-33.5 -19q-19 -20 -66 -128q-42 -101 -70.5 -135.5t-99.5 -69.5
q64 -23 114.5 -71t114.5 -146l96 -154h135z" />
    <glyph glyph-name="uni049C" unicode="&#x49c;" horiz-adv-x="1393" 
d="M1087 468l285 -468h-256l-229 387l-36 60q-106 181 -161 226v-397h-145v391h-137v-667h-209v1464h209v-643h137v416h145v-414q36 40 127 258q69 160 98.5 213t71.5 92q85 82 252 82q45 0 90 -4v-176q-29 2 -66 2q-65 0 -97.5 -11t-57.5 -42q-35 -42 -113 -224
q-55 -129 -91.5 -172.5t-129.5 -91.5q93 -25 164 -88.5t149 -192.5z" />
    <glyph glyph-name="uni049D" unicode="&#x49d;" horiz-adv-x="1234" 
d="M984 334l208 -334h-245l-186 311l-11 18q-45 71 -62.5 92t-41.5 30v-283h-125v299h-117v-467h-205v1071h205v-446h117v262h125v-248q23 12 34 29t45 95q21 49 38 87q71 155 128 190q52 31 187 31h65v-164h-47q-54 0 -72.5 -4t-32.5 -19q-20 -20 -67 -128
q-41 -100 -70 -134.5t-100 -70.5q65 -23 117 -72t113 -145z" />
    <glyph glyph-name="uni04A2" unicode="&#x4a2;" horiz-adv-x="1513" 
d="M1107 0v643h-690v-643h-215v1464h215v-645h690v645h215v-1284h154v-530h-170l-29 350h-170z" />
    <glyph glyph-name="uni04A3" unicode="&#x4a3;" horiz-adv-x="1259" 
d="M861 0v459h-453v-459h-215v1071h215v-440h453v440h215v-891h135v-483h-166l-22 303h-162z" />
    <glyph glyph-name="uni04AE" unicode="&#x4ae;" horiz-adv-x="1169" 
d="M489 610l-512 854h244l381 -670l368 670h221l-487 -852v-612h-215v610z" />
    <glyph glyph-name="uni04AF" unicode="&#x4af;" horiz-adv-x="1066" 
d="M645 12v-383h-199v383l-406 1059h229l281 -772l263 772h215z" />
    <glyph glyph-name="uni04B0" unicode="&#x4b0;" horiz-adv-x="1169" 
d="M704 0h-215v268h-289v156h289v186l-512 854h243l382 -670l368 670h222l-488 -852v-188h291v-156h-291v-268z" />
    <glyph glyph-name="uni04B1" unicode="&#x4b1;" horiz-adv-x="1066" 
d="M885 0v-156h-241v-215h-199v215h-242v156h242v12l-406 1059h230l280 -772l262 772h215l-382 -1059v-12h241z" />
    <glyph glyph-name="uni04B2" unicode="&#x4b2;" horiz-adv-x="1328" 
d="M1312 176v-436h-151l-31 260h-107l-368 590l-371 -590h-229l487 751l-453 713h252l338 -543l336 543h227l-450 -709l369 -579h151z" />
    <glyph glyph-name="uni04B3" unicode="&#x4b3;" horiz-adv-x="1114" 
d="M814 0l-266 405l-275 -405h-223l379 549l-354 522h245l242 -365l240 365h225l-352 -506l266 -385h131v-483h-166l-22 303h-70z" />
    <glyph glyph-name="uni04B6" unicode="&#x4b6;" horiz-adv-x="1385" 
d="M1356 -354h-170l-31 354h-176v565q-120 -160 -389 -160q-221 0 -330 124q-94 109 -94 302v633h215v-627q0 -142 75 -203q65 -53 197 -53q160 0 249 84q77 73 77 191v608h215v-1286h162v-532z" />
    <glyph glyph-name="uni04B7" unicode="&#x4b7;" horiz-adv-x="1182" 
d="M783 0v395q-109 -115 -287 -115q-354 0 -354 355v436h215v-428q0 -102 46 -146.5t151 -44.5q107 0 172 61q57 53 57 130v428h215v-895h139v-483h-166l-22 307h-166z" />
    <glyph glyph-name="uni04B8" unicode="&#x4b8;" horiz-adv-x="1406" 
d="M740 123h-154v278q-420 16 -420 428v635h221v-627q0 -121 51 -180q47 -54 148 -65v491h154v-493q123 19 188 98q57 68 57 168v608h221v-1464h-221v561q-76 -111 -245 -147v-291z" />
    <glyph glyph-name="uni04B9" unicode="&#x4b9;" horiz-adv-x="1226" 
d="M812 1071h215v-1071h-215v395q-60 -66 -156 -92v-199h-125v180q-215 4 -307 96q-82 84 -82 255v436h215v-428q0 -103 37.5 -144t136.5 -47v328h125v-313q156 41 156 174v430z" />
    <glyph glyph-name="uni04BA" unicode="&#x4ba;" horiz-adv-x="1406" 
d="M387 1464v-561q123 160 391 160q223 0 332 -124q96 -109 96 -304v-635h-221v627q0 141 -74 201q-65 53 -198 53q-161 0 -249 -84q-77 -72 -77 -189v-608h-221v1464h221z" />
    <glyph glyph-name="uni04BB" unicode="&#x4bb;" horiz-adv-x="1261" 
d="M193 1542h215v-637q98 186 322 186q180 0 272 -124q80 -108 80 -295v-672h-215v662q0 137 -56 197q-50 52 -149 52q-125 0 -194 -83q-60 -71 -60 -187v-641h-215v1542z" />
    <glyph glyph-name="uni04C0" unicode="&#x4c0;" horiz-adv-x="655" 
d="M217 1464h221v-1464h-221v1464z" />
    <glyph glyph-name="uni04CF" unicode="&#x4cf;" horiz-adv-x="655" 
d="M217 1464h221v-1464h-221v1464z" />
    <glyph glyph-name="uni04D8" unicode="&#x4d8;" horiz-adv-x="1659" 
d="M834 -20q-194 0 -354 98q-156 96 -246 264q-92 172 -92 381q0 15 2 66q2 22 2 34h1143q-30 246 -169 373q-123 112 -312 112q-135 0 -237 -68q-79 -52 -150 -155l-187 103q211 296 576 296q205 0 368 -98q159 -95 248 -264q90 -172 90 -387q0 -354 -217 -568
q-188 -187 -465 -187zM834 156q212 0 336 152q108 132 121 349h-922q20 -246 161 -382q123 -119 304 -119z" />
    <glyph glyph-name="afii10846" unicode="&#x4d9;" horiz-adv-x="1189" 
d="M576 -20q-236 0 -362 163q-109 141 -109 377v66h758q-10 105 -34 166t-73 104q-75 63 -198 63q-158 0 -263 -130l-145 133q141 169 385 169q274 0 421 -172q124 -146 124 -378q0 -266 -159 -424q-138 -137 -345 -137zM576 146q228 0 279 284h-539q18 -161 86 -227
q60 -57 174 -57z" />
    <glyph glyph-name="uni04E2" unicode="&#x4e2;" horiz-adv-x="1499" 
d="M199 1464h211v-1016l678 881v135h211v-1464h-211v1030l-678 -880v-150h-211v1464zM496 1786h508v-156h-508v156z" />
    <glyph glyph-name="uni04E3" unicode="&#x4e3;" horiz-adv-x="1284" 
d="M199 1071h213v-686l459 569v117h213v-1071h-213v696l-459 -569v-127h-213v1071zM387 1450h508v-156h-508v156z" />
    <glyph glyph-name="uni04E8" unicode="&#x4e8;" horiz-adv-x="1659" 
d="M838 1484q192 0 349 -99q153 -96 240 -265q89 -173 89 -385q0 -354 -217 -568q-188 -187 -465 -187q-196 0 -356 99q-156 96 -245 266q-91 174 -91 388q0 215 90 388q89 170 246 265q160 98 360 98zM1289 823q-30 244 -166 373q-119 112 -295 112q-203 0 -326 -144
q-107 -126 -133 -341h920zM369 657q20 -246 161 -382q123 -119 304 -119q212 0 336 152q108 132 121 349h-922z" />
    <glyph glyph-name="uni04E9" unicode="&#x4e9;" horiz-adv-x="1257" 
d="M633 1091q239 0 386 -177q128 -153 128 -376q0 -261 -165 -420q-144 -138 -355 -138q-242 0 -390 176q-128 152 -128 376q0 263 166 422q144 137 358 137zM920 618q-18 151 -104 231q-75 70 -187 70q-129 0 -208 -91q-69 -78 -85 -210h584zM336 460q17 -155 103 -237
q74 -71 186 -71q133 0 210 91q68 78 85 217h-584z" />
    <glyph glyph-name="uni04EE" unicode="&#x4ee;" horiz-adv-x="1202" 
d="M13 1464h242l368 -878l308 878h225l-406 -1104q-47 -128 -78 -189.5t-69 -99.5q-91 -94 -260 -94q-84 0 -162 23l43 174q54 -15 100 -15q83 0 126 35.5t77 133.5zM347 1786h508v-156h-508v156z" />
    <glyph glyph-name="uni04EF" unicode="&#x4ef;" horiz-adv-x="1050" 
d="M121 -170q66 -43 133 -43q114 0 152 121l30 104l-403 1059h231l281 -768l260 768h219l-436 -1204q-91 -252 -319 -252q-122 0 -216 63zM271 1450h508v-156h-508v156z" />
    <glyph glyph-name="uni1E1E" unicode="&#x1e1e;" horiz-adv-x="1251" 
d="M202 1464h944v-176h-729v-504h578v-172h-578v-612h-215v1464zM691 1853q52 0 90.5 -38.5t38.5 -90.5t-38.5 -90.5t-90.5 -38.5t-90.5 38.5t-38.5 90.5t38.5 90.5t90.5 38.5z" />
    <glyph glyph-name="Wgrave" unicode="&#x1e80;" horiz-adv-x="1978" 
d="M57 1464h227l281 -1126l342 1126h176l336 -1132l295 1132h207l-391 -1464h-199l-338 1124l-348 -1124h-199zM700 1935h262l109 -340h-148z" />
    <glyph glyph-name="wgrave" unicode="&#x1e81;" horiz-adv-x="1711" 
d="M68 1071h227l215 -811l252 811h211l234 -811l223 811h213l-326 -1071h-225l-229 801l-252 -801h-226zM566 1593h262l109 -360h-148z" />
    <glyph glyph-name="Wacute" unicode="&#x1e82;" horiz-adv-x="1978" 
d="M57 1464h227l281 -1126l342 1126h176l336 -1132l295 1132h207l-391 -1464h-199l-338 1124l-348 -1124h-199zM1016 1935h262l-224 -340h-147z" />
    <glyph glyph-name="wacute" unicode="&#x1e83;" horiz-adv-x="1711" 
d="M68 1071h227l215 -811l252 811h211l234 -811l223 811h213l-326 -1071h-225l-229 801l-252 -801h-226zM900 1593h262l-224 -360h-147z" />
    <glyph glyph-name="Wdieresis" unicode="&#x1e84;" horiz-adv-x="1978" 
d="M57 1464h227l281 -1126l342 1126h176l336 -1132l295 1132h207l-391 -1464h-199l-338 1124l-348 -1124h-199zM792 1599q-54 0 -93.5 39.5t-39.5 93.5t39.5 93.5t93.5 39.5t93.5 -39.5t39.5 -93.5t-39.5 -93.5t-93.5 -39.5zM1181 1599q-54 0 -93.5 39.5t-39.5 93.5
t39.5 93.5t93.5 39.5q52 0 92.5 -40.5t40.5 -92.5q0 -54 -39.5 -93.5t-93.5 -39.5z" />
    <glyph glyph-name="wdieresis" unicode="&#x1e85;" horiz-adv-x="1711" 
d="M680 1530q54 0 93.5 -39.5t39.5 -93.5t-39.5 -93.5t-93.5 -39.5t-93.5 39.5t-39.5 93.5t39.5 93.5t93.5 39.5zM1069 1530q52 0 92.5 -40.5t40.5 -92.5q0 -54 -39.5 -93.5t-93.5 -39.5t-93.5 39.5t-39.5 93.5t39.5 93.5t93.5 39.5zM68 1071h227l215 -811l252 811h211
l234 -811l223 811h213l-326 -1071h-225l-229 801l-252 -801h-226z" />
    <glyph glyph-name="uni1EA0" unicode="&#x1ea0;" 
d="M240 0h-209l530 1464h230l522 -1464h-227l-117 342h-612zM910 514l-246 721l-248 -721h494zM674 -113q52 0 90.5 -38.5t38.5 -90.5t-38.5 -90.5t-90.5 -38.5t-90.5 38.5t-38.5 90.5t38.5 90.5t90.5 38.5z" />
    <glyph glyph-name="uni1EA1" unicode="&#x1ea1;" horiz-adv-x="1146" 
d="M1080 -4q-55 -6 -76 -6q-182 0 -236 157q-129 -167 -327 -167q-161 0 -255 95q-81 82 -81 208q0 236 276 317q135 38 373 43v55q0 123 -55 175q-48 46 -146 46q-155 0 -305 -127l-111 140q97 84 198.5 121.5t232.5 37.5q208 0 311 -113q90 -100 90 -276v-450
q0 -100 86 -100q17 0 25 2v-158zM754 498q-436 -3 -436 -203q0 -71 45.5 -110t128.5 -39q123 0 198 69q64 59 64 147v136zM574 -113q52 0 90.5 -38.5t38.5 -90.5t-38.5 -90.5t-90.5 -38.5t-90.5 38.5t-38.5 90.5t38.5 90.5t90.5 38.5z" />
    <glyph glyph-name="uni1EA2" unicode="&#x1ea2;" 
d="M617 1567v149q74 11 93.5 22t19.5 42q0 43 -43 43q-45 0 -71.5 -9.5t-98.5 -51.5l-56 86l25 16q108 72 195 72q82 0 133 -52q45 -46 45 -110q0 -57 -30 -88t-97 -45v-74h-115zM240 0h-209l530 1464h230l522 -1464h-227l-117 342h-612zM910 514l-246 721l-248 -721h494z
" />
    <glyph glyph-name="uni1EA3" unicode="&#x1ea3;" horiz-adv-x="1146" 
d="M508 1192v149q74 11 93.5 22t19.5 41q0 43 -43 43q-45 0 -71.5 -9.5t-98.5 -51.5l-56 86l25 17q108 71 195 71q82 0 133 -52q45 -45 45 -110q0 -56 -30 -87.5t-97 -44.5v-74h-115zM1080 -4q-55 -6 -76 -6q-182 0 -236 157q-129 -167 -327 -167q-161 0 -255 95
q-81 82 -81 208q0 236 276 317q135 38 373 43v55q0 123 -55 175q-48 46 -146 46q-155 0 -305 -127l-111 140q97 84 198.5 121.5t232.5 37.5q208 0 311 -113q90 -100 90 -276v-450q0 -100 86 -100q17 0 25 2v-158zM754 498q-436 -3 -436 -203q0 -71 45.5 -110t128.5 -39
q123 0 198 69q64 59 64 147v136z" />
    <glyph glyph-name="uni1EA4" unicode="&#x1ea4;" 
d="M951 1993h262l-224 -340h-75l63 -105h-147l-152 172l-151 -172h-144l209 336h178l97 -155zM240 0h-209l530 1464h230l522 -1464h-227l-117 342h-612zM910 514l-246 721l-248 -721h494z" />
    <glyph glyph-name="uni1EA5" unicode="&#x1ea5;" horiz-adv-x="1145" 
d="M822 1735h262l-223 -340h-90l94 -158h-146l-151 174l-152 -174h-143l209 338h178l74 -119zM1080 -4q-55 -6 -76 -6q-182 0 -236 157q-129 -167 -327 -167q-161 0 -255 95q-81 82 -81 208q0 236 276 317q135 38 373 43v55q0 123 -55 175q-48 46 -146 46q-155 0 -305 -127
l-111 140q97 84 198.5 121.5t232.5 37.5q208 0 311 -113q90 -100 90 -276v-450q0 -100 86 -100q17 0 25 2v-158zM754 498q-436 -3 -436 -203q0 -71 45.5 -110t128.5 -39q123 0 198 69q64 59 64 147v136z" />
    <glyph glyph-name="uni1EA6" unicode="&#x1ea6;" 
d="M758 2011h262l109 -340h-148zM590 1864h178l207 -336h-147l-152 172l-151 -172h-144zM240 0h-209l530 1464h230l522 -1464h-227l-117 342h-612zM910 514l-246 721l-248 -721h494z" />
    <glyph glyph-name="uni1EA7" unicode="&#x1ea7;" horiz-adv-x="1146" 
d="M648 1765h262l108 -340h-147zM490 1577h178l205 -338h-145l-152 174l-152 -174h-143zM1080 -4q-55 -6 -76 -6q-182 0 -236 157q-129 -167 -327 -167q-161 0 -255 95q-81 82 -81 208q0 236 276 317q135 38 373 43v55q0 123 -55 175q-48 46 -146 46q-155 0 -305 -127
l-111 140q97 84 198.5 121.5t232.5 37.5q208 0 311 -113q90 -100 90 -276v-450q0 -100 86 -100q17 0 25 2v-158zM754 498q-436 -3 -436 -203q0 -71 45.5 -110t128.5 -39q123 0 198 69q64 59 64 147v136z" />
    <glyph glyph-name="uni1EA8" unicode="&#x1ea8;" 
d="M940 1651v149q74 11 93.5 22t19.5 42q0 43 -45 43q-39 0 -67 -9.5t-83 -41.5q-12 -8 -18 -10l-56 86q76 51 122 69.5t100 18.5q80 0 132 -52q44 -46 44 -110q0 -57 -30 -88.5t-97 -44.5v-74h-115zM590 1853h178l207 -335h-147l-152 172l-151 -172h-144zM240 0h-209
l530 1464h230l522 -1464h-227l-117 342h-612zM910 514l-246 721l-248 -721h494z" />
    <glyph glyph-name="uni1EA9" unicode="&#x1ea9;" horiz-adv-x="1146" 
d="M793 1448v149q74 11 93.5 22t19.5 41q0 43 -43 43q-45 0 -71.5 -9.5t-98.5 -51.5l-56 86l25 17q108 71 195 71q82 0 133 -52q45 -45 45 -110q0 -56 -29.5 -87.5t-97.5 -45.5v-73h-115zM490 1577h178l205 -338h-145l-152 174l-152 -174h-143zM1080 -4q-55 -6 -76 -6
q-182 0 -236 157q-129 -167 -327 -167q-161 0 -255 95q-81 82 -81 208q0 236 276 317q135 38 373 43v55q0 123 -55 175q-48 46 -146 46q-155 0 -305 -127l-111 140q97 84 198.5 121.5t232.5 37.5q208 0 311 -113q90 -100 90 -276v-450q0 -100 86 -100q17 0 25 2v-158z
M754 498q-436 -3 -436 -203q0 -71 45.5 -110t128.5 -39q123 0 198 69q64 59 64 147v136z" />
    <glyph glyph-name="uni1EAA" unicode="&#x1eaa;" 
d="M473 1802l-125 10q20 109 79 163q52 48 126 48q57 0 154 -47q60 -33 94 -33q61 0 76 82l129 -12q-20 -107 -79 -161q-52 -48 -126 -48q-64 0 -156 47q-63 33 -94 33q-59 0 -78 -82zM381 1491l209 293h178l207 -293h-147l-152 150l-151 -150h-144zM240 0h-209l530 1464
h230l522 -1464h-227l-117 342h-612zM910 514l-246 721l-248 -721h494z" />
    <glyph glyph-name="uni1EAB" unicode="&#x1eab;" horiz-adv-x="1146" 
d="M242 1575q18 123 77 186q51 54 126 54q63 0 154 -53q63 -37 94 -37q60 0 78 92l129 -13q-22 -123 -81 -185q-52 -54 -126 -54q-58 0 -156 53q-66 37 -94 37q-61 0 -76 -92zM488 1524h178l205 -338h-145l-152 174l-152 -174h-143zM1080 -4q-55 -6 -76 -6q-182 0 -236 157
q-129 -167 -327 -167q-161 0 -255 95q-81 82 -81 208q0 236 276 317q135 38 373 43v55q0 123 -55 175q-48 46 -146 46q-155 0 -305 -127l-111 140q97 84 198.5 121.5t232.5 37.5q208 0 311 -113q90 -100 90 -276v-450q0 -100 86 -100q17 0 25 2v-158zM754 498
q-436 -3 -436 -203q0 -71 45.5 -110t128.5 -39q123 0 198 69q64 59 64 147v136z" />
    <glyph glyph-name="uni1EAC" unicode="&#x1eac;" 
d="M586 1935h178l205 -338h-145l-152 174l-152 -174h-143zM240 0h-209l530 1464h230l522 -1464h-227l-117 342h-612zM910 514l-246 721l-248 -721h494zM674 -113q52 0 90.5 -38.5t38.5 -90.5t-38.5 -90.5t-90.5 -38.5t-90.5 38.5t-38.5 90.5t38.5 90.5t90.5 38.5z" />
    <glyph glyph-name="uni1EAD" unicode="&#x1ead;" horiz-adv-x="1146" 
d="M486 1573h178l205 -338h-146l-151 174l-152 -174h-143zM1080 -4q-55 -6 -76 -6q-182 0 -236 157q-129 -167 -327 -167q-161 0 -255 95q-81 82 -81 208q0 236 276 317q135 38 373 43v55q0 123 -55 175q-48 46 -146 46q-155 0 -305 -127l-111 140q97 84 198.5 121.5
t232.5 37.5q208 0 311 -113q90 -100 90 -276v-450q0 -100 86 -100q17 0 25 2v-158zM754 498q-436 -3 -436 -203q0 -71 45.5 -110t128.5 -39q123 0 198 69q64 59 64 147v136zM574 -113q52 0 90.5 -38.5t38.5 -90.5t-38.5 -90.5t-90.5 -38.5t-90.5 38.5t-38.5 90.5t38.5 90.5
t90.5 38.5z" />
    <glyph glyph-name="uni1EAE" unicode="&#x1eae;" 
d="M721 2017h262l-223 -227h-147zM971 1806q-10 -101 -59 -164q-83 -108 -234 -108q-146 0 -227 106q-46 59 -60 166h156q14 -65 46 -93.5t91 -28.5q58 0 90 28.5t45 93.5h152zM240 0h-209l530 1464h230l522 -1464h-227l-117 342h-612zM910 514l-246 721l-248 -721h494z" />
    <glyph glyph-name="uni1EAF" unicode="&#x1eaf;" horiz-adv-x="1146" 
d="M617 1882h262l-223 -340h-148zM871 1546q-14 -128 -90 -198q-79 -76 -203 -76q-120 0 -197 74q-74 71 -88 200h154q26 -124 137 -124q58 0 89.5 29t45.5 95h152zM1080 -4q-55 -6 -76 -6q-182 0 -236 157q-129 -167 -327 -167q-161 0 -255 95q-81 82 -81 208
q0 236 276 317q135 38 373 43v55q0 123 -55 175q-48 46 -146 46q-155 0 -305 -127l-111 140q97 84 198.5 121.5t232.5 37.5q208 0 311 -113q90 -100 90 -276v-450q0 -100 86 -100q17 0 25 2v-158zM754 498q-436 -3 -436 -203q0 -71 45.5 -110t128.5 -39q123 0 198 69
q64 59 64 147v136z" />
    <glyph glyph-name="uni1EB0" unicode="&#x1eb0;" 
d="M396 2017h262l108 -223h-147zM969 1810q-10 -101 -59 -164q-83 -108 -234 -108q-146 0 -227 106q-46 58 -60 166h156q14 -65 46 -93.5t91 -28.5q58 0 89.5 28.5t45.5 93.5h152zM240 0h-209l530 1464h230l522 -1464h-227l-117 342h-612zM910 514l-246 721l-248 -721h494z
" />
    <glyph glyph-name="uni1EB1" unicode="&#x1eb1;" horiz-adv-x="1146" 
d="M295 1866h263l108 -340h-147zM869 1540q-14 -128 -90 -198q-79 -76 -203 -76q-120 0 -197 74q-74 71 -88 200h154q26 -124 137 -124q58 0 89.5 29t45.5 95h152zM1080 -4q-55 -6 -76 -6q-182 0 -236 157q-129 -167 -327 -167q-161 0 -255 95q-81 82 -81 208q0 236 276 317
q135 38 373 43v55q0 123 -55 175q-48 46 -146 46q-155 0 -305 -127l-111 140q97 84 198.5 121.5t232.5 37.5q208 0 311 -113q90 -100 90 -276v-450q0 -100 86 -100q17 0 25 2v-158zM754 498q-436 -3 -436 -203q0 -71 45.5 -110t128.5 -39q123 0 198 69q64 59 64 147v136z
" />
    <glyph glyph-name="uni1EB2" unicode="&#x1eb2;" 
d="M623 1706v121q75 9 94 17.5t19 33.5q0 35 -45 35q-42 0 -68 -7.5t-100 -41.5l-56 69q130 72 222 72q81 0 132 -42q44 -36 44 -89q0 -46 -29.5 -71t-97.5 -38v-59h-115zM971 1755q-11 -84 -59 -133q-88 -88 -234 -88q-130 0 -207 66q-67 58 -80 155h156q27 -100 137 -100
t135 100h152zM240 0h-209l530 1464h230l522 -1464h-227l-117 342h-612zM910 514l-246 721l-248 -721h494z" />
    <glyph glyph-name="uni1EB3" unicode="&#x1eb3;" horiz-adv-x="1146" 
d="M525 1532v150q74 10 93.5 21t19.5 42q0 43 -43 43q-45 0 -71.5 -9.5t-98.5 -51.5l-56 86l25 16q107 72 195 72q82 0 133 -52q45 -46 45 -110q0 -57 -29.5 -88t-97.5 -45v-74h-115zM867 1538q-14 -128 -90 -198q-79 -76 -203 -76q-120 0 -197 74q-74 71 -88 200h154
q26 -124 137 -124q58 0 89.5 29t45.5 95h152zM1080 -4q-55 -6 -76 -6q-182 0 -236 157q-129 -167 -327 -167q-161 0 -255 95q-81 82 -81 208q0 236 276 317q135 38 373 43v55q0 123 -55 175q-48 46 -146 46q-155 0 -305 -127l-111 140q97 84 198.5 121.5t232.5 37.5
q208 0 311 -113q90 -100 90 -276v-450q0 -100 86 -100q17 0 25 2v-158zM754 498q-436 -3 -436 -203q0 -71 45.5 -110t128.5 -39q123 0 198 69q64 59 64 147v136z" />
    <glyph glyph-name="uni1EB4" unicode="&#x1eb4;" 
d="M332 1808q18 113 78 173q52 51 125 51q53 0 155 -51q66 -33 95 -33q61 0 75 86l129 -13q-19 -114 -78 -172q-52 -51 -126 -51q-56 0 -156 51q-63 33 -94 33q-60 0 -78 -86zM967 1769q-11 -97 -59 -154q-88 -100 -234 -100q-145 0 -227 98q-46 56 -60 156h156
q14 -62 45.5 -88.5t91.5 -26.5q110 0 135 115h152zM240 0h-209l530 1464h230l522 -1464h-227l-117 342h-612zM910 514l-246 721l-248 -721h494z" />
    <glyph glyph-name="uni1EB5" unicode="&#x1eb5;" horiz-adv-x="1146" 
d="M240 1589q20 122 79 185q51 55 124 55q65 0 156 -53q63 -37 94 -37q61 0 76 92l129 -12q-20 -123 -79 -186q-52 -54 -126 -54q-58 0 -156 53q-66 37 -94 37q-59 0 -78 -92zM869 1513q-14 -128 -90 -198q-79 -76 -203 -76q-120 0 -197 74q-74 71 -88 200h154
q26 -124 137 -124q58 0 89.5 29t45.5 95h152zM1080 -4q-55 -6 -76 -6q-182 0 -236 157q-129 -167 -327 -167q-161 0 -255 95q-81 82 -81 208q0 236 276 317q135 38 373 43v55q0 123 -55 175q-48 46 -146 46q-155 0 -305 -127l-111 140q97 84 198.5 121.5t232.5 37.5
q208 0 311 -113q90 -100 90 -276v-450q0 -100 86 -100q17 0 25 2v-158zM754 498q-436 -3 -436 -203q0 -71 45.5 -110t128.5 -39q123 0 198 69q64 59 64 147v136z" />
    <glyph glyph-name="uni1EB6" unicode="&#x1eb6;" 
d="M508 1901q9 -165 166 -165q158 0 164 165h154q-7 -317 -318 -317q-310 0 -319 317h153zM240 0h-209l530 1464h230l522 -1464h-227l-117 342h-612zM910 514l-246 721l-248 -721h494zM674 -113q52 0 90.5 -38.5t38.5 -90.5t-38.5 -90.5t-90.5 -38.5t-90.5 38.5t-38.5 90.5
t38.5 90.5t90.5 38.5z" />
    <glyph glyph-name="uni1EB7" unicode="&#x1eb7;" horiz-adv-x="1146" 
d="M424 1573q9 -172 150 -172q73 0 108 41t39 131h154q-6 -324 -301 -324q-294 0 -303 324h153zM1080 -4q-55 -6 -76 -6q-182 0 -236 157q-129 -167 -327 -167q-161 0 -255 95q-81 82 -81 208q0 236 276 317q135 38 373 43v55q0 123 -55 175q-48 46 -146 46
q-155 0 -305 -127l-111 140q97 84 198.5 121.5t232.5 37.5q208 0 311 -113q90 -100 90 -276v-450q0 -100 86 -100q17 0 25 2v-158zM754 498q-436 -3 -436 -203q0 -71 45.5 -110t128.5 -39q123 0 198 69q64 59 64 147v136zM574 -113q52 0 90.5 -38.5t38.5 -90.5t-38.5 -90.5
t-90.5 -38.5t-90.5 38.5t-38.5 90.5t38.5 90.5t90.5 38.5z" />
    <glyph glyph-name="uni1EB8" unicode="&#x1eb8;" horiz-adv-x="1313" 
d="M202 1464h963v-176h-748v-463h606v-172h-606v-477h784v-176h-999v1464zM691 -113q52 0 90.5 -38.5t38.5 -90.5t-38.5 -90.5t-90.5 -38.5t-90.5 38.5t-38.5 90.5t38.5 90.5t90.5 38.5z" />
    <glyph glyph-name="uni1EB9" unicode="&#x1eb9;" horiz-adv-x="1189" 
d="M633 -20q-250 0 -397 172q-127 150 -127 378q0 266 159 424q137 137 345 137q236 0 362 -163q109 -141 109 -377v-66h-758q9 -102 35 -163t80 -107q73 -63 203 -63q96 0 159 33.5t113 111.5l151 -125q-141 -192 -434 -192zM334 641h539q-18 161 -87 227q-60 57 -173 57
q-228 0 -279 -284zM619 -113q52 0 90.5 -38.5t38.5 -90.5t-38.5 -90.5t-90.5 -38.5t-90.5 38.5t-38.5 90.5t38.5 90.5t90.5 38.5z" />
    <glyph glyph-name="uni1EBA" unicode="&#x1eba;" horiz-adv-x="1313" 
d="M634 1567v149q74 11 93.5 22t19.5 42q0 43 -43 43q-45 0 -71.5 -9.5t-98.5 -51.5l-56 86l25 16q108 72 195 72q82 0 133 -52q45 -46 45 -110q0 -57 -30 -88t-97 -45v-74h-115zM202 1464h963v-176h-748v-463h606v-172h-606v-477h784v-176h-999v1464z" />
    <glyph glyph-name="uni1EBB" unicode="&#x1ebb;" horiz-adv-x="1189" 
d="M545 1192v149q74 11 93.5 22t19.5 41q0 43 -43 43q-45 0 -71.5 -9.5t-98.5 -51.5l-56 86l25 17q108 71 195 71q82 0 133 -52q45 -45 45 -110q0 -56 -30 -87.5t-97 -44.5v-74h-115zM633 -20q-250 0 -397 172q-127 150 -127 378q0 266 159 424q137 137 345 137
q236 0 362 -163q109 -141 109 -377v-66h-758q9 -102 35 -163t80 -107q73 -63 203 -63q96 0 159 33.5t113 111.5l151 -125q-141 -192 -434 -192zM334 641h539q-18 161 -87 227q-60 57 -173 57q-228 0 -279 -284z" />
    <glyph glyph-name="uni1EBC" unicode="&#x1ebc;" horiz-adv-x="1313" 
d="M374 1620q18 122 77 185q51 55 126 55q55 0 153 -53q64 -37 95 -37q60 0 77 92l129 -13q-21 -123 -80 -185q-52 -54 -126 -54q-58 0 -156 53q-66 37 -94 37q-61 0 -76 -92zM202 1464h963v-176h-748v-463h606v-172h-606v-477h784v-176h-999v1464z" />
    <glyph glyph-name="uni1EBD" unicode="&#x1ebd;" horiz-adv-x="1189" 
d="M281 1284q18 121 77 184q51 55 126 55q58 0 153 -53q66 -36 97 -36q58 0 75 91l129 -12q-19 -122 -79 -185q-53 -54 -127 -54q-65 0 -156 53q-63 36 -92 36q-63 0 -78 -91zM633 -20q-250 0 -397 172q-127 150 -127 378q0 266 159 424q137 137 345 137q236 0 362 -163
q109 -141 109 -377v-66h-758q9 -102 35 -163t80 -107q73 -63 203 -63q96 0 159 33.5t113 111.5l151 -125q-141 -192 -434 -192zM334 641h539q-18 161 -87 227q-60 57 -173 57q-228 0 -279 -284z" />
    <glyph glyph-name="uni1EBE" unicode="&#x1ebe;" horiz-adv-x="1311" 
d="M968 1993h262l-223 -340h-76l64 -105h-148l-151 172l-152 -172h-143l209 336h178l96 -155zM202 1464h963v-176h-748v-463h606v-172h-606v-477h784v-176h-999v1464z" />
    <glyph glyph-name="uni1EBF" unicode="&#x1ebf;" horiz-adv-x="1187" 
d="M859 1735h262l-224 -340h-90l95 -158h-146l-151 174l-152 -174h-143l209 338h178l74 -119zM633 -20q-250 0 -397 172q-127 150 -127 378q0 266 159 424q137 137 345 137q236 0 362 -163q109 -141 109 -377v-66h-758q9 -102 35 -163t80 -107q73 -63 203 -63q96 0 159 33.5
t113 111.5l151 -125q-141 -192 -434 -192zM334 641h539q-18 161 -87 227q-60 57 -173 57q-228 0 -279 -284z" />
    <glyph glyph-name="uni1EC0" unicode="&#x1ec0;" horiz-adv-x="1313" 
d="M775 2011h263l108 -340h-147zM608 1864h178l207 -336h-148l-151 172l-152 -172h-143zM202 1464h963v-176h-748v-463h606v-172h-606v-477h784v-176h-999v1464z" />
    <glyph glyph-name="uni1EC1" unicode="&#x1ec1;" horiz-adv-x="1189" 
d="M684 1765h263l108 -340h-147zM527 1577h178l205 -338h-146l-151 174l-152 -174h-143zM633 -20q-250 0 -397 172q-127 150 -127 378q0 266 159 424q137 137 345 137q236 0 362 -163q109 -141 109 -377v-66h-758q9 -102 35 -163t80 -107q73 -63 203 -63q96 0 159 33.5
t113 111.5l151 -125q-141 -192 -434 -192zM334 641h539q-18 161 -87 227q-60 57 -173 57q-228 0 -279 -284z" />
    <glyph glyph-name="uni1EC2" unicode="&#x1ec2;" horiz-adv-x="1313" 
d="M957 1651v149q74 11 93.5 22t19.5 42q0 43 -45 43q-39 0 -67 -9.5t-83 -41.5q-12 -8 -18 -10l-56 86q76 51 122 69.5t100 18.5q80 0 132 -52q44 -46 44 -110q0 -57 -30 -88.5t-97 -44.5v-74h-115zM608 1853h178l207 -335h-148l-151 172l-152 -172h-143zM202 1464h963
v-176h-748v-463h606v-172h-606v-477h784v-176h-999v1464z" />
    <glyph glyph-name="uni1EC3" unicode="&#x1ec3;" horiz-adv-x="1189" 
d="M830 1448v149q74 11 93.5 22t19.5 41q0 43 -43 43q-45 0 -71.5 -9.5t-98.5 -51.5l-56 86l25 17q108 71 195 71q82 0 133 -52q45 -45 45 -110q0 -57 -29.5 -88t-97.5 -45v-73h-115zM527 1577h178l205 -338h-146l-151 174l-152 -174h-143zM633 -20q-250 0 -397 172
q-127 150 -127 378q0 266 159 424q137 137 345 137q236 0 362 -163q109 -141 109 -377v-66h-758q9 -102 35 -163t80 -107q73 -63 203 -63q96 0 159 33.5t113 111.5l151 -125q-141 -192 -434 -192zM334 641h539q-18 161 -87 227q-60 57 -173 57q-228 0 -279 -284z" />
    <glyph glyph-name="uni1EC4" unicode="&#x1ec4;" horiz-adv-x="1313" 
d="M491 1802l-125 10q20 109 79 163q51 48 126 48q56 0 153 -47q61 -33 94 -33q61 0 76 82l129 -12q-19 -107 -79 -161q-51 -48 -126 -48q-64 0 -155 47q-63 33 -94 33q-60 0 -78 -82zM399 1491l209 293h178l207 -293h-148l-151 150l-152 -150h-143zM202 1464h963v-176h-748
v-463h606v-172h-606v-477h784v-176h-999v1464z" />
    <glyph glyph-name="uni1EC5" unicode="&#x1ec5;" horiz-adv-x="1189" 
d="M279 1575q18 123 77 186q51 54 126 54q63 0 153 -53q64 -37 95 -37q60 0 77 92l129 -13q-21 -123 -80 -185q-52 -54 -126 -54q-58 0 -156 53q-66 37 -94 37q-61 0 -76 -92zM525 1524h178l205 -338h-146l-151 174l-152 -174h-143zM633 -20q-250 0 -397 172
q-127 150 -127 378q0 266 159 424q137 137 345 137q236 0 362 -163q109 -141 109 -377v-66h-758q9 -102 35 -163t80 -107q73 -63 203 -63q96 0 159 33.5t113 111.5l151 -125q-141 -192 -434 -192zM334 641h539q-18 161 -87 227q-60 57 -173 57q-228 0 -279 -284z" />
    <glyph glyph-name="uni1EC6" unicode="&#x1ec6;" horiz-adv-x="1313" 
d="M603 1935h179l204 -338h-145l-152 174l-151 -174h-143zM202 1464h963v-176h-748v-463h606v-172h-606v-477h784v-176h-999v1464zM691 -113q52 0 90.5 -38.5t38.5 -90.5t-38.5 -90.5t-90.5 -38.5t-90.5 38.5t-38.5 90.5t38.5 90.5t90.5 38.5z" />
    <glyph glyph-name="uni1EC7" unicode="&#x1ec7;" horiz-adv-x="1189" 
d="M523 1573h178l205 -338h-146l-151 174l-152 -174h-143zM633 -20q-250 0 -397 172q-127 150 -127 378q0 266 159 424q137 137 345 137q236 0 362 -163q109 -141 109 -377v-66h-758q9 -102 35 -163t80 -107q73 -63 203 -63q96 0 159 33.5t113 111.5l151 -125
q-141 -192 -434 -192zM334 641h539q-18 161 -87 227q-60 57 -173 57q-228 0 -279 -284zM619 -113q52 0 90.5 -38.5t38.5 -90.5t-38.5 -90.5t-90.5 -38.5t-90.5 38.5t-38.5 90.5t38.5 90.5t90.5 38.5z" />
    <glyph glyph-name="uni1EC8" unicode="&#x1ec8;" horiz-adv-x="658" 
d="M272 1567v149q74 11 93.5 22t19.5 42q0 43 -43 43q-45 0 -71.5 -9.5t-99.5 -51.5l-55 86l25 16q107 72 194 72q82 0 134 -52q45 -46 45 -110q0 -57 -30 -88t-97 -45v-74h-115zM220 1464h215v-1464h-215v1464z" />
    <glyph glyph-name="uni1EC9" unicode="&#x1ec9;" horiz-adv-x="597" 
d="M233 1192v149q74 11 93.5 22t19.5 41q0 43 -43 43q-45 0 -71.5 -9.5t-99.5 -51.5l-55 86l25 17q107 71 194 71q83 0 134 -52q45 -45 45 -110q0 -56 -30 -87.5t-97 -44.5v-74h-115zM190 1071h215v-1071h-215v1071z" />
    <glyph glyph-name="uni1ECA" unicode="&#x1eca;" horiz-adv-x="668" 
d="M226 1464h215v-1464h-215v1464zM335 -113q52 0 90.5 -38.5t38.5 -90.5t-38.5 -90.5t-90.5 -38.5t-90.5 38.5t-38.5 90.5t38.5 90.5t90.5 38.5z" />
    <glyph glyph-name="uni1ECB" unicode="&#x1ecb;" horiz-adv-x="606" 
d="M304 1528q53 0 92 -39.5t39 -93.5t-38.5 -92.5t-92.5 -38.5q-55 0 -94 38.5t-39 92.5q0 55 39 94t94 39zM196 1071h215v-1071h-215v1071zM304 -113q52 0 90.5 -38.5t38.5 -90.5t-38.5 -90.5t-90.5 -38.5t-90.5 38.5t-38.5 90.5t38.5 90.5t90.5 38.5z" />
    <glyph glyph-name="uni1ECC" unicode="&#x1ecc;" horiz-adv-x="1659" 
d="M836 1484q193 0 350 -99q153 -96 241 -265q89 -173 89 -385q0 -353 -217 -568q-188 -187 -465 -187q-196 0 -356 99q-156 96 -245 266q-91 174 -91 388q0 215 90 388q89 170 245 265q160 98 359 98zM824 1308q-221 0 -348 -180q-111 -156 -111 -397q0 -278 145 -437
q126 -138 322 -138q230 0 353 172q108 150 108 399q0 283 -145 442q-125 139 -324 139zM830 -113q52 0 90.5 -38.5t38.5 -90.5t-38.5 -90.5t-90.5 -38.5t-90.5 38.5t-38.5 90.5t38.5 90.5t90.5 38.5z" />
    <glyph glyph-name="uni1ECD" unicode="&#x1ecd;" horiz-adv-x="1257" 
d="M633 1091q239 0 386 -177q128 -153 128 -375q0 -262 -165 -421q-144 -138 -355 -138q-242 0 -390 176q-128 152 -128 376q0 263 166 422q144 137 358 137zM623 919q-143 0 -222 -117q-69 -102 -69 -267q0 -191 88 -294q78 -89 205 -89q149 0 229 116q70 101 70 267
q0 193 -91 295q-78 89 -210 89zM629 -113q52 0 90.5 -38.5t38.5 -90.5t-38.5 -90.5t-90.5 -38.5t-90.5 38.5t-38.5 90.5t38.5 90.5t90.5 38.5z" />
    <glyph glyph-name="uni1ECE" unicode="&#x1ece;" horiz-adv-x="1659" 
d="M773 1567v149q74 11 93.5 22t19.5 42q0 43 -43 43q-45 0 -71.5 -9.5t-98.5 -51.5l-56 86l25 16q108 72 195 72q82 0 133 -52q45 -46 45 -110q0 -57 -30 -88t-97 -45v-74h-115zM836 1484q193 0 350 -99q153 -96 241 -265q89 -173 89 -385q0 -353 -217 -568
q-188 -187 -465 -187q-196 0 -356 99q-156 96 -245 266q-91 174 -91 388q0 215 90 388q89 170 245 265q160 98 359 98zM824 1308q-221 0 -348 -180q-111 -156 -111 -397q0 -278 145 -437q126 -138 322 -138q230 0 353 172q108 150 108 399q0 283 -145 442q-125 139 -324 139
z" />
    <glyph glyph-name="uni1ECF" unicode="&#x1ecf;" horiz-adv-x="1257" 
d="M564 1192v149q74 11 93.5 22t19.5 41q0 43 -43 43q-45 0 -71.5 -9.5t-98.5 -51.5l-56 86l25 17q108 71 195 71q82 0 133 -52q45 -45 45 -110q0 -56 -30 -87.5t-97 -44.5v-74h-115zM633 1091q239 0 386 -177q128 -153 128 -375q0 -262 -165 -421q-144 -138 -355 -138
q-242 0 -390 176q-128 152 -128 376q0 263 166 422q144 137 358 137zM623 919q-143 0 -222 -117q-69 -102 -69 -267q0 -191 88 -294q78 -89 205 -89q149 0 229 116q70 101 70 267q0 193 -91 295q-78 89 -210 89z" />
    <glyph glyph-name="uni1ED0" unicode="&#x1ed0;" horiz-adv-x="1659" 
d="M1107 1993h262l-223 -340h-76l63 -105h-147l-152 172l-151 -172h-144l209 336h178l97 -155zM836 1484q193 0 350 -99q153 -96 241 -265q89 -173 89 -385q0 -353 -217 -568q-188 -187 -465 -187q-196 0 -356 99q-156 96 -245 266q-91 174 -91 388q0 215 90 388
q89 170 245 265q160 98 359 98zM824 1308q-221 0 -348 -180q-111 -156 -111 -397q0 -278 145 -437q126 -138 322 -138q230 0 353 172q108 150 108 399q0 283 -145 442q-125 139 -324 139z" />
    <glyph glyph-name="uni1ED1" unicode="&#x1ed1;" horiz-adv-x="1257" 
d="M877 1735h262l-223 -340h-90l94 -158h-145l-152 174l-152 -174h-143l209 338h178l74 -119zM633 1091q239 0 386 -177q128 -153 128 -375q0 -262 -165 -421q-144 -138 -355 -138q-242 0 -390 176q-128 152 -128 376q0 263 166 422q144 137 358 137zM623 919
q-143 0 -222 -117q-69 -102 -69 -267q0 -191 88 -294q78 -89 205 -89q149 0 229 116q70 101 70 267q0 193 -91 295q-78 89 -210 89z" />
    <glyph glyph-name="uni1ED2" unicode="&#x1ed2;" horiz-adv-x="1659" 
d="M914 2011h262l109 -340h-148zM746 1864h178l207 -336h-147l-152 172l-151 -172h-144zM836 1484q193 0 350 -99q153 -96 241 -265q89 -173 89 -385q0 -353 -217 -568q-188 -187 -465 -187q-196 0 -356 99q-156 96 -245 266q-91 174 -91 388q0 215 90 388q89 170 245 265
q160 98 359 98zM824 1308q-221 0 -348 -180q-111 -156 -111 -397q0 -278 145 -437q126 -138 322 -138q230 0 353 172q108 150 108 399q0 283 -145 442q-125 139 -324 139z" />
    <glyph glyph-name="uni1ED3" unicode="&#x1ed3;" horiz-adv-x="1257" 
d="M703 1765h262l109 -340h-148zM545 1577h178l205 -338h-145l-152 174l-151 -174h-144zM633 1091q239 0 386 -177q128 -153 128 -375q0 -262 -165 -421q-144 -138 -355 -138q-242 0 -390 176q-128 152 -128 376q0 263 166 422q144 137 358 137zM623 919q-143 0 -222 -117
q-69 -102 -69 -267q0 -191 88 -294q78 -89 205 -89q149 0 229 116q70 101 70 267q0 193 -91 295q-78 89 -210 89z" />
    <glyph glyph-name="uni1ED4" unicode="&#x1ed4;" horiz-adv-x="1659" 
d="M1096 1651v149q74 11 93.5 22t19.5 42q0 43 -45 43q-39 0 -67 -9.5t-83 -41.5q-12 -8 -18 -10l-56 86q76 51 122 69.5t100 18.5q80 0 132 -52q44 -46 44 -110q0 -57 -30 -88.5t-97 -44.5v-74h-115zM746 1853h178l207 -335h-147l-152 172l-151 -172h-144zM836 1484
q193 0 350 -99q153 -96 241 -265q89 -173 89 -385q0 -353 -217 -568q-188 -187 -465 -187q-196 0 -356 99q-156 96 -245 266q-91 174 -91 388q0 215 90 388q89 170 245 265q160 98 359 98zM824 1308q-221 0 -348 -180q-111 -156 -111 -397q0 -278 145 -437
q126 -138 322 -138q230 0 353 172q108 150 108 399q0 283 -145 442q-125 139 -324 139z" />
    <glyph glyph-name="uni1ED5" unicode="&#x1ed5;" horiz-adv-x="1257" 
d="M848 1448v149q74 11 93.5 22t19.5 41q0 43 -43 43q-45 0 -71.5 -9.5t-98.5 -51.5l-56 86l25 17q108 71 195 71q82 0 133 -52q45 -45 45 -110q0 -57 -29.5 -88t-97.5 -45v-73h-115zM545 1577h178l205 -338h-145l-152 174l-151 -174h-144zM633 1091q239 0 386 -177
q128 -153 128 -375q0 -262 -165 -421q-144 -138 -355 -138q-242 0 -390 176q-128 152 -128 376q0 263 166 422q144 137 358 137zM623 919q-143 0 -222 -117q-69 -102 -69 -267q0 -191 88 -294q78 -89 205 -89q149 0 229 116q70 101 70 267q0 193 -91 295q-78 89 -210 89z
" />
    <glyph glyph-name="uni1ED6" unicode="&#x1ed6;" horiz-adv-x="1659" 
d="M629 1802l-125 10q20 109 79 163q52 48 126 48q57 0 154 -47q60 -33 94 -33q61 0 76 82l129 -12q-20 -107 -79 -161q-52 -48 -126 -48q-64 0 -156 47q-62 33 -94 33q-59 0 -78 -82zM537 1491l209 293h178l207 -293h-147l-152 150l-151 -150h-144zM836 1484q193 0 350 -99
q153 -96 241 -265q89 -173 89 -385q0 -353 -217 -568q-188 -187 -465 -187q-196 0 -356 99q-156 96 -245 266q-91 174 -91 388q0 215 90 388q89 170 245 265q160 98 359 98zM824 1308q-221 0 -348 -180q-111 -156 -111 -397q0 -278 145 -437q126 -138 322 -138
q230 0 353 172q108 150 108 399q0 283 -145 442q-125 139 -324 139z" />
    <glyph glyph-name="uni1ED7" unicode="&#x1ed7;" horiz-adv-x="1257" 
d="M297 1575q18 123 77 186q52 54 126 54q63 0 154 -53q63 -37 94 -37q60 0 78 92l129 -13q-22 -123 -81 -185q-52 -54 -126 -54q-58 0 -156 53q-66 37 -94 37q-61 0 -76 -92zM543 1524h178l205 -338h-145l-152 174l-151 -174h-144zM633 1091q239 0 386 -177
q128 -153 128 -375q0 -262 -165 -421q-144 -138 -355 -138q-242 0 -390 176q-128 152 -128 376q0 263 166 422q144 137 358 137zM623 919q-143 0 -222 -117q-69 -102 -69 -267q0 -191 88 -294q78 -89 205 -89q149 0 229 116q70 101 70 267q0 193 -91 295q-78 89 -210 89z
" />
    <glyph glyph-name="uni1ED8" unicode="&#x1ed8;" horiz-adv-x="1659" 
d="M742 1935h178l205 -338h-145l-152 174l-151 -174h-144zM836 1484q193 0 350 -99q153 -96 241 -265q89 -173 89 -385q0 -353 -217 -568q-188 -187 -465 -187q-196 0 -356 99q-156 96 -245 266q-91 174 -91 388q0 215 90 388q89 170 245 265q160 98 359 98zM824 1308
q-221 0 -348 -180q-111 -156 -111 -397q0 -278 145 -437q126 -138 322 -138q230 0 353 172q108 150 108 399q0 283 -145 442q-125 139 -324 139zM830 -113q52 0 90.5 -38.5t38.5 -90.5t-38.5 -90.5t-90.5 -38.5t-90.5 38.5t-38.5 90.5t38.5 90.5t90.5 38.5z" />
    <glyph glyph-name="uni1ED9" unicode="&#x1ed9;" horiz-adv-x="1257" 
d="M541 1573h178l205 -338h-145l-152 174l-151 -174h-144zM633 1091q239 0 386 -177q128 -153 128 -375q0 -262 -165 -421q-144 -138 -355 -138q-242 0 -390 176q-128 152 -128 376q0 263 166 422q144 137 358 137zM623 919q-143 0 -222 -117q-69 -102 -69 -267
q0 -191 88 -294q78 -89 205 -89q149 0 229 116q70 101 70 267q0 193 -91 295q-78 89 -210 89zM629 -113q52 0 90.5 -38.5t38.5 -90.5t-38.5 -90.5t-90.5 -38.5t-90.5 38.5t-38.5 90.5t38.5 90.5t90.5 38.5z" />
    <glyph glyph-name="uni1EDA" unicode="&#x1eda;" horiz-adv-x="1659" 
d="M857 1935h262l-223 -340h-148zM1232 1356q138 25 141 129q-119 6 -119 110q0 48 33.5 79.5t85.5 31.5q60 0 95.5 -45t35.5 -121q0 -108 -53 -185q-45 -66 -121 -92q186 -211 186 -528q0 -353 -217 -568q-188 -187 -465 -187q-196 0 -356 99q-156 96 -245 266
q-91 174 -91 388t90 388q88 169 244 265q159 98 356 98q226 0 400 -128zM824 1308q-221 0 -348 -180q-111 -156 -111 -397q0 -278 145 -437q126 -138 322 -138q230 0 353 172q108 150 108 399q0 283 -145 442q-125 139 -324 139z" />
    <glyph glyph-name="uni1EDB" unicode="&#x1edb;" horiz-adv-x="1254" 
d="M654 1593h262l-223 -360h-148zM938 991q119 31 125 121q-118 6 -118 111q0 48 33.5 79t84.5 31q60 0 95.5 -44.5t35.5 -119.5q0 -103 -52 -174q-45 -61 -120 -84q125 -155 125 -372q0 -262 -165 -421q-144 -138 -355 -138q-242 0 -390 176q-128 152 -128 376
q0 262 165 421q144 138 355 138q178 0 309 -100zM623 919q-143 0 -222 -117q-69 -102 -69 -267q0 -191 88 -294q78 -89 205 -89q149 0 229 116q70 101 70 267q0 193 -91 295q-78 89 -210 89z" />
    </font>
</defs>
</svg>
