<?xml version="1.0" standalone="no"?>
<!DOCTYPE svg PUBLIC "-//W3C//DTD SVG 1.1//EN" "http://www.w3.org/Graphics/SVG/1.1/DTD/svg11.dtd" >
<svg xmlns="http://www.w3.org/2000/svg" xmlns:xlink="http://www.w3.org/1999/xlink" version="1.1">
<metadata>
Created by FontForge 20170731 at Mon Nov 19 19:13:55 2018
 By Aleksey,,,
Copyright 2004 - 2010 by Robert Bosch GmbH
</metadata>
<defs>
<font id="BoschSans-RegularItalic" horiz-adv-x="1219" >
  <font-face 
    font-family="Bosch Sans Regular"
    font-weight="400"
    font-style="italic"
    font-stretch="normal"
    units-per-em="2048"
    panose-1="2 11 6 4 2 2 2 9 2 4"
    ascent="1638"
    descent="-410"
    x-height="1071"
    cap-height="1464"
    bbox="-493 -496 2406 2126"
    underline-thickness="137"
    underline-position="-539"
    slope="-11"
    unicode-range="U+0020-FB02"
  />
<missing-glyph horiz-adv-x="748" 
d="M68 0v1365h544v-1365h-544zM136 68h408v1229h-408v-1229z" />
    <glyph glyph-name="fi" unicode="fi" horiz-adv-x="1247" 
d="M305 934h-147l26 137h148l37 186q31 159 127 238q84 69 209 69q113 0 192 -61l-72 -127q-58 47 -125 47q-68 0 -107.5 -40.5t-57.5 -129.5l-37 -182h223l-27 -137h-223l-180 -934h-166zM1143 1509q44 0 72 -26.5t28 -67.5q0 -49 -35 -84t-84 -35q-42 0 -69 28t-27 70
q0 48 33.5 81.5t81.5 33.5zM989 1071h168l-209 -1071h-168z" />
    <glyph glyph-name="fl" unicode="fl" horiz-adv-x="1293" 
d="M305 934h-147l26 137h148l37 186q31 159 127 238q84 69 209 69q113 0 192 -61l-72 -127q-58 47 -125 47q-68 0 -107.5 -40.5t-57.5 -129.5l-37 -182h223l-27 -137h-223l-180 -934h-166zM1024 -16q-227 0 -227 190q0 34 10 92l248 1276h170l-250 -1290q-4 -21 -4 -39
q0 -41 21.5 -64.5t58.5 -23.5q60 0 108 35l4 -150q-62 -26 -139 -26z" />
    <glyph glyph-name=".notdef" horiz-adv-x="748" 
d="M68 0v1365h544v-1365h-544zM136 68h408v1229h-408v-1229z" />
    <glyph glyph-name="glyph1" horiz-adv-x="0" 
 />
    <glyph glyph-name="glyph2" horiz-adv-x="659" 
 />
    <glyph glyph-name="space" unicode=" " horiz-adv-x="659" 
 />
    <glyph glyph-name="exclam" unicode="!" horiz-adv-x="722" 
d="M412 1016l88 448h182l-92 -469l-155 -555h-91zM338 250q52 0 86.5 -34.5t34.5 -86.5q0 -58 -40 -97.5t-99 -39.5q-53 0 -88 34.5t-35 86.5q0 57 41 97t100 40z" />
    <glyph glyph-name="quotedbl" unicode="&#x22;" horiz-adv-x="816" 
d="M343 1464h180l-139 -543h-121zM671 1464h180l-139 -543h-121z" />
    <glyph glyph-name="numbersign" unicode="#" horiz-adv-x="1157" 
d="M338 592h-193l29 143h198l66 267h-193l29 143h199l78 319h124l-79 -319h229l80 319h125l-80 -319h199l-29 -143h-205l-65 -267h198l-29 -143h-204l-78 -324h-125l78 324h-230l-77 -324h-123zM725 735l65 267h-229l-66 -267h230z" />
    <glyph glyph-name="dollar" unicode="$" horiz-adv-x="1243" 
d="M396 -276l51 270q-159 31 -259 136q-87 90 -120 227l158 55q43 -225 248 -281l112 576q-192 83 -262 172q-61 79 -61 202q0 198 146 308q127 95 327 94l37 182h118l-39 -197q234 -50 310 -280l-156 -41q-56 144 -180 182l-99 -506q213 -88 288 -181q67 -83 67 -214
q0 -218 -160 -341q-139 -106 -358 -105l-50 -258h-118zM617 866l92 480q-146 0 -221 -72q-65 -63 -65 -172q0 -85 40.5 -134.5t153.5 -101.5zM590 119q166 2 250 87q74 75 74 204q0 89 -45.5 142t-171.5 110z" />
    <glyph glyph-name="percent" unicode="%" horiz-adv-x="1786" 
d="M577 1476q139 0 214 -101q66 -88 66 -231q0 -216 -119 -355q-104 -120 -249 -120q-138 0 -218 103q-69 90 -69 229q0 214 122 354q106 121 253 121zM1361 1464h139l-991 -1464h-139zM563 1351q-101 0 -157 -109q-50 -95 -50 -245q0 -203 145 -203q99 0 157 110
q50 96 50 242q0 205 -145 205zM1388 795q139 0 214 -101q66 -88 66 -231q0 -216 -119 -355q-104 -120 -249 -120q-138 0 -218 103q-69 90 -69 229q0 214 122 354q106 121 253 121zM1373 670q-100 0 -157 -109q-49 -95 -49 -245q0 -203 145 -203q98 0 156 111q50 95 50 241
q0 205 -145 205z" />
    <glyph glyph-name="ampersand" unicode="&#x26;" horiz-adv-x="1300" 
d="M1155 2q-40 -14 -90 -14q-122 0 -229 106q-154 -110 -344 -110q-204 0 -320 122q-100 106 -100 273q0 173 110 293q96 105 296 192q-21 100 -21 199q0 197 109 309q94 98 241 98q125 0 197 -78q63 -69 63 -176q0 -145 -110 -246q-98 -89 -301 -165q68 -242 219 -477
q95 137 166 385h147q-86 -321 -233 -502q40 -46 75 -65t80 -19q27 0 60 8zM627 920q168 65 232 138q56 64 56 160q0 127 -120 127q-92 0 -140 -81q-42 -70 -42 -189q0 -83 14 -155zM504 748q-147 -70 -208 -166q-54 -83 -54 -201q0 -134 79 -205q68 -61 183 -61
q138 0 254 84q-179 290 -254 549z" />
    <glyph glyph-name="quotesingle" unicode="'" horiz-adv-x="491" 
d="M343 1464h180l-139 -543h-121z" />
    <glyph glyph-name="parenleft" unicode="(" horiz-adv-x="889" 
d="M441 -303q-94 169 -137 333.5t-43 358.5q0 439 227 823q109 184 293 377h158q-288 -327 -405 -630q-103 -265 -103 -580q0 -191 36 -352t116 -330h-142z" />
    <glyph glyph-name="parenright" unicode=")" horiz-adv-x="883" 
d="M487 1589q94 -169 137 -333.5t43 -356.5q0 -441 -227 -825q-61 -104 -123 -184t-170 -193h-158q288 327 405 630q103 266 103 580q0 190 -36 351.5t-116 330.5h142z" />
    <glyph glyph-name="asterisk" unicode="*" horiz-adv-x="920" 
d="M262 917l232 240l-238 74l66 139l217 -121l28 293h152l-80 -297l250 109l37 -140l-277 -61l144 -250l-129 -68l-101 250l-190 -250z" />
    <glyph glyph-name="plus" unicode="+" horiz-adv-x="1166" 
d="M532 633h-348l27 135h348l82 418h145l-82 -418h346l-26 -135h-346l-82 -418h-146z" />
    <glyph glyph-name="comma" unicode="," horiz-adv-x="636" 
d="M38 -186q145 30 177 180q-117 16 -117 121q0 57 39 96t96 39q60 0 94.5 -40.5t34.5 -111.5q0 -160 -102 -272q-46 -51 -100 -75t-140 -34z" />
    <glyph glyph-name="hyphen" unicode="-" horiz-adv-x="627" 
d="M141 745h430l-29 -154h-430z" />
    <glyph glyph-name="period" unicode="." horiz-adv-x="641" 
d="M244 250q52 0 86.5 -34.5t34.5 -86.5q0 -58 -40 -97.5t-99 -39.5q-53 0 -88 34.5t-35 86.5q0 57 41 97t100 40z" />
    <glyph glyph-name="slash" unicode="/" horiz-adv-x="872" 
d="M826 1589h160l-946 -1892h-160z" />
    <glyph glyph-name="zero" unicode="0" horiz-adv-x="1246" 
d="M751 1482q218 0 335 -173q101 -151 101 -402q0 -243 -82 -465q-71 -192 -182 -307q-149 -151 -342 -151q-215 0 -333 180q-103 157 -103 411q0 335 139 594q89 162 220 243q114 70 247 70zM743 1347q-185 0 -299 -219q-125 -246 -125 -579q0 -430 268 -430q87 0 164 57
t129 160q129 252 129 581q0 218 -80 331q-69 99 -186 99z" />
    <glyph glyph-name="one" unicode="1" horiz-adv-x="1274" 
d="M911 1491h104l-291 -1491h-164l236 1210q-72 -39 -196.5 -66.5t-227.5 -27.5l-2 106q168 17 319 96q136 70 222 173z" />
    <glyph glyph-name="two" unicode="2" horiz-adv-x="1244" 
d="M80 141q384 286 506.5 388.5t205.5 205.5q152 185 152 373q0 119 -63 181q-55 54 -150 54q-111 0 -183.5 -65t-132.5 -219l-149 41q134 382 475 382q189 0 292 -113q89 -99 89 -257q0 -269 -272 -541q-97 -96 -218.5 -188.5t-355.5 -247.5h717l-27 -135h-913z" />
    <glyph glyph-name="three" unicode="3" horiz-adv-x="1245" 
d="M265 1137q125 345 471 345q196 0 310 -113q98 -98 98 -249q0 -268 -297 -364q219 -88 219 -327q0 -213 -154 -337q-133 -108 -337 -108q-222 0 -357 125q-60 57 -91.5 125t-45.5 170l166 22q23 -168 115 -242q81 -65 225 -65q156 0 234 91q69 79 69 218q0 273 -287 273
h-119l29 135h123q340 0 340 274q0 116 -77 181q-68 56 -175 56q-122 0 -195 -57.5t-131 -197.5z" />
    <glyph glyph-name="four" unicode="4" horiz-adv-x="1243" 
d="M744 311h-696l31 164l878 1012h176l-202 -1041h192l-24 -135h-195l-59 -311h-160zM771 446l160 821l-701 -821h541z" />
    <glyph glyph-name="five" unicode="5" horiz-adv-x="1244" 
d="M433 856q117 109 284 109q186 0 286 -124q87 -107 87 -284q0 -266 -167 -432q-145 -143 -353 -143q-194 0 -315 104q-106 91 -148 254l158 37q28 -101 61 -147q82 -113 242 -113q174 0 269 134q83 116 83 306q0 273 -244 273q-175 0 -293 -148h-141l203 782h741l-28 -143
h-605z" />
    <glyph glyph-name="six" unicode="6" horiz-adv-x="1246" 
d="M1064 1110q-29 126 -83.5 179.5t-154.5 53.5q-206 0 -338 -227q-77 -133 -127 -371q139 185 367 185q192 0 305 -129q99 -113 99 -283q0 -246 -166 -402q-145 -134 -350 -134q-229 0 -344 160q-101 141 -101 386q0 341 158 624q96 171 239 256q125 74 271 74
q160 0 258 -88q47 -43 74 -96t51 -149zM691 797q-167 0 -264 -116q-84 -101 -84 -257q0 -154 86 -237q75 -72 199 -72q157 0 249 125q81 108 81 272q0 145 -80 220q-69 65 -187 65z" />
    <glyph glyph-name="seven" unicode="7" horiz-adv-x="1254" 
d="M294 0q104 446 317 781q185 293 480 548h-795l27 135h950l-31 -160q-322 -255 -527 -619q-178 -318 -247 -685h-174z" />
    <glyph glyph-name="eight" unicode="8" horiz-adv-x="1243" 
d="M905 770q219 -117 219 -334q0 -215 -165 -343q-143 -111 -357 -111q-235 0 -380 133q-126 116 -126 284q0 157 96 263q49 56 107.5 88.5t161.5 60.5q-160 99 -160 272q0 184 147 299q128 100 312 100q199 0 322 -115q106 -100 106 -245q0 -258 -283 -352zM752 1351
q-135 0 -211 -82q-66 -71 -66 -184q0 -118 81 -180q70 -55 188 -55q129 0 202 82q64 70 64 182q0 116 -79 181q-69 56 -179 56zM624 723q-166 0 -262 -98q-84 -86 -84 -217q0 -141 102 -221q89 -70 228 -70q163 0 254 99q80 87 80 222q0 137 -100 216q-86 69 -218 69z" />
    <glyph glyph-name="nine" unicode="9" horiz-adv-x="1246" 
d="M254 354q32 -123 93.5 -178t168.5 -55q212 0 332 223q40 76 64 159.5t48 233.5q-136 -166 -360 -166q-193 0 -308 132q-100 115 -100 288q0 228 160 369q139 122 342 122q238 0 353 -162q100 -142 100 -401q0 -263 -82 -485q-71 -193 -188 -305q-154 -147 -369 -147
q-162 0 -267 86q-54 44 -87 100t-58 147zM694 1349q-160 0 -250 -113q-78 -98 -78 -254q0 -140 81 -214q71 -64 190 -64q163 0 258 108q82 94 82 238q0 148 -86 229q-75 70 -197 70z" />
    <glyph glyph-name="colon" unicode=":" horiz-adv-x="633" 
d="M363 858q52 0 86.5 -34.5t34.5 -86.5q0 -58 -40 -97.5t-99 -39.5q-53 0 -88 34.5t-35 86.5q0 57 41 97t100 40zM244 250q52 0 86.5 -34.5t34.5 -86.5q0 -58 -40 -97.5t-99 -39.5q-53 0 -88 34.5t-35 86.5q0 57 41 97t100 40z" />
    <glyph glyph-name="semicolon" unicode=";" horiz-adv-x="627" 
d="M358 858q52 0 86.5 -34.5t34.5 -86.5q0 -58 -40 -97.5t-99 -39.5q-53 0 -88 34.5t-35 86.5q0 57 41 97t100 40zM38 -186q145 30 177 180q-117 16 -117 121q0 57 39 96t96 39q60 0 94.5 -40.5t34.5 -111.5q0 -160 -102 -272q-46 -51 -100 -75t-140 -34z" />
    <glyph glyph-name="less" unicode="&#x3c;" horiz-adv-x="1167" 
d="M212 588l27 143l829 406l-35 -179l-651 -307l530 -309l-30 -160z" />
    <glyph glyph-name="equal" unicode="=" horiz-adv-x="1166" 
d="M273 913h770l-28 -139h-770zM202 545h770l-29 -139h-770z" />
    <glyph glyph-name="greater" unicode="&#x3e;" horiz-adv-x="1167" 
d="M184 360l651 308l-530 309l30 160l670 -406l-27 -143l-829 -406z" />
    <glyph glyph-name="question" unicode="?" horiz-adv-x="1064" 
d="M430 563q20 110 78 182.5t184 147.5q118 71 164.5 130.5t46.5 139.5q0 90 -62 140q-54 44 -141 44q-212 0 -305 -254l-139 37q54 182 183 273q112 79 270 79q177 0 276 -97q86 -85 86 -220q0 -147 -123 -258q-57 -52 -196 -135q-86 -52 -124.5 -104.5t-54.5 -137.5
l-16 -90h-149zM424 250q52 0 86.5 -34.5t34.5 -86.5q0 -58 -40 -97.5t-99 -39.5q-53 0 -88 34.5t-35 86.5q0 57 41 97t100 40z" />
    <glyph glyph-name="at" unicode="@" horiz-adv-x="1859" 
d="M1375 -178q-131 -83 -246 -116t-272 -33q-330 0 -533 203q-112 113 -169 275q-50 142 -50 300q0 243 120 450q117 201 316 318q206 121 447 121q219 0 397 -95q173 -92 271 -255q100 -168 100 -375q0 -258 -132 -413q-114 -134 -284 -134q-197 0 -225 188
q-67 -108 -142 -156t-176 -48q-140 0 -215 102q-65 88 -65 234q0 251 143 416q124 143 295 143q155 0 215 -142l29 119h155l-96 -467q-16 -82 -16 -127q0 -133 115 -133q125 0 198 130q64 113 64 286q0 289 -198 454q-171 144 -437 144q-210 0 -379 -99q-165 -96 -259 -267
q-96 -174 -96 -390q0 -324 197 -508q157 -145 422 -145q126 0 220.5 27.5t215.5 99.5zM951 806q-123 0 -202 -136q-68 -118 -68 -284q0 -193 145 -193q129 0 214 137q73 118 73 279q0 100 -48 152q-42 45 -114 45z" />
    <glyph glyph-name="A" unicode="A" horiz-adv-x="1272" 
d="M105 0h-168l791 1464h163l230 -1464h-164l-55 371h-603zM881 506l-113 761l-399 -761h512z" />
    <glyph glyph-name="B" unicode="B" horiz-adv-x="1346" 
d="M377 1464h479q219 0 328 -100q94 -87 94 -242q0 -146 -76 -237q-67 -81 -205 -134q122 -41 176 -113.5t54 -193.5q0 -224 -159 -342q-139 -102 -374 -102h-602zM754 825q96 0 152.5 12t105.5 43q106 69 106 232q0 213 -256 213h-346l-98 -500h336zM710 139q194 0 280 83
q75 72 75 214q0 139 -84 198q-73 52 -221 52h-369l-106 -547h425z" />
    <glyph glyph-name="C" unicode="C" horiz-adv-x="1472" 
d="M733 -18q-276 0 -424 189q-129 164 -129 437q0 248 96 450q93 197 257 309q169 115 376 115q270 0 395 -184q54 -76 78 -188l-155 -33q-18 74 -50 125q-82 141 -276 141q-157 0 -283 -96q-123 -94 -193 -261q-71 -171 -71 -384q0 -248 115 -372q101 -109 278 -109
q275 0 412 291l141 -56q-47 -98 -104 -167q-174 -207 -463 -207z" />
    <glyph glyph-name="D" unicode="D" horiz-adv-x="1450" 
d="M377 1464h401q238 0 371 -92q211 -145 211 -498q0 -216 -69 -398q-60 -159 -163 -265q-204 -211 -559 -211h-477zM588 139q304 0 464 222q140 193 140 520q0 248 -113 352q-100 92 -305 92h-258l-231 -1186h303z" />
    <glyph glyph-name="E" unicode="E" 
d="M377 1464h876l-26 -139h-711l-102 -520h581l-24 -135h-582l-104 -531h747l-27 -139h-913z" />
    <glyph glyph-name="F" unicode="F" horiz-adv-x="1180" 
d="M377 1464h858l-27 -139h-692l-109 -555h547l-24 -135h-547l-125 -635h-166z" />
    <glyph glyph-name="G" unicode="G" horiz-adv-x="1551" 
d="M706 -18q-259 0 -400 188q-122 163 -122 431q0 251 98 454q95 199 263 312q172 115 384 115q279 0 410 -190q44 -64 66 -153l-156 -45q-44 142 -130 199q-74 50 -200 50q-266 0 -426 -233q-139 -203 -139 -505q0 -255 109 -377q94 -107 268 -107q196 0 327 137
q114 118 160 322l8 37h-368l26 139h531l-148 -756h-100l10 256q-175 -274 -471 -274z" />
    <glyph glyph-name="H" unicode="H" horiz-adv-x="1399" 
d="M377 1464h168l-129 -667h675l129 667h168l-284 -1464h-168l127 654h-676l-127 -654h-168z" />
    <glyph glyph-name="I" unicode="I" horiz-adv-x="591" 
d="M394 1464h168l-285 -1464h-168z" />
    <glyph glyph-name="J" unicode="J" horiz-adv-x="1106" 
d="M901 412q-43 -223 -176 -334q-115 -96 -287 -96q-189 0 -288 105q-87 92 -87 247q0 67 12 123l13 59h165l-10 -53q-14 -75 -14 -137q0 -108 61 -162q53 -47 148 -47q132 0 205 82q63 72 92 219l202 1046h168z" />
    <glyph glyph-name="K" unicode="K" horiz-adv-x="1296" 
d="M377 1464h168l-144 -737l774 737h197l-651 -612l393 -852h-178l-340 735l-236 -219l-100 -516h-168z" />
    <glyph glyph-name="L" unicode="L" horiz-adv-x="1174" 
d="M377 1464h168l-258 -1325h684l-27 -139h-852z" />
    <glyph glyph-name="M" unicode="M" horiz-adv-x="1690" 
d="M377 1464h231l178 -1255l654 1255h239l-284 -1464h-164l239 1235l-645 -1235h-155l-183 1235l-239 -1235h-156z" />
    <glyph glyph-name="N" unicode="N" horiz-adv-x="1403" 
d="M377 1464h186l430 -1249l242 1249h157l-284 -1464h-201l-420 1224l-237 -1224h-158z" />
    <glyph glyph-name="O" unicode="O" horiz-adv-x="1587" 
d="M917 1482q280 0 437 -195q137 -170 137 -437q0 -248 -96 -448q-94 -196 -260 -306q-170 -114 -379 -114q-280 0 -438 197q-138 171 -138 439q0 245 97 444q95 195 261 306q170 114 379 114zM907 1343q-263 0 -417 -231q-134 -200 -134 -506q0 -250 123 -376
q107 -109 295 -109q141 0 256 77q100 67 166 183q117 208 117 479q0 248 -119 373q-105 110 -287 110z" />
    <glyph glyph-name="P" unicode="P" horiz-adv-x="1276" 
d="M377 1464h434q126 0 198.5 -16t129.5 -55q133 -97 133 -295q0 -236 -160 -365q-144 -114 -410 -114h-323l-121 -619h-166zM723 758q383 0 383 340q0 127 -78 184q-63 43 -229 43h-283l-111 -567h318z" />
    <glyph glyph-name="Q" unicode="Q" horiz-adv-x="1587" 
d="M1112 80q-161 -98 -352 -98q-283 0 -442 196q-138 170 -138 440q0 245 97 444q95 195 261 306q170 114 379 114q280 0 437 -195q137 -170 137 -437q0 -209 -76 -396q-66 -164 -176 -274l155 -174l-120 -108zM842 383l120 108l174 -196q177 220 177 565q0 248 -119 373
q-105 110 -287 110q-261 0 -416 -232q-135 -201 -135 -505q0 -247 121 -375q106 -112 287 -112q139 0 252 67z" />
    <glyph glyph-name="R" unicode="R" horiz-adv-x="1323" 
d="M377 1464h411q165 0 258 -37q205 -82 205 -317q0 -170 -94 -274q-46 -52 -104 -81t-162 -52q124 -42 162 -124q34 -72 34 -239q0 -245 47 -330l-2 -10h-168q-33 87 -38 301q-3 148 -19 203q-24 80 -84.5 114t-177.5 34h-260l-127 -652h-166zM706 791q211 0 302 85
q79 75 79 224q0 126 -79 179q-70 46 -214 46h-278l-105 -534h295z" />
    <glyph glyph-name="S" unicode="S" horiz-adv-x="1240" 
d="M580 -18q-412 0 -514 346l158 55q39 -145 135 -209q84 -55 219 -55q171 0 263 88q81 78 81 205q0 103 -68 162q-61 53 -219 112q-183 69 -264 133q-121 97 -121 262q0 192 141 304q123 97 312 97q346 0 457 -296l-150 -56q-41 114 -113 164.5t-192 50.5q-148 0 -226 -74
q-69 -64 -69 -170q0 -102 65 -157q58 -48 222 -109q236 -88 319 -184q74 -85 74 -225q0 -210 -161 -335q-139 -109 -349 -109z" />
    <glyph glyph-name="T" unicode="T" horiz-adv-x="1264" 
d="M709 1325h-446l27 139h1056l-26 -139h-447l-258 -1325h-164z" />
    <glyph glyph-name="U" unicode="U" horiz-adv-x="1424" 
d="M1230 498q-42 -218 -127 -328q-145 -188 -432 -188q-249 0 -374 129q-109 113 -109 311q0 78 29 221l159 821h168l-166 -848q-24 -126 -24 -198q0 -161 91 -232q80 -63 237 -63q184 0 276 103q80 92 119 294l184 944h158z" />
    <glyph glyph-name="V" unicode="V" horiz-adv-x="1215" 
d="M215 1464h166l168 -1218l647 1218h168l-797 -1464h-131z" />
    <glyph glyph-name="W" unicode="W" horiz-adv-x="1909" 
d="M254 1464h168l63 -1167l586 1167h133l125 -1171l531 1171h163l-671 -1464h-137l-127 1179l-598 -1179h-134z" />
    <glyph glyph-name="X" unicode="X" horiz-adv-x="1228" 
d="M557 762l-291 702h179l241 -586l455 586h188l-573 -723l309 -741h-178l-258 627l-492 -627h-186z" />
    <glyph glyph-name="Y" unicode="Y" horiz-adv-x="1168" 
d="M529 616l-319 848h178l250 -702l500 702h182l-627 -858l-116 -606h-166z" />
    <glyph glyph-name="Z" unicode="Z" horiz-adv-x="1211" 
d="M40 147l1022 1178h-750l27 139h925l-32 -164l-998 -1161h764l-26 -139h-961z" />
    <glyph glyph-name="bracketleft" unicode="[" horiz-adv-x="877" 
d="M463 1589h450l-26 -139h-283l-315 -1614h282l-26 -139h-451z" />
    <glyph glyph-name="backslash" unicode="\" horiz-adv-x="888" 
d="M307 1589h143l226 -1892h-142z" />
    <glyph glyph-name="bracketright" unicode="]" horiz-adv-x="872" 
d="M453 -303h-451l27 139h282l316 1614h-283l27 139h450z" />
    <glyph glyph-name="asciicircum" unicode="^" horiz-adv-x="1121" 
d="M666 1464h139l189 -628h-156l-133 450l-303 -450h-170z" />
    <glyph glyph-name="underscore" unicode="_" horiz-adv-x="925" 
d="M-181 -266h983l-27 -137h-983z" />
    <glyph glyph-name="grave" unicode="`" horiz-adv-x="1077" 
d="M532 1593h207l65 -348h-104z" />
    <glyph glyph-name="a" unicode="a" horiz-adv-x="1089" 
d="M905 -8q-21 -2 -45 -2q-172 0 -197 153q-135 -161 -307 -161q-144 0 -229 90q-74 77 -74 195q0 141 92 225q80 73 240 110q110 26 362 37l13 67l1 7q7 43 7 67q0 168 -180 168q-88 0 -160.5 -28t-155.5 -95l-80 109q182 155 414 155q168 0 254 -83q76 -72 76 -195
q0 -53 -11 -105l-92 -477q-4 -23 -4 -32q0 -39 23.5 -56t79.5 -18zM723 520q-288 -8 -401 -73q-99 -57 -99 -174q0 -156 180 -156q120 0 201 73q69 63 88 164z" />
    <glyph glyph-name="b" unicode="b" horiz-adv-x="1246" 
d="M440 924q69 86 148 125.5t184 39.5q184 0 282 -130q85 -114 85 -304q0 -307 -172 -503q-149 -170 -359 -170q-229 0 -309 221l-39 -203h-168l299 1542h168zM729 952q-179 0 -289 -165q-96 -144 -96 -355q0 -162 79 -243q69 -70 189 -70q167 0 264 164q85 142 85 358
q0 311 -232 311z" />
    <glyph glyph-name="c" unicode="c" horiz-adv-x="1090" 
d="M500 -18q-197 0 -306 135q-95 117 -95 307q0 309 175 500q152 165 372 165q125 0 209.5 -53.5t140.5 -169.5l-143 -67q-44 89 -89 121t-126 32q-179 0 -281 -160q-88 -139 -88 -358q0 -315 248 -315q88 0 148.5 36.5t127.5 131.5l119 -78q-88 -123 -182.5 -175
t-229.5 -52z" />
    <glyph glyph-name="d" unicode="d" horiz-adv-x="1244" 
d="M811 158q-72 -94 -148 -135t-177 -41q-186 0 -288 137q-89 119 -89 309q0 307 168 497q145 164 356 164q231 0 320 -200l127 653h168l-299 -1542h-168zM644 952q-173 0 -271 -162q-86 -141 -86 -360q0 -311 238 -311q173 0 283 170q96 148 96 356q0 157 -77 237
q-67 70 -183 70z" />
    <glyph glyph-name="e" unicode="e" horiz-adv-x="1072" 
d="M892 178q-83 -108 -172 -152t-226 -44q-199 0 -303 129q-92 113 -92 303q0 184 79 341q77 153 209 242q135 92 296 92q157 0 246 -91q77 -79 77 -204q0 -184 -203 -266q-177 -72 -536 -77v-48q0 -284 235 -284q170 0 263 135zM285 582q316 0 442 55q111 48 111 153
q0 78 -45 120t-129 42q-288 0 -379 -370z" />
    <glyph glyph-name="f" unicode="f" horiz-adv-x="701" 
d="M305 934h-147l26 137h148l31 156q27 142 84 216q93 121 258 121q110 0 192 -61l-72 -127q-58 47 -125 47q-74 0 -111 -42.5t-61 -155.5l-30 -154h223l-27 -137h-223l-180 -934h-166z" />
    <glyph glyph-name="g" unicode="g" horiz-adv-x="1124" 
d="M929 938q58 -83 58 -178q0 -172 -134 -277q-116 -92 -286 -92q-108 0 -203 43q-74 -51 -74 -110q0 -84 117 -84h213q169 0 258 -81q78 -71 78 -190q0 -182 -162 -281q-142 -87 -371 -87q-219 0 -337 85q-103 74 -103 195q0 85 55 144t174 102q-84 57 -84 152
q0 125 152 211q-102 99 -102 225q0 168 141 278q123 96 291 96q104 0 198 -47l330 45l-29 -149h-180zM596 960q-119 0 -188 -76q-60 -65 -60 -165q0 -99 68 -152q59 -47 157 -47q123 0 188 71q56 63 56 168q0 100 -67 154q-58 47 -154 47zM382 88q-32 0 -61 4
q-160 -72 -160 -194q0 -160 281 -160q174 0 259 61q75 54 75 150q0 139 -175 139h-219z" />
    <glyph glyph-name="h" unicode="h" horiz-adv-x="1199" 
d="M391 1542h168l-119 -625q125 172 321 172q145 0 222 -90q67 -78 67 -211q0 -47 -14 -124l-129 -664h-168l131 676q10 54 10 100q0 174 -174 174q-133 0 -220 -95q-76 -82 -103 -222l-123 -633h-168z" />
    <glyph glyph-name="i" unicode="i" horiz-adv-x="564" 
d="M459 1509q44 0 72 -26.5t28 -67.5q0 -49 -35 -84t-84 -35q-42 0 -69 28t-27 70q0 48 33.5 81.5t81.5 33.5zM305 1071h168l-209 -1071h-168z" />
    <glyph glyph-name="j" unicode="j" horiz-adv-x="572" 
d="M466 1509q44 0 72 -26.5t28 -67.5q0 -49 -35 -84t-84 -35q-42 0 -69 28t-27 70q0 48 33.5 81.5t81.5 33.5zM246 -135q-50 -254 -299 -254q-82 0 -145 41l55 127q54 -27 95 -27q104 0 126 115l236 1204h168z" />
    <glyph glyph-name="k" unicode="k" horiz-adv-x="1065" 
d="M391 1542h168l-191 -979l494 508h199l-430 -428l274 -643h-176l-221 520l-183 -182l-65 -338h-168z" />
    <glyph glyph-name="l" unicode="l" horiz-adv-x="636" 
d="M367 -16q-227 0 -227 190q0 34 10 92l248 1276h170l-250 -1290q-4 -21 -4 -39q0 -41 21.5 -64.5t58.5 -23.5q60 0 108 35l5 -150q-62 -26 -140 -26z" />
    <glyph glyph-name="m" unicode="m" horiz-adv-x="1748" 
d="M301 1071h168l-29 -147q67 88 137 126.5t162 38.5q200 0 246 -206q82 109 164.5 157.5t187.5 48.5q133 0 202 -87q60 -76 60 -206q0 -60 -14 -132l-129 -664h-168l131 676q12 61 12 114q0 160 -145 160q-121 0 -205 -96q-73 -84 -100 -221l-123 -633h-168l131 676
q12 58 12 114q0 160 -147 160q-120 0 -203 -96q-73 -84 -100 -221l-123 -633h-168z" />
    <glyph glyph-name="n" unicode="n" horiz-adv-x="1199" 
d="M301 1071h168l-29 -154q125 172 321 172q145 0 222 -90q67 -78 67 -211q0 -47 -14 -124l-129 -664h-168l131 676q10 48 10 96q0 178 -174 178q-133 0 -220 -95q-76 -82 -103 -222l-123 -633h-168z" />
    <glyph glyph-name="o" unicode="o" horiz-adv-x="1152" 
d="M646 1089q200 0 309 -136q94 -119 94 -314q0 -161 -59 -307q-50 -126 -133 -211q-143 -139 -342 -139q-204 0 -315 140q-97 121 -97 318q0 298 175 486q152 163 368 163zM635 952q-174 0 -275 -163q-87 -142 -87 -361q0 -309 250 -309q168 0 264 166q88 163 88 370
q0 297 -240 297z" />
    <glyph glyph-name="p" unicode="p" horiz-adv-x="1241" 
d="M296 1071h168l-29 -154q127 172 331 172q184 0 282 -130q85 -114 85 -304q0 -308 -172 -503q-149 -170 -360 -170q-228 0 -307 215l-111 -570h-168zM724 952q-180 0 -290 -165q-95 -144 -95 -355q0 -162 79 -243q69 -70 189 -70q166 0 263 164q85 143 85 360
q0 309 -231 309z" />
    <glyph glyph-name="q" unicode="q" horiz-adv-x="1250" 
d="M811 158q-73 -95 -148 -135.5t-177 -40.5q-186 0 -288 136q-89 119 -89 310q0 309 165 498q143 163 353 163q122 0 209 -59q77 -51 117 -141l35 182h168l-281 -1444h-168zM644 952q-173 0 -271 -162q-86 -141 -86 -360q0 -311 238 -311q173 0 283 170q96 148 96 356
q0 157 -77 237q-67 70 -183 70z" />
    <glyph glyph-name="r" unicode="r" horiz-adv-x="854" 
d="M301 1071h168l-35 -172q116 190 291 190q84 0 155 -43l-69 -139q-53 33 -111 33q-129 0 -218 -106q-77 -92 -107 -246l-115 -588h-168z" />
    <glyph glyph-name="s" unicode="s" horiz-adv-x="1000" 
d="M443 -18q-279 0 -406 217l139 82q54 -88 118 -125t161 -37q111 0 169 48q50 42 50 114q0 74 -65 118q-36 26 -150 78q-147 68 -207.5 138.5t-60.5 174.5q0 145 115 227q99 72 253 72q219 0 346 -180l-131 -92q-85 135 -233 135q-94 0 -143 -43q-43 -38 -43 -102
q0 -61 37 -99t145 -87q155 -71 205 -111q100 -82 100 -209q0 -153 -125 -242q-108 -77 -274 -77z" />
    <glyph glyph-name="t" unicode="t" horiz-adv-x="764" 
d="M656 51q-112 -69 -234 -69q-118 0 -180 71q-55 61 -55 164q0 31 8 80l123 637h-158l27 137h157l56 278l174 41l-62 -319h246l-27 -137h-245l-123 -631q-8 -46 -8 -70q0 -108 102 -108q69 0 141 43z" />
    <glyph glyph-name="u" unicode="u" horiz-adv-x="1177" 
d="M739 158q-66 -92 -140.5 -134t-170.5 -42q-140 0 -214 89q-65 78 -65 210q0 49 14 127l129 663h168l-131 -676q-12 -70 -12 -106q0 -168 162 -168q128 0 213 95q75 83 102 222l123 633h168l-209 -1071h-168z" />
    <glyph glyph-name="v" unicode="v" horiz-adv-x="942" 
d="M134 1071h172l96 -905l441 905h178l-551 -1071h-197z" />
    <glyph glyph-name="w" unicode="w" horiz-adv-x="1600" 
d="M169 1071h172l64 -876l399 876h180l84 -876l404 876h176l-527 -1071h-186l-80 864l-397 -864h-185z" />
    <glyph glyph-name="x" unicode="x" horiz-adv-x="1025" 
d="M420 563l-240 508h185l172 -395l313 395h195l-437 -518l263 -553h-185l-192 440l-355 -440h-190z" />
    <glyph glyph-name="y" unicode="y" horiz-adv-x="955" 
d="M363 -180q-58 -110 -126 -157.5t-168 -47.5q-106 0 -193 72l80 114q53 -53 119 -53q101 0 163 127l72 147l-176 1049h174l129 -821l416 821h180z" />
    <glyph glyph-name="z" unicode="z" horiz-adv-x="936" 
d="M6 139l731 795h-541l27 137h717l-33 -170l-701 -764h561l-24 -137h-764z" />
    <glyph glyph-name="braceleft" unicode="{" horiz-adv-x="863" 
d="M582 -309q-106 3 -169.5 24t-107.5 68q-61 67 -61 180q0 36 11 94l53 273q10 48 10 98q0 79 -49 114t-164 38l27 135q140 1 207 53.5t90 179.5l61 314q39 194 156 268q102 65 305 65l-25 -133q-152 -8 -206 -60q-48 -46 -74 -173l-66 -330q-23 -115 -77 -173t-165 -87
q76 -29 110 -77t34 -126q0 -49 -10 -100l-56 -287q-8 -43 -8 -76q0 -77 43.5 -110t155.5 -39z" />
    <glyph glyph-name="bar" unicode="|" horiz-adv-x="582" 
d="M261 1589h135v-1892h-135v1892z" />
    <glyph glyph-name="braceright" unicode="}" horiz-adv-x="858" 
d="M320 1595q106 -3 169.5 -24t107.5 -68q61 -71 61 -178q0 -42 -11 -96l-53 -273q-10 -48 -10 -98q0 -79 49 -113.5t164 -37.5l-27 -136q-140 -1 -207 -53.5t-90 -179.5l-61 -313q-39 -195 -156 -269q-102 -65 -305 -65l25 133q152 8 206 60q48 46 74 173l66 330
q23 115 76.5 173t164.5 87q-75 30 -109 77.5t-34 125.5q0 49 10 100l56 287q8 43 8 76q0 78 -43.5 110.5t-155.5 38.5z" />
    <glyph glyph-name="asciitilde" unicode="~" horiz-adv-x="1171" 
d="M217 567q39 154 106 220q58 57 146 57q42 0 82.5 -17.5t107.5 -64.5q86 -62 127 -62q81 0 117 150l121 -12q-39 -153 -106 -219q-59 -58 -148 -58q-42 0 -82.5 17.5t-108.5 64.5q-82 62 -124 62q-80 0 -115 -150z" />
    <glyph glyph-name="nonbreakingspace" unicode="&#xa0;" horiz-adv-x="659" 
 />
    <glyph glyph-name="exclamdown" unicode="&#xa1;" horiz-adv-x="722" 
d="M498 1100q53 0 88 -34.5t35 -86.5q0 -58 -40.5 -97.5t-100.5 -39.5q-52 0 -86.5 34.5t-34.5 86.5q0 57 40.5 97t98.5 40zM228 96l156 555h90l-68 -575l-88 -449h-182z" />
    <glyph glyph-name="cent" unicode="&#xa2;" horiz-adv-x="1256" 
d="M624 119q76 5 132.5 42t119.5 126l119 -78q-85 -119 -176.5 -171.5t-220.5 -55.5l-49 -258h-119l51 268q-150 33 -229 159q-70 111 -70 273q0 297 163 487q141 163 349 176l39 201h119l-39 -205q176 -30 266 -217l-143 -67q-34 69 -67.5 102.5t-82.5 44.5zM352 434
q0 -251 158 -303l157 817q-155 -25 -240 -179q-75 -135 -75 -335z" />
    <glyph glyph-name="sterling" unicode="&#xa3;" horiz-adv-x="1239" 
d="M265 -16q-108 0 -170 59q-53 51 -53 131q0 97 71 154q61 49 154 49q84 0 178 -56q5 33 5 64q0 79 -46 274h-210l22 123h160q-25 129 -25 231q0 229 141 357q123 112 318 112q303 0 379 -270l-150 -51q-26 97 -82 141.5t-153 44.5q-143 0 -217 -102q-64 -88 -64 -240
q0 -90 23 -223h383l-23 -123h-338q29 -158 29 -258q0 -95 -25 -174q74 -58 119 -79t94 -21q72 0 115.5 43.5t71.5 142.5l143 -31q-47 -166 -132 -236q-75 -62 -191 -62q-77 0 -139.5 27t-143.5 95q-96 -122 -244 -122zM271 99q86 0 140 97q-77 60 -142 60q-43 0 -68.5 -21
t-25.5 -56q0 -37 26 -58.5t70 -21.5z" />
    <glyph glyph-name="currency" unicode="&#xa4;" horiz-adv-x="1237" 
d="M700 -18q-213 0 -338 137q-68 74 -99.5 163t-41.5 236h-193l25 123h170q3 81 18 174h-156l25 123h160q41 129 80.5 206t101.5 146q171 192 424 192q181 0 282 -98q76 -70 111 -221l-156 -33q-30 120 -85.5 168.5t-163.5 48.5q-294 0 -424 -409h446l-24 -123h-453
q-15 -81 -19 -174h439l-25 -123h-416q12 -154 54 -235q81 -162 266 -162q104 0 176 49t133 162l139 -58q-70 -129 -170 -202q-124 -90 -286 -90z" />
    <glyph glyph-name="yen" unicode="&#xa5;" horiz-adv-x="1246" 
d="M515 410h-397l25 123h397l22 112l-26 80h-357l25 123h291l-207 616h188l201 -669l477 669h166l-446 -616h295l-25 -123h-358l-58 -80l-22 -112h401l-24 -123h-402l-78 -410h-166z" />
    <glyph glyph-name="brokenbar" unicode="&#xa6;" horiz-adv-x="592" 
d="M403 1464h151l-114 -587h-152zM233 588h151l-114 -588h-152z" />
    <glyph glyph-name="section" unicode="&#xa7;" horiz-adv-x="1079" 
d="M918 1165q-38 98 -93 140t-143 42q-100 0 -153 -56q-47 -48 -47 -128q0 -86 65 -152q30 -27 55.5 -43.5t129.5 -72.5q158 -84 221 -167q55 -73 55 -169q0 -228 -285 -295q82 -97 82 -215q0 -160 -115 -251q-100 -79 -256 -79q-278 0 -397 268l143 60q88 -193 265 -193
q98 0 149 53q45 47 45 125q0 90 -78 162q-44 37 -174 107q-163 86 -226 169q-56 73 -56 171q0 231 288 295q-77 95 -77 210q0 160 118 254q102 82 257 82q145 0 236 -72q80 -62 132 -190zM612 356q126 15 181 65q47 44 47 121q0 67 -40 112t-157 110l-143 80
q-126 -14 -180 -64q-47 -44 -47 -123q0 -66 40 -111t156 -110z" />
    <glyph glyph-name="dieresis" unicode="&#xa8;" horiz-adv-x="1053" 
d="M520 1520q46 0 75 -27.5t29 -71.5q0 -50 -36.5 -86.5t-86.5 -36.5q-43 0 -72.5 29t-29.5 72q0 50 35.5 85.5t85.5 35.5zM905 1520q45 0 74.5 -28t29.5 -71q0 -50 -36.5 -86.5t-86.5 -36.5q-44 0 -73 28.5t-29 72.5q0 50 35.5 85.5t85.5 35.5z" />
    <glyph glyph-name="copyright" unicode="&#xa9;" horiz-adv-x="1747" 
d="M985 1482q189 0 343 -88q150 -86 235 -238q87 -155 87 -347q0 -225 -111 -417q-108 -187 -291 -297q-189 -113 -409 -113q-185 0 -338 91q-149 88 -234 242q-87 159 -87 350q0 222 110 412q107 185 289 293q188 112 406 112zM976 1384q-189 0 -348 -95
q-155 -93 -245 -254q-92 -165 -92 -361q0 -282 178 -449q155 -145 389 -145q182 0 341 100q155 97 247 261q95 170 95 364q0 271 -179 436q-156 143 -386 143zM1257 543q-122 -260 -381 -260q-172 0 -269 122q-85 105 -85 271q0 235 143 384q124 128 301 128q137 0 217 -68
q69 -59 109 -182l-135 -51q-32 99 -76 138.5t-123 39.5q-131 0 -208 -121q-66 -105 -66 -268q0 -268 203 -268q84 0 139.5 44t95.5 142z" />
    <glyph glyph-name="ordfeminine" unicode="&#xaa;" horiz-adv-x="904" 
d="M674 555q-8 46 -8 104q-104 -118 -242 -118q-128 0 -201 73q-63 64 -63 164q0 229 309 291q103 19 279 27l10 53q8 35 8 67q0 139 -156 139q-133 0 -264 -104l-69 98q162 133 354 133q145 0 221 -73q66 -63 66 -170q0 -45 -13 -105l-81 -425q-9 -39 -9 -78q0 -45 11 -68
v-8h-152zM727 987q-176 -10 -245 -25q-168 -35 -168 -173q0 -129 141 -129q103 0 172 61q60 53 76 137z" />
    <glyph glyph-name="guillemotleft" unicode="&#xab;" horiz-adv-x="1062" 
d="M142 504l330 395h174l-330 -410l164 -401h-158zM498 504l330 395h174l-328 -410l162 -401h-157z" />
    <glyph glyph-name="logicalnot" unicode="&#xac;" horiz-adv-x="1182" 
d="M770 670h-479l25 135h624l-86 -447h-145z" />
    <glyph glyph-name="uni00AD" unicode="&#xad;" horiz-adv-x="627" 
d="M141 745h430l-29 -154h-430z" />
    <glyph glyph-name="registered" unicode="&#xae;" horiz-adv-x="1131" 
d="M703 1482q196 0 321 -140q109 -121 109 -292q0 -229 -169 -383q-145 -133 -341 -133q-197 0 -321 139q-107 120 -107 291q0 227 169 383q146 135 339 135zM697 1396q-185 0 -303 -138q-103 -120 -103 -288q0 -169 107 -266q93 -84 237 -84q181 0 300 140q102 121 102 288
t-106 264q-92 84 -234 84zM535 1249h201q69 0 107 -32.5t38 -90.5q0 -56 -28.5 -87t-92.5 -44q36 -14 47.5 -34.5t14.5 -76.5q6 -82 18 -100v-4h-98q-17 39 -17 102q-1 46 -16.5 65t-50.5 19h-78l-37 -186h-100zM682 1036q101 0 101 80q0 59 -64 59h-100l-27 -139h90z" />
    <glyph glyph-name="macron" unicode="&#xaf;" horiz-adv-x="1060" 
d="M479 1448h487l-25 -125h-487z" />
    <glyph glyph-name="degree" unicode="&#xb0;" horiz-adv-x="918" 
d="M617 1480q143 0 226 -95q73 -82 73 -208q0 -176 -118 -288q-102 -97 -247 -97q-138 0 -223 99q-74 86 -74 210q0 170 120 282q103 97 243 97zM609 1369q-101 0 -165 -85q-55 -73 -55 -179q0 -98 54 -153q47 -47 122 -47q104 0 165 82q53 71 53 180q0 99 -53 154
q-47 48 -121 48z" />
    <glyph glyph-name="plusminus" unicode="&#xb1;" horiz-adv-x="1154" 
d="M531 674h-369l27 135h368l74 377h145l-73 -377h366l-26 -135h-367l-74 -377h-145zM58 135h880l-26 -135h-881z" />
    <glyph glyph-name="twosuperior" unicode="&#xb2;" horiz-adv-x="939" 
d="M220 1047q227 161 273.5 196t100.5 84q127 121 127 217q0 58 -29.5 90.5t-80.5 32.5q-106 0 -150 -168l-147 37q36 144 121 207q75 55 196 55q131 0 201 -70q61 -61 61 -161q0 -172 -168 -328q-85 -77 -258 -186h361l-25 -129h-606z" />
    <glyph glyph-name="threesuperior" unicode="&#xb3;" horiz-adv-x="939" 
d="M314 1569q40 121 115.5 175t204.5 54q135 0 209 -66q65 -58 65 -151q0 -144 -141 -215q100 -58 100 -168q0 -143 -98 -219q-86 -66 -227 -66q-308 0 -332 283l168 23q27 -177 176 -177q63 0 102 35t39 92q0 142 -153 142h-78l29 129h88q75 0 117 30.5t42 83.5t-33 84
t-88 31q-61 0 -97.5 -32.5t-67.5 -112.5z" />
    <glyph glyph-name="acute" unicode="&#xb4;" horiz-adv-x="1069" 
d="M721 1591h221l-262 -350h-117z" />
    <glyph glyph-name="mu" unicode="&#xb5;" horiz-adv-x="1244" 
d="M216 -373h-168l281 1444h168l-132 -676q-12 -67 -12 -104q0 -172 162 -172q128 0 214 96q74 83 101 223l123 633h168l-209 -1071h-168l33 170q-68 -99 -143 -143.5t-172 -44.5q-101 0 -168 49z" />
    <glyph glyph-name="paragraph" unicode="&#xb6;" horiz-adv-x="1240" 
d="M623 709h-10q-192 0 -295 99q-90 87 -90 230q0 207 147 324q128 102 328 102h526l-284 -1464h-160l258 1327h-141l-258 -1327h-158z" />
    <glyph glyph-name="glyph195" unicode="&#xb7;" horiz-adv-x="641" 
d="M358 799q52 0 86.5 -34.5t34.5 -86.5q0 -58 -40 -97.5t-99 -39.5q-53 0 -88 34.5t-35 86.5q0 57 41 97t100 40z" />
    <glyph glyph-name="cedilla" unicode="&#xb8;" horiz-adv-x="1068" 
d="M377 -125q33 8 49 8q60 0 96.5 -39.5t36.5 -103.5q0 -85 -66 -135q-58 -43 -147 -43q-113 0 -188 84l80 67q41 -57 116 -57q86 0 86 82q0 67 -67 67q-35 0 -65 -30l-64 57l147 168h95z" />
    <glyph glyph-name="onesuperior" unicode="&#xb9;" horiz-adv-x="956" 
d="M825 1804h123l-170 -880h-162l129 661q-119 -49 -256 -49l8 106q110 16 184.5 53t143.5 109z" />
    <glyph glyph-name="ordmasculine" unicode="&#xba;" horiz-adv-x="1026" 
d="M673 1482q169 0 263 -118q81 -102 81 -267q0 -257 -147 -418q-127 -139 -310 -139q-172 0 -268 121q-84 105 -84 272q0 249 151 410q131 139 314 139zM661 1353q-147 0 -227 -131q-70 -115 -70 -299q0 -258 205 -258q139 0 221 138q71 120 71 304q0 246 -200 246z" />
    <glyph glyph-name="guillemotright" unicode="&#xbb;" horiz-adv-x="1062" 
d="M370 498l-162 401h158l180 -416l-330 -395h-174zM728 498l-164 401h158l180 -416l-330 -395h-174z" />
    <glyph glyph-name="onequarter" unicode="&#xbc;" horiz-adv-x="1922" 
d="M476 678l114 602q-111 -45 -233 -45l8 98q97 12 165.5 46t131.5 100h113l-152 -801h-147zM1428 1464h139l-991 -1464h-139zM1590 273h104l-20 -117h-107l-28 -156h-146l31 156h-377l23 121l473 509h147zM1447 273l63 325l-285 -325h222z" />
    <glyph glyph-name="onehalf" unicode="&#xbd;" horiz-adv-x="1922" 
d="M476 678l114 602q-111 -45 -233 -45l8 98q97 12 165.5 46t131.5 100h113l-152 -801h-147zM1399 1464h140l-992 -1464h-139zM1555 287q-83 -74 -235 -170h327l-22 -117h-551l22 113q268 188 338 254q115 108 115 198q0 52 -26.5 81.5t-71.5 29.5q-51 0 -82.5 -36
t-53.5 -117l-135 34q60 238 287 238q120 0 184 -64q56 -55 56 -147q0 -158 -152 -297z" />
    <glyph glyph-name="threequarters" unicode="&#xbe;" horiz-adv-x="1911" 
d="M287 1264q36 110 103.5 159t185.5 49q124 0 191 -60q59 -53 59 -138q0 -131 -127 -193q90 -54 90 -153q0 -130 -89 -198q-78 -60 -208 -60q-280 0 -301 256l154 20q24 -159 159 -159q58 0 93.5 31.5t35.5 82.5q0 129 -141 129h-70l25 117h80q69 0 108 27t39 75t-30 76
t-80 28q-55 0 -89.5 -29t-62.5 -99zM1418 1464h139l-991 -1464h-139zM1414 156h-375l22 121l471 509h148l-98 -513h102l-20 -117h-105l-31 -156h-143zM1436 273l64 325l-283 -325h219z" />
    <glyph glyph-name="questiondown" unicode="&#xbf;" horiz-adv-x="1063" 
d="M713 1100q53 0 88 -34.5t35 -86.5q0 -58 -40.5 -97.5t-100.5 -39.5q-52 0 -86.5 34.5t-34.5 86.5q0 57 40.5 97t98.5 40zM863 -39q-56 -184 -183 -274q-112 -78 -270 -78q-178 0 -277 97q-85 84 -85 220q0 147 121 258q49 45 198 135q86 52 124.5 104.5t54.5 137.5l16 90
h150l-23 -123q-22 -111 -79.5 -183.5t-182.5 -145.5q-118 -72 -164.5 -131.5t-46.5 -139.5q0 -91 62 -141q53 -43 141 -43q213 0 305 254z" />
    <glyph glyph-name="Agrave" unicode="&#xc0;" horiz-adv-x="1272" 
d="M105 0h-168l791 1464h163l230 -1464h-164l-55 371h-603zM881 506l-113 761l-399 -761h512zM642 1956h207l65 -332h-104z" />
    <glyph glyph-name="Aacute" unicode="&#xc1;" horiz-adv-x="1269" 
d="M105 0h-168l791 1464h163l230 -1464h-164l-55 371h-603zM881 506l-113 761l-399 -761h512zM949 1976h221l-264 -331h-117z" />
    <glyph glyph-name="Acircumflex" unicode="&#xc2;" horiz-adv-x="1272" 
d="M105 0h-168l791 1464h163l230 -1464h-164l-55 371h-603zM881 506l-113 761l-399 -761h512zM844 1956h146l135 -332h-111l-119 193l-196 -193h-115z" />
    <glyph glyph-name="Atilde" unicode="&#xc3;" horiz-adv-x="1268" 
d="M105 0h-168l791 1464h163l230 -1464h-164l-55 371h-603zM881 506l-113 761l-399 -761h512zM555 1651q47 221 190 221q59 0 154 -60q67 -39 94 -39q62 0 86 103l105 -12q-48 -222 -193 -222q-55 0 -151 60q-65 39 -92 39q-62 0 -87 -103z" />
    <glyph glyph-name="Adieresis" unicode="&#xc4;" horiz-adv-x="1268" 
d="M105 0h-168l791 1464h163l230 -1464h-164l-55 371h-603zM881 506l-113 761l-399 -761h512zM685 1858q46 0 75 -27.5t29 -71.5q0 -50 -36.5 -86.5t-86.5 -36.5q-43 0 -72.5 29t-29.5 72q0 50 35.5 85.5t85.5 35.5zM1070 1858q45 0 74.5 -28t29.5 -71q0 -50 -36.5 -86.5
t-86.5 -36.5q-44 0 -73 28.5t-29 72.5q0 50 35.5 85.5t85.5 35.5z" />
    <glyph glyph-name="Aring" unicode="&#xc5;" horiz-adv-x="1272" 
d="M105 0h-168l791 1464h163l230 -1464h-164l-55 371h-603zM881 506l-113 761l-399 -761h512zM897 2036q91 0 147 -62q48 -54 48 -133q0 -103 -74 -172q-64 -59 -151 -59q-89 0 -145 63q-48 55 -48 134q0 100 75 169q64 60 148 60zM893 1944q-51 0 -83 -37.5t-32 -97.5
q0 -49 25.5 -78t69.5 -29q49 0 83 39t34 96q0 48 -26.5 77.5t-70.5 29.5z" />
    <glyph glyph-name="AE" unicode="&#xc6;" horiz-adv-x="1890" 
d="M85 0h-182l1112 1464h909l-26 -139h-670l-102 -520h540l-24 -135h-541l-104 -531h706l-26 -139h-873l72 371h-514zM902 506l156 799l-596 -799h440z" />
    <glyph glyph-name="Ccedilla" unicode="&#xc7;" horiz-adv-x="1472" 
d="M747 121q275 0 412 290l141 -55q-47 -99 -104 -168q-171 -204 -457 -207l-92 -106q33 8 49 8q60 0 96.5 -39.5t36.5 -104.5q0 -85 -67 -135q-57 -43 -146 -43q-113 0 -188 84l80 68q41 -58 116 -58q86 0 86 82q0 68 -67 68q-35 0 -66 -31l-63 58l135 153
q-236 30 -360 213q-109 160 -109 410q0 247 96 449q93 198 257 310q169 115 376 115q270 0 395 -184q54 -76 78 -188l-155 -33q-18 74 -50 125q-82 141 -276 141q-157 0 -283 -96q-123 -94 -193 -261q-71 -171 -71 -384q0 -248 115 -372q101 -109 278 -109z" />
    <glyph glyph-name="Egrave" unicode="&#xc8;" 
d="M377 1464h876l-26 -139h-711l-102 -520h581l-24 -135h-582l-104 -531h747l-27 -139h-913zM645 1956h207l65 -332h-104z" />
    <glyph glyph-name="Eacute" unicode="&#xc9;" 
d="M377 1464h876l-26 -139h-711l-102 -520h581l-24 -135h-582l-104 -531h747l-27 -139h-913zM952 1976h221l-264 -331h-117z" />
    <glyph glyph-name="Ecircumflex" unicode="&#xca;" 
d="M377 1464h876l-26 -139h-711l-102 -520h581l-24 -135h-582l-104 -531h747l-27 -139h-913zM848 1956h146l135 -332h-111l-119 193l-196 -193h-115z" />
    <glyph glyph-name="Edieresis" unicode="&#xcb;" 
d="M688 1858q46 0 75 -27.5t29 -71.5q0 -50 -36.5 -86.5t-86.5 -36.5q-43 0 -72.5 29t-29.5 72q0 50 35.5 85.5t85.5 35.5zM1073 1858q45 0 74.5 -28t29.5 -71q0 -50 -36.5 -86.5t-86.5 -36.5q-44 0 -73 28.5t-29 72.5q0 50 35.5 85.5t85.5 35.5zM377 1464h876l-26 -139
h-711l-102 -520h581l-24 -135h-582l-104 -531h747l-27 -139h-913z" />
    <glyph glyph-name="Igrave" unicode="&#xcc;" horiz-adv-x="589" 
d="M394 1464h168l-285 -1464h-168zM306 1956h207l65 -332h-104z" />
    <glyph glyph-name="Iacute" unicode="&#xcd;" horiz-adv-x="606" 
d="M394 1464h168l-285 -1464h-168zM613 1976h221l-264 -331h-117z" />
    <glyph glyph-name="Icircumflex" unicode="&#xce;" horiz-adv-x="603" 
d="M394 1464h168l-285 -1464h-168zM508 1956h146l135 -332h-111l-119 193l-196 -193h-115z" />
    <glyph glyph-name="Idieresis" unicode="&#xcf;" horiz-adv-x="606" 
d="M394 1464h168l-285 -1464h-168zM349 1858q46 0 75 -27.5t29 -71.5q0 -50 -36.5 -86.5t-86.5 -36.5q-43 0 -72.5 29t-29.5 72q0 50 35.5 85.5t85.5 35.5zM734 1858q45 0 74.5 -28t29.5 -71q0 -50 -36.5 -86.5t-86.5 -36.5q-44 0 -73 28.5t-29 72.5q0 50 35.5 85.5
t85.5 35.5z" />
    <glyph glyph-name="Eth" unicode="&#xd0;" horiz-adv-x="1468" 
d="M111 0l127 658h-170l27 133h168l133 673h428q290 0 431 -169q124 -149 124 -416q0 -306 -129 -533q-104 -181 -288 -269q-162 -77 -374 -77h-477zM304 141h303q305 0 465 222q139 193 139 520q0 240 -112 348q-98 94 -288 94h-276l-107 -534h289l-26 -133h-287z" />
    <glyph glyph-name="Ntilde" unicode="&#xd1;" horiz-adv-x="1403" 
d="M377 1464h186l430 -1249l242 1249h157l-284 -1464h-201l-420 1224l-237 -1224h-158zM627 1651q47 221 190 221q59 0 154 -60q67 -39 94 -39q62 0 86 103l105 -12q-48 -222 -193 -222q-55 0 -151 60q-65 39 -92 39q-62 0 -87 -103z" />
    <glyph glyph-name="Ograve" unicode="&#xd2;" horiz-adv-x="1587" 
d="M917 1482q280 0 437 -195q137 -170 137 -437q0 -248 -96 -448q-94 -196 -260 -306q-170 -114 -379 -114q-280 0 -438 197q-138 171 -138 439q0 245 97 444q95 195 261 306q170 114 379 114zM907 1343q-263 0 -417 -231q-134 -200 -134 -506q0 -250 123 -376
q107 -109 295 -109q141 0 256 77q100 67 166 183q117 208 117 479q0 248 -119 373q-105 110 -287 110zM805 1956h207l65 -332h-104z" />
    <glyph glyph-name="Oacute" unicode="&#xd3;" horiz-adv-x="1587" 
d="M917 1482q280 0 437 -195q137 -170 137 -437q0 -248 -96 -448q-94 -196 -260 -306q-170 -114 -379 -114q-280 0 -438 197q-138 171 -138 439q0 245 97 444q95 195 261 306q170 114 379 114zM907 1343q-263 0 -417 -231q-134 -200 -134 -506q0 -250 123 -376
q107 -109 295 -109q141 0 256 77q100 67 166 183q117 208 117 479q0 248 -119 373q-105 110 -287 110zM1112 1976h221l-264 -331h-117z" />
    <glyph glyph-name="Ocircumflex" unicode="&#xd4;" horiz-adv-x="1587" 
d="M917 1482q280 0 437 -195q137 -170 137 -437q0 -248 -96 -448q-94 -196 -260 -306q-170 -114 -379 -114q-280 0 -438 197q-138 171 -138 439q0 245 97 444q95 195 261 306q170 114 379 114zM907 1343q-263 0 -417 -231q-134 -200 -134 -506q0 -250 123 -376
q107 -109 295 -109q141 0 256 77q100 67 166 183q117 208 117 479q0 248 -119 373q-105 110 -287 110zM1007 1956h146l135 -332h-111l-119 193l-196 -193h-115z" />
    <glyph glyph-name="Otilde" unicode="&#xd5;" horiz-adv-x="1587" 
d="M917 1482q280 0 437 -195q137 -170 137 -437q0 -248 -96 -448q-94 -196 -260 -306q-170 -114 -379 -114q-280 0 -438 197q-138 171 -138 439q0 245 97 444q95 195 261 306q170 114 379 114zM907 1343q-263 0 -417 -231q-134 -200 -134 -506q0 -250 123 -376
q107 -109 295 -109q141 0 256 77q100 67 166 183q117 208 117 479q0 248 -119 373q-105 110 -287 110zM719 1651q47 221 190 221q59 0 154 -60q67 -39 94 -39q62 0 86 103l105 -12q-48 -222 -193 -222q-55 0 -151 60q-65 39 -92 39q-62 0 -87 -103z" />
    <glyph glyph-name="Odieresis" unicode="&#xd6;" horiz-adv-x="1587" 
d="M917 1482q280 0 437 -195q137 -170 137 -437q0 -248 -96 -448q-94 -196 -260 -306q-170 -114 -379 -114q-280 0 -438 197q-138 171 -138 439q0 245 97 444q95 195 261 306q170 114 379 114zM907 1343q-263 0 -417 -231q-134 -200 -134 -506q0 -250 123 -376
q107 -109 295 -109q141 0 256 77q100 67 166 183q117 208 117 479q0 248 -119 373q-105 110 -287 110zM848 1858q46 0 75 -27.5t29 -71.5q0 -50 -36.5 -86.5t-86.5 -36.5q-43 0 -72.5 29t-29.5 72q0 50 35.5 85.5t85.5 35.5zM1233 1858q45 0 74.5 -28t29.5 -71
q0 -50 -36.5 -86.5t-86.5 -36.5q-44 0 -73 28.5t-29 72.5q0 50 35.5 85.5t85.5 35.5z" />
    <glyph glyph-name="multiply" unicode="&#xd7;" horiz-adv-x="1169" 
d="M208 383l319 348l-319 352l96 93l314 -347l315 345l96 -93l-319 -350l321 -346l-96 -92l-315 340l-316 -342z" />
    <glyph glyph-name="Oslash" unicode="&#xd8;" horiz-adv-x="1574" 
d="M1450 1464h178l-238 -244q90 -153 90 -370q0 -245 -96 -446q-94 -196 -259 -308q-169 -114 -376 -114q-250 0 -410 159l-139 -141h-180l240 246q-90 156 -90 370q0 246 97 446q94 195 261 306q170 114 379 114q247 0 403 -159zM1202 1210q-112 133 -305 133
q-148 0 -265 -76q-102 -66 -169 -182q-117 -205 -117 -475q0 -147 34 -241zM446 252q112 -131 309 -131q281 0 430 260q117 208 117 477q0 137 -35 235z" />
    <glyph glyph-name="Ugrave" unicode="&#xd9;" horiz-adv-x="1424" 
d="M1230 498q-42 -218 -127 -328q-145 -188 -432 -188q-249 0 -374 129q-109 113 -109 311q0 78 29 221l159 821h168l-166 -848q-24 -126 -24 -198q0 -161 91 -232q80 -63 237 -63q184 0 276 103q80 92 119 294l184 944h158zM727 1956h207l65 -332h-104z" />
    <glyph glyph-name="Uacute" unicode="&#xda;" horiz-adv-x="1424" 
d="M1230 498q-42 -218 -127 -328q-145 -188 -432 -188q-249 0 -374 129q-109 113 -109 311q0 78 29 221l159 821h168l-166 -848q-24 -126 -24 -198q0 -161 91 -232q80 -63 237 -63q184 0 276 103q80 92 119 294l184 944h158zM1034 1976h221l-264 -331h-117z" />
    <glyph glyph-name="Ucircumflex" unicode="&#xdb;" horiz-adv-x="1424" 
d="M1230 498q-42 -218 -127 -328q-145 -188 -432 -188q-249 0 -374 129q-109 113 -109 311q0 78 29 221l159 821h168l-166 -848q-24 -126 -24 -198q0 -161 91 -232q80 -63 237 -63q184 0 276 103q80 92 119 294l184 944h158zM929 1956h146l135 -332h-111l-119 193l-196 -193
h-115z" />
    <glyph glyph-name="Udieresis" unicode="&#xdc;" horiz-adv-x="1424" 
d="M770 1858q46 0 75 -27.5t29 -71.5q0 -50 -36.5 -86.5t-86.5 -36.5q-43 0 -72.5 29t-29.5 72q0 50 35.5 85.5t85.5 35.5zM1155 1858q45 0 74.5 -28t29.5 -71q0 -50 -36.5 -86.5t-86.5 -36.5q-44 0 -73 28.5t-29 72.5q0 50 35.5 85.5t85.5 35.5zM1230 498
q-42 -218 -127 -328q-145 -188 -432 -188q-249 0 -374 129q-109 113 -109 311q0 78 29 221l159 821h168l-166 -848q-24 -126 -24 -198q0 -161 91 -232q80 -63 237 -63q184 0 276 103q80 92 119 294l184 944h158z" />
    <glyph glyph-name="Yacute" unicode="&#xdd;" horiz-adv-x="1168" 
d="M529 616l-319 848h178l250 -702l500 702h182l-627 -858l-116 -606h-166zM900 1976h221l-264 -331h-117z" />
    <glyph glyph-name="Thorn" unicode="&#xde;" horiz-adv-x="1284" 
d="M377 1464h166l-56 -284h314q214 0 321 -105q94 -92 94 -253q0 -242 -166 -372q-144 -114 -380 -114h-347l-65 -336h-166zM688 473q362 0 362 334q0 128 -73 185q-65 49 -191 49h-325l-111 -568h338z" />
    <glyph glyph-name="germandbls" unicode="&#xdf;" horiz-adv-x="1186" 
d="M317 1163q41 209 165 312q107 89 269 89q161 0 254 -102q80 -89 80 -227q0 -131 -80 -234q-42 -51 -90 -80.5t-127 -52.5q148 -47 212 -150q57 -91 57 -237q0 -244 -136 -378q-119 -117 -311 -117q-115 0 -201 51l29 137h4q72 -47 168 -47q140 0 211 107q62 93 62 253
q0 165 -75 236q-66 62 -214 80l28 143q89 1 139.5 19t93.5 63q72 81 72 200q0 104 -55 157q-49 46 -133 46q-198 0 -246 -254l-229 -1177h-172z" />
    <glyph glyph-name="agrave" unicode="&#xe0;" horiz-adv-x="1089" 
d="M905 -8q-21 -2 -45 -2q-172 0 -197 153q-135 -161 -307 -161q-144 0 -229 90q-74 77 -74 195q0 141 92 225q80 73 240 110q110 26 362 37l13 67l1 7q7 43 7 67q0 168 -180 168q-88 0 -160.5 -28t-155.5 -95l-80 109q182 155 414 155q168 0 254 -83q76 -72 76 -195
q0 -53 -11 -105l-92 -477q-4 -23 -4 -32q0 -39 23.5 -56t79.5 -18zM723 520q-288 -8 -401 -73q-99 -57 -99 -174q0 -156 180 -156q120 0 201 73q69 63 88 164zM463 1593h207l65 -348h-104z" />
    <glyph glyph-name="aacute" unicode="&#xe1;" horiz-adv-x="1086" 
d="M905 -8q-21 -2 -45 -2q-172 0 -197 153q-135 -161 -307 -161q-144 0 -229 90q-74 77 -74 195q0 141 92 225q80 73 240 110q110 26 362 37l13 67l1 7q7 43 7 67q0 168 -180 168q-88 0 -160.5 -28t-155.5 -95l-80 109q182 155 414 155q168 0 254 -83q76 -72 76 -195
q0 -53 -11 -105l-92 -477q-4 -23 -4 -32q0 -39 23.5 -56t79.5 -18zM723 520q-288 -8 -401 -73q-99 -57 -99 -174q0 -156 180 -156q120 0 201 73q69 63 88 164zM756 1591h221l-262 -350h-117z" />
    <glyph glyph-name="acircumflex" unicode="&#xe2;" horiz-adv-x="1087" 
d="M905 -8q-21 -2 -45 -2q-172 0 -197 153q-135 -161 -307 -161q-144 0 -229 90q-74 77 -74 195q0 141 92 225q80 73 240 110q110 26 362 37l13 67l1 7q7 43 7 67q0 168 -180 168q-88 0 -160.5 -28t-155.5 -95l-80 109q182 155 414 155q168 0 254 -83q76 -72 76 -195
q0 -53 -11 -105l-92 -477q-4 -23 -4 -32q0 -39 23.5 -56t79.5 -18zM723 520q-288 -8 -401 -73q-99 -57 -99 -174q0 -156 180 -156q120 0 201 73q69 63 88 164zM673 1575h146l135 -332h-111l-119 193l-196 -193h-115z" />
    <glyph glyph-name="atilde" unicode="&#xe3;" horiz-adv-x="1083" 
d="M905 -8q-21 -2 -45 -2q-172 0 -197 153q-135 -161 -307 -161q-144 0 -229 90q-74 77 -74 195q0 141 92 225q80 73 240 110q110 26 362 37l13 67l1 7q7 43 7 67q0 168 -180 168q-88 0 -160.5 -28t-155.5 -95l-80 109q182 155 414 155q168 0 254 -83q76 -72 76 -195
q0 -53 -11 -105l-92 -477q-4 -23 -4 -32q0 -39 23.5 -56t79.5 -18zM723 520q-288 -8 -401 -73q-99 -57 -99 -174q0 -156 180 -156q120 0 201 73q69 63 88 164zM383 1319q47 221 190 221q55 0 154 -60q65 -39 94 -39q61 0 86 103l105 -12q-48 -222 -193 -222q-55 0 -151 60
q-65 39 -95 39q-59 0 -84 -103z" />
    <glyph glyph-name="adieresis" unicode="&#xe4;" horiz-adv-x="1084" 
d="M905 -8q-21 -2 -45 -2q-172 0 -197 153q-135 -161 -307 -161q-144 0 -229 90q-74 77 -74 195q0 141 92 225q80 73 240 110q110 26 362 37l13 67l1 7q7 43 7 67q0 168 -180 168q-88 0 -160.5 -28t-155.5 -95l-80 109q182 155 414 155q168 0 254 -83q76 -72 76 -195
q0 -53 -11 -105l-92 -477q-4 -23 -4 -32q0 -39 23.5 -56t79.5 -18zM723 520q-288 -8 -401 -73q-99 -57 -99 -174q0 -156 180 -156q120 0 201 73q69 63 88 164zM510 1520q46 0 75 -27.5t29 -71.5q0 -50 -36.5 -86.5t-86.5 -36.5q-43 0 -72.5 29t-29.5 72q0 50 35.5 85.5
t85.5 35.5zM895 1520q45 0 74.5 -28t29.5 -71q0 -50 -36.5 -86.5t-86.5 -36.5q-44 0 -73 28.5t-29 72.5q0 50 35.5 85.5t85.5 35.5z" />
    <glyph glyph-name="aring" unicode="&#xe5;" horiz-adv-x="1089" 
d="M905 -8q-21 -2 -45 -2q-172 0 -197 153q-135 -161 -307 -161q-144 0 -229 90q-74 77 -74 195q0 141 92 225q80 73 240 110q110 26 362 37l13 67l1 7q7 43 7 67q0 168 -180 168q-88 0 -160.5 -28t-155.5 -95l-80 109q182 155 414 155q168 0 254 -83q76 -72 76 -195
q0 -53 -11 -105l-92 -477q-4 -23 -4 -32q0 -39 23.5 -56t79.5 -18zM723 520q-288 -8 -401 -73q-99 -57 -99 -174q0 -156 180 -156q120 0 201 73q69 63 88 164zM710 1630q91 0 147 -62q48 -54 48 -133q0 -102 -74 -171q-65 -60 -151 -60q-89 0 -145 63q-48 55 -48 134
q0 100 75 169q64 60 148 60zM706 1538q-51 0 -83 -37.5t-32 -97.5q0 -49 25.5 -78t69.5 -29q49 0 83 39t34 96q0 48 -27 77.5t-70 29.5z" />
    <glyph glyph-name="ae" unicode="&#xe6;" horiz-adv-x="1724" 
d="M385 -18q-155 0 -244 86q-78 75 -78 190q0 113 66 194q57 71 157 105q126 47 400 47h63l21 102q8 36 8 78q0 164 -180 164q-87 0 -159.5 -28t-156.5 -95l-80 109q182 155 416 155q123 0 195 -43t106 -137q168 180 391 180q158 0 246 -89q76 -77 76 -202q0 -135 -92 -206
q-81 -61 -252 -88q-135 -22 -391 -25q-5 -25 -5 -66q0 -294 236 -294q171 0 264 135l127 -76q-83 -108 -171.5 -152t-225.5 -44q-255 0 -357 212q-79 -112 -168.5 -162t-211.5 -50zM915 604q250 0 348 16q107 17 154 60t47 123q0 147 -170 147q-175 0 -287 -145
q-55 -71 -92 -201zM409 117q121 0 203 73q73 65 90 164l23 129h-74q-240 0 -335 -56q-83 -49 -83 -157q0 -153 176 -153z" />
    <glyph glyph-name="ccedilla" unicode="&#xe7;" horiz-adv-x="1090" 
d="M517 119q88 0 148.5 36.5t127.5 131.5l119 -78q-84 -118 -173.5 -170.5t-213.5 -57.5l-92 -106q33 8 49 8q60 0 96.5 -39.5t36.5 -103.5q0 -85 -67 -135q-57 -43 -146 -43q-113 0 -188 84l80 67q41 -57 116 -57q86 0 86 82q0 67 -67 67q-35 0 -66 -30l-63 57l135 154
q-167 23 -257 152q-79 114 -79 286q0 309 175 500q152 165 372 165q125 0 209.5 -53.5t140.5 -169.5l-143 -67q-44 89 -89 121t-126 32q-179 0 -281 -160q-88 -139 -88 -358q0 -315 248 -315z" />
    <glyph glyph-name="egrave" unicode="&#xe8;" horiz-adv-x="1072" 
d="M892 178q-83 -108 -172 -152t-226 -44q-199 0 -303 129q-92 113 -92 303q0 184 79 341q77 153 209 242q135 92 296 92q157 0 246 -91q77 -79 77 -204q0 -184 -203 -266q-177 -72 -536 -77v-48q0 -284 235 -284q170 0 263 135zM285 582q316 0 442 55q111 48 111 153
q0 78 -45 120t-129 42q-288 0 -379 -370zM476 1593h207l65 -348h-104z" />
    <glyph glyph-name="eacute" unicode="&#xe9;" horiz-adv-x="1072" 
d="M892 178q-83 -108 -172 -152t-226 -44q-199 0 -303 129q-92 113 -92 303q0 184 79 341q77 153 209 242q135 92 296 92q157 0 246 -91q77 -79 77 -204q0 -184 -203 -266q-177 -72 -536 -77v-48q0 -284 235 -284q170 0 263 135zM285 582q316 0 442 55q111 48 111 153
q0 78 -45 120t-129 42q-288 0 -379 -370zM769 1591h221l-262 -350h-117z" />
    <glyph glyph-name="ecircumflex" unicode="&#xea;" horiz-adv-x="1072" 
d="M892 178q-83 -108 -172 -152t-226 -44q-199 0 -303 129q-92 113 -92 303q0 184 79 341q77 153 209 242q135 92 296 92q157 0 246 -91q77 -79 77 -204q0 -184 -203 -266q-177 -72 -536 -77v-48q0 -284 235 -284q170 0 263 135zM285 582q316 0 442 55q111 48 111 153
q0 78 -45 120t-129 42q-288 0 -379 -370zM687 1575h146l135 -332h-111l-119 193l-196 -193h-115z" />
    <glyph glyph-name="edieresis" unicode="&#xeb;" horiz-adv-x="1071" 
d="M892 178q-83 -108 -172 -152t-226 -44q-199 0 -303 129q-92 113 -92 303q0 184 79 341q77 153 209 242q135 92 296 92q157 0 246 -91q77 -79 77 -204q0 -184 -203 -266q-177 -72 -536 -77v-48q0 -284 235 -284q170 0 263 135zM285 582q316 0 442 55q111 48 111 153
q0 78 -45 120t-129 42q-288 0 -379 -370zM523 1520q46 0 75 -27.5t29 -71.5q0 -50 -36.5 -86.5t-86.5 -36.5q-43 0 -72.5 29t-29.5 72q0 50 35.5 85.5t85.5 35.5zM908 1520q45 0 74.5 -28t29.5 -71q0 -50 -36.5 -86.5t-86.5 -36.5q-44 0 -73 28.5t-29 72.5q0 50 35.5 85.5
t85.5 35.5z" />
    <glyph glyph-name="igrave" unicode="&#xec;" horiz-adv-x="568" 
d="M305 1071h168l-209 -1071h-168zM223 1593h207l65 -348h-104z" />
    <glyph glyph-name="iacute" unicode="&#xed;" horiz-adv-x="575" 
d="M305 1071h168l-209 -1071h-168zM516 1591h221l-262 -350h-117z" />
    <glyph glyph-name="icircumflex" unicode="&#xee;" horiz-adv-x="574" 
d="M305 1071h168l-209 -1071h-168zM434 1575h146l135 -332h-111l-119 193l-196 -193h-115z" />
    <glyph glyph-name="idieresis" unicode="&#xef;" horiz-adv-x="577" 
d="M305 1071h168l-209 -1071h-168zM270 1520q46 0 75 -27.5t29 -71.5q0 -50 -36.5 -86.5t-86.5 -36.5q-43 0 -72.5 29t-29.5 72q0 50 35.5 85.5t85.5 35.5zM655 1520q45 0 74.5 -28t29.5 -71q0 -50 -36.5 -86.5t-86.5 -36.5q-44 0 -73 28.5t-29 72.5q0 50 35.5 85.5
t85.5 35.5z" />
    <glyph glyph-name="eth" unicode="&#xf0;" horiz-adv-x="1143" 
d="M803 1399q135 -158 194.5 -316.5t59.5 -359.5q0 -359 -166 -563q-145 -178 -372 -178q-207 0 -319 139q-97 121 -97 319q0 291 173 483q149 166 353 166q135 0 215 -94q-60 167 -170 299l-165 -133l-60 84l156 125q-61 57 -105 92l-14 12l94 121q98 -75 150 -125l151 123
l60 -84zM635 950q-174 0 -275 -163q-87 -142 -87 -359q0 -309 250 -309q171 0 264 166q88 159 88 370q0 295 -240 295z" />
    <glyph glyph-name="ntilde" unicode="&#xf1;" horiz-adv-x="1197" 
d="M301 1071h168l-29 -154q125 172 321 172q145 0 222 -90q67 -78 67 -211q0 -47 -14 -124l-129 -664h-168l131 676q10 48 10 96q0 178 -174 178q-133 0 -220 -95q-76 -82 -103 -222l-123 -633h-168zM457 1319q47 221 190 221q55 0 154 -60q65 -39 94 -39q61 0 86 103
l105 -12q-48 -222 -193 -222q-55 0 -151 60q-65 39 -95 39q-59 0 -84 -103z" />
    <glyph glyph-name="ograve" unicode="&#xf2;" horiz-adv-x="1152" 
d="M646 1089q200 0 309 -136q94 -119 94 -314q0 -161 -59 -307q-50 -126 -133 -211q-143 -139 -342 -139q-204 0 -315 140q-97 121 -97 318q0 298 175 486q152 163 368 163zM635 952q-174 0 -275 -163q-87 -142 -87 -361q0 -309 250 -309q168 0 264 166q88 163 88 370
q0 297 -240 297zM515 1593h207l65 -348h-104z" />
    <glyph glyph-name="oacute" unicode="&#xf3;" horiz-adv-x="1152" 
d="M646 1089q200 0 309 -136q94 -119 94 -314q0 -161 -59 -307q-50 -126 -133 -211q-143 -139 -342 -139q-204 0 -315 140q-97 121 -97 318q0 298 175 486q152 163 368 163zM635 952q-174 0 -275 -163q-87 -142 -87 -361q0 -309 250 -309q168 0 264 166q88 163 88 370
q0 297 -240 297zM808 1591h221l-262 -350h-117z" />
    <glyph glyph-name="ocircumflex" unicode="&#xf4;" horiz-adv-x="1152" 
d="M646 1089q200 0 309 -136q94 -119 94 -314q0 -161 -59 -307q-50 -126 -133 -211q-143 -139 -342 -139q-204 0 -315 140q-97 121 -97 318q0 298 175 486q152 163 368 163zM635 952q-174 0 -275 -163q-87 -142 -87 -361q0 -309 250 -309q168 0 264 166q88 163 88 370
q0 297 -240 297zM725 1575h146l135 -332h-111l-119 193l-196 -193h-115z" />
    <glyph glyph-name="otilde" unicode="&#xf5;" horiz-adv-x="1151" 
d="M646 1089q200 0 309 -136q94 -119 94 -314q0 -161 -59 -307q-50 -126 -133 -211q-143 -139 -342 -139q-204 0 -315 140q-97 121 -97 318q0 298 175 486q152 163 368 163zM635 952q-174 0 -275 -163q-87 -142 -87 -361q0 -309 250 -309q168 0 264 166q88 163 88 370
q0 297 -240 297zM435 1319q47 221 190 221q55 0 154 -60q65 -39 94 -39q61 0 86 103l105 -12q-48 -222 -193 -222q-55 0 -151 60q-65 39 -95 39q-59 0 -84 -103z" />
    <glyph glyph-name="odieresis" unicode="&#xf6;" horiz-adv-x="1152" 
d="M646 1089q200 0 309 -136q94 -119 94 -314q0 -161 -59 -307q-50 -126 -133 -211q-143 -139 -342 -139q-204 0 -315 140q-97 121 -97 318q0 298 175 486q152 163 368 163zM635 952q-174 0 -275 -163q-87 -142 -87 -361q0 -309 250 -309q168 0 264 166q88 163 88 370
q0 297 -240 297zM562 1520q46 0 75 -27.5t29 -71.5q0 -50 -36.5 -86.5t-86.5 -36.5q-43 0 -72.5 29t-29.5 72q0 50 35.5 85.5t85.5 35.5zM947 1520q45 0 74.5 -28t29.5 -71q0 -50 -36.5 -86.5t-86.5 -36.5q-44 0 -73 28.5t-29 72.5q0 50 35.5 85.5t85.5 35.5z" />
    <glyph glyph-name="divide" unicode="&#xf7;" horiz-adv-x="1166" 
d="M702 1214q51 0 85 -34t34 -84q0 -57 -40 -96t-97 -39q-51 0 -86 34t-35 84q0 56 41 95.5t98 39.5zM211 768h839l-26 -135h-840zM552 440q51 0 85 -34t34 -85q0 -56 -40 -95.5t-97 -39.5q-51 0 -86 34t-35 85q0 56 40.5 95.5t98.5 39.5z" />
    <glyph glyph-name="oslash" unicode="&#xf8;" horiz-adv-x="1142" 
d="M987 1071h176l-172 -182q53 -98 53 -250q0 -303 -170 -493q-148 -164 -360 -164q-176 0 -285 102l-78 -84h-174l176 186q-55 105 -55 256q0 265 149 457q151 190 394 190q169 0 272 -96zM806 881q-61 73 -176 73q-174 0 -275 -165q-87 -142 -87 -361q0 -67 10 -111z
M333 193q65 -74 181 -74q174 0 268 166q88 163 88 370q0 54 -8 99z" />
    <glyph glyph-name="ugrave" unicode="&#xf9;" horiz-adv-x="1177" 
d="M739 158q-66 -92 -140.5 -134t-170.5 -42q-140 0 -214 89q-65 78 -65 210q0 49 14 127l129 663h168l-131 -676q-12 -70 -12 -106q0 -168 162 -168q128 0 213 95q75 83 102 222l123 633h168l-209 -1071h-168zM530 1593h207l65 -348h-104z" />
    <glyph glyph-name="uacute" unicode="&#xfa;" horiz-adv-x="1177" 
d="M739 158q-66 -92 -140.5 -134t-170.5 -42q-140 0 -214 89q-65 78 -65 210q0 49 14 127l129 663h168l-131 -676q-12 -70 -12 -106q0 -168 162 -168q128 0 213 95q75 83 102 222l123 633h168l-209 -1071h-168zM823 1591h221l-262 -350h-117z" />
    <glyph glyph-name="ucircumflex" unicode="&#xfb;" horiz-adv-x="1177" 
d="M739 158q-66 -92 -140.5 -134t-170.5 -42q-140 0 -214 89q-65 78 -65 210q0 49 14 127l129 663h168l-131 -676q-12 -70 -12 -106q0 -168 162 -168q128 0 213 95q75 83 102 222l123 633h168l-209 -1071h-168zM741 1575h146l135 -332h-111l-119 193l-196 -193h-115z" />
    <glyph glyph-name="udieresis" unicode="&#xfc;" horiz-adv-x="1177" 
d="M739 158q-66 -92 -140.5 -134t-170.5 -42q-140 0 -214 89q-65 78 -65 210q0 49 14 127l129 663h168l-131 -676q-12 -70 -12 -106q0 -168 162 -168q128 0 213 95q75 83 102 222l123 633h168l-209 -1071h-168zM577 1520q46 0 75 -27.5t29 -71.5q0 -50 -36.5 -86.5
t-86.5 -36.5q-43 0 -72.5 29t-29.5 72q0 50 35.5 85.5t85.5 35.5zM962 1520q45 0 74.5 -28t29.5 -71q0 -50 -36.5 -86.5t-86.5 -36.5q-44 0 -73 28.5t-29 72.5q0 50 35.5 85.5t85.5 35.5z" />
    <glyph glyph-name="yacute" unicode="&#xfd;" horiz-adv-x="955" 
d="M363 -180q-58 -110 -126 -157.5t-168 -47.5q-106 0 -193 72l80 114q53 -53 119 -53q101 0 163 127l72 147l-176 1049h174l129 -821l416 821h180zM712 1591h221l-262 -350h-117z" />
    <glyph glyph-name="thorn" unicode="&#xfe;" horiz-adv-x="1241" 
d="M386 1542h168l-123 -641q132 188 338 188q182 0 279 -131q85 -114 85 -303q0 -309 -172 -504q-149 -169 -360 -169q-228 0 -312 200l-106 -555h-168zM726 954q-181 0 -291 -168q-96 -147 -96 -362q0 -307 266 -307q168 0 265 165q85 142 85 361q0 311 -229 311z" />
    <glyph glyph-name="ydieresis" unicode="&#xff;" horiz-adv-x="955" 
d="M466 1520q46 0 75 -27.5t29 -71.5q0 -50 -36.5 -86.5t-86.5 -36.5q-43 0 -72.5 29t-29.5 72q0 50 35.5 85.5t85.5 35.5zM851 1520q45 0 74.5 -28t29.5 -71q0 -50 -36.5 -86.5t-86.5 -36.5q-44 0 -73 28.5t-29 72.5q0 50 35.5 85.5t85.5 35.5zM363 -180
q-58 -110 -126 -157.5t-168 -47.5q-106 0 -193 72l80 114q53 -53 119 -53q101 0 163 127l72 147l-176 1049h174l129 -821l416 821h180z" />
    <glyph glyph-name="Amacron" unicode="&#x100;" horiz-adv-x="1272" 
d="M105 0h-168l791 1464h163l230 -1464h-164l-55 371h-603zM881 506l-113 761l-399 -761h512zM632 1784h487l-25 -125h-487z" />
    <glyph glyph-name="amacron" unicode="&#x101;" horiz-adv-x="1088" 
d="M905 -8q-21 -2 -45 -2q-172 0 -197 153q-135 -161 -307 -161q-144 0 -229 90q-74 77 -74 195q0 141 92 225q80 73 240 110q110 26 362 37l13 67l1 7q7 43 7 67q0 168 -180 168q-88 0 -160.5 -28t-155.5 -95l-80 109q182 155 414 155q168 0 254 -83q76 -72 76 -195
q0 -53 -11 -105l-92 -477q-4 -23 -4 -32q0 -39 23.5 -56t79.5 -18zM723 520q-288 -8 -401 -73q-99 -57 -99 -174q0 -156 180 -156q120 0 201 73q69 63 88 164zM459 1448h487l-25 -125h-487z" />
    <glyph glyph-name="Abreve" unicode="&#x102;" horiz-adv-x="1270" 
d="M105 0h-168l791 1464h163l230 -1464h-164l-55 371h-603zM881 506l-113 761l-399 -761h512zM715 1907q2 -95 33.5 -131.5t111.5 -36.5q79 0 119.5 39.5t50.5 128.5h125q-18 -293 -295 -293q-90 0 -156 34t-93 95q-25 55 -25 164h129z" />
    <glyph glyph-name="abreve" unicode="&#x103;" horiz-adv-x="1087" 
d="M905 -8q-21 -2 -45 -2q-172 0 -197 153q-135 -161 -307 -161q-144 0 -229 90q-74 77 -74 195q0 141 92 225q80 73 240 110q110 26 362 37l13 67l1 7q7 43 7 67q0 168 -180 168q-88 0 -160.5 -28t-155.5 -95l-80 109q182 155 414 155q168 0 254 -83q76 -72 76 -195
q0 -53 -11 -105l-92 -477q-4 -23 -4 -32q0 -39 23.5 -56t79.5 -18zM723 520q-288 -8 -401 -73q-99 -57 -99 -174q0 -156 180 -156q120 0 201 73q69 63 88 164zM563 1585q2 -104 28.5 -143t96.5 -39q71 0 105.5 42.5t43.5 139.5h125q-14 -315 -276 -315q-83 0 -144 34.5
t-85 94.5q-23 56 -23 186h129z" />
    <glyph glyph-name="Aogonek" unicode="&#x104;" horiz-adv-x="1272" 
d="M1106 -362q-78 -76 -188 -76q-90 0 -139 48q-43 42 -43 112q0 157 221 278l-55 371h-603l-194 -371h-168l791 1464h163l228 -1446q-127 -64 -196 -146q-60 -71 -60 -138q0 -78 74 -78q61 0 112 51zM881 506l-113 761l-399 -761h512z" />
    <glyph glyph-name="aogonek" unicode="&#x105;" horiz-adv-x="1089" 
d="M907 0q-103 -61 -160 -131.5t-57 -134.5q0 -78 72 -78q60 0 114 51l58 -69q-45 -42 -87 -59t-102 -17q-90 0 -139 48q-43 42 -43 112q0 157 221 278q-108 31 -121 143q-135 -161 -307 -161q-144 0 -229 90q-74 77 -74 195q0 141 92 225q80 73 240 110q110 26 362 37
l13 67l1 7q7 43 7 67q0 168 -180 168q-88 0 -160.5 -28t-155.5 -95l-80 109q182 155 414 155q168 0 254 -83q76 -72 76 -195q0 -53 -11 -105l-92 -477q-4 -23 -4 -32q0 -39 23.5 -56t79.5 -18zM723 520q-288 -8 -401 -73q-99 -57 -99 -174q0 -156 180 -156q120 0 201 73
q69 63 88 164z" />
    <glyph glyph-name="Cacute" unicode="&#x106;" horiz-adv-x="1472" 
d="M733 -18q-276 0 -424 189q-129 164 -129 437q0 248 96 450q93 197 257 309q169 115 376 115q270 0 395 -184q54 -76 78 -188l-155 -33q-18 74 -50 125q-82 141 -276 141q-157 0 -283 -96q-123 -94 -193 -261q-71 -171 -71 -384q0 -248 115 -372q101 -109 278 -109
q275 0 412 291l141 -56q-47 -98 -104 -167q-174 -207 -463 -207zM1047 1976h221l-264 -331h-117z" />
    <glyph glyph-name="cacute" unicode="&#x107;" horiz-adv-x="1090" 
d="M500 -18q-197 0 -306 135q-95 117 -95 307q0 309 175 500q152 165 372 165q125 0 209.5 -53.5t140.5 -169.5l-143 -67q-44 89 -89 121t-126 32q-179 0 -281 -160q-88 -139 -88 -358q0 -315 248 -315q88 0 148.5 36.5t127.5 131.5l119 -78q-88 -123 -182.5 -175
t-229.5 -52zM777 1591h221l-262 -350h-117z" />
    <glyph glyph-name="Ccircumflex" unicode="&#x108;" horiz-adv-x="1472" 
d="M733 -18q-276 0 -424 189q-129 164 -129 437q0 248 96 450q93 197 257 309q169 115 376 115q270 0 395 -184q54 -76 78 -188l-155 -33q-18 74 -50 125q-82 141 -276 141q-157 0 -283 -96q-123 -94 -193 -261q-71 -171 -71 -384q0 -248 115 -372q101 -109 278 -109
q275 0 412 291l141 -56q-47 -98 -104 -167q-174 -207 -463 -207zM942 1956h146l135 -332h-111l-119 193l-196 -193h-115z" />
    <glyph glyph-name="ccircumflex" unicode="&#x109;" horiz-adv-x="1090" 
d="M500 -18q-197 0 -306 135q-95 117 -95 307q0 309 175 500q152 165 372 165q125 0 209.5 -53.5t140.5 -169.5l-143 -67q-44 89 -89 121t-126 32q-179 0 -281 -160q-88 -139 -88 -358q0 -315 248 -315q88 0 148.5 36.5t127.5 131.5l119 -78q-88 -123 -182.5 -175
t-229.5 -52zM695 1575h146l135 -332h-111l-119 193l-196 -193h-115z" />
    <glyph glyph-name="Cdotaccent" unicode="&#x10a;" horiz-adv-x="1472" 
d="M733 -18q-276 0 -424 189q-129 164 -129 437q0 248 96 450q93 197 257 309q169 115 376 115q270 0 395 -184q54 -76 78 -188l-155 -33q-18 74 -50 125q-82 141 -276 141q-157 0 -283 -96q-123 -94 -193 -261q-71 -171 -71 -384q0 -248 115 -372q101 -109 278 -109
q275 0 412 291l141 -56q-47 -98 -104 -167q-174 -207 -463 -207zM975 1860q46 0 75 -27.5t29 -71.5q0 -50 -35.5 -86.5t-85.5 -36.5q-44 0 -73 28.5t-29 72.5q0 50 34.5 85.5t84.5 35.5z" />
    <glyph glyph-name="cdotaccent" unicode="&#x10b;" horiz-adv-x="1090" 
d="M500 -18q-197 0 -306 135q-95 117 -95 307q0 309 175 500q152 165 372 165q125 0 209.5 -53.5t140.5 -169.5l-143 -67q-44 89 -89 121t-126 32q-179 0 -281 -160q-88 -139 -88 -358q0 -315 248 -315q88 0 148.5 36.5t127.5 131.5l119 -78q-88 -123 -182.5 -175
t-229.5 -52zM724 1522q46 0 75 -27.5t29 -71.5q0 -50 -35.5 -86.5t-85.5 -36.5q-44 0 -73 28.5t-29 72.5q0 50 34.5 85.5t84.5 35.5z" />
    <glyph glyph-name="Ccaron" unicode="&#x10c;" horiz-adv-x="1472" 
d="M733 -18q-276 0 -424 189q-129 164 -129 437q0 248 96 450q93 197 257 309q169 115 376 115q270 0 395 -184q54 -76 78 -188l-155 -33q-18 74 -50 125q-82 141 -276 141q-157 0 -283 -96q-123 -94 -193 -261q-71 -171 -71 -384q0 -248 115 -372q101 -109 278 -109
q275 0 412 291l141 -56q-47 -98 -104 -167q-174 -207 -463 -207zM735 1956h111l118 -193l197 193h115l-260 -332h-146z" />
    <glyph glyph-name="ccaron" unicode="&#x10d;" horiz-adv-x="1088" 
d="M500 -18q-197 0 -306 135q-95 117 -95 307q0 309 175 500q152 165 372 165q125 0 209.5 -53.5t140.5 -169.5l-143 -67q-44 89 -89 121t-126 32q-179 0 -281 -160q-88 -139 -88 -358q0 -315 248 -315q88 0 148.5 36.5t127.5 131.5l119 -78q-88 -123 -182.5 -175
t-229.5 -52zM474 1575h111l118 -193l197 193h115l-260 -332h-146z" />
    <glyph glyph-name="Dcaron" unicode="&#x10e;" horiz-adv-x="1450" 
d="M377 1464h401q238 0 371 -92q211 -145 211 -498q0 -216 -69 -398q-60 -159 -163 -265q-204 -211 -559 -211h-477zM588 139q304 0 464 222q140 193 140 520q0 248 -113 352q-100 92 -305 92h-258l-231 -1186h303zM606 1956h111l118 -193l197 193h115l-260 -332h-146z" />
    <glyph glyph-name="dcaron" unicode="&#x10f;" horiz-adv-x="1302" 
d="M811 158q-72 -94 -148 -135t-177 -41q-186 0 -288 137q-89 119 -89 309q0 307 168 497q145 164 356 164q231 0 320 -200l127 653h168l-299 -1542h-168zM644 952q-173 0 -271 -162q-86 -141 -86 -360q0 -311 238 -311q173 0 283 170q96 148 96 356q0 157 -77 237
q-67 70 -183 70zM1264 1235q116 21 138 116q-97 10 -97 97q0 46 30 76t76 30q51 0 80 -34t29 -93q0 -112 -70 -188q-68 -75 -202 -86z" />
    <glyph glyph-name="Dcroat" unicode="&#x110;" horiz-adv-x="1468" 
d="M111 0l127 658h-170l27 133h168l133 673h428q290 0 431 -169q124 -149 124 -416q0 -306 -129 -533q-104 -181 -288 -269q-162 -77 -374 -77h-477zM304 141h303q305 0 465 222q139 193 139 520q0 240 -112 348q-98 94 -288 94h-276l-107 -534h289l-26 -133h-287z" />
    <glyph glyph-name="dcroat" unicode="&#x111;" horiz-adv-x="1254" 
d="M1080 1542h168l-33 -174h170l-27 -143h-172l-237 -1225h-168l30 158q-72 -94 -148 -135t-177 -41q-186 0 -288 137q-89 119 -89 309q0 307 168 497q145 164 356 164q231 0 320 -200l65 336h-229l27 143h229zM644 952q-173 0 -271 -162q-86 -141 -86 -360q0 -311 238 -311
q173 0 283 170q96 148 96 356q0 157 -77 237q-67 70 -183 70z" />
    <glyph glyph-name="Emacron" unicode="&#x112;" 
d="M377 1464h876l-26 -139h-711l-102 -520h581l-24 -135h-582l-104 -531h747l-27 -139h-913zM635 1784h487l-25 -125h-487z" />
    <glyph glyph-name="emacron" unicode="&#x113;" horiz-adv-x="1072" 
d="M892 178q-83 -108 -172 -152t-226 -44q-199 0 -303 129q-92 113 -92 303q0 184 79 341q77 153 209 242q135 92 296 92q157 0 246 -91q77 -79 77 -204q0 -184 -203 -266q-177 -72 -536 -77v-48q0 -284 235 -284q170 0 263 135zM285 582q316 0 442 55q111 48 111 153
q0 78 -45 120t-129 42q-288 0 -379 -370zM472 1448h487l-25 -125h-487z" />
    <glyph glyph-name="Ebreve" unicode="&#x114;" 
d="M377 1464h876l-26 -139h-711l-102 -520h581l-24 -135h-582l-104 -531h747l-27 -139h-913zM719 1907q2 -95 33.5 -131.5t111.5 -36.5q79 0 119.5 39.5t50.5 128.5h125q-18 -293 -295 -293q-90 0 -156 34t-93 95q-25 55 -25 164h129z" />
    <glyph glyph-name="ebreve" unicode="&#x115;" horiz-adv-x="1072" 
d="M892 178q-83 -108 -172 -152t-226 -44q-199 0 -303 129q-92 113 -92 303q0 184 79 341q77 153 209 242q135 92 296 92q157 0 246 -91q77 -79 77 -204q0 -184 -203 -266q-177 -72 -536 -77v-48q0 -284 235 -284q170 0 263 135zM285 582q316 0 442 55q111 48 111 153
q0 78 -45 120t-129 42q-288 0 -379 -370zM576 1585q2 -104 28.5 -143t96.5 -39q71 0 105.5 42.5t43.5 139.5h125q-14 -315 -276 -315q-83 0 -144 34.5t-85 94.5q-23 56 -23 186h129z" />
    <glyph glyph-name="Edotaccent" unicode="&#x116;" 
d="M377 1464h876l-26 -139h-711l-102 -520h581l-24 -135h-582l-104 -531h747l-27 -139h-913zM881 1860q46 0 75 -27.5t29 -71.5q0 -50 -35.5 -86.5t-85.5 -36.5q-44 0 -73 28.5t-29 72.5q0 50 34.5 85.5t84.5 35.5z" />
    <glyph glyph-name="edotaccent" unicode="&#x117;" horiz-adv-x="1072" 
d="M892 178q-83 -108 -172 -152t-226 -44q-199 0 -303 129q-92 113 -92 303q0 184 79 341q77 153 209 242q135 92 296 92q157 0 246 -91q77 -79 77 -204q0 -184 -203 -266q-177 -72 -536 -77v-48q0 -284 235 -284q170 0 263 135zM285 582q316 0 442 55q111 48 111 153
q0 78 -45 120t-129 42q-288 0 -379 -370zM716 1522q46 0 75 -27.5t29 -71.5q0 -50 -35.5 -86.5t-85.5 -36.5q-44 0 -73 28.5t-29 72.5q0 50 34.5 85.5t84.5 35.5z" />
    <glyph glyph-name="Eogonek" unicode="&#x118;" 
d="M1005 0q-219 -135 -219 -266q0 -78 74 -78q61 0 113 51l57 -69q-79 -76 -189 -76q-90 0 -139 48q-43 42 -43 112q0 158 221 278h-788l285 1464h876l-26 -139h-711l-102 -520h581l-24 -135h-582l-104 -531h747z" />
    <glyph glyph-name="eogonek" unicode="&#x119;" horiz-adv-x="1072" 
d="M433 -438q-92 0 -141 48q-43 42 -43 112q0 150 192 261q-176 20 -264 145q-78 110 -78 285q0 185 79 342q77 153 209 242q135 92 296 92q157 0 246 -91q77 -79 77 -204q0 -184 -203 -266q-177 -72 -536 -78v-47q0 -284 235 -284q170 0 263 135l127 -76q-72 -95 -146 -139
t-176 -53q-194 -126 -194 -252q0 -78 73 -78q62 0 113 51l57 -70q-78 -75 -186 -75zM285 581q316 0 442 56q111 48 111 153q0 78 -45 120t-129 42q-288 0 -379 -371z" />
    <glyph glyph-name="Ecaron" unicode="&#x11a;" 
d="M377 1464h876l-26 -139h-711l-102 -520h581l-24 -135h-582l-104 -531h747l-27 -139h-913zM641 1956h111l118 -193l197 193h115l-260 -332h-146z" />
    <glyph glyph-name="ecaron" unicode="&#x11b;" horiz-adv-x="1072" 
d="M892 178q-83 -108 -172 -152t-226 -44q-199 0 -303 129q-92 113 -92 303q0 184 79 341q77 153 209 242q135 92 296 92q157 0 246 -91q77 -79 77 -204q0 -184 -203 -266q-177 -72 -536 -77v-48q0 -284 235 -284q170 0 263 135zM285 582q316 0 442 55q111 48 111 153
q0 78 -45 120t-129 42q-288 0 -379 -370zM466 1575h111l118 -193l197 193h115l-260 -332h-146z" />
    <glyph glyph-name="Gcircumflex" unicode="&#x11c;" horiz-adv-x="1551" 
d="M706 -18q-259 0 -400 188q-122 163 -122 431q0 251 98 454q95 199 263 312q172 115 384 115q279 0 410 -190q44 -64 66 -153l-156 -45q-44 142 -130 199q-74 50 -200 50q-266 0 -426 -233q-139 -203 -139 -505q0 -255 109 -377q94 -107 268 -107q196 0 327 137
q114 118 160 322l8 37h-368l26 139h531l-148 -756h-100l10 256q-175 -274 -471 -274zM972 1956h146l135 -332h-111l-119 193l-196 -193h-115z" />
    <glyph glyph-name="gcircumflex" unicode="&#x11d;" horiz-adv-x="1124" 
d="M929 938q58 -83 58 -178q0 -172 -134 -277q-116 -92 -286 -92q-108 0 -203 43q-74 -51 -74 -110q0 -84 117 -84h213q169 0 258 -81q78 -71 78 -190q0 -182 -162 -281q-142 -87 -371 -87q-219 0 -337 85q-103 74 -103 195q0 85 55 144t174 102q-84 57 -84 152
q0 125 152 211q-102 99 -102 225q0 168 141 278q123 96 291 96q104 0 198 -47l330 45l-29 -149h-180zM596 960q-119 0 -188 -76q-60 -65 -60 -165q0 -99 68 -152q59 -47 157 -47q123 0 188 71q56 63 56 168q0 100 -67 154q-58 47 -154 47zM382 88q-32 0 -61 4
q-160 -72 -160 -194q0 -160 281 -160q174 0 259 61q75 54 75 150q0 139 -175 139h-219zM698 1575h146l135 -332h-111l-119 193l-196 -193h-115z" />
    <glyph glyph-name="Gbreve" unicode="&#x11e;" horiz-adv-x="1551" 
d="M706 -18q-259 0 -400 188q-122 163 -122 431q0 251 98 454q95 199 263 312q172 115 384 115q279 0 410 -190q44 -64 66 -153l-156 -45q-44 142 -130 199q-74 50 -200 50q-266 0 -426 -233q-139 -203 -139 -505q0 -255 109 -377q94 -107 268 -107q196 0 327 137
q114 118 160 322l8 37h-368l26 139h531l-148 -756h-100l10 256q-175 -274 -471 -274zM843 1907q2 -95 33.5 -131.5t111.5 -36.5q79 0 119.5 39.5t50.5 128.5h125q-18 -293 -295 -293q-90 0 -156 34t-93 95q-25 55 -25 164h129z" />
    <glyph glyph-name="gbreve" unicode="&#x11f;" horiz-adv-x="1124" 
d="M929 938q58 -83 58 -178q0 -172 -134 -277q-116 -92 -286 -92q-108 0 -203 43q-74 -51 -74 -110q0 -84 117 -84h213q169 0 258 -81q78 -71 78 -190q0 -182 -162 -281q-142 -87 -371 -87q-219 0 -337 85q-103 74 -103 195q0 85 55 144t174 102q-84 57 -84 152
q0 125 152 211q-102 99 -102 225q0 168 141 278q123 96 291 96q104 0 198 -47l330 45l-29 -149h-180zM596 960q-119 0 -188 -76q-60 -65 -60 -165q0 -99 68 -152q59 -47 157 -47q123 0 188 71q56 63 56 168q0 100 -67 154q-58 47 -154 47zM382 88q-32 0 -61 4
q-160 -72 -160 -194q0 -160 281 -160q174 0 259 61q75 54 75 150q0 139 -175 139h-219zM587 1585q2 -104 28.5 -143t96.5 -39q71 0 105.5 42.5t43.5 139.5h125q-14 -315 -276 -315q-83 0 -144 34.5t-85 94.5q-23 56 -23 186h129z" />
    <glyph glyph-name="Gdotaccent" unicode="&#x120;" horiz-adv-x="1551" 
d="M706 -18q-259 0 -400 188q-122 163 -122 431q0 251 98 454q95 199 263 312q172 115 384 115q279 0 410 -190q44 -64 66 -153l-156 -45q-44 142 -130 199q-74 50 -200 50q-266 0 -426 -233q-139 -203 -139 -505q0 -255 109 -377q94 -107 268 -107q196 0 327 137
q114 118 160 322l8 37h-368l26 139h531l-148 -756h-100l10 256q-175 -274 -471 -274zM1005 1860q46 0 75 -27.5t29 -71.5q0 -50 -35.5 -86.5t-85.5 -36.5q-44 0 -73 28.5t-29 72.5q0 50 34.5 85.5t84.5 35.5z" />
    <glyph glyph-name="gdotaccent" unicode="&#x121;" horiz-adv-x="1124" 
d="M929 938q58 -83 58 -178q0 -172 -134 -277q-116 -92 -286 -92q-108 0 -203 43q-74 -51 -74 -110q0 -84 117 -84h213q169 0 258 -81q78 -71 78 -190q0 -182 -162 -281q-142 -87 -371 -87q-219 0 -337 85q-103 74 -103 195q0 85 55 144t174 102q-84 57 -84 152
q0 125 152 211q-102 99 -102 225q0 168 141 278q123 96 291 96q104 0 198 -47l330 45l-29 -149h-180zM596 960q-119 0 -188 -76q-60 -65 -60 -165q0 -99 68 -152q59 -47 157 -47q123 0 188 71q56 63 56 168q0 100 -67 154q-58 47 -154 47zM382 88q-32 0 -61 4
q-160 -72 -160 -194q0 -160 281 -160q174 0 259 61q75 54 75 150q0 139 -175 139h-219zM727 1522q46 0 75 -27.5t29 -71.5q0 -50 -35.5 -86.5t-85.5 -36.5q-44 0 -73 28.5t-29 72.5q0 50 34.5 85.5t84.5 35.5z" />
    <glyph glyph-name="Gcommaaccent" unicode="&#x122;" horiz-adv-x="1551" 
d="M706 -18q-259 0 -400 188q-122 163 -122 431q0 251 98 454q95 199 263 312q172 115 384 115q279 0 410 -190q44 -64 66 -153l-156 -45q-44 142 -130 199q-74 50 -200 50q-266 0 -426 -233q-139 -203 -139 -505q0 -255 109 -377q94 -107 268 -107q196 0 327 137
q114 118 160 322l8 37h-368l26 139h531l-148 -756h-100l10 256q-175 -274 -471 -274zM497 -414q116 22 138 117q-97 13 -97 96q0 47 30 77t76 30q51 0 80 -34t29 -93q0 -112 -70 -189q-69 -71 -202 -86z" />
    <glyph glyph-name="gcommaaccent" unicode="&#x123;" horiz-adv-x="1124" 
d="M839 1532q-116 -21 -137 -117q96 -9 96 -96q0 -45 -31 -76t-76 -31q-50 0 -79 34t-29 93q0 119 70 189q75 75 202 86zM929 938q58 -83 58 -178q0 -172 -134 -277q-116 -92 -286 -92q-108 0 -203 43q-74 -51 -74 -110q0 -84 117 -84h213q169 0 258 -81q78 -71 78 -190
q0 -182 -162 -281q-142 -87 -371 -87q-219 0 -337 85q-103 74 -103 195q0 85 55 144t174 102q-84 57 -84 152q0 125 152 211q-102 99 -102 225q0 168 141 278q123 96 291 96q104 0 198 -47l330 45l-29 -149h-180zM596 960q-119 0 -188 -76q-60 -65 -60 -165q0 -99 68 -152
q59 -47 157 -47q123 0 188 71q56 63 56 168q0 100 -67 154q-58 47 -154 47zM382 88q-32 0 -61 4q-160 -72 -160 -194q0 -160 281 -160q174 0 259 61q75 54 75 150q0 139 -175 139h-219z" />
    <glyph glyph-name="Hcircumflex" unicode="&#x124;" horiz-adv-x="1399" 
d="M377 1464h168l-129 -667h675l129 667h168l-284 -1464h-168l127 654h-676l-127 -654h-168zM913 1956h146l135 -332h-111l-119 193l-196 -193h-115z" />
    <glyph glyph-name="hcircumflex" unicode="&#x125;" horiz-adv-x="1199" 
d="M391 1542h168l-119 -625q125 172 321 172q145 0 222 -90q67 -78 67 -211q0 -47 -14 -124l-129 -664h-168l131 676q10 54 10 100q0 174 -174 174q-133 0 -220 -95q-76 -82 -103 -222l-123 -633h-168zM506 2034h146l135 -332h-111l-119 193l-196 -193h-115z" />
    <glyph glyph-name="Hbar" unicode="&#x126;" horiz-adv-x="1416" 
d="M297 1057h-189l27 129h186l56 278h172l-56 -278h676l56 278h172l-56 -278h191l-27 -129h-188l-205 -1057h-172l127 654h-676l-127 -654h-172zM1096 797l49 260h-676l-49 -260h676z" />
    <glyph glyph-name="hbar" unicode="&#x127;" horiz-adv-x="1199" 
d="M92 0l240 1231h-150l27 135h147l35 176h168l-33 -176h252l-27 -135h-251l-60 -314q125 172 321 172q145 0 222 -90q67 -78 67 -211q0 -47 -14 -124l-129 -664h-168l131 676q10 54 10 100q0 174 -174 174q-133 0 -220 -95q-76 -82 -103 -222l-123 -633h-168z" />
    <glyph glyph-name="Itilde" unicode="&#x128;" horiz-adv-x="607" 
d="M394 1464h168l-285 -1464h-168zM220 1651q47 221 190 221q59 0 154 -60q67 -39 94 -39q62 0 86 103l105 -12q-48 -222 -193 -222q-55 0 -151 60q-65 39 -92 39q-62 0 -87 -103z" />
    <glyph glyph-name="itilde" unicode="&#x129;" horiz-adv-x="578" 
d="M305 1071h168l-209 -1071h-168zM143 1319q47 221 190 221q55 0 154 -60q65 -39 94 -39q61 0 86 103l105 -12q-48 -222 -193 -222q-55 0 -151 60q-65 39 -95 39q-59 0 -84 -103z" />
    <glyph glyph-name="Imacron" unicode="&#x12a;" horiz-adv-x="602" 
d="M394 1464h168l-285 -1464h-168zM296 1784h487l-25 -125h-487z" />
    <glyph glyph-name="imacron" unicode="&#x12b;" horiz-adv-x="573" 
d="M305 1071h168l-209 -1071h-168zM219 1448h487l-25 -125h-487z" />
    <glyph glyph-name="Ibreve" unicode="&#x12c;" horiz-adv-x="605" 
d="M394 1464h168l-285 -1464h-168zM379 1907q2 -95 33.5 -131.5t111.5 -36.5q79 0 119.5 39.5t50.5 128.5h125q-18 -293 -295 -293q-90 0 -156 34t-93 95q-25 55 -25 164h129z" />
    <glyph glyph-name="ibreve" unicode="&#x12d;" horiz-adv-x="575" 
d="M305 1071h168l-209 -1071h-168zM323 1585q2 -104 28.5 -143t96.5 -39q71 0 105.5 42.5t43.5 139.5h125q-14 -315 -276 -315q-83 0 -144 34.5t-85 94.5q-23 56 -23 186h129z" />
    <glyph glyph-name="Iogonek" unicode="&#x12e;" horiz-adv-x="592" 
d="M396 1464h168l-279 -1438q-268 -143 -268 -293q0 -78 74 -78q61 0 112 52l58 -70q-79 -76 -189 -76q-90 0 -139 48q-43 42 -43 112q0 159 221 279z" />
    <glyph glyph-name="iogonek" unicode="&#x12f;" horiz-adv-x="567" 
d="M460 1507q44 0 72 -26t28 -68q0 -49 -35 -84t-84 -35q-42 0 -69 28t-27 70q0 48 33.5 81.5t81.5 33.5zM308 1071h168l-205 -1045q-266 -140 -266 -292q0 -78 74 -78q61 0 112 51l58 -70q-79 -75 -189 -75q-90 0 -139 48q-43 42 -43 112q0 157 221 278z" />
    <glyph glyph-name="Idotaccent" unicode="&#x130;" horiz-adv-x="593" 
d="M394 1464h168l-285 -1464h-168zM541 1860q46 0 75 -27.5t29 -71.5q0 -50 -35.5 -86.5t-85.5 -36.5q-44 0 -73 28.5t-29 72.5q0 50 34.5 85.5t84.5 35.5z" />
    <glyph glyph-name="dotlessi" unicode="&#x131;" horiz-adv-x="570" 
d="M305 1071h168l-209 -1071h-168z" />
    <glyph glyph-name="IJ" unicode="&#x132;" horiz-adv-x="1697" 
d="M394 1464h168l-285 -1464h-168zM1492 412q-43 -223 -176 -334q-115 -96 -287 -96q-189 0 -288 105q-87 92 -87 247q0 67 12 123l13 59h165l-10 -53q-14 -75 -14 -137q0 -108 61 -162q53 -47 148 -47q132 0 205 82q63 72 92 219l202 1046h168z" />
    <glyph glyph-name="ij" unicode="&#x133;" horiz-adv-x="1136" 
d="M459 1509q44 0 72 -26.5t28 -67.5q0 -49 -35 -84t-84 -35q-42 0 -69 28t-27 70q0 48 33.5 81.5t81.5 33.5zM305 1071h168l-209 -1071h-168zM1029 1509q44 0 72 -26.5t28 -67.5q0 -49 -35 -84t-84 -35q-42 0 -69 28t-27 70q0 48 33.5 81.5t81.5 33.5zM809 -135
q-50 -254 -299 -254q-82 0 -145 41l55 127q54 -27 95 -27q104 0 126 115l236 1204h168z" />
    <glyph glyph-name="Jcircumflex" unicode="&#x134;" horiz-adv-x="1122" 
d="M901 412q-43 -223 -176 -334q-115 -96 -287 -96q-189 0 -288 105q-87 92 -87 247q0 67 12 123l13 59h165l-10 -53q-14 -75 -14 -137q0 -108 61 -162q53 -47 148 -47q132 0 205 82q63 72 92 219l202 1046h168zM1052 1956h146l135 -332h-111l-119 193l-196 -193h-115z" />
    <glyph glyph-name="jcircumflex" unicode="&#x135;" horiz-adv-x="582" 
d="M246 -135q-50 -254 -299 -254q-82 0 -145 41l55 127q54 -27 95 -27q104 0 126 115l236 1204h168zM443 1575h146l135 -332h-111l-119 193l-196 -193h-115z" />
    <glyph glyph-name="Kcommaaccent" unicode="&#x136;" horiz-adv-x="1296" 
d="M377 1464h168l-144 -737l774 737h197l-651 -612l393 -852h-178l-340 735l-236 -219l-100 -516h-168zM415 -414q116 22 138 117q-97 13 -97 96q0 47 30 77t76 30q51 0 80 -34t29 -93q0 -112 -70 -189q-69 -71 -202 -86z" />
    <glyph glyph-name="kcommaaccent" unicode="&#x137;" horiz-adv-x="1065" 
d="M391 1542h168l-191 -979l494 508h199l-430 -428l274 -643h-176l-221 520l-183 -182l-65 -338h-168zM296 -414q116 22 138 117q-97 13 -97 96q0 47 30 77t76 30q51 0 80 -34t29 -93q0 -112 -70 -189q-69 -71 -202 -86z" />
    <glyph glyph-name="kgreenlandic" unicode="&#x138;" horiz-adv-x="1293" 
d="M310 1071h178l-96 -508l645 510h223l-588 -457l398 -616h-193l-334 514l-190 -147l-68 -367h-180z" />
    <glyph glyph-name="Lacute" unicode="&#x139;" horiz-adv-x="1174" 
d="M377 1464h168l-258 -1325h684l-27 -139h-852zM596 1976h221l-264 -331h-117z" />
    <glyph glyph-name="lacute" unicode="&#x13a;" horiz-adv-x="646" 
d="M367 -16q-227 0 -227 190q0 34 10 92l248 1276h170l-250 -1290q-4 -21 -4 -39q0 -41 21.5 -64.5t58.5 -23.5q60 0 108 35l5 -150q-62 -26 -140 -26zM617 2072h221l-262 -350h-117z" />
    <glyph glyph-name="Lcommaaccent" unicode="&#x13b;" horiz-adv-x="1174" 
d="M377 1464h168l-258 -1325h684l-27 -139h-852zM344 -414q116 22 138 117q-97 13 -97 96q0 47 30 77t76 30q51 0 80 -34t29 -93q0 -112 -70 -189q-69 -71 -202 -86z" />
    <glyph glyph-name="lcommaaccent" unicode="&#x13c;" horiz-adv-x="634" 
d="M365 -16q-227 0 -227 190q0 34 10 92l248 1276h170l-250 -1290q-4 -21 -4 -39q0 -41 21.5 -64.5t58.5 -23.5q60 0 108 35l5 -150q-62 -26 -140 -26zM119 -414q116 22 138 117q-97 13 -97 96q0 47 30 77t76 30q51 0 80 -34t29 -93q0 -112 -70 -189q-69 -71 -202 -86z" />
    <glyph glyph-name="Lcaron" unicode="&#x13d;" horiz-adv-x="1174" 
d="M377 1464h168l-258 -1325h684l-27 -139h-852zM671 1235q115 21 138 117q-97 13 -97 96q0 46 30 76t76 30q51 0 80 -34t29 -93q0 -113 -70 -186q-71 -74 -202 -88z" />
    <glyph glyph-name="lcaron" unicode="&#x13e;" horiz-adv-x="647" 
d="M308 2046h111l118 -193l197 193h115l-260 -332h-146zM367 -16q-227 0 -227 190q0 34 10 92l248 1276h170l-250 -1290q-4 -21 -4 -39q0 -41 21.5 -64.5t58.5 -23.5q60 0 108 35l5 -150q-62 -26 -140 -26z" />
    <glyph glyph-name="Ldot" unicode="&#x13f;" horiz-adv-x="1174" 
d="M377 1464h168l-258 -1325h684l-27 -139h-852zM790 799q52 0 86.5 -34.5t34.5 -86.5q0 -58 -40 -97.5t-99 -39.5q-53 0 -88 34.5t-35 86.5q0 57 41 97t100 40z" />
    <glyph glyph-name="ldot" unicode="&#x140;" horiz-adv-x="721" 
d="M367 -16q-227 0 -227 190q0 34 10 92l248 1276h170l-250 -1290q-4 -21 -4 -39q0 -41 21.5 -64.5t58.5 -23.5q60 0 108 35l5 -150q-62 -26 -140 -26zM668 799q52 0 86.5 -34.5t34.5 -86.5q0 -58 -40 -97.5t-99 -39.5q-53 0 -88 34.5t-35 86.5q0 57 41 97t100 40z" />
    <glyph glyph-name="Lslash" unicode="&#x141;" horiz-adv-x="1210" 
d="M240 577l-174 -67l29 145l172 68l145 741h166l-131 -672l360 140l-26 -146l-363 -139l-98 -512h686l-27 -135h-852z" />
    <glyph glyph-name="lslash" unicode="&#x142;" horiz-adv-x="683" 
d="M465 747l-96 -495q-4 -20 -4 -39q0 -41 21.5 -64.5t58.5 -23.5q60 0 108 35l4 -150q-62 -26 -139 -26q-227 0 -227 190q0 34 10 92l80 414l-209 -100l33 161l209 101l135 700h170l-123 -633l227 109l-33 -162z" />
    <glyph glyph-name="Nacute" unicode="&#x143;" horiz-adv-x="1403" 
d="M377 1464h186l430 -1249l242 1249h157l-284 -1464h-201l-420 1224l-237 -1224h-158zM1020 1976h221l-264 -331h-117z" />
    <glyph glyph-name="nacute" unicode="&#x144;" horiz-adv-x="1199" 
d="M301 1071h168l-29 -154q125 172 321 172q145 0 222 -90q67 -78 67 -211q0 -47 -14 -124l-129 -664h-168l131 676q10 48 10 96q0 178 -174 178q-133 0 -220 -95q-76 -82 -103 -222l-123 -633h-168zM830 1591h221l-262 -350h-117z" />
    <glyph glyph-name="Ncommaaccent" unicode="&#x145;" horiz-adv-x="1403" 
d="M377 1464h186l430 -1249l242 1249h157l-284 -1464h-201l-420 1224l-237 -1224h-158zM423 -414q116 22 138 117q-97 13 -97 96q0 47 30 77t76 30q51 0 80 -34t29 -93q0 -112 -70 -189q-69 -71 -202 -86z" />
    <glyph glyph-name="ncommaaccent" unicode="&#x146;" horiz-adv-x="1199" 
d="M301 1071h168l-29 -154q125 172 321 172q145 0 222 -90q67 -78 67 -211q0 -47 -14 -124l-129 -664h-168l131 676q10 48 10 96q0 178 -174 178q-133 0 -220 -95q-76 -82 -103 -222l-123 -633h-168zM317 -414q116 22 138 117q-97 13 -97 96q0 47 30 77t76 30q51 0 80 -34
t29 -93q0 -112 -70 -189q-69 -71 -202 -86z" />
    <glyph glyph-name="Ncaron" unicode="&#x147;" horiz-adv-x="1403" 
d="M377 1464h186l430 -1249l242 1249h157l-284 -1464h-201l-420 1224l-237 -1224h-158zM708 1956h111l118 -193l197 193h115l-260 -332h-146z" />
    <glyph glyph-name="ncaron" unicode="&#x148;" horiz-adv-x="1198" 
d="M301 1071h168l-29 -154q125 172 321 172q145 0 222 -90q67 -78 67 -211q0 -47 -14 -124l-129 -664h-168l131 676q10 48 10 96q0 178 -174 178q-133 0 -220 -95q-76 -82 -103 -222l-123 -633h-168zM526 1575h111l118 -193l197 193h115l-260 -332h-146z" />
    <glyph glyph-name="napostrophe" unicode="&#x149;" horiz-adv-x="1197" 
d="M-31 1153q136 25 158 135q-51 6 -79.5 35.5t-28.5 75.5q0 51 35.5 86t86.5 35q58 0 89.5 -37t31.5 -104q0 -133 -82 -218q-77 -83 -229 -100zM299 1071h168l-31 -154q128 172 322 172q147 0 224 -90q67 -78 67 -211q0 -51 -15 -124l-129 -664h-168l132 676q10 56 10 96
q0 178 -176 178q-132 0 -219 -95q-76 -82 -103 -222l-123 -633h-168z" />
    <glyph glyph-name="Eng" unicode="&#x14a;" horiz-adv-x="1193" 
d="M494 1310q67 92 144.5 132t187.5 40q154 0 231 -88q68 -76 68 -211q0 -54 -13 -116l-254 -1284q-52 -254 -307 -254q-20 0 -30 2l34 139q111 0 136 115l253 1284q11 43 11 96q0 94 -43.5 136t-140.5 42q-141 0 -229 -93q-77 -81 -105 -224l-199 -1026h-168l285 1464h168z
" />
    <glyph glyph-name="eng" unicode="&#x14b;" horiz-adv-x="1199" 
d="M440 917q125 172 321 172q145 0 222 -89q67 -78 67 -210q0 -49 -12 -116l-155 -793q-49 -254 -306 -254q-24 0 -32 2l36 140q111 -4 134 114l155 793q10 46 10 96q0 178 -174 178q-133 0 -220 -95q-76 -82 -103 -222l-123 -633h-168l209 1071h168z" />
    <glyph glyph-name="Omacron" unicode="&#x14c;" horiz-adv-x="1587" 
d="M917 1482q280 0 437 -195q137 -170 137 -437q0 -248 -96 -448q-94 -196 -260 -306q-170 -114 -379 -114q-280 0 -438 197q-138 171 -138 439q0 245 97 444q95 195 261 306q170 114 379 114zM907 1343q-263 0 -417 -231q-134 -200 -134 -506q0 -250 123 -376
q107 -109 295 -109q141 0 256 77q100 67 166 183q117 208 117 479q0 248 -119 373q-105 110 -287 110zM795 1784h487l-25 -125h-487z" />
    <glyph glyph-name="omacron" unicode="&#x14d;" horiz-adv-x="1152" 
d="M646 1089q200 0 309 -136q94 -119 94 -314q0 -161 -59 -307q-50 -126 -133 -211q-143 -139 -342 -139q-204 0 -315 140q-97 121 -97 318q0 298 175 486q152 163 368 163zM635 952q-174 0 -275 -163q-87 -142 -87 -361q0 -309 250 -309q168 0 264 166q88 163 88 370
q0 297 -240 297zM511 1448h487l-25 -125h-487z" />
    <glyph glyph-name="Obreve" unicode="&#x14e;" horiz-adv-x="1587" 
d="M917 1482q280 0 437 -195q137 -170 137 -437q0 -248 -96 -448q-94 -196 -260 -306q-170 -114 -379 -114q-280 0 -438 197q-138 171 -138 439q0 245 97 444q95 195 261 306q170 114 379 114zM907 1343q-263 0 -417 -231q-134 -200 -134 -506q0 -250 123 -376
q107 -109 295 -109q141 0 256 77q100 67 166 183q117 208 117 479q0 248 -119 373q-105 110 -287 110zM878 1907q2 -95 33.5 -131.5t111.5 -36.5q79 0 119.5 39.5t50.5 128.5h125q-18 -293 -295 -293q-90 0 -156 34t-93 95q-25 55 -25 164h129z" />
    <glyph glyph-name="obreve" unicode="&#x14f;" horiz-adv-x="1152" 
d="M646 1089q200 0 309 -136q94 -119 94 -314q0 -161 -59 -307q-50 -126 -133 -211q-143 -139 -342 -139q-204 0 -315 140q-97 121 -97 318q0 298 175 486q152 163 368 163zM635 952q-174 0 -275 -163q-87 -142 -87 -361q0 -309 250 -309q168 0 264 166q88 163 88 370
q0 297 -240 297zM615 1585q2 -104 28.5 -143t96.5 -39q71 0 105.5 42.5t43.5 139.5h125q-14 -315 -276 -315q-83 0 -144 34.5t-85 94.5q-23 56 -23 186h129z" />
    <glyph glyph-name="Ohungarumlaut" unicode="&#x150;" horiz-adv-x="1587" 
d="M917 1482q280 0 437 -195q137 -170 137 -437q0 -248 -96 -448q-94 -196 -260 -306q-170 -114 -379 -114q-280 0 -438 197q-138 171 -138 439q0 245 97 444q95 195 261 306q170 114 379 114zM907 1343q-263 0 -417 -231q-134 -200 -134 -506q0 -250 123 -376
q107 -109 295 -109q141 0 256 77q100 67 166 183q117 208 117 479q0 248 -119 373q-105 110 -287 110zM901 1956h188l-207 -332h-106zM1190 1956h188l-207 -332h-106z" />
    <glyph glyph-name="ohungarumlaut" unicode="&#x151;" horiz-adv-x="1148" 
d="M646 1089q200 0 309 -136q94 -119 94 -314q0 -161 -59 -307q-50 -126 -133 -211q-143 -139 -342 -139q-204 0 -315 140q-97 121 -97 318q0 298 175 486q152 163 368 163zM635 952q-174 0 -275 -163q-87 -142 -87 -361q0 -309 250 -309q168 0 264 166q88 163 88 370
q0 297 -240 297zM627 1593h188l-207 -350h-106zM916 1593h188l-207 -350h-106z" />
    <glyph glyph-name="OE" unicode="&#x152;" horiz-adv-x="2243" 
d="M1149 166q-185 -184 -410 -184q-271 0 -425 197q-134 170 -134 438q0 244 97 444q94 195 259 307q169 114 375 114q169 0 280 -70q98 -62 163 -183l47 235h876l-26 -139h-711l-103 -520h582l-24 -135h-582l-105 -531h748l-27 -139h-913zM1272 807q18 87 18 143
q0 191 -122 300q-107 95 -271 95q-255 0 -408 -234q-133 -203 -133 -507q0 -247 116 -374q102 -111 275 -111q191 0 327 142q117 123 155 319z" />
    <glyph glyph-name="oe" unicode="&#x153;" horiz-adv-x="1858" 
d="M519 -18q-207 0 -319 139q-97 121 -97 319q0 297 175 485q152 164 366 164q258 0 352 -254q178 254 446 254q158 0 247 -91q77 -80 77 -206q0 -183 -219 -270q-170 -66 -520 -71v-48q0 -284 235 -284q171 0 264 135l127 -76q-82 -108 -171 -152t-226 -44q-250 0 -346 221
q-150 -221 -391 -221zM523 119q171 0 264 166q88 159 88 370q0 295 -240 295q-174 0 -275 -163q-87 -142 -87 -359q0 -309 250 -309zM1045 582q316 0 442 55q111 49 111 153q0 77 -45.5 118.5t-128.5 41.5q-194 0 -303 -176q-45 -70 -76 -192z" />
    <glyph glyph-name="Racute" unicode="&#x154;" horiz-adv-x="1323" 
d="M377 1464h411q165 0 258 -37q205 -82 205 -317q0 -170 -94 -274q-46 -52 -104 -81t-162 -52q124 -42 162 -124q34 -72 34 -239q0 -245 47 -330l-2 -10h-168q-33 87 -38 301q-3 148 -19 203q-24 80 -84.5 114t-177.5 34h-260l-127 -652h-166zM706 791q211 0 302 85
q79 75 79 224q0 126 -79 179q-70 46 -214 46h-278l-105 -534h295zM938 1976h221l-264 -331h-117z" />
    <glyph glyph-name="racute" unicode="&#x155;" horiz-adv-x="858" 
d="M301 1071h168l-35 -172q116 190 291 190q84 0 155 -43l-69 -139q-53 33 -111 33q-129 0 -218 -106q-77 -92 -107 -246l-115 -588h-168zM719 1591h221l-262 -350h-117z" />
    <glyph glyph-name="Rcommaaccent" unicode="&#x156;" horiz-adv-x="1323" 
d="M377 1464h411q165 0 258 -37q205 -82 205 -317q0 -170 -94 -274q-46 -52 -104 -81t-162 -52q124 -42 162 -124q34 -72 34 -239q0 -245 47 -330l-2 -10h-168q-33 87 -38 301q-3 148 -19 203q-24 80 -84.5 114t-177.5 34h-260l-127 -652h-166zM706 791q211 0 302 85
q79 75 79 224q0 126 -79 179q-70 46 -214 46h-278l-105 -534h295zM382 -414q116 22 138 117q-97 13 -97 96q0 47 30 77t76 30q51 0 80 -34t29 -93q0 -112 -70 -189q-69 -71 -202 -86z" />
    <glyph glyph-name="rcommaaccent" unicode="&#x157;" horiz-adv-x="849" 
d="M297 1071h168l-35 -172q116 190 291 190q84 0 155 -43l-69 -139q-53 33 -111 33q-129 0 -218 -106q-77 -92 -107 -246l-115 -588h-168zM-5 -414q116 22 138 117q-97 13 -97 96q0 47 30 77t76 30q51 0 80 -34t29 -93q0 -112 -70 -189q-69 -71 -202 -86z" />
    <glyph glyph-name="Rcaron" unicode="&#x158;" horiz-adv-x="1323" 
d="M377 1464h411q165 0 258 -37q205 -82 205 -317q0 -170 -94 -274q-46 -52 -104 -81t-162 -52q124 -42 162 -124q34 -72 34 -239q0 -245 47 -330l-2 -10h-168q-33 87 -38 301q-3 148 -19 203q-24 80 -84.5 114t-177.5 34h-260l-127 -652h-166zM706 791q211 0 302 85
q79 75 79 224q0 126 -79 179q-70 46 -214 46h-278l-105 -534h295zM627 1956h111l118 -193l197 193h115l-260 -332h-146z" />
    <glyph glyph-name="rcaron" unicode="&#x159;" horiz-adv-x="859" 
d="M301 1071h168l-35 -172q116 190 291 190q84 0 155 -43l-69 -139q-53 33 -111 33q-129 0 -218 -106q-77 -92 -107 -246l-115 -588h-168zM416 1575h111l118 -193l197 193h115l-260 -332h-146z" />
    <glyph glyph-name="Sacute" unicode="&#x15a;" horiz-adv-x="1240" 
d="M580 -18q-412 0 -514 346l158 55q39 -145 135 -209q84 -55 219 -55q171 0 263 88q81 78 81 205q0 103 -68 162q-61 53 -219 112q-183 69 -264 133q-121 97 -121 262q0 192 141 304q123 97 312 97q346 0 457 -296l-150 -56q-41 114 -113 164.5t-192 50.5q-148 0 -226 -74
q-69 -64 -69 -170q0 -102 65 -157q58 -48 222 -109q236 -88 319 -184q74 -85 74 -225q0 -210 -161 -335q-139 -109 -349 -109zM898 1976h221l-264 -331h-117z" />
    <glyph glyph-name="sacute" unicode="&#x15b;" horiz-adv-x="998" 
d="M443 -18q-279 0 -406 217l139 82q54 -88 118 -125t161 -37q111 0 169 48q50 42 50 114q0 74 -65 118q-36 26 -150 78q-147 68 -207.5 138.5t-60.5 174.5q0 145 115 227q99 72 253 72q219 0 346 -180l-131 -92q-85 135 -233 135q-94 0 -143 -43q-43 -38 -43 -102
q0 -61 37 -99t145 -87q155 -71 205 -111q100 -82 100 -209q0 -153 -125 -242q-108 -77 -274 -77zM713 1591h221l-262 -350h-117z" />
    <glyph glyph-name="Scircumflex" unicode="&#x15c;" horiz-adv-x="1240" 
d="M580 -18q-412 0 -514 346l158 55q39 -145 135 -209q84 -55 219 -55q171 0 263 88q81 78 81 205q0 103 -68 162q-61 53 -219 112q-183 69 -264 133q-121 97 -121 262q0 192 141 304q123 97 312 97q346 0 457 -296l-150 -56q-41 114 -113 164.5t-192 50.5q-148 0 -226 -74
q-69 -64 -69 -170q0 -102 65 -157q58 -48 222 -109q236 -88 319 -184q74 -85 74 -225q0 -210 -161 -335q-139 -109 -349 -109zM793 1956h146l135 -332h-111l-119 193l-196 -193h-115z" />
    <glyph glyph-name="scircumflex" unicode="&#x15d;" horiz-adv-x="999" 
d="M443 -18q-279 0 -406 217l139 82q54 -88 118 -125t161 -37q111 0 169 48q50 42 50 114q0 74 -65 118q-36 26 -150 78q-147 68 -207.5 138.5t-60.5 174.5q0 145 115 227q99 72 253 72q219 0 346 -180l-131 -92q-85 135 -233 135q-94 0 -143 -43q-43 -38 -43 -102
q0 -61 37 -99t145 -87q155 -71 205 -111q100 -82 100 -209q0 -153 -125 -242q-108 -77 -274 -77zM631 1575h146l135 -332h-111l-119 193l-196 -193h-115z" />
    <glyph glyph-name="Scedilla" unicode="&#x15e;" horiz-adv-x="1240" 
d="M697 835q236 -88 319 -184q74 -86 74 -225q0 -211 -161 -336q-139 -109 -349 -109h-2l-92 -106q33 8 49 8q60 0 96.5 -39.5t36.5 -104.5q0 -85 -67 -135q-57 -43 -146 -43q-113 0 -188 84l80 68q41 -58 116 -58q86 0 86 82q0 68 -67 68q-35 0 -66 -31l-63 58l135 153
q-333 38 -422 342l158 56q39 -146 135 -210q84 -55 219 -55q171 0 263 88q81 78 81 205q0 103 -68 162q-61 53 -219 112q-183 69 -264 133q-121 97 -121 263q0 192 141 304q123 97 312 97q346 0 457 -296l-150 -56q-41 114 -113 164.5t-192 50.5q-148 0 -226 -74
q-69 -64 -69 -169q0 -103 65 -158q58 -48 222 -109z" />
    <glyph glyph-name="scedilla" unicode="&#x15f;" horiz-adv-x="1000" 
d="M742 510q100 -82 100 -209q0 -146 -116 -235q-101 -77 -257 -85l-92 -106q33 8 49 8q60 0 96.5 -39.5t36.5 -103.5q0 -85 -67 -135q-57 -43 -146 -43q-113 0 -188 84l80 67q41 -57 116 -57q86 0 86 82q0 67 -67 67q-35 0 -66 -30l-63 57l133 151q-228 25 -340 216l139 81
q54 -87 118 -124t161 -37q111 0 169 48q50 42 50 114q0 74 -65 118q-36 26 -150 78q-147 68 -207.5 138.5t-60.5 174.5q0 145 115 227q99 72 253 72q219 0 346 -180l-131 -92q-85 135 -233 135q-94 0 -143 -43q-43 -38 -43 -102q0 -61 37 -99t145 -88q155 -70 205 -110z" />
    <glyph glyph-name="Scaron" unicode="&#x160;" horiz-adv-x="1240" 
d="M580 -18q-412 0 -514 346l158 55q39 -145 135 -209q84 -55 219 -55q171 0 263 88q81 78 81 205q0 103 -68 162q-61 53 -219 112q-183 69 -264 133q-121 97 -121 262q0 192 141 304q123 97 312 97q346 0 457 -296l-150 -56q-41 114 -113 164.5t-192 50.5q-148 0 -226 -74
q-69 -64 -69 -170q0 -102 65 -157q58 -48 222 -109q236 -88 319 -184q74 -85 74 -225q0 -210 -161 -335q-139 -109 -349 -109zM586 1956h111l118 -193l197 193h115l-260 -332h-146z" />
    <glyph glyph-name="scaron" unicode="&#x161;" horiz-adv-x="997" 
d="M443 -18q-279 0 -406 217l139 82q54 -88 118 -125t161 -37q111 0 169 48q50 42 50 114q0 74 -65 118q-36 26 -150 78q-147 68 -207.5 138.5t-60.5 174.5q0 145 115 227q99 72 253 72q219 0 346 -180l-131 -92q-85 135 -233 135q-94 0 -143 -43q-43 -38 -43 -102
q0 -61 37 -99t145 -87q155 -71 205 -111q100 -82 100 -209q0 -153 -125 -242q-108 -77 -274 -77zM410 1575h111l118 -193l197 193h115l-260 -332h-146z" />
    <glyph glyph-name="Tcommaaccent" unicode="&#x162;" horiz-adv-x="1264" 
d="M709 1325h-446l27 139h1056l-26 -139h-447l-258 -1325h-164zM355 -414q116 22 138 117q-97 13 -97 96q0 47 30 77t76 30q51 0 80 -34t29 -93q0 -112 -70 -189q-69 -71 -202 -86z" />
    <glyph glyph-name="tcommaaccent" unicode="&#x163;" horiz-adv-x="764" 
d="M655 51q-112 -69 -234 -69q-118 0 -180 71q-55 61 -55 164q0 31 8 80l123 637h-158l27 137h157l56 278l174 41l-62 -319h246l-27 -137h-245l-123 -631q-8 -46 -8 -70q0 -108 102 -108q69 0 141 43zM169 -414q116 22 138 117q-97 13 -97 96q0 47 30 77t76 30q51 0 80 -34
t29 -93q0 -112 -70 -189q-69 -71 -202 -86z" />
    <glyph glyph-name="Tcaron" unicode="&#x164;" horiz-adv-x="1264" 
d="M709 1325h-446l27 139h1056l-26 -139h-447l-258 -1325h-164zM642 1956h111l118 -193l197 193h115l-260 -332h-146z" />
    <glyph glyph-name="tcaron" unicode="&#x165;" horiz-adv-x="778" 
d="M656 51q-112 -69 -234 -69q-118 0 -180 71q-55 61 -55 164q0 31 8 80l123 637h-158l27 137h157l56 278l174 41l-62 -319h246l-27 -137h-245l-123 -631q-8 -46 -8 -70q0 -108 102 -108q69 0 141 43zM704 1260q116 21 138 116q-97 10 -97 97q0 46 30 76t76 30q51 0 80 -34
t29 -93q0 -112 -70 -188q-68 -75 -202 -86z" />
    <glyph glyph-name="Tbar" unicode="&#x166;" horiz-adv-x="1264" 
d="M1320 1325h-447l-118 -602h243l-22 -131h-244l-117 -592h-164l117 592h-248l25 131h246l118 602h-446l27 139h1056z" />
    <glyph glyph-name="tbar" unicode="&#x167;" horiz-adv-x="758" 
d="M416 -18q-117 0 -180 71q-54 61 -54 164q0 34 8 80l66 344h-162l27 133h159l33 160h-158l27 137h158l55 278l174 41l-61 -319h245l-26 -137h-246l-33 -160h244l-27 -133h-241l-66 -338q-8 -44 -8 -70q0 -108 102 -108q67 0 142 43l57 -117q-112 -69 -235 -69z" />
    <glyph glyph-name="Utilde" unicode="&#x168;" horiz-adv-x="1424" 
d="M1230 498q-42 -218 -127 -328q-145 -188 -432 -188q-249 0 -374 129q-109 113 -109 311q0 78 29 221l159 821h168l-166 -848q-24 -126 -24 -198q0 -161 91 -232q80 -63 237 -63q184 0 276 103q80 92 119 294l184 944h158zM641 1651q47 221 190 221q59 0 154 -60
q67 -39 94 -39q62 0 86 103l105 -12q-48 -222 -193 -222q-55 0 -151 60q-65 39 -92 39q-62 0 -87 -103z" />
    <glyph glyph-name="utilde" unicode="&#x169;" horiz-adv-x="1177" 
d="M739 158q-66 -92 -140.5 -134t-170.5 -42q-140 0 -214 89q-65 78 -65 210q0 49 14 127l129 663h168l-131 -676q-12 -70 -12 -106q0 -168 162 -168q128 0 213 95q75 83 102 222l123 633h168l-209 -1071h-168zM450 1319q47 221 190 221q55 0 154 -60q65 -39 94 -39
q61 0 86 103l105 -12q-48 -222 -193 -222q-55 0 -151 60q-65 39 -95 39q-59 0 -84 -103z" />
    <glyph glyph-name="Umacron" unicode="&#x16a;" horiz-adv-x="1424" 
d="M1230 498q-42 -218 -127 -328q-145 -188 -432 -188q-249 0 -374 129q-109 113 -109 311q0 78 29 221l159 821h168l-166 -848q-24 -126 -24 -198q0 -161 91 -232q80 -63 237 -63q184 0 276 103q80 92 119 294l184 944h158zM717 1784h487l-25 -125h-487z" />
    <glyph glyph-name="umacron" unicode="&#x16b;" horiz-adv-x="1177" 
d="M739 158q-66 -92 -140.5 -134t-170.5 -42q-140 0 -214 89q-65 78 -65 210q0 49 14 127l129 663h168l-131 -676q-12 -70 -12 -106q0 -168 162 -168q128 0 213 95q75 83 102 222l123 633h168l-209 -1071h-168zM526 1448h487l-25 -125h-487z" />
    <glyph glyph-name="Ubreve" unicode="&#x16c;" horiz-adv-x="1424" 
d="M1230 498q-42 -218 -127 -328q-145 -188 -432 -188q-249 0 -374 129q-109 113 -109 311q0 78 29 221l159 821h168l-166 -848q-24 -126 -24 -198q0 -161 91 -232q80 -63 237 -63q184 0 276 103q80 92 119 294l184 944h158zM800 1907q2 -95 33.5 -131.5t111.5 -36.5
q79 0 119.5 39.5t50.5 128.5h125q-18 -293 -295 -293q-90 0 -156 34t-93 95q-25 55 -25 164h129z" />
    <glyph glyph-name="ubreve" unicode="&#x16d;" horiz-adv-x="1177" 
d="M739 158q-66 -92 -140.5 -134t-170.5 -42q-140 0 -214 89q-65 78 -65 210q0 49 14 127l129 663h168l-131 -676q-12 -70 -12 -106q0 -168 162 -168q128 0 213 95q75 83 102 222l123 633h168l-209 -1071h-168zM630 1585q2 -104 28.5 -143t96.5 -39q71 0 105.5 42.5
t43.5 139.5h125q-14 -315 -276 -315q-83 0 -144 34.5t-85 94.5q-23 56 -23 186h129z" />
    <glyph glyph-name="Uring" unicode="&#x16e;" horiz-adv-x="1424" 
d="M1230 498q-42 -218 -127 -328q-145 -188 -432 -188q-249 0 -374 129q-109 113 -109 311q0 78 29 221l159 821h168l-166 -848q-24 -126 -24 -198q0 -161 91 -232q80 -63 237 -63q184 0 276 103q80 92 119 294l184 944h158zM982 2036q91 0 147 -62q48 -54 48 -133
q0 -103 -74 -172q-64 -59 -151 -59q-89 0 -145 63q-48 55 -48 134q0 100 75 169q64 60 148 60zM978 1944q-51 0 -83 -37.5t-32 -97.5q0 -49 25.5 -78t69.5 -29q49 0 83 39t34 96q0 48 -26.5 77.5t-70.5 29.5z" />
    <glyph glyph-name="uring" unicode="&#x16f;" horiz-adv-x="1177" 
d="M739 158q-66 -92 -140.5 -134t-170.5 -42q-140 0 -214 89q-65 78 -65 210q0 49 14 127l129 663h168l-131 -676q-12 -70 -12 -106q0 -168 162 -168q128 0 213 95q75 83 102 222l123 633h168l-209 -1071h-168zM778 1630q91 0 147 -62q48 -54 48 -133q0 -102 -74 -171
q-65 -60 -151 -60q-89 0 -145 63q-48 55 -48 134q0 100 75 169q64 60 148 60zM774 1538q-51 0 -83 -37.5t-32 -97.5q0 -49 25.5 -78t69.5 -29q49 0 83 39t34 96q0 48 -27 77.5t-70 29.5z" />
    <glyph glyph-name="Uhungarumlaut" unicode="&#x170;" horiz-adv-x="1424" 
d="M1230 498q-42 -218 -127 -328q-145 -188 -432 -188q-249 0 -374 129q-109 113 -109 311q0 78 29 221l159 821h168l-166 -848q-24 -126 -24 -198q0 -161 91 -232q80 -63 237 -63q184 0 276 103q80 92 119 294l184 944h158zM823 1956h188l-207 -332h-106zM1112 1956h188
l-207 -332h-106z" />
    <glyph glyph-name="uhungarumlaut" unicode="&#x171;" horiz-adv-x="1174" 
d="M739 158q-66 -92 -140.5 -134t-170.5 -42q-140 0 -214 89q-65 78 -65 210q0 49 14 127l129 663h168l-131 -676q-12 -70 -12 -106q0 -168 162 -168q128 0 213 95q75 83 102 222l123 633h168l-209 -1071h-168zM643 1593h188l-207 -350h-106zM932 1593h188l-207 -350h-106z
" />
    <glyph glyph-name="Uogonek" unicode="&#x172;" horiz-adv-x="1424" 
d="M1230 497q-78 -469 -477 -512q-196 -126 -196 -252q0 -78 74 -78q58 0 112 52l57 -70q-45 -42 -87 -59t-101 -17q-91 0 -139 48q-43 42 -43 112q0 150 190 262q-225 13 -335 140q-97 111 -97 299q0 77 29 221l159 821h168l-166 -848q-24 -126 -24 -198q0 -161 91 -232
q80 -63 237 -63q184 0 276 103q80 92 119 294l184 944h158z" />
    <glyph glyph-name="uogonek" unicode="&#x173;" horiz-adv-x="1177" 
d="M858 -362q-79 -76 -189 -76q-90 0 -139 48q-43 42 -43 112q0 158 221 278l31 158q-66 -92 -140.5 -134t-170.5 -42q-140 0 -214 89q-65 78 -65 210q0 49 14 127l129 663h168l-131 -676q-12 -70 -12 -106q0 -168 162 -168q128 0 213 95q75 83 102 222l123 633h168
l-205 -1044q-266 -150 -266 -293q0 -78 74 -78q61 0 112 51z" />
    <glyph glyph-name="Wcircumflex" unicode="&#x174;" horiz-adv-x="1909" 
d="M254 1464h168l63 -1167l586 1167h133l125 -1171l531 1171h163l-671 -1464h-137l-127 1179l-598 -1179h-134zM1169 1956h146l135 -332h-111l-119 193l-196 -193h-115z" />
    <glyph glyph-name="wcircumflex" unicode="&#x175;" horiz-adv-x="1600" 
d="M169 1071h172l64 -876l399 876h180l84 -876l404 876h176l-527 -1071h-186l-80 864l-397 -864h-185zM953 1575h146l135 -332h-111l-119 193l-196 -193h-115z" />
    <glyph glyph-name="Ycircumflex" unicode="&#x176;" horiz-adv-x="1168" 
d="M529 616l-319 848h178l250 -702l500 702h182l-627 -858l-116 -606h-166zM796 1956h146l135 -332h-111l-119 193l-196 -193h-115z" />
    <glyph glyph-name="ycircumflex" unicode="&#x177;" horiz-adv-x="955" 
d="M363 -180q-58 -110 -126 -157.5t-168 -47.5q-106 0 -193 72l80 114q53 -53 119 -53q101 0 163 127l72 147l-176 1049h174l129 -821l416 821h180zM630 1575h146l135 -332h-111l-119 193l-196 -193h-115z" />
    <glyph glyph-name="Ydieresis" unicode="&#x178;" horiz-adv-x="1168" 
d="M529 616l-319 848h178l250 -702l500 702h182l-627 -858l-116 -606h-166zM636 1858q46 0 75 -27.5t29 -71.5q0 -50 -36.5 -86.5t-86.5 -36.5q-43 0 -72.5 29t-29.5 72q0 50 35.5 85.5t85.5 35.5zM1021 1858q45 0 74.5 -28t29.5 -71q0 -50 -36.5 -86.5t-86.5 -36.5
q-44 0 -73 28.5t-29 72.5q0 50 35.5 85.5t85.5 35.5z" />
    <glyph glyph-name="Zacute" unicode="&#x179;" horiz-adv-x="1211" 
d="M40 147l1022 1178h-750l27 139h925l-32 -164l-998 -1161h764l-26 -139h-961zM921 1976h221l-264 -331h-117z" />
    <glyph glyph-name="zacute" unicode="&#x17a;" horiz-adv-x="936" 
d="M6 139l731 795h-541l27 137h717l-33 -170l-701 -764h561l-24 -137h-764zM700 1591h221l-262 -350h-117z" />
    <glyph glyph-name="Zdotaccent" unicode="&#x17b;" horiz-adv-x="1211" 
d="M40 147l1022 1178h-750l27 139h925l-32 -164l-998 -1161h764l-26 -139h-961zM849 1860q46 0 75 -27.5t29 -71.5q0 -50 -35.5 -86.5t-85.5 -36.5q-44 0 -73 28.5t-29 72.5q0 50 34.5 85.5t84.5 35.5z" />
    <glyph glyph-name="zdotaccent" unicode="&#x17c;" horiz-adv-x="936" 
d="M6 139l731 795h-541l27 137h717l-33 -170l-701 -764h561l-24 -137h-764zM647 1522q46 0 75 -27.5t29 -71.5q0 -50 -35.5 -86.5t-85.5 -36.5q-44 0 -73 28.5t-29 72.5q0 50 34.5 85.5t84.5 35.5z" />
    <glyph glyph-name="Zcaron" unicode="&#x17d;" horiz-adv-x="1211" 
d="M40 147l1022 1178h-750l27 139h925l-32 -164l-998 -1161h764l-26 -139h-961zM609 1956h111l118 -193l197 193h115l-260 -332h-146z" />
    <glyph glyph-name="zcaron" unicode="&#x17e;" horiz-adv-x="936" 
d="M6 139l731 795h-541l27 137h717l-33 -170l-701 -764h561l-24 -137h-764zM397 1575h111l118 -193l197 193h115l-260 -332h-146z" />
    <glyph glyph-name="uni018F" unicode="&#x18f;" horiz-adv-x="1591" 
d="M764 -18q-249 0 -408 156q-82 81 -129 201t-47 251q0 88 18 217h1117q2 16 2 47q0 252 -119 379q-105 110 -287 110q-171 0 -282 -77q-92 -63 -164 -193l-152 74q46 74 109 137q198 198 500 198q279 0 436 -195q137 -170 137 -437q0 -245 -96 -446q-94 -196 -259 -308
q-169 -114 -376 -114zM770 121q218 0 361 163q125 142 169 384h-940q-2 -29 -2 -68q0 -243 123 -369q107 -110 289 -110z" />
    <glyph glyph-name="florin" unicode="&#x192;" horiz-adv-x="828" 
d="M338 -86q-33 -160 -115 -228q-73 -59 -196 -59q-94 0 -164 45l55 125q62 -35 111 -35q114 0 145 154l158 770h-190l26 135h193l71 348q64 313 353 313q110 0 192 -51l-57 -125q-71 41 -139 41q-79 0 -124 -42t-63 -134l-72 -350h271l-27 -135h-270z" />
    <glyph glyph-name="Ohorn" unicode="&#x1a0;" horiz-adv-x="1582" 
d="M1286 1356q171 24 203 135q-97 9 -97 96q0 45 30.5 75.5t76.5 30.5q50 0 79 -34t29 -93q0 -123 -77 -201q-67 -68 -174 -81q135 -171 135 -434q0 -245 -96 -446q-94 -196 -259 -308q-169 -114 -376 -114q-283 0 -442 196q-138 170 -138 440q0 246 97 445q94 195 261 306
q170 113 379 113q220 0 369 -126zM907 1343q-263 0 -417 -231q-134 -200 -134 -506q0 -250 123 -376q107 -109 295 -109q141 0 256 77q100 67 166 183q117 208 117 479q0 248 -119 373q-105 110 -287 110z" />
    <glyph glyph-name="ohorn" unicode="&#x1a1;" horiz-adv-x="1148" 
d="M920 989q125 28 150 121q-97 10 -97 96q0 46 30 76.5t76 30.5q51 0 80 -34t29 -93q0 -107 -64 -182q-56 -64 -144 -85q69 -107 69 -280q0 -303 -170 -493q-148 -164 -360 -164q-207 0 -319 139q-97 121 -97 319q0 298 175 486q152 163 368 163q168 0 274 -100zM635 952
q-174 0 -275 -163q-87 -142 -87 -361q0 -309 250 -309q168 0 264 166q88 163 88 370q0 297 -240 297z" />
    <glyph glyph-name="Uhorn" unicode="&#x1af;" horiz-adv-x="1438" 
d="M1402 1378q95 27 113 113q-44 4 -70 30t-26 66q0 45 30.5 75.5t75.5 30.5q51 0 80 -34t29 -93q0 -119 -76 -194q-66 -65 -172 -78l-156 -796q-42 -218 -127 -328q-145 -188 -432 -188q-249 0 -374 129q-109 113 -109 311q0 78 29 221l159 821h168l-166 -848
q-24 -126 -24 -198q0 -161 91 -232q80 -63 237 -63q184 0 276 103q80 92 119 294l184 944h158z" />
    <glyph glyph-name="uhorn" unicode="&#x1b0;" horiz-adv-x="1180" 
d="M1071 999q93 25 112 111q-96 10 -96 96q0 46 30 76.5t76 30.5q51 0 80 -34t29 -93q0 -119 -77 -195q-67 -66 -171 -78l-178 -913h-168l31 158q-66 -92 -140.5 -134t-170.5 -42q-140 0 -214 89q-65 78 -65 210q0 49 14 127l129 663h168l-131 -676q-12 -70 -12 -106
q0 -168 162 -168q128 0 213 95q75 83 102 222l123 633h168z" />
    <glyph glyph-name="uni01CD" unicode="&#x1cd;" horiz-adv-x="1268" 
d="M105 0h-168l791 1464h163l230 -1464h-164l-55 371h-603zM881 506l-113 761l-399 -761h512zM637 1956h111l118 -193l197 193h115l-260 -332h-146z" />
    <glyph glyph-name="uni01CE" unicode="&#x1ce;" horiz-adv-x="1085" 
d="M905 -8q-21 -2 -45 -2q-172 0 -197 153q-135 -161 -307 -161q-144 0 -229 90q-74 77 -74 195q0 141 92 225q80 73 240 110q110 26 362 37l13 67l1 7q7 43 7 67q0 168 -180 168q-88 0 -160.5 -28t-155.5 -95l-80 109q182 155 414 155q168 0 254 -83q76 -72 76 -195
q0 -53 -11 -105l-92 -477q-4 -23 -4 -32q0 -39 23.5 -56t79.5 -18zM723 520q-288 -8 -401 -73q-99 -57 -99 -174q0 -156 180 -156q120 0 201 73q69 63 88 164zM452 1575h111l118 -193l197 193h115l-260 -332h-146z" />
    <glyph glyph-name="uni01CF" unicode="&#x1cf;" horiz-adv-x="606" 
d="M302 1956h110l119 -193l196 193h115l-260 -332h-145zM394 1464h168l-285 -1464h-168z" />
    <glyph glyph-name="uni01D0" unicode="&#x1d0;" horiz-adv-x="577" 
d="M213 1575h110l119 -193l197 193h114l-260 -332h-145zM305 1071h168l-209 -1071h-168z" />
    <glyph glyph-name="uni01D1" unicode="&#x1d1;" horiz-adv-x="1587" 
d="M801 1956h110l119 -193l197 193h114l-260 -332h-145zM917 1482q280 0 437 -195q137 -170 137 -437q0 -248 -96 -448q-94 -196 -260 -306q-170 -114 -379 -114q-280 0 -438 197q-138 171 -138 439q0 245 97 444q95 195 261 306q170 114 379 114zM907 1343
q-263 0 -417 -231q-134 -200 -134 -506q0 -250 123 -376q107 -109 295 -109q141 0 256 77q100 67 166 183q117 208 117 479q0 248 -119 373q-105 110 -287 110z" />
    <glyph glyph-name="uni01D2" unicode="&#x1d2;" horiz-adv-x="1152" 
d="M646 1089q200 0 309 -136q94 -119 94 -314q0 -161 -59 -307q-50 -126 -133 -211q-143 -139 -342 -139q-204 0 -315 140q-97 121 -97 318q0 298 175 486q152 163 368 163zM635 952q-174 0 -275 -163q-87 -142 -87 -361q0 -309 250 -309q168 0 264 166q88 163 88 370
q0 297 -240 297zM504 1575h111l118 -193l197 193h115l-260 -332h-146z" />
    <glyph glyph-name="uni01D3" unicode="&#x1d3;" horiz-adv-x="1424" 
d="M1230 498q-42 -218 -127 -328q-145 -188 -432 -188q-249 0 -374 129q-109 113 -109 311q0 78 29 221l159 821h168l-166 -848q-24 -126 -24 -198q0 -161 91 -232q80 -63 237 -63q184 0 276 103q80 92 119 294l184 944h158zM723 1956h111l118 -193l197 193h115l-260 -332
h-146z" />
    <glyph glyph-name="uni01D4" unicode="&#x1d4;" horiz-adv-x="1177" 
d="M739 158q-66 -92 -140.5 -134t-170.5 -42q-140 0 -214 89q-65 78 -65 210q0 49 14 127l129 663h168l-131 -676q-12 -70 -12 -106q0 -168 162 -168q128 0 213 95q75 83 102 222l123 633h168l-209 -1071h-168zM520 1575h111l118 -193l197 193h115l-260 -332h-146z" />
    <glyph glyph-name="uni01DD" unicode="&#x1dd;" horiz-adv-x="1080" 
d="M429 -18q-161 0 -252 91q-78 79 -78 204q0 183 206 267q182 74 535 77q2 20 2 49q0 280 -237 280q-167 0 -324 -125l-73 111q179 153 407 153q202 0 307 -129q92 -113 92 -303q0 -184 -79 -341q-78 -153 -210 -242q-136 -92 -296 -92zM443 121q291 0 381 368
q-315 0 -442 -55q-111 -49 -111 -153q0 -76 45 -118t127 -42z" />
    <glyph glyph-name="Gcaron" unicode="&#x1e6;" horiz-adv-x="1551" 
d="M706 -18q-259 0 -400 188q-122 163 -122 431q0 251 98 454q95 199 263 312q172 115 384 115q279 0 410 -190q44 -64 66 -153l-156 -45q-44 142 -130 199q-74 50 -200 50q-266 0 -426 -233q-139 -203 -139 -505q0 -255 109 -377q94 -107 268 -107q196 0 327 137
q114 118 160 322l8 37h-368l26 139h531l-148 -756h-100l10 256q-175 -274 -471 -274zM766 1956h111l118 -193l197 193h115l-260 -332h-146z" />
    <glyph glyph-name="gcaron" unicode="&#x1e7;" horiz-adv-x="1124" 
d="M929 938q58 -83 58 -178q0 -172 -134 -277q-116 -92 -286 -92q-108 0 -203 43q-74 -51 -74 -110q0 -84 117 -84h213q169 0 258 -81q78 -71 78 -190q0 -182 -162 -281q-142 -87 -371 -87q-219 0 -337 85q-103 74 -103 195q0 85 55 144t174 102q-84 57 -84 152
q0 125 152 211q-102 99 -102 225q0 168 141 278q123 96 291 96q104 0 198 -47l330 45l-29 -149h-180zM596 960q-119 0 -188 -76q-60 -65 -60 -165q0 -99 68 -152q59 -47 157 -47q123 0 188 71q56 63 56 168q0 100 -67 154q-58 47 -154 47zM382 88q-32 0 -61 4
q-160 -72 -160 -194q0 -160 281 -160q174 0 259 61q75 54 75 150q0 139 -175 139h-219zM477 1575h111l118 -193l197 193h115l-260 -332h-146z" />
    <glyph glyph-name="uni01F4" unicode="&#x1f4;" horiz-adv-x="1551" 
d="M706 -18q-259 0 -400 188q-122 163 -122 431q0 251 98 454q95 199 263 312q172 115 384 115q279 0 410 -190q44 -64 66 -153l-156 -45q-44 142 -130 199q-74 50 -200 50q-266 0 -426 -233q-139 -203 -139 -505q0 -255 109 -377q94 -107 268 -107q196 0 327 137
q114 118 160 322l8 37h-368l26 139h531l-148 -756h-100l10 256q-175 -274 -471 -274zM1077 1976h221l-264 -331h-117z" />
    <glyph glyph-name="uni01F5" unicode="&#x1f5;" horiz-adv-x="1124" 
d="M929 938q58 -83 58 -178q0 -172 -134 -277q-116 -92 -286 -92q-108 0 -203 43q-74 -51 -74 -110q0 -84 117 -84h213q169 0 258 -81q78 -71 78 -190q0 -182 -162 -281q-142 -87 -371 -87q-219 0 -337 85q-103 74 -103 195q0 85 55 144t174 102q-84 57 -84 152
q0 125 152 211q-102 99 -102 225q0 168 141 278q123 96 291 96q104 0 198 -47l330 45l-29 -149h-180zM596 960q-119 0 -188 -76q-60 -65 -60 -165q0 -99 68 -152q59 -47 157 -47q123 0 188 71q56 63 56 168q0 100 -67 154q-58 47 -154 47zM382 88q-32 0 -61 4
q-160 -72 -160 -194q0 -160 281 -160q174 0 259 61q75 54 75 150q0 139 -175 139h-219zM780 1591h221l-262 -350h-117z" />
    <glyph glyph-name="Aringacute" unicode="&#x1fa;" horiz-adv-x="1268" 
d="M1039 1663q0 -73 -39.5 -132.5t-106.5 -84.5l228 -1446h-164l-55 371h-603l-194 -371h-168l784 1454q-46 24 -73 70.5t-27 103.5q0 94 67 162q57 58 136 66l129 270h221l-233 -293q98 -49 98 -170zM840 1766q-51 0 -83 -37.5t-32 -97.5q0 -49 25.5 -78t69.5 -29
q49 0 83 39t34 96q0 48 -26.5 77.5t-70.5 29.5zM369 506h512l-113 762z" />
    <glyph glyph-name="aringacute" unicode="&#x1fb;" horiz-adv-x="1083" 
d="M672 1188q-89 0 -145 63q-48 55 -48 134q0 92 64 159q55 58 131 68l122 254h222l-220 -274q99 -55 99 -172q0 -103 -74 -172q-65 -60 -151 -60zM698 1522q-51 0 -83 -37.5t-32 -97.5q0 -49 25.5 -78t69.5 -29q49 0 83 39t34 96q0 48 -26.5 77.5t-70.5 29.5zM925 706
l-92 -477q-4 -23 -4 -32q0 -39 23.5 -56t79.5 -18l-27 -131q-21 -2 -45 -2q-172 0 -197 153q-135 -161 -307 -161q-144 0 -229 90q-74 77 -74 195q0 141 92 225q80 73 240 110q110 26 362 37l13 67l1 7q7 43 7 67q0 168 -180 168q-88 0 -160.5 -28t-155.5 -95l-80 109
q182 155 414 155q168 0 254 -83q76 -72 76 -195q0 -53 -11 -105zM692 354l31 166q-288 -8 -401 -73q-99 -57 -99 -174q0 -156 180 -156q120 0 201 73q69 63 88 164z" />
    <glyph glyph-name="AEacute" unicode="&#x1fc;" horiz-adv-x="1890" 
d="M85 0h-182l1112 1464h909l-26 -139h-670l-102 -520h540l-24 -135h-541l-104 -531h706l-26 -139h-873l72 371h-514zM902 506l156 799l-596 -799h440zM1263 1976h221l-264 -331h-117z" />
    <glyph glyph-name="aeacute" unicode="&#x1fd;" horiz-adv-x="1724" 
d="M385 -18q-155 0 -244 86q-78 75 -78 190q0 113 66 194q57 71 157 105q126 47 400 47h63l21 102q8 36 8 78q0 164 -180 164q-87 0 -159.5 -28t-156.5 -95l-80 109q182 155 416 155q123 0 195 -43t106 -137q168 180 391 180q158 0 246 -89q76 -77 76 -202q0 -135 -92 -206
q-81 -61 -252 -88q-135 -22 -391 -25q-5 -25 -5 -66q0 -294 236 -294q171 0 264 135l127 -76q-83 -108 -171.5 -152t-225.5 -44q-255 0 -357 212q-79 -112 -168.5 -162t-211.5 -50zM915 604q250 0 348 16q107 17 154 60t47 123q0 147 -170 147q-175 0 -287 -145
q-55 -71 -92 -201zM409 117q121 0 203 73q73 65 90 164l23 129h-74q-240 0 -335 -56q-83 -49 -83 -157q0 -153 176 -153zM1093 1591h221l-262 -350h-117z" />
    <glyph glyph-name="Oslashacute" unicode="&#x1fe;" horiz-adv-x="1574" 
d="M1450 1464h178l-238 -244q90 -153 90 -370q0 -245 -96 -446q-94 -196 -259 -308q-169 -114 -376 -114q-250 0 -410 159l-139 -141h-180l240 246q-90 156 -90 370q0 246 97 446q94 195 261 306q170 114 379 114q247 0 403 -159zM1202 1210q-112 133 -305 133
q-148 0 -265 -76q-102 -66 -169 -182q-117 -205 -117 -475q0 -147 34 -241zM446 252q112 -131 309 -131q281 0 430 260q117 208 117 477q0 137 -35 235zM1102 1976h221l-264 -331h-117z" />
    <glyph glyph-name="oslashacute" unicode="&#x1ff;" horiz-adv-x="1142" 
d="M987 1071h176l-172 -182q53 -98 53 -250q0 -303 -170 -493q-148 -164 -360 -164q-176 0 -285 102l-78 -84h-174l176 186q-55 105 -55 256q0 265 149 457q151 190 394 190q169 0 272 -96zM806 881q-61 73 -176 73q-174 0 -275 -165q-87 -142 -87 -361q0 -67 10 -111z
M333 193q65 -74 181 -74q174 0 268 166q88 163 88 370q0 54 -8 99zM803 1591h221l-262 -350h-117z" />
    <glyph glyph-name="Scommaaccent" unicode="&#x218;" horiz-adv-x="1240" 
d="M580 -18q-412 0 -514 346l158 55q39 -145 135 -209q84 -55 219 -55q171 0 263 88q81 78 81 205q0 103 -68 162q-61 53 -219 112q-183 69 -264 133q-121 97 -121 262q0 192 141 304q123 97 312 97q346 0 457 -296l-150 -56q-41 114 -113 164.5t-192 50.5q-148 0 -226 -74
q-69 -64 -69 -170q0 -102 65 -157q58 -48 222 -109q236 -88 319 -184q74 -85 74 -225q0 -210 -161 -335q-139 -109 -349 -109zM381 -414q116 22 138 117q-97 13 -97 96q0 47 30 77t76 30q51 0 80 -34t29 -93q0 -112 -70 -189q-69 -71 -202 -86z" />
    <glyph glyph-name="scommaaccent" unicode="&#x219;" horiz-adv-x="1000" 
d="M443 -18q-279 0 -406 217l139 82q54 -88 118 -125t161 -37q111 0 169 48q50 42 50 114q0 74 -65 118q-36 26 -150 78q-147 68 -207.5 138.5t-60.5 174.5q0 145 115 227q99 72 253 72q219 0 346 -180l-131 -92q-85 135 -233 135q-94 0 -143 -43q-43 -38 -43 -102
q0 -61 37 -99t145 -87q155 -71 205 -111q100 -82 100 -209q0 -153 -125 -242q-108 -77 -274 -77zM272 -414q116 22 138 117q-97 13 -97 96q0 47 30 77t76 30q51 0 80 -34t29 -93q0 -112 -70 -189q-69 -71 -202 -86z" />
    <glyph glyph-name="uni021A" unicode="&#x21a;" horiz-adv-x="1264" 
d="M709 1325h-446l27 139h1056l-26 -139h-447l-258 -1325h-164zM355 -414q116 22 138 117q-97 13 -97 96q0 47 30 77t76 30q51 0 80 -34t29 -93q0 -112 -70 -189q-69 -71 -202 -86z" />
    <glyph glyph-name="uni021B" unicode="&#x21b;" horiz-adv-x="764" 
d="M655 51q-112 -69 -234 -69q-118 0 -180 71q-55 61 -55 164q0 31 8 80l123 637h-158l27 137h157l56 278l174 41l-62 -319h246l-27 -137h-245l-123 -631q-8 -46 -8 -70q0 -108 102 -108q69 0 141 43zM169 -414q116 22 138 117q-97 13 -97 96q0 47 30 77t76 30q51 0 80 -34
t29 -93q0 -112 -70 -189q-69 -71 -202 -86z" />
    <glyph glyph-name="uni0226" unicode="&#x226;" horiz-adv-x="1272" 
d="M105 0h-168l791 1464h163l230 -1464h-164l-55 371h-603zM881 506l-113 761l-399 -761h512zM877 1860q46 0 75 -27.5t29 -71.5q0 -50 -35.5 -86.5t-85.5 -36.5q-44 0 -73 28.5t-29 72.5q0 50 34.5 85.5t84.5 35.5z" />
    <glyph glyph-name="uni0227" unicode="&#x227;" horiz-adv-x="1089" 
d="M905 -8q-21 -2 -45 -2q-172 0 -197 153q-135 -161 -307 -161q-144 0 -229 90q-74 77 -74 195q0 141 92 225q80 73 240 110q110 26 362 37l13 67l1 7q7 43 7 67q0 168 -180 168q-88 0 -160.5 -28t-155.5 -95l-80 109q182 155 414 155q168 0 254 -83q76 -72 76 -195
q0 -53 -11 -105l-92 -477q-4 -23 -4 -32q0 -39 23.5 -56t79.5 -18zM723 520q-288 -8 -401 -73q-99 -57 -99 -174q0 -156 180 -156q120 0 201 73q69 63 88 164zM702 1522q46 0 75 -27.5t29 -71.5q0 -50 -35.5 -86.5t-85.5 -36.5q-44 0 -73 28.5t-29 72.5q0 50 34.5 85.5
t84.5 35.5z" />
    <glyph glyph-name="uni0237" unicode="&#x237;" horiz-adv-x="578" 
d="M246 -135q-50 -254 -299 -254q-82 0 -145 41l55 127q54 -27 95 -27q104 0 126 115l236 1204h168z" />
    <glyph glyph-name="uni0259" unicode="&#x259;" horiz-adv-x="1080" 
d="M429 -18q-161 0 -252 91q-78 79 -78 204q0 183 206 267q182 74 535 77q2 20 2 49q0 280 -237 280q-167 0 -324 -125l-73 111q179 153 407 153q202 0 307 -129q92 -113 92 -303q0 -184 -79 -341q-78 -153 -210 -242q-136 -92 -296 -92zM443 121q291 0 381 368
q-315 0 -442 -55q-111 -49 -111 -153q0 -76 45 -118t127 -42z" />
    <glyph glyph-name="afii57929" unicode="&#x2bc;" horiz-adv-x="570" 
d="M322 1200q136 25 158 135q-51 6 -79.5 35.5t-28.5 75.5q0 51 35.5 86t86.5 35q58 0 89.5 -37t31.5 -104q0 -136 -82 -218q-80 -86 -229 -100z" />
    <glyph glyph-name="circumflex" unicode="&#x2c6;" horiz-adv-x="1058" 
d="M659 1575h146l135 -332h-111l-119 193l-196 -193h-115z" />
    <glyph glyph-name="caron" unicode="&#x2c7;" horiz-adv-x="1058" 
d="M467 1575h111l118 -193l197 193h115l-260 -332h-146z" />
    <glyph glyph-name="uni02C9" unicode="&#x2c9;" horiz-adv-x="1060" 
d="M479 1448h487l-25 -125h-487z" />
    <glyph glyph-name="breve" unicode="&#x2d8;" horiz-adv-x="1059" 
d="M600 1585q2 -104 28.5 -143t96.5 -39q71 0 105.5 42.5t43.5 139.5h125q-14 -315 -276 -315q-83 0 -144 34.5t-85 94.5q-23 56 -23 186h129z" />
    <glyph glyph-name="dotaccent" unicode="&#x2d9;" horiz-adv-x="1080" 
d="M726 1522q46 0 75 -27.5t29 -71.5q0 -50 -35.5 -86.5t-85.5 -36.5q-44 0 -73 28.5t-29 72.5q0 50 34.5 85.5t84.5 35.5z" />
    <glyph glyph-name="ring" unicode="&#x2da;" horiz-adv-x="1066" 
d="M723 1630q91 0 147 -62q48 -54 48 -133q0 -102 -74 -171q-65 -60 -151 -60q-89 0 -145 63q-48 55 -48 134q0 100 75 169q64 60 148 60zM719 1538q-51 0 -83 -37.5t-32 -97.5q0 -49 25.5 -78t69.5 -29q49 0 83 39t34 96q0 48 -27 77.5t-70 29.5z" />
    <glyph glyph-name="ogonek" unicode="&#x2db;" horiz-adv-x="1070" 
d="M573 -362q-79 -76 -189 -76q-90 0 -139 48q-43 42 -43 112q0 157 221 278h125q-219 -136 -219 -266q0 -78 74 -78q61 0 112 51z" />
    <glyph glyph-name="tilde" unicode="&#x2dc;" horiz-adv-x="1052" 
d="M388 1319q47 221 190 221q55 0 154 -60q65 -39 94 -39q61 0 86 103l105 -12q-48 -222 -193 -222q-55 0 -151 60q-65 39 -95 39q-59 0 -84 -103z" />
    <glyph glyph-name="hungarumlaut" unicode="&#x2dd;" horiz-adv-x="1054" 
d="M579 1593h188l-207 -350h-106zM868 1593h188l-207 -350h-106z" />
    <glyph glyph-name="uni0309" unicode="&#x309;" horiz-adv-x="48" 
d="M-389 1196l25 131q79 11 106.5 31t27.5 67q0 39 -51 39q-43 0 -76 -11t-107 -50l-29 67q140 82 228 82q62 0 101.5 -34.5t39.5 -90.5q0 -68 -49 -114q-35 -29 -111 -41l-14 -76h-91z" />
    <glyph glyph-name="uni037E" unicode="&#x37e;" horiz-adv-x="627" 
d="M358 858q52 0 86.5 -34.5t34.5 -86.5q0 -58 -40 -97.5t-99 -39.5q-53 0 -88 34.5t-35 86.5q0 57 41 97t100 40zM38 -186q145 30 177 180q-117 16 -117 121q0 57 39 96t96 39q60 0 94.5 -40.5t34.5 -111.5q0 -160 -102 -272q-46 -51 -100 -75t-140 -34z" />
    <glyph glyph-name="tonos" unicode="&#x384;" horiz-adv-x="1060" 
d="M762 1595h184l-172 -358h-123z" />
    <glyph glyph-name="dieresistonos" unicode="&#x385;" horiz-adv-x="1046" 
d="M708 1235h-116l100 358h174zM422 1495q42 0 70 -26t28 -66q0 -48 -34 -82.5t-81 -34.5q-41 0 -68.5 27t-27.5 67q0 48 33 81.5t80 33.5zM975 1495q43 0 70.5 -26t27.5 -66q0 -48 -34 -82.5t-81 -34.5q-41 0 -68.5 27t-27.5 67q0 48 33 81.5t80 33.5z" />
    <glyph glyph-name="Alphatonos" unicode="&#x386;" horiz-adv-x="1272" 
d="M957 0l-55 371h-603l-194 -371h-168l791 1464h163l230 -1464h-164zM216 1462h182l-111 -420h-125zM881 506l-113 761l-399 -761h512z" />
    <glyph glyph-name="uni0387" unicode="&#x387;" horiz-adv-x="641" 
d="M358 799q52 0 86.5 -34.5t34.5 -86.5q0 -58 -40 -97.5t-99 -39.5q-53 0 -88 34.5t-35 86.5q0 57 41 97t100 40z" />
    <glyph glyph-name="Epsilontonos" unicode="&#x388;" horiz-adv-x="1460" 
d="M618 1464h877l-27 -139h-710l-103 -520h582l-25 -139h-581l-105 -527h748l-27 -139h-913zM233 1462h183l-111 -420h-125z" />
    <glyph glyph-name="Etatonos" unicode="&#x389;" horiz-adv-x="1641" 
d="M618 1464h168l-129 -667h676l129 667h168l-285 -1464h-168l127 658h-675l-127 -658h-168zM233 1462h183l-111 -420h-125z" />
    <glyph glyph-name="Iotatonos" unicode="&#x38a;" horiz-adv-x="814" 
d="M618 1464h168l-284 -1464h-168zM233 1462h183l-111 -420h-125z" />
    <glyph glyph-name="Omicrontonos" unicode="&#x38c;" horiz-adv-x="1783" 
d="M1118 1482q275 0 432 -196q137 -171 137 -436q0 -246 -96 -446q-94 -196 -259 -308q-169 -114 -376 -114q-284 0 -444 196q-139 170 -139 438q0 247 98 447q95 195 263 306q172 113 384 113zM233 1462h183l-111 -420h-125zM1098 1343q-259 0 -413 -233
q-134 -202 -134 -504q0 -248 122 -375q106 -111 289 -111q146 0 262 76q101 67 168 184q117 208 117 482q0 247 -121 372q-106 109 -290 109z" />
    <glyph glyph-name="Upsilontonos" unicode="&#x38e;" horiz-adv-x="1461" 
d="M823 616l-319 848h178l250 -702l499 702h183l-627 -858l-117 -606h-166zM233 1462h183l-111 -420h-125z" />
    <glyph glyph-name="Omegatonos" unicode="&#x38f;" horiz-adv-x="1807" 
d="M1720 864q0 -238 -145 -457q-118 -177 -289 -278h338l-25 -129h-569l27 137q246 113 373 321q112 184 112 416q0 240 -123 363q-106 106 -284 106q-277 0 -443 -248q-133 -200 -133 -464q0 -170 62 -288.5t196 -205.5l-27 -137h-569l25 129h385q-129 85 -195 242
q-55 128 -55 272q0 307 190 559q212 280 564 280q287 0 446 -187q139 -164 139 -431zM416 1462l-111 -420h-125l53 420h183z" />
    <glyph glyph-name="iotadieresistonos" unicode="&#x390;" horiz-adv-x="579" 
d="M311 256q-10 -41 -10 -57q0 -68 78 -68q22 0 41 4l-25 -135q-47 -8 -84 -8q-90 0 -137 49q-41 43 -41 117q0 48 14 116l154 797h168zM469 1235h-116l100 358h174zM183 1495q42 0 70 -26t28 -66q0 -48 -34 -82.5t-81 -34.5q-41 0 -68.5 27t-27.5 67q0 48 33 81.5t80 33.5z
M736 1495q43 0 70.5 -26t27.5 -66q0 -48 -34 -82.5t-81 -34.5q-41 0 -68.5 27t-27.5 67q0 48 33 81.5t80 33.5z" />
    <glyph glyph-name="Alpha" unicode="&#x391;" horiz-adv-x="1272" 
d="M957 0l-55 371h-603l-194 -371h-168l791 1464h163l230 -1464h-164zM881 506l-113 761l-399 -761h512z" />
    <glyph glyph-name="Beta" unicode="&#x392;" horiz-adv-x="1346" 
d="M377 1464h479q219 0 328 -100q94 -87 94 -242q0 -146 -76 -237q-67 -81 -205 -134q132 -44 186 -123q48 -70 48 -184q0 -224 -161 -342q-140 -102 -376 -102h-602zM754 825q95 0 151 12t102 43q107 69 107 232q0 213 -252 213h-346l-98 -500h336zM710 139q192 0 278 83
q75 72 75 214q0 139 -84 198q-72 52 -219 52h-369l-106 -547h425z" />
    <glyph glyph-name="Gamma" unicode="&#x393;" horiz-adv-x="1046" 
d="M377 1464h805l-27 -139h-637l-258 -1325h-168z" />
    <glyph glyph-name="uni0394" unicode="&#x394;" horiz-adv-x="1278" 
d="M730 1464h185l245 -1464h-1251zM972 139l-186 1135l-627 -1135h813z" />
    <glyph glyph-name="Epsilon" unicode="&#x395;" 
d="M377 1464h876l-26 -139h-711l-102 -520h581l-24 -139h-582l-104 -527h747l-27 -139h-913z" />
    <glyph glyph-name="Zeta" unicode="&#x396;" horiz-adv-x="1211" 
d="M40 147l1022 1178h-750l27 139h925l-32 -164l-998 -1161h764l-26 -139h-961z" />
    <glyph glyph-name="Eta" unicode="&#x397;" horiz-adv-x="1399" 
d="M377 1464h168l-129 -667h675l129 667h168l-284 -1464h-168l127 658h-676l-127 -658h-168z" />
    <glyph glyph-name="Theta" unicode="&#x398;" horiz-adv-x="1591" 
d="M926 1482q274 0 432 -196q137 -171 137 -436q0 -246 -96 -446q-94 -196 -259 -308q-169 -114 -376 -114q-285 0 -445 196q-139 170 -139 438q0 247 98 447q95 195 263 306q172 113 385 113zM905 1343q-258 0 -413 -232q-134 -202 -134 -505q0 -247 122 -374
q106 -111 290 -111q146 0 262 76q101 66 168 184q117 208 117 481q0 247 -121 372q-106 109 -291 109zM551 807h606l-27 -139h-606z" />
    <glyph glyph-name="Iota" unicode="&#x399;" horiz-adv-x="591" 
d="M394 1464h168l-285 -1464h-168z" />
    <glyph glyph-name="Kappa" unicode="&#x39a;" horiz-adv-x="1296" 
d="M377 1464h168l-144 -737l774 737h197l-651 -612l393 -852h-178l-340 735l-236 -219l-100 -516h-168z" />
    <glyph glyph-name="Lambda" unicode="&#x39b;" horiz-adv-x="1184" 
d="M706 1464h135l201 -1464h-164l-155 1204l-621 -1204h-172z" />
    <glyph glyph-name="Mu" unicode="&#x39c;" horiz-adv-x="1690" 
d="M377 1464h231l178 -1255l654 1255h239l-284 -1464h-164l239 1235l-645 -1235h-155l-183 1235l-239 -1235h-156z" />
    <glyph glyph-name="Nu" unicode="&#x39d;" horiz-adv-x="1403" 
d="M377 1464h186l430 -1249l242 1249h157l-284 -1464h-201l-420 1224l-237 -1224h-158z" />
    <glyph glyph-name="Xi" unicode="&#x39e;" horiz-adv-x="1138" 
d="M285 1464h923l-26 -139h-924zM252 807h735l-29 -139h-735zM27 139h923l-26 -139h-924z" />
    <glyph glyph-name="Omicron" unicode="&#x39f;" horiz-adv-x="1591" 
d="M926 1482q274 0 432 -196q137 -171 137 -436q0 -246 -96 -446q-94 -196 -259 -308q-169 -114 -376 -114q-285 0 -445 196q-139 170 -139 438q0 247 98 447q95 195 263 306q172 113 385 113zM905 1343q-258 0 -413 -232q-134 -202 -134 -505q0 -247 122 -374
q106 -111 290 -111q146 0 262 76q101 66 168 184q117 208 117 481q0 247 -121 372q-106 109 -291 109z" />
    <glyph glyph-name="Pi" unicode="&#x3a0;" horiz-adv-x="1369" 
d="M341 1325h-115l27 139h1221l-27 -139h-115l-258 -1325h-168l258 1325h-655l-258 -1325h-168z" />
    <glyph glyph-name="Rho" unicode="&#x3a1;" horiz-adv-x="1276" 
d="M377 1464h434q126 0 198.5 -16t129.5 -55q133 -93 133 -293q0 -238 -160 -367q-144 -114 -410 -114h-323l-121 -619h-166zM723 758q377 0 377 340q0 127 -76 184q-63 43 -225 43h-283l-111 -567h318z" />
    <glyph glyph-name="Sigma" unicode="&#x3a3;" horiz-adv-x="1166" 
d="M35 162l528 598l-270 555l28 149h906l-27 -139h-737l286 -574l-542 -612h819l-27 -139h-995z" />
    <glyph glyph-name="Tau" unicode="&#x3a4;" horiz-adv-x="1263" 
d="M709 1325h-453l27 139h1056l-26 -139h-441l-258 -1325h-163z" />
    <glyph glyph-name="Upsilon" unicode="&#x3a5;" horiz-adv-x="1168" 
d="M529 616l-319 848h178l250 -702l500 702h182l-627 -858l-116 -606h-166z" />
    <glyph glyph-name="Phi" unicode="&#x3a6;" horiz-adv-x="1673" 
d="M669 100q-183 24 -291 109q-97 75 -149 187t-52 245q0 193 94 364q81 148 213 238q85 57 181.5 86t250.5 43l27 133h168l-29 -141q181 -23 293 -109q97 -75 149 -187.5t52 -246.5q0 -192 -93 -361q-81 -147 -214 -237q-89 -59 -183.5 -87t-249.5 -40l-26 -137h-168z
M861 225q200 18 316 107q106 80 168 234q53 133 53 278q0 181 -99 286q-87 91 -239 111zM890 1239q-198 -18 -314 -107q-106 -80 -168 -234q-53 -132 -53 -276q0 -182 99 -285q87 -91 239 -110z" />
    <glyph glyph-name="Chi" unicode="&#x3a7;" horiz-adv-x="1228" 
d="M557 762l-291 702h179l241 -586l455 586h188l-573 -723l309 -741h-178l-258 627l-492 -627h-186z" />
    <glyph glyph-name="Psi" unicode="&#x3a8;" horiz-adv-x="1598" 
d="M687 371h-60q-120 0 -193.5 19.5t-127.5 66.5q-115 99 -115 280q0 123 37 307l82 420h168l-97 -495q-24 -124 -24 -217q0 -133 84 -191q73 -51 219 -51h53l187 954h168l-187 -954h76q213 0 299 77q75 67 109 240l124 637h168l-129 -665q-26 -133 -54 -196t-81 -111
q-127 -121 -399 -121h-139l-72 -371h-168z" />
    <glyph glyph-name="uni03A9" unicode="&#x3a9;" horiz-adv-x="1581" 
d="M1493 864q0 -238 -145 -457q-118 -177 -289 -278h338l-25 -129h-569l27 137q246 113 373 321q112 184 112 416q0 240 -123 363q-106 106 -285 106q-276 0 -442 -248q-133 -200 -133 -464q0 -170 62 -288.5t196 -205.5l-27 -137h-569l25 129h385q-129 85 -195 242
q-55 128 -55 272q0 307 190 559q212 280 563 280q288 0 447 -187q139 -164 139 -431z" />
    <glyph glyph-name="Iotadieresis" unicode="&#x3aa;" horiz-adv-x="606" 
d="M349 1858q46 0 75 -27.5t29 -71.5q0 -50 -36.5 -86.5t-86.5 -36.5q-43 0 -72.5 29t-29.5 72q0 50 35.5 85.5t85.5 35.5zM734 1858q45 0 74.5 -28t29.5 -71q0 -50 -36.5 -86.5t-86.5 -36.5q-44 0 -73 28.5t-29 72.5q0 50 35.5 85.5t85.5 35.5zM394 1464h168l-285 -1464
h-168z" />
    <glyph glyph-name="Upsilondieresis" unicode="&#x3ab;" horiz-adv-x="1168" 
d="M529 616l-319 848h178l250 -702l500 702h182l-627 -858l-116 -606h-166zM636 1858q46 0 75 -27.5t29 -71.5q0 -50 -36.5 -86.5t-86.5 -36.5q-43 0 -72.5 29t-29.5 72q0 50 35.5 85.5t85.5 35.5zM1021 1858q45 0 74.5 -28t29.5 -71q0 -50 -36.5 -86.5t-86.5 -36.5
q-44 0 -73 28.5t-29 72.5q0 50 35.5 85.5t85.5 35.5z" />
    <glyph glyph-name="alphatonos" unicode="&#x3ac;" horiz-adv-x="1202" 
d="M901 0h-168l31 158q-67 -84 -159.5 -130t-193.5 -46q-161 0 -244 113q-73 99 -73 268q0 128 36.5 261.5t98.5 229.5q151 235 391 235q209 0 289 -188l33 170h168zM635 950q-159 0 -262 -178q-46 -78 -75.5 -197.5t-29.5 -228.5q0 -225 195 -225q187 0 299 184
q43 73 69.5 176t26.5 199q0 135 -67 207q-59 63 -156 63zM783 1595h184l-172 -358h-123z" />
    <glyph glyph-name="epsilontonos" unicode="&#x3ad;" horiz-adv-x="1067" 
d="M514 121q108 0 183 32.5t142 108.5l119 -94q-79 -97 -192 -141.5t-279 -44.5q-196 0 -300 81q-93 71 -93 193q0 114 79 198q63 68 165 103q-69 34 -109.5 94t-40.5 127q0 160 136 243q109 66 280 66q296 0 430 -170l-125 -96q-73 71 -139.5 99t-163.5 28q-120 0 -191 -53
q-65 -49 -65 -127q0 -68 67 -111t173 -43h172l-29 -139h-178q-148 0 -225 -59q-68 -53 -68 -144q0 -70 67.5 -110.5t184.5 -40.5zM717 1595h184l-172 -358h-123z" />
    <glyph glyph-name="etatonos" unicode="&#x3ae;" horiz-adv-x="1199" 
d="M301 1071h168l-31 -154q128 172 321 172q146 0 224 -89q67 -78 67 -208q0 -45 -18 -153l-199 -1012h-168l193 983q24 123 24 168q0 172 -176 172q-131 0 -219 -95q-77 -83 -104 -222l-123 -633h-168zM778 1595h184l-172 -358h-123z" />
    <glyph glyph-name="iotatonos" unicode="&#x3af;" horiz-adv-x="570" 
d="M316 256q-10 -41 -10 -57q0 -68 78 -68q22 0 41 4l-25 -135q-47 -8 -84 -8q-90 0 -137 49q-41 43 -41 117q0 48 14 116l154 797h168zM466 1595h184l-172 -358h-123z" />
    <glyph glyph-name="upsilondieresistonos" unicode="&#x3b0;" horiz-adv-x="1161" 
d="M459 1071l-106 -553q-25 -130 -25 -219q0 -178 190 -178q145 0 211 115q39 67 68 225l119 610h168l-125 -651q-26 -131 -57.5 -207.5t-82.5 -128.5q-56 -55 -125.5 -78.5t-175.5 -23.5q-196 0 -282 83q-76 72 -76 216q0 117 33 278l98 512h168zM774 1235h-116l100 358
h174zM488 1495q42 0 70 -26t28 -66q0 -48 -34 -82.5t-81 -34.5q-41 0 -68.5 27t-27.5 67q0 48 33 81.5t80 33.5zM1041 1495q43 0 70.5 -26t27.5 -66q0 -48 -34 -82.5t-81 -34.5q-41 0 -68.5 27t-27.5 67q0 48 33 81.5t80 33.5z" />
    <glyph glyph-name="alpha" unicode="&#x3b1;" horiz-adv-x="1202" 
d="M901 0h-168l31 158q-67 -84 -159.5 -130t-193.5 -46q-161 0 -244 113q-73 99 -73 268q0 128 36.5 261.5t98.5 229.5q151 235 391 235q209 0 289 -188l33 170h168zM635 950q-159 0 -262 -178q-46 -78 -75.5 -197.5t-29.5 -228.5q0 -225 195 -225q187 0 299 184
q43 73 69.5 176t26.5 199q0 135 -67 207q-59 63 -156 63z" />
    <glyph glyph-name="beta" unicode="&#x3b2;" horiz-adv-x="1232" 
d="M296 1069q26 137 51 203t71 126q129 166 361 166q177 0 275 -102q85 -88 85 -230q0 -268 -284 -356q116 -44 170 -108q86 -102 86 -258q0 -116 -42.5 -228.5t-113.5 -182.5q-116 -117 -297 -117q-113 0 -215 32l29 150q86 -43 176 -43q138 0 215 125q74 124 74 280
q0 150 -96 221q-37 29 -79 40.5t-116 13.5h-13l29 145q81 1 120 10t78 35q55 36 87 101.5t32 140.5q0 98 -59 148q-52 44 -142 44q-157 0 -233 -127q-57 -94 -90 -270l-272 -1401h-168z" />
    <glyph glyph-name="gamma" unicode="&#x3b3;" horiz-adv-x="967" 
d="M313 0l-168 1071h172l119 -862l420 862h178l-553 -1071l-72 -373h-168z" />
    <glyph glyph-name="delta" unicode="&#x3b4;" horiz-adv-x="1134" 
d="M730 1095q103 -53 153.5 -91.5t87.5 -94.5q68 -107 68 -274q0 -301 -171 -490q-147 -163 -357 -163q-199 0 -311 141q-97 123 -97 317q0 155 59 293q52 120 140 205q48 45 95 71t128 52q-150 100 -150 237t109 210q87 58 217 58q287 0 424 -167l-109 -97
q-117 133 -301 133q-182 0 -182 -143q0 -56 40 -96t157 -101zM793 315q76 145 76 334q0 157 -71 237q-61 70 -169 70q-158 0 -260 -160q-96 -162 -96 -374q0 -153 73 -233q63 -70 169 -70q183 0 278 196z" />
    <glyph glyph-name="epsilon" unicode="&#x3b5;" horiz-adv-x="1067" 
d="M514 121q108 0 183 32.5t142 108.5l119 -94q-79 -97 -192 -141.5t-279 -44.5q-196 0 -300 81q-93 71 -93 193q0 114 79 198q63 68 165 103q-69 34 -109.5 94t-40.5 127q0 160 136 243q109 66 280 66q296 0 430 -170l-125 -96q-73 71 -139.5 99t-163.5 28q-120 0 -191 -53
q-65 -49 -65 -127q0 -68 67 -111t173 -43h172l-29 -139h-178q-148 0 -225 -59q-68 -53 -68 -144q0 -70 67.5 -110.5t184.5 -40.5z" />
    <glyph glyph-name="zeta" unicode="&#x3b6;" horiz-adv-x="912" 
d="M525 -373q46 114 46 213q0 56 -32 84t-138 64q-164 54 -218 106q-78 73 -78 214q0 336 354 724q156 171 416 371h-516l27 139h639l-31 -162q-185 -164 -269 -247t-157 -172q-289 -353 -289 -638q0 -81 39 -120t162 -80q144 -49 192.5 -98t48.5 -144q0 -111 -49 -254h-147
z" />
    <glyph glyph-name="eta" unicode="&#x3b7;" horiz-adv-x="1199" 
d="M301 1071h168l-31 -154q128 172 321 172q146 0 224 -89q67 -78 67 -208q0 -45 -18 -153l-199 -1012h-168l193 983q24 123 24 168q0 172 -176 172q-131 0 -219 -95q-77 -83 -104 -222l-123 -633h-168z" />
    <glyph glyph-name="theta" unicode="&#x3b8;" horiz-adv-x="1187" 
d="M767 1560q191 0 292 -166q89 -144 89 -385q0 -207 -60 -419q-52 -185 -135 -319q-179 -289 -428 -289q-197 0 -299 164q-90 143 -90 385q0 201 60 411q53 183 139 327q176 291 432 291zM963 864q11 108 11 180q0 194 -65 292q-57 85 -156 85q-133 0 -243 -165
q-95 -145 -155 -392h608zM329 725q-19 -130 -19 -223q0 -191 68 -292q59 -89 157 -89q84 0 163 72.5t140 203.5t101 328h-610z" />
    <glyph glyph-name="iota" unicode="&#x3b9;" horiz-adv-x="570" 
d="M316 256q-10 -41 -10 -57q0 -68 78 -68q22 0 41 4l-25 -135q-47 -8 -84 -8q-90 0 -137 49q-41 43 -41 117q0 48 14 116l154 797h168z" />
    <glyph glyph-name="kappa" unicode="&#x3ba;" horiz-adv-x="1092" 
d="M260 0h-168l209 1071h168l-107 -543l529 543h198l-430 -428l275 -643h-176l-222 520l-217 -217z" />
    <glyph glyph-name="lambda" unicode="&#x3bb;" horiz-adv-x="1017" 
d="M537 1083l-63 459h163l222 -1542h-168l-121 848l-455 -848h-180z" />
    <glyph glyph-name="uni03BC" unicode="&#x3bc;" horiz-adv-x="1185" 
d="M924 1071h168l-209 -1071h-168l29 147q-118 -165 -274 -165q-132 0 -199 96l-88 -451h-168l281 1444h168l-123 -637q-12 -60 -12 -110q0 -203 175 -203q111 0 195 90q74 81 98 205z" />
    <glyph glyph-name="nu" unicode="&#x3bd;" horiz-adv-x="942" 
d="M134 1071h172l96 -905l441 905h178l-551 -1071h-197z" />
    <glyph glyph-name="xi" unicode="&#x3be;" horiz-adv-x="940" 
d="M569 -373q47 114 47 213q0 56 -33.5 85.5t-134.5 60.5l-39 11q-167 47 -227 99q-90 78 -90 244q0 209 121 347q106 121 285 161q-189 60 -189 225q0 221 287 330h-273l27 139h733l-26 -139h-66q-259 0 -392 -92q-116 -79 -116 -215q0 -100 62 -147.5t192 -47.5h100
l-28 -139h-115q-109 0 -175 -19t-120 -67q-61 -54 -97 -142.5t-36 -185.5q0 -94 50 -138.5t208 -90.5q142 -41 193 -90.5t51 -147.5q0 -111 -49 -254h-150z" />
    <glyph glyph-name="omicron" unicode="&#x3bf;" horiz-adv-x="1158" 
d="M656 1089q198 0 306 -137q93 -119 93 -315q0 -302 -171 -492q-148 -163 -359 -163q-210 0 -323 139q-99 121 -99 321q0 298 178 485q155 162 375 162zM639 950q-172 0 -274 -163q-88 -142 -88 -359q0 -307 246 -307q177 0 268 164q90 155 90 372q0 153 -70 228
q-61 65 -172 65z" />
    <glyph glyph-name="pi" unicode="&#x3c0;" horiz-adv-x="1142" 
d="M276 932h-110l26 139h971l-27 -139h-108l-182 -932h-168l182 932h-416l-182 -932h-168z" />
    <glyph glyph-name="rho" unicode="&#x3c1;" horiz-adv-x="1173" 
d="M92 -373q-18 258 -18 463q0 514 174 775q150 224 405 224q201 0 314 -135q98 -117 98 -303q0 -308 -170 -501q-146 -168 -356 -168q-114 0 -189.5 42.5t-132.5 139.5q19 -291 41 -537h-166zM533 121q183 0 282 203q33 65 54.5 161.5t21.5 182.5q0 141 -71 216
q-62 66 -164 66q-191 0 -301 -211q-78 -152 -78 -340q0 -137 78 -213q68 -65 178 -65z" />
    <glyph glyph-name="uni03C2" unicode="&#x3c2;" horiz-adv-x="951" 
d="M268 375q0 -105 51.5 -162.5t177.5 -93.5q144 -43 194 -92t50 -146q0 -111 -49 -254h-147q46 114 46 213q0 56 -32.5 84t-137.5 61q-179 54 -244 124q-83 91 -83 272q0 327 172 531q148 177 363 177q246 0 331 -233l-131 -80q-36 96 -82.5 135t-124.5 39
q-176 0 -274 -203q-36 -74 -58 -177.5t-22 -194.5z" />
    <glyph glyph-name="sigma" unicode="&#x3c3;" horiz-adv-x="1166" 
d="M1162 928l-236 6q101 -118 101 -299q0 -131 -41.5 -258.5t-114.5 -218.5q-142 -176 -362 -176q-201 0 -311 139q-95 121 -95 317q0 134 40.5 256.5t113.5 210.5q148 184 428 184q66 0 143 -10l35 -3q54 -5 74 -5h253zM626 950q-168 0 -265 -163q-84 -141 -84 -359
q0 -307 234 -307q175 0 270 192q72 150 72 346q0 151 -66 226q-58 65 -161 65z" />
    <glyph glyph-name="tau" unicode="&#x3c4;" horiz-adv-x="816" 
d="M400 932h-319l27 139h792l-26 -139h-306l-182 -932h-168z" />
    <glyph glyph-name="upsilon" unicode="&#x3c5;" horiz-adv-x="1165" 
d="M459 1071l-106 -553q-25 -130 -25 -219q0 -178 190 -178q145 0 211 115q39 67 68 225l119 610h168l-125 -651q-26 -131 -57.5 -207.5t-82.5 -128.5q-56 -55 -125.5 -78.5t-175.5 -23.5q-196 0 -282 83q-76 72 -76 216q0 117 33 278l98 512h168z" />
    <glyph glyph-name="phi" unicode="&#x3c6;" horiz-adv-x="1422" 
d="M441 -373l70 365q-408 75 -408 460q0 382 367 631l86 -73q-279 -233 -279 -558q0 -275 260 -331l187 958q30 4 75 4q255 0 397 -153q124 -132 124 -342q0 -153 -67 -281q-58 -112 -158 -186q-165 -119 -417 -134l-69 -360h-168zM705 121q163 11 263 88q85 64 131.5 168.5
t46.5 232.5q0 155 -84 249q-73 82 -195 99z" />
    <glyph glyph-name="chi" unicode="&#x3c7;" horiz-adv-x="982" 
d="M362 393l-209 678h172l162 -547l376 547h174l-487 -696l231 -748h-174l-182 615l-428 -615h-174z" />
    <glyph glyph-name="psi" unicode="&#x3c8;" horiz-adv-x="1569" 
d="M1369 458q-29 -145 -55.5 -213t-77.5 -127q-66 -76 -147.5 -108.5t-206.5 -32.5h-119l-68 -350h-168l68 350h-18q-188 0 -281 70q-125 96 -125 272q0 113 35 287l90 465h168l-103 -531q-22 -104 -22 -192q0 -125 73 -178q63 -48 191 -48h21l184 949h168l-184 -949h57
q173 0 250 84q68 74 102 252l119 613h168z" />
    <glyph glyph-name="omega" unicode="&#x3c9;" horiz-adv-x="1463" 
d="M412 -18q-151 0 -238 116q-75 101 -75 261q0 398 317 726l113 -86q-130 -148 -196 -324q-60 -158 -60 -316q0 -123 46 -185q38 -53 104 -53q79 0 124 68t80 243l64 326h168l-64 -326q-22 -128 -22 -176q0 -61 35.5 -98t95.5 -37q126 0 202 154q34 66 55 171t21 203
q0 198 -88 350l115 82q78 -113 112.5 -217.5t34.5 -230.5q0 -109 -28 -227t-74 -199q-66 -115 -165 -174q-87 -51 -187 -51q-177 0 -232 182q-53 -95 -114.5 -138.5t-143.5 -43.5z" />
    <glyph glyph-name="iotadieresis" unicode="&#x3ca;" horiz-adv-x="578" 
d="M316 256q-10 -41 -10 -57q0 -68 78 -68q22 0 41 4l-25 -135q-47 -8 -84 -8q-90 0 -137 49q-41 43 -41 117q0 48 14 116l154 797h168zM271 1520q46 0 75 -27.5t29 -71.5q0 -50 -36.5 -86.5t-86.5 -36.5q-43 0 -72.5 29t-29.5 72q0 50 35.5 85.5t85.5 35.5zM656 1520
q45 0 74.5 -28t29.5 -71q0 -50 -36.5 -86.5t-86.5 -36.5q-44 0 -73 28.5t-29 72.5q0 50 35.5 85.5t85.5 35.5z" />
    <glyph glyph-name="upsilondieresis" unicode="&#x3cb;" horiz-adv-x="1165" 
d="M572 1520q46 0 75 -27.5t29 -71.5q0 -50 -36.5 -86.5t-86.5 -36.5q-43 0 -72.5 29t-29.5 72q0 50 35.5 85.5t85.5 35.5zM957 1520q45 0 74.5 -28t29.5 -71q0 -50 -36.5 -86.5t-86.5 -36.5q-44 0 -73 28.5t-29 72.5q0 50 35.5 85.5t85.5 35.5zM459 1071l-106 -553
q-25 -130 -25 -219q0 -178 190 -178q145 0 211 115q39 67 68 225l119 610h168l-125 -651q-26 -131 -57.5 -207.5t-82.5 -128.5q-56 -55 -125.5 -78.5t-175.5 -23.5q-196 0 -282 83q-76 72 -76 216q0 117 33 278l98 512h168z" />
    <glyph glyph-name="omicrontonos" unicode="&#x3cc;" horiz-adv-x="1158" 
d="M656 1089q198 0 306 -137q93 -119 93 -315q0 -302 -171 -492q-148 -163 -359 -163q-210 0 -323 139q-99 121 -99 321q0 298 178 485q155 162 375 162zM639 950q-172 0 -274 -163q-88 -142 -88 -359q0 -307 246 -307q177 0 268 164q90 155 90 372q0 153 -70 228
q-61 65 -172 65zM761 1595h184l-172 -358h-123z" />
    <glyph glyph-name="upsilontonos" unicode="&#x3cd;" horiz-adv-x="1165" 
d="M459 1071l-106 -553q-25 -130 -25 -219q0 -178 190 -178q145 0 211 115q39 67 68 225l119 610h168l-125 -651q-26 -131 -57.5 -207.5t-82.5 -128.5q-56 -55 -125.5 -78.5t-175.5 -23.5q-196 0 -282 83q-76 72 -76 216q0 117 33 278l98 512h168zM767 1595h184l-172 -358
h-123z" />
    <glyph glyph-name="omegatonos" unicode="&#x3ce;" horiz-adv-x="1463" 
d="M412 -18q-151 0 -238 116q-75 101 -75 261q0 398 317 726l113 -86q-130 -148 -196 -324q-60 -158 -60 -316q0 -123 46 -185q38 -53 104 -53q79 0 124 68t80 243l64 326h168l-64 -326q-22 -128 -22 -176q0 -61 35.5 -98t95.5 -37q126 0 202 154q34 66 55 171t21 203
q0 198 -88 350l115 82q78 -113 112.5 -217.5t34.5 -230.5q0 -109 -28 -227t-74 -199q-66 -115 -165 -174q-87 -51 -187 -51q-177 0 -232 182q-53 -95 -114.5 -138.5t-143.5 -43.5zM912 1595h184l-172 -358h-123z" />
    <glyph glyph-name="phi1" unicode="&#x3d5;" horiz-adv-x="1443" 
d="M814 1450h168l-72 -373q213 -24 329 -172q101 -128 101 -317q0 -152 -67 -280q-58 -113 -158 -187q-165 -119 -416 -134l-70 -360h-168l70 365q-222 22 -335 175q-93 125 -93 312q0 278 203 449q175 148 436 153zM719 967q-211 -10 -334 -164q-108 -134 -108 -336
q0 -163 78 -253q72 -84 203 -93zM726 121q162 11 262 88q85 64 131.5 169t46.5 234q0 154 -84 248q-73 81 -195 98z" />
    <glyph glyph-name="uni0400" unicode="&#x400;" 
d="M377 1464h876l-26 -139h-711l-102 -520h581l-24 -135h-582l-104 -531h747l-27 -139h-913zM620 1956h207l65 -332h-104z" />
    <glyph glyph-name="afii10023" unicode="&#x401;" 
d="M664 1858q46 0 75 -27.5t29 -71.5q0 -50 -36.5 -86.5t-86.5 -36.5q-43 0 -72.5 29t-29.5 72q0 50 35.5 85.5t85.5 35.5zM1049 1858q45 0 74.5 -28t29.5 -71q0 -50 -36.5 -86.5t-86.5 -36.5q-44 0 -73 28.5t-29 72.5q0 50 35.5 85.5t85.5 35.5zM377 1464h876l-26 -139
h-711l-102 -520h581l-24 -135h-582l-104 -531h747l-27 -139h-913z" />
    <glyph glyph-name="afii10051" unicode="&#x402;" horiz-adv-x="1556" 
d="M303 0l258 1325h-403l27 139h1118l-27 -139h-547l-104 -537q151 172 389 172q194 0 282 -98q76 -85 76 -250q0 -131 -38 -333t-85 -324q-67 -178 -190 -255q-108 -68 -285 -75l7 142q114 7 171 40t103 117q48 89 95.5 311t47.5 359q0 126 -59 180q-53 47 -160 47
q-274 0 -401 -278l-107 -543h-168z" />
    <glyph glyph-name="afii10052" unicode="&#x403;" horiz-adv-x="1046" 
d="M377 1464h805l-27 -139h-637l-258 -1325h-168zM858 1976h221l-264 -331h-117z" />
    <glyph glyph-name="afii10053" unicode="&#x404;" horiz-adv-x="1368" 
d="M722 -18q-274 0 -420 170q-127 147 -127 393q0 181 61 362q53 158 142 279q220 301 563 301q126 0 228.5 -41t160.5 -115q44 -55 70 -141l-154 -58q-63 216 -305 216q-209 0 -359 -162q-132 -141 -192 -379h664l-27 -139h-666q-8 -71 -8 -127q0 -217 113 -325
q100 -95 274 -95q262 0 408 219l141 -76q-202 -282 -567 -282z" />
    <glyph glyph-name="afii10054" unicode="&#x405;" horiz-adv-x="1238" 
d="M1019 1102q-44 136 -126 192q-71 49 -189 49q-148 0 -227 -74q-68 -64 -68 -169q0 -102 65 -157q57 -47 221 -110q238 -87 320 -183q73 -84 73 -224q0 -212 -161 -336q-139 -108 -349 -108q-452 0 -532 421l164 31q32 -173 131 -248q86 -65 233 -65q172 0 265 88
q81 77 81 203q0 104 -68 163q-60 52 -218 113q-186 69 -264 131q-121 99 -121 262q0 192 141 304q123 97 311 97q373 0 473 -342z" />
    <glyph glyph-name="afii10055" unicode="&#x406;" horiz-adv-x="591" 
d="M394 1464h168l-285 -1464h-168z" />
    <glyph glyph-name="afii10056" unicode="&#x407;" horiz-adv-x="606" 
d="M394 1464h168l-285 -1464h-168zM349 1858q46 0 75 -27.5t29 -71.5q0 -50 -36.5 -86.5t-86.5 -36.5q-43 0 -72.5 29t-29.5 72q0 50 35.5 85.5t85.5 35.5zM734 1858q45 0 74.5 -28t29.5 -71q0 -50 -36.5 -86.5t-86.5 -36.5q-44 0 -73 28.5t-29 72.5q0 50 35.5 85.5
t85.5 35.5z" />
    <glyph glyph-name="afii10057" unicode="&#x408;" horiz-adv-x="1106" 
d="M901 412q-43 -223 -176 -334q-115 -96 -287 -96q-189 0 -288 105q-87 92 -87 247q0 67 12 123l13 59h165l-10 -53q-14 -75 -14 -137q0 -108 61 -162q53 -47 148 -47q132 0 205 82q63 72 92 219l202 1046h168z" />
    <glyph glyph-name="afii10058" unicode="&#x409;" horiz-adv-x="1970" 
d="M1093 1323h-547l-33 -170q-96 -450 -185.5 -695t-234.5 -458h-190q158 183 265 477q95 259 190 711l55 276h876l-120 -616h288q246 0 341 -86q96 -87 96 -238q0 -113 -47 -219.5t-129 -177.5q-78 -69 -175.5 -98t-250.5 -29h-455zM1353 141q194 0 287 111q86 99 86 248
q0 207 -264 207h-320l-111 -566h322z" />
    <glyph glyph-name="afii10059" unicode="&#x40a;" horiz-adv-x="2024" 
d="M424 848h624l119 616h168l-119 -612h252q241 0 350 -86q129 -104 129 -295q0 -106 -45.5 -201t-126.5 -160q-76 -62 -170 -86t-262 -24h-460l137 709h-623l-137 -709h-168l285 1464h168zM1370 139q122 0 190.5 23t120.5 82q88 98 88 227q0 63 -24 117t-64 82
q-68 43 -194 43h-297l-113 -574h293z" />
    <glyph glyph-name="afii10060" unicode="&#x40b;" horiz-adv-x="1562" 
d="M309 0l258 1325h-403l27 139h1118l-27 -139h-547l-104 -537q151 172 389 172q371 0 371 -344q0 -77 -25 -208l-80 -408h-168l78 399q27 138 27 203q0 121 -65 173q-58 46 -173 46q-280 0 -401 -278l-107 -543h-168z" />
    <glyph glyph-name="afii10061" unicode="&#x40c;" horiz-adv-x="1262" 
d="M377 1464h168l-129 -661h43q89 0 139 16t88 58q38 39 67 83t132 217q101 170 187 230.5t224 60.5q23 0 65 -3q11 -1 17 -1l-29 -145q-4 0 -18 1q-28 3 -45 3q-59 0 -92 -12t-64 -44q-47 -50 -153 -239q-84 -142 -134.5 -190.5t-160.5 -94.5q96 -27 150 -83t110 -187
l182 -473h-188l-154 401q-65 167 -121.5 223t-160.5 56h-107l-133 -680h-168zM946 1976h221l-264 -331h-117z" />
    <glyph glyph-name="uni040D" unicode="&#x40d;" horiz-adv-x="1397" 
d="M377 1464h155l-207 -1065l877 926l27 139h157l-284 -1464h-156l211 1081l-879 -925l-30 -156h-156zM710 1956h207l65 -332h-104z" />
    <glyph glyph-name="afii10062" unicode="&#x40e;" horiz-adv-x="1130" 
d="M211 1464h170l229 -973l504 973h168l-596 -1116q-83 -155 -110.5 -197.5t-67.5 -79.5q-97 -94 -246 -94q-73 0 -137 23l61 133q49 -17 91 -17q77 0 122.5 34.5t100.5 134.5l10 14zM643 1888q2 -95 33.5 -131.5t111.5 -36.5q79 0 119.5 39.5t50.5 128.5h125
q-18 -293 -295 -293q-90 0 -156 34t-93 95q-25 55 -25 164h129z" />
    <glyph glyph-name="afii10145" unicode="&#x40f;" horiz-adv-x="1362" 
d="M377 1464h168l-256 -1323h637l258 1323h168l-285 -1464h-391l-97 -348h-135l39 348h-391z" />
    <glyph glyph-name="afii10017" unicode="&#x410;" horiz-adv-x="1272" 
d="M957 0l-55 371h-603l-194 -371h-168l791 1464h163l230 -1464h-164zM881 506l-113 761l-399 -761h512z" />
    <glyph glyph-name="afii10018" unicode="&#x411;" horiz-adv-x="1251" 
d="M377 1464h813l-27 -139h-645l-86 -438h270q241 0 348 -86q125 -100 125 -295q0 -116 -45.5 -219t-126.5 -171q-78 -65 -172.5 -90.5t-259.5 -25.5h-479zM598 139q120 0 188.5 24.5t120.5 86.5q90 107 90 256q0 133 -77 191q-67 51 -199 51h-316l-118 -609h311z" />
    <glyph glyph-name="afii10019" unicode="&#x412;" horiz-adv-x="1346" 
d="M377 1464h479q219 0 328 -100q94 -87 94 -242q0 -146 -76 -237q-67 -81 -205 -134q122 -41 176 -113.5t54 -193.5q0 -224 -159 -342q-139 -102 -374 -102h-602zM754 825q96 0 152.5 12t105.5 43q106 69 106 232q0 213 -256 213h-346l-98 -500h336zM710 139q194 0 280 83
q75 72 75 214q0 139 -84 198q-73 52 -221 52h-369l-106 -547h425z" />
    <glyph glyph-name="afii10020" unicode="&#x413;" horiz-adv-x="1046" 
d="M377 1464h805l-27 -139h-637l-258 -1325h-168z" />
    <glyph glyph-name="afii10021" unicode="&#x414;" horiz-adv-x="1356" 
d="M35 0l-94 -348h-139l94 489h137q100 115 201.5 411t183.5 710l41 202h877l-256 -1323h145l-94 -489h-141l41 348h-996zM1141 1323h-546l-19 -96q-169 -782 -366 -1086h700z" />
    <glyph glyph-name="afii10022" unicode="&#x415;" 
d="M377 1464h876l-26 -139h-711l-102 -520h581l-24 -135h-582l-104 -531h747l-27 -139h-913z" />
    <glyph glyph-name="afii10024" unicode="&#x416;" horiz-adv-x="1747" 
d="M819 680q-120 3 -195 -55q-67 -51 -200 -224l-295 -401h-203l350 473q105 134 173.5 188.5t168.5 81.5q-53 27 -79.5 52t-43.5 64q-25 61 -53 249q-18 127 -51 171t-111 44q-17 0 -52 -3q-10 -1 -15 -1l28 145q37 4 68 4q123 0 186 -63q33 -33 52 -85.5t41 -168.5
q26 -152 44 -213t43 -91q22 -25 57 -34t109 -10l129 661h164l-129 -661q98 -2 144 10t84 49q56 55 174 291q92 182 172.5 248.5t210.5 66.5q15 0 50 -2q13 -1 23 -2l-26 -145q-7 0 -24 2q-25 2 -38 2q-50 0 -80 -13t-58 -47q-43 -54 -126 -235q-75 -154 -116 -200.5
t-150 -98.5q63 -21 109.5 -80.5t91.5 -175.5l163 -473h-184l-139 401q-76 199 -133 244q-50 39 -170 35l-133 -680h-164z" />
    <glyph glyph-name="afii10025" unicode="&#x417;" horiz-adv-x="1294" 
d="M552 -18q-291 0 -432 164q-50 59 -76 153l154 54q25 -97 88 -148q101 -82 276 -82q196 0 302 98q92 85 92 224q0 129 -96 197q-83 59 -224 59h-201l27 139h192q192 0 300 85q94 73 94 189q0 114 -91 176q-80 53 -210 53q-127 0 -217.5 -49.5t-161.5 -156.5l-136 80
q164 265 527 265q227 0 353 -111q110 -97 110 -251q0 -193 -170 -290q-58 -33 -146 -62q83 -31 117 -61q111 -91 111 -256q0 -224 -182 -355q-158 -114 -400 -114z" />
    <glyph glyph-name="afii10026" unicode="&#x418;" horiz-adv-x="1397" 
d="M377 1464h155l-207 -1065l877 926l27 139h157l-284 -1464h-156l211 1081l-879 -925l-30 -156h-156z" />
    <glyph glyph-name="afii10027" unicode="&#x419;" horiz-adv-x="1397" 
d="M377 1464h155l-207 -1065l877 926l27 139h157l-284 -1464h-156l211 1081l-879 -925l-30 -156h-156zM782 1888q2 -95 33.5 -131.5t111.5 -36.5q79 0 119.5 39.5t50.5 128.5h125q-18 -293 -295 -293q-90 0 -156 34t-93 95q-25 55 -25 164h129z" />
    <glyph glyph-name="afii10028" unicode="&#x41a;" horiz-adv-x="1262" 
d="M377 1464h168l-129 -661h43q89 0 139 16t88 58q38 39 67 83t132 217q101 170 187 230.5t224 60.5q23 0 65 -3q11 -1 17 -1l-29 -145q-4 0 -18 1q-28 3 -45 3q-59 0 -92 -12t-64 -44q-47 -50 -153 -239q-84 -142 -134.5 -190.5t-160.5 -94.5q96 -27 150 -83t110 -187
l182 -473h-188l-154 401q-65 167 -121.5 223t-160.5 56h-107l-133 -680h-168z" />
    <glyph glyph-name="afii10029" unicode="&#x41b;" horiz-adv-x="1300" 
d="M1093 1323h-547l-33 -170q-96 -450 -185.5 -695t-234.5 -458h-190q158 183 265 477q95 259 190 711l55 276h876l-284 -1464h-168z" />
    <glyph glyph-name="afii10030" unicode="&#x41c;" horiz-adv-x="1690" 
d="M377 1464h231l178 -1255l654 1255h239l-284 -1464h-164l239 1235l-645 -1235h-155l-183 1235l-239 -1235h-156z" />
    <glyph glyph-name="afii10031" unicode="&#x41d;" horiz-adv-x="1399" 
d="M377 1464h168l-129 -667h675l129 667h168l-284 -1464h-168l127 658h-676l-127 -658h-168z" />
    <glyph glyph-name="afii10032" unicode="&#x41e;" horiz-adv-x="1587" 
d="M917 1482q278 0 436 -195q138 -170 138 -437q0 -248 -96 -448q-94 -196 -260 -306q-170 -114 -379 -114q-280 0 -438 196q-138 171 -138 438q0 246 97 446q95 195 261 306q170 114 379 114zM907 1343q-263 0 -417 -231q-134 -200 -134 -506q0 -250 123 -376
q107 -109 295 -109q141 0 256 77q100 67 166 183q117 208 117 479q0 247 -120 373q-105 110 -286 110z" />
    <glyph glyph-name="afii10033" unicode="&#x41f;" horiz-adv-x="1393" 
d="M377 1464h1005l-284 -1464h-168l256 1317h-670l-256 -1317h-168z" />
    <glyph glyph-name="afii10034" unicode="&#x420;" horiz-adv-x="1276" 
d="M377 1464h434q126 0 198.5 -16t129.5 -55q133 -93 133 -293q0 -238 -160 -367q-144 -114 -410 -114h-323l-121 -619h-166zM723 758q383 0 383 340q0 127 -78 184q-63 43 -229 43h-283l-111 -567h318z" />
    <glyph glyph-name="afii10035" unicode="&#x421;" horiz-adv-x="1471" 
d="M1323 405q-65 -141 -127 -216q-174 -207 -463 -207q-276 0 -424 189q-129 164 -129 437q0 248 96 450q93 197 257 309q169 115 376 115q270 0 395 -184q37 -51 55.5 -104t37.5 -158l-156 -31q-24 132 -64 197q-84 141 -274 141q-255 0 -410 -236q-135 -204 -135 -505
q0 -249 114 -373q99 -108 275 -108q161 0 271 94q96 83 163 248z" />
    <glyph glyph-name="afii10036" unicode="&#x422;" horiz-adv-x="1264" 
d="M709 1325h-446l27 139h1056l-26 -139h-447l-258 -1325h-164z" />
    <glyph glyph-name="afii10037" unicode="&#x423;" horiz-adv-x="1130" 
d="M211 1464h170l229 -973l504 973h168l-596 -1116q-83 -155 -110.5 -197.5t-67.5 -79.5q-97 -94 -246 -94q-73 0 -137 23l61 133q49 -17 91 -17q77 0 122.5 34.5t100.5 134.5l10 14z" />
    <glyph glyph-name="afii10038" unicode="&#x424;" horiz-adv-x="1682" 
d="M687 150q-131 11 -208.5 34t-143.5 70q-164 123 -164 351q0 173 85 331q73 137 194 228q95 71 199.5 105t262.5 46l41 211h164l-41 -211q131 -11 208.5 -34t143.5 -70q164 -123 164 -351q0 -173 -85 -330q-73 -137 -193 -229q-96 -71 -200 -105t-263 -46l-41 -211h-164z
M888 1186q-231 -21 -363 -137q-81 -74 -128.5 -195t-47.5 -256q0 -286 363 -319zM876 279q231 21 360 137q83 74 130.5 194.5t47.5 256.5q0 286 -362 319z" />
    <glyph glyph-name="afii10039" unicode="&#x425;" horiz-adv-x="1228" 
d="M557 762l-291 702h179l241 -586l455 586h188l-573 -723l309 -741h-178l-258 627l-492 -627h-186z" />
    <glyph glyph-name="afii10040" unicode="&#x426;" horiz-adv-x="1371" 
d="M377 1464h168l-256 -1323h637l258 1323h168l-256 -1323h145l-94 -489h-142l41 348h-954z" />
    <glyph glyph-name="afii10041" unicode="&#x427;" horiz-adv-x="1308" 
d="M844 0l111 565q-129 -153 -365 -153q-182 0 -276 98q-82 86 -82 231q0 99 27 232l96 491h168l-98 -510q-25 -126 -25 -200q0 -203 238 -203q155 0 257 90q89 77 113 205l121 618h168l-285 -1464h-168z" />
    <glyph glyph-name="afii10042" unicode="&#x428;" horiz-adv-x="1981" 
d="M377 1464h168l-256 -1323h542l258 1323h168l-258 -1323h545l258 1323h168l-285 -1464h-1593z" />
    <glyph glyph-name="afii10043" unicode="&#x429;" horiz-adv-x="1990" 
d="M377 1464h168l-256 -1323h542l258 1323h168l-258 -1323h545l258 1323h168l-258 -1323h147l-96 -489h-139l41 348h-1573z" />
    <glyph glyph-name="afii10044" unicode="&#x42a;" horiz-adv-x="1411" 
d="M613 903h252q243 0 348 -88q123 -104 123 -303q0 -119 -45.5 -223t-128.5 -173q-76 -65 -170.5 -90.5t-261.5 -25.5h-461l258 1325h-356l27 139h524zM759 139q120 0 188.5 24.5t120.5 86.5q90 110 90 264q0 137 -76 197q-66 53 -198 53h-297l-123 -625h295z" />
    <glyph glyph-name="afii10045" unicode="&#x42b;" horiz-adv-x="1719" 
d="M436 903h252q242 0 348 -88q123 -104 123 -303q0 -119 -45.5 -222.5t-128.5 -172.5q-78 -66 -172 -91.5t-260 -25.5h-461l285 1464h168zM1540 1464h168l-285 -1464h-168zM579 139q122 0 191 24.5t121 86.5q90 110 90 264q0 137 -76 197q-66 53 -199 53h-297l-122 -625
h292z" />
    <glyph glyph-name="afii10046" unicode="&#x42c;" horiz-adv-x="1233" 
d="M436 903h252q242 0 348 -88q123 -104 123 -303q0 -119 -45.5 -223t-128.5 -173q-78 -65 -172 -90.5t-260 -25.5h-461l285 1464h168zM579 139q122 0 191 24.5t121 86.5q90 110 90 264q0 137 -76 197q-66 53 -199 53h-297l-122 -625h292z" />
    <glyph glyph-name="afii10047" unicode="&#x42d;" horiz-adv-x="1339" 
d="M518 -18q-389 0 -492 319l152 58q23 -78 65 -125q46 -53 122 -83t167 -30q205 0 341 160q119 141 169 387h-678l29 139h669q4 41 4 92v4q0 445 -354 445q-252 0 -407 -214l-152 66q118 159 261 227q127 60 294 60q290 0 422 -178q115 -155 115 -413q0 -222 -75 -418
q-65 -171 -177 -291q-189 -205 -475 -205z" />
    <glyph glyph-name="afii10048" unicode="&#x42e;" horiz-adv-x="2081" 
d="M416 799h309q54 330 269 519q186 164 435 164q270 0 422 -195q133 -169 133 -435q0 -245 -94 -447q-91 -196 -251 -308q-165 -115 -365 -115q-169 0 -298 79q-112 70 -179 191q-87 152 -87 408h-323l-127 -660h-168l285 1464h168zM1411 1343q-247 0 -395 -233
q-129 -202 -129 -503q0 -247 116 -375q102 -111 275 -111q273 0 415 260q113 213 113 477q0 252 -115 377q-101 108 -280 108z" />
    <glyph glyph-name="afii10049" unicode="&#x42f;" horiz-adv-x="1337" 
d="M1042 0h-168l125 639h-248q-173 0 -266 -70q-48 -38 -79.5 -92t-80.5 -182q-48 -124 -77.5 -182t-72.5 -113h-188l2 10q55 66 91.5 138t105.5 249q47 122 115.5 188t185.5 103q-102 32 -150 88q-84 96 -84 244q0 185 125 313q69 72 159 101.5t238 29.5h551zM1132 1325
h-375q-163 0 -244 -78q-88 -88 -88 -233q0 -122 73 -183q63 -53 175 -53h352z" />
    <glyph glyph-name="afii10065" unicode="&#x430;" horiz-adv-x="1089" 
d="M905 -8q-21 -2 -45 -2q-172 0 -197 153q-135 -161 -307 -161q-144 0 -229 90q-74 77 -74 195q0 141 92 225q80 73 240 110q110 26 362 37l13 67l1 7q7 43 7 67q0 168 -180 168q-88 0 -160.5 -28t-155.5 -95l-80 109q182 155 414 155q168 0 254 -83q76 -72 76 -195
q0 -53 -11 -105l-92 -477q-4 -23 -4 -32q0 -39 23.5 -56t79.5 -18zM723 520q-288 -8 -401 -73q-99 -57 -99 -174q0 -156 180 -156q120 0 201 73q69 63 88 164z" />
    <glyph glyph-name="afii10066" unicode="&#x431;" horiz-adv-x="1148" 
d="M1066 1399h-205q-164 0 -244.5 -29.5t-134.5 -109.5q-73 -110 -129 -367q96 109 175.5 152.5t185.5 43.5q168 0 256 -108q94 -120 94 -313q0 -188 -74 -347q-72 -155 -195 -246q-127 -93 -276 -93q-190 0 -302 131q-97 114 -97 289q0 187 74 487q63 258 133 391
q40 76 104 136.5t133 86.5q111 39 269 39h288zM679 950q-171 0 -289 -184q-102 -159 -102 -369q0 -136 70 -211q61 -65 159 -65q176 0 285 203q40 73 64 171.5t24 186.5q0 136 -62 206q-55 62 -149 62z" />
    <glyph glyph-name="afii10067" unicode="&#x432;" horiz-adv-x="1143" 
d="M301 1071h420q325 0 325 -247q0 -184 -174 -266q144 -68 144 -218q0 -165 -121 -260q-105 -80 -297 -80h-506zM674 621q101 0 149 51q55 59 55 143q0 117 -151 117h-285l-61 -311h293zM600 139q120 0 186 60q58 53 58 137q0 146 -181 146h-309l-67 -343h313z" />
    <glyph glyph-name="afii10068" unicode="&#x433;" horiz-adv-x="881" 
d="M308 1071h633l-29 -141h-463l-180 -930h-170z" />
    <glyph glyph-name="afii10069" unicode="&#x434;" horiz-adv-x="1159" 
d="M343 1407q91 82 179 117.5t201 35.5q214 0 303 -138q78 -122 78 -376q0 -223 -37.5 -429t-101.5 -338q-76 -154 -201 -230q-110 -67 -247 -67q-207 0 -317 131q-95 115 -95 305q0 141 47 276t129 231q141 164 344 164q120 0 195 -44.5t119 -139.5q1 30 3 79q2 61 2 87
q0 196 -64 278q-56 72 -173 72q-140 0 -274 -123zM647 950q-186 0 -292 -213q-76 -151 -76 -329q0 -145 69 -221q61 -66 162 -66q196 0 303 223q76 152 76 324q0 142 -72 217q-64 65 -170 65z" />
    <glyph glyph-name="afii10070" unicode="&#x435;" horiz-adv-x="1072" 
d="M892 178q-83 -108 -172 -152t-226 -44q-199 0 -303 129q-92 113 -92 303q0 184 79 341q77 153 209 242q135 92 296 92q157 0 246 -91q77 -79 77 -204q0 -184 -203 -266q-177 -72 -536 -77v-48q0 -284 235 -284q170 0 263 135zM285 582q316 0 442 55q111 48 111 153
q0 78 -45 120t-129 42q-288 0 -379 -370z" />
    <glyph glyph-name="afii10072" unicode="&#x436;" horiz-adv-x="1467" 
d="M644 496h-82q-72 0 -113.5 -31.5t-103.5 -132.5l-211 -332h-199l219 332q80 115 131.5 161t128.5 70q-50 34 -67 75.5t-45 200.5q-11 59 -29 75t-74 16h-47l29 141h37q78 0 113.5 -9t56.5 -34q33 -39 65 -189q34 -157 58 -189t110 -32h45l88 453h170l-88 -453h82
q85 0 129 45q39 40 102 170q83 167 134 205q45 33 149 33h66l-27 -141h-47q-36 0 -49.5 -4.5t-26.5 -20.5q-17 -22 -70 -137q-42 -98 -88.5 -148.5t-124.5 -82.5q81 -44 142 -205l119 -332h-179l-114 332q-34 99 -70 131.5t-110 32.5h-41l-97 -496h-168z" />
    <glyph glyph-name="afii10073" unicode="&#x437;" horiz-adv-x="1028" 
d="M162 312q13 -61 29 -90t49 -52q68 -49 192 -49q130 0 205 65q65 57 65 144q0 75 -60.5 118.5t-164.5 43.5h-168l27 139h162q128 0 204 55q66 48 66 121q0 66 -54 104.5t-145 38.5q-105 0 -171.5 -27.5t-114.5 -90.5l-132 73q129 184 418 184q186 0 283 -81
q84 -70 84 -189q0 -89 -46 -148t-151 -105q137 -69 137 -219q0 -178 -139 -278q-121 -87 -311 -87q-248 0 -352 127q-51 59 -70 168z" />
    <glyph glyph-name="afii10074" unicode="&#x438;" 
d="M308 1071h170l-139 -715l587 594l25 121h170l-209 -1071h-170l141 727l-587 -594l-27 -133h-170z" />
    <glyph glyph-name="afii10075" unicode="&#x439;" 
d="M308 1071h170l-139 -715l587 594l25 121h170l-209 -1071h-170l141 727l-587 -594l-27 -133h-170zM650 1591q2 -104 28.5 -143t96.5 -39q71 0 105.5 42.5t43.5 139.5h125q-14 -315 -276 -315q-83 0 -144 34.5t-85 94.5q-23 56 -23 186h129z" />
    <glyph glyph-name="afii10076" unicode="&#x43a;" horiz-adv-x="1083" 
d="M301 1071h168l-88 -457h65q54 0 82.5 9t55.5 33q40 37 129 179q105 170 162 205q51 31 178 31h49l-27 -141h-39q-46 0 -63.5 -4.5t-33.5 -19.5q-22 -21 -89 -132q-65 -110 -106.5 -151t-121.5 -74q61 -20 102 -69t83 -148l133 -332h-184l-129 332q-56 151 -183 151h-90
l-94 -483h-168z" />
    <glyph glyph-name="afii10077" unicode="&#x43b;" horiz-adv-x="1147" 
d="M856 930h-372l-39 -201q-93 -462 -295 -729h-201q127 147 208.5 337t139.5 472l49 262h707l-207 -1071h-170z" />
    <glyph glyph-name="afii10078" unicode="&#x43c;" horiz-adv-x="1462" 
d="M541 1071l126 -852l449 852h254l-209 -1071h-156l181 926l-490 -926h-129l-139 926l-180 -926h-156l209 1071h240z" />
    <glyph glyph-name="afii10079" unicode="&#x43d;" horiz-adv-x="1198" 
d="M301 1071h168l-90 -457h469l90 457h168l-209 -1071h-168l92 475h-469l-92 -475h-168z" />
    <glyph glyph-name="afii10080" unicode="&#x43e;" horiz-adv-x="1152" 
d="M646 1089q202 0 309 -136q94 -119 94 -316q0 -159 -59 -305q-50 -126 -133 -211q-143 -139 -345 -139t-312 140q-97 122 -97 320q0 297 175 484q152 163 368 163zM635 952q-174 0 -275 -164q-87 -143 -87 -364q0 -305 246 -305q174 0 268 166q88 163 88 370
q0 297 -240 297z" />
    <glyph glyph-name="afii10081" unicode="&#x43f;" horiz-adv-x="1192" 
d="M301 1071h797l-207 -1071h-170l182 930h-461l-182 -930h-168z" />
    <glyph glyph-name="afii10082" unicode="&#x440;" horiz-adv-x="1241" 
d="M296 1071h168l-29 -154q127 172 331 172q184 0 282 -130q85 -113 85 -302q0 -309 -172 -505q-149 -170 -360 -170q-228 0 -307 215l-111 -570h-168zM720 950q-176 0 -286 -166q-95 -144 -95 -352q0 -159 78 -240q69 -71 186 -71q171 0 270 162q86 141 86 358
q0 309 -239 309z" />
    <glyph glyph-name="afii10083" unicode="&#x441;" horiz-adv-x="1090" 
d="M500 -18q-197 0 -306 135q-95 117 -95 307q0 309 175 500q152 165 372 165q125 0 209.5 -53.5t140.5 -169.5l-143 -67q-44 89 -89 121t-126 32q-179 0 -281 -160q-88 -139 -88 -358q0 -315 248 -315q88 0 148.5 36.5t127.5 131.5l119 -78q-88 -123 -182.5 -175
t-229.5 -52z" />
    <glyph glyph-name="afii10084" unicode="&#x442;" horiz-adv-x="818" 
d="M401 932h-311l27 139h792l-26 -139h-314l-182 -932h-168z" />
    <glyph glyph-name="afii10085" unicode="&#x443;" horiz-adv-x="955" 
d="M363 -180q-58 -110 -126 -157.5t-168 -47.5q-106 0 -193 72l80 114q53 -53 119 -53q101 0 163 127l72 147l-176 1049h174l129 -821l416 821h180z" />
    <glyph glyph-name="afii10086" unicode="&#x444;" horiz-adv-x="1647" 
d="M674 143q-109 -161 -266 -161q-152 0 -236 131q-73 113 -73 295q0 304 154 506q134 175 315 175q89 0 158 -46t98 -126l121 625h151l-116 -608q109 155 262 155q151 0 236 -129q73 -113 73 -292q0 -129 -37.5 -261t-101.5 -227q-133 -198 -328 -198q-191 0 -256 178
l-102 -533h-152zM591 950q-120 0 -197 -125q-55 -87 -88 -213t-33 -250q0 -241 166 -241q112 0 193 106q61 80 101 214.5t40 260.5q0 123 -55 190q-49 58 -127 58zM1209 950q-61 0 -119.5 -40.5t-101.5 -112.5q-51 -88 -81 -207.5t-30 -233.5q0 -118 57 -180q50 -55 134 -55
q111 0 178 96q57 82 94 214t37 255q0 131 -51 202q-44 62 -117 62z" />
    <glyph glyph-name="afii10087" unicode="&#x445;" horiz-adv-x="1025" 
d="M420 563l-240 508h185l172 -395l313 395h195l-437 -518l263 -553h-185l-192 440l-355 -440h-190z" />
    <glyph glyph-name="afii10088" unicode="&#x446;" horiz-adv-x="1173" 
d="M301 1071h168l-180 -930h442l182 930h168l-180 -930h117l-88 -448h-140l41 307h-739z" />
    <glyph glyph-name="afii10089" unicode="&#x447;" horiz-adv-x="1121" 
d="M425 1071l-74 -379q-14 -69 -14 -115q0 -147 184 -147q102 0 174 58q62 51 76 128l90 455h168l-209 -1071h-168l78 401q-102 -110 -264 -110q-149 0 -228 79q-69 69 -69 185q0 62 20 176l68 340h168z" />
    <glyph glyph-name="afii10090" unicode="&#x448;" horiz-adv-x="1675" 
d="M301 1071h168l-180 -930h387l180 930h170l-182 -930h389l180 930h168l-207 -1071h-1282z" />
    <glyph glyph-name="afii10091" unicode="&#x449;" horiz-adv-x="1675" 
d="M301 1071h168l-180 -929h387l180 929h170l-182 -929h389l180 929h168l-180 -929h116l-86 -449h-139l39 307h-1239z" />
    <glyph glyph-name="afii10092" unicode="&#x44a;" horiz-adv-x="1147" 
d="M350 932h-260l27 139h428l-74 -375h211q194 0 277 -67q94 -79 94 -228q0 -90 -34.5 -172.5t-94.5 -136.5q-57 -50 -126.5 -71t-181.5 -21h-448zM629 139q138 0 205 94q47 71 47 152q0 172 -183 172h-254l-82 -418h267z" />
    <glyph glyph-name="afii10093" unicode="&#x44b;" horiz-adv-x="1503" 
d="M395 696h211q191 0 277 -68q94 -78 94 -227q0 -91 -35 -173t-96 -136q-55 -50 -125 -71t-183 -21h-446l209 1071h168zM1243 1071h168l-209 -1071h-168zM553 139q136 0 203 94q49 69 49 152q0 172 -183 172h-254l-81 -418h266z" />
    <glyph glyph-name="afii10094" unicode="&#x44c;" horiz-adv-x="1071" 
d="M395 696h211q191 0 277 -67q94 -79 94 -228q0 -91 -35 -173t-96 -136q-55 -50 -125 -71t-183 -21h-446l209 1071h168zM553 139q136 0 203 94q49 69 49 152q0 172 -183 172h-254l-81 -418h266z" />
    <glyph glyph-name="afii10095" unicode="&#x44d;" horiz-adv-x="1051" 
d="M301 608h471l1 6q5 40 5 64q0 137 -69 209q-61 63 -162 63q-84 0 -146 -26t-143 -95l-104 107q153 153 389 153q206 0 314 -130q93 -113 93 -306q0 -251 -135 -444q-163 -227 -432 -227q-294 0 -389 213l141 90q45 -88 105.5 -126t156.5 -38q262 0 351 348h-473z" />
    <glyph glyph-name="afii10096" unicode="&#x44e;" horiz-adv-x="1612" 
d="M377 602h227q51 241 204 373q133 114 310 114q195 0 300 -136q91 -118 91 -314q0 -304 -167 -493q-144 -164 -351 -164q-199 0 -308 138q-95 121 -95 316v27h-238l-90 -463h-168l209 1071h168zM1108 950q-169 0 -267 -163q-85 -141 -85 -357q0 -309 231 -309
q171 0 262 164q86 162 86 370q0 154 -66 229q-58 66 -161 66z" />
    <glyph glyph-name="afii10097" unicode="&#x44f;" horiz-adv-x="1131" 
d="M663 0l86 438h-197q-111 0 -168 -45q-32 -26 -50.5 -57.5t-55.5 -122.5q-57 -143 -115 -213h-176l8 39q62 68 139 262q33 80 72.5 123t110.5 75q-137 72 -137 228q0 148 94 246q54 55 121 76.5t184 21.5h461l-209 -1071h-168zM845 932h-283q-109 0 -165 -60
q-49 -53 -49 -143q0 -81 45 -116.5t147 -35.5h235z" />
    <glyph glyph-name="uni0450" unicode="&#x450;" horiz-adv-x="1072" 
d="M892 178q-83 -108 -172 -152t-226 -44q-199 0 -303 129q-92 113 -92 303q0 184 79 341q77 153 209 242q135 92 296 92q157 0 246 -91q77 -79 77 -204q0 -184 -203 -266q-177 -72 -536 -77v-48q0 -284 235 -284q170 0 263 135zM285 582q316 0 442 55q111 48 111 153
q0 78 -45 120t-129 42q-288 0 -379 -370zM476 1593h207l65 -348h-104z" />
    <glyph glyph-name="afii10071" unicode="&#x451;" horiz-adv-x="1071" 
d="M892 178q-83 -108 -172 -152t-226 -44q-199 0 -303 129q-92 113 -92 303q0 184 79 341q77 153 209 242q135 92 296 92q157 0 246 -91q77 -79 77 -204q0 -184 -203 -266q-177 -72 -536 -77v-48q0 -284 235 -284q170 0 263 135zM285 582q316 0 442 55q111 48 111 153
q0 78 -45 120t-129 42q-288 0 -379 -370zM523 1520q46 0 75 -27.5t29 -71.5q0 -50 -36.5 -86.5t-86.5 -36.5q-43 0 -72.5 29t-29.5 72q0 50 35.5 85.5t85.5 35.5zM908 1520q45 0 74.5 -28t29.5 -71q0 -50 -36.5 -86.5t-86.5 -36.5q-44 0 -73 28.5t-29 72.5q0 50 35.5 85.5
t85.5 35.5z" />
    <glyph glyph-name="afii10099" unicode="&#x452;" horiz-adv-x="1204" 
d="M526 1368h248l-27 -133h-247l-60 -318q125 172 321 172q145 0 222 -90q67 -78 67 -211q0 -47 -14 -124l-78 -396q-65 -375 -206 -520q-124 -128 -357 -135l14 129q117 5 182 48q68 45 112.5 150t86.5 320l80 416q12 63 12 100q0 174 -176 174q-132 0 -219 -95
q-77 -82 -104 -222l-123 -633h-168l240 1235h-148l27 133h147l33 174h168z" />
    <glyph glyph-name="afii10100" unicode="&#x453;" horiz-adv-x="881" 
d="M308 1071h633l-29 -141h-463l-180 -930h-170zM695 1591h221l-262 -350h-117z" />
    <glyph glyph-name="afii10101" unicode="&#x454;" horiz-adv-x="1058" 
d="M535 -18q-221 0 -335 129q-99 112 -99 307q0 130 42.5 254.5t119.5 219.5q163 197 413 197q268 0 369 -205l-133 -69q-48 77 -98.5 106t-137.5 29q-265 0 -364 -336h469l-29 -139h-469q-8 -42 -8 -80q0 -274 268 -274q91 0 158 29.5t129 97.5l125 -88
q-83 -95 -180.5 -136.5t-239.5 -41.5z" />
    <glyph glyph-name="afii10102" unicode="&#x455;" horiz-adv-x="1000" 
d="M443 -18q-279 0 -406 217l139 82q54 -88 118 -125t161 -37q111 0 169 48q50 42 50 114q0 74 -65 118q-36 26 -150 78q-147 68 -207.5 138.5t-60.5 174.5q0 145 115 227q99 72 253 72q219 0 346 -180l-131 -92q-85 135 -233 135q-94 0 -143 -43q-43 -38 -43 -102
q0 -61 37 -99t145 -87q155 -71 205 -111q100 -82 100 -209q0 -153 -125 -242q-108 -77 -274 -77z" />
    <glyph glyph-name="afii10103" unicode="&#x456;" horiz-adv-x="564" 
d="M459 1509q44 0 72 -26.5t28 -67.5q0 -49 -35 -84t-84 -35q-42 0 -69 28t-27 70q0 48 33.5 81.5t81.5 33.5zM305 1071h168l-209 -1071h-168z" />
    <glyph glyph-name="afii10104" unicode="&#x457;" horiz-adv-x="577" 
d="M305 1071h168l-209 -1071h-168zM270 1520q46 0 75 -27.5t29 -71.5q0 -50 -36.5 -86.5t-86.5 -36.5q-43 0 -72.5 29t-29.5 72q0 50 35.5 85.5t85.5 35.5zM655 1520q45 0 74.5 -28t29.5 -71q0 -50 -36.5 -86.5t-86.5 -36.5q-44 0 -73 28.5t-29 72.5q0 50 35.5 85.5
t85.5 35.5z" />
    <glyph glyph-name="afii10105" unicode="&#x458;" horiz-adv-x="572" 
d="M466 1509q44 0 72 -26.5t28 -67.5q0 -49 -35 -84t-84 -35q-42 0 -69 28t-27 70q0 48 33.5 81.5t81.5 33.5zM246 -135q-50 -254 -299 -254q-82 0 -145 41l55 127q54 -27 95 -27q104 0 126 115l236 1204h168z" />
    <glyph glyph-name="afii10106" unicode="&#x459;" horiz-adv-x="1646" 
d="M856 930h-372l-39 -201q-93 -462 -295 -729h-201q127 147 208.5 337t139.5 472l49 262h707l-76 -387h244q194 0 264 -67q72 -63 72 -183q0 -99 -37.5 -190t-101.5 -148q-61 -52 -136 -74t-194 -22h-412zM1139 137q122 0 189 82q59 76 59 176q0 152 -168 152h-269
l-77 -410h266z" />
    <glyph glyph-name="afii10107" unicode="&#x45a;" horiz-adv-x="1694" 
d="M923 1071h168l-75 -387h209q195 0 278 -66q94 -78 94 -223q0 -87 -34.5 -168t-94.5 -135q-57 -51 -126 -71.5t-181 -20.5h-446l100 512h-455l-100 -512h-168l209 1071h168l-82 -420h455zM1175 139q105 0 166 55q38 32 61 83.5t23 103.5q0 164 -182 164h-254l-80 -406h266
z" />
    <glyph glyph-name="afii10108" unicode="&#x45b;" horiz-adv-x="1199" 
d="M391 1542h168l-33 -174h248l-27 -133h-247l-60 -318q125 172 321 172q145 0 222 -90q67 -78 67 -211q0 -47 -14 -124l-129 -664h-168l131 676q12 63 12 100q0 174 -176 174q-132 0 -219 -95q-77 -82 -104 -222l-123 -633h-168l240 1235h-148l27 133h147z" />
    <glyph glyph-name="afii10109" unicode="&#x45c;" horiz-adv-x="1083" 
d="M301 1071h168l-88 -457h65q54 0 82.5 9t55.5 33q40 37 129 179q105 170 162 205q51 31 178 31h49l-27 -141h-39q-46 0 -63.5 -4.5t-33.5 -19.5q-22 -21 -89 -132q-65 -110 -106.5 -151t-121.5 -74q61 -20 102 -69t83 -148l133 -332h-184l-129 332q-56 151 -183 151h-90
l-94 -483h-168zM776 1591h221l-262 -350h-117z" />
    <glyph glyph-name="uni045D" unicode="&#x45d;" 
d="M308 1071h170l-139 -715l587 594l25 121h170l-209 -1071h-170l141 727l-587 -594l-27 -133h-170zM550 1593h207l65 -348h-104z" />
    <glyph glyph-name="afii10110" unicode="&#x45e;" horiz-adv-x="955" 
d="M363 -180q-58 -110 -126 -157.5t-168 -47.5q-106 0 -193 72l80 114q53 -53 119 -53q101 0 163 127l72 147l-176 1049h174l129 -821l416 821h180zM519 1591q2 -104 28.5 -143t96.5 -39q71 0 105.5 42.5t43.5 139.5h125q-14 -315 -276 -315q-83 0 -144 34.5t-85 94.5
q-23 56 -23 186h129z" />
    <glyph glyph-name="afii10193" unicode="&#x45f;" horiz-adv-x="1173" 
d="M301 1071h168l-180 -930h442l182 930h168l-209 -1071h-301l-80 -307h-137l39 307h-301z" />
    <glyph glyph-name="afii10050" unicode="&#x490;" horiz-adv-x="1050" 
d="M377 1464h651l74 238h127l-74 -377h-637l-258 -1325h-168z" />
    <glyph glyph-name="afii10098" unicode="&#x491;" horiz-adv-x="884" 
d="M308 1071h479l62 213h131l-68 -354h-463l-180 -930h-170z" />
    <glyph glyph-name="uni0492" unicode="&#x492;" horiz-adv-x="1043" 
d="M88 0l131 670h-182l23 135h184l129 659h805l-27 -139h-637l-102 -520h364l-22 -135h-367l-131 -670h-168z" />
    <glyph glyph-name="uni0493" unicode="&#x493;" horiz-adv-x="878" 
d="M96 0l108 553h-147l25 137h147l76 381h633l-27 -141h-463l-49 -240h315l-24 -137h-316l-108 -553h-170z" />
    <glyph glyph-name="uni0496" unicode="&#x496;" horiz-adv-x="1747" 
d="M1685 143l-94 -489h-139l39 346h-66l-139 401q-76 199 -133 243q-50 40 -170 36l-133 -680h-164l133 680q-120 3 -195 -55q-67 -52 -200 -224l-295 -401h-203l350 473q107 134 175.5 188.5t166.5 81.5q-53 27 -79.5 52t-43.5 64q-25 60 -53 249q-18 127 -51 171t-111 44
q-17 0 -52 -3q-10 -1 -15 -1l28 145q37 4 68 4q123 0 186 -63q33 -33 52 -85.5t41 -168.5q26 -152 44 -213.5t43 -90.5q22 -25 57 -34.5t109 -9.5l129 661h164l-129 -661q98 -2 144 9.5t84 49.5q56 55 174 291q92 182 172.5 248.5t210.5 66.5q15 0 50 -2q13 -1 23 -2
l-26 -145q-7 0 -24 2q-25 2 -38 2q-50 0 -80 -13t-58 -47q-43 -54 -126 -235q-75 -155 -116 -201t-150 -98q62 -21 108.5 -81t92.5 -175l114 -330h125z" />
    <glyph glyph-name="uni0497" unicode="&#x497;" horiz-adv-x="1467" 
d="M1395 142l-86 -449h-139l39 307h-62l-114 332q-34 99 -70 131.5t-110 32.5h-41l-97 -496h-168l97 496h-82q-71 0 -113 -31.5t-104 -132.5l-211 -332h-199l219 332q80 115 131.5 161t128.5 70q-50 34 -67 75.5t-45 200.5q-11 59 -29 75t-74 16h-47l29 141h37
q78 0 113.5 -9t56.5 -34q33 -39 65 -189q34 -157 58 -189t110 -32h45l88 453h170l-88 -453h82q85 0 129 45q39 40 102 170q83 167 134 205q45 33 149 33h66l-27 -141h-47q-36 0 -49.5 -4.5t-26.5 -20.5q-17 -22 -70 -137q-42 -98 -88.5 -148.5t-124.5 -82.5q81 -44 142 -205
l69 -190h119z" />
    <glyph glyph-name="uni049A" unicode="&#x49a;" horiz-adv-x="1262" 
d="M1202 141l-96 -489h-140l41 348h-71l-154 401q-65 167 -121.5 223t-160.5 56h-107l-133 -680h-168l285 1464h168l-129 -661h43q89 0 139 16t88 58q38 39 67 83t132 217q101 170 187 230.5t224 60.5q23 0 65 -3q11 -1 17 -1l-29 -145q-4 0 -18 1q-28 3 -45 3
q-59 0 -92 -12t-64 -44q-47 -50 -153 -239q-84 -142 -134.5 -190.5t-160.5 -94.5q96 -27 150 -83.5t110 -186.5l127 -332h133z" />
    <glyph glyph-name="uni049B" unicode="&#x49b;" horiz-adv-x="1083" 
d="M1036 142l-86 -449h-141l41 307h-94l-129 332q-56 151 -183 151h-90l-94 -483h-168l209 1071h168l-88 -457h65q54 0 82.5 9t55.5 33q40 37 129 179q105 170 162 205q51 31 178 31h49l-27 -141h-39q-46 0 -63.5 -4.5t-33.5 -19.5q-22 -21 -89 -132q-65 -110 -106.5 -151
t-121.5 -74q60 -20 100.5 -68t84.5 -149l76 -190h153z" />
    <glyph glyph-name="uni049C" unicode="&#x49c;" horiz-adv-x="1344" 
d="M92 0l285 1464h168l-129 -661h149l78 383h135l-80 -377q53 20 86.5 66t181.5 303q100 168 186.5 229t225.5 61q23 0 65 -3q10 -1 17 -1l-29 -145q-24 4 -63 4q-58 0 -91 -12t-65 -45q-47 -50 -153 -238q-83 -141 -133.5 -189.5t-161.5 -94.5q95 -28 150 -85t110 -186
l182 -473h-188l-154 401q-71 171 -104.5 220.5t-83.5 58.5l-76 -383h-135l76 383h-148l-133 -680h-168z" />
    <glyph glyph-name="uni049D" unicode="&#x49d;" horiz-adv-x="1150" 
d="M92 0l209 1071h168l-88 -457h125l59 283h119l-55 -271q18 5 35 27.5t81 125.5q19 31 35 56q105 170 163 205q51 31 177 31h49l-26 -141h-39q-47 0 -64 -4.5t-33 -19.5q-22 -21 -90 -132q-65 -110 -106 -151t-121 -75q59 -19 100 -67t84 -149l133 -332h-184l-129 332
q-31 74 -50.5 103t-45.5 40l-60 -301h-118l59 309h-125l-94 -483h-168z" />
    <glyph glyph-name="uni04A2" unicode="&#x4a2;" horiz-adv-x="1399" 
d="M936 0l127 658h-676l-127 -658h-168l285 1464h168l-129 -667h675l129 667h168l-258 -1322h136l-97 -492h-139l41 350h-135z" />
    <glyph glyph-name="uni04A3" unicode="&#x4a3;" horiz-adv-x="1198" 
d="M971 -307h-140l41 307h-143l92 475h-469l-92 -475h-168l209 1071h168l-90 -457h469l90 457h168l-183 -929h136z" />
    <glyph glyph-name="uni04AE" unicode="&#x4ae;" horiz-adv-x="1168" 
d="M529 616l-319 848h178l250 -702l500 702h182l-627 -858l-116 -606h-166z" />
    <glyph glyph-name="uni04AF" unicode="&#x4af;" horiz-adv-x="955" 
d="M376 -383h-160l92 416l-174 1038h174l129 -821l416 821h180l-571 -1067z" />
    <glyph glyph-name="uni04B0" unicode="&#x4b0;" horiz-adv-x="1168" 
d="M411 0l55 291h-258l20 131h263l39 194l-320 848h178l250 -702l500 702h182l-627 -858l-36 -184h278l-20 -131h-283l-55 -291h-166z" />
    <glyph glyph-name="uni04B1" unicode="&#x4b1;" horiz-adv-x="949" 
d="M211 -383l53 242h-211l16 137h224l8 37l-172 1038h174l129 -821l416 821h180l-574 -1075h220l-17 -137h-231l-56 -242h-159z" />
    <glyph glyph-name="uni04B2" unicode="&#x4b2;" horiz-adv-x="1228" 
d="M1157 141l-94 -489h-139l41 348h-78l-258 626l-492 -626h-186l606 762l-291 702h179l241 -586l455 586h188l-573 -723l250 -600h151z" />
    <glyph glyph-name="uni04B3" unicode="&#x4b3;" horiz-adv-x="1025" 
d="M686 0l-192 440l-355 -440h-190l471 563l-240 508h185l172 -395l313 395h195l-437 -518l195 -412h147l-67 -352h-123l20 211h-94z" />
    <glyph glyph-name="uni04B6" unicode="&#x4b6;" horiz-adv-x="1308" 
d="M1076 -348h-139l40 348h-133l111 565q-129 -154 -365 -154q-182 0 -276 98q-82 86 -82 232q0 96 27 232l96 491h168l-98 -510q-25 -126 -25 -201q0 -203 238 -203q155 0 257 90q89 78 113 206l121 618h168l-258 -1323h133z" />
    <glyph glyph-name="uni04B7" unicode="&#x4b7;" horiz-adv-x="1121" 
d="M982 142l-86 -449h-139l39 307h-144l78 400q-99 -109 -264 -109q-149 0 -228 79q-69 69 -69 185q0 62 20 176l68 340h168l-74 -379q-14 -69 -14 -114q0 -148 184 -148q102 0 174 58q62 51 76 127l90 456h168l-182 -929h135z" />
    <glyph glyph-name="uni04B8" unicode="&#x4b8;" horiz-adv-x="1308" 
d="M619 166h-135l51 248q-303 37 -303 328q0 98 27 231l96 491h168l-98 -509q-25 -126 -25 -201q0 -163 164 -197l65 334h135l-67 -336q131 17 217 104q74 77 94 187l121 618h168l-285 -1464h-168l111 565q-97 -126 -285 -149z" />
    <glyph glyph-name="uni04B9" unicode="&#x4b9;" horiz-adv-x="1158" 
d="M898 1071h168l-209 -1071h-168l78 402q-65 -71 -186 -99l-39 -190h-121l37 178q-147 3 -223 82q-66 68 -66 182q0 62 20 176l68 340h168l-74 -379q-14 -68 -14 -114q0 -133 149 -146l58 285h119l-56 -276q81 17 135.5 64t67.5 112z" />
    <glyph glyph-name="uni04BA" unicode="&#x4ba;" horiz-adv-x="1308" 
d="M685 1464l-111 -565q129 154 365 154q182 0 276 -98q82 -86 82 -232q0 -98 -27 -231l-96 -492h-168l98 510q25 126 25 201q0 203 -238 203q-156 0 -257 -90q-89 -78 -113 -206l-121 -618h-168l285 1464h168z" />
    <glyph glyph-name="uni04BB" unicode="&#x4bb;" horiz-adv-x="1199" 
d="M391 1542h168l-119 -625q125 172 321 172q145 0 222 -90q67 -78 67 -211q0 -47 -14 -124l-129 -664h-168l131 676q10 54 10 100q0 174 -174 174q-133 0 -220 -95q-76 -82 -103 -222l-123 -633h-168z" />
    <glyph glyph-name="uni04C0" unicode="&#x4c0;" horiz-adv-x="591" 
d="M394 1464h168l-285 -1464h-168z" />
    <glyph glyph-name="uni04CF" unicode="&#x4cf;" horiz-adv-x="591" 
d="M394 1464h168l-285 -1464h-168z" />
    <glyph glyph-name="uni04D8" unicode="&#x4d8;" horiz-adv-x="1591" 
d="M764 -18q-249 0 -408 156q-82 81 -129 201t-47 251q0 88 18 217h1117q2 16 2 47q0 252 -119 379q-105 110 -287 110q-171 0 -282 -77q-92 -63 -164 -193l-152 74q46 74 109 137q198 198 500 198q279 0 436 -195q137 -170 137 -437q0 -245 -96 -446q-94 -196 -259 -308
q-169 -114 -376 -114zM770 121q218 0 361 163q125 142 169 384h-940q-2 -29 -2 -68q0 -243 123 -369q107 -110 289 -110z" />
    <glyph glyph-name="afii10846" unicode="&#x4d9;" horiz-adv-x="1080" 
d="M429 -18q-161 0 -252 91q-78 79 -78 204q0 183 206 267q182 74 535 77q2 20 2 49q0 280 -237 280q-167 0 -324 -125l-73 111q179 153 407 153q202 0 307 -129q92 -113 92 -303q0 -184 -79 -341q-78 -153 -210 -242q-136 -92 -296 -92zM443 121q291 0 381 368
q-315 0 -442 -55q-111 -49 -111 -153q0 -76 45 -118t127 -42z" />
    <glyph glyph-name="uni04E2" unicode="&#x4e2;" horiz-adv-x="1397" 
d="M377 1464h155l-207 -1065l877 926l27 139h157l-284 -1464h-156l211 1081l-879 -925l-30 -156h-156zM701 1784h487l-25 -125h-487z" />
    <glyph glyph-name="uni04E3" unicode="&#x4e3;" 
d="M308 1071h170l-139 -715l587 594l25 121h170l-209 -1071h-170l141 727l-587 -594l-27 -133h-170zM546 1448h487l-25 -125h-487z" />
    <glyph glyph-name="uni04E8" unicode="&#x4e8;" horiz-adv-x="1591" 
d="M926 1482q274 0 432 -196q137 -171 137 -436q0 -245 -96 -446q-94 -196 -259 -308q-169 -114 -376 -114q-285 0 -445 196q-139 170 -139 439q0 246 98 446q95 195 263 306q172 113 385 113zM1315 807q2 16 2 47q0 252 -119 379q-105 110 -287 110q-218 0 -364 -161
q-127 -141 -170 -375h938zM360 668q-2 -29 -2 -68q0 -243 123 -369q107 -110 289 -110q218 0 361 163q125 142 169 384h-940z" />
    <glyph glyph-name="uni04E9" unicode="&#x4e9;" horiz-adv-x="1152" 
d="M646 1089q200 0 309 -136q94 -119 94 -314q0 -162 -59 -307q-50 -126 -133 -211q-143 -139 -342 -139q-204 0 -315 140q-97 121 -97 319q0 297 175 485q152 163 368 163zM873 602q2 18 2 51q0 299 -240 299q-265 0 -344 -350h582zM273 430q0 -311 246 -311q133 0 222 101
q79 89 112 243h-580v-33z" />
    <glyph glyph-name="uni04EE" unicode="&#x4ee;" horiz-adv-x="1130" 
d="M211 1464h170l229 -973l504 973h168l-596 -1116q-83 -155 -110.5 -197.5t-67.5 -79.5q-97 -94 -246 -94q-73 0 -137 23l61 133q49 -17 91 -17q77 0 122.5 34.5t100.5 134.5l10 14zM562 1784h487l-25 -125h-487z" />
    <glyph glyph-name="uni04EF" unicode="&#x4ef;" horiz-adv-x="955" 
d="M363 -180q-58 -110 -126 -157.5t-168 -47.5q-106 0 -193 72l80 114q53 -53 119 -53q101 0 163 127l72 147l-176 1049h174l129 -821l416 821h180zM415 1448h487l-25 -125h-487z" />
    <glyph glyph-name="uni1E1E" unicode="&#x1e1e;" horiz-adv-x="1180" 
d="M377 1464h858l-27 -139h-692l-109 -555h547l-24 -135h-547l-125 -635h-166zM836 1860q46 0 75 -27.5t29 -71.5q0 -50 -35.5 -86.5t-85.5 -36.5q-44 0 -73 28.5t-29 72.5q0 50 34.5 85.5t84.5 35.5z" />
    <glyph glyph-name="Wgrave" unicode="&#x1e80;" horiz-adv-x="1909" 
d="M254 1464h168l63 -1167l586 1167h133l125 -1171l531 1171h163l-671 -1464h-137l-127 1179l-598 -1179h-134zM967 1956h207l65 -332h-104z" />
    <glyph glyph-name="wgrave" unicode="&#x1e81;" horiz-adv-x="1600" 
d="M169 1071h172l64 -876l399 876h180l84 -876l404 876h176l-527 -1071h-186l-80 864l-397 -864h-185zM742 1593h207l65 -348h-104z" />
    <glyph glyph-name="Wacute" unicode="&#x1e82;" horiz-adv-x="1909" 
d="M254 1464h168l63 -1167l586 1167h133l125 -1171l531 1171h163l-671 -1464h-137l-127 1179l-598 -1179h-134zM1274 1976h221l-264 -331h-117z" />
    <glyph glyph-name="wacute" unicode="&#x1e83;" horiz-adv-x="1600" 
d="M169 1071h172l64 -876l399 876h180l84 -876l404 876h176l-527 -1071h-186l-80 864l-397 -864h-185zM1036 1591h221l-262 -350h-117z" />
    <glyph glyph-name="Wdieresis" unicode="&#x1e84;" horiz-adv-x="1909" 
d="M254 1464h168l63 -1167l586 1167h133l125 -1171l531 1171h163l-671 -1464h-137l-127 1179l-598 -1179h-134zM1010 1858q46 0 75 -27.5t29 -71.5q0 -50 -36.5 -86.5t-86.5 -36.5q-43 0 -72.5 29t-29.5 72q0 50 35.5 85.5t85.5 35.5zM1395 1858q45 0 74.5 -28t29.5 -71
q0 -50 -36.5 -86.5t-86.5 -36.5q-44 0 -73 28.5t-29 72.5q0 50 35.5 85.5t85.5 35.5z" />
    <glyph glyph-name="wdieresis" unicode="&#x1e85;" horiz-adv-x="1600" 
d="M790 1520q46 0 75 -27.5t29 -71.5q0 -50 -36.5 -86.5t-86.5 -36.5q-43 0 -72.5 29t-29.5 72q0 50 35.5 85.5t85.5 35.5zM1175 1520q45 0 74.5 -28t29.5 -71q0 -50 -36.5 -86.5t-86.5 -36.5q-44 0 -73 28.5t-29 72.5q0 50 35.5 85.5t85.5 35.5zM169 1071h172l64 -876
l399 876h180l84 -876l404 876h176l-527 -1071h-186l-80 864l-397 -864h-185z" />
    <glyph glyph-name="uni1EA0" unicode="&#x1ea0;" horiz-adv-x="1272" 
d="M105 0h-168l791 1464h163l230 -1464h-164l-55 371h-603zM881 506l-113 761l-399 -761h512zM490 -131q46 0 75 -27.5t29 -70.5q0 -51 -35.5 -87t-85.5 -36q-44 0 -73 28.5t-29 71.5q0 51 34.5 86t84.5 35z" />
    <glyph glyph-name="uni1EA1" unicode="&#x1ea1;" horiz-adv-x="1089" 
d="M905 -8q-21 -2 -45 -2q-172 0 -197 153q-135 -161 -307 -161q-144 0 -229 90q-74 77 -74 195q0 141 92 225q80 73 240 110q110 26 362 37l13 67l1 7q7 43 7 67q0 168 -180 168q-88 0 -160.5 -28t-155.5 -95l-80 109q182 155 414 155q168 0 254 -83q76 -72 76 -195
q0 -53 -11 -105l-92 -477q-4 -23 -4 -32q0 -39 23.5 -56t79.5 -18zM723 520q-288 -8 -401 -73q-99 -57 -99 -174q0 -156 180 -156q120 0 201 73q69 63 88 164zM399 -131q46 0 75.5 -27.5t29.5 -70.5q0 -51 -36 -87t-85 -36q-45 0 -74 28.5t-29 71.5q0 51 35 86t84 35z" />
    <glyph glyph-name="uni1EA2" unicode="&#x1ea2;" horiz-adv-x="1272" 
d="M791 1585l25 131q79 11 106 31t27 67q0 39 -51 39q-43 0 -76 -11t-107 -50l-28 67q139 82 227 82q63 0 102 -34.5t39 -90.5q0 -69 -49 -114q-34 -29 -111 -41l-14 -76h-90zM105 0h-168l791 1464h163l230 -1464h-164l-55 371h-603zM881 506l-113 761l-399 -761h512z" />
    <glyph glyph-name="uni1EA3" unicode="&#x1ea3;" horiz-adv-x="1089" 
d="M608 1196l25 131q79 11 106 31t27 67q0 39 -51 39q-43 0 -76 -11t-107 -50l-28 67q139 82 227 82q63 0 102 -34.5t39 -90.5q0 -68 -49 -114q-34 -29 -111 -41l-14 -76h-90zM905 -8q-21 -2 -45 -2q-172 0 -197 153q-135 -161 -307 -161q-144 0 -229 90q-74 77 -74 195
q0 141 92 225q80 73 240 110q110 26 362 37l13 67l1 7q7 43 7 67q0 168 -180 168q-88 0 -160.5 -28t-155.5 -95l-80 109q182 155 414 155q168 0 254 -83q76 -72 76 -195q0 -53 -11 -105l-92 -477q-4 -23 -4 -32q0 -39 23.5 -56t79.5 -18zM723 520q-288 -8 -401 -73
q-99 -57 -99 -174q0 -156 180 -156q120 0 201 73q69 63 88 164z" />
    <glyph glyph-name="uni1EA4" unicode="&#x1ea4;" horiz-adv-x="1272" 
d="M560 1554l266 332h143l64 -158l147 265h223l-290 -332h-54l43 -107h-106l-125 187l-199 -187h-112zM105 0h-168l791 1464h163l230 -1464h-164l-55 371h-603zM881 506l-113 761l-399 -761h512z" />
    <glyph glyph-name="uni1EA5" unicode="&#x1ea5;" horiz-adv-x="1089" 
d="M999 1729h223l-290 -332h-56l62 -154h-117l-125 187l-199 -187h-112l266 332h154l45 -115zM905 -8q-21 -2 -45 -2q-172 0 -197 153q-135 -161 -307 -161q-144 0 -229 90q-74 77 -74 195q0 141 92 225q80 73 240 110q110 26 362 37l13 67l1 7q7 43 7 67q0 168 -180 168
q-88 0 -160.5 -28t-155.5 -95l-80 109q182 155 414 155q168 0 254 -83q76 -72 76 -195q0 -53 -11 -105l-92 -477q-4 -23 -4 -32q0 -39 23.5 -56t79.5 -18zM723 520q-288 -8 -401 -73q-99 -57 -99 -174q0 -156 180 -156q120 0 201 73q69 63 88 164z" />
    <glyph glyph-name="uni1EA6" unicode="&#x1ea6;" horiz-adv-x="1264" 
d="M955 2013h223l53 -332h-116zM783 1862h143l133 -332h-106l-125 186l-199 -186h-112zM105 0h-168l791 1464h163l230 -1464h-164l-55 371h-603zM881 506l-113 761l-399 -761h512z" />
    <glyph glyph-name="uni1EA7" unicode="&#x1ea7;" horiz-adv-x="1079" 
d="M803 1761h223l53 -332h-117zM645 1573h153l136 -332h-117l-127 186l-197 -186h-112zM905 -8q-21 -2 -45 -2q-172 0 -197 153q-135 -161 -307 -161q-144 0 -229 90q-74 77 -74 195q0 141 92 225q80 73 240 110q110 26 362 37l13 67l1 7q7 43 7 67q0 168 -180 168
q-88 0 -160.5 -28t-155.5 -95l-80 109q182 155 414 155q168 0 254 -83q76 -72 76 -195q0 -53 -11 -105l-92 -477q-4 -23 -4 -32q0 -39 23.5 -56t79.5 -18zM723 520q-288 -8 -401 -73q-99 -57 -99 -174q0 -156 180 -156q120 0 201 73q69 63 88 164z" />
    <glyph glyph-name="uni1EA8" unicode="&#x1ea8;" horiz-adv-x="1271" 
d="M1108 1665l25 131q75 11 100 25.5t33 52.5q2 10 2 19q0 40 -55 40q-41 0 -74 -11t-106 -50l-29 67q135 82 227 82q64 0 103 -34t39 -90q0 -14 -3 -29q-12 -67 -67 -101q-28 -16 -90 -26l-14 -76h-91zM811 1855h144l133 -331h-107l-124 186l-199 -186h-113zM105 0h-168
l791 1464h163l230 -1464h-164l-55 371h-603zM881 506l-113 761l-399 -761h512z" />
    <glyph glyph-name="uni1EA9" unicode="&#x1ea9;" horiz-adv-x="1084" 
d="M891 1456l24 131q80 11 107 31t27 67q0 39 -49 39q-44 0 -79.5 -12t-105.5 -49l-29 67q80 47 129 64.5t99 17.5q62 0 101.5 -34.5t39.5 -88.5q0 -72 -49 -114q-33 -31 -111 -43l-14 -76h-90zM633 1575h153l135 -332h-116l-127 187l-197 -187h-113zM905 -8q-21 -2 -45 -2
q-172 0 -197 153q-135 -161 -307 -161q-144 0 -229 90q-74 77 -74 195q0 141 92 225q80 73 240 110q110 26 362 37l13 67l1 7q7 43 7 67q0 168 -180 168q-88 0 -160.5 -28t-155.5 -95l-80 109q182 155 414 155q168 0 254 -83q76 -72 76 -195q0 -53 -11 -105l-92 -477
q-4 -23 -4 -32q0 -39 23.5 -56t79.5 -18zM723 520q-288 -8 -401 -73q-99 -57 -99 -174q0 -156 180 -156q120 0 201 73q69 63 88 164z" />
    <glyph glyph-name="uni1EAA" unicode="&#x1eaa;" horiz-adv-x="1266" 
d="M543 1827q39 96 100 148.5t134 52.5q55 0 143 -49q60 -35 90 -35q63 0 96 88l105 -13q-37 -94 -98 -147t-134 -53q-51 0 -141 49q-64 35 -92 35q-60 0 -96 -88zM791 1794h143l140 -303h-107l-129 170l-194 -170h-113zM105 0h-168l791 1464h163l230 -1464h-164l-55 371
h-603zM881 506l-113 761l-399 -761h512z" />
    <glyph glyph-name="uni1EAB" unicode="&#x1eab;" horiz-adv-x="1079" 
d="M395 1581q43 113 110 171q59 50 128 50q48 0 141 -55q60 -37 90 -37q62 0 98 96l105 -12q-41 -111 -109 -170q-59 -51 -127 -51q-56 0 -141 53q-62 39 -90 39q-64 0 -98 -96zM637 1520h153l133 -332h-116l-125 186l-199 -186h-113zM905 -8q-21 -2 -45 -2q-172 0 -197 153
q-135 -161 -307 -161q-144 0 -229 90q-74 77 -74 195q0 141 92 225q80 73 240 110q110 26 362 37l13 67l1 7q7 43 7 67q0 168 -180 168q-88 0 -160.5 -28t-155.5 -95l-80 109q182 155 414 155q168 0 254 -83q76 -72 76 -195q0 -53 -11 -105l-92 -477q-4 -23 -4 -32
q0 -39 23.5 -56t79.5 -18zM723 520q-288 -8 -401 -73q-99 -57 -99 -174q0 -156 180 -156q120 0 201 73q69 63 88 164z" />
    <glyph glyph-name="uni1EAC" unicode="&#x1eac;" horiz-adv-x="1272" 
d="M844 1956h146l135 -332h-111l-119 193l-196 -193h-115zM105 0h-168l791 1464h163l230 -1464h-164l-55 371h-603zM881 506l-113 761l-399 -761h512zM490 -131q46 0 75 -27.5t29 -70.5q0 -51 -35.5 -87t-85.5 -36q-44 0 -73 28.5t-29 71.5q0 51 34.5 86t84.5 35z" />
    <glyph glyph-name="uni1EAD" unicode="&#x1ead;" horiz-adv-x="1087" 
d="M674 1575h145l135 -332h-110l-119 193l-197 -193h-115zM905 -8q-21 -2 -45 -2q-172 0 -197 153q-135 -161 -307 -161q-144 0 -229 90q-74 77 -74 195q0 141 92 225q80 73 240 110q110 26 362 37l13 67l1 7q7 43 7 67q0 168 -180 168q-88 0 -160.5 -28t-155.5 -95l-80 109
q182 155 414 155q168 0 254 -83q76 -72 76 -195q0 -53 -11 -105l-92 -477q-4 -23 -4 -32q0 -39 23.5 -56t79.5 -18zM723 520q-288 -8 -401 -73q-99 -57 -99 -174q0 -156 180 -156q120 0 201 73q69 63 88 164zM399 -131q46 0 75.5 -27.5t29.5 -70.5q0 -51 -36 -87t-85 -36
q-45 0 -74 28.5t-29 71.5q0 51 35 86t84 35z" />
    <glyph glyph-name="uni1EAE" unicode="&#x1eae;" horiz-adv-x="1269" 
d="M934 2017h224l-277 -272h-117zM695 1806q3 -76 34.5 -107.5t104.5 -31.5q141 0 160 139h119q-19 -262 -279 -262q-133 0 -199 73q-61 67 -61 189h121zM105 0h-168l791 1464h163l230 -1464h-164l-55 371h-603zM881 506l-113 761l-399 -761h512z" />
    <glyph glyph-name="uni1EAF" unicode="&#x1eaf;" horiz-adv-x="1082" 
d="M803 1845h223l-291 -332h-117zM549 1544q1 -83 29 -116t96 -33q124 0 163 149h125q-38 -274 -291 -274q-83 0 -144 34.5t-85 94.5q-22 56 -22 145h129zM905 -8q-21 -2 -45 -2q-172 0 -197 153q-135 -161 -307 -161q-144 0 -229 90q-74 77 -74 195q0 141 92 225
q80 73 240 110q110 26 362 37l13 67l1 7q7 43 7 67q0 168 -180 168q-88 0 -160.5 -28t-155.5 -95l-80 109q182 155 414 155q168 0 254 -83q76 -72 76 -195q0 -53 -11 -105l-92 -477q-4 -23 -4 -32q0 -39 23.5 -56t79.5 -18zM723 520q-288 -8 -401 -73q-99 -57 -99 -174
q0 -156 180 -156q120 0 201 73q69 63 88 164z" />
    <glyph glyph-name="uni1EB0" unicode="&#x1eb0;" horiz-adv-x="1272" 
d="M646 1999h215l65 -279h-108zM707 1804q3 -76 34.5 -107.5t104.5 -31.5q141 0 160 139h119q-18 -262 -279 -262q-132 0 -199 73q-61 67 -61 189h121zM105 0h-168l791 1464h163l230 -1464h-164l-55 371h-603zM881 506l-113 761l-399 -761h512z" />
    <glyph glyph-name="uni1EB1" unicode="&#x1eb1;" horiz-adv-x="1084" 
d="M671 1515l-159 332h223l53 -332h-117zM704 1270q-83 0 -144 34.5t-85 94.5q-23 56 -23 145h129q2 -83 29.5 -116t95.5 -33q124 0 164 149h125q-38 -274 -291 -274zM905 -8q-21 -2 -45 -2q-172 0 -197 153q-135 -161 -307 -161q-144 0 -229 90q-74 77 -74 195
q0 141 92 225q80 73 240 110q110 26 362 37l13 67l1 7q7 43 7 67q0 168 -180 168q-88 0 -160.5 -28t-155.5 -95l-80 109q182 155 414 155q168 0 254 -83q76 -72 76 -195q0 -53 -11 -105l-92 -477q-4 -23 -4 -32q0 -39 23.5 -56t79.5 -18zM723 520q-288 -8 -401 -73
q-99 -57 -99 -174q0 -156 180 -156q120 0 201 73q69 63 88 164z" />
    <glyph glyph-name="uni1EB2" unicode="&#x1eb2;" horiz-adv-x="1272" 
d="M783 1712l18 92q81 10 107.5 27t26.5 59q0 33 -51 33q-44 0 -77.5 -10t-105.5 -43l-29 59q141 72 228 72q63 0 102 -30.5t39 -80.5q0 -58 -49 -100q-37 -26 -111 -35l-8 -43h-90zM846 1540q-132 0 -199 63q-61 57 -61 160h121q3 -64 35 -90.5t104 -26.5q142 0 160 117
h119q-19 -223 -279 -223zM105 0h-168l791 1464h163l230 -1464h-164l-55 371h-603zM881 506l-113 761l-399 -761h512z" />
    <glyph glyph-name="uni1EB3" unicode="&#x1eb3;" horiz-adv-x="1084" 
d="M686 1536l26 131q80 11 107 31t27 67q0 39 -51 39q-43 0 -78 -12t-105 -49l-29 67q140 82 228 82q62 0 101.5 -34t39.5 -89q0 -71 -49 -116q-34 -29 -111 -41l-14 -76h-92zM708 1270q-83 0 -144 34.5t-85 94.5q-23 56 -23 145h129q2 -83 30 -116t95 -33q125 0 164 149
h125q-38 -274 -291 -274zM905 -8q-21 -2 -45 -2q-172 0 -197 153q-135 -161 -307 -161q-144 0 -229 90q-74 77 -74 195q0 141 92 225q80 73 240 110q110 26 362 37l13 67l1 7q7 43 7 67q0 168 -180 168q-88 0 -160.5 -28t-155.5 -95l-80 109q182 155 414 155q168 0 254 -83
q76 -72 76 -195q0 -53 -11 -105l-92 -477q-4 -23 -4 -32q0 -39 23.5 -56t79.5 -18zM723 520q-288 -8 -401 -73q-99 -57 -99 -174q0 -156 180 -156q120 0 201 73q69 63 88 164z" />
    <glyph glyph-name="uni1EB4" unicode="&#x1eb4;" horiz-adv-x="1267" 
d="M564 1825q47 211 190 211q58 0 154 -57q68 -37 94 -37q62 0 86 98l104 -12q-47 -211 -192 -211q-54 0 -152 57q-65 37 -92 37q-61 0 -86 -99zM682 1774q4 -76 35.5 -107.5t104.5 -31.5q141 0 159 139h119q-18 -258 -278 -258q-133 0 -200 73q-60 65 -60 185h120zM105 0
h-168l791 1464h163l230 -1464h-164l-55 371h-603zM881 506l-113 761l-399 -761h512z" />
    <glyph glyph-name="uni1EB5" unicode="&#x1eb5;" horiz-adv-x="1080" 
d="M389 1597q42 114 110 172q58 50 125 50q51 0 144 -56q60 -37 90 -37q61 0 98 97l105 -13q-41 -111 -109 -170q-60 -51 -127 -51q-56 0 -141 54q-62 39 -90 39q-65 0 -99 -97zM667 1242q-83 0 -144 34.5t-85 94.5q-23 56 -23 145h130q1 -83 29 -116t95 -33q125 0 164 149
h125q-38 -274 -291 -274zM905 -8q-21 -2 -45 -2q-172 0 -197 153q-135 -161 -307 -161q-144 0 -229 90q-74 77 -74 195q0 141 92 225q80 73 240 110q110 26 362 37l13 67l1 7q7 43 7 67q0 168 -180 168q-88 0 -160.5 -28t-155.5 -95l-80 109q182 155 414 155q168 0 254 -83
q76 -72 76 -195q0 -53 -11 -105l-92 -477q-4 -23 -4 -32q0 -39 23.5 -56t79.5 -18zM723 520q-288 -8 -401 -73q-99 -57 -99 -174q0 -156 180 -156q120 0 201 73q69 63 88 164z" />
    <glyph glyph-name="uni1EB6" unicode="&#x1eb6;" horiz-adv-x="1270" 
d="M715 1907q2 -95 33.5 -131.5t112.5 -36.5q79 0 119 39.5t51 128.5h125q-19 -293 -295 -293q-91 0 -157 34t-93 95q-25 55 -25 164h129zM105 0h-168l791 1464h163l230 -1464h-164l-55 371h-603zM881 506l-113 761l-399 -761h512zM490 -131q46 0 75 -27.5t29 -70.5
q0 -51 -35.5 -87t-85.5 -36q-44 0 -73 28.5t-29 71.5q0 51 34.5 86t84.5 35z" />
    <glyph glyph-name="uni1EB7" unicode="&#x1eb7;" horiz-adv-x="1087" 
d="M563 1585q1 -104 28 -143t97 -39q71 0 105.5 42.5t43.5 139.5h125q-14 -315 -276 -315q-83 0 -144 34.5t-86 94.5q-22 56 -22 186h129zM905 -8q-21 -2 -45 -2q-172 0 -197 153q-135 -161 -307 -161q-144 0 -229 90q-74 77 -74 195q0 141 92 225q80 73 240 110
q110 26 362 37l13 67l1 7q7 43 7 67q0 168 -180 168q-88 0 -160.5 -28t-155.5 -95l-80 109q182 155 414 155q168 0 254 -83q76 -72 76 -195q0 -53 -11 -105l-92 -477q-4 -23 -4 -32q0 -39 23.5 -56t79.5 -18zM723 520q-288 -8 -401 -73q-99 -57 -99 -174q0 -156 180 -156
q120 0 201 73q69 63 88 164zM399 -131q46 0 75.5 -27.5t29.5 -70.5q0 -51 -36 -87t-85 -36q-45 0 -74 28.5t-29 71.5q0 51 35 86t84 35z" />
    <glyph glyph-name="uni1EB8" unicode="&#x1eb8;" 
d="M377 1464h876l-26 -139h-711l-102 -520h581l-24 -135h-582l-104 -531h747l-27 -139h-913zM469 -131q46 0 75 -27.5t29 -70.5q0 -51 -35.5 -87t-85.5 -36q-44 0 -73 28.5t-29 71.5q0 51 34.5 86t84.5 35z" />
    <glyph glyph-name="uni1EB9" unicode="&#x1eb9;" horiz-adv-x="1072" 
d="M892 178q-83 -108 -172 -152t-226 -44q-199 0 -303 129q-92 113 -92 303q0 184 79 341q77 153 209 242q135 92 296 92q157 0 246 -91q77 -79 77 -204q0 -184 -203 -266q-177 -72 -536 -77v-48q0 -284 235 -284q170 0 263 135zM285 582q316 0 442 55q111 48 111 153
q0 78 -45 120t-129 42q-288 0 -379 -370zM394 -131q46 0 75 -27.5t29 -70.5q0 -51 -35.5 -87t-85.5 -36q-44 0 -73 28.5t-29 71.5q0 51 34.5 86t84.5 35z" />
    <glyph glyph-name="uni1EBA" unicode="&#x1eba;" 
d="M794 1585l25 131q79 11 106.5 31t27.5 67q0 39 -51 39q-43 0 -76 -11t-107 -50l-29 67q139 82 228 82q62 0 101.5 -34.5t39.5 -90.5q0 -68 -49 -114q-35 -29 -111 -41l-14 -76h-91zM377 1464h876l-26 -139h-711l-102 -520h581l-24 -135h-582l-104 -531h747l-27 -139h-913
z" />
    <glyph glyph-name="uni1EBB" unicode="&#x1ebb;" horiz-adv-x="1072" 
d="M621 1196l25 131q79 11 106 31t27 67q0 39 -51 39q-43 0 -76 -11t-107 -50l-28 67q139 82 227 82q63 0 102 -34.5t39 -90.5q0 -68 -49 -114q-34 -29 -110 -41l-15 -76h-90zM892 178q-83 -108 -172 -152t-226 -44q-199 0 -303 129q-92 113 -92 303q0 184 79 341
q77 153 209 242q135 92 296 92q157 0 246 -91q77 -79 77 -204q0 -184 -203 -266q-177 -72 -536 -77v-48q0 -284 235 -284q170 0 263 135zM285 582q316 0 442 55q111 48 111 153q0 78 -45 120t-129 42q-288 0 -379 -370z" />
    <glyph glyph-name="uni1EBC" unicode="&#x1ebc;" 
d="M559 1651q47 221 190 221q59 0 154 -60q67 -39 94 -39q62 0 86 103l105 -12q-48 -222 -193 -222q-55 0 -151 60q-65 39 -93 39q-61 0 -86 -103zM377 1464h876l-26 -139h-711l-102 -520h581l-24 -135h-582l-104 -531h747l-27 -139h-913z" />
    <glyph glyph-name="uni1EBD" unicode="&#x1ebd;" horiz-adv-x="1070" 
d="M396 1319q47 221 190 221q55 0 154 -60q65 -39 94 -39q61 0 86 103l105 -12q-48 -222 -193 -222q-55 0 -151 60q-65 39 -95 39q-59 0 -84 -103zM892 178q-83 -108 -172 -152t-226 -44q-199 0 -303 129q-92 113 -92 303q0 184 79 341q77 153 209 242q135 92 296 92
q157 0 246 -91q77 -79 77 -204q0 -184 -203 -266q-177 -72 -536 -77v-48q0 -284 235 -284q170 0 263 135zM285 582q316 0 442 55q111 48 111 153q0 78 -45 120t-129 42q-288 0 -379 -370z" />
    <glyph glyph-name="uni1EBE" unicode="&#x1ebe;" horiz-adv-x="1230" 
d="M563 1554l266 332h144l63 -158l148 265h223l-291 -332h-53l43 -107h-107l-125 187l-198 -187h-113zM377 1464h876l-26 -139h-711l-102 -520h581l-24 -135h-582l-104 -531h747l-27 -139h-913z" />
    <glyph glyph-name="uni1EBF" unicode="&#x1ebf;" horiz-adv-x="1079" 
d="M1012 1729h224l-291 -332h-55l61 -154h-117l-125 187l-198 -187h-113l266 332h154l45 -115zM892 178q-83 -108 -172 -152t-226 -44q-199 0 -303 129q-92 113 -92 303q0 184 79 341q77 153 209 242q135 92 296 92q157 0 246 -91q77 -79 77 -204q0 -184 -203 -266
q-177 -72 -536 -77v-48q0 -284 235 -284q170 0 263 135zM285 582q316 0 442 55q111 48 111 153q0 78 -45 120t-129 42q-288 0 -379 -370z" />
    <glyph glyph-name="uni1EC0" unicode="&#x1ec0;" 
d="M958 2013h224l53 -332h-117zM786 1862h144l133 -332h-107l-125 186l-198 -186h-113zM377 1464h876l-26 -139h-711l-102 -520h581l-24 -135h-582l-104 -531h747l-27 -139h-913z" />
    <glyph glyph-name="uni1EC1" unicode="&#x1ec1;" horiz-adv-x="1069" 
d="M816 1761h223l53 -332h-116zM658 1573h154l135 -332h-117l-127 186l-196 -186h-113zM892 178q-83 -108 -172 -152t-226 -44q-199 0 -303 129q-92 113 -92 303q0 184 79 341q77 153 209 242q135 92 296 92q157 0 246 -91q77 -79 77 -204q0 -184 -203 -266
q-177 -72 -536 -77v-48q0 -284 235 -284q170 0 263 135zM285 582q316 0 442 55q111 48 111 153q0 78 -45 120t-129 42q-288 0 -379 -370z" />
    <glyph glyph-name="uni1EC2" unicode="&#x1ec2;" horiz-adv-x="1229" 
d="M1112 1665l24 131q75 11 100.5 25.5t33.5 52.5q2 10 2 19q0 40 -55 40q-41 0 -74 -11t-107 -50l-29 67q136 82 228 82q64 0 103 -34t39 -90q0 -14 -3 -29q-12 -66 -67 -101q-28 -16 -91 -26l-14 -76h-90zM815 1855h143l133 -331h-106l-125 186l-199 -186h-112zM377 1464
h876l-26 -139h-711l-102 -520h581l-24 -135h-582l-104 -531h747l-27 -139h-913z" />
    <glyph glyph-name="uni1EC3" unicode="&#x1ec3;" horiz-adv-x="1074" 
d="M904 1456l24 131q80 11 107 31t27 67q0 39 -49 39q-44 0 -79.5 -12t-105.5 -49l-29 67q81 47 129.5 64.5t98.5 17.5q62 0 101.5 -34.5t39.5 -88.5q0 -72 -49 -114q-33 -31 -111 -43l-14 -76h-90zM646 1575h153l136 -332h-117l-127 187l-197 -187h-112zM892 178
q-83 -108 -172 -152t-226 -44q-199 0 -303 129q-92 113 -92 303q0 184 79 341q77 153 209 242q135 92 296 92q157 0 246 -91q77 -79 77 -204q0 -184 -203 -266q-177 -72 -536 -77v-48q0 -284 235 -284q170 0 263 135zM285 582q316 0 442 55q111 48 111 153q0 78 -45 120
t-129 42q-288 0 -379 -370z" />
    <glyph glyph-name="uni1EC4" unicode="&#x1ec4;" 
d="M547 1827q38 96 99 148.5t134 52.5q56 0 143 -49q60 -35 91 -35q62 0 96 88l104 -13q-36 -94 -97.5 -147t-133.5 -53q-51 0 -141 49q-65 35 -93 35q-59 0 -96 -88zM794 1794h144l139 -303h-106l-129 170l-195 -170h-113zM377 1464h876l-26 -139h-711l-102 -520h581
l-24 -135h-582l-104 -531h747l-27 -139h-913z" />
    <glyph glyph-name="uni1EC5" unicode="&#x1ec5;" horiz-adv-x="1068" 
d="M408 1581q43 113 110 171q59 50 128 50q48 0 141 -55q61 -37 90 -37q62 0 99 96l104 -12q-41 -111 -109 -170q-59 -51 -127 -51q-56 0 -141 53q-62 39 -90 39q-64 0 -98 -96zM650 1520h154l133 -332h-117l-125 186l-199 -186h-112zM892 178q-83 -108 -172 -152t-226 -44
q-199 0 -303 129q-92 113 -92 303q0 184 79 341q77 153 209 242q135 92 296 92q157 0 246 -91q77 -79 77 -204q0 -184 -203 -266q-177 -72 -536 -77v-48q0 -284 235 -284q170 0 263 135zM285 582q316 0 442 55q111 48 111 153q0 78 -45 120t-129 42q-288 0 -379 -370z" />
    <glyph glyph-name="uni1EC6" unicode="&#x1ec6;" 
d="M848 1956h145l135 -332h-110l-119 193l-197 -193h-114zM377 1464h876l-26 -139h-711l-102 -520h581l-24 -135h-582l-104 -531h747l-27 -139h-913zM469 -131q46 0 75 -27.5t29 -70.5q0 -51 -35.5 -87t-85.5 -36q-44 0 -73 28.5t-29 71.5q0 51 34.5 86t84.5 35z" />
    </font>
</defs>
</svg>
